<svg class="main-svg" xmlns="http://www.w3.org/2000/svg" xmlns:xlink="http://www.w3.org/1999/xlink" width="2200" height="1000" style="" viewBox="0 0 1100 500"><rect x="0" y="0" width="1100" height="500" style="fill: rgb(255, 255, 255); fill-opacity: 1;"/><defs id="defs-39f975"><g class="clips"><clipPath id="clip39f975xyplot" class="plotclip"><rect width="1025" height="385"/></clipPath><clipPath class="axesclip" id="clip39f975x"><rect x="60" y="0" width="1025" height="500"/></clipPath><clipPath class="axesclip" id="clip39f975y"><rect x="0" y="50" width="1100" height="385"/></clipPath><clipPath class="axesclip" id="clip39f975xy"><rect x="60" y="50" width="1025" height="385"/></clipPath></g><g class="gradients"/><g class="patterns"/></defs><g class="bglayer"/><g class="layer-below"><g class="imagelayer"/><g class="shapelayer"/></g><g class="cartesianlayer"><g class="subplot xy"><g class="layer-subplot"><g class="shapelayer"/><g class="imagelayer"/></g><g class="minor-gridlayer"><g class="x"/><g class="y"/></g><g class="gridlayer"><g class="x"><path class="xgrid crisp" transform="translate(190.7,0)" d="M0,50v385" style="stroke: rgb(0, 0, 0); stroke-opacity: 0.05; stroke-width: 1px;"/><path class="xgrid crisp" transform="translate(328.29,0)" d="M0,50v385" style="stroke: rgb(0, 0, 0); stroke-opacity: 0.05; stroke-width: 1px;"/><path class="xgrid crisp" transform="translate(465.87,0)" d="M0,50v385" style="stroke: rgb(0, 0, 0); stroke-opacity: 0.05; stroke-width: 1px;"/><path class="xgrid crisp" transform="translate(603.46,0)" d="M0,50v385" style="stroke: rgb(0, 0, 0); stroke-opacity: 0.05; stroke-width: 1px;"/><path class="xgrid crisp" transform="translate(741.04,0)" d="M0,50v385" style="stroke: rgb(0, 0, 0); stroke-opacity: 0.05; stroke-width: 1px;"/><path class="xgrid crisp" transform="translate(878.62,0)" d="M0,50v385" style="stroke: rgb(0, 0, 0); stroke-opacity: 0.05; stroke-width: 1px;"/><path class="xgrid crisp" transform="translate(1016.21,0)" d="M0,50v385" style="stroke: rgb(0, 0, 0); stroke-opacity: 0.05; stroke-width: 1px;"/></g><g class="y"><path class="ygrid crisp" transform="translate(0,358.93)" d="M60,0h1025" style="stroke: rgb(0, 0, 0); stroke-opacity: 0.05; stroke-width: 1px;"/><path class="ygrid crisp" transform="translate(0,282.86)" d="M60,0h1025" style="stroke: rgb(0, 0, 0); stroke-opacity: 0.05; stroke-width: 1px;"/><path class="ygrid crisp" transform="translate(0,206.79)" d="M60,0h1025" style="stroke: rgb(0, 0, 0); stroke-opacity: 0.05; stroke-width: 1px;"/><path class="ygrid crisp" transform="translate(0,130.72)" d="M60,0h1025" style="stroke: rgb(0, 0, 0); stroke-opacity: 0.05; stroke-width: 1px;"/><path class="ygrid crisp" transform="translate(0,54.65)" d="M60,0h1025" style="stroke: rgb(0, 0, 0); stroke-opacity: 0.05; stroke-width: 1px;"/></g></g><g class="zerolinelayer"><path class="yzl zl crisp" transform="translate(0,435)" d="M60,0h1025" style="stroke: rgb(0, 0, 0); stroke-opacity: 0.05; stroke-width: 1px;"/></g><g class="layer-between"><g class="shapelayer"/><g class="imagelayer"/></g><path class="xlines-below"/><path class="ylines-below"/><g class="overlines-below"/><g class="xaxislayer-below"/><g class="yaxislayer-below"/><g class="overaxes-below"/><g class="overplot"><g class="xy" transform="translate(60,50)" clip-path="url(#clip39f975xyplot)"><g class="scatterlayer mlayer"><g class="trace scatter tracebe1a10" style="stroke-miterlimit: 2; opacity: 1;"><g class="fills"/><g class="errorbars"/><g class="lines"><path class="js-line" d="M0,385L61.91,384.67L68.79,383.7L75.67,379.75L82.55,359.95L110.07,359.55L116.95,358.65L123.83,360.13L130.7,359.79L137.58,359.57L144.46,358.08L151.34,358.81L158.22,358.36L171.98,358.8L178.86,359.34L185.74,358.71L192.62,359.69L206.38,359.21L213.26,357.23L247.65,361.63L254.53,362.64L288.93,364.35L295.81,365.95L302.68,360.82L309.56,371.52L316.44,368.98L323.32,368.64L371.48,372.94L378.36,374.32L392.11,375.52L398.99,376.71L419.63,378.73L426.51,378.77L467.79,381.51L474.66,381.7L481.54,381.02L488.42,370.72L495.3,381.99L502.18,384.01L515.94,384.63L522.82,384.69L660.4,384.98L667.28,384.98L1025,384.84" style="vector-effect: none; fill: none; stroke: rgb(124, 181, 236); stroke-opacity: 1; stroke-width: 2px; opacity: 1;"/></g><g class="points"/><g class="text"/></g><g class="trace scatter trace05c05f" style="stroke-miterlimit: 2; opacity: 1;"><g class="fills"/><g class="errorbars"/><g class="lines"><path class="js-line" d="M0,385L61.91,384.68L68.79,383.75L75.67,379.91L82.55,359.26L89.43,354.75L96.31,363.54L103.19,358.97L110.07,360.82L116.95,364.71L123.83,360.56L130.7,362.5L137.58,362.16L158.22,355.74L165.1,361.25L171.98,360.06L178.86,361.07L185.74,358.05L192.62,361.51L199.5,353.99L206.38,365.44L213.26,356.68L220.13,360.69L227.01,360.98L233.89,360.51L240.77,362.25L247.65,361.58L254.53,363.39L261.41,364.2L275.17,364.86L282.05,364.88L288.93,365.94L295.81,366.17L309.56,366.84L316.44,367.73L323.32,368.98L330.2,369.31L350.84,371.83L357.72,371.27L371.48,374.22L378.36,373.51L398.99,377.19L405.87,376.89L412.75,378.53L419.63,379.26L426.51,378.18L433.39,381.02L440.27,380.31L447.15,380.76L467.79,381.69L474.66,382.05L502.18,382.87L509.06,382.13L515.94,375.17L522.82,383.58L529.7,384.62L536.58,384.8L859.9,385L866.78,385L1025,384.87" style="vector-effect: none; fill: none; stroke: rgb(67, 67, 72); stroke-opacity: 1; stroke-width: 2px; opacity: 1;"/></g><g class="points"/><g class="text"/></g><g class="trace scatter trace2bb69b" style="stroke-miterlimit: 2; opacity: 1;"><g class="fills"/><g class="errorbars"/><g class="lines"><path class="js-line" d="M0,385L68.79,384.33L75.67,382.14L82.55,373.31L89.43,372.75L96.31,371.64L103.19,371.5L110.07,371.06L116.95,369.62L123.83,372.27L130.7,371.24L137.58,371.33L144.46,370.2L151.34,368.84L158.22,368.79L192.62,368.75L199.5,368.5L206.38,369.25L213.26,368.82L240.77,364.33L247.65,364.39L254.53,363.92L261.41,366.51L275.17,364.85L282.05,362.25L295.81,362.97L302.68,353.87L309.56,368.8L316.44,363.88L323.32,359.54L330.2,360.24L337.08,362.71L343.96,358.84L350.84,359.05L357.72,362.12L371.48,359.95L378.36,362.31L385.23,357.64L392.11,357.88L405.87,362.29L412.75,364.4L419.63,365.51L426.51,362.84L433.39,362.83L440.27,364.91L447.15,360.96L454.03,362.14L460.91,364.53L467.79,365.17L474.66,363.42L481.54,353.38L488.42,211.2L495.3,343.07L502.18,372.24L509.06,379.48L515.94,381L522.82,381.43L536.58,382.47L543.46,382.54L564.09,382.82L570.97,383.05L626.01,384.2L632.89,384.25L708.56,384.82L715.44,384.86L1018.12,384.89L1025,383.68" style="vector-effect: none; fill: none; stroke: rgb(144, 237, 125); stroke-opacity: 1; stroke-width: 2px; opacity: 1;"/></g><g class="points"/><g class="text"/></g><g class="trace scatter trace044302" style="stroke-miterlimit: 2; opacity: 1;"><g class="fills"/><g class="errorbars"/><g class="lines"><path class="js-line" d="M0,385L68.79,384.38L75.67,382.29L82.55,372.26L89.43,367.65L96.31,374.81L103.19,370.91L110.07,371.99L116.95,375.06L123.83,372.52L130.7,373.65L137.58,373.63L144.46,371.57L151.34,369.18L158.22,368.45L165.1,369.74L171.98,369.64L178.86,369.87L185.74,367.51L192.62,370.3L199.5,364.38L206.38,373.54L213.26,368.83L220.13,370.34L227.01,366.24L233.89,366.41L240.77,360.78L247.65,370.01L254.53,363.37L261.41,369.09L268.29,368.14L275.17,367.66L282.05,364.48L288.93,365.47L295.81,364L302.68,361.45L309.56,362.58L316.44,360.98L323.32,361.62L343.96,361.07L350.84,359.74L357.72,359.84L364.6,358.11L371.48,364.31L378.36,359.45L385.23,356.55L392.11,360.99L398.99,362.31L405.87,360.22L412.75,364.94L419.63,365.74L426.51,357.53L433.39,372.21L440.27,367.61L447.15,367.1L454.03,362.35L460.91,365.92L467.79,367.06L474.66,367.06L488.42,367.51L495.3,366.54L502.18,363.45L509.06,354.61L515.94,249.5L522.82,361.7L529.7,379.25L536.58,382.2L570.97,383.22L577.85,383.47L605.37,383.89L612.25,384.07L715.44,384.87L722.32,384.88L1018.12,384.96L1025,383.93" style="vector-effect: none; fill: none; stroke: rgb(247, 163, 92); stroke-opacity: 1; stroke-width: 2px; opacity: 1;"/></g><g class="points"/><g class="text"/></g><g class="trace scatter tracecc0e5f" style="stroke-miterlimit: 2; opacity: 1;"><g class="fills"/><g class="errorbars"/><g class="lines"><path class="js-line" d="M0,385L61.91,384.77L68.79,384.12L75.67,381.31L82.55,371.3L89.43,372.66L96.31,372.2L110.07,372.45L116.95,370.88L123.83,372.9L130.7,371.85L137.58,372.45L144.46,371.8L151.34,371.5L158.22,372.02L171.98,371.9L178.86,372.17L185.74,371.64L192.62,372.43L220.13,372.38L227.01,371.48L233.89,372.07L240.77,371.82L254.53,371.27L261.41,372.95L268.29,372.39L275.17,372.67L288.93,372.01L295.81,372.61L302.68,368.55L309.56,376.59L323.32,372.75L330.2,373.13L343.96,373.73L350.84,373.14L364.6,373.82L371.48,373.05L378.36,373.97L385.23,373.31L392.11,373.38L398.99,374.43L419.63,375.16L426.51,374.43L440.27,375.93L447.15,374.67L460.91,375.97L467.79,375.75L474.66,375.44L481.54,370.32L488.42,300.01L495.3,364.69L502.18,378.95L509.06,382.42L522.82,383.32L529.7,383.65L646.64,384.66L653.52,384.69L832.38,384.98L839.26,384.98L1018.12,384.94L1025,384.26" style="vector-effect: none; fill: none; stroke: rgb(128, 133, 233); stroke-opacity: 1; stroke-width: 2px; opacity: 1;"/></g><g class="points"/><g class="text"/></g><g class="trace scatter trace4342d9" style="stroke-miterlimit: 2; opacity: 1;"><g class="fills"/><g class="errorbars"/><g class="lines"><path class="js-line" d="M0,385L61.91,384.78L68.79,384.21L75.67,381.59L82.55,371.12L89.43,368.61L96.31,375.28L103.19,372.37L110.07,372.69L116.95,375.92L123.83,372.88L130.7,374.18L137.58,374.56L158.22,369.74L165.1,373.96L171.98,373.15L178.86,373.71L185.74,371.15L192.62,374.12L199.5,368.95L206.38,376.95L213.26,372.05L220.13,374.05L227.01,373.12L233.89,373L240.77,373.64L247.65,371.48L261.41,373.42L268.29,373.35L337.08,373.65L343.96,374.26L357.72,372.7L364.6,373.04L371.48,374.91L378.36,372.79L385.23,372.95L392.11,374.01L398.99,375.23L405.87,373.62L412.75,375.35L419.63,375.86L426.51,372.82L433.39,378.58L440.27,376.69L447.15,376.98L454.03,375.88L460.91,376.53L488.42,377.36L495.3,376.82L502.18,375.89L509.06,371.05L515.94,312.48L522.82,372.98L529.7,382.23L536.58,383.68L577.85,384.21L584.73,384.16L674.16,384.78L681.04,384.8L1018.12,384.98L1025,384.42" style="vector-effect: none; fill: none; stroke: rgb(241, 92, 128); stroke-opacity: 1; stroke-width: 2px; opacity: 1;"/></g><g class="points"/><g class="text"/></g><g class="trace scatter trace13205a" style="stroke-miterlimit: 2; opacity: 1;"><g class="fills"/><g class="errorbars"/><g class="lines"><path class="js-line" d="M0,385L61.91,384.8L68.79,384.22L75.67,381.87L82.55,373.38L116.95,373.45L123.83,373.87L151.34,373.74L158.22,374L227.01,374.39L233.89,374.58L261.41,375.53L268.29,375.24L288.93,375.23L295.81,375.87L302.68,373.19L309.56,378.28L316.44,376.92L323.32,376.37L392.11,377.43L398.99,377.91L419.63,378.57L426.51,378.16L440.27,378.99L447.15,378.61L460.91,379.41L467.79,379.44L474.66,379.24L481.54,377.69L488.42,347.45L495.3,376.63L502.18,382.43L509.06,383.78L536.58,384.4L543.46,384.44L715.44,384.98L722.32,384.98L1025,384.81" style="vector-effect: none; fill: none; stroke: rgb(228, 211, 84); stroke-opacity: 1; stroke-width: 2px; opacity: 1;"/></g><g class="points"/><g class="text"/></g><g class="trace scatter trace5d28ed" style="stroke-miterlimit: 2; opacity: 1;"><g class="fills"/><g class="errorbars"/><g class="lines"><path class="js-line" d="M0,385L68.79,384.27L75.67,382.05L82.55,372.86L89.43,370.67L96.31,375.74L103.19,373.19L116.95,376.29L123.83,374.56L137.58,375.19L144.46,374.25L158.22,374.19L165.1,374.3L178.86,374.76L185.74,374.03L192.62,375.08L199.5,372.3L206.38,376.63L213.26,374.39L220.13,375.3L227.01,374.26L233.89,374.73L240.77,373.74L247.65,376.98L254.53,374.75L261.41,376.66L268.29,376.22L295.81,376.24L302.68,375.66L330.2,376.57L337.08,376.27L350.84,376.71L357.72,375.56L371.48,377.65L378.36,376.43L398.99,378.29L405.87,377.43L412.75,378.67L419.63,379.04L426.51,377.09L433.39,380.97L440.27,379.53L447.15,379.98L454.03,379.39L460.91,379.62L495.3,380.38L502.18,379.85L509.06,378.31L515.94,357.9L522.82,380.82L529.7,383.94L550.34,384.54L557.21,384.59L818.62,385L825.5,385L1025,384.86" style="vector-effect: none; fill: none; stroke: rgb(43, 144, 143); stroke-opacity: 1; stroke-width: 2px; opacity: 1;"/></g><g class="points"/><g class="text"/></g><g class="trace scatter trace6f23f9" style="stroke-miterlimit: 2; opacity: 1;"><g class="fills"/><g class="errorbars"/><g class="lines"><path class="js-line" d="M0,385L61.91,384.77L68.79,384.1L75.67,381.25L82.55,369.7L185.74,366.77L192.62,367.3L199.5,366.82L206.38,367.33L220.13,366.45L227.01,364.83L240.77,365.16L247.65,364.43L261.41,365L268.29,364.65L282.05,362.63L288.93,359.23L295.81,366.23L302.68,355.63L309.56,369.89L316.44,363.85L323.32,362.06L330.2,361.4L337.08,362.42L343.96,361.5L350.84,360.91L357.72,362.07L364.6,361.71L371.48,360.17L378.36,362.48L385.23,360.65L392.11,360.21L398.99,361.32L419.63,364.31L426.51,362.3L433.39,362.55L440.27,363.97L447.15,360.19L454.03,362.07L460.91,363.03L467.79,363.21L474.66,360.81L481.54,354.95L488.42,171.08L495.3,331.36L502.18,369.21L509.06,378.31L515.94,380.62L522.82,380.93L536.58,381.94L543.46,381.96L564.09,382.28L570.97,382.59L660.4,384.24L667.28,384.32L846.14,384.98L853.02,384.99L1025,384.87" style="vector-effect: none; fill: none; stroke: rgb(244, 91, 91); stroke-opacity: 1; stroke-width: 2px; opacity: 1;"/></g><g class="points"/><g class="text"/></g><g class="trace scatter trace059fff" style="stroke-miterlimit: 2; opacity: 1;"><g class="fills"/><g class="errorbars"/><g class="lines"><path class="js-line" d="M0,385L61.91,384.78L68.79,384.14L75.67,381.41L82.55,368.89L89.43,364.88L96.31,372.24L103.19,368.33L110.07,369.72L116.95,373.05L123.83,369.62L130.7,371.07L137.58,371L151.34,367.47L158.22,364.43L165.1,369.75L171.98,368.54L178.86,369.17L185.74,366.3L192.62,369.26L199.5,362.1L206.38,372.63L213.26,366.64L220.13,368.44L227.01,367.61L233.89,366.07L240.77,366.67L247.65,364.2L254.53,366.09L261.41,366.82L268.29,366.59L275.17,366.11L282.05,364.42L288.93,365.71L295.81,364.34L316.44,361.71L323.32,363.11L330.2,361.8L337.08,361.9L343.96,362.7L350.84,361.66L357.72,359.61L364.6,360.06L371.48,364.08L378.36,359.44L385.23,359.43L392.11,361.56L398.99,362.96L405.87,359.96L412.75,363.97L419.63,365.57L426.51,358.5L433.39,371.17L440.27,366.15L447.15,366.25L454.03,362.63L460.91,364.58L467.79,365.31L474.66,365.09L481.54,365.29L488.42,364.34L495.3,363.92L502.18,362.04L509.06,355.34L515.94,206.31L522.82,355.92L529.7,378.45L536.58,381.81L543.46,382.18L612.25,383.61L619.13,383.73L660.4,384.31L667.28,384.44L1018.12,384.99L1025,384.9" style="vector-effect: none; fill: none; stroke: rgb(145, 232, 225); stroke-opacity: 1; stroke-width: 2px; opacity: 1;"/></g><g class="points"/><g class="text"/></g><g class="trace scatter traceb03967" style="stroke-miterlimit: 2; opacity: 1;"><g class="fills"/><g class="errorbars"/><g class="lines"><path class="js-line" d="M0,385L61.91,384.79L68.79,384.21L75.67,381.69L82.55,372.13L116.95,372.26L123.83,373.48L130.7,373.05L137.58,373.45L144.46,373.03L151.34,373.42L206.38,374.66L213.26,373.97L254.53,375.8L261.41,375.93L295.81,376.54L302.68,374.16L309.56,378.85L316.44,377.64L330.2,377.23L337.08,377.28L371.48,377.49L378.36,378.29L405.87,379.12L412.75,379.38L433.39,379.31L440.27,379.77L447.15,379.33L454.03,380.03L474.66,379.9L481.54,375.02L488.42,351.21L495.3,377.11L502.18,382.44L509.06,383.78L529.7,384.39L536.58,384.46L708.56,384.98L715.44,384.98L1018.12,384.91L1025,383.93" style="vector-effect: none; fill: none; stroke: rgb(124, 181, 236); stroke-opacity: 1; stroke-width: 2px; opacity: 1;"/></g><g class="points"/><g class="text"/></g><g class="trace scatter trace1bed57" style="stroke-miterlimit: 2; opacity: 1;"><g class="fills"/><g class="errorbars"/><g class="lines"><path class="js-line" d="M0,385L61.91,384.8L68.79,384.24L75.67,381.82L82.55,371.78L89.43,369.65L96.31,374.37L103.19,372.02L110.07,373.5L116.95,375.13L123.83,373.66L137.58,374.37L144.46,373.57L158.22,373.67L165.1,373.96L185.74,373.95L192.62,375L199.5,372.88L206.38,376.41L213.26,374.11L220.13,375.24L227.01,374.46L233.89,375.12L240.77,374.45L247.65,376.99L254.53,375.38L261.41,376.88L282.05,376.33L288.93,376.63L350.84,377.51L357.72,376.94L371.48,378.39L378.36,377.66L398.99,379.05L405.87,378.49L419.63,379.61L426.51,378.16L433.39,381.16L440.27,380.07L467.79,380.44L474.66,380.62L502.18,380.59L509.06,375.58L515.94,357.82L522.82,380.81L529.7,383.92L536.58,384.41L605.37,384.78L612.25,384.81L928.69,385L935.57,385L1018.12,384.96L1025,384.17" style="vector-effect: none; fill: none; stroke: rgb(67, 67, 72); stroke-opacity: 1; stroke-width: 2px; opacity: 1;"/></g><g class="points"/><g class="text"/></g><g class="trace scatter trace34694c" style="stroke-miterlimit: 2; opacity: 1;"><g class="fills"/><g class="errorbars"/><g class="lines"><path class="js-line" d="M0,385L68.79,384.27L75.67,382.1L82.55,373.44L89.43,373.29L96.31,372.29L103.19,372.57L130.7,373.26L137.58,372.34L144.46,373.63L151.34,372.87L158.22,373.98L165.1,374.06L171.98,373.33L178.86,373.72L220.13,372.21L227.01,372.83L240.77,374.26L247.65,373.11L254.53,374.42L261.41,373.73L275.17,373.01L282.05,373.88L295.81,374.22L302.68,370L309.56,376.88L316.44,375.31L337.08,374.16L343.96,373.84L357.72,373.99L364.6,373.65L371.48,372.52L378.36,374.37L385.23,374.97L392.11,374.08L398.99,373.56L405.87,374.95L419.63,375.03L426.51,374.73L440.27,375.03L447.15,373.83L454.03,375.92L460.91,375.88L474.66,374.65L481.54,370.91L488.42,296.55L495.3,364.19L502.18,378.77L509.06,382.2L522.82,383.37L529.7,383.54L681.04,384.83L687.92,384.85L894.3,385L901.17,385L1025,384.75" style="vector-effect: none; fill: none; stroke: rgb(144, 237, 125); stroke-opacity: 1; stroke-width: 2px; opacity: 1;"/></g><g class="points"/><g class="text"/></g><g class="trace scatter trace6a4512" style="stroke-miterlimit: 2; opacity: 1;"><g class="fills"/><g class="errorbars"/><g class="lines"><path class="js-line" d="M0,385L68.79,384.3L75.67,382.13L82.55,373.07L89.43,369.64L96.31,374.55L103.19,372.09L110.07,372.65L116.95,376.24L123.83,373.01L130.7,374.62L137.58,373.59L144.46,374.12L151.34,372.58L158.22,372.09L165.1,375.25L171.98,373.78L178.86,374.5L185.74,372.87L192.62,373.96L199.5,369.76L206.38,376.3L213.26,372.31L227.01,373.91L233.89,374.25L240.77,374.85L247.65,372.67L254.53,374.58L261.41,374.25L275.17,373.86L282.05,373.98L288.93,374.81L295.81,374.29L302.68,373.53L309.56,373.75L323.32,374.73L330.2,374.15L350.84,374.24L357.72,373.16L364.6,373L371.48,373.92L378.36,373.34L385.23,374.36L405.87,373.76L412.75,375.09L419.63,375.59L426.51,373.21L433.39,377.89L440.27,375.36L460.91,376.25L467.79,376.05L481.54,376.09L488.42,375.26L502.18,375.39L509.06,372.34L515.94,308.16L522.82,373.33L529.7,382.39L536.58,383.68L577.85,384.13L584.73,384.04L784.23,384.99L791.11,384.99L1025,384.81" style="vector-effect: none; fill: none; stroke: rgb(247, 163, 92); stroke-opacity: 1; stroke-width: 2px; opacity: 1;"/></g><g class="points"/><g class="text"/></g><g class="trace scatter tracea3dc5b" style="stroke-miterlimit: 2; opacity: 1;"><g class="fills"/><g class="errorbars"/><g class="lines"><path class="js-line" d="M0,385L61.91,384.79L68.79,384.15L75.67,381.6L82.55,371.44L137.58,371.76L144.46,371L158.22,371.27L165.1,371.19L171.98,371.77L178.86,371.53L199.5,371.81L206.38,372.17L213.26,371.1L220.13,371.91L227.01,371.34L233.89,371.84L282.05,372.41L288.93,371.95L295.81,372.74L302.68,368.83L309.56,376.01L316.44,374.27L323.32,373.16L330.2,373.48L371.48,373.11L378.36,374.12L392.11,374.24L398.99,374.86L412.75,375.64L419.63,375.5L426.51,374.95L433.39,375.4L440.27,375.96L447.15,375.11L454.03,375.98L460.91,376.07L467.79,375.91L474.66,374.3L481.54,308.87L488.42,292.22L495.3,362.81L502.18,375.96L509.06,380.85L515.94,382.13L529.7,383.31L536.58,383.42L591.61,384.13L598.49,384.18L701.68,384.85L708.56,384.87L969.97,384.9L976.85,384.89L1011.24,384.54L1018.12,383.56L1025,368.27" style="vector-effect: none; fill: none; stroke: rgb(128, 133, 233); stroke-opacity: 1; stroke-width: 2px; opacity: 1;"/></g><g class="points"/><g class="text"/></g><g class="trace scatter trace9471a7" style="stroke-miterlimit: 2; opacity: 1;"><g class="fills"/><g class="errorbars"/><g class="lines"><path class="js-line" d="M0,385L61.91,384.79L68.79,384.23L75.67,381.86L82.55,370.75L89.43,368.06L96.31,374.5L103.19,371.01L110.07,372.84L116.95,374.91L123.83,372.76L137.58,373.78L144.46,372.5L151.34,371.45L158.22,371.6L178.86,372.2L185.74,371.06L192.62,372.92L199.5,369.55L206.38,374.93L213.26,371.73L220.13,373.2L227.01,371.35L233.89,372.09L240.77,370.41L247.65,374.57L254.53,371.31L261.41,374.01L268.29,373.72L275.17,373.92L282.05,373.17L295.81,373.46L302.68,372.66L316.44,372.91L323.32,373.96L337.08,373.14L343.96,374.12L350.84,373.65L357.72,372.19L364.6,373L371.48,374.67L378.36,372.77L385.23,373.62L398.99,375.37L405.87,374.07L412.75,375.78L419.63,376.09L426.51,373.36L433.39,379.04L440.27,376.87L447.15,377.33L454.03,376.15L460.91,376.57L495.3,376.82L502.18,374.24L509.06,304.64L515.94,304.2L522.82,370.19L529.7,380.6L536.58,382.78L543.46,383.27L570.97,383.92L577.85,383.98L990.6,384.97L997.48,384.96L1018.12,384.46L1025,371.53" style="vector-effect: none; fill: none; stroke: rgb(241, 92, 128); stroke-opacity: 1; stroke-width: 2px; opacity: 1;"/></g><g class="points"/><g class="text"/></g><g class="trace scatter trace044b5d" style="stroke-miterlimit: 2; opacity: 1;"><g class="fills"/><g class="errorbars"/><g class="lines"><path class="js-line" d="M0,385L68.79,384.53L75.67,383.1L82.55,377.2L89.43,376.91L116.95,374.04L123.83,375.36L151.34,372.65L158.22,372.61L171.98,372.68L178.86,372.86L199.5,371.29L206.38,371.8L213.26,371.3L220.13,369.26L227.01,367.26L233.89,367.08L240.77,365.33L247.65,365.46L254.53,364.51L261.41,366.81L268.29,364.74L275.17,363.89L282.05,361.1L288.93,361.1L295.81,361.25L302.68,349.37L309.56,367L316.44,358.24L323.32,353.82L330.2,352.05L337.08,355.37L343.96,351.97L350.84,351.35L357.72,355.85L371.48,351.81L378.36,354.32L385.23,348.51L392.11,347.62L405.87,351.11L412.75,354.38L419.63,356.01L426.51,351.59L433.39,351.06L440.27,352.16L447.15,344.22L454.03,345.72L460.91,349.32L467.79,349.52L474.66,344.97L481.54,333.67L488.42,19.25L495.3,293.55L502.18,357.61L509.06,373.66L515.94,377.31L522.82,377.99L536.58,380.11L543.46,380.08L550.34,379.54L557.21,379.89L584.73,381.34L591.61,381.7L619.13,382.66L626.01,383.03L791.11,384.81L797.99,384.79L1011.24,384.99L1018.12,384.98L1025,384.72" style="vector-effect: none; fill: none; stroke: rgb(228, 211, 84); stroke-opacity: 1; stroke-width: 2px; opacity: 1;"/></g><g class="points"/><g class="text"/></g><g class="trace scatter tracef379ec" style="stroke-miterlimit: 2; opacity: 1;"><g class="fills"/><g class="errorbars"/><g class="lines"><path class="js-line" d="M0,385L68.79,384.57L75.67,383.11L89.43,370.04L96.31,378.56L103.19,375.41L110.07,374.4L116.95,379.17L123.83,374.95L130.7,377.65L137.58,377.23L151.34,372.94L158.22,367.71L165.1,375.34L171.98,374.31L178.86,374.99L185.74,370.68L192.62,374.51L199.5,365.16L206.38,377.65L213.26,370.44L220.13,372.69L227.01,371.77L233.89,369.47L240.77,361.93L247.65,367.91L254.53,371.46L261.41,370.27L268.29,366.57L275.17,364.01L282.05,356.05L288.93,367.24L295.81,358.24L302.68,363.16L309.56,361.33L316.44,354.42L323.32,355.95L330.2,354.49L337.08,354.14L343.96,355.62L350.84,353.03L357.72,353.02L364.6,347.67L371.48,359.1L378.36,350.26L385.23,344.1L392.11,352.3L398.99,352.99L405.87,347.32L412.75,354.66L419.63,356.8L426.51,340.37L433.39,366.58L440.27,357.58L447.15,356.65L454.03,346.63L460.91,351.5L467.79,353.75L474.66,353.79L495.3,350.15L502.18,342.18L509.06,333.68L515.94,88.46L522.82,331.47L529.7,372.49L536.58,379.31L543.46,380.18L550.34,379.87L557.21,380.69L577.85,381.89L584.73,381.85L646.64,383.86L653.52,383.82L791.11,384.85L797.99,384.83L1004.36,385L1011.24,385L1025,384.77" style="vector-effect: none; fill: none; stroke: rgb(43, 144, 143); stroke-opacity: 1; stroke-width: 2px; opacity: 1;"/></g><g class="points"/><g class="text"/></g><g class="trace scatter trace7c9ad2" style="stroke-miterlimit: 2; opacity: 1;"><g class="fills"/><g class="errorbars"/><g class="lines"><path class="js-line" d="M0,385L61.91,384.73L68.79,383.94L75.67,380.65L82.55,364.5L103.19,364.12L110.07,364.36L116.95,363.05L123.83,366.23L130.7,365.28L137.58,365.56L151.34,364.28L158.22,363.84L171.98,363.25L178.86,363.87L199.5,365.2L206.38,365.23L240.77,363.68L247.65,365.12L254.53,364.5L261.41,367.07L288.93,365.57L295.81,366.43L302.68,360L309.56,371.92L316.44,368.51L323.32,367.11L337.08,367.82L343.96,367.8L371.48,367.39L378.36,368.78L392.11,369.08L398.99,370.1L419.63,371.98L426.51,370.9L440.27,372.44L447.15,370.91L454.03,372.48L460.91,372.73L467.79,372.76L474.66,371.88L481.54,361.02L488.42,283.33L495.3,361.42L502.18,377.74L509.06,381.72L515.94,382.63L550.34,383.59L557.21,383.72L742.95,384.94L749.83,384.95L1018.12,384.83L1025,382.89" style="vector-effect: none; fill: none; stroke: rgb(244, 91, 91); stroke-opacity: 1; stroke-width: 2px; opacity: 1;"/></g><g class="points"/><g class="text"/></g><g class="trace scatter trace44ea8a" style="stroke-miterlimit: 2; opacity: 1;"><g class="fills"/><g class="errorbars"/><g class="lines"><path class="js-line" d="M0,385L61.91,384.74L68.79,384.02L75.67,380.93L82.55,363.7L89.43,359.72L96.31,368L103.19,363.65L110.07,366.54L116.95,368.87L123.83,366.25L130.7,367.53L137.58,367.92L151.34,364.08L158.22,362.2L165.1,366.23L171.98,364.86L178.86,365.72L185.74,364.22L192.62,366.93L199.5,362.36L206.38,369.18L213.26,365L220.13,366.59L227.01,364.2L233.89,366L240.77,365.59L247.65,366.31L254.53,365.92L268.29,367.88L275.17,367.1L282.05,365.5L288.93,367.81L302.68,366.36L309.56,366.87L316.44,366.42L323.32,367.94L337.08,367.29L343.96,368.68L350.84,368.29L357.72,366.21L364.6,366.84L371.48,370.05L378.36,366.9L385.23,368.02L392.11,369.96L398.99,370.95L405.87,369.32L412.75,371.86L419.63,372.91L426.51,368.61L433.39,376.63L440.27,373.55L447.15,374.11L454.03,372.83L467.79,373.64L474.66,374.24L495.3,374.48L502.18,372.65L509.06,361.88L515.94,303.04L522.82,371.56L529.7,381.63L536.58,383.28L543.46,383.57L653.52,384.69L660.4,384.72L832.38,384.99L839.26,384.99L1018.12,384.93L1025,383.32" style="vector-effect: none; fill: none; stroke: rgb(145, 232, 225); stroke-opacity: 1; stroke-width: 2px; opacity: 1;"/></g><g class="points"/><g class="text"/></g><g class="trace scatter trace18f0f4" style="stroke-miterlimit: 2; opacity: 1;"><g class="fills"/><g class="errorbars"/><g class="lines"><path class="js-line" d="M0,385L61.91,384.8L68.79,384.23L75.67,381.85L82.55,370.33L116.95,370.96L123.83,371.99L178.86,372.72L185.74,373.17L199.5,373.88L206.38,374.17L227.01,374.18L233.89,374.49L254.53,375.51L261.41,376.03L295.81,376.86L302.68,374.43L309.56,379.23L316.44,377.97L323.32,377.57L330.2,377.99L440.27,381.37L447.15,381.06L474.66,381.73L481.54,380.5L488.42,364.41L495.3,380.36L502.18,383.55L509.06,384.31L550.34,384.72L557.21,384.74L784.23,384.99L791.11,385L1025,384.8" style="vector-effect: none; fill: none; stroke: rgb(124, 181, 236); stroke-opacity: 1; stroke-width: 2px; opacity: 1;"/></g><g class="points"/><g class="text"/></g><g class="trace scatter traceb1ffe9" style="stroke-miterlimit: 2; opacity: 1;"><g class="fills"/><g class="errorbars"/><g class="lines"><path class="js-line" d="M0,385L68.79,384.28L75.67,382.07L82.55,369.95L89.43,367.92L96.31,372.9L103.19,370.37L110.07,372.83L116.95,373.97L123.83,372.67L130.7,373.41L137.58,373.81L144.46,372.83L158.22,371.34L165.1,373.81L171.98,373.21L178.86,373.83L185.74,373.29L192.62,374.69L199.5,372.63L206.38,376.16L213.26,374.26L220.13,375.25L227.01,374.28L233.89,375.26L254.53,375.73L261.41,376.33L268.29,376.91L275.17,376.64L282.05,376.16L288.93,377.29L309.56,377.33L316.44,377.26L330.2,378.13L337.08,378.1L350.84,378.59L357.72,378.19L364.6,378.55L371.48,379.7L378.36,378.8L385.23,379.24L398.99,380.43L405.87,379.9L419.63,381.29L426.51,380.13L433.39,382.5L440.27,381.7L474.66,382.26L481.54,382.27L502.18,382.18L509.06,381L515.94,369.78L522.82,382.56L529.7,384.38L536.58,384.67L681.04,384.97L687.92,384.97L1025,384.84" style="vector-effect: none; fill: none; stroke: rgb(67, 67, 72); stroke-opacity: 1; stroke-width: 2px; opacity: 1;"/></g><g class="points"/><g class="text"/></g><g class="trace scatter trace9b7b9a" style="stroke-miterlimit: 2; opacity: 1;"><g class="fills"/><g class="errorbars"/><g class="lines"><path class="js-line" d="M0,385L61.91,384.75L68.79,384.02L75.67,381.03L82.55,367.87L96.31,367.61L103.19,368.08L116.95,367.99L123.83,368.97L151.34,368.56L158.22,368.51L213.26,370.6L220.13,370.83L227.01,370.2L233.89,370.52L275.17,372.27L282.05,371.99L288.93,370.63L295.81,374.47L302.68,369.09L309.56,377.01L316.44,374.42L323.32,373.84L364.6,375.37L371.48,375.18L378.36,376.14L385.23,375.96L419.63,378.38L426.51,378.01L440.27,378.74L447.15,377.99L460.91,379.18L467.79,379.46L474.66,379.29L481.54,378.35L488.42,345.63L495.3,375.45L502.18,382.06L509.06,383.67L529.7,384.29L536.58,384.4L1025,384.98" style="vector-effect: none; fill: none; stroke: rgb(144, 237, 125); stroke-opacity: 1; stroke-width: 2px; opacity: 1;"/></g><g class="points"/><g class="text"/></g><g class="trace scatter trace81ea0d" style="stroke-miterlimit: 2; opacity: 1;"><g class="fills"/><g class="errorbars"/><g class="lines"><path class="js-line" d="M0,385L61.91,384.76L68.79,384.09L75.67,381.25L82.55,367.52L89.43,363.41L96.31,371.09L103.19,367.71L110.07,369.32L116.95,372.96L123.83,369.94L130.7,371.55L137.58,371.63L158.22,366.52L165.1,371.35L171.98,370.39L178.86,371.31L185.74,369.43L192.62,372.25L199.5,367.02L206.38,375.33L213.26,370.99L220.13,372.49L227.01,372.69L233.89,371.46L240.77,369.62L247.65,372.18L261.41,374.08L268.29,373.29L282.05,371.12L288.93,374.86L295.81,372.4L302.68,374.24L316.44,373.34L323.32,374.47L337.08,374.58L343.96,375.36L350.84,375.46L357.72,374.54L364.6,374.83L371.48,376.9L378.36,375.06L385.23,375.48L392.11,377.12L398.99,377.65L405.87,376.7L412.75,378.35L419.63,379.08L426.51,376.85L433.39,381.11L440.27,379.42L447.15,379.76L454.03,379.16L467.79,379.88L474.66,380.42L502.18,379.7L509.06,378.79L515.94,354.96L522.82,380.27L529.7,383.82L536.58,384.41L756.71,384.99L763.59,384.99L1025,384.98" style="vector-effect: none; fill: none; stroke: rgb(247, 163, 92); stroke-opacity: 1; stroke-width: 2px; opacity: 1;"/></g><g class="points"/><g class="text"/></g><g class="trace scatter tracef65f5e" style="stroke-miterlimit: 2; opacity: 1;"><g class="fills"/><g class="errorbars"/><g class="lines"><path class="js-line" d="M0,385L61.91,384.79L68.79,384.23L75.67,381.78L82.55,373.74L116.95,373.77L123.83,374.77L144.46,374.47L151.34,374.56L171.98,374.87L178.86,375.05L199.5,374.8L206.38,374.82L227.01,374.77L233.89,375.31L254.53,375.9L261.41,375.44L288.93,375.68L295.81,376.11L302.68,373.34L309.56,378.57L316.44,377.12L323.32,376.68L343.96,376.04L350.84,376.19L364.6,376.37L371.48,375.8L378.36,376.88L385.23,377.06L398.99,377.03L405.87,377.62L419.63,377.71L426.51,377.49L440.27,378.21L447.15,377.51L454.03,378.5L460.91,378.51L474.66,377.91L481.54,375.23L488.42,334.03L495.3,372.92L502.18,381.29L509.06,383.26L522.82,383.98L529.7,384.08L626.01,384.76L632.89,384.8L956.21,385L963.09,385L1025,384.66" style="vector-effect: none; fill: none; stroke: rgb(128, 133, 233); stroke-opacity: 1; stroke-width: 2px; opacity: 1;"/></g><g class="points"/><g class="text"/></g><g class="trace scatter trace564122" style="stroke-miterlimit: 2; opacity: 1;"><g class="fills"/><g class="errorbars"/><g class="lines"><path class="js-line" d="M0,385L68.79,384.28L75.67,381.84L82.55,373.54L89.43,370.55L96.31,375.93L103.19,373.74L110.07,374.05L116.95,377.14L123.83,374.52L130.7,375.95L151.34,374.35L158.22,373.09L165.1,376.04L171.98,375.38L178.86,375.91L185.74,374.3L192.62,376L199.5,372.05L206.38,377.72L213.26,374.48L220.13,375.73L227.01,376.07L233.89,375.82L240.77,374.66L254.53,376.87L261.41,376.4L282.05,374.71L288.93,377.02L295.81,375.58L302.68,376.71L343.96,376.37L350.84,376.45L364.6,375.74L371.48,377.04L378.36,376.07L385.23,376.37L398.99,377.45L405.87,376.65L419.63,378.26L426.51,376.19L433.39,380.27L440.27,378.57L447.15,378.99L454.03,378.64L502.18,378.57L509.06,376.13L515.94,343.05L522.82,378.61L529.7,383.44L536.58,384.19L612.25,384.68L619.13,384.74L729.19,384.97L736.07,384.97L1025,384.73" style="vector-effect: none; fill: none; stroke: rgb(241, 92, 128); stroke-opacity: 1; stroke-width: 2px; opacity: 1;"/></g><g class="points"/><g class="text"/></g><g class="trace scatter trace91ec55" style="stroke-miterlimit: 2; opacity: 1;"><g class="fills"/><g class="errorbars"/><g class="lines"><path class="js-line" d="M0,385L68.79,384.26L75.67,381.87L82.55,372.77L89.43,372.7L116.95,372.8L123.83,373.9L144.46,373.34L151.34,373.71L206.38,374.7L213.26,373.68L233.89,374.88L240.77,375.37L268.29,376L275.17,375.69L295.81,376.5L302.68,373.83L309.56,378.97L316.44,377.61L323.32,376.88L330.2,377.09L371.48,377.58L378.36,378.16L392.11,378.25L398.99,378.67L419.63,379.42L426.51,379.05L460.91,380.1L467.79,380.02L474.66,379.19L481.54,335.42L488.42,337.84L495.3,373.57L502.18,379.82L509.06,382.72L529.7,384.11L536.58,384.21L777.35,384.96L784.23,384.96L1011.24,384.69L1018.12,384.04L1025,373.77" style="vector-effect: none; fill: none; stroke: rgb(228, 211, 84); stroke-opacity: 1; stroke-width: 2px; opacity: 1;"/></g><g class="points"/><g class="text"/></g><g class="trace scatter tracefd1212" style="stroke-miterlimit: 2; opacity: 1;"><g class="fills"/><g class="errorbars"/><g class="lines"><path class="js-line" d="M0,385L68.79,384.29L75.67,382L82.55,372.39L89.43,370.59L96.31,374.52L103.19,372.68L110.07,374.39L116.95,375.28L123.83,373.95L130.7,374.58L137.58,374.7L144.46,373.86L158.22,373.09L165.1,375.02L171.98,374.47L178.86,375.07L185.74,374.4L192.62,375.31L199.5,373.35L206.38,376.3L213.26,373.71L220.13,375.17L227.01,374.61L233.89,375.54L275.17,376.22L282.05,375.7L288.93,376.72L295.81,376.65L309.56,376.85L316.44,376.81L330.2,377.14L337.08,376.92L350.84,377.38L357.72,376.94L364.6,377.16L371.48,378.53L378.36,377.52L385.23,377.68L398.99,378.91L405.87,378.4L419.63,379.73L426.51,378.09L433.39,381.26L440.27,380.17L447.15,380.42L454.03,379.89L467.79,380.45L474.66,380.67L495.3,380.56L502.18,379.56L509.06,333.37L515.94,341.86L522.82,376.89L529.7,382.55L536.58,383.71L543.46,384L584.73,384.47L591.61,384.55L784.23,384.98L791.11,384.98L1018.12,384.64L1025,376.05" style="vector-effect: none; fill: none; stroke: rgb(43, 144, 143); stroke-opacity: 1; stroke-width: 2px; opacity: 1;"/></g><g class="points"/><g class="text"/></g><g class="trace scatter traceefa91d" style="stroke-miterlimit: 2; opacity: 1;"><g class="fills"/><g class="errorbars"/><g class="lines"><path class="js-line" d="M0,385L61.91,384.76L68.79,384.05L75.67,381.18L82.55,367.03L96.31,367.14L103.19,367.1L123.83,366.59L130.7,366.49L144.46,365.51L151.34,366.33L165.1,365.89L171.98,366.4L206.38,365.84L213.26,364.56L220.13,365.46L227.01,364.97L261.41,365.6L268.29,365L282.05,364.68L288.93,363.66L295.81,365.04L302.68,358.75L309.56,370.75L316.44,367.22L323.32,365.59L330.2,365.2L364.6,365.38L371.48,364.7L378.36,365.9L385.23,365.38L405.87,367.3L412.75,367.89L433.39,367.15L440.27,368.22L447.15,366.72L454.03,368.02L460.91,368.71L467.79,368.61L474.66,367.22L481.54,361.28L488.42,233.44L495.3,349.18L502.18,374.22L509.06,380.22L515.94,381.65L522.82,382.1L536.58,382.68L543.46,382.74L584.73,383.34L591.61,383.54L619.13,383.98L626.01,384.12L701.68,384.82L708.56,384.86L1011.24,384.99L1018.12,384.97L1025,384.64" style="vector-effect: none; fill: none; stroke: rgb(244, 91, 91); stroke-opacity: 1; stroke-width: 2px; opacity: 1;"/></g><g class="points"/><g class="text"/></g><g class="trace scatter trace861912" style="stroke-miterlimit: 2; opacity: 1;"><g class="fills"/><g class="errorbars"/><g class="lines"><path class="js-line" d="M0,385L61.91,384.77L68.79,384.11L75.67,381.41L82.55,365.95L89.43,363.4L96.31,369.93L103.19,366.04L110.07,369.08L116.95,370.22L123.83,367.63L137.58,368.82L144.46,367.11L158.22,364.79L165.1,368.41L171.98,367.14L178.86,367.66L185.74,366.12L192.62,367.34L199.5,363.26L206.38,369.12L213.26,365.2L220.13,367.07L227.01,364.97L233.89,366.33L268.29,366.82L275.17,365.68L282.05,364.28L288.93,366.58L309.56,365.46L316.44,364.96L323.32,366.41L330.2,365.37L337.08,364.73L343.96,365.72L350.84,365.32L357.72,363.06L364.6,364.04L371.48,367.29L378.36,363.5L385.23,364.64L392.11,366.53L398.99,367.49L405.87,364.84L412.75,368.17L419.63,369.06L426.51,364.01L433.39,373.86L440.27,369.92L447.15,370.79L454.03,368.6L460.91,369.94L467.79,369.63L474.66,370.23L481.54,369.53L495.3,369.79L502.18,366.62L509.06,362.22L515.94,262.61L522.82,365.55L529.7,380.48L536.58,382.69L543.46,382.96L763.59,384.96L770.47,384.96L1025,384.72" style="vector-effect: none; fill: none; stroke: rgb(145, 232, 225); stroke-opacity: 1; stroke-width: 2px; opacity: 1;"/></g><g class="points"/><g class="text"/></g><g class="trace scatter traced70649" style="stroke-miterlimit: 2; opacity: 1;"><g class="fills"/><g class="errorbars"/><g class="lines"><path class="js-line" d="M0,385L61.91,384.77L68.79,384.1L75.67,381.35L82.55,367.96L116.95,366.55L123.83,367.19L144.46,365.47L151.34,365.9L178.86,366.29L185.74,365.67L192.62,365.95L199.5,365.32L206.38,365.75L213.26,364.16L220.13,365.25L227.01,364.18L240.77,364.6L247.65,364.32L254.53,365.19L261.41,365.21L275.17,363.83L282.05,363.67L288.93,362.9L295.81,364.33L302.68,357.2L309.56,370.08L316.44,366.15L323.32,363.59L337.08,364.6L343.96,362.94L350.84,363.2L357.72,364.39L371.48,364.07L378.36,365.2L385.23,363.52L392.11,363.88L405.87,366.54L412.75,367.36L419.63,367.58L426.51,366.14L433.39,366.22L440.27,367.71L447.15,365.84L454.03,366.85L460.91,368.07L467.79,368.44L474.66,366.54L481.54,360.84L488.42,228.95L495.3,347.95L502.18,373.82L509.06,380.14L515.94,381.55L522.82,382.01L536.58,382.63L543.46,382.65L577.85,383.27L584.73,383.31L632.89,384.19L639.77,384.32L770.47,384.95L777.35,384.96L1025,384.7" style="vector-effect: none; fill: none; stroke: rgb(124, 181, 236); stroke-opacity: 1; stroke-width: 2px; opacity: 1;"/></g><g class="points"/><g class="text"/></g><g class="trace scatter trace3087b7" style="stroke-miterlimit: 2; opacity: 1;"><g class="fills"/><g class="errorbars"/><g class="lines"><path class="js-line" d="M0,385L61.91,384.77L68.79,384.16L75.67,381.46L82.55,366.91L89.43,361.89L96.31,370.67L103.19,366.59L110.07,367.68L116.95,371.93L123.83,367.92L130.7,369.51L137.58,369.68L158.22,362.66L165.1,368.67L171.98,367.48L178.86,368.3L185.74,364.7L192.62,368.31L199.5,359.97L206.38,371.71L213.26,364.54L220.13,367.31L227.01,367.47L233.89,365.91L240.77,362.45L247.65,365.87L254.53,368.06L261.41,367.93L282.05,361.02L288.93,367.22L295.81,363.36L302.68,366.23L309.56,365.69L316.44,363.82L323.32,364.54L330.2,364.44L350.84,364.21L357.72,362.34L364.6,362.25L371.48,367.15L378.36,362.66L385.23,362.21L392.11,365.2L398.99,367.03L405.87,363.89L412.75,367.51L419.63,369.1L426.51,362.53L433.39,373.6L440.27,369.45L447.15,370.4L454.03,367.68L474.66,370.05L481.54,369.2L488.42,369.71L495.3,368.12L502.18,366.07L509.06,361.46L515.94,259.47L522.82,365.23L529.7,380.41L536.58,382.68L632.89,384.31L639.77,384.41L763.59,384.95L770.47,384.96L1025,384.76" style="vector-effect: none; fill: none; stroke: rgb(67, 67, 72); stroke-opacity: 1; stroke-width: 2px; opacity: 1;"/></g><g class="points"/><g class="text"/></g></g></g></g><g class="zerolinelayer-above"/><path class="xlines-above crisp" d="M0,0" style="fill: none;"/><path class="ylines-above crisp" d="M0,0" style="fill: none;"/><g class="overlines-above"/><g class="xaxislayer-above"><g class="xtick"><text text-anchor="middle" x="0" y="451" transform="translate(190.7,0)" style="font-family: 'Lucida Grande', 'Open Sans', verdana, arial, sans-serif; font-size: 10px; fill: rgb(0, 0, 0); fill-opacity: 1; white-space: pre;">20 bp</text></g><g class="xtick"><text text-anchor="middle" x="0" y="451" style="font-family: 'Lucida Grande', 'Open Sans', verdana, arial, sans-serif; font-size: 10px; fill: rgb(0, 0, 0); fill-opacity: 1; white-space: pre;" transform="translate(328.29,0)">40 bp</text></g><g class="xtick"><text text-anchor="middle" x="0" y="451" style="font-family: 'Lucida Grande', 'Open Sans', verdana, arial, sans-serif; font-size: 10px; fill: rgb(0, 0, 0); fill-opacity: 1; white-space: pre;" transform="translate(465.87,0)">60 bp</text></g><g class="xtick"><text text-anchor="middle" x="0" y="451" style="font-family: 'Lucida Grande', 'Open Sans', verdana, arial, sans-serif; font-size: 10px; fill: rgb(0, 0, 0); fill-opacity: 1; white-space: pre;" transform="translate(603.46,0)">80 bp</text></g><g class="xtick"><text text-anchor="middle" x="0" y="451" style="font-family: 'Lucida Grande', 'Open Sans', verdana, arial, sans-serif; font-size: 10px; fill: rgb(0, 0, 0); fill-opacity: 1; white-space: pre;" transform="translate(741.04,0)">100 bp</text></g><g class="xtick"><text text-anchor="middle" x="0" y="451" style="font-family: 'Lucida Grande', 'Open Sans', verdana, arial, sans-serif; font-size: 10px; fill: rgb(0, 0, 0); fill-opacity: 1; white-space: pre;" transform="translate(878.62,0)">120 bp</text></g><g class="xtick"><text text-anchor="middle" x="0" y="451" style="font-family: 'Lucida Grande', 'Open Sans', verdana, arial, sans-serif; font-size: 10px; fill: rgb(0, 0, 0); fill-opacity: 1; white-space: pre;" transform="translate(1016.21,0)">140 bp</text></g></g><g class="yaxislayer-above"><g class="ytick"><text text-anchor="end" x="54" y="3.5" transform="translate(0,435)" style="font-family: 'Lucida Grande', 'Open Sans', verdana, arial, sans-serif; font-size: 10px; fill: rgb(0, 0, 0); fill-opacity: 1; white-space: pre;">0</text></g><g class="ytick"><text text-anchor="end" x="54" y="3.5" style="font-family: 'Lucida Grande', 'Open Sans', verdana, arial, sans-serif; font-size: 10px; fill: rgb(0, 0, 0); fill-opacity: 1; white-space: pre;" transform="translate(0,358.93)">2M</text></g><g class="ytick"><text text-anchor="end" x="54" y="3.5" style="font-family: 'Lucida Grande', 'Open Sans', verdana, arial, sans-serif; font-size: 10px; fill: rgb(0, 0, 0); fill-opacity: 1; white-space: pre;" transform="translate(0,282.86)">4M</text></g><g class="ytick"><text text-anchor="end" x="54" y="3.5" style="font-family: 'Lucida Grande', 'Open Sans', verdana, arial, sans-serif; font-size: 10px; fill: rgb(0, 0, 0); fill-opacity: 1; white-space: pre;" transform="translate(0,206.79)">6M</text></g><g class="ytick"><text text-anchor="end" x="54" y="3.5" style="font-family: 'Lucida Grande', 'Open Sans', verdana, arial, sans-serif; font-size: 10px; fill: rgb(0, 0, 0); fill-opacity: 1; white-space: pre;" transform="translate(0,130.72)">8M</text></g><g class="ytick"><text text-anchor="end" x="54" y="3.5" style="font-family: 'Lucida Grande', 'Open Sans', verdana, arial, sans-serif; font-size: 10px; fill: rgb(0, 0, 0); fill-opacity: 1; white-space: pre;" transform="translate(0,54.65)">10M</text></g></g><g class="overaxes-above"/></g></g><g class="polarlayer"/><g class="smithlayer"/><g class="ternarylayer"/><g class="geolayer"/><g class="funnelarealayer"/><g class="pielayer"/><g class="iciclelayer"/><g class="treemaplayer"/><g class="sunburstlayer"/><g class="glimages"/><defs id="topdefs-39f975"><g class="clips"/></defs><g class="layer-above"><g class="imagelayer"/><g class="shapelayer"/></g><g class="infolayer"><g class="g-gtitle"><text class="gtitle" x="550" y="25" text-anchor="middle" dy="0em" style="opacity: 1; font-family: 'Lucida Grande', 'Open Sans', verdana, arial, sans-serif; font-size: 20px; fill: rgb(68, 68, 68); fill-opacity: 1; white-space: pre;"><tspan class="line" dy="0em" x="550" y="25">Cutadapt: Lengths of Trimmed Sequences (3' end)</tspan><tspan class="line" dy="1.3em" x="550" y="25">​<tspan style="font-size:70%" dy="-0.6em">Obs/Exp, 32 lines</tspan><tspan dy="0.42em">​</tspan></tspan></text></g><g class="g-xtitle"><text class="xtitle" x="572.5" y="487" text-anchor="middle" style="opacity: 0.3; font-family: 'Lucida Grande', 'Open Sans', verdana, arial, sans-serif; font-size: 14px; fill: rgb(0, 0, 0); fill-opacity: 1; white-space: pre;">Length Trimmed (bp)</text></g><g class="g-ytitle"><text class="ytitle" transform="rotate(-90,22,242.5)" x="22" y="242.5" text-anchor="middle" style="opacity: 0.3; font-family: 'Lucida Grande', 'Open Sans', verdana, arial, sans-serif; font-size: 14px; fill: rgb(0, 0, 0); fill-opacity: 1; white-space: pre;">Observed / Expected</text></g></g></svg>