<svg class="main-svg" xmlns="http://www.w3.org/2000/svg" xmlns:xlink="http://www.w3.org/1999/xlink" width="2200" height="1000" style="" viewBox="0 0 1100 500"><rect x="0" y="0" width="1100" height="500" style="fill: rgb(255, 255, 255); fill-opacity: 1;"/><defs id="defs-2c384b"><g class="clips"><clipPath id="clip2c384bxyplot" class="plotclip"><rect width="1025" height="385"/></clipPath><clipPath class="axesclip" id="clip2c384bx"><rect x="60" y="0" width="1025" height="500"/></clipPath><clipPath class="axesclip" id="clip2c384by"><rect x="0" y="50" width="1100" height="385"/></clipPath><clipPath class="axesclip" id="clip2c384bxy"><rect x="60" y="50" width="1025" height="385"/></clipPath></g><g class="gradients"/><g class="patterns"/></defs><g class="bglayer"/><g class="layer-below"><g class="imagelayer"/><g class="shapelayer"/></g><g class="cartesianlayer"><g class="subplot xy"><g class="layer-subplot"><g class="shapelayer"/><g class="imagelayer"/></g><g class="minor-gridlayer"><g class="x"/><g class="y"/></g><g class="gridlayer"><g class="x"><path class="xgrid crisp" transform="translate(190.7,0)" d="M0,50v385" style="stroke: rgb(0, 0, 0); stroke-opacity: 0.05; stroke-width: 1px;"/><path class="xgrid crisp" transform="translate(328.29,0)" d="M0,50v385" style="stroke: rgb(0, 0, 0); stroke-opacity: 0.05; stroke-width: 1px;"/><path class="xgrid crisp" transform="translate(465.87,0)" d="M0,50v385" style="stroke: rgb(0, 0, 0); stroke-opacity: 0.05; stroke-width: 1px;"/><path class="xgrid crisp" transform="translate(603.46,0)" d="M0,50v385" style="stroke: rgb(0, 0, 0); stroke-opacity: 0.05; stroke-width: 1px;"/><path class="xgrid crisp" transform="translate(741.04,0)" d="M0,50v385" style="stroke: rgb(0, 0, 0); stroke-opacity: 0.05; stroke-width: 1px;"/><path class="xgrid crisp" transform="translate(878.62,0)" d="M0,50v385" style="stroke: rgb(0, 0, 0); stroke-opacity: 0.05; stroke-width: 1px;"/><path class="xgrid crisp" transform="translate(1016.21,0)" d="M0,50v385" style="stroke: rgb(0, 0, 0); stroke-opacity: 0.05; stroke-width: 1px;"/></g><g class="y"><path class="ygrid crisp" transform="translate(0,396.36)" d="M60,0h1025" style="stroke: rgb(0, 0, 0); stroke-opacity: 0.05; stroke-width: 1px;"/><path class="ygrid crisp" transform="translate(0,357.71)" d="M60,0h1025" style="stroke: rgb(0, 0, 0); stroke-opacity: 0.05; stroke-width: 1px;"/><path class="ygrid crisp" transform="translate(0,319.07)" d="M60,0h1025" style="stroke: rgb(0, 0, 0); stroke-opacity: 0.05; stroke-width: 1px;"/><path class="ygrid crisp" transform="translate(0,280.43)" d="M60,0h1025" style="stroke: rgb(0, 0, 0); stroke-opacity: 0.05; stroke-width: 1px;"/><path class="ygrid crisp" transform="translate(0,241.78)" d="M60,0h1025" style="stroke: rgb(0, 0, 0); stroke-opacity: 0.05; stroke-width: 1px;"/><path class="ygrid crisp" transform="translate(0,203.14)" d="M60,0h1025" style="stroke: rgb(0, 0, 0); stroke-opacity: 0.05; stroke-width: 1px;"/><path class="ygrid crisp" transform="translate(0,164.5)" d="M60,0h1025" style="stroke: rgb(0, 0, 0); stroke-opacity: 0.05; stroke-width: 1px;"/><path class="ygrid crisp" transform="translate(0,125.85)" d="M60,0h1025" style="stroke: rgb(0, 0, 0); stroke-opacity: 0.05; stroke-width: 1px;"/><path class="ygrid crisp" transform="translate(0,87.21000000000001)" d="M60,0h1025" style="stroke: rgb(0, 0, 0); stroke-opacity: 0.05; stroke-width: 1px;"/></g></g><g class="zerolinelayer"><path class="yzl zl crisp" transform="translate(0,435)" d="M60,0h1025" style="stroke: rgb(0, 0, 0); stroke-opacity: 0.05; stroke-width: 1px;"/></g><g class="layer-between"><g class="shapelayer"/><g class="imagelayer"/></g><path class="xlines-below"/><path class="ylines-below"/><g class="overlines-below"/><g class="xaxislayer-below"/><g class="yaxislayer-below"/><g class="overaxes-below"/><g class="overplot"><g class="xy" transform="translate(60,50)" clip-path="url(#clip2c384bxyplot)"><g class="scatterlayer mlayer"><g class="trace scatter traceaa47e1" style="stroke-miterlimit: 2; opacity: 1;"><g class="fills"/><g class="errorbars"/><g class="lines"><path class="js-line" d="M0,140.39L6.88,304.13L13.76,350.31L20.64,367.75L27.52,370.93L48.15,371.75L55.03,371.72L61.91,370.09L68.79,370.47L96.31,369.54L103.19,369.67L116.95,368.94L123.83,369.84L158.22,368.76L165.1,368.78L199.5,369.4L206.38,369.28L213.26,368.07L220.13,368.56L247.65,370.75L254.53,371.37L288.93,372.41L295.81,373.39L302.68,370.26L309.56,376.79L316.44,375.23L323.32,375.03L392.11,379.22L398.99,379.94L419.63,381.18L426.51,381.2L474.66,382.99L481.54,382.57L488.42,376.29L495.3,383.17L502.18,384.4L509.06,384.69L584.73,384.94L591.61,384.95L1025,384.9" style="vector-effect: none; fill: none; stroke: rgb(124, 181, 236); stroke-opacity: 1; stroke-width: 2px; opacity: 1;"/></g><g class="points"/><g class="text"/></g><g class="trace scatter trace1d7ffe" style="stroke-miterlimit: 2; opacity: 1;"><g class="fills"/><g class="errorbars"/><g class="lines"><path class="js-line" d="M0,135.28L6.88,300.96L13.76,349.97L20.64,368.3L27.52,371.28L34.4,371.24L41.28,372.05L48.15,372.61L55.03,372.11L61.91,370.71L68.79,371.01L82.55,369.31L89.43,366.56L96.31,371.92L103.19,369.13L110.07,370.26L116.95,372.63L123.83,370.1L130.7,371.28L137.58,371.08L144.46,369.73L158.22,367.16L165.1,370.52L171.98,369.8L178.86,370.42L185.74,368.57L192.62,370.68L199.5,366.09L206.38,373.08L213.26,367.73L220.13,370.18L233.89,370.07L240.77,371.13L247.65,370.73L254.53,371.83L275.17,372.72L282.05,372.73L295.81,373.52L302.68,373.65L330.2,375.43L337.08,375.97L364.6,377.42L371.48,378.43L378.36,378L385.23,378.8L398.99,380.24L405.87,380.06L419.63,381.5L426.51,380.84L433.39,382.58L440.27,382.14L495.3,383.61L502.18,383.7L509.06,383.25L515.94,379.01L522.82,384.13L529.7,384.77L584.73,384.94L591.61,384.95L1025,384.92" style="vector-effect: none; fill: none; stroke: rgb(67, 67, 72); stroke-opacity: 1; stroke-width: 2px; opacity: 1;"/></g><g class="points"/><g class="text"/></g><g class="trace scatter trace348620" style="stroke-miterlimit: 2; opacity: 1;"><g class="fills"/><g class="errorbars"/><g class="lines"><path class="js-line" d="M0,102.21L6.88,325.31L13.76,361.48L20.64,374.43L27.52,376.48L55.03,377.2L61.91,376.03L68.79,376.33L75.67,375.71L89.43,375.04L96.31,374.15L110.07,373.67L116.95,372.5L123.83,374.65L130.7,373.81L137.58,373.89L144.46,372.97L151.34,371.86L158.22,371.83L213.26,371.85L220.13,370.98L227.01,369.7L233.89,369.3L240.77,368.2L247.65,368.25L254.53,367.87L261.41,369.97L275.17,368.62L282.05,366.51L295.81,367.1L302.68,359.69L309.56,371.83L316.44,367.84L323.32,364.31L330.2,364.87L337.08,366.88L343.96,363.74L350.84,363.91L357.72,366.41L371.48,364.64L378.36,366.56L385.23,362.76L392.11,362.96L412.75,368.25L419.63,369.16L426.51,366.99L433.39,366.98L440.27,368.67L447.15,365.46L454.03,366.42L460.91,368.36L467.79,368.88L474.66,367.46L481.54,359.3L488.42,243.73L495.3,350.92L502.18,374.63L509.06,380.51L515.94,381.75L550.34,382.9L557.21,383.04L632.89,384.39L639.77,384.49L804.87,384.97L811.74,384.97L1018.12,384.91L1025,383.93" style="vector-effect: none; fill: none; stroke: rgb(144, 237, 125); stroke-opacity: 1; stroke-width: 2px; opacity: 1;"/></g><g class="points"/><g class="text"/></g><g class="trace scatter trace0e2c2f" style="stroke-miterlimit: 2; opacity: 1;"><g class="fills"/><g class="errorbars"/><g class="lines"><path class="js-line" d="M0,93.97L6.88,325.55L13.76,362.97L20.64,375.15L27.52,376.3L55.03,377.78L61.91,376.09L68.79,376.95L75.67,376.19L82.55,374.64L89.43,370.9L96.31,376.72L103.19,373.54L110.07,374.43L116.95,376.92L123.83,374.86L130.7,375.78L137.58,375.76L144.46,374.09L151.34,372.14L158.22,371.55L165.1,372.59L171.98,372.52L178.86,372.7L185.74,370.79L192.62,373.05L199.5,368.24L206.38,375.68L213.26,371.86L220.13,373.09L227.01,369.75L233.89,369.89L240.77,365.32L247.65,372.82L254.53,367.42L261.41,372.06L268.29,371.3L275.17,370.91L282.05,368.32L288.93,369.12L295.81,367.93L302.68,365.86L309.56,366.78L316.44,365.48L323.32,366L343.96,365.55L350.84,364.47L357.72,364.55L364.6,363.15L371.48,368.18L378.36,364.24L385.23,361.88L392.11,365.48L398.99,366.56L405.87,364.86L412.75,368.7L419.63,369.34L426.51,362.68L433.39,374.61L440.27,370.87L447.15,370.45L454.03,366.59L460.91,369.5L467.79,370.42L474.66,370.42L488.42,370.79L495.3,370L502.18,367.48L509.06,360.3L515.94,274.87L522.82,366.06L529.7,380.33L536.58,382.73L577.85,383.76L584.73,383.72L646.64,384.59L653.52,384.62L901.17,385L908.05,385L1018.12,384.97L1025,384.13" style="vector-effect: none; fill: none; stroke: rgb(247, 163, 92); stroke-opacity: 1; stroke-width: 2px; opacity: 1;"/></g><g class="points"/><g class="text"/></g><g class="trace scatter trace65b15b" style="stroke-miterlimit: 2; opacity: 1;"><g class="fills"/><g class="errorbars"/><g class="lines"><path class="js-line" d="M0,101.83L6.88,306.72L13.76,361.05L20.64,374.3L27.52,375.93L34.4,376.23L41.28,375.61L55.03,376.18L61.91,374.2L68.79,374.43L75.67,373.74L82.55,373.86L89.43,374.97L103.19,374.89L110.07,374.8L116.95,373.52L123.83,375.16L130.7,374.31L137.58,374.8L151.34,374.03L158.22,374.45L171.98,374.36L178.86,374.57L185.74,374.14L192.62,374.78L220.13,374.74L227.01,374.01L240.77,374.29L247.65,374.26L254.53,373.84L261.41,375.2L282.05,374.41L288.93,374.44L295.81,374.93L302.68,371.63L309.56,378.17L316.44,376.38L323.32,375.04L330.2,375.35L343.96,375.84L350.84,375.36L364.6,375.91L371.48,375.29L378.36,376.03L385.23,375.5L392.11,375.56L398.99,376.41L419.63,377L426.51,376.41L440.27,377.63L447.15,376.61L460.91,377.66L467.79,377.48L474.66,377.23L481.54,373.07L488.42,315.92L495.3,368.49L502.18,380.08L509.06,382.9L522.82,383.64L529.7,383.9L667.28,384.78L674.16,384.8L1018.12,384.95L1025,384.4" style="vector-effect: none; fill: none; stroke: rgb(128, 133, 233); stroke-opacity: 1; stroke-width: 2px; opacity: 1;"/></g><g class="points"/><g class="text"/></g><g class="trace scatter tracedf3f39" style="stroke-miterlimit: 2; opacity: 1;"><g class="fills"/><g class="errorbars"/><g class="lines"><path class="js-line" d="M0,125.32L6.88,318.03L13.76,360.73L20.64,375.13L27.52,374.88L34.4,375.96L41.28,375.63L48.15,376.73L55.03,377.01L61.91,374.58L68.79,375.48L82.55,373.72L89.43,371.68L96.31,377.1L103.19,374.73L110.07,374.99L116.95,377.62L123.83,375.15L130.7,376.2L137.58,376.51L144.46,375.19L158.22,372.59L165.1,376.03L171.98,375.37L178.86,375.83L185.74,373.74L192.62,376.16L199.5,371.96L206.38,378.45L213.26,374.48L220.13,376.1L233.89,375.25L240.77,375.76L247.65,374.01L254.53,375.06L268.29,375.53L275.17,375.56L282.05,375.05L288.93,375.64L302.68,375.38L309.56,375.24L350.84,375.72L357.72,375L364.6,375.28L371.48,376.8L378.36,375.08L385.23,375.2L398.99,377.06L405.87,375.75L412.75,377.15L419.63,377.57L426.51,375.1L433.39,379.78L440.27,378.24L447.15,378.48L454.03,377.59L460.91,378.12L495.3,378.35L502.18,377.59L509.06,373.66L515.94,326.06L522.82,375.23L529.7,382.75L536.58,383.93L543.46,384.09L687.92,384.84L694.8,384.88L990.6,385L997.48,385L1025,384.53" style="vector-effect: none; fill: none; stroke: rgb(241, 92, 128); stroke-opacity: 1; stroke-width: 2px; opacity: 1;"/></g><g class="points"/><g class="text"/></g><g class="trace scatter trace0a95e6" style="stroke-miterlimit: 2; opacity: 1;"><g class="fills"/><g class="errorbars"/><g class="lines"><path class="js-line" d="M0,64.9L6.88,280.8L13.76,348.89L20.64,370.34L27.52,374.4L41.28,375.42L48.15,375.71L171.98,376.19L178.86,376.31L247.65,376.73L254.53,377.09L268.29,377.07L275.17,376.91L295.81,377.58L302.68,375.4L309.56,379.54L316.44,378.44L330.2,378.08L337.08,378.09L371.48,378.14L378.36,378.78L405.87,379.53L412.75,379.78L447.15,379.8L454.03,380.37L474.66,380.32L481.54,379.06L488.42,354.48L495.3,378.2L502.18,382.91L509.06,384.01L536.58,384.51L543.46,384.54L749.83,384.99L756.71,384.99L1025,384.85" style="vector-effect: none; fill: none; stroke: rgb(228, 211, 84); stroke-opacity: 1; stroke-width: 2px; opacity: 1;"/></g><g class="points"/><g class="text"/></g><g class="trace scatter tracef9c35a" style="stroke-miterlimit: 2; opacity: 1;"><g class="fills"/><g class="errorbars"/><g class="lines"><path class="js-line" d="M0,67.26L6.88,279.73L13.76,347.43L20.64,370.73L27.52,374.77L41.28,375.91L48.15,376.43L75.67,376.01L82.55,375.13L89.43,373.35L96.31,377.48L103.19,375.4L110.07,376.63L116.95,377.92L123.83,376.51L137.58,377.02L144.46,376.26L158.22,376.21L165.1,376.3L178.86,376.68L185.74,376.08L192.62,376.94L199.5,374.68L206.38,378.2L213.26,376.38L220.13,377.11L227.01,376.27L233.89,376.65L240.77,375.85L247.65,378.48L254.53,376.67L261.41,378.23L268.29,377.86L295.81,377.88L302.68,377.41L330.2,378.15L337.08,377.91L350.84,378.27L357.72,377.33L371.48,379.02L378.36,378.04L398.99,379.55L405.87,378.85L419.63,380.15L426.51,378.57L433.39,381.73L440.27,380.55L447.15,380.92L454.03,380.44L495.3,381.25L502.18,380.81L509.06,379.56L515.94,362.97L522.82,381.61L529.7,384.13L550.34,384.62L557.21,384.66L804.87,385L811.74,385L1025,384.88" style="vector-effect: none; fill: none; stroke: rgb(43, 144, 143); stroke-opacity: 1; stroke-width: 2px; opacity: 1;"/></g><g class="points"/><g class="text"/></g><g class="trace scatter trace28d896" style="stroke-miterlimit: 2; opacity: 1;"><g class="fills"/><g class="errorbars"/><g class="lines"><path class="js-line" d="M0,198.05L6.88,325.19L13.76,359.14L20.64,371.98L27.52,374.05L41.28,374.3L48.15,374.66L55.03,374.75L61.91,372.94L68.79,373.31L75.67,372.81L116.95,371.52L123.83,371.84L185.74,370.18L192.62,370.61L199.5,370.22L206.38,370.64L220.13,369.93L227.01,368.61L240.77,368.87L247.65,368.28L261.41,368.74L268.29,368.46L282.05,366.82L288.93,364.05L295.81,369.74L302.68,361.13L309.56,372.72L316.44,367.81L323.32,366.35L330.2,365.82L337.08,366.65L343.96,365.9L350.84,365.42L357.72,366.37L364.6,366.07L371.48,364.82L378.36,366.7L385.23,365.21L392.11,364.85L398.99,365.75L419.63,368.18L426.51,366.55L433.39,366.75L440.27,367.91L447.15,364.83L454.03,366.36L467.79,367.29L474.66,365.34L481.54,360.57L488.42,211.13L495.3,341.4L502.18,372.16L509.06,379.56L515.94,381.44L570.97,383.04L577.85,383.19L839.26,384.98L846.14,384.98L1025,384.89" style="vector-effect: none; fill: none; stroke: rgb(244, 91, 91); stroke-opacity: 1; stroke-width: 2px; opacity: 1;"/></g><g class="points"/><g class="text"/></g><g class="trace scatter trace1a9a0b" style="stroke-miterlimit: 2; opacity: 1;"><g class="fills"/><g class="errorbars"/><g class="lines"><path class="js-line" d="M0,196.09L6.88,323.32L13.76,358.92L20.64,372.25L27.52,374.01L41.28,374.89L48.15,375.51L55.03,375.17L61.91,373.45L68.79,373.85L75.67,373.33L82.55,371.91L89.43,368.65L96.31,374.63L103.19,371.45L110.07,372.58L116.95,375.28L123.83,372.5L130.7,373.68L137.58,373.62L144.46,372.13L151.34,370.75L158.22,368.28L165.1,372.61L171.98,371.62L178.86,372.13L185.74,369.8L192.62,372.2L199.5,366.39L206.38,374.95L213.26,370.08L220.13,371.54L227.01,370.87L233.89,369.61L240.77,370.1L247.65,368.09L254.53,369.63L261.41,370.22L268.29,370.04L275.17,369.65L282.05,368.27L288.93,369.32L295.81,368.21L316.44,366.07L323.32,367.21L330.2,366.14L337.08,366.22L343.96,366.87L350.84,366.03L357.72,364.36L364.6,364.73L371.48,367.99L378.36,364.23L385.23,364.21L392.11,365.95L398.99,367.09L405.87,364.65L412.75,367.91L419.63,369.21L426.51,363.46L433.39,373.76L440.27,369.68L447.15,369.76L454.03,366.81L460.91,368.4L467.79,368.99L474.66,368.81L481.54,368.98L488.42,368.2L495.3,367.86L502.18,366.34L509.06,360.89L515.94,239.76L522.82,361.36L529.7,379.67L536.58,382.4L543.46,382.71L619.13,383.97L626.01,384.13L866.78,384.99L873.66,384.99L1025,384.92" style="vector-effect: none; fill: none; stroke: rgb(145, 232, 225); stroke-opacity: 1; stroke-width: 2px; opacity: 1;"/></g><g class="points"/><g class="text"/></g><g class="trace scatter tracedd9562" style="stroke-miterlimit: 2; opacity: 1;"><g class="fills"/><g class="errorbars"/><g class="lines"><path class="js-line" d="M0,20.06L6.88,266.81L13.76,343.71L20.64,368.4L27.52,372.72L34.4,373.78L41.28,373.96L55.03,374.74L61.91,374.05L75.67,374.23L82.55,374.54L116.95,374.64L123.83,375.63L144.46,375.27L151.34,375.58L233.89,376.76L240.77,377.19L282.05,377.69L288.93,377.59L295.81,378.12L302.68,376.19L309.56,380.01L316.44,379.02L330.2,378.68L337.08,378.73L371.48,378.9L378.36,379.54L433.39,380.37L440.27,380.75L447.15,380.39L454.03,380.96L474.66,380.85L481.54,376.89L488.42,357.53L495.3,378.59L502.18,382.92L509.06,384L536.58,384.56L543.46,384.6L1018.12,384.93L1025,384.13" style="vector-effect: none; fill: none; stroke: rgb(124, 181, 236); stroke-opacity: 1; stroke-width: 2px; opacity: 1;"/></g><g class="points"/><g class="text"/></g><g class="trace scatter trace0a85c2" style="stroke-miterlimit: 2; opacity: 1;"><g class="fills"/><g class="errorbars"/><g class="lines"><path class="js-line" d="M0,19.25L6.88,265.44L13.76,342.21L20.64,368.42L27.52,373.04L55.03,375.11L61.91,374.48L68.79,375L75.67,374.67L82.55,374.25L89.43,372.52L96.31,376.36L103.19,374.45L116.95,376.98L123.83,375.78L137.58,376.36L144.46,375.71L158.22,375.79L165.1,376.02L192.62,376.87L199.5,375.15L206.38,378.02L213.26,376.15L220.13,377.07L227.01,376.44L233.89,376.97L240.77,376.43L247.65,378.49L254.53,377.18L261.41,378.4L268.29,378.14L350.84,378.91L357.72,378.45L371.48,379.63L378.36,379.03L398.99,380.17L405.87,379.71L419.63,380.62L426.51,379.44L433.39,381.88L440.27,380.99L474.66,381.44L481.54,381.58L502.18,381.42L509.06,377.34L515.94,362.91L522.82,381.6L529.7,384.12L536.58,384.52L619.13,384.86L626.01,384.89L1018.12,384.97L1025,384.32" style="vector-effect: none; fill: none; stroke: rgb(67, 67, 72); stroke-opacity: 1; stroke-width: 2px; opacity: 1;"/></g><g class="points"/><g class="text"/></g><g class="trace scatter trace042ce9" style="stroke-miterlimit: 2; opacity: 1;"><g class="fills"/><g class="errorbars"/><g class="lines"><path class="js-line" d="M0,127.85L6.88,300.13L13.76,354.87L20.64,373.24L27.52,374.89L41.28,375.21L48.15,375.7L61.91,375.23L68.79,375.67L116.95,375L123.83,375.56L137.58,374.71L144.46,375.76L151.34,375.14L158.22,376.04L185.74,375.6L192.62,375.29L227.01,375.11L233.89,375.93L240.77,376.27L247.65,375.34L254.53,376.4L261.41,375.84L275.17,375.26L282.05,375.96L295.81,376.24L302.68,372.8L309.56,378.4L316.44,377.12L343.96,375.93L350.84,376.13L364.6,375.77L371.48,374.86L378.36,376.36L385.23,376.84L398.99,375.7L405.87,376.83L419.63,376.89L426.51,376.65L440.27,376.89L447.15,375.92L454.03,377.62L460.91,377.59L474.66,376.59L481.54,373.55L488.42,313.11L495.3,368.09L502.18,379.94L509.06,382.72L522.82,383.68L529.7,383.81L708.56,384.94L715.44,384.95L1025,384.8" style="vector-effect: none; fill: none; stroke: rgb(144, 237, 125); stroke-opacity: 1; stroke-width: 2px; opacity: 1;"/></g><g class="points"/><g class="text"/></g><g class="trace scatter trace065ab2" style="stroke-miterlimit: 2; opacity: 1;"><g class="fills"/><g class="errorbars"/><g class="lines"><path class="js-line" d="M0,151.94L6.88,299.41L13.76,355.37L20.64,372.57L27.52,375.42L34.4,374.78L41.28,375.35L48.15,376.19L55.03,375.75L61.91,375.41L68.79,376.01L82.55,375.3L89.43,372.51L96.31,376.5L103.19,374.51L110.07,374.96L116.95,377.88L123.83,375.25L130.7,376.57L137.58,375.73L144.46,376.16L151.34,374.9L158.22,374.51L165.1,377.07L171.98,375.88L178.86,376.47L185.74,375.14L192.62,376.03L199.5,372.62L206.38,377.93L213.26,374.68L227.01,375.99L233.89,376.26L240.77,376.75L247.65,374.98L254.53,376.53L261.41,376.26L275.17,375.95L282.05,376.05L288.93,376.72L295.81,376.29L302.68,375.68L309.56,375.85L323.32,376.65L330.2,376.18L364.6,375.25L371.48,376L378.36,375.52L385.23,376.35L405.87,375.86L412.75,376.95L419.63,377.35L426.51,375.42L433.39,379.22L440.27,377.16L460.91,377.89L467.79,377.72L481.54,377.76L488.42,377.08L502.18,377.19L509.06,374.71L515.94,322.54L522.82,375.52L529.7,382.88L536.58,383.92L577.85,384.29L584.73,384.22L811.74,384.99L818.62,384.99L1025,384.84" style="vector-effect: none; fill: none; stroke: rgb(247, 163, 92); stroke-opacity: 1; stroke-width: 2px; opacity: 1;"/></g><g class="points"/><g class="text"/></g><g class="trace scatter trace2e9c69" style="stroke-miterlimit: 2; opacity: 1;"><g class="fills"/><g class="errorbars"/><g class="lines"><path class="js-line" d="M0,118.44L6.88,295.03L13.76,353.03L20.64,370.82L27.52,373.45L34.4,374.12L41.28,373.94L55.03,374.48L61.91,374.08L75.67,373.94L82.55,373.98L199.5,374.28L206.38,374.57L213.26,373.7L220.13,374.36L227.01,373.9L233.89,374.3L282.05,374.76L288.93,374.4L295.81,375.03L302.68,371.86L309.56,377.69L316.44,376.28L323.32,375.38L330.2,375.64L371.48,375.34L378.36,376.16L392.11,376.25L398.99,376.76L419.63,377.28L426.51,376.83L440.27,377.65L447.15,376.97L460.91,377.74L467.79,377.61L474.66,376.31L481.54,323.12L488.42,309.59L495.3,366.96L502.18,377.65L509.06,381.62L522.82,383.28L529.7,383.63L694.8,384.86L701.68,384.88L969.97,384.92L976.85,384.91L1011.24,384.63L1018.12,383.83L1025,371.4" style="vector-effect: none; fill: none; stroke: rgb(128, 133, 233); stroke-opacity: 1; stroke-width: 2px; opacity: 1;"/></g><g class="points"/><g class="text"/></g><g class="trace scatter traceed2d6a" style="stroke-miterlimit: 2; opacity: 1;"><g class="fills"/><g class="errorbars"/><g class="lines"><path class="js-line" d="M0,123.66L6.88,299.66L13.76,353.2L20.64,371.77L27.52,373.32L55.03,375.45L61.91,374.53L68.79,375.25L75.67,374.78L82.55,373.42L89.43,371.23L96.31,376.46L103.19,373.63L116.95,376.8L123.83,375.05L137.58,375.88L144.46,374.84L151.34,373.99L158.22,374.11L178.86,374.6L185.74,373.67L192.62,375.18L199.5,372.44L206.38,376.82L213.26,374.21L220.13,375.41L227.01,373.9L233.89,374.5L240.77,373.14L247.65,376.52L254.53,373.88L261.41,376.07L268.29,375.83L275.17,375.99L282.05,375.38L295.81,375.62L302.68,374.97L316.44,375.17L323.32,376.03L337.08,375.36L343.96,376.16L350.84,375.77L357.72,374.59L371.48,376.6L378.36,375.06L398.99,377.18L405.87,376.12L412.75,377.51L419.63,377.75L426.51,375.54L433.39,380.15L440.27,378.39L447.15,378.76L454.03,377.81L460.91,378.15L495.3,378.35L502.18,376.26L509.06,319.68L515.94,319.33L522.82,372.96L529.7,381.42L536.58,383.19L543.46,383.6L577.85,384.17L584.73,384.19L681.04,384.84L687.92,384.85L887.42,384.99L894.3,384.99L1018.12,384.56L1025,374.05" style="vector-effect: none; fill: none; stroke: rgb(241, 92, 128); stroke-opacity: 1; stroke-width: 2px; opacity: 1;"/></g><g class="points"/><g class="text"/></g><g class="trace scatter tracec1b887" style="stroke-miterlimit: 2; opacity: 1;"><g class="fills"/><g class="errorbars"/><g class="lines"><path class="js-line" d="M0,275.35L6.88,359.31L13.76,373.69L20.64,379.12L27.52,379.91L48.15,379.87L55.03,379.93L61.91,378.9L68.79,379.08L110.07,377.22L116.95,376.09L123.83,377.17L130.7,376.58L144.46,375.87L151.34,374.96L192.62,374.46L199.5,373.85L206.38,374.27L213.26,373.86L227.01,370.58L233.89,370.43L240.77,369.02L247.65,369.12L254.53,368.34L261.41,370.22L268.29,368.53L275.17,367.85L282.05,365.58L288.93,365.58L295.81,365.69L302.68,356.04L309.56,370.37L316.44,363.25L323.32,359.66L330.2,358.22L337.08,360.91L343.96,358.16L350.84,357.65L357.72,361.31L371.48,358.02L378.36,360.06L385.23,355.34L392.11,354.61L405.87,357.45L412.75,360.11L419.63,361.43L426.51,357.84L433.39,357.42L440.27,358.31L447.15,351.85L454.03,353.07L460.91,356L467.79,356.17L474.66,352.46L481.54,343.28L488.42,87.72L495.3,310.67L502.18,362.74L509.06,375.79L515.94,378.75L522.82,379.3L536.58,381.03L543.46,381L557.21,380.85L564.09,381.27L591.61,382.32L598.49,382.39L619.13,383.09L626.01,383.4L825.5,384.88L832.38,384.92L1025,384.77" style="vector-effect: none; fill: none; stroke: rgb(228, 211, 84); stroke-opacity: 1; stroke-width: 2px; opacity: 1;"/></g><g class="points"/><g class="text"/></g><g class="trace scatter trace5b71d5" style="stroke-miterlimit: 2; opacity: 1;"><g class="fills"/><g class="errorbars"/><g class="lines"><path class="js-line" d="M0,268.55L6.88,352.57L13.76,372.75L20.64,379.31L27.52,379.34L34.4,379.84L41.28,378.94L48.15,380.14L55.03,380.49L61.91,378.54L68.79,379.62L82.55,377.86L89.43,372.84L96.31,379.77L103.19,377.21L110.07,376.39L116.95,380.26L123.83,376.84L130.7,379.02L137.58,378.69L144.46,377.08L151.34,375.2L158.22,370.94L165.1,377.15L171.98,376.31L178.86,376.86L185.74,373.36L192.62,376.47L199.5,368.88L206.38,379.02L213.26,373.17L220.13,375L227.01,374.25L233.89,372.38L240.77,366.25L247.65,371.11L254.53,374L261.41,373.03L268.29,370.02L275.17,367.94L282.05,361.47L288.93,370.57L295.81,363.25L302.68,367.25L309.56,365.76L316.44,360.15L323.32,361.39L330.2,360.2L337.08,359.92L343.96,361.12L350.84,359.01L357.72,359L364.6,354.66L371.48,363.95L378.36,356.77L385.23,351.75L392.11,358.42L398.99,358.98L405.87,354.37L412.75,360.34L419.63,362.08L426.51,348.73L433.39,370.03L440.27,362.71L447.15,361.96L454.03,353.81L460.91,357.77L467.79,359.6L474.66,359.63L495.3,356.67L502.18,350.19L509.06,343.29L515.94,143.97L522.82,341.49L529.7,374.83L536.58,380.38L543.46,381.08L550.34,380.83L557.21,381.5L577.85,382.47L584.73,382.44L646.64,384.07L653.52,384.04L818.62,384.91L825.5,384.91L1025,384.81" style="vector-effect: none; fill: none; stroke: rgb(43, 144, 143); stroke-opacity: 1; stroke-width: 2px; opacity: 1;"/></g><g class="points"/><g class="text"/></g><g class="trace scatter trace91039d" style="stroke-miterlimit: 2; opacity: 1;"><g class="fills"/><g class="errorbars"/><g class="lines"><path class="js-line" d="M0,134.14L6.88,312.06L13.76,356.2L20.64,370.44L27.52,372.57L41.28,373.35L48.15,373.71L55.03,373.68L61.91,372.81L68.79,373.16L75.67,372.61L116.95,371.62L123.83,373.56L144.46,372.55L151.34,372.37L171.98,371.74L178.86,372.12L206.38,372.95L213.26,372.79L227.01,372.18L233.89,372.32L240.77,372L247.65,372.88L254.53,372.5L261.41,374.07L288.93,373.15L295.81,373.68L302.68,369.76L309.56,377.02L316.44,374.95L323.32,374.1L343.96,374.51L350.84,374.5L371.48,374.27L378.36,375.11L392.11,375.29L398.99,375.92L419.63,377.06L426.51,376.41L440.27,377.34L447.15,376.41L454.03,377.37L460.91,377.52L474.66,377.01L481.54,370.39L488.42,323.02L495.3,370.62L502.18,380.58L509.06,383L529.7,383.96L536.58,384.04L694.8,384.9L701.68,384.92L983.72,384.99L990.6,384.98L1018.12,384.89L1025,383.71" style="vector-effect: none; fill: none; stroke: rgb(244, 91, 91); stroke-opacity: 1; stroke-width: 2px; opacity: 1;"/></g><g class="points"/><g class="text"/></g><g class="trace scatter trace7d1e66" style="stroke-miterlimit: 2; opacity: 1;"><g class="fills"/><g class="errorbars"/><g class="lines"><path class="js-line" d="M0,127.28L6.88,310.67L13.76,356.18L20.64,371.46L27.52,373.12L41.28,373.71L48.15,374.71L55.03,374.68L61.91,373.36L68.79,374.04L75.67,373.43L82.55,372.02L89.43,369.59L96.31,374.63L103.19,371.99L116.95,375.17L123.83,373.57L137.58,374.59L144.46,373.26L158.22,371.1L165.1,373.56L171.98,372.72L178.86,373.25L185.74,372.33L192.62,373.98L199.5,371.2L206.38,375.36L213.26,372.81L220.13,373.77L227.01,372.32L233.89,373.42L254.53,373.37L261.41,374.07L268.29,374.56L275.17,374.09L282.05,373.11L288.93,374.52L302.68,373.64L309.56,373.95L316.44,373.67L323.32,374.6L337.08,374.2L343.96,375.05L350.84,374.81L357.72,373.55L364.6,373.93L371.48,375.88L378.36,373.97L385.23,374.65L398.99,376.44L405.87,375.44L412.75,376.99L419.63,377.63L426.51,375.01L433.39,379.9L440.27,378.02L447.15,378.36L454.03,377.58L460.91,378.05L495.3,378.59L502.18,377.47L509.06,370.91L515.94,335.03L522.82,376.81L529.7,382.95L536.58,383.95L543.46,384.13L687.92,384.89L694.8,384.91L983.72,385L990.6,385L1018.12,384.96L1025,383.98" style="vector-effect: none; fill: none; stroke: rgb(145, 232, 225); stroke-opacity: 1; stroke-width: 2px; opacity: 1;"/></g><g class="points"/><g class="text"/></g><g class="trace scatter trace1c9670" style="stroke-miterlimit: 2; opacity: 1;"><g class="fills"/><g class="errorbars"/><g class="lines"><path class="js-line" d="M0,38.02L6.88,277.04L13.76,346.75L20.64,369.97L27.52,374.32L34.4,375.53L41.28,375.76L55.03,376.33L61.91,375.83L75.67,376.04L82.55,376.06L116.95,376.44L123.83,377.07L185.74,377.79L192.62,378.15L254.53,379.22L261.41,379.53L295.81,380.04L302.68,378.55L309.56,381.48L316.44,380.72L330.2,380.72L337.08,380.87L392.11,381.73L398.99,382L440.27,382.79L447.15,382.6L474.66,383.01L481.54,382.26L488.42,372.45L495.3,382.17L502.18,384.12L509.06,384.58L564.09,384.86L570.97,384.86L873.66,385L880.54,385L1025,384.88" style="vector-effect: none; fill: none; stroke: rgb(124, 181, 236); stroke-opacity: 1; stroke-width: 2px; opacity: 1;"/></g><g class="points"/><g class="text"/></g><g class="trace scatter traced9e8fa" style="stroke-miterlimit: 2; opacity: 1;"><g class="fills"/><g class="errorbars"/><g class="lines"><path class="js-line" d="M0,51.52L6.88,279.29L13.76,347.79L20.64,370.76L27.52,374.85L55.03,377.02L61.91,376.33L75.67,376.67L82.55,375.83L89.43,374.59L96.31,377.62L103.19,376.08L110.07,377.58L116.95,378.27L123.83,377.48L137.58,378.18L144.46,377.58L158.22,376.68L165.1,378.18L178.86,378.19L185.74,377.86L192.62,378.72L199.5,377.46L206.38,379.61L213.26,378.46L220.13,379.06L227.01,378.47L240.77,379.1L247.65,379.3L316.44,380.28L323.32,380.73L364.6,381.07L371.48,381.77L378.36,381.22L385.23,381.49L398.99,382.21L405.87,381.89L419.63,382.74L426.51,382.03L433.39,383.48L440.27,382.99L495.3,383.47L502.18,383.28L509.06,382.56L515.94,375.72L522.82,383.51L529.7,384.62L564.09,384.88L570.97,384.87L873.66,385L880.54,385L1025,384.9" style="vector-effect: none; fill: none; stroke: rgb(67, 67, 72); stroke-opacity: 1; stroke-width: 2px; opacity: 1;"/></g><g class="points"/><g class="text"/></g><g class="trace scatter tracec888d7" style="stroke-miterlimit: 2; opacity: 1;"><g class="fills"/><g class="errorbars"/><g class="lines"><path class="js-line" d="M0,102.37L6.88,295.98L13.76,350.57L20.64,370.47L27.52,374.1L41.28,375.12L48.15,375.48L55.03,375.74L61.91,374.5L75.67,374.5L82.55,374.56L110.07,374.48L116.95,374.63L130.7,375.26L137.58,375.25L165.1,375.13L171.98,375.19L206.38,376.48L213.26,376.22L282.05,377.07L288.93,376.24L295.81,378.58L302.68,375.3L309.56,380.13L316.44,378.55L330.2,378.35L337.08,378.72L371.48,379.02L378.36,379.6L392.11,379.79L398.99,380.09L419.63,380.96L426.51,380.74L467.79,381.62L474.66,381.52L481.54,380.94L488.42,361L495.3,379.18L502.18,383.21L515.94,384.44L522.82,384.49L619.13,384.86L626.01,384.88L1025,384.98" style="vector-effect: none; fill: none; stroke: rgb(144, 237, 125); stroke-opacity: 1; stroke-width: 2px; opacity: 1;"/></g><g class="points"/><g class="text"/></g><g class="trace scatter trace708bf0" style="stroke-miterlimit: 2; opacity: 1;"><g class="fills"/><g class="errorbars"/><g class="lines"><path class="js-line" d="M0,113.22L6.88,297.3L13.76,351.99L20.64,371.22L27.52,374.52L41.28,375.77L48.15,376.5L55.03,376.43L61.91,375.09L68.79,375.58L75.67,375.1L82.55,374.34L89.43,371.84L96.31,376.52L103.19,374.46L110.07,375.44L116.95,377.66L123.83,375.82L130.7,376.8L137.58,376.85L144.46,375.94L158.22,373.73L165.1,376.68L171.98,376.09L178.86,376.66L185.74,375.51L192.62,377.23L199.5,374.04L206.38,379.11L213.26,376.46L220.13,377.38L227.01,377.5L233.89,376.75L240.77,375.63L247.65,377.18L261.41,378.35L268.29,377.86L282.05,376.54L288.93,378.82L295.81,377.32L302.68,378.44L323.32,378.58L330.2,378.61L364.6,378.8L371.48,380.06L378.36,378.94L385.23,379.2L398.99,380.52L405.87,379.94L419.63,381.39L426.51,380.03L433.39,382.63L440.27,381.6L474.66,382.21L481.54,382.1L495.3,382.12L502.18,381.77L509.06,381.22L515.94,366.69L522.82,382.11L529.7,384.28L550.34,384.69L557.21,384.73L791.11,385L797.99,385L1025,384.99" style="vector-effect: none; fill: none; stroke: rgb(247, 163, 92); stroke-opacity: 1; stroke-width: 2px; opacity: 1;"/></g><g class="points"/><g class="text"/></g><g class="trace scatter tracea458ea" style="stroke-miterlimit: 2; opacity: 1;"><g class="fills"/><g class="errorbars"/><g class="lines"><path class="js-line" d="M0,118.65L6.88,291.09L13.76,352.1L20.64,371.91L27.52,374.96L48.15,375.93L55.03,375.9L61.91,375.35L68.79,376.13L89.43,375.94L96.31,375.86L130.7,376.46L137.58,376.42L247.65,377.09L254.53,377.6L275.17,377.03L282.05,377.39L295.81,377.77L302.68,375.52L309.56,379.77L316.44,378.59L343.96,377.71L350.84,377.84L364.6,377.99L371.48,377.53L385.23,378.55L392.11,378.46L474.66,379.24L481.54,377.06L488.42,343.57L495.3,375.18L502.18,381.98L509.06,383.58L529.7,384.26L536.58,384.33L729.19,384.98L736.07,384.98L1025,384.72" style="vector-effect: none; fill: none; stroke: rgb(128, 133, 233); stroke-opacity: 1; stroke-width: 2px; opacity: 1;"/></g><g class="points"/><g class="text"/></g><g class="trace scatter trace9f8363" style="stroke-miterlimit: 2; opacity: 1;"><g class="fills"/><g class="errorbars"/><g class="lines"><path class="js-line" d="M0,135.99L6.88,292.9L13.76,352.29L20.64,372.36L27.52,375.29L41.28,375.72L48.15,376.55L55.03,376.5L61.91,375.59L68.79,376.64L75.67,376.01L82.55,375.69L89.43,373.25L96.31,377.63L103.19,375.85L110.07,376.1L116.95,378.61L123.83,376.48L130.7,377.64L151.34,376.35L158.22,375.32L165.1,377.72L171.98,377.18L178.86,377.61L185.74,376.31L192.62,377.68L199.5,374.47L206.38,379.08L213.26,376.45L227.01,377.74L233.89,377.54L240.77,376.6L247.65,377.32L254.53,378.39L261.41,378.01L282.05,376.63L288.93,378.51L295.81,377.34L302.68,378.26L364.6,377.48L371.48,378.53L378.36,377.74L385.23,377.99L398.99,378.86L405.87,378.21L419.63,379.52L426.51,377.84L433.39,381.16L440.27,379.77L454.03,379.83L460.91,379.78L502.18,379.77L509.06,377.79L515.94,350.9L522.82,379.81L529.7,383.74L536.58,384.34L632.89,384.85L639.77,384.87L935.57,385L942.45,385L1025,384.78" style="vector-effect: none; fill: none; stroke: rgb(241, 92, 128); stroke-opacity: 1; stroke-width: 2px; opacity: 1;"/></g><g class="points"/><g class="text"/></g><g class="trace scatter trace353e7d" style="stroke-miterlimit: 2; opacity: 1;"><g class="fills"/><g class="errorbars"/><g class="lines"><path class="js-line" d="M0,105.32L6.88,300.01L13.76,354.12L20.64,372.73L27.52,376.26L41.28,377.17L48.15,377.39L68.79,377.59L75.67,377.36L110.07,377.95L116.95,377.56L123.83,378.23L130.7,378.03L206.38,378.72L213.26,378.1L240.77,379.13L247.65,379.26L282.05,379.44L288.93,379.38L295.81,379.82L302.68,378.19L309.56,381.33L316.44,380.49L330.2,380.18L337.08,380.18L357.72,380.43L364.6,380.47L398.99,381.14L405.87,381.39L440.27,381.84L447.15,381.55L467.79,381.96L474.66,381.46L481.54,354.78L488.42,356.25L495.3,378.03L502.18,381.84L509.06,383.61L515.94,384.02L543.46,384.54L550.34,384.56L742.95,384.97L749.83,384.97L1018.12,384.42L1025,378.15" style="vector-effect: none; fill: none; stroke: rgb(228, 211, 84); stroke-opacity: 1; stroke-width: 2px; opacity: 1;"/></g><g class="points"/><g class="text"/></g><g class="trace scatter tracecec0a6" style="stroke-miterlimit: 2; opacity: 1;"><g class="fills"/><g class="errorbars"/><g class="lines"><path class="js-line" d="M0,109.69L6.88,298.35L13.76,353.54L20.64,373.01L27.52,376.51L55.03,377.88L61.91,377.4L75.67,377.69L82.55,377.32L89.43,376.21L96.31,378.61L103.19,377.49L110.07,378.53L116.95,379.07L123.83,378.27L137.58,378.72L144.46,378.21L158.22,377.74L165.1,378.92L185.74,378.54L192.62,379.1L199.5,377.9L206.38,379.69L213.26,378.12L220.13,379.01L227.01,378.66L233.89,379.23L275.17,379.65L282.05,379.33L295.81,379.91L302.68,379.75L330.2,380.21L337.08,380.07L371.48,381.05L378.36,380.44L419.63,381.79L426.51,380.79L433.39,382.72L440.27,382.05L481.54,382.34L488.42,382.39L502.18,381.69L509.06,353.53L515.94,358.7L522.82,380.05L529.7,383.51L536.58,384.21L577.85,384.65L584.73,384.68L722.32,384.97L729.19,384.97L1018.12,384.78L1025,379.54" style="vector-effect: none; fill: none; stroke: rgb(43, 144, 143); stroke-opacity: 1; stroke-width: 2px; opacity: 1;"/></g><g class="points"/><g class="text"/></g><g class="trace scatter trace281d93" style="stroke-miterlimit: 2; opacity: 1;"><g class="fills"/><g class="errorbars"/><g class="lines"><path class="js-line" d="M0,170.57L6.88,314.24L13.76,355.34L20.64,371.51L27.52,374.27L48.15,374.92L55.03,374.77L68.79,374.37L75.67,374.13L165.1,373.35L171.98,373.66L247.65,372.88L254.53,373.25L282.05,372.61L288.93,371.99L295.81,372.83L302.68,369L309.56,376.31L316.44,374.16L330.2,372.93L337.08,373L350.84,372.69L357.72,373.07L371.48,372.63L378.36,373.36L392.11,373.29L398.99,373.68L412.75,374.57L419.63,374.48L433.39,374.12L440.27,374.77L447.15,373.86L454.03,374.65L467.79,375.01L474.66,374.16L481.54,370.54L488.42,292.61L495.3,363.17L502.18,378.43L509.06,382.09L515.94,382.96L550.34,383.62L557.21,383.69L667.28,384.73L674.16,384.76L894.3,385L901.17,385L1025,384.78" style="vector-effect: none; fill: none; stroke: rgb(244, 91, 91); stroke-opacity: 1; stroke-width: 2px; opacity: 1;"/></g><g class="points"/><g class="text"/></g><g class="trace scatter tracea5fb71" style="stroke-miterlimit: 2; opacity: 1;"><g class="fills"/><g class="errorbars"/><g class="lines"><path class="js-line" d="M0,176.21L6.88,313.71L13.76,355.94L20.64,372.19L27.52,374.41L41.28,375.05L48.15,375.75L75.67,374.8L82.55,373.39L89.43,371.83L96.31,375.81L103.19,373.44L110.07,375.29L116.95,375.99L123.83,374.41L137.58,375.14L144.46,374.1L158.22,372.68L165.1,374.89L171.98,374.11L178.86,374.43L185.74,373.49L192.62,374.24L199.5,371.75L206.38,375.32L213.26,372.93L220.13,374.07L227.01,372.79L233.89,373.62L275.17,373.22L282.05,372.37L288.93,373.77L295.81,373.39L316.44,372.78L323.32,373.67L337.08,372.64L343.96,373.25L350.84,373L357.72,371.62L364.6,372.22L371.48,374.21L378.36,371.9L385.23,372.59L398.99,374.33L405.87,372.71L412.75,374.74L419.63,375.28L426.51,372.2L433.39,378.21L440.27,375.81L447.15,376.33L454.03,375L460.91,375.82L488.42,375.81L495.3,375.73L509.06,371.11L515.94,310.39L522.82,373.14L529.7,382.24L536.58,383.59L543.46,383.76L825.5,384.99L832.38,384.99L1025,384.83" style="vector-effect: none; fill: none; stroke: rgb(145, 232, 225); stroke-opacity: 1; stroke-width: 2px; opacity: 1;"/></g><g class="points"/><g class="text"/></g><g class="trace scatter trace258e8d" style="stroke-miterlimit: 2; opacity: 1;"><g class="fills"/><g class="errorbars"/><g class="lines"><path class="js-line" d="M0,168.51L6.88,315.62L13.76,357.08L20.64,372.06L27.52,374.73L48.15,375.32L55.03,375.26L61.91,374.53L68.79,374.81L116.95,373.76L123.83,374.14L151.34,373.35L158.22,373.38L206.38,373.26L213.26,372.3L220.13,372.96L227.01,372.31L240.77,372.56L247.65,372.39L261.41,372.94L268.29,372.29L288.93,371.53L295.81,372.4L302.68,368.05L309.56,375.9L316.44,373.51L323.32,371.95L337.08,372.56L343.96,371.55L378.36,372.93L385.23,371.9L392.11,372.13L398.99,373.12L419.63,374.38L426.51,373.5L433.39,373.55L440.27,374.46L447.15,373.32L454.03,373.94L467.79,374.91L474.66,373.75L481.54,370.27L488.42,289.88L495.3,362.41L502.18,378.19L509.06,382.03L515.94,382.9L543.46,383.57L550.34,383.55L667.28,384.73L674.16,384.76L1025,384.82" style="vector-effect: none; fill: none; stroke: rgb(124, 181, 236); stroke-opacity: 1; stroke-width: 2px; opacity: 1;"/></g><g class="points"/><g class="text"/></g><g class="trace scatter tracef44510" style="stroke-miterlimit: 2; opacity: 1;"><g class="fills"/><g class="errorbars"/><g class="lines"><path class="js-line" d="M0,169.84L6.88,312.27L13.76,356.37L20.64,372.62L27.52,374.9L41.28,375.3L48.15,376.04L55.03,375.96L61.91,374.75L68.79,375.46L75.67,374.94L82.55,373.97L89.43,370.91L96.31,376.26L103.19,373.78L110.07,374.44L116.95,377.03L123.83,374.59L130.7,375.56L137.58,375.66L144.46,374.28L158.22,371.38L165.1,375.04L171.98,374.32L178.86,374.82L185.74,372.63L192.62,374.83L199.5,369.74L206.38,376.9L213.26,372.53L220.13,374.22L227.01,374.31L233.89,373.36L240.77,371.25L247.65,373.34L254.53,374.68L261.41,374.6L282.05,370.38L288.93,374.16L295.81,371.81L302.68,373.56L309.56,373.23L316.44,372.09L330.2,372.47L337.08,372.33L350.84,372.32L357.72,371.19L364.6,371.13L371.48,374.12L378.36,371.38L385.23,371.1L398.99,374.05L405.87,372.13L412.75,374.34L419.63,375.31L426.51,371.3L433.39,378.05L440.27,375.52L447.15,376.1L454.03,374.44L460.91,375L474.66,375.89L481.54,375.37L488.42,375.68L495.3,374.71L502.18,373.46L509.06,370.65L515.94,308.48L522.82,372.95L529.7,382.2L536.58,383.58L646.64,384.68L653.52,384.69L832.38,384.99L839.26,384.99L1025,384.85" style="vector-effect: none; fill: none; stroke: rgb(67, 67, 72); stroke-opacity: 1; stroke-width: 2px; opacity: 1;"/></g><g class="points"/><g class="text"/></g></g></g></g><g class="zerolinelayer-above"/><path class="xlines-above crisp" d="M0,0" style="fill: none;"/><path class="ylines-above crisp" d="M0,0" style="fill: none;"/><g class="overlines-above"/><g class="xaxislayer-above"><g class="xtick"><text text-anchor="middle" x="0" y="451" transform="translate(190.7,0)" style="font-family: 'Lucida Grande', 'Open Sans', verdana, arial, sans-serif; font-size: 10px; fill: rgb(0, 0, 0); fill-opacity: 1; white-space: pre;">20 bp</text></g><g class="xtick"><text text-anchor="middle" x="0" y="451" style="font-family: 'Lucida Grande', 'Open Sans', verdana, arial, sans-serif; font-size: 10px; fill: rgb(0, 0, 0); fill-opacity: 1; white-space: pre;" transform="translate(328.29,0)">40 bp</text></g><g class="xtick"><text text-anchor="middle" x="0" y="451" style="font-family: 'Lucida Grande', 'Open Sans', verdana, arial, sans-serif; font-size: 10px; fill: rgb(0, 0, 0); fill-opacity: 1; white-space: pre;" transform="translate(465.87,0)">60 bp</text></g><g class="xtick"><text text-anchor="middle" x="0" y="451" style="font-family: 'Lucida Grande', 'Open Sans', verdana, arial, sans-serif; font-size: 10px; fill: rgb(0, 0, 0); fill-opacity: 1; white-space: pre;" transform="translate(603.46,0)">80 bp</text></g><g class="xtick"><text text-anchor="middle" x="0" y="451" style="font-family: 'Lucida Grande', 'Open Sans', verdana, arial, sans-serif; font-size: 10px; fill: rgb(0, 0, 0); fill-opacity: 1; white-space: pre;" transform="translate(741.04,0)">100 bp</text></g><g class="xtick"><text text-anchor="middle" x="0" y="451" style="font-family: 'Lucida Grande', 'Open Sans', verdana, arial, sans-serif; font-size: 10px; fill: rgb(0, 0, 0); fill-opacity: 1; white-space: pre;" transform="translate(878.62,0)">120 bp</text></g><g class="xtick"><text text-anchor="middle" x="0" y="451" style="font-family: 'Lucida Grande', 'Open Sans', verdana, arial, sans-serif; font-size: 10px; fill: rgb(0, 0, 0); fill-opacity: 1; white-space: pre;" transform="translate(1016.21,0)">140 bp</text></g></g><g class="yaxislayer-above"><g class="ytick"><text text-anchor="end" x="54" y="3.5" transform="translate(0,435)" style="font-family: 'Lucida Grande', 'Open Sans', verdana, arial, sans-serif; font-size: 10px; fill: rgb(0, 0, 0); fill-opacity: 1; white-space: pre;">0</text></g><g class="ytick"><text text-anchor="end" x="54" y="3.5" style="font-family: 'Lucida Grande', 'Open Sans', verdana, arial, sans-serif; font-size: 10px; fill: rgb(0, 0, 0); fill-opacity: 1; white-space: pre;" transform="translate(0,396.36)">0.5M</text></g><g class="ytick"><text text-anchor="end" x="54" y="3.5" style="font-family: 'Lucida Grande', 'Open Sans', verdana, arial, sans-serif; font-size: 10px; fill: rgb(0, 0, 0); fill-opacity: 1; white-space: pre;" transform="translate(0,357.71)">1M</text></g><g class="ytick"><text text-anchor="end" x="54" y="3.5" style="font-family: 'Lucida Grande', 'Open Sans', verdana, arial, sans-serif; font-size: 10px; fill: rgb(0, 0, 0); fill-opacity: 1; white-space: pre;" transform="translate(0,319.07)">1.5M</text></g><g class="ytick"><text text-anchor="end" x="54" y="3.5" style="font-family: 'Lucida Grande', 'Open Sans', verdana, arial, sans-serif; font-size: 10px; fill: rgb(0, 0, 0); fill-opacity: 1; white-space: pre;" transform="translate(0,280.43)">2M</text></g><g class="ytick"><text text-anchor="end" x="54" y="3.5" style="font-family: 'Lucida Grande', 'Open Sans', verdana, arial, sans-serif; font-size: 10px; fill: rgb(0, 0, 0); fill-opacity: 1; white-space: pre;" transform="translate(0,241.78)">2.5M</text></g><g class="ytick"><text text-anchor="end" x="54" y="3.5" style="font-family: 'Lucida Grande', 'Open Sans', verdana, arial, sans-serif; font-size: 10px; fill: rgb(0, 0, 0); fill-opacity: 1; white-space: pre;" transform="translate(0,203.14)">3M</text></g><g class="ytick"><text text-anchor="end" x="54" y="3.5" style="font-family: 'Lucida Grande', 'Open Sans', verdana, arial, sans-serif; font-size: 10px; fill: rgb(0, 0, 0); fill-opacity: 1; white-space: pre;" transform="translate(0,164.5)">3.5M</text></g><g class="ytick"><text text-anchor="end" x="54" y="3.5" style="font-family: 'Lucida Grande', 'Open Sans', verdana, arial, sans-serif; font-size: 10px; fill: rgb(0, 0, 0); fill-opacity: 1; white-space: pre;" transform="translate(0,125.85)">4M</text></g><g class="ytick"><text text-anchor="end" x="54" y="3.5" style="font-family: 'Lucida Grande', 'Open Sans', verdana, arial, sans-serif; font-size: 10px; fill: rgb(0, 0, 0); fill-opacity: 1; white-space: pre;" transform="translate(0,87.21000000000001)">4.5M</text></g></g><g class="overaxes-above"/></g></g><g class="polarlayer"/><g class="smithlayer"/><g class="ternarylayer"/><g class="geolayer"/><g class="funnelarealayer"/><g class="pielayer"/><g class="iciclelayer"/><g class="treemaplayer"/><g class="sunburstlayer"/><g class="glimages"/><defs id="topdefs-2c384b"><g class="clips"/></defs><g class="layer-above"><g class="imagelayer"/><g class="shapelayer"/></g><g class="infolayer"><g class="g-gtitle"><text class="gtitle" x="550" y="25" text-anchor="middle" dy="0em" style="opacity: 1; font-family: 'Lucida Grande', 'Open Sans', verdana, arial, sans-serif; font-size: 20px; fill: rgb(68, 68, 68); fill-opacity: 1; white-space: pre;"><tspan class="line" dy="0em" x="550" y="25">Cutadapt: Lengths of Trimmed Sequences (3' end)</tspan><tspan class="line" dy="1.3em" x="550" y="25">​<tspan style="font-size:70%" dy="-0.6em">Counts, 32 lines</tspan><tspan dy="0.42em">​</tspan></tspan></text></g><g class="g-xtitle"><text class="xtitle" x="572.5" y="487" text-anchor="middle" style="opacity: 0.3; font-family: 'Lucida Grande', 'Open Sans', verdana, arial, sans-serif; font-size: 14px; fill: rgb(0, 0, 0); fill-opacity: 1; white-space: pre;">Length Trimmed (bp)</text></g><g class="g-ytitle"><text class="ytitle" transform="rotate(-90,22,242.5)" x="22" y="242.5" text-anchor="middle" style="opacity: 0.3; font-family: 'Lucida Grande', 'Open Sans', verdana, arial, sans-serif; font-size: 14px; fill: rgb(0, 0, 0); fill-opacity: 1; white-space: pre;">Count</text></g></g></svg>