<svg class="main-svg" xmlns="http://www.w3.org/2000/svg" xmlns:xlink="http://www.w3.org/1999/xlink" width="2200" height="1000" style="" viewBox="0 0 1100 500"><rect x="0" y="0" width="1100" height="500" style="fill: rgb(255, 255, 255); fill-opacity: 1;"/><defs id="defs-f93671"><g class="clips"><clipPath id="clipf93671xyplot" class="plotclip"><rect width="1025" height="385"/></clipPath><clipPath class="axesclip" id="clipf93671x"><rect x="60" y="0" width="1025" height="500"/></clipPath><clipPath class="axesclip" id="clipf93671y"><rect x="0" y="50" width="1100" height="385"/></clipPath><clipPath class="axesclip" id="clipf93671xy"><rect x="60" y="50" width="1025" height="385"/></clipPath></g><g class="gradients"/><g class="patterns"/></defs><g class="bglayer"/><g class="layer-below"><g class="imagelayer"/><g class="shapelayer"/></g><g class="cartesianlayer"><g class="subplot xy"><g class="layer-subplot"><g class="shapelayer"/><g class="imagelayer"/></g><g class="minor-gridlayer"><g class="x"/><g class="y"/></g><g class="gridlayer"><g class="x"><path class="xgrid crisp" transform="translate(177.84,0)" d="M0,50v385" style="stroke: rgb(0, 0, 0); stroke-opacity: 0.05; stroke-width: 1px;"/><path class="xgrid crisp" transform="translate(313,0)" d="M0,50v385" style="stroke: rgb(0, 0, 0); stroke-opacity: 0.05; stroke-width: 1px;"/><path class="xgrid crisp" transform="translate(448.15,0)" d="M0,50v385" style="stroke: rgb(0, 0, 0); stroke-opacity: 0.05; stroke-width: 1px;"/><path class="xgrid crisp" transform="translate(583.3,0)" d="M0,50v385" style="stroke: rgb(0, 0, 0); stroke-opacity: 0.05; stroke-width: 1px;"/><path class="xgrid crisp" transform="translate(718.46,0)" d="M0,50v385" style="stroke: rgb(0, 0, 0); stroke-opacity: 0.05; stroke-width: 1px;"/><path class="xgrid crisp" transform="translate(853.61,0)" d="M0,50v385" style="stroke: rgb(0, 0, 0); stroke-opacity: 0.05; stroke-width: 1px;"/><path class="xgrid crisp" transform="translate(988.77,0)" d="M0,50v385" style="stroke: rgb(0, 0, 0); stroke-opacity: 0.05; stroke-width: 1px;"/></g><g class="y"><path class="ygrid crisp" transform="translate(0,358)" d="M60,0h1025" style="stroke: rgb(0, 0, 0); stroke-opacity: 0.05; stroke-width: 1px;"/><path class="ygrid crisp" transform="translate(0,281)" d="M60,0h1025" style="stroke: rgb(0, 0, 0); stroke-opacity: 0.05; stroke-width: 1px;"/><path class="ygrid crisp" transform="translate(0,204)" d="M60,0h1025" style="stroke: rgb(0, 0, 0); stroke-opacity: 0.05; stroke-width: 1px;"/><path class="ygrid crisp" transform="translate(0,127)" d="M60,0h1025" style="stroke: rgb(0, 0, 0); stroke-opacity: 0.05; stroke-width: 1px;"/></g></g><g class="zerolinelayer"><path class="yzl zl crisp" transform="translate(0,435)" d="M60,0h1025" style="stroke: rgb(0, 0, 0); stroke-opacity: 0.05; stroke-width: 1px;"/></g><g class="layer-between"><g class="shapelayer"/><g class="imagelayer"/></g><path class="xlines-below"/><path class="ylines-below"/><g class="overlines-below"/><g class="xaxislayer-below"/><g class="yaxislayer-below"/><g class="overaxes-below"/><g class="overplot"><g class="xy" transform="translate(60,50)" clip-path="url(#clipf93671xyplot)"><g class="scatterlayer mlayer"><g class="trace scatter tracec65486" style="stroke-miterlimit: 2; opacity: 1;"><g class="fills"/><g class="errorbars"/><g class="lines"><path class="js-line" d="M112.37,228.92L308.82,172.12L310.1,171.75L425.14,139.51L425.62,139.38L497.13,120.73L497.7,120.59L541.15,109.96L541.85,109.79L627.4,90.61L629.27,90.22L690.67,78L701.89,75.91L746.74,67.96L938.05,41.26" style="vector-effect: none; fill: none; stroke: rgb(124, 181, 236); stroke-opacity: 1; stroke-width: 2px; opacity: 1;"/></g><g class="points"/><g class="text"/></g><g class="trace scatter trace8b81e8" style="stroke-miterlimit: 2; opacity: 1;"><g class="fills"/><g class="errorbars"/><g class="lines"><path class="js-line" d="M81.37,265.06L207.1,232L211.18,230.87L307.69,203.55L308.72,203.25L539.52,138.21L540.19,138.04L623.04,116.91L628.39,115.6L685.01,102.36L708.76,97.11L944.62,54.92" style="vector-effect: none; fill: none; stroke: rgb(67, 67, 72); stroke-opacity: 1; stroke-width: 2px; opacity: 1;"/></g><g class="points"/><g class="text"/></g><g class="trace scatter trace23af58" style="stroke-miterlimit: 2; opacity: 1;"><g class="fills"/><g class="errorbars"/><g class="lines"><path class="js-line" d="M60.64,303.46L160.91,275.7L165.66,274.25L225.71,255L226.91,254.6L288.11,233.41L288.77,233.18L381.29,199.25L381.64,199.12L507.34,152.76L508.68,152.28L575.2,129.27L586.66,125.48L634.43,110.33L1024.53,31.28" style="vector-effect: none; fill: none; stroke: rgb(144, 237, 125); stroke-opacity: 1; stroke-width: 2px; opacity: 1;"/></g><g class="points"/><g class="text"/></g><g class="trace scatter traced910f3" style="stroke-miterlimit: 2; opacity: 1;"><g class="fills"/><g class="errorbars"/><g class="lines"><path class="js-line" d="M0,359L206.33,344.74L209.47,344.48L297.44,336.48L298.45,336.38L351.17,330.96L352.3,330.84L445.91,319.95L446.86,319.83L540.6,307.23L541.18,307.15L623.44,294.65L624.94,294.41L706.67,280.66L723.33,277.7L740.22,274.65L855.23,252.57" style="vector-effect: none; fill: none; stroke: rgb(247, 163, 92); stroke-opacity: 1; stroke-width: 2px; opacity: 1;"/></g><g class="points"/><g class="text"/></g><g class="trace scatter traceffcfca" style="stroke-miterlimit: 2; opacity: 1;"><g class="fills"/><g class="errorbars"/><g class="lines"><path class="js-line" d="M64.49,359.94L210.18,349.64L212.99,349.4L286.54,342.83L287.8,342.7L374.74,333.55L375.52,333.46L425.14,327.52L425.88,327.42L504.54,316.84L505.2,316.74L569.58,306.97L570.86,306.77L660.65,291.44L674.76,288.85L703.21,283.49L870.83,248.34" style="vector-effect: none; fill: none; stroke: rgb(128, 133, 233); stroke-opacity: 1; stroke-width: 2px; opacity: 1;"/></g><g class="points"/><g class="text"/></g><g class="trace scatter trace63f364" style="stroke-miterlimit: 2; opacity: 1;"><g class="fills"/><g class="errorbars"/><g class="lines"><path class="js-line" d="M77.93,277.64L221.35,249.5L224.82,248.78L325.73,227.09L327.4,226.72L424.74,204.88L425.42,204.73L683.7,146.77L691.56,145.08L759.6,130.83L1013.79,84.67" style="vector-effect: none; fill: none; stroke: rgb(241, 92, 128); stroke-opacity: 1; stroke-width: 2px; opacity: 1;"/></g><g class="points"/><g class="text"/></g><g class="trace scatter trace231e4b" style="stroke-miterlimit: 2; opacity: 1;"><g class="fills"/><g class="errorbars"/><g class="lines"><path class="js-line" d="M89.83,364.34L204.21,356.15L205.59,356.03L279.21,349.24L279.84,349.18L334.98,343.18L335.51,343.12L378.89,337.8L379.38,337.73L453.95,327.21L454.63,327.1L522.03,315.98L524.67,315.51L580.4,305.05L590.18,303.1L620.99,296.73L662.05,287.71L953.65,209.23" style="vector-effect: none; fill: none; stroke: rgb(228, 211, 84); stroke-opacity: 1; stroke-width: 2px; opacity: 1;"/></g><g class="points"/><g class="text"/></g><g class="trace scatter trace79d352" style="stroke-miterlimit: 2; opacity: 1;"><g class="fills"/><g class="errorbars"/><g class="lines"><path class="js-line" d="M100.03,267.52L219.62,240.83L223.02,240.04L347.65,209.92L348.45,209.72L492.84,173.83L493.47,173.67L575.52,153.7L576.41,153.48L708,123.36L732.09,118.18L906.17,84.73" style="vector-effect: none; fill: none; stroke: rgb(43, 144, 143); stroke-opacity: 1; stroke-width: 2px; opacity: 1;"/></g><g class="points"/><g class="text"/></g><g class="trace scatter trace8110f6" style="stroke-miterlimit: 2; opacity: 1;"><g class="fills"/><g class="errorbars"/><g class="lines"><path class="js-line" d="M85.59,329.38L188.9,314L191.67,313.54L266.58,300.39L267.65,300.19L326.13,288.76L327.09,288.56L404.6,271.88L405.12,271.76L502.88,248.49L503.8,248.26L609.86,220.84L618.24,218.6L833.51,160.49" style="vector-effect: none; fill: none; stroke: rgb(244, 91, 91); stroke-opacity: 1; stroke-width: 2px; opacity: 1;"/></g><g class="points"/><g class="text"/></g><g class="trace scatter trace76c614" style="stroke-miterlimit: 2; opacity: 1;"><g class="fills"/><g class="errorbars"/><g class="lines"><path class="js-line" d="M0,357.94L203.9,344.05L207.47,343.75L306.56,334.9L307.52,334.81L418.67,322.98L419.62,322.87L458.47,318.24L459.12,318.16L606.3,298.09L607.89,297.85L694.38,284.19L706.62,282.15L741.22,276.24L990.71,228.34" style="vector-effect: none; fill: none; stroke: rgb(145, 232, 225); stroke-opacity: 1; stroke-width: 2px; opacity: 1;"/></g><g class="points"/><g class="text"/></g><g class="trace scatter tracedb47aa" style="stroke-miterlimit: 2; opacity: 1;"><g class="fills"/><g class="errorbars"/><g class="lines"><path class="js-line" d="M64.49,354.99L219.75,343.64L222.27,343.43L343.7,332.03L344.7,331.92L433.92,321.94L434.83,321.83L550.84,306.64L551.57,306.53L628.03,295.11L630.84,294.67L723.32,279.32L1025,219.83" style="vector-effect: none; fill: none; stroke: rgb(124, 181, 236); stroke-opacity: 1; stroke-width: 2px; opacity: 1;"/></g><g class="points"/><g class="text"/></g><g class="trace scatter traceeb3971" style="stroke-miterlimit: 2; opacity: 1;"><g class="fills"/><g class="errorbars"/><g class="lines"><path class="js-line" d="M64.49,350.36L212.78,337.96L215.2,337.73L306.05,328.33L307.07,328.21L362.36,321.76L363.28,321.65L466.71,307.99L467.15,307.93L622.97,283.39L627.91,282.53L703.43,268.91L860.69,237.58" style="vector-effect: none; fill: none; stroke: rgb(67, 67, 72); stroke-opacity: 1; stroke-width: 2px; opacity: 1;"/></g><g class="points"/><g class="text"/></g><g class="trace scatter trace5ed9a7" style="stroke-miterlimit: 2; opacity: 1;"><g class="fills"/><g class="errorbars"/><g class="lines"><path class="js-line" d="M85.59,357.76L214.19,348.17L216.38,347.98L308.98,339.26L309.73,339.19L407.3,328.12L407.9,328.05L465.53,320.52L466.01,320.45L521.94,312.4L522.64,312.3L606.01,298.89L609.77,298.24L664.27,288.52L689.69,283.75L893.27,240.54" style="vector-effect: none; fill: none; stroke: rgb(144, 237, 125); stroke-opacity: 1; stroke-width: 2px; opacity: 1;"/></g><g class="points"/><g class="text"/></g><g class="trace scatter trace02933d" style="stroke-miterlimit: 2; opacity: 1;"><g class="fills"/><g class="errorbars"/><g class="lines"><path class="js-line" d="M64.49,244.69L242.83,196.74L245.18,196.09L392.92,155.71L393.96,155.43L527.52,121.55L528.05,121.43L564.11,112.98L565.2,112.74L638.58,96.69L641.85,96.02L708.64,82.87L732.6,78.48L931.22,48.68" style="vector-effect: none; fill: none; stroke: rgb(247, 163, 92); stroke-opacity: 1; stroke-width: 2px; opacity: 1;"/></g><g class="points"/><g class="text"/></g><g class="trace scatter traceb7b271" style="stroke-miterlimit: 2; opacity: 1;"><g class="fills"/><g class="errorbars"/><g class="lines"><path class="js-line" d="M108.34,309.62L210.28,292.86L212.96,292.38L287.5,278.55L288.74,278.31L355.01,264.99L356.16,264.75L484.01,236.69L484.41,236.6L556.99,219.63L558.13,219.36L681.15,189.74L719.01,180.58L1020.34,112.69" style="vector-effect: none; fill: none; stroke: rgb(128, 133, 233); stroke-opacity: 1; stroke-width: 2px; opacity: 1;"/></g><g class="points"/><g class="text"/></g><g class="trace scatter trace8300d1" style="stroke-miterlimit: 2; opacity: 1;"><g class="fills"/><g class="errorbars"/><g class="lines"><path class="js-line" d="M40.69,287.27L198.42,253.58L201.78,252.8L308.42,227.12L309.48,226.85L362.38,213.55L363.41,213.29L637.14,144.11L641.24,143.13L727.23,123.16L856,96.3" style="vector-effect: none; fill: none; stroke: rgb(241, 92, 128); stroke-opacity: 1; stroke-width: 2px; opacity: 1;"/></g><g class="points"/><g class="text"/></g></g></g></g><g class="zerolinelayer-above"/><path class="xlines-above crisp" d="M0,0" style="fill: none;"/><path class="ylines-above crisp" d="M0,0" style="fill: none;"/><g class="overlines-above"/><g class="xaxislayer-above"><g class="xtick"><text text-anchor="middle" x="0" y="451" transform="translate(177.84,0)" style="font-family: 'Lucida Grande', 'Open Sans', verdana, arial, sans-serif; font-size: 10px; fill: rgb(0, 0, 0); fill-opacity: 1; white-space: pre;">0.1</text></g><g class="xtick"><text text-anchor="middle" x="0" y="451" style="font-family: 'Lucida Grande', 'Open Sans', verdana, arial, sans-serif; font-size: 10px; fill: rgb(0, 0, 0); fill-opacity: 1; white-space: pre;" transform="translate(313,0)">1</text></g><g class="xtick"><text text-anchor="middle" x="0" y="451" style="font-family: 'Lucida Grande', 'Open Sans', verdana, arial, sans-serif; font-size: 10px; fill: rgb(0, 0, 0); fill-opacity: 1; white-space: pre;" transform="translate(448.15,0)">10</text></g><g class="xtick"><text text-anchor="middle" x="0" y="451" style="font-family: 'Lucida Grande', 'Open Sans', verdana, arial, sans-serif; font-size: 10px; fill: rgb(0, 0, 0); fill-opacity: 1; white-space: pre;" transform="translate(583.3,0)">100</text></g><g class="xtick"><text text-anchor="middle" x="0" y="451" style="font-family: 'Lucida Grande', 'Open Sans', verdana, arial, sans-serif; font-size: 10px; fill: rgb(0, 0, 0); fill-opacity: 1; white-space: pre;" transform="translate(718.46,0)">1000</text></g><g class="xtick"><text text-anchor="middle" x="0" y="451" style="font-family: 'Lucida Grande', 'Open Sans', verdana, arial, sans-serif; font-size: 10px; fill: rgb(0, 0, 0); fill-opacity: 1; white-space: pre;" transform="translate(853.61,0)">10k</text></g><g class="xtick"><text text-anchor="middle" x="0" y="451" style="font-family: 'Lucida Grande', 'Open Sans', verdana, arial, sans-serif; font-size: 10px; fill: rgb(0, 0, 0); fill-opacity: 1; white-space: pre;" transform="translate(988.77,0)">100k</text></g></g><g class="yaxislayer-above"><g class="ytick"><text text-anchor="end" x="54" y="3.5" transform="translate(0,435)" style="font-family: 'Lucida Grande', 'Open Sans', verdana, arial, sans-serif; font-size: 10px; fill: rgb(0, 0, 0); fill-opacity: 1; white-space: pre;">0%</text></g><g class="ytick"><text text-anchor="end" x="54" y="3.5" style="font-family: 'Lucida Grande', 'Open Sans', verdana, arial, sans-serif; font-size: 10px; fill: rgb(0, 0, 0); fill-opacity: 1; white-space: pre;" transform="translate(0,358)">20%</text></g><g class="ytick"><text text-anchor="end" x="54" y="3.5" style="font-family: 'Lucida Grande', 'Open Sans', verdana, arial, sans-serif; font-size: 10px; fill: rgb(0, 0, 0); fill-opacity: 1; white-space: pre;" transform="translate(0,281)">40%</text></g><g class="ytick"><text text-anchor="end" x="54" y="3.5" style="font-family: 'Lucida Grande', 'Open Sans', verdana, arial, sans-serif; font-size: 10px; fill: rgb(0, 0, 0); fill-opacity: 1; white-space: pre;" transform="translate(0,204)">60%</text></g><g class="ytick"><text text-anchor="end" x="54" y="3.5" style="font-family: 'Lucida Grande', 'Open Sans', verdana, arial, sans-serif; font-size: 10px; fill: rgb(0, 0, 0); fill-opacity: 1; white-space: pre;" transform="translate(0,127)">80%</text></g><g class="ytick"><text text-anchor="end" x="54" y="3.5" style="font-family: 'Lucida Grande', 'Open Sans', verdana, arial, sans-serif; font-size: 10px; fill: rgb(0, 0, 0); fill-opacity: 1; white-space: pre;" transform="translate(0,50)">100%</text></g></g><g class="overaxes-above"/></g></g><g class="polarlayer"/><g class="smithlayer"/><g class="ternarylayer"/><g class="geolayer"/><g class="funnelarealayer"/><g class="pielayer"/><g class="iciclelayer"/><g class="treemaplayer"/><g class="sunburstlayer"/><g class="glimages"/><defs id="topdefs-f93671"><g class="clips"/></defs><g class="layer-above"><g class="imagelayer"/><g class="shapelayer"><g class="shape-group" data-index="0" clip-path="url(#clipf93671x)"><path data-index="0" fill-rule="evenodd" d="M272.31,435L272.31,50" style="opacity: 1; stroke: rgb(0, 128, 0); stroke-opacity: 1; fill: rgb(0, 0, 0); fill-opacity: 0; stroke-dasharray: 15px, 15px; stroke-width: 1px;"/><g data-index="0" class="shape-label"><text data-notex="1" class="shape-label-text" x="267.31" y="242.5" style="font-family: 'Lucida Grande', 'Open Sans', verdana, arial, sans-serif; font-size: 12px; fill: rgb(0, 128, 0); fill-opacity: 1; white-space: pre;" text-anchor="middle" transform="rotate(-90,267.31,242.5)">0.5 RPKM</text></g></g><g class="shape-group" data-index="1" clip-path="url(#clipf93671x)"><path data-index="1" fill-rule="evenodd" d="M718.46,435L718.46,50" style="opacity: 1; stroke: rgb(255, 0, 0); stroke-opacity: 1; fill: rgb(0, 0, 0); fill-opacity: 0; stroke-dasharray: 15px, 15px; stroke-width: 1px;"/><g data-index="1" class="shape-label"><text data-notex="1" class="shape-label-text" x="713.46" y="242.5" style="font-family: 'Lucida Grande', 'Open Sans', verdana, arial, sans-serif; font-size: 12px; fill: rgb(255, 0, 0); fill-opacity: 1; white-space: pre;" text-anchor="middle" transform="rotate(-90,713.46,242.5)">1 read/bp</text></g></g><g class="shape-group" data-index="2" clip-path="url(#clipf93671x)"><path data-index="2" fill-rule="evenodd" d="M272.31,435L272.31,50" style="opacity: 1; stroke: rgb(0, 128, 0); stroke-opacity: 1; fill: rgb(0, 0, 0); fill-opacity: 0; stroke-dasharray: 15px, 15px; stroke-width: 1px;"/><g data-index="2" class="shape-label"><text data-notex="1" class="shape-label-text" x="267.31" y="242.5" style="font-family: 'Lucida Grande', 'Open Sans', verdana, arial, sans-serif; font-size: 12px; fill: rgb(0, 128, 0); fill-opacity: 1; white-space: pre;" text-anchor="middle" transform="rotate(-90,267.31,242.5)">0.5 RPKM</text></g></g><g class="shape-group" data-index="3" clip-path="url(#clipf93671x)"><path data-index="3" fill-rule="evenodd" d="M718.46,435L718.46,50" style="opacity: 1; stroke: rgb(255, 0, 0); stroke-opacity: 1; fill: rgb(0, 0, 0); fill-opacity: 0; stroke-dasharray: 15px, 15px; stroke-width: 1px;"/><g data-index="3" class="shape-label"><text data-notex="1" class="shape-label-text" x="713.46" y="242.5" style="font-family: 'Lucida Grande', 'Open Sans', verdana, arial, sans-serif; font-size: 12px; fill: rgb(255, 0, 0); fill-opacity: 1; white-space: pre;" text-anchor="middle" transform="rotate(-90,713.46,242.5)">1 read/bp</text></g></g></g></g><g class="infolayer"><g class="g-gtitle"><text class="gtitle" x="550" y="25" text-anchor="middle" dy="0em" style="opacity: 1; font-family: 'Lucida Grande', 'Open Sans', verdana, arial, sans-serif; font-size: 20px; fill: rgb(68, 68, 68); fill-opacity: 1; white-space: pre;"><tspan class="line" dy="0em" x="550" y="25">DupRadar General Linear Model</tspan><tspan class="line" dy="1.3em" x="550" y="25">​<tspan style="font-size:70%" dy="-0.6em">16 lines</tspan><tspan dy="0.42em">​</tspan></tspan></text></g><g class="g-xtitle"><text class="xtitle" x="572.5" y="487" text-anchor="middle" style="opacity: 0.3; font-family: 'Lucida Grande', 'Open Sans', verdana, arial, sans-serif; font-size: 14px; fill: rgb(0, 0, 0); fill-opacity: 1; white-space: pre;">expression (reads/kbp)</text></g><g class="g-ytitle"><text class="ytitle" transform="rotate(-90,22,242.5)" x="22" y="242.5" text-anchor="middle" style="opacity: 0.3; font-family: 'Lucida Grande', 'Open Sans', verdana, arial, sans-serif; font-size: 14px; fill: rgb(0, 0, 0); fill-opacity: 1; white-space: pre;">% duplicate reads</text></g></g></svg>