<svg class="main-svg" xmlns="http://www.w3.org/2000/svg" xmlns:xlink="http://www.w3.org/1999/xlink" width="2200" height="1000" style="" viewBox="0 0 1100 500"><rect x="0" y="0" width="1100" height="500" style="fill: rgb(255, 255, 255); fill-opacity: 1;"/><defs id="defs-422ffe"><g class="clips"><clipPath id="clip422ffexyplot" class="plotclip"><rect width="1022" height="385"/></clipPath><clipPath class="axesclip" id="clip422ffex"><rect x="60" y="0" width="1022" height="500"/></clipPath><clipPath class="axesclip" id="clip422ffey"><rect x="0" y="50" width="1100" height="385"/></clipPath><clipPath class="axesclip" id="clip422ffexy"><rect x="60" y="50" width="1022" height="385"/></clipPath></g><g class="gradients"/><g class="patterns"/></defs><g class="bglayer"/><g class="layer-below"><g class="imagelayer"/><g class="shapelayer"><g class="shape-group" data-index="0" clip-path="url(#clip422ffex)"><path data-index="0" fill-rule="evenodd" d="M775.4,435H2615V50H775.4Z" style="opacity: 0.13; stroke: rgb(0, 0, 0); stroke-opacity: 0; fill: rgb(0, 149, 0); fill-opacity: 1; stroke-width: 0px;"/></g><g class="shape-group" data-index="1" clip-path="url(#clip422ffex)"><path data-index="1" fill-rule="evenodd" d="M571,435H775.4V50H571Z" style="opacity: 0.13; stroke: rgb(0, 0, 0); stroke-opacity: 0; fill: rgb(160, 115, 0); fill-opacity: 1; stroke-width: 0px;"/></g><g class="shape-group" data-index="2" clip-path="url(#clip422ffex)"><path data-index="2" fill-rule="evenodd" d="M60,435H571V50H60Z" style="opacity: 0.13; stroke: rgb(0, 0, 0); stroke-opacity: 0; fill: rgb(153, 1, 1); fill-opacity: 1; stroke-width: 0px;"/></g><g class="shape-group" data-index="3" clip-path="url(#clip422ffex)"><path data-index="3" fill-rule="evenodd" d="M775.4,435H2615V50H775.4Z" style="opacity: 0.13; stroke: rgb(0, 0, 0); stroke-opacity: 0; fill: rgb(0, 149, 0); fill-opacity: 1; stroke-width: 0px;"/></g><g class="shape-group" data-index="4" clip-path="url(#clip422ffex)"><path data-index="4" fill-rule="evenodd" d="M571,435H775.4V50H571Z" style="opacity: 0.13; stroke: rgb(0, 0, 0); stroke-opacity: 0; fill: rgb(160, 115, 0); fill-opacity: 1; stroke-width: 0px;"/></g><g class="shape-group" data-index="5" clip-path="url(#clip422ffex)"><path data-index="5" fill-rule="evenodd" d="M60,435H571V50H60Z" style="opacity: 0.13; stroke: rgb(0, 0, 0); stroke-opacity: 0; fill: rgb(153, 1, 1); fill-opacity: 1; stroke-width: 0px;"/></g></g></g><g class="cartesianlayer"><g class="subplot xy"><g class="layer-subplot"><g class="shapelayer"/><g class="imagelayer"/></g><g class="minor-gridlayer"><g class="x"/><g class="y"/></g><g class="gridlayer"><g class="x"><path class="xgrid crisp" transform="translate(187.75,0)" d="M0,50v385" style="stroke: rgb(0, 0, 0); stroke-opacity: 0.05; stroke-width: 1px;"/><path class="xgrid crisp" transform="translate(315.5,0)" d="M0,50v385" style="stroke: rgb(0, 0, 0); stroke-opacity: 0.05; stroke-width: 1px;"/><path class="xgrid crisp" transform="translate(443.25,0)" d="M0,50v385" style="stroke: rgb(0, 0, 0); stroke-opacity: 0.05; stroke-width: 1px;"/><path class="xgrid crisp" transform="translate(571,0)" d="M0,50v385" style="stroke: rgb(0, 0, 0); stroke-opacity: 0.05; stroke-width: 1px;"/><path class="xgrid crisp" transform="translate(698.75,0)" d="M0,50v385" style="stroke: rgb(0, 0, 0); stroke-opacity: 0.05; stroke-width: 1px;"/><path class="xgrid crisp" transform="translate(826.5,0)" d="M0,50v385" style="stroke: rgb(0, 0, 0); stroke-opacity: 0.05; stroke-width: 1px;"/><path class="xgrid crisp" transform="translate(954.25,0)" d="M0,50v385" style="stroke: rgb(0, 0, 0); stroke-opacity: 0.05; stroke-width: 1px;"/></g><g class="y"><path class="ygrid crisp" transform="translate(0,388.85)" d="M60,0h1022" style="stroke: rgb(0, 0, 0); stroke-opacity: 0.05; stroke-width: 1px;"/><path class="ygrid crisp" transform="translate(0,342.7)" d="M60,0h1022" style="stroke: rgb(0, 0, 0); stroke-opacity: 0.05; stroke-width: 1px;"/><path class="ygrid crisp" transform="translate(0,296.53999999999996)" d="M60,0h1022" style="stroke: rgb(0, 0, 0); stroke-opacity: 0.05; stroke-width: 1px;"/><path class="ygrid crisp" transform="translate(0,250.39)" d="M60,0h1022" style="stroke: rgb(0, 0, 0); stroke-opacity: 0.05; stroke-width: 1px;"/><path class="ygrid crisp" transform="translate(0,204.24)" d="M60,0h1022" style="stroke: rgb(0, 0, 0); stroke-opacity: 0.05; stroke-width: 1px;"/><path class="ygrid crisp" transform="translate(0,158.09)" d="M60,0h1022" style="stroke: rgb(0, 0, 0); stroke-opacity: 0.05; stroke-width: 1px;"/><path class="ygrid crisp" transform="translate(0,111.94)" d="M60,0h1022" style="stroke: rgb(0, 0, 0); stroke-opacity: 0.05; stroke-width: 1px;"/><path class="ygrid crisp" transform="translate(0,65.78)" d="M60,0h1022" style="stroke: rgb(0, 0, 0); stroke-opacity: 0.05; stroke-width: 1px;"/></g></g><g class="zerolinelayer"><path class="xzl zl crisp" transform="translate(60,0)" d="M0,50v385" style="stroke: rgb(0, 0, 0); stroke-opacity: 0.05; stroke-width: 1px;"/><path class="yzl zl crisp" transform="translate(0,435)" d="M60,0h1022" style="stroke: rgb(0, 0, 0); stroke-opacity: 0.05; stroke-width: 1px;"/></g><g class="layer-between"><g class="shapelayer"/><g class="imagelayer"/></g><path class="xlines-below"/><path class="ylines-below"/><g class="overlines-below"/><g class="xaxislayer-below"/><g class="yaxislayer-below"/><g class="overaxes-below"/><g class="overplot"><g class="xy" transform="translate(60,50)" clip-path="url(#clip422ffexyplot)"><g class="scatterlayer mlayer"><g class="trace scatter trace836b68" style="stroke-miterlimit: 2; opacity: 1;"><g class="fills"/><g class="errorbars"/><g class="lines"><path class="js-line" d="M383.25,385L638.75,384.38L664.3,384.03L740.95,382.44L766.5,381.57L817.6,379.12L843.15,377.34L868.7,375.08L894.25,371.85L919.8,366.96L945.35,358.64L970.9,341.74L996.45,292.43L1022,88.98" style="vector-effect: none; fill: none; stroke: rgb(92, 184, 92); stroke-opacity: 1; stroke-width: 2px; opacity: 1;"/></g><g class="points"/><g class="text"/></g><g class="trace scatter traced245d5" style="stroke-miterlimit: 2; opacity: 1;"><g class="fills"/><g class="errorbars"/><g class="lines"><path class="js-line" d="M281.05,385L459.9,384.34L485.45,384.17L638.75,380.06L664.3,379.25L740.95,376.21L766.5,374.8L817.6,370.94L843.15,368.26L868.7,364.72L894.25,359.82L919.8,352.76L945.35,341.72L970.9,322.65L996.45,284.47L1022,243.56" style="vector-effect: none; fill: none; stroke: rgb(92, 184, 92); stroke-opacity: 1; stroke-width: 2px; opacity: 1;"/></g><g class="points"/><g class="text"/></g><g class="trace scatter tracec02f9b" style="stroke-miterlimit: 2; opacity: 1;"><g class="fills"/><g class="errorbars"/><g class="lines"><path class="js-line" d="M357.7,385L587.65,384.6L613.2,384.2L638.75,382.15L664.3,381.33L689.85,382.91L715.4,382.67L792.05,380.15L817.6,378.84L868.7,374.79L894.25,371.5L919.8,366.4L945.35,357.64L970.9,339.17L996.45,281.09L1022,28.12" style="vector-effect: none; fill: none; stroke: rgb(92, 184, 92); stroke-opacity: 1; stroke-width: 2px; opacity: 1;"/></g><g class="points"/><g class="text"/></g><g class="trace scatter traced75cc4" style="stroke-miterlimit: 2; opacity: 1;"><g class="fills"/><g class="errorbars"/><g class="lines"><path class="js-line" d="M306.6,385L459.9,384.3L485.45,384.06L562.1,381.44L587.65,380.42L613.2,379.22L638.75,377.25L664.3,376.13L689.85,376.77L766.5,372.42L792.05,370.44L843.15,364.85L868.7,360.75L894.25,355.15L919.8,346.85L945.35,333.97L970.9,311.38L996.45,264.61L1022,238.38" style="vector-effect: none; fill: none; stroke: rgb(92, 184, 92); stroke-opacity: 1; stroke-width: 2px; opacity: 1;"/></g><g class="points"/><g class="text"/></g><g class="trace scatter trace10a35c" style="stroke-miterlimit: 2; opacity: 1;"><g class="fills"/><g class="errorbars"/><g class="lines"><path class="js-line" d="M383.25,385L613.2,384.48L638.75,383.51L664.3,382.98L689.85,383.31L766.5,381.06L792.05,379.85L843.15,376.37L868.7,373.75L894.25,370.1L919.8,364.53L945.35,355.14L970.9,335.98L996.45,280L1022,90.03" style="vector-effect: none; fill: none; stroke: rgb(92, 184, 92); stroke-opacity: 1; stroke-width: 2px; opacity: 1;"/></g><g class="points"/><g class="text"/></g><g class="trace scatter trace3e3d78" style="stroke-miterlimit: 2; opacity: 1;"><g class="fills"/><g class="errorbars"/><g class="lines"><path class="js-line" d="M281.05,385L408.8,384.42L434.35,384.15L485.45,383.59L511,382.57L664.3,374.16L689.85,373.66L766.5,369.2L792.05,367.33L843.15,362.41L868.7,358.94L894.25,354.54L919.8,348.42L945.35,339.53L970.9,325.12L996.45,296.46L1022,275.73" style="vector-effect: none; fill: none; stroke: rgb(92, 184, 92); stroke-opacity: 1; stroke-width: 2px; opacity: 1;"/></g><g class="points"/><g class="text"/></g><g class="trace scatter trace1ea75f" style="stroke-miterlimit: 2; opacity: 1;"><g class="fills"/><g class="errorbars"/><g class="lines"><path class="js-line" d="M383.25,385L638.75,384.4L664.3,384.05L740.95,382.23L766.5,381.25L817.6,378.46L843.15,376.47L868.7,373.84L894.25,370.14L919.8,364.46L945.35,354.96L970.9,335.65L996.45,281.02L1022,76.27" style="vector-effect: none; fill: none; stroke: rgb(92, 184, 92); stroke-opacity: 1; stroke-width: 2px; opacity: 1;"/></g><g class="points"/><g class="text"/></g><g class="trace scatter tracea0676e" style="stroke-miterlimit: 2; opacity: 1;"><g class="fills"/><g class="errorbars"/><g class="lines"><path class="js-line" d="M281.05,385L434.35,384.4L459.9,384.09L511,382.75L536.55,381.34L740.95,369.06L766.5,367.09L817.6,362L843.15,358.73L868.7,354.64L894.25,349.47L919.8,342.67L945.35,333.26L970.9,320.05L996.45,299.45L1022,304.41" style="vector-effect: none; fill: none; stroke: rgb(92, 184, 92); stroke-opacity: 1; stroke-width: 2px; opacity: 1;"/></g><g class="points"/><g class="text"/></g><g class="trace scatter trace714f75" style="stroke-miterlimit: 2; opacity: 1;"><g class="fills"/><g class="errorbars"/><g class="lines"><path class="js-line" d="M357.7,385L613.2,384.54L638.75,384.15L740.95,382.16L766.5,381.23L817.6,378.54L843.15,376.68L868.7,374.2L894.25,370.75L919.8,365.58L945.35,356.85L970.9,338.68L996.45,282.47L1022,19.25" style="vector-effect: none; fill: none; stroke: rgb(92, 184, 92); stroke-opacity: 1; stroke-width: 2px; opacity: 1;"/></g><g class="points"/><g class="text"/></g><g class="trace scatter traceba603f" style="stroke-miterlimit: 2; opacity: 1;"><g class="fills"/><g class="errorbars"/><g class="lines"><path class="js-line" d="M306.6,385L485.45,384.19L511,383.62L689.85,377.35L715.4,376.12L766.5,372.88L792.05,370.76L817.6,368.21L843.15,364.86L868.7,360.36L894.25,354.23L919.8,345.26L945.35,331.18L970.9,307.14L996.45,258.67L1022,237.75" style="vector-effect: none; fill: none; stroke: rgb(92, 184, 92); stroke-opacity: 1; stroke-width: 2px; opacity: 1;"/></g><g class="points"/><g class="text"/></g><g class="trace scatter tracec30d04" style="stroke-miterlimit: 2; opacity: 1;"><g class="fills"/><g class="errorbars"/><g class="lines"><path class="js-line" d="M357.7,385L613.2,384.55L638.75,384.07L740.95,381.81L766.5,380.74L817.6,377.71L843.15,375.59L868.7,372.73L894.25,368.73L919.8,362.66L945.35,352.35L970.9,331.45L996.45,272.01L1022,48.04" style="vector-effect: none; fill: none; stroke: rgb(92, 184, 92); stroke-opacity: 1; stroke-width: 2px; opacity: 1;"/></g><g class="points"/><g class="text"/></g><g class="trace scatter trace936206" style="stroke-miterlimit: 2; opacity: 1;"><g class="fills"/><g class="errorbars"/><g class="lines"><path class="js-line" d="M306.6,385L459.9,384.36L485.45,384.07L536.55,382.4L562.1,381.32L689.85,375.04L715.4,373.44L766.5,369.51L792.05,367.04L843.15,360.28L868.7,355.46L894.25,349.18L919.8,340.65L945.35,328.3L970.9,309.4L996.45,277.58L1022,261.67" style="vector-effect: none; fill: none; stroke: rgb(92, 184, 92); stroke-opacity: 1; stroke-width: 2px; opacity: 1;"/></g><g class="points"/><g class="text"/></g><g class="trace scatter trace6e6e57" style="stroke-miterlimit: 2; opacity: 1;"><g class="fills"/><g class="errorbars"/><g class="lines"><path class="js-line" d="M408.8,385L613.2,384.56L638.75,384.24L715.4,382.52L740.95,381.62L817.6,377.44L843.15,375.34L868.7,372.61L894.25,368.76L919.8,362.99L945.35,353.17L970.9,333.44L996.45,276.53L1022,59.74" style="vector-effect: none; fill: none; stroke: rgb(92, 184, 92); stroke-opacity: 1; stroke-width: 2px; opacity: 1;"/></g><g class="points"/><g class="text"/></g><g class="trace scatter traceba541a" style="stroke-miterlimit: 2; opacity: 1;"><g class="fills"/><g class="errorbars"/><g class="lines"><path class="js-line" d="M306.6,385L459.9,384.36L485.45,384.07L536.55,382.27L562.1,381.09L689.85,374.55L715.4,373L766.5,369.3L792.05,367.07L843.15,361.11L868.7,356.95L894.25,351.69L919.8,344.45L945.35,334.23L970.9,317.58L1022,252.51" style="vector-effect: none; fill: none; stroke: rgb(92, 184, 92); stroke-opacity: 1; stroke-width: 2px; opacity: 1;"/></g><g class="points"/><g class="text"/></g><g class="trace scatter trace898462" style="stroke-miterlimit: 2; opacity: 1;"><g class="fills"/><g class="errorbars"/><g class="lines"><path class="js-line" d="M357.7,385L613.2,384.56L638.75,384.22L740.95,382.2L766.5,381.25L817.6,378.58L843.15,376.67L868.7,374.15L894.25,370.55L919.8,365.24L945.35,356.14L970.9,337.74L996.45,284.23L1022,68.44" style="vector-effect: none; fill: none; stroke: rgb(92, 184, 92); stroke-opacity: 1; stroke-width: 2px; opacity: 1;"/></g><g class="points"/><g class="text"/></g><g class="trace scatter trace3b521a" style="stroke-miterlimit: 2; opacity: 1;"><g class="fills"/><g class="errorbars"/><g class="lines"><path class="js-line" d="M306.6,385L434.35,384.33L459.9,384.04L511,382.66L536.55,381.22L766.5,367.51L792.05,365.34L843.15,359.8L868.7,355.95L894.25,351.15L919.8,344.76L945.35,335.79L970.9,322.27L996.45,298.43L1022,292.69" style="vector-effect: none; fill: none; stroke: rgb(92, 184, 92); stroke-opacity: 1; stroke-width: 2px; opacity: 1;"/></g><g class="points"/><g class="text"/></g><g class="trace scatter trace811f8e" style="stroke-miterlimit: 2; opacity: 1;"><g class="fills"/><g class="errorbars"/><g class="lines"><path class="js-line" d="M383.25,385L613.2,384.39L638.75,383.65L766.5,381.41L792.05,380.34L843.15,377.41L868.7,375.23L894.25,372.14L919.8,367.48L945.35,359.69L970.9,343.15L996.45,288.81L1022,19.82" style="vector-effect: none; fill: none; stroke: rgb(92, 184, 92); stroke-opacity: 1; stroke-width: 2px; opacity: 1;"/></g><g class="points"/><g class="text"/></g><g class="trace scatter tracecd2361" style="stroke-miterlimit: 2; opacity: 1;"><g class="fills"/><g class="errorbars"/><g class="lines"><path class="js-line" d="M281.05,385L485.45,384.26L511,383.76L689.85,377.91L715.4,376.82L766.5,373.99L792.05,372.14L843.15,366.96L868.7,363L894.25,357.34L919.8,348.77L945.35,334.87L970.9,309.97L996.45,256.64L1022,233.06" style="vector-effect: none; fill: none; stroke: rgb(92, 184, 92); stroke-opacity: 1; stroke-width: 2px; opacity: 1;"/></g><g class="points"/><g class="text"/></g><g class="trace scatter traced385cf" style="stroke-miterlimit: 2; opacity: 1;"><g class="fills"/><g class="errorbars"/><g class="lines"><path class="js-line" d="M383.25,385L613.2,384.49L638.75,383.6L664.3,383.14L689.85,383.44L766.5,381.62L792.05,380.61L843.15,377.63L868.7,375.39L894.25,372.24L919.8,367.5L945.35,359.35L970.9,342.68L996.45,293L1022,88.29" style="vector-effect: none; fill: none; stroke: rgb(92, 184, 92); stroke-opacity: 1; stroke-width: 2px; opacity: 1;"/></g><g class="points"/><g class="text"/></g><g class="trace scatter trace956dc8" style="stroke-miterlimit: 2; opacity: 1;"><g class="fills"/><g class="errorbars"/><g class="lines"><path class="js-line" d="M306.6,385L459.9,384.36L485.45,384.11L562.1,381.57L587.65,380.57L740.95,374.03L766.5,372.45L817.6,368.29L843.15,365.44L868.7,361.82L894.25,357.04L919.8,350.37L945.35,340.41L970.9,324L996.45,292.02L1022,268.65" style="vector-effect: none; fill: none; stroke: rgb(92, 184, 92); stroke-opacity: 1; stroke-width: 2px; opacity: 1;"/></g><g class="points"/><g class="text"/></g><g class="trace scatter trace1f00ca" style="stroke-miterlimit: 2; opacity: 1;"><g class="fills"/><g class="errorbars"/><g class="lines"><path class="js-line" d="M383.25,385L638.75,384.42L664.3,384.09L740.95,382.31L766.5,381.36L817.6,378.69L843.15,376.75L868.7,374.23L894.25,370.68L919.8,365.31L945.35,356.18L970.9,337.83L996.45,286.87L1022,100.28" style="vector-effect: none; fill: none; stroke: rgb(92, 184, 92); stroke-opacity: 1; stroke-width: 2px; opacity: 1;"/></g><g class="points"/><g class="text"/></g><g class="trace scatter trace151df6" style="stroke-miterlimit: 2; opacity: 1;"><g class="fills"/><g class="errorbars"/><g class="lines"><path class="js-line" d="M306.6,385L434.35,384.27L459.9,383.98L511,382.6L536.55,381.17L740.95,369.84L766.5,367.95L817.6,363.13L843.15,359.96L868.7,355.95L894.25,350.96L919.8,344.31L945.35,335.59L970.9,323.9L996.45,307.83L1022,315.22" style="vector-effect: none; fill: none; stroke: rgb(92, 184, 92); stroke-opacity: 1; stroke-width: 2px; opacity: 1;"/></g><g class="points"/><g class="text"/></g><g class="trace scatter tracea12de2" style="stroke-miterlimit: 2; opacity: 1;"><g class="fills"/><g class="errorbars"/><g class="lines"><path class="js-line" d="M383.25,385L638.75,384.45L664.3,384.15L740.95,382.56L766.5,381.67L817.6,379.22L843.15,377.52L868.7,375.2L894.25,371.94L919.8,367.06L945.35,358.76L970.9,342.13L996.45,295.05L1022,119.71" style="vector-effect: none; fill: none; stroke: rgb(92, 184, 92); stroke-opacity: 1; stroke-width: 2px; opacity: 1;"/></g><g class="points"/><g class="text"/></g><g class="trace scatter trace665aca" style="stroke-miterlimit: 2; opacity: 1;"><g class="fills"/><g class="errorbars"/><g class="lines"><path class="js-line" d="M281.05,385L434.35,384.41L459.9,384.18L511,383.15L536.55,382.1L689.85,375.35L715.4,373.97L766.5,370.64L792.05,368.56L843.15,362.91L868.7,359.04L894.25,353.89L919.8,347.18L945.35,338.02L970.9,325.29L996.45,306.91L1022,314.64" style="vector-effect: none; fill: none; stroke: rgb(92, 184, 92); stroke-opacity: 1; stroke-width: 2px; opacity: 1;"/></g><g class="points"/><g class="text"/></g><g class="trace scatter trace9b4b78" style="stroke-miterlimit: 2; opacity: 1;"><g class="fills"/><g class="errorbars"/><g class="lines"><path class="js-line" d="M357.7,385L638.75,384.25L664.3,383.85L740.95,381.88L766.5,380.85L817.6,378.1L843.15,376.22L868.7,373.67L894.25,370.18L919.8,364.86L945.35,355.84L970.9,337.8L996.45,286.07L1022,88.33" style="vector-effect: none; fill: none; stroke: rgb(92, 184, 92); stroke-opacity: 1; stroke-width: 2px; opacity: 1;"/></g><g class="points"/><g class="text"/></g><g class="trace scatter traced9bc59" style="stroke-miterlimit: 2; opacity: 1;"><g class="fills"/><g class="errorbars"/><g class="lines"><path class="js-line" d="M306.6,385L459.9,384.39L485.45,384.11L536.55,382.44L562.1,381.33L689.85,375.08L715.4,373.58L766.5,370.02L792.05,367.83L843.15,362.08L868.7,358.17L894.25,353.04L919.8,346.16L945.35,336.23L970.9,321.21L996.45,294.33L1022,278.63" style="vector-effect: none; fill: none; stroke: rgb(92, 184, 92); stroke-opacity: 1; stroke-width: 2px; opacity: 1;"/></g><g class="points"/><g class="text"/></g><g class="trace scatter trace6733c1" style="stroke-miterlimit: 2; opacity: 1;"><g class="fills"/><g class="errorbars"/><g class="lines"><path class="js-line" d="M383.25,385L638.75,384.27L664.3,383.95L740.95,382.63L766.5,381.83L817.6,379.61L843.15,378.01L868.7,375.89L894.25,372.92L919.8,368.48L945.35,360.85L970.9,345.47L996.45,301.9L1022,137.02" style="vector-effect: none; fill: none; stroke: rgb(92, 184, 92); stroke-opacity: 1; stroke-width: 2px; opacity: 1;"/></g><g class="points"/><g class="text"/></g><g class="trace scatter trace9026a4" style="stroke-miterlimit: 2; opacity: 1;"><g class="fills"/><g class="errorbars"/><g class="lines"><path class="js-line" d="M281.05,385L459.9,384.46L485.45,384.24L562.1,382.08L587.65,381.23L715.4,376.39L740.95,375.06L792.05,371.72L817.6,369.54L868.7,363.37L894.25,358.8L919.8,352.56L945.35,343.44L970.9,329.53L996.45,306.13L1022,294.73" style="vector-effect: none; fill: none; stroke: rgb(92, 184, 92); stroke-opacity: 1; stroke-width: 2px; opacity: 1;"/></g><g class="points"/><g class="text"/></g><g class="trace scatter trace05d846" style="stroke-miterlimit: 2; opacity: 1;"><g class="fills"/><g class="errorbars"/><g class="lines"><path class="js-line" d="M357.7,385L638.75,384.4L664.3,384.1L740.95,382.68L766.5,381.89L817.6,379.67L843.15,378.09L868.7,375.98L894.25,373.05L919.8,368.58L945.35,360.99L970.9,345.53L996.45,299.01L1022,73.38" style="vector-effect: none; fill: none; stroke: rgb(92, 184, 92); stroke-opacity: 1; stroke-width: 2px; opacity: 1;"/></g><g class="points"/><g class="text"/></g><g class="trace scatter trace05f711" style="stroke-miterlimit: 2; opacity: 1;"><g class="fills"/><g class="errorbars"/><g class="lines"><path class="js-line" d="M306.6,385L459.9,384.41L485.45,384.15L562.1,381.74L587.65,380.77L715.4,375.31L740.95,373.92L792.05,370.39L817.6,368.06L843.15,365.16L868.7,361.41L894.25,356.46L919.8,349.47L945.35,339.23L970.9,322.67L996.45,291.17L1022,274.79" style="vector-effect: none; fill: none; stroke: rgb(92, 184, 92); stroke-opacity: 1; stroke-width: 2px; opacity: 1;"/></g><g class="points"/><g class="text"/></g><g class="trace scatter trace727c94" style="stroke-miterlimit: 2; opacity: 1;"><g class="fills"/><g class="errorbars"/><g class="lines"><path class="js-line" d="M357.7,385L638.75,384.3L664.3,383.97L740.95,382.64L766.5,381.84L817.6,379.55L843.15,377.91L868.7,375.74L894.25,372.65L919.8,368.03L945.35,360.12L970.9,343.94L996.45,295.39L1022,71.83" style="vector-effect: none; fill: none; stroke: rgb(92, 184, 92); stroke-opacity: 1; stroke-width: 2px; opacity: 1;"/></g><g class="points"/><g class="text"/></g><g class="trace scatter trace2ec738" style="stroke-miterlimit: 2; opacity: 1;"><g class="fills"/><g class="errorbars"/><g class="lines"><path class="js-line" d="M281.05,385L459.9,384.34L485.45,384.06L562.1,381.47L587.65,380.44L740.95,373.51L766.5,371.84L817.6,367.63L843.15,364.7L868.7,360.9L894.25,355.96L919.8,348.95L945.35,338.59L970.9,321.89L996.45,290.26L1022,274.61" style="vector-effect: none; fill: none; stroke: rgb(92, 184, 92); stroke-opacity: 1; stroke-width: 2px; opacity: 1;"/></g><g class="points"/><g class="text"/></g></g></g></g><g class="zerolinelayer-above"/><path class="xlines-above crisp" d="M0,0" style="fill: none;"/><path class="ylines-above crisp" d="M0,0" style="fill: none;"/><g class="overlines-above"/><g class="xaxislayer-above"><g class="xtick"><text text-anchor="middle" x="0" y="451" transform="translate(60,0)" style="font-family: 'Lucida Grande', 'Open Sans', verdana, arial, sans-serif; font-size: 10px; fill: rgb(0, 0, 0); fill-opacity: 1; white-space: pre;">0</text></g><g class="xtick"><text text-anchor="middle" x="0" y="451" style="font-family: 'Lucida Grande', 'Open Sans', verdana, arial, sans-serif; font-size: 10px; fill: rgb(0, 0, 0); fill-opacity: 1; white-space: pre;" transform="translate(187.75,0)">5</text></g><g class="xtick"><text text-anchor="middle" x="0" y="451" style="font-family: 'Lucida Grande', 'Open Sans', verdana, arial, sans-serif; font-size: 10px; fill: rgb(0, 0, 0); fill-opacity: 1; white-space: pre;" transform="translate(315.5,0)">10</text></g><g class="xtick"><text text-anchor="middle" x="0" y="451" style="font-family: 'Lucida Grande', 'Open Sans', verdana, arial, sans-serif; font-size: 10px; fill: rgb(0, 0, 0); fill-opacity: 1; white-space: pre;" transform="translate(443.25,0)">15</text></g><g class="xtick"><text text-anchor="middle" x="0" y="451" style="font-family: 'Lucida Grande', 'Open Sans', verdana, arial, sans-serif; font-size: 10px; fill: rgb(0, 0, 0); fill-opacity: 1; white-space: pre;" transform="translate(571,0)">20</text></g><g class="xtick"><text text-anchor="middle" x="0" y="451" style="font-family: 'Lucida Grande', 'Open Sans', verdana, arial, sans-serif; font-size: 10px; fill: rgb(0, 0, 0); fill-opacity: 1; white-space: pre;" transform="translate(698.75,0)">25</text></g><g class="xtick"><text text-anchor="middle" x="0" y="451" style="font-family: 'Lucida Grande', 'Open Sans', verdana, arial, sans-serif; font-size: 10px; fill: rgb(0, 0, 0); fill-opacity: 1; white-space: pre;" transform="translate(826.5,0)">30</text></g><g class="xtick"><text text-anchor="middle" x="0" y="451" style="font-family: 'Lucida Grande', 'Open Sans', verdana, arial, sans-serif; font-size: 10px; fill: rgb(0, 0, 0); fill-opacity: 1; white-space: pre;" transform="translate(954.25,0)">35</text></g><g class="xtick"><text text-anchor="middle" x="0" y="451" style="font-family: 'Lucida Grande', 'Open Sans', verdana, arial, sans-serif; font-size: 10px; fill: rgb(0, 0, 0); fill-opacity: 1; white-space: pre;" transform="translate(1082,0)">40</text></g></g><g class="yaxislayer-above"><g class="ytick"><text text-anchor="end" x="54" y="3.5" transform="translate(0,435)" style="font-family: 'Lucida Grande', 'Open Sans', verdana, arial, sans-serif; font-size: 10px; fill: rgb(0, 0, 0); fill-opacity: 1; white-space: pre;">0</text></g><g class="ytick"><text text-anchor="end" x="54" y="3.5" style="font-family: 'Lucida Grande', 'Open Sans', verdana, arial, sans-serif; font-size: 10px; fill: rgb(0, 0, 0); fill-opacity: 1; white-space: pre;" transform="translate(0,388.85)">2M</text></g><g class="ytick"><text text-anchor="end" x="54" y="3.5" style="font-family: 'Lucida Grande', 'Open Sans', verdana, arial, sans-serif; font-size: 10px; fill: rgb(0, 0, 0); fill-opacity: 1; white-space: pre;" transform="translate(0,342.7)">4M</text></g><g class="ytick"><text text-anchor="end" x="54" y="3.5" style="font-family: 'Lucida Grande', 'Open Sans', verdana, arial, sans-serif; font-size: 10px; fill: rgb(0, 0, 0); fill-opacity: 1; white-space: pre;" transform="translate(0,296.53999999999996)">6M</text></g><g class="ytick"><text text-anchor="end" x="54" y="3.5" style="font-family: 'Lucida Grande', 'Open Sans', verdana, arial, sans-serif; font-size: 10px; fill: rgb(0, 0, 0); fill-opacity: 1; white-space: pre;" transform="translate(0,250.39)">8M</text></g><g class="ytick"><text text-anchor="end" x="54" y="3.5" style="font-family: 'Lucida Grande', 'Open Sans', verdana, arial, sans-serif; font-size: 10px; fill: rgb(0, 0, 0); fill-opacity: 1; white-space: pre;" transform="translate(0,204.24)">10M</text></g><g class="ytick"><text text-anchor="end" x="54" y="3.5" style="font-family: 'Lucida Grande', 'Open Sans', verdana, arial, sans-serif; font-size: 10px; fill: rgb(0, 0, 0); fill-opacity: 1; white-space: pre;" transform="translate(0,158.09)">12M</text></g><g class="ytick"><text text-anchor="end" x="54" y="3.5" style="font-family: 'Lucida Grande', 'Open Sans', verdana, arial, sans-serif; font-size: 10px; fill: rgb(0, 0, 0); fill-opacity: 1; white-space: pre;" transform="translate(0,111.94)">14M</text></g><g class="ytick"><text text-anchor="end" x="54" y="3.5" style="font-family: 'Lucida Grande', 'Open Sans', verdana, arial, sans-serif; font-size: 10px; fill: rgb(0, 0, 0); fill-opacity: 1; white-space: pre;" transform="translate(0,65.78)">16M</text></g></g><g class="overaxes-above"/></g></g><g class="polarlayer"/><g class="smithlayer"/><g class="ternarylayer"/><g class="geolayer"/><g class="funnelarealayer"/><g class="pielayer"/><g class="iciclelayer"/><g class="treemaplayer"/><g class="sunburstlayer"/><g class="glimages"/><defs id="topdefs-422ffe"><g class="clips"/></defs><g class="layer-above"><g class="imagelayer"/><g class="shapelayer"/></g><g class="infolayer"><g class="g-gtitle"><text class="gtitle" x="550" y="25" text-anchor="middle" dy="0em" style="opacity: 1; font-family: 'Lucida Grande', 'Open Sans', verdana, arial, sans-serif; font-size: 20px; fill: rgb(68, 68, 68); fill-opacity: 1; white-space: pre;"><tspan class="line" dy="0em" x="550" y="25">FastQC: Per Sequence Quality Scores</tspan><tspan class="line" dy="1.3em" x="550" y="25">​<tspan style="font-size:70%" dy="-0.6em">32 lines</tspan><tspan dy="0.42em">​</tspan></tspan></text></g><g class="g-xtitle"><text class="xtitle" x="571" y="487" text-anchor="middle" style="opacity: 0.3; font-family: 'Lucida Grande', 'Open Sans', verdana, arial, sans-serif; font-size: 14px; fill: rgb(0, 0, 0); fill-opacity: 1; white-space: pre;">Mean Sequence Quality (Phred Score)</text></g><g class="g-ytitle"><text class="ytitle" transform="rotate(-90,22,242.5)" x="22" y="242.5" text-anchor="middle" style="opacity: 0.3; font-family: 'Lucida Grande', 'Open Sans', verdana, arial, sans-serif; font-size: 14px; fill: rgb(0, 0, 0); fill-opacity: 1; white-space: pre;">Count</text></g></g></svg>