<svg class="main-svg" xmlns="http://www.w3.org/2000/svg" xmlns:xlink="http://www.w3.org/1999/xlink" width="2200" height="1000" style="" viewBox="0 0 1100 500"><rect x="0" y="0" width="1100" height="500" style="fill: rgb(255, 255, 255); fill-opacity: 1;"/><defs id="defs-1ecd40"><g class="clips"><clipPath id="clip1ecd40xyplot" class="plotclip"><rect width="1022" height="385"/></clipPath><clipPath class="axesclip" id="clip1ecd40x"><rect x="60" y="0" width="1022" height="500"/></clipPath><clipPath class="axesclip" id="clip1ecd40y"><rect x="0" y="50" width="1100" height="385"/></clipPath><clipPath class="axesclip" id="clip1ecd40xy"><rect x="60" y="50" width="1022" height="385"/></clipPath></g><g class="gradients"/><g class="patterns"/></defs><g class="bglayer"/><g class="layer-below"><g class="imagelayer"/><g class="shapelayer"><g class="shape-group" data-index="0" clip-path="url(#clip1ecd40x)"><path data-index="0" fill-rule="evenodd" d="M775.4,435H2615V50H775.4Z" style="opacity: 0.13; stroke: rgb(0, 0, 0); stroke-opacity: 0; fill: rgb(0, 149, 0); fill-opacity: 1; stroke-width: 0px;"/></g><g class="shape-group" data-index="1" clip-path="url(#clip1ecd40x)"><path data-index="1" fill-rule="evenodd" d="M571,435H775.4V50H571Z" style="opacity: 0.13; stroke: rgb(0, 0, 0); stroke-opacity: 0; fill: rgb(160, 115, 0); fill-opacity: 1; stroke-width: 0px;"/></g><g class="shape-group" data-index="2" clip-path="url(#clip1ecd40x)"><path data-index="2" fill-rule="evenodd" d="M60,435H571V50H60Z" style="opacity: 0.13; stroke: rgb(0, 0, 0); stroke-opacity: 0; fill: rgb(153, 1, 1); fill-opacity: 1; stroke-width: 0px;"/></g><g class="shape-group" data-index="3" clip-path="url(#clip1ecd40x)"><path data-index="3" fill-rule="evenodd" d="M775.4,435H2615V50H775.4Z" style="opacity: 0.13; stroke: rgb(0, 0, 0); stroke-opacity: 0; fill: rgb(0, 149, 0); fill-opacity: 1; stroke-width: 0px;"/></g><g class="shape-group" data-index="4" clip-path="url(#clip1ecd40x)"><path data-index="4" fill-rule="evenodd" d="M571,435H775.4V50H571Z" style="opacity: 0.13; stroke: rgb(0, 0, 0); stroke-opacity: 0; fill: rgb(160, 115, 0); fill-opacity: 1; stroke-width: 0px;"/></g><g class="shape-group" data-index="5" clip-path="url(#clip1ecd40x)"><path data-index="5" fill-rule="evenodd" d="M60,435H571V50H60Z" style="opacity: 0.13; stroke: rgb(0, 0, 0); stroke-opacity: 0; fill: rgb(153, 1, 1); fill-opacity: 1; stroke-width: 0px;"/></g></g></g><g class="cartesianlayer"><g class="subplot xy"><g class="layer-subplot"><g class="shapelayer"/><g class="imagelayer"/></g><g class="minor-gridlayer"><g class="x"/><g class="y"/></g><g class="gridlayer"><g class="x"><path class="xgrid crisp" transform="translate(187.75,0)" d="M0,50v385" style="stroke: rgb(0, 0, 0); stroke-opacity: 0.05; stroke-width: 1px;"/><path class="xgrid crisp" transform="translate(315.5,0)" d="M0,50v385" style="stroke: rgb(0, 0, 0); stroke-opacity: 0.05; stroke-width: 1px;"/><path class="xgrid crisp" transform="translate(443.25,0)" d="M0,50v385" style="stroke: rgb(0, 0, 0); stroke-opacity: 0.05; stroke-width: 1px;"/><path class="xgrid crisp" transform="translate(571,0)" d="M0,50v385" style="stroke: rgb(0, 0, 0); stroke-opacity: 0.05; stroke-width: 1px;"/><path class="xgrid crisp" transform="translate(698.75,0)" d="M0,50v385" style="stroke: rgb(0, 0, 0); stroke-opacity: 0.05; stroke-width: 1px;"/><path class="xgrid crisp" transform="translate(826.5,0)" d="M0,50v385" style="stroke: rgb(0, 0, 0); stroke-opacity: 0.05; stroke-width: 1px;"/><path class="xgrid crisp" transform="translate(954.25,0)" d="M0,50v385" style="stroke: rgb(0, 0, 0); stroke-opacity: 0.05; stroke-width: 1px;"/></g><g class="y"><path class="ygrid crisp" transform="translate(0,381.92)" d="M60,0h1022" style="stroke: rgb(0, 0, 0); stroke-opacity: 0.05; stroke-width: 1px;"/><path class="ygrid crisp" transform="translate(0,328.84)" d="M60,0h1022" style="stroke: rgb(0, 0, 0); stroke-opacity: 0.05; stroke-width: 1px;"/><path class="ygrid crisp" transform="translate(0,275.76)" d="M60,0h1022" style="stroke: rgb(0, 0, 0); stroke-opacity: 0.05; stroke-width: 1px;"/><path class="ygrid crisp" transform="translate(0,222.69)" d="M60,0h1022" style="stroke: rgb(0, 0, 0); stroke-opacity: 0.05; stroke-width: 1px;"/><path class="ygrid crisp" transform="translate(0,169.61)" d="M60,0h1022" style="stroke: rgb(0, 0, 0); stroke-opacity: 0.05; stroke-width: 1px;"/><path class="ygrid crisp" transform="translate(0,116.53)" d="M60,0h1022" style="stroke: rgb(0, 0, 0); stroke-opacity: 0.05; stroke-width: 1px;"/><path class="ygrid crisp" transform="translate(0,63.45)" d="M60,0h1022" style="stroke: rgb(0, 0, 0); stroke-opacity: 0.05; stroke-width: 1px;"/></g></g><g class="zerolinelayer"><path class="xzl zl crisp" transform="translate(60,0)" d="M0,50v385" style="stroke: rgb(0, 0, 0); stroke-opacity: 0.05; stroke-width: 1px;"/><path class="yzl zl crisp" transform="translate(0,435)" d="M60,0h1022" style="stroke: rgb(0, 0, 0); stroke-opacity: 0.05; stroke-width: 1px;"/></g><g class="layer-between"><g class="shapelayer"/><g class="imagelayer"/></g><path class="xlines-below"/><path class="ylines-below"/><g class="overlines-below"/><g class="xaxislayer-below"/><g class="yaxislayer-below"/><g class="overaxes-below"/><g class="overplot"><g class="xy" transform="translate(60,50)" clip-path="url(#clip1ecd40xyplot)"><g class="scatterlayer mlayer"><g class="trace scatter tracefe91fc" style="stroke-miterlimit: 2; opacity: 1;"><g class="fills"/><g class="errorbars"/><g class="lines"><path class="js-line" d="M332.15,385L587.65,384.51L613.2,384.24L638.75,382.88L664.3,382.6L689.85,382.86L715.4,382.3L792.05,379.14L817.6,377.47L868.7,372.65L894.25,368.75L919.8,362.82L945.35,352.7L970.9,332.37L996.45,275.01L1022,60.64" style="vector-effect: none; fill: none; stroke: rgb(92, 184, 92); stroke-opacity: 1; stroke-width: 2px; opacity: 1;"/></g><g class="points"/><g class="text"/></g><g class="trace scatter tracea1887f" style="stroke-miterlimit: 2; opacity: 1;"><g class="fills"/><g class="errorbars"/><g class="lines"><path class="js-line" d="M281.05,385L357.7,384.22L383.25,383.54L485.45,382.41L511,382.06L613.2,379.55L638.75,378.25L664.3,377.24L689.85,377.01L740.95,374.33L766.5,372.55L817.6,367.57L843.15,364L868.7,359.31L894.25,352.82L919.8,343.34L945.35,328.47L970.9,304.08L996.45,264.72L1022,269.6" style="vector-effect: none; fill: none; stroke: rgb(92, 184, 92); stroke-opacity: 1; stroke-width: 2px; opacity: 1;"/></g><g class="points"/><g class="text"/></g><g class="trace scatter traceb8ebab" style="stroke-miterlimit: 2; opacity: 1;"><g class="fills"/><g class="errorbars"/><g class="lines"><path class="js-line" d="M357.7,385L536.55,384.54L562.1,384.1L587.65,383.23L613.2,380.82L638.75,353.3L664.3,360.93L689.85,379.97L715.4,381.03L766.5,379.39L792.05,377.94L817.6,376.1L843.15,373.48L868.7,369.83L894.25,364.24L919.8,356.27L945.35,343.2L970.9,321.04L996.45,265.8L1022,71.54" style="vector-effect: none; fill: none; stroke: rgb(92, 184, 92); stroke-opacity: 1; stroke-width: 2px; opacity: 1;"/></g><g class="points"/><g class="text"/></g><g class="trace scatter trace64f0c8" style="stroke-miterlimit: 2; opacity: 1;"><g class="fills"/><g class="errorbars"/><g class="lines"><path class="js-line" d="M281.05,385L357.7,384.21L383.25,383.52L511,380.33L536.55,378.97L562.1,377.3L587.65,374.86L613.2,370.09L638.75,354.77L664.3,355.13L689.85,373.41L715.4,372.39L740.95,370.41L792.05,364.83L817.6,360.95L843.15,355.99L868.7,349.4L894.25,340.63L919.8,329.25L945.35,314.85L970.9,298.4L996.45,284.58L1022,310.75" style="vector-effect: none; fill: none; stroke: rgb(92, 184, 92); stroke-opacity: 1; stroke-width: 2px; opacity: 1;"/></g><g class="points"/><g class="text"/></g><g class="trace scatter trace1b09bc" style="stroke-miterlimit: 2; opacity: 1;"><g class="fills"/><g class="errorbars"/><g class="lines"><path class="js-line" d="M306.6,385L562.1,384.53L587.65,384.1L613.2,382.97L638.75,371.56L664.3,374.43L689.85,381.78L715.4,381.67L740.95,380.79L792.05,378.03L817.6,376.03L843.15,373.37L868.7,369.74L894.25,364.52L919.8,356.99L945.35,344.93L970.9,322.82L996.45,264.24L1022,90.81" style="vector-effect: none; fill: none; stroke: rgb(92, 184, 92); stroke-opacity: 1; stroke-width: 2px; opacity: 1;"/></g><g class="points"/><g class="text"/></g><g class="trace scatter trace02d642" style="stroke-miterlimit: 2; opacity: 1;"><g class="fills"/><g class="errorbars"/><g class="lines"><path class="js-line" d="M281.05,385L332.15,384.76L357.7,383.99L434.35,381.07L459.9,380.47L536.55,378.09L562.1,376.94L587.65,375.52L613.2,373.2L638.75,366.47L664.3,363.67L689.85,371.71L715.4,370.54L766.5,366.55L792.05,363.95L843.15,356.83L868.7,351.67L894.25,344.95L919.8,336.16L945.35,324.62L970.9,310.44L996.45,295.71L1022,317.05" style="vector-effect: none; fill: none; stroke: rgb(92, 184, 92); stroke-opacity: 1; stroke-width: 2px; opacity: 1;"/></g><g class="points"/><g class="text"/></g><g class="trace scatter trace7edd98" style="stroke-miterlimit: 2; opacity: 1;"><g class="fills"/><g class="errorbars"/><g class="lines"><path class="js-line" d="M357.7,385L613.2,384.26L638.75,383.49L740.95,381.22L766.5,380.06L817.6,376.72L843.15,374.31L868.7,371.09L894.25,366.43L919.8,359.33L945.35,347.41L970.9,324.31L996.45,261.65L1022,49.2" style="vector-effect: none; fill: none; stroke: rgb(92, 184, 92); stroke-opacity: 1; stroke-width: 2px; opacity: 1;"/></g><g class="points"/><g class="text"/></g><g class="trace scatter trace6fcfea" style="stroke-miterlimit: 2; opacity: 1;"><g class="fills"/><g class="errorbars"/><g class="lines"><path class="js-line" d="M281.05,385L357.7,384.52L383.25,383.87L536.55,378.56L562.1,377.47L638.75,373.42L664.3,371.92L715.4,368.84L740.95,366.69L792.05,361.25L817.6,357.72L843.15,353.4L868.7,347.98L894.25,341.13L919.8,332.14L945.35,320.52L970.9,306.78L996.45,294.07L1022,321.7" style="vector-effect: none; fill: none; stroke: rgb(92, 184, 92); stroke-opacity: 1; stroke-width: 2px; opacity: 1;"/></g><g class="points"/><g class="text"/></g><g class="trace scatter trace4c8779" style="stroke-miterlimit: 2; opacity: 1;"><g class="fills"/><g class="errorbars"/><g class="lines"><path class="js-line" d="M332.15,385L562.1,384.47L587.65,384.17L613.2,383.65L638.75,380.97L689.85,381.9L715.4,381.18L766.5,378.78L792.05,376.96L843.15,371.51L868.7,367.07L894.25,360.31L919.8,351.23L945.35,337.32L970.9,314.66L996.45,256.23L1022,52.82" style="vector-effect: none; fill: none; stroke: rgb(92, 184, 92); stroke-opacity: 1; stroke-width: 2px; opacity: 1;"/></g><g class="points"/><g class="text"/></g><g class="trace scatter trace7a9c46" style="stroke-miterlimit: 2; opacity: 1;"><g class="fills"/><g class="errorbars"/><g class="lines"><path class="js-line" d="M281.05,385L357.7,384.61L383.25,384.03L562.1,379.97L587.65,378.9L664.3,374.35L689.85,374.05L740.95,370.01L766.5,367.28L792.05,363.83L817.6,359.53L843.15,353.82L868.7,346.16L894.25,335.76L919.8,322.07L945.35,304.58L970.9,284.7L996.45,268.47L1022,307.77" style="vector-effect: none; fill: none; stroke: rgb(92, 184, 92); stroke-opacity: 1; stroke-width: 2px; opacity: 1;"/></g><g class="points"/><g class="text"/></g><g class="trace scatter tracee04eff" style="stroke-miterlimit: 2; opacity: 1;"><g class="fills"/><g class="errorbars"/><g class="lines"><path class="js-line" d="M357.7,385L587.65,384.32L613.2,383.8L638.75,379.6L664.3,379.49L689.85,382.16L715.4,381.69L766.5,379.54L792.05,377.97L843.15,373.41L868.7,369.95L894.25,365.01L919.8,357.52L945.35,344.85L970.9,320.13L996.45,252.81L1022,19.25" style="vector-effect: none; fill: none; stroke: rgb(92, 184, 92); stroke-opacity: 1; stroke-width: 2px; opacity: 1;"/></g><g class="points"/><g class="text"/></g><g class="trace scatter traceccabc6" style="stroke-miterlimit: 2; opacity: 1;"><g class="fills"/><g class="errorbars"/><g class="lines"><path class="js-line" d="M281.05,385L357.7,384.57L383.25,384.04L536.55,380.24L562.1,379.25L613.2,376.59L638.75,373.74L664.3,370.72L689.85,373.05L740.95,369.61L766.5,367.15L817.6,360.43L843.15,355.8L868.7,349.71L894.25,341.84L919.8,330.93L945.35,315.5L970.9,293.64L996.45,265.17L1022,274.54" style="vector-effect: none; fill: none; stroke: rgb(92, 184, 92); stroke-opacity: 1; stroke-width: 2px; opacity: 1;"/></g><g class="points"/><g class="text"/></g><g class="trace scatter tracecf516a" style="stroke-miterlimit: 2; opacity: 1;"><g class="fills"/><g class="errorbars"/><g class="lines"><path class="js-line" d="M357.7,385L587.65,384.39L613.2,384L664.3,382.34L689.85,382.16L766.5,378.9L792.05,377.29L843.15,372.52L868.7,368.75L894.25,363.12L919.8,354.85L945.35,341.41L970.9,317.78L996.45,254.36L1022,49.5" style="vector-effect: none; fill: none; stroke: rgb(92, 184, 92); stroke-opacity: 1; stroke-width: 2px; opacity: 1;"/></g><g class="points"/><g class="text"/></g><g class="trace scatter trace238145" style="stroke-miterlimit: 2; opacity: 1;"><g class="fills"/><g class="errorbars"/><g class="lines"><path class="js-line" d="M281.05,385L357.7,384.68L383.25,384.2L562.1,379.11L587.65,378.11L638.75,375.51L664.3,373.76L689.85,372.87L715.4,371.19L766.5,366.75L792.05,363.83L817.6,360.29L843.15,355.76L868.7,349.86L894.25,342.12L919.8,331.32L945.35,316.34L970.9,295.66L996.45,269.75L1022,287.01" style="vector-effect: none; fill: none; stroke: rgb(92, 184, 92); stroke-opacity: 1; stroke-width: 2px; opacity: 1;"/></g><g class="points"/><g class="text"/></g><g class="trace scatter trace027b5f" style="stroke-miterlimit: 2; opacity: 1;"><g class="fills"/><g class="errorbars"/><g class="lines"><path class="js-line" d="M357.7,385L562.1,384.47L587.65,384.09L613.2,383.26L638.75,372.34L664.3,363.37L689.85,379.81L715.4,381.17L740.95,380.6L792.05,378.15L817.6,376.31L843.15,373.84L868.7,370.47L894.25,365.43L919.8,358.06L945.35,345.97L970.9,323.9L996.45,264.29L1022,55.41" style="vector-effect: none; fill: none; stroke: rgb(92, 184, 92); stroke-opacity: 1; stroke-width: 2px; opacity: 1;"/></g><g class="points"/><g class="text"/></g><g class="trace scatter tracecce6b6" style="stroke-miterlimit: 2; opacity: 1;"><g class="fills"/><g class="errorbars"/><g class="lines"><path class="js-line" d="M281.05,385L357.7,384.31L383.25,383.52L536.55,378.04L562.1,376.78L613.2,373.05L638.75,367.3L664.3,348.34L689.85,367.24L715.4,368.6L740.95,366.55L792.05,361.27L817.6,357.72L843.15,353.39L868.7,347.84L894.25,340.86L919.8,331.91L945.35,320.81L970.9,308.59L996.45,298.42L1022,321.25" style="vector-effect: none; fill: none; stroke: rgb(92, 184, 92); stroke-opacity: 1; stroke-width: 2px; opacity: 1;"/></g><g class="points"/><g class="text"/></g><g class="trace scatter traceb75354" style="stroke-miterlimit: 2; opacity: 1;"><g class="fills"/><g class="errorbars"/><g class="lines"><path class="js-line" d="M332.15,385L536.55,384.48L562.1,384.14L613.2,382.66L638.75,374.96L664.3,376.78L689.85,380.98L740.95,379.27L766.5,377.67L817.6,373.04L843.15,369.77L868.7,365.11L894.25,357.24L919.8,347.26L945.35,332.34L970.9,310.98L996.45,263.04L1022,105.95" style="vector-effect: none; fill: none; stroke: rgb(92, 184, 92); stroke-opacity: 1; stroke-width: 2px; opacity: 1;"/></g><g class="points"/><g class="text"/></g><g class="trace scatter tracea1b42a" style="stroke-miterlimit: 2; opacity: 1;"><g class="fills"/><g class="errorbars"/><g class="lines"><path class="js-line" d="M255.5,385L357.7,384.44L383.25,383.94L511,381.12L536.55,380.1L587.65,377.53L613.2,375.35L638.75,370.04L664.3,370L689.85,372.82L715.4,370.84L766.5,364.89L792.05,360.64L817.6,355.7L843.15,349.18L868.7,340.55L894.25,329.35L945.35,303.32L970.9,294.24L996.45,297.74L1022,343.42" style="vector-effect: none; fill: none; stroke: rgb(92, 184, 92); stroke-opacity: 1; stroke-width: 2px; opacity: 1;"/></g><g class="points"/><g class="text"/></g><g class="trace scatter trace542122" style="stroke-miterlimit: 2; opacity: 1;"><g class="fills"/><g class="errorbars"/><g class="lines"><path class="js-line" d="M357.7,385L562.1,384.44L587.65,384.01L613.2,382.95L638.75,372.06L664.3,374.32L689.85,381.64L740.95,381.3L766.5,380.33L817.6,377.43L843.15,375.18L868.7,372.11L894.25,367.61L919.8,361.07L945.35,350.31L970.9,330.85L996.45,278.17L1022,88.15" style="vector-effect: none; fill: none; stroke: rgb(92, 184, 92); stroke-opacity: 1; stroke-width: 2px; opacity: 1;"/></g><g class="points"/><g class="text"/></g><g class="trace scatter trace35da81" style="stroke-miterlimit: 2; opacity: 1;"><g class="fills"/><g class="errorbars"/><g class="lines"><path class="js-line" d="M255.5,385L357.7,384.6L383.25,384.08L536.55,380.22L562.1,379.14L587.65,377.8L613.2,375.56L638.75,369.09L664.3,366.58L689.85,374.28L715.4,373.3L766.5,369.57L792.05,366.98L817.6,363.91L843.15,359.92L868.7,354.8L894.25,348.09L919.8,338.92L945.35,326.48L970.9,310.05L996.45,291.28L1022,304.05" style="vector-effect: none; fill: none; stroke: rgb(92, 184, 92); stroke-opacity: 1; stroke-width: 2px; opacity: 1;"/></g><g class="points"/><g class="text"/></g><g class="trace scatter traceb11060" style="stroke-miterlimit: 2; opacity: 1;"><g class="fills"/><g class="errorbars"/><g class="lines"><path class="js-line" d="M357.7,385L613.2,384.34L638.75,383.7L740.95,381.4L766.5,380.29L817.6,377.12L843.15,374.84L868.7,371.84L894.25,367.6L919.8,361.15L945.35,350.15L970.9,328.62L996.45,269.94L1022,68.2" style="vector-effect: none; fill: none; stroke: rgb(92, 184, 92); stroke-opacity: 1; stroke-width: 2px; opacity: 1;"/></g><g class="points"/><g class="text"/></g><g class="trace scatter tracee4f26e" style="stroke-miterlimit: 2; opacity: 1;"><g class="fills"/><g class="errorbars"/><g class="lines"><path class="js-line" d="M255.5,385L357.7,384.33L383.25,383.49L613.2,375.54L638.75,374.1L715.4,369.81L740.95,367.85L792.05,362.85L817.6,359.6L843.15,355.6L868.7,350.62L894.25,344.28L919.8,336.13L945.35,325.65L970.9,313.13L996.45,301.22L1022,322.94" style="vector-effect: none; fill: none; stroke: rgb(92, 184, 92); stroke-opacity: 1; stroke-width: 2px; opacity: 1;"/></g><g class="points"/><g class="text"/></g><g class="trace scatter trace143b94" style="stroke-miterlimit: 2; opacity: 1;"><g class="fills"/><g class="errorbars"/><g class="lines"><path class="js-line" d="M357.7,385L613.2,384.34L638.75,383.65L715.4,382.42L740.95,381.62L792.05,379.26L817.6,377.57L843.15,375.47L868.7,372.58L894.25,368.42L919.8,362.25L945.35,351.89L970.9,331.99L996.45,277.54L1022,98.85" style="vector-effect: none; fill: none; stroke: rgb(92, 184, 92); stroke-opacity: 1; stroke-width: 2px; opacity: 1;"/></g><g class="points"/><g class="text"/></g><g class="trace scatter tracee3b1d7" style="stroke-miterlimit: 2; opacity: 1;"><g class="fills"/><g class="errorbars"/><g class="lines"><path class="js-line" d="M281.05,385L357.7,384.5L383.25,383.83L613.2,377.25L638.75,375.93L715.4,371.96L740.95,370.1L792.05,365.13L817.6,361.81L843.15,357.71L868.7,352.51L894.25,345.75L919.8,337.09L945.35,326.21L970.9,314.05L996.45,304.24L1022,331.81" style="vector-effect: none; fill: none; stroke: rgb(92, 184, 92); stroke-opacity: 1; stroke-width: 2px; opacity: 1;"/></g><g class="points"/><g class="text"/></g><g class="trace scatter trace1298de" style="stroke-miterlimit: 2; opacity: 1;"><g class="fills"/><g class="errorbars"/><g class="lines"><path class="js-line" d="M357.7,385L587.65,384.4L613.2,384.04L664.3,382.38L689.85,382.38L766.5,379.56L792.05,378.14L843.15,374L868.7,370.73L894.25,366.08L919.8,359.05L945.35,347.36L970.9,325.59L996.45,266.59L1022,69.55" style="vector-effect: none; fill: none; stroke: rgb(92, 184, 92); stroke-opacity: 1; stroke-width: 2px; opacity: 1;"/></g><g class="points"/><g class="text"/></g><g class="trace scatter trace89133b" style="stroke-miterlimit: 2; opacity: 1;"><g class="fills"/><g class="errorbars"/><g class="lines"><path class="js-line" d="M281.05,385L357.7,384.66L383.25,384.19L536.55,380.26L562.1,379.35L638.75,375.75L664.3,374.08L689.85,373.42L715.4,371.81L766.5,367.61L792.05,364.85L817.6,361.49L843.15,357.32L868.7,351.98L894.25,344.85L919.8,335.23L945.35,321.8L970.9,304.01L996.45,283.04L1022,302.6" style="vector-effect: none; fill: none; stroke: rgb(92, 184, 92); stroke-opacity: 1; stroke-width: 2px; opacity: 1;"/></g><g class="points"/><g class="text"/></g><g class="trace scatter trace978acc" style="stroke-miterlimit: 2; opacity: 1;"><g class="fills"/><g class="errorbars"/><g class="lines"><path class="js-line" d="M332.15,385L587.65,384.33L613.2,383.74L638.75,376.31L664.3,372.86L689.85,381.74L715.4,382.21L766.5,380.77L792.05,379.64L843.15,376.27L868.7,373.69L894.25,369.99L919.8,364.39L945.35,354.96L970.9,336.79L996.45,287.69L1022,116.93" style="vector-effect: none; fill: none; stroke: rgb(92, 184, 92); stroke-opacity: 1; stroke-width: 2px; opacity: 1;"/></g><g class="points"/><g class="text"/></g><g class="trace scatter trace1aea25" style="stroke-miterlimit: 2; opacity: 1;"><g class="fills"/><g class="errorbars"/><g class="lines"><path class="js-line" d="M281.05,385L357.7,384.51L383.25,384.02L536.55,381.25L562.1,380.44L613.2,378.24L638.75,374.83L664.3,363.65L689.85,373.94L715.4,374.97L740.95,373.5L792.05,369.57L817.6,366.89L843.15,363.41L868.7,359.11L894.25,353.23L919.8,345.26L945.35,333.79L970.9,317.88L996.45,297.64L1022,304.87" style="vector-effect: none; fill: none; stroke: rgb(92, 184, 92); stroke-opacity: 1; stroke-width: 2px; opacity: 1;"/></g><g class="points"/><g class="text"/></g><g class="trace scatter tracebe424c" style="stroke-miterlimit: 2; opacity: 1;"><g class="fills"/><g class="errorbars"/><g class="lines"><path class="js-line" d="M332.15,385L587.65,384.46L613.2,384.18L664.3,382.75L689.85,382.89L766.5,380.48L792.05,379.16L843.15,375.21L868.7,371.99L894.25,367.03L919.8,360L945.35,348.82L970.9,329.79L996.45,278.87L1022,73.66" style="vector-effect: none; fill: none; stroke: rgb(92, 184, 92); stroke-opacity: 1; stroke-width: 2px; opacity: 1;"/></g><g class="points"/><g class="text"/></g><g class="trace scatter trace655281" style="stroke-miterlimit: 2; opacity: 1;"><g class="fills"/><g class="errorbars"/><g class="lines"><path class="js-line" d="M281.05,385L357.7,384.61L383.25,384.19L536.55,380.66L562.1,379.83L638.75,376.4L664.3,374.92L689.85,374.29L715.4,372.76L766.5,368.72L792.05,365.95L817.6,362.54L843.15,358.16L868.7,352.39L894.25,344.78L919.8,334.48L945.35,321.39L970.9,306.29L996.45,292.4L1022,312.45" style="vector-effect: none; fill: none; stroke: rgb(92, 184, 92); stroke-opacity: 1; stroke-width: 2px; opacity: 1;"/></g><g class="points"/><g class="text"/></g><g class="trace scatter tracef6e47e" style="stroke-miterlimit: 2; opacity: 1;"><g class="fills"/><g class="errorbars"/><g class="lines"><path class="js-line" d="M332.15,385L587.65,384.4L613.2,384.05L638.75,381.95L664.3,381.77L689.85,382.72L715.4,382.23L766.5,380.37L792.05,379.01L843.15,374.91L868.7,371.6L894.25,366.55L919.8,359.43L945.35,347.81L970.9,327.79L996.45,275.32L1022,73.52" style="vector-effect: none; fill: none; stroke: rgb(92, 184, 92); stroke-opacity: 1; stroke-width: 2px; opacity: 1;"/></g><g class="points"/><g class="text"/></g><g class="trace scatter trace44574a" style="stroke-miterlimit: 2; opacity: 1;"><g class="fills"/><g class="errorbars"/><g class="lines"><path class="js-line" d="M255.5,385L357.7,384.45L383.25,383.94L536.55,380.32L562.1,379.4L613.2,377.04L638.75,374.97L664.3,373.89L689.85,373.7L740.95,370.24L766.5,367.88L817.6,361.46L843.15,356.86L868.7,350.88L894.25,342.93L919.8,332.6L945.35,319.5L970.9,304.99L996.45,293.19L1022,320.89" style="vector-effect: none; fill: none; stroke: rgb(92, 184, 92); stroke-opacity: 1; stroke-width: 2px; opacity: 1;"/></g><g class="points"/><g class="text"/></g></g></g></g><g class="zerolinelayer-above"/><path class="xlines-above crisp" d="M0,0" style="fill: none;"/><path class="ylines-above crisp" d="M0,0" style="fill: none;"/><g class="overlines-above"/><g class="xaxislayer-above"><g class="xtick"><text text-anchor="middle" x="0" y="451" transform="translate(60,0)" style="font-family: 'Lucida Grande', 'Open Sans', verdana, arial, sans-serif; font-size: 10px; fill: rgb(0, 0, 0); fill-opacity: 1; white-space: pre;">0</text></g><g class="xtick"><text text-anchor="middle" x="0" y="451" style="font-family: 'Lucida Grande', 'Open Sans', verdana, arial, sans-serif; font-size: 10px; fill: rgb(0, 0, 0); fill-opacity: 1; white-space: pre;" transform="translate(187.75,0)">5</text></g><g class="xtick"><text text-anchor="middle" x="0" y="451" style="font-family: 'Lucida Grande', 'Open Sans', verdana, arial, sans-serif; font-size: 10px; fill: rgb(0, 0, 0); fill-opacity: 1; white-space: pre;" transform="translate(315.5,0)">10</text></g><g class="xtick"><text text-anchor="middle" x="0" y="451" style="font-family: 'Lucida Grande', 'Open Sans', verdana, arial, sans-serif; font-size: 10px; fill: rgb(0, 0, 0); fill-opacity: 1; white-space: pre;" transform="translate(443.25,0)">15</text></g><g class="xtick"><text text-anchor="middle" x="0" y="451" style="font-family: 'Lucida Grande', 'Open Sans', verdana, arial, sans-serif; font-size: 10px; fill: rgb(0, 0, 0); fill-opacity: 1; white-space: pre;" transform="translate(571,0)">20</text></g><g class="xtick"><text text-anchor="middle" x="0" y="451" style="font-family: 'Lucida Grande', 'Open Sans', verdana, arial, sans-serif; font-size: 10px; fill: rgb(0, 0, 0); fill-opacity: 1; white-space: pre;" transform="translate(698.75,0)">25</text></g><g class="xtick"><text text-anchor="middle" x="0" y="451" style="font-family: 'Lucida Grande', 'Open Sans', verdana, arial, sans-serif; font-size: 10px; fill: rgb(0, 0, 0); fill-opacity: 1; white-space: pre;" transform="translate(826.5,0)">30</text></g><g class="xtick"><text text-anchor="middle" x="0" y="451" style="font-family: 'Lucida Grande', 'Open Sans', verdana, arial, sans-serif; font-size: 10px; fill: rgb(0, 0, 0); fill-opacity: 1; white-space: pre;" transform="translate(954.25,0)">35</text></g><g class="xtick"><text text-anchor="middle" x="0" y="451" style="font-family: 'Lucida Grande', 'Open Sans', verdana, arial, sans-serif; font-size: 10px; fill: rgb(0, 0, 0); fill-opacity: 1; white-space: pre;" transform="translate(1082,0)">40</text></g></g><g class="yaxislayer-above"><g class="ytick"><text text-anchor="end" x="54" y="3.5" transform="translate(0,435)" style="font-family: 'Lucida Grande', 'Open Sans', verdana, arial, sans-serif; font-size: 10px; fill: rgb(0, 0, 0); fill-opacity: 1; white-space: pre;">0</text></g><g class="ytick"><text text-anchor="end" x="54" y="3.5" style="font-family: 'Lucida Grande', 'Open Sans', verdana, arial, sans-serif; font-size: 10px; fill: rgb(0, 0, 0); fill-opacity: 1; white-space: pre;" transform="translate(0,381.92)">2M</text></g><g class="ytick"><text text-anchor="end" x="54" y="3.5" style="font-family: 'Lucida Grande', 'Open Sans', verdana, arial, sans-serif; font-size: 10px; fill: rgb(0, 0, 0); fill-opacity: 1; white-space: pre;" transform="translate(0,328.84)">4M</text></g><g class="ytick"><text text-anchor="end" x="54" y="3.5" style="font-family: 'Lucida Grande', 'Open Sans', verdana, arial, sans-serif; font-size: 10px; fill: rgb(0, 0, 0); fill-opacity: 1; white-space: pre;" transform="translate(0,275.76)">6M</text></g><g class="ytick"><text text-anchor="end" x="54" y="3.5" style="font-family: 'Lucida Grande', 'Open Sans', verdana, arial, sans-serif; font-size: 10px; fill: rgb(0, 0, 0); fill-opacity: 1; white-space: pre;" transform="translate(0,222.69)">8M</text></g><g class="ytick"><text text-anchor="end" x="54" y="3.5" style="font-family: 'Lucida Grande', 'Open Sans', verdana, arial, sans-serif; font-size: 10px; fill: rgb(0, 0, 0); fill-opacity: 1; white-space: pre;" transform="translate(0,169.61)">10M</text></g><g class="ytick"><text text-anchor="end" x="54" y="3.5" style="font-family: 'Lucida Grande', 'Open Sans', verdana, arial, sans-serif; font-size: 10px; fill: rgb(0, 0, 0); fill-opacity: 1; white-space: pre;" transform="translate(0,116.53)">12M</text></g><g class="ytick"><text text-anchor="end" x="54" y="3.5" style="font-family: 'Lucida Grande', 'Open Sans', verdana, arial, sans-serif; font-size: 10px; fill: rgb(0, 0, 0); fill-opacity: 1; white-space: pre;" transform="translate(0,63.45)">14M</text></g></g><g class="overaxes-above"/></g></g><g class="polarlayer"/><g class="smithlayer"/><g class="ternarylayer"/><g class="geolayer"/><g class="funnelarealayer"/><g class="pielayer"/><g class="iciclelayer"/><g class="treemaplayer"/><g class="sunburstlayer"/><g class="glimages"/><defs id="topdefs-1ecd40"><g class="clips"/></defs><g class="layer-above"><g class="imagelayer"/><g class="shapelayer"/></g><g class="infolayer"><g class="g-gtitle"><text class="gtitle" x="550" y="25" text-anchor="middle" dy="0em" style="opacity: 1; font-family: 'Lucida Grande', 'Open Sans', verdana, arial, sans-serif; font-size: 20px; fill: rgb(68, 68, 68); fill-opacity: 1; white-space: pre;"><tspan class="line" dy="0em" x="550" y="25">FastQC: Per Sequence Quality Scores</tspan><tspan class="line" dy="1.3em" x="550" y="25">​<tspan style="font-size:70%" dy="-0.6em">32 lines</tspan><tspan dy="0.42em">​</tspan></tspan></text></g><g class="g-xtitle"><text class="xtitle" x="571" y="487" text-anchor="middle" style="opacity: 0.3; font-family: 'Lucida Grande', 'Open Sans', verdana, arial, sans-serif; font-size: 14px; fill: rgb(0, 0, 0); fill-opacity: 1; white-space: pre;">Mean Sequence Quality (Phred Score)</text></g><g class="g-ytitle"><text class="ytitle" transform="rotate(-90,22,242.5)" x="22" y="242.5" text-anchor="middle" style="opacity: 0.3; font-family: 'Lucida Grande', 'Open Sans', verdana, arial, sans-serif; font-size: 14px; fill: rgb(0, 0, 0); fill-opacity: 1; white-space: pre;">Count</text></g></g></svg>