<svg class="main-svg" xmlns="http://www.w3.org/2000/svg" xmlns:xlink="http://www.w3.org/1999/xlink" width="2200" height="1000" style="" viewBox="0 0 1100 500"><rect x="0" y="0" width="1100" height="500" style="fill: rgb(255, 255, 255); fill-opacity: 1;"/><defs id="defs-c1f0d2"><g class="clips"><clipPath id="clipc1f0d2xyplot" class="plotclip"><rect width="1025" height="385"/></clipPath><clipPath class="axesclip" id="clipc1f0d2x"><rect x="60" y="0" width="1025" height="500"/></clipPath><clipPath class="axesclip" id="clipc1f0d2y"><rect x="0" y="50" width="1100" height="385"/></clipPath><clipPath class="axesclip" id="clipc1f0d2xy"><rect x="60" y="50" width="1025" height="385"/></clipPath></g><g class="gradients"/><g class="patterns"/></defs><g class="bglayer"/><g class="layer-below"><g class="imagelayer"/><g class="shapelayer"/></g><g class="cartesianlayer"><g class="subplot xy"><g class="layer-subplot"><g class="shapelayer"/><g class="imagelayer"/></g><g class="minor-gridlayer"><g class="x"/><g class="y"/></g><g class="gridlayer"><g class="x"><path class="xgrid crisp" transform="translate(217.69,0)" d="M0,50v385" style="stroke: rgb(0, 0, 0); stroke-opacity: 0.05; stroke-width: 1px;"/><path class="xgrid crisp" transform="translate(375.38,0)" d="M0,50v385" style="stroke: rgb(0, 0, 0); stroke-opacity: 0.05; stroke-width: 1px;"/><path class="xgrid crisp" transform="translate(533.0799999999999,0)" d="M0,50v385" style="stroke: rgb(0, 0, 0); stroke-opacity: 0.05; stroke-width: 1px;"/><path class="xgrid crisp" transform="translate(690.77,0)" d="M0,50v385" style="stroke: rgb(0, 0, 0); stroke-opacity: 0.05; stroke-width: 1px;"/><path class="xgrid crisp" transform="translate(848.46,0)" d="M0,50v385" style="stroke: rgb(0, 0, 0); stroke-opacity: 0.05; stroke-width: 1px;"/><path class="xgrid crisp" transform="translate(1006.15,0)" d="M0,50v385" style="stroke: rgb(0, 0, 0); stroke-opacity: 0.05; stroke-width: 1px;"/></g><g class="y"><path class="ygrid crisp" transform="translate(0,374.98)" d="M60,0h1025" style="stroke: rgb(0, 0, 0); stroke-opacity: 0.05; stroke-width: 1px;"/><path class="ygrid crisp" transform="translate(0,314.96)" d="M60,0h1025" style="stroke: rgb(0, 0, 0); stroke-opacity: 0.05; stroke-width: 1px;"/><path class="ygrid crisp" transform="translate(0,254.94)" d="M60,0h1025" style="stroke: rgb(0, 0, 0); stroke-opacity: 0.05; stroke-width: 1px;"/><path class="ygrid crisp" transform="translate(0,194.92)" d="M60,0h1025" style="stroke: rgb(0, 0, 0); stroke-opacity: 0.05; stroke-width: 1px;"/><path class="ygrid crisp" transform="translate(0,134.9)" d="M60,0h1025" style="stroke: rgb(0, 0, 0); stroke-opacity: 0.05; stroke-width: 1px;"/><path class="ygrid crisp" transform="translate(0,74.89)" d="M60,0h1025" style="stroke: rgb(0, 0, 0); stroke-opacity: 0.05; stroke-width: 1px;"/></g></g><g class="zerolinelayer"><path class="yzl zl crisp" transform="translate(0,435)" d="M60,0h1025" style="stroke: rgb(0, 0, 0); stroke-opacity: 0.05; stroke-width: 1px;"/></g><g class="layer-between"><g class="shapelayer"/><g class="imagelayer"/></g><path class="xlines-below"/><path class="ylines-below"/><g class="overlines-below"/><g class="xaxislayer-below"/><g class="yaxislayer-below"/><g class="overaxes-below"/><g class="overplot"><g class="xy" transform="translate(60,50)" clip-path="url(#clipc1f0d2xyplot)"><g class="scatterlayer mlayer"><g class="trace scatter trace31a793" style="stroke-miterlimit: 2; opacity: 1;"><g class="fills"/><g class="errorbars"/><g class="lines"><path class="js-line" d="M0,384.99L315.38,384.45L354.81,382.67L433.65,382.12L473.08,380.27L512.5,377.77L551.92,373.78L670.19,361.18L709.62,358.12L749.04,353.55L788.46,354.3L827.88,353.55L867.31,354.7L906.73,355.06L946.15,357.03L985.58,226.9L1025,155.45" style="vector-effect: none; fill: none; stroke: rgb(240, 173, 78); stroke-opacity: 1; stroke-width: 2px; opacity: 1;"/></g><g class="points"/><g class="text"/></g><g class="trace scatter trace7fe933" style="stroke-miterlimit: 2; opacity: 1;"><g class="fills"/><g class="errorbars"/><g class="lines"><path class="js-line" d="M0,384.49L275.96,384.24L315.38,383.98L354.81,383.57L394.23,380.87L433.65,381.53L473.08,379.66L512.5,377.01L551.92,372.84L670.19,359.9L709.62,356.87L749.04,352.35L788.46,353.1L827.88,352.38L867.31,353.39L946.15,352.88L985.58,214.45L1025,191.68" style="vector-effect: none; fill: none; stroke: rgb(240, 173, 78); stroke-opacity: 1; stroke-width: 2px; opacity: 1;"/></g><g class="points"/><g class="text"/></g><g class="trace scatter tracee117aa" style="stroke-miterlimit: 2; opacity: 1;"><g class="fills"/><g class="errorbars"/><g class="lines"><path class="js-line" d="M0,384.91L157.69,383.78L197.12,382.83L275.96,378.05L315.38,372.52L354.81,330.76L394.23,343.39L433.65,355.22L473.08,351.96L512.5,351.66L551.92,344.9L630.77,347.15L670.19,350.21L749.04,357.39L788.46,359.14L827.88,360.29L867.31,362.99L946.15,367.91L985.58,280.17L1025,230.66" style="vector-effect: none; fill: none; stroke: rgb(240, 173, 78); stroke-opacity: 1; stroke-width: 2px; opacity: 1;"/></g><g class="points"/><g class="text"/></g><g class="trace scatter tracec21b5d" style="stroke-miterlimit: 2; opacity: 1;"><g class="fills"/><g class="errorbars"/><g class="lines"><path class="js-line" d="M0,384.39L157.69,383.25L197.12,382.32L275.96,377.43L315.38,372.01L354.81,365.7L394.23,311.12L433.65,348.99L473.08,351.47L512.5,351.11L551.92,344.42L630.77,346.39L670.19,349.49L749.04,356.62L788.46,358.47L827.88,359.84L867.31,362.41L906.73,364.02L946.15,364.24L985.58,273.61L1025,257.66" style="vector-effect: none; fill: none; stroke: rgb(240, 173, 78); stroke-opacity: 1; stroke-width: 2px; opacity: 1;"/></g><g class="points"/><g class="text"/></g><g class="trace scatter trace1bc9d6" style="stroke-miterlimit: 2; opacity: 1;"><g class="fills"/><g class="errorbars"/><g class="lines"><path class="js-line" d="M0,384.93L157.69,384.29L197.12,383.65L275.96,380.95L315.38,378.51L354.81,362.33L394.23,366.68L433.65,372.17L473.08,370.76L551.92,367.3L591.35,367.01L709.62,364.74L749.04,364.76L906.73,363.61L946.15,365.32L985.58,236.4L1025,121.14" style="vector-effect: none; fill: none; stroke: rgb(240, 173, 78); stroke-opacity: 1; stroke-width: 2px; opacity: 1;"/></g><g class="points"/><g class="text"/></g><g class="trace scatter tracedb2c64" style="stroke-miterlimit: 2; opacity: 1;"><g class="fills"/><g class="errorbars"/><g class="lines"><path class="js-line" d="M0,384.1L157.69,383.38L197.12,382.75L275.96,380.03L315.38,377.62L354.81,375.45L394.23,352.95L433.65,368.94L473.08,369.52L551.92,365.41L591.35,364.68L709.62,361.76L749.04,361.89L867.31,361.31L906.73,359.27L946.15,357.56L985.58,229.14L1025,179.43" style="vector-effect: none; fill: none; stroke: rgb(240, 173, 78); stroke-opacity: 1; stroke-width: 2px; opacity: 1;"/></g><g class="points"/><g class="text"/></g><g class="trace scatter trace47f964" style="stroke-miterlimit: 2; opacity: 1;"><g class="fills"/><g class="errorbars"/><g class="lines"><path class="js-line" d="M0,384.98L236.54,384.32L275.96,383.77L354.81,380.57L394.23,379.1L591.35,371.63L630.77,371.13L749.04,367.93L788.46,367.89L946.15,364.75L985.58,185.32L1025,63.44" style="vector-effect: none; fill: none; stroke: rgb(240, 173, 78); stroke-opacity: 1; stroke-width: 2px; opacity: 1;"/></g><g class="points"/><g class="text"/></g><g class="trace scatter tracedaa4b1" style="stroke-miterlimit: 2; opacity: 1;"><g class="fills"/><g class="errorbars"/><g class="lines"><path class="js-line" d="M0,384.36L236.54,383.47L275.96,382.9L354.81,380.17L394.23,377.78L433.65,376.83L473.08,375.01L591.35,369.29L630.77,368.46L749.04,364.82L788.46,364.7L867.31,362.79L906.73,360.26L946.15,354.93L985.58,167.52L1025,135.33" style="vector-effect: none; fill: none; stroke: rgb(240, 173, 78); stroke-opacity: 1; stroke-width: 2px; opacity: 1;"/></g><g class="points"/><g class="text"/></g><g class="trace scatter traceef5f48" style="stroke-miterlimit: 2; opacity: 1;"><g class="fills"/><g class="errorbars"/><g class="lines"><path class="js-line" d="M0,384.87L118.27,384.1L157.69,383.16L197.12,381.67L236.54,378.29L275.96,374.47L315.38,368.05L354.81,359.37L394.23,355.94L473.08,350.67L512.5,350.85L551.92,347.25L591.35,348.06L630.77,348.52L670.19,351.27L788.46,356.76L827.88,357.36L906.73,360.48L946.15,363.03L985.58,268.64L1025,225.68" style="vector-effect: none; fill: none; stroke: rgb(240, 173, 78); stroke-opacity: 1; stroke-width: 2px; opacity: 1;"/></g><g class="points"/><g class="text"/></g><g class="trace scatter tracec22ad8" style="stroke-miterlimit: 2; opacity: 1;"><g class="fills"/><g class="errorbars"/><g class="lines"><path class="js-line" d="M0,384.46L118.27,383.67L157.69,382.72L197.12,381.23L236.54,377.85L275.96,374.05L315.38,367.7L354.81,361.79L394.23,353.41L433.65,353L473.08,350.5L512.5,350.53L551.92,346.87L630.77,347.82L670.19,350.61L788.46,356.12L827.88,356.8L867.31,358.54L906.73,359.07L946.15,359.66L985.58,260.45L1025,248.63" style="vector-effect: none; fill: none; stroke: rgb(240, 173, 78); stroke-opacity: 1; stroke-width: 2px; opacity: 1;"/></g><g class="points"/><g class="text"/></g><g class="trace scatter trace56f168" style="stroke-miterlimit: 2; opacity: 1;"><g class="fills"/><g class="errorbars"/><g class="lines"><path class="js-line" d="M0,384.97L236.54,384.32L275.96,383.85L315.38,382.72L354.81,377.35L433.65,378.44L473.08,377.21L670.19,371.05L709.62,370.25L749.04,368.23L788.46,367.75L946.15,362.08L985.58,162.69L1025,19.25" style="vector-effect: none; fill: none; stroke: rgb(240, 173, 78); stroke-opacity: 1; stroke-width: 2px; opacity: 1;"/></g><g class="points"/><g class="text"/></g><g class="trace scatter trace955e6e" style="stroke-miterlimit: 2; opacity: 1;"><g class="fills"/><g class="errorbars"/><g class="lines"><path class="js-line" d="M0,384.52L236.54,383.75L275.96,383.23L354.81,380.89L394.23,373.23L433.65,377.21L473.08,376.33L670.19,368.87L709.62,367.98L749.04,365.78L788.46,365.2L867.31,362.02L906.73,358.8L946.15,353.59L985.58,141.32L1025,83.6" style="vector-effect: none; fill: none; stroke: rgb(240, 173, 78); stroke-opacity: 1; stroke-width: 2px; opacity: 1;"/></g><g class="points"/><g class="text"/></g><g class="trace scatter trace77377e" style="stroke-miterlimit: 2; opacity: 1;"><g class="fills"/><g class="errorbars"/><g class="lines"><path class="js-line" d="M0,384.98L157.69,384.57L197.12,384.03L275.96,380.97L315.38,377.7L394.23,372.99L433.65,370.76L473.08,370.36L512.5,369.01L591.35,367.05L630.77,367.82L709.62,367.03L749.04,365.61L827.88,366.12L867.31,365.45L906.73,365.35L946.15,364.19L985.58,217.29L1025,51.9" style="vector-effect: none; fill: none; stroke: rgb(240, 173, 78); stroke-opacity: 1; stroke-width: 2px; opacity: 1;"/></g><g class="points"/><g class="text"/></g><g class="trace scatter traceb86172" style="stroke-miterlimit: 2; opacity: 1;"><g class="fills"/><g class="errorbars"/><g class="lines"><path class="js-line" d="M0,384.54L157.69,384.02L197.12,383.45L275.96,380.38L315.38,377.08L354.81,375L394.23,371.83L433.65,370.04L473.08,369.46L591.35,365.06L630.77,365.38L749.04,362.84L788.46,363.17L867.31,361.44L906.73,360.04L946.15,354.78L985.58,199.18L1025,118.27" style="vector-effect: none; fill: none; stroke: rgb(240, 173, 78); stroke-opacity: 1; stroke-width: 2px; opacity: 1;"/></g><g class="points"/><g class="text"/></g><g class="trace scatter trace87a1e3" style="stroke-miterlimit: 2; opacity: 1;"><g class="fills"/><g class="errorbars"/><g class="lines"><path class="js-line" d="M0,384.95L157.69,384.53L197.12,383.99L275.96,381.58L315.38,379.03L354.81,374.82L394.23,373.14L433.65,372.93L473.08,371.27L630.77,366.15L670.19,365.39L749.04,363.71L788.46,363.76L946.15,362.58L985.58,217.72L1025,109.9" style="vector-effect: none; fill: none; stroke: rgb(240, 173, 78); stroke-opacity: 1; stroke-width: 2px; opacity: 1;"/></g><g class="points"/><g class="text"/></g><g class="trace scatter tracef09487" style="stroke-miterlimit: 2; opacity: 1;"><g class="fills"/><g class="errorbars"/><g class="lines"><path class="js-line" d="M0,384.26L157.69,383.68L197.12,383.15L275.96,380.7L315.38,378.15L354.81,376.1L394.23,370.39L433.65,371.76L473.08,370.11L630.77,363.44L670.19,362.45L749.04,360.63L788.46,360.72L867.31,359.9L906.73,358.09L946.15,354.15L985.58,204.26L1025,175.13" style="vector-effect: none; fill: none; stroke: rgb(240, 173, 78); stroke-opacity: 1; stroke-width: 2px; opacity: 1;"/></g><g class="points"/><g class="text"/></g><g class="trace scatter trace81cb85" style="stroke-miterlimit: 2; opacity: 1;"><g class="fills"/><g class="errorbars"/><g class="lines"><path class="js-line" d="M0,384.58L118.27,382.79L157.69,381.02L197.12,379.15L236.54,373.29L275.96,367.44L315.38,356.21L354.81,335.88L394.23,335.56L473.08,328.51L512.5,334.71L551.92,329.1L591.35,335.11L630.77,337.16L670.19,347.86L709.62,354.53L749.04,360.25L788.46,364.69L827.88,366.11L906.73,372.02L946.15,373.99L985.58,334.41L1025,309.9" style="vector-effect: none; fill: none; stroke: rgb(240, 173, 78); stroke-opacity: 1; stroke-width: 2px; opacity: 1;"/></g><g class="points"/><g class="text"/></g><g class="trace scatter tracef56130" style="stroke-miterlimit: 2; opacity: 1;"><g class="fills"/><g class="errorbars"/><g class="lines"><path class="js-line" d="M0,384.18L118.27,382.37L157.69,380.59L197.12,378.73L236.54,372.86L275.96,367.11L315.38,356L354.81,345.3L394.23,326.93L433.65,331.23L473.08,329.03L512.5,334.96L551.92,329.48L591.35,335.27L630.77,337.26L670.19,348.09L709.62,354.68L749.04,360.39L788.46,364.7L827.88,366.38L867.31,369.38L906.73,371.45L946.15,372.06L985.58,326.58L1025,321.23" style="vector-effect: none; fill: none; stroke: rgb(240, 173, 78); stroke-opacity: 1; stroke-width: 2px; opacity: 1;"/></g><g class="points"/><g class="text"/></g><g class="trace scatter tracecd98b3" style="stroke-miterlimit: 2; opacity: 1;"><g class="fills"/><g class="errorbars"/><g class="lines"><path class="js-line" d="M0,384.97L197.12,383.98L236.54,382.93L275.96,381.68L315.38,379.16L354.81,364.3L394.23,368.06L433.65,372.15L473.08,370.37L512.5,369.05L551.92,366.2L630.77,363.62L670.19,362.64L788.46,360.48L827.88,360.19L867.31,360.71L906.73,360.29L946.15,361.22L985.58,248.54L1025,181.79" style="vector-effect: none; fill: none; stroke: rgb(240, 173, 78); stroke-opacity: 1; stroke-width: 2px; opacity: 1;"/></g><g class="points"/><g class="text"/></g><g class="trace scatter traceed0f21" style="stroke-miterlimit: 2; opacity: 1;"><g class="fills"/><g class="errorbars"/><g class="lines"><path class="js-line" d="M0,384.56L157.69,384.01L197.12,383.49L275.96,381.12L315.38,378.63L354.81,376.58L394.23,356.23L433.65,369.67L473.08,369.71L512.5,368.18L551.92,365.12L630.77,362.12L670.19,361.08L788.46,358.9L827.88,358.54L867.31,358.96L906.73,357.61L946.15,356.42L985.58,237.85L1025,221.48" style="vector-effect: none; fill: none; stroke: rgb(240, 173, 78); stroke-opacity: 1; stroke-width: 2px; opacity: 1;"/></g><g class="points"/><g class="text"/></g><g class="trace scatter trace5142cf" style="stroke-miterlimit: 2; opacity: 1;"><g class="fills"/><g class="errorbars"/><g class="lines"><path class="js-line" d="M0,384.98L275.96,384.43L315.38,383.93L512.5,380.09L551.92,378.63L946.15,365.61L985.58,172.73L1025,61.69" style="vector-effect: none; fill: none; stroke: rgb(240, 173, 78); stroke-opacity: 1; stroke-width: 2px; opacity: 1;"/></g><g class="points"/><g class="text"/></g><g class="trace scatter trace42d0e0" style="stroke-miterlimit: 2; opacity: 1;"><g class="fills"/><g class="errorbars"/><g class="lines"><path class="js-line" d="M0,384.29L275.96,383.52L315.38,382.99L433.65,381.06L473.08,379.79L551.92,376.75L591.35,375.15L867.31,364.72L906.73,361.54L946.15,356.03L985.58,162.35L1025,125.16" style="vector-effect: none; fill: none; stroke: rgb(240, 173, 78); stroke-opacity: 1; stroke-width: 2px; opacity: 1;"/></g><g class="points"/><g class="text"/></g><g class="trace scatter tracea81abd" style="stroke-miterlimit: 2; opacity: 1;"><g class="fills"/><g class="errorbars"/><g class="lines"><path class="js-line" d="M0,384.98L236.54,384.26L275.96,383.74L433.65,379.62L473.08,378.1L512.5,377.03L551.92,374.79L749.04,367.78L788.46,366.81L827.88,365.49L867.31,364.98L906.73,364.02L946.15,364.43L985.58,209.4L1025,134.22" style="vector-effect: none; fill: none; stroke: rgb(240, 173, 78); stroke-opacity: 1; stroke-width: 2px; opacity: 1;"/></g><g class="points"/><g class="text"/></g><g class="trace scatter traced2b656" style="stroke-miterlimit: 2; opacity: 1;"><g class="fills"/><g class="errorbars"/><g class="lines"><path class="js-line" d="M0,384.46L236.54,383.61L275.96,383.08L354.81,381.24L394.23,379.33L433.65,378.98L473.08,377.28L512.5,375.99L551.92,373.51L670.19,368.6L709.62,367.24L827.88,363.53L867.31,362.78L906.73,360.63L946.15,357.71L985.58,201.45L1025,177.67" style="vector-effect: none; fill: none; stroke: rgb(240, 173, 78); stroke-opacity: 1; stroke-width: 2px; opacity: 1;"/></g><g class="points"/><g class="text"/></g><g class="trace scatter trace6124da" style="stroke-miterlimit: 2; opacity: 1;"><g class="fills"/><g class="errorbars"/><g class="lines"><path class="js-line" d="M0,384.97L197.12,384.47L236.54,383.87L275.96,383.02L315.38,381.27L394.23,377.31L433.65,375.79L591.35,371.01L630.77,371.11L749.04,368.63L788.46,368.7L906.73,366.37L946.15,364.99L985.58,210.63L1025,68.76" style="vector-effect: none; fill: none; stroke: rgb(240, 173, 78); stroke-opacity: 1; stroke-width: 2px; opacity: 1;"/></g><g class="points"/><g class="text"/></g><g class="trace scatter trace169f7e" style="stroke-miterlimit: 2; opacity: 1;"><g class="fills"/><g class="errorbars"/><g class="lines"><path class="js-line" d="M0,384.54L197.12,383.89L236.54,383.28L275.96,382.42L315.38,380.64L354.81,379.01L394.23,376.07L512.5,372.39L551.92,370.72L591.35,369.11L630.77,368.85L749.04,366.05L788.46,365.97L867.31,363.91L906.73,361.61L946.15,356.57L985.58,194.25L1025,129.55" style="vector-effect: none; fill: none; stroke: rgb(240, 173, 78); stroke-opacity: 1; stroke-width: 2px; opacity: 1;"/></g><g class="points"/><g class="text"/></g><g class="trace scatter trace377462" style="stroke-miterlimit: 2; opacity: 1;"><g class="fills"/><g class="errorbars"/><g class="lines"><path class="js-line" d="M0,384.98L236.54,384.36L275.96,383.92L315.38,382.96L354.81,378.91L433.65,379.96L473.08,379.16L749.04,372.35L788.46,372.36L946.15,368.45L985.58,218.28L1025,120.48" style="vector-effect: none; fill: none; stroke: rgb(240, 173, 78); stroke-opacity: 1; stroke-width: 2px; opacity: 1;"/></g><g class="points"/><g class="text"/></g><g class="trace scatter traceef9472" style="stroke-miterlimit: 2; opacity: 1;"><g class="fills"/><g class="errorbars"/><g class="lines"><path class="js-line" d="M0,384.57L236.54,383.89L275.96,383.42L354.81,381.46L394.23,375.93L433.65,379L473.08,378.45L670.19,372.8L709.62,372.25L749.04,370.53L788.46,370.46L867.31,368.48L906.73,366.14L946.15,362.18L985.58,205.65L1025,165.77" style="vector-effect: none; fill: none; stroke: rgb(240, 173, 78); stroke-opacity: 1; stroke-width: 2px; opacity: 1;"/></g><g class="points"/><g class="text"/></g><g class="trace scatter traceaa80f9" style="stroke-miterlimit: 2; opacity: 1;"><g class="fills"/><g class="errorbars"/><g class="lines"><path class="js-line" d="M0,384.95L157.69,384.34L197.12,383.61L275.96,379.59L315.38,375.71L354.81,372L394.23,369.53L551.92,362.39L591.35,361.52L749.04,361.31L788.46,362.38L906.73,363.23L946.15,363.72L985.58,248.34L1025,194.84" style="vector-effect: none; fill: none; stroke: rgb(240, 173, 78); stroke-opacity: 1; stroke-width: 2px; opacity: 1;"/></g><g class="points"/><g class="text"/></g><g class="trace scatter trace6b2330" style="stroke-miterlimit: 2; opacity: 1;"><g class="fills"/><g class="errorbars"/><g class="lines"><path class="js-line" d="M0,384.54L157.69,383.8L197.12,383.06L275.96,379.01L315.38,375.14L354.81,372.21L394.23,368.3L473.08,365.21L512.5,363.48L551.92,361.37L591.35,360.3L749.04,359.83L788.46,360.91L906.73,360.64L946.15,358.56L985.58,241.61L1025,229.72" style="vector-effect: none; fill: none; stroke: rgb(240, 173, 78); stroke-opacity: 1; stroke-width: 2px; opacity: 1;"/></g><g class="points"/><g class="text"/></g><g class="trace scatter tracea7ea1e" style="stroke-miterlimit: 2; opacity: 1;"><g class="fills"/><g class="errorbars"/><g class="lines"><path class="js-line" d="M0,384.93L157.69,384.25L197.12,383.45L275.96,379.66L315.38,375.86L354.81,369.98L394.23,368.28L512.5,363.65L551.92,360.91L591.35,360.05L630.77,360.1L670.19,360.12L709.62,361.08L749.04,360.84L788.46,362.22L827.88,362.32L867.31,363.37L946.15,364.59L985.58,251.19L1025,190.2" style="vector-effect: none; fill: none; stroke: rgb(240, 173, 78); stroke-opacity: 1; stroke-width: 2px; opacity: 1;"/></g><g class="points"/><g class="text"/></g><g class="trace scatter trace8782b1" style="stroke-miterlimit: 2; opacity: 1;"><g class="fills"/><g class="errorbars"/><g class="lines"><path class="js-line" d="M0,384.44L157.69,383.69L197.12,382.88L275.96,379.07L315.38,375.27L354.81,371.74L394.23,365.56L433.65,366.02L473.08,364.41L512.5,362.79L551.92,359.86L591.35,358.78L630.77,358.65L670.19,358.63L709.62,359.58L749.04,359.34L788.46,360.76L906.73,361.35L946.15,359.32L985.58,241.38L1025,228.9" style="vector-effect: none; fill: none; stroke: rgb(240, 173, 78); stroke-opacity: 1; stroke-width: 2px; opacity: 1;"/></g><g class="points"/><g class="text"/></g></g></g></g><g class="zerolinelayer-above"/><path class="xlines-above crisp" d="M0,0" style="fill: none;"/><path class="ylines-above crisp" d="M0,0" style="fill: none;"/><g class="overlines-above"/><g class="xaxislayer-above"><g class="xtick"><text text-anchor="middle" x="0" y="451" transform="translate(60,0)" style="font-family: 'Lucida Grande', 'Open Sans', verdana, arial, sans-serif; font-size: 10px; fill: rgb(0, 0, 0); fill-opacity: 1; white-space: pre;">20 bp</text></g><g class="xtick"><text text-anchor="middle" x="0" y="451" style="font-family: 'Lucida Grande', 'Open Sans', verdana, arial, sans-serif; font-size: 10px; fill: rgb(0, 0, 0); fill-opacity: 1; white-space: pre;" transform="translate(217.69,0)">40 bp</text></g><g class="xtick"><text text-anchor="middle" x="0" y="451" style="font-family: 'Lucida Grande', 'Open Sans', verdana, arial, sans-serif; font-size: 10px; fill: rgb(0, 0, 0); fill-opacity: 1; white-space: pre;" transform="translate(375.38,0)">60 bp</text></g><g class="xtick"><text text-anchor="middle" x="0" y="451" style="font-family: 'Lucida Grande', 'Open Sans', verdana, arial, sans-serif; font-size: 10px; fill: rgb(0, 0, 0); fill-opacity: 1; white-space: pre;" transform="translate(533.0799999999999,0)">80 bp</text></g><g class="xtick"><text text-anchor="middle" x="0" y="451" style="font-family: 'Lucida Grande', 'Open Sans', verdana, arial, sans-serif; font-size: 10px; fill: rgb(0, 0, 0); fill-opacity: 1; white-space: pre;" transform="translate(690.77,0)">100 bp</text></g><g class="xtick"><text text-anchor="middle" x="0" y="451" style="font-family: 'Lucida Grande', 'Open Sans', verdana, arial, sans-serif; font-size: 10px; fill: rgb(0, 0, 0); fill-opacity: 1; white-space: pre;" transform="translate(848.46,0)">120 bp</text></g><g class="xtick"><text text-anchor="middle" x="0" y="451" style="font-family: 'Lucida Grande', 'Open Sans', verdana, arial, sans-serif; font-size: 10px; fill: rgb(0, 0, 0); fill-opacity: 1; white-space: pre;" transform="translate(1006.15,0)">140 bp</text></g></g><g class="yaxislayer-above"><g class="ytick"><text text-anchor="end" x="54" y="3.5" transform="translate(0,435)" style="font-family: 'Lucida Grande', 'Open Sans', verdana, arial, sans-serif; font-size: 10px; fill: rgb(0, 0, 0); fill-opacity: 1; white-space: pre;">0</text></g><g class="ytick"><text text-anchor="end" x="54" y="3.5" style="font-family: 'Lucida Grande', 'Open Sans', verdana, arial, sans-serif; font-size: 10px; fill: rgb(0, 0, 0); fill-opacity: 1; white-space: pre;" transform="translate(0,374.98)">2M</text></g><g class="ytick"><text text-anchor="end" x="54" y="3.5" style="font-family: 'Lucida Grande', 'Open Sans', verdana, arial, sans-serif; font-size: 10px; fill: rgb(0, 0, 0); fill-opacity: 1; white-space: pre;" transform="translate(0,314.96)">4M</text></g><g class="ytick"><text text-anchor="end" x="54" y="3.5" style="font-family: 'Lucida Grande', 'Open Sans', verdana, arial, sans-serif; font-size: 10px; fill: rgb(0, 0, 0); fill-opacity: 1; white-space: pre;" transform="translate(0,254.94)">6M</text></g><g class="ytick"><text text-anchor="end" x="54" y="3.5" style="font-family: 'Lucida Grande', 'Open Sans', verdana, arial, sans-serif; font-size: 10px; fill: rgb(0, 0, 0); fill-opacity: 1; white-space: pre;" transform="translate(0,194.92)">8M</text></g><g class="ytick"><text text-anchor="end" x="54" y="3.5" style="font-family: 'Lucida Grande', 'Open Sans', verdana, arial, sans-serif; font-size: 10px; fill: rgb(0, 0, 0); fill-opacity: 1; white-space: pre;" transform="translate(0,134.9)">10M</text></g><g class="ytick"><text text-anchor="end" x="54" y="3.5" style="font-family: 'Lucida Grande', 'Open Sans', verdana, arial, sans-serif; font-size: 10px; fill: rgb(0, 0, 0); fill-opacity: 1; white-space: pre;" transform="translate(0,74.89)">12M</text></g></g><g class="overaxes-above"/></g></g><g class="polarlayer"/><g class="smithlayer"/><g class="ternarylayer"/><g class="geolayer"/><g class="funnelarealayer"/><g class="pielayer"/><g class="iciclelayer"/><g class="treemaplayer"/><g class="sunburstlayer"/><g class="glimages"/><defs id="topdefs-c1f0d2"><g class="clips"/></defs><g class="layer-above"><g class="imagelayer"/><g class="shapelayer"/></g><g class="infolayer"><g class="g-gtitle"><text class="gtitle" x="550" y="25" text-anchor="middle" dy="0em" style="opacity: 1; font-family: 'Lucida Grande', 'Open Sans', verdana, arial, sans-serif; font-size: 20px; fill: rgb(68, 68, 68); fill-opacity: 1; white-space: pre;"><tspan class="line" dy="0em" x="550" y="25">FastQC: Sequence Length Distribution</tspan><tspan class="line" dy="1.3em" x="550" y="25">​<tspan style="font-size:70%" dy="-0.6em">32 lines</tspan><tspan dy="0.42em">​</tspan></tspan></text></g><g class="g-xtitle"><text class="xtitle" x="572.5" y="487" text-anchor="middle" style="opacity: 0.3; font-family: 'Lucida Grande', 'Open Sans', verdana, arial, sans-serif; font-size: 14px; fill: rgb(0, 0, 0); fill-opacity: 1; white-space: pre;">Sequence Length (bp)</text></g><g class="g-ytitle"><text class="ytitle" transform="rotate(-90,22,242.5)" x="22" y="242.5" text-anchor="middle" style="opacity: 0.3; font-family: 'Lucida Grande', 'Open Sans', verdana, arial, sans-serif; font-size: 14px; fill: rgb(0, 0, 0); fill-opacity: 1; white-space: pre;">Read Count</text></g></g></svg>