<svg class="main-svg" xmlns="http://www.w3.org/2000/svg" xmlns:xlink="http://www.w3.org/1999/xlink" width="2200" height="1000" style="" viewBox="0 0 1100 500"><rect x="0" y="0" width="1100" height="500" style="fill: rgb(255, 255, 255); fill-opacity: 1;"/><defs id="defs-ff5ecc"><g class="clips"><clipPath id="clipff5eccxyplot" class="plotclip"><rect width="1014" height="385"/></clipPath><clipPath class="axesclip" id="clipff5eccx"><rect x="60" y="0" width="1014" height="500"/></clipPath><clipPath class="axesclip" id="clipff5eccy"><rect x="0" y="50" width="1100" height="385"/></clipPath><clipPath class="axesclip" id="clipff5eccxy"><rect x="60" y="50" width="1014" height="385"/></clipPath></g><g class="gradients"/><g class="patterns"/></defs><g class="bglayer"/><g class="layer-below"><g class="imagelayer"/><g class="shapelayer"/></g><g class="cartesianlayer"><g class="subplot xy"><g class="layer-subplot"><g class="shapelayer"/><g class="imagelayer"/></g><g class="minor-gridlayer"><g class="x"/><g class="y"/></g><g class="gridlayer"><g class="x"><path class="xgrid crisp" transform="translate(262.8,0)" d="M0,50v385" style="stroke: rgb(0, 0, 0); stroke-opacity: 0.05; stroke-width: 1px;"/><path class="xgrid crisp" transform="translate(465.6,0)" d="M0,50v385" style="stroke: rgb(0, 0, 0); stroke-opacity: 0.05; stroke-width: 1px;"/><path class="xgrid crisp" transform="translate(668.4,0)" d="M0,50v385" style="stroke: rgb(0, 0, 0); stroke-opacity: 0.05; stroke-width: 1px;"/><path class="xgrid crisp" transform="translate(871.2,0)" d="M0,50v385" style="stroke: rgb(0, 0, 0); stroke-opacity: 0.05; stroke-width: 1px;"/></g><g class="y"><path class="ygrid crisp" transform="translate(0,376.68)" d="M60,0h1014" style="stroke: rgb(0, 0, 0); stroke-opacity: 0.05; stroke-width: 1px;"/><path class="ygrid crisp" transform="translate(0,318.35)" d="M60,0h1014" style="stroke: rgb(0, 0, 0); stroke-opacity: 0.05; stroke-width: 1px;"/><path class="ygrid crisp" transform="translate(0,260.03)" d="M60,0h1014" style="stroke: rgb(0, 0, 0); stroke-opacity: 0.05; stroke-width: 1px;"/><path class="ygrid crisp" transform="translate(0,201.71)" d="M60,0h1014" style="stroke: rgb(0, 0, 0); stroke-opacity: 0.05; stroke-width: 1px;"/><path class="ygrid crisp" transform="translate(0,143.38)" d="M60,0h1014" style="stroke: rgb(0, 0, 0); stroke-opacity: 0.05; stroke-width: 1px;"/><path class="ygrid crisp" transform="translate(0,85.06)" d="M60,0h1014" style="stroke: rgb(0, 0, 0); stroke-opacity: 0.05; stroke-width: 1px;"/></g></g><g class="zerolinelayer"><path class="xzl zl crisp" transform="translate(60,0)" d="M0,50v385" style="stroke: rgb(0, 0, 0); stroke-opacity: 0.05; stroke-width: 1px;"/><path class="yzl zl crisp" transform="translate(0,435)" d="M60,0h1014" style="stroke: rgb(0, 0, 0); stroke-opacity: 0.05; stroke-width: 1px;"/></g><g class="layer-between"><g class="shapelayer"/><g class="imagelayer"/></g><path class="xlines-below"/><path class="ylines-below"/><g class="overlines-below"/><g class="xaxislayer-below"/><g class="yaxislayer-below"/><g class="overaxes-below"/><g class="overplot"><g class="xy" transform="translate(60,50)" clip-path="url(#clipff5eccxyplot)"><g class="scatterlayer mlayer"><g class="trace scatter trace9a9d64" style="stroke-miterlimit: 2; opacity: 1;"><g class="fills"/><g class="errorbars"/><g class="lines"><path class="js-line" d="M0,384.39L40.56,384.96L50.7,384.96L192.66,384.25L202.8,383.83L223.08,382.14L233.22,380.53L243.36,378.28L253.5,375.1L263.64,369.87L273.78,362.35L294.06,347.62L304.2,335.64L314.34,322.88L324.48,311.66L334.62,297.4L344.76,280.35L354.9,264.13L365.04,250.27L375.18,237.68L385.32,227.52L405.6,209.27L415.74,198.44L425.88,192.08L436.02,189.46L446.16,171.66L456.3,161.88L466.44,167.04L476.58,164.34L486.72,158.11L496.86,161.79L507,173.07L517.14,181.64L527.28,182.6L537.42,190.44L547.56,207.66L557.7,221.16L577.98,252.71L588.12,262.31L598.26,268.03L608.4,271.92L618.54,272.18L628.68,279.29L638.82,291.83L648.96,313.86L659.1,344.17L669.24,358.06L679.38,361.38L689.52,363.76L699.66,367.6L709.8,370.52L719.94,371.06L730.08,373.18L740.22,375.85L750.36,375.48L760.5,374.15L770.64,374.06L780.78,372.54L790.92,372.4L801.06,373.5L811.2,370.66L821.34,368.26L831.48,364.9L841.62,366.65L851.76,372.6L872.04,379.58L882.18,381.88L892.32,383.86L902.46,384.71L953.16,385L963.3,385L1014,385" style="vector-effect: none; fill: none; stroke: rgb(92, 184, 92); stroke-opacity: 1; stroke-width: 2px; opacity: 1;"/></g><g class="points"/><g class="text"/></g><g class="trace scatter trace702b60" style="stroke-miterlimit: 2; opacity: 1;"><g class="fills"/><g class="errorbars"/><g class="lines"><path class="js-line" d="M0,384.66L81.12,384.89L91.26,384.88L182.52,384.06L192.66,383.68L212.94,382.16L223.08,380.83L233.22,378.81L243.36,375.9L253.5,371.33L263.64,365.05L283.92,346.53L294.06,339.45L304.2,329.06L314.34,317.2L354.9,259.1L365.04,247.32L375.18,238.19L385.32,230.09L405.6,212.82L415.74,202.14L425.88,195.33L436.02,192.58L446.16,180.03L456.3,171.5L476.58,176.63L486.72,178.61L496.86,180.45L507,183.53L527.28,199.87L537.42,204.17L557.7,225.94L567.84,235.08L588.12,259.79L598.26,269.3L618.54,274.58L628.68,283.38L638.82,290.91L648.96,306.37L659.1,334.47L669.24,350.37L679.38,356.19L689.52,359.53L709.8,367.34L719.94,368.96L740.22,372.07L750.36,372.38L760.5,371.88L770.64,373.27L790.92,373.04L801.06,374.88L811.2,374.04L821.34,369.89L831.48,362.68L841.62,362.5L851.76,369.37L861.9,372.57L872.04,375.63L882.18,380.46L892.32,383.31L902.46,384.27L943.02,384.87L953.16,384.91L1014,384.97" style="vector-effect: none; fill: none; stroke: rgb(92, 184, 92); stroke-opacity: 1; stroke-width: 2px; opacity: 1;"/></g><g class="points"/><g class="text"/></g><g class="trace scatter tracefce6ca" style="stroke-miterlimit: 2; opacity: 1;"><g class="fills"/><g class="errorbars"/><g class="lines"><path class="js-line" d="M0,379.86L20.28,384.63L30.42,384.73L202.8,384.15L212.94,383.75L233.22,382.35L243.36,381.2L253.5,379.65L263.64,377.27L294.06,366.27L304.2,360.38L324.48,346.64L334.62,337.64L375.18,296.04L385.32,287.03L436.02,242.51L446.16,228.41L456.3,214.48L466.44,204.33L486.72,181.36L496.86,178.46L507,183.67L517.14,191.92L527.28,201.25L537.42,217.99L547.56,241.4L557.7,261.07L567.84,277.34L577.98,290.82L588.12,300.35L598.26,305.12L618.54,313.45L628.68,321.8L648.96,341.34L659.1,355.78L669.24,363.82L679.38,364.32L689.52,362.27L699.66,359.27L719.94,350.37L730.08,350.75L740.22,351.1L750.36,342.65L760.5,322.58L770.64,307.69L790.92,282.85L801.06,276.73L811.2,262.66L821.34,244.21L831.48,205.37L841.62,221.94L851.76,269.74L861.9,284.17L872.04,294.74L882.18,310.69L892.32,344.65L902.46,361.95L922.74,383.48L932.88,384.66L993.72,384.96L1003.86,384.98L1014,385" style="vector-effect: none; fill: none; stroke: rgb(217, 83, 79); stroke-opacity: 1; stroke-width: 2px; opacity: 1;"/></g><g class="points"/><g class="text"/></g><g class="trace scatter tracede0ce2" style="stroke-miterlimit: 2; opacity: 1;"><g class="fills"/><g class="errorbars"/><g class="lines"><path class="js-line" d="M0,383.65L30.42,384.13L40.56,384.06L131.82,384.79L141.96,384.75L202.8,383.86L212.94,383.37L233.22,381.86L243.36,380.55L263.64,376.26L273.78,372.47L294.06,364.17L304.2,358.55L314.34,351.8L324.48,343.83L344.76,324.76L354.9,314.47L375.18,295.96L385.32,287.81L405.6,271.22L415.74,262.06L425.88,252.9L436.02,242.46L456.3,210.88L466.44,197.31L476.58,185.63L486.72,178.51L496.86,178.75L507,186.2L517.14,199.83L527.28,216.92L557.7,270.88L567.84,284.45L577.98,294.48L588.12,303.17L598.26,310.05L608.4,313.34L618.54,315.03L628.68,320.94L638.82,327.4L648.96,335.77L659.1,349.76L669.24,358.23L679.38,359.95L689.52,358.53L699.66,355.66L709.8,354.2L719.94,352.44L730.08,351.61L740.22,351.07L750.36,341.87L760.5,328.09L770.64,321.13L780.78,310.59L790.92,293.95L801.06,281.42L811.2,266.05L821.34,242.09L831.48,196.94L841.62,207.78L851.76,261.61L861.9,271.28L872.04,273.52L882.18,306.61L892.32,349.03L902.46,365.43L912.6,373.66L922.74,380.92L932.88,383.03L963.3,384.33L973.44,384.49L1014,384.86" style="vector-effect: none; fill: none; stroke: rgb(217, 83, 79); stroke-opacity: 1; stroke-width: 2px; opacity: 1;"/></g><g class="points"/><g class="text"/></g><g class="trace scatter trace4bf612" style="stroke-miterlimit: 2; opacity: 1;"><g class="fills"/><g class="errorbars"/><g class="lines"><path class="js-line" d="M0,379.09L20.28,384.67L30.42,384.73L233.22,384.36L243.36,384.07L273.78,382.23L283.92,381.44L304.2,379.29L314.34,377.97L334.62,374.96L344.76,372.81L354.9,369.6L365.04,365.27L385.32,361.51L395.46,357.33L405.6,354.67L415.74,350.99L425.88,343.75L436.02,326.37L446.16,305.62L456.3,290.41L476.58,198.2L486.72,146.3L496.86,106.78L507,127.37L517.14,128.69L527.28,127.17L537.42,140.7L547.56,160.01L557.7,165.43L567.84,165.13L577.98,178.58L588.12,153.82L598.26,155.9L608.4,201.38L618.54,215.95L628.68,238.37L638.82,280.42L648.96,309.99L659.1,302.1L669.24,279.69L679.38,262.27L689.52,271.18L699.66,296.79L709.8,304.19L719.94,318.11L730.08,329.57L740.22,330.37L750.36,316.29L760.5,293.45L770.64,287.33L780.78,305.98L790.92,327.3L801.06,340.57L811.2,349.1L821.34,348.74L831.48,337.72L841.62,341L851.76,358.69L861.9,366.57L872.04,371.63L882.18,377.7L892.32,382.2L902.46,384.01L912.6,384.62L943.02,384.97L953.16,384.99L1014,385" style="vector-effect: none; fill: none; stroke: rgb(217, 83, 79); stroke-opacity: 1; stroke-width: 2px; opacity: 1;"/></g><g class="points"/><g class="text"/></g><g class="trace scatter tracebc704d" style="stroke-miterlimit: 2; opacity: 1;"><g class="fills"/><g class="errorbars"/><g class="lines"><path class="js-line" d="M0,383.88L20.28,384.23L30.42,383.87L50.7,384.05L60.84,384.35L152.1,384.87L162.24,384.87L233.22,384.12L243.36,383.81L273.78,381.56L283.92,380.56L314.34,377.42L324.48,375.83L354.9,370.26L365.04,367.56L375.18,363.71L385.32,358.78L395.46,353.43L405.6,346.44L415.74,337.69L425.88,327.65L436.02,308.69L446.16,285.99L456.3,268.48L466.44,224.57L476.58,169.49L486.72,160.8L496.86,161.96L507,153.7L517.14,164.97L527.28,161.93L537.42,151.11L547.56,170.29L557.7,170.91L567.84,154.89L577.98,173.56L588.12,183.51L598.26,187.77L608.4,209.6L618.54,207.81L628.68,225.19L638.82,262.08L648.96,281.75L659.1,287.91L669.24,278.75L679.38,272.75L689.52,277.5L699.66,286.06L709.8,295.88L719.94,313.02L730.08,318.24L740.22,312.59L750.36,314.55L760.5,316.34L770.64,320.92L780.78,325L790.92,323.71L811.2,344.95L821.34,347.6L831.48,343.83L841.62,344.38L851.76,354.17L861.9,359.24L872.04,361.73L882.18,369.75L892.32,378.1L902.46,381.26L922.74,383.59L932.88,384.08L983.58,384.8L993.72,384.84L1014,384.91" style="vector-effect: none; fill: none; stroke: rgb(217, 83, 79); stroke-opacity: 1; stroke-width: 2px; opacity: 1;"/></g><g class="points"/><g class="text"/></g><g class="trace scatter trace02009d" style="stroke-miterlimit: 2; opacity: 1;"><g class="fills"/><g class="errorbars"/><g class="lines"><path class="js-line" d="M0,382.82L20.28,384.59L30.42,384.65L192.66,384.14L202.8,383.73L223.08,382.03L233.22,380.49L253.5,375.58L263.64,370.19L273.78,362.18L283.92,356.88L294.06,351.31L304.2,339.94L314.34,328.47L324.48,319.79L334.62,307.88L344.76,292.27L365.04,264.34L375.18,251.51L385.32,242.88L395.46,235.91L415.74,222.33L425.88,214.35L436.02,206.51L446.16,196.46L456.3,187.72L466.44,183.71L476.58,181.03L486.72,175.45L496.86,173.3L507,176.45L517.14,176.6L527.28,172.47L537.42,179.86L547.56,197.03L577.98,230.33L588.12,236.51L598.26,230.6L608.4,233.86L618.54,237.62L628.68,247.1L638.82,264.87L648.96,291.51L659.1,331.58L669.24,351.25L679.38,356.42L689.52,359.67L699.66,364.28L709.8,367.76L719.94,368.87L730.08,371.06L740.22,373.82L750.36,374.3L770.64,374.23L780.78,372.87L801.06,374.27L811.2,371.84L821.34,371.05L831.48,371.72L841.62,373.95L851.76,377.89L872.04,382.71L882.18,384L902.46,384.94L912.6,384.98L1014,385" style="vector-effect: none; fill: none; stroke: rgb(92, 184, 92); stroke-opacity: 1; stroke-width: 2px; opacity: 1;"/></g><g class="points"/><g class="text"/></g><g class="trace scatter trace0c2890" style="stroke-miterlimit: 2; opacity: 1;"><g class="fills"/><g class="errorbars"/><g class="lines"><path class="js-line" d="M0,384.35L50.7,384.5L60.84,384.59L162.24,384.46L172.38,384.3L202.8,383.07L212.94,382.18L233.22,379.13L243.36,376.57L253.5,372.27L263.64,366.11L273.78,356.46L283.92,348.72L294.06,343.79L304.2,334.81L314.34,324.31L324.48,311.48L354.9,273.97L365.04,263.49L375.18,254.44L385.32,247.56L395.46,240.89L405.6,232.55L425.88,216.38L436.02,209.68L446.16,204.05L456.3,196.53L466.44,192.2L476.58,190.29L486.72,187.43L496.86,186.84L507,188.65L517.14,192.2L527.28,196.05L537.42,200.81L567.84,224.22L577.98,228.31L588.12,233.08L598.26,239.69L618.54,241.94L628.68,252.09L638.82,264.23L648.96,283.86L659.1,315.33L669.24,335.75L679.38,344.54L689.52,350.57L709.8,361.28L719.94,363.98L740.22,368.55L750.36,369.7L760.5,370.18L770.64,371.55L790.92,372.12L801.06,374.1L811.2,374.65L821.34,372.7L831.48,369.94L841.62,370.62L851.76,373.22L861.9,375.01L892.32,382.84L902.46,383.83L932.88,384.65L943.02,384.76L1014,384.96" style="vector-effect: none; fill: none; stroke: rgb(92, 184, 92); stroke-opacity: 1; stroke-width: 2px; opacity: 1;"/></g><g class="points"/><g class="text"/></g><g class="trace scatter trace5e4df8" style="stroke-miterlimit: 2; opacity: 1;"><g class="fills"/><g class="errorbars"/><g class="lines"><path class="js-line" d="M0,383.01L20.28,384.71L30.42,384.71L192.66,384.2L202.8,383.81L223.08,382.23L233.22,380.85L243.36,378.76L253.5,375.8L263.64,371.27L273.78,365.11L283.92,358.95L294.06,351.84L324.48,322.26L334.62,310.55L375.18,260.06L385.32,250L405.6,232.69L415.74,224.97L446.16,204.64L456.3,199.35L466.44,196.87L476.58,195.9L486.72,195.65L496.86,198.47L507,204.67L517.14,212.62L527.28,221.3L537.42,233.78L547.56,248.96L557.7,262.65L577.98,288.43L588.12,298.79L598.26,307.12L608.4,312.96L618.54,316.29L628.68,323.69L648.96,337.57L659.1,349.17L669.24,355.35L679.38,352.6L689.52,347.81L699.66,346.41L709.8,346.25L719.94,344.34L740.22,341.65L750.36,333.84L760.5,320.12L770.64,313.76L780.78,311.3L790.92,307.79L801.06,303.98L811.2,292.33L821.34,279.89L831.48,262.82L841.62,282.41L851.76,321.11L861.9,331.92L872.04,338.09L882.18,353.23L892.32,372.51L902.46,379.78L912.6,382.85L922.74,384.42L932.88,384.65L1014,385" style="vector-effect: none; fill: none; stroke: rgb(217, 83, 79); stroke-opacity: 1; stroke-width: 2px; opacity: 1;"/></g><g class="points"/><g class="text"/></g><g class="trace scatter trace69dcd6" style="stroke-miterlimit: 2; opacity: 1;"><g class="fills"/><g class="errorbars"/><g class="lines"><path class="js-line" d="M0,384.25L50.7,384.56L60.84,384.62L172.38,384.12L182.52,383.88L212.94,382.2L223.08,381.02L243.36,376.72L253.5,373.18L263.64,368.35L273.78,361.58L294.06,347.32L304.2,338.36L314.34,328.8L324.48,318.09L354.9,282.8L365.04,271.15L405.6,232.03L415.74,223.93L425.88,216.97L436.02,211.24L446.16,205.88L456.3,201.4L466.44,199.5L476.58,200.21L486.72,202.54L496.86,206.69L507,212.89L517.14,221.71L537.42,242.01L547.56,253.67L567.84,277.56L577.98,287.69L588.12,297L598.26,304.94L608.4,309.82L618.54,313.42L638.82,326.55L648.96,333.8L659.1,342.82L669.24,348.02L679.38,351.55L689.52,352.61L699.66,350.99L709.8,350.43L740.22,347.32L750.36,338.94L760.5,326.19L770.64,321.92L780.78,315.65L790.92,307.93L801.06,304.96L811.2,297.17L821.34,286.96L831.48,263.91L841.62,274.93L851.76,314.82L861.9,323.98L872.04,326.43L882.18,346.84L892.32,369.39L902.46,377.13L912.6,380.62L922.74,382.92L932.88,383.76L973.44,384.58L983.58,384.66L1014,384.87" style="vector-effect: none; fill: none; stroke: rgb(217, 83, 79); stroke-opacity: 1; stroke-width: 2px; opacity: 1;"/></g><g class="points"/><g class="text"/></g><g class="trace scatter tracec4b161" style="stroke-miterlimit: 2; opacity: 1;"><g class="fills"/><g class="errorbars"/><g class="lines"><path class="js-line" d="M0,382.5L20.28,384.77L30.42,384.78L192.66,384.3L202.8,383.97L223.08,382.67L233.22,381.57L253.5,378.16L263.64,374.82L273.78,369.24L283.92,365.33L294.06,361.61L304.2,353.5L314.34,344.98L324.48,337.77L334.62,327.65L344.76,314.49L365.04,286.76L375.18,273.93L425.88,214.85L436.02,204.23L446.16,189.87L456.3,177.86L476.58,166.24L486.72,158.91L496.86,158.24L507,163.43L517.14,166.79L527.28,165.74L537.42,172.88L547.56,190.95L557.7,205.09L567.84,217.06L577.98,228.72L588.12,232.5L598.26,219.3L608.4,221.61L618.54,233.01L628.68,243.26L638.82,258.57L648.96,284.74L659.1,326.76L669.24,349.09L679.38,354.51L689.52,357.33L699.66,361.72L709.8,365.09L719.94,365.88L730.08,368.3L740.22,371.65L750.36,371.98L770.64,371.62L780.78,368.95L790.92,368.88L801.06,370.57L811.2,368.27L821.34,367.55L831.48,367.27L841.62,369.91L851.76,375.43L861.9,378.48L872.04,380.97L882.18,382.38L902.46,384.55L912.6,384.82L963.3,384.99L973.44,385L1014,385" style="vector-effect: none; fill: none; stroke: rgb(92, 184, 92); stroke-opacity: 1; stroke-width: 2px; opacity: 1;"/></g><g class="points"/><g class="text"/></g><g class="trace scatter traceacca6d" style="stroke-miterlimit: 2; opacity: 1;"><g class="fills"/><g class="errorbars"/><g class="lines"><path class="js-line" d="M0,384.09L40.56,384.57L50.7,384.63L162.24,384.58L172.38,384.43L202.8,383.5L212.94,382.85L233.22,380.69L243.36,379.03L253.5,376.29L263.64,372.42L273.78,366.13L283.92,360.75L294.06,357.39L304.2,351.06L314.34,343.03L324.48,331.82L344.76,307.63L354.9,293.37L375.18,270.22L385.32,260.28L395.46,250.59L405.6,239.15L425.88,216.46L436.02,207.66L446.16,198.79L456.3,188.28L466.44,181.36L476.58,176.08L486.72,171.1L496.86,169.73L507,171.24L517.14,177.22L527.28,184.35L537.42,190.02L547.56,199.99L557.7,211.49L567.84,220.48L577.98,225.27L588.12,229.92L598.26,236.86L608.4,237.14L618.54,236.08L638.82,256.22L648.96,275.46L659.1,312.62L669.24,336.8L679.38,345.02L689.52,349.34L709.8,359.81L719.94,362.44L730.08,364.26L740.22,367.19L750.36,368.14L760.5,368.23L770.64,370L780.78,369.38L790.92,369.89L801.06,372.8L811.2,373.23L821.34,369.82L831.48,364.62L841.62,365.14L851.76,369.22L861.9,371.19L872.04,374.48L882.18,379.33L892.32,382.66L902.46,383.94L932.88,384.76L943.02,384.83L1014,384.97" style="vector-effect: none; fill: none; stroke: rgb(92, 184, 92); stroke-opacity: 1; stroke-width: 2px; opacity: 1;"/></g><g class="points"/><g class="text"/></g><g class="trace scatter trace26d8ea" style="stroke-miterlimit: 2; opacity: 1;"><g class="fills"/><g class="errorbars"/><g class="lines"><path class="js-line" d="M0,384.95L212.94,384.67L223.08,384.38L253.5,382.98L263.64,381.28L273.78,377.84L283.92,376.91L294.06,376.94L304.2,372.19L314.34,367.26L324.48,365.41L334.62,362.85L344.76,358.88L354.9,353.68L365.04,347.18L375.18,344.51L385.32,346.21L395.46,346.17L405.6,345.06L415.74,344.54L425.88,340.32L436.02,323.13L446.16,290.43L456.3,264.56L466.44,246.03L486.72,190.96L496.86,189.4L507,197.68L517.14,172.47L527.28,159.29L537.42,175.42L547.56,183.67L557.7,182.39L567.84,164.88L577.98,172.56L588.12,175.47L598.26,165.78L608.4,178.56L618.54,173.34L628.68,197.54L638.82,229.04L648.96,227.91L659.1,249.23L669.24,282.32L679.38,292L689.52,295.15L699.66,295.27L709.8,292.57L719.94,304.1L730.08,293.11L740.22,290.22L750.36,317.29L760.5,330.49L770.64,322.13L780.78,324.87L790.92,344.48L801.06,354.95L811.2,350.85L821.34,337.77L831.48,344.6L841.62,353.47L851.76,360.25L861.9,370.83L872.04,373.67L882.18,379.45L892.32,384.11L902.46,384.88L1014,385" style="vector-effect: none; fill: none; stroke: rgb(217, 83, 79); stroke-opacity: 1; stroke-width: 2px; opacity: 1;"/></g><g class="points"/><g class="text"/></g><g class="trace scatter trace7b6f94" style="stroke-miterlimit: 2; opacity: 1;"><g class="fills"/><g class="errorbars"/><g class="lines"><path class="js-line" d="M0,384.98L212.94,384.54L223.08,384.25L243.36,383.41L253.5,381.85L263.64,379.88L273.78,376.31L283.92,373.99L294.06,373.99L304.2,371.65L314.34,368.42L334.62,356.46L344.76,354.5L365.04,346.62L375.18,346.14L385.32,348.74L395.46,349.98L415.74,345.16L425.88,339.46L436.02,322.98L446.16,300.35L456.3,257.02L466.44,221.08L476.58,200.22L486.72,177.46L496.86,176L507,189.38L517.14,193.76L527.28,166.21L537.42,151.91L547.56,163.66L557.7,170.2L567.84,148.58L577.98,166.87L588.12,199.39L598.26,196.2L608.4,207.85L618.54,225.72L628.68,250.79L638.82,278.28L648.96,295.96L659.1,291.94L669.24,294.38L679.38,296.05L689.52,299.51L699.66,302.96L709.8,287.92L719.94,283.83L730.08,277.95L740.22,280.39L750.36,295.95L760.5,311.67L770.64,324.18L780.78,322.16L790.92,324.82L801.06,341.77L811.2,350.68L821.34,341.86L831.48,336.54L841.62,340.01L851.76,335.75L861.9,336.87L872.04,355.79L882.18,370.73L892.32,379.29L902.46,383.47L912.6,384.2L953.16,384.84L963.3,384.89L1014,384.96" style="vector-effect: none; fill: none; stroke: rgb(217, 83, 79); stroke-opacity: 1; stroke-width: 2px; opacity: 1;"/></g><g class="points"/><g class="text"/></g><g class="trace scatter traceed9812" style="stroke-miterlimit: 2; opacity: 1;"><g class="fills"/><g class="errorbars"/><g class="lines"><path class="js-line" d="M0,383.59L30.42,384.88L40.56,384.87L202.8,384.24L212.94,383.87L243.36,381.43L253.5,380.03L263.64,377.53L273.78,373.14L283.92,370.32L294.06,368.4L324.48,352.02L334.62,344.58L354.9,324.93L365.04,314.55L385.32,294.94L395.46,284.83L405.6,273.9L415.74,261.83L425.88,248.16L436.02,231.68L446.16,212.07L456.3,196.75L476.58,164.7L486.72,146.33L496.86,136.8L507,148.96L517.14,157.17L527.28,159.7L537.42,170.2L547.56,189.91L557.7,202.42L567.84,205.95L577.98,215.31L588.12,215.49L598.26,211.9L608.4,224.45L618.54,234.06L628.68,249.93L648.96,300.48L659.1,321.02L669.24,326.47L679.38,323.04L689.52,326.04L699.66,336.65L719.94,347.19L730.08,353.75L740.22,357.36L750.36,353.14L760.5,343.41L770.64,338.7L780.78,345.66L790.92,356.12L801.06,361.18L811.2,362.79L821.34,363.1L831.48,359.3L841.62,361.34L851.76,370.17L861.9,374.74L872.04,377.73L892.32,383.35L902.46,384.45L932.88,384.98L943.02,384.98L1014,385" style="vector-effect: none; fill: none; stroke: rgb(240, 173, 78); stroke-opacity: 1; stroke-width: 2px; opacity: 1;"/></g><g class="points"/><g class="text"/></g><g class="trace scatter traced788be" style="stroke-miterlimit: 2; opacity: 1;"><g class="fills"/><g class="errorbars"/><g class="lines"><path class="js-line" d="M0,384.46L60.84,384.8L70.98,384.84L182.52,384.45L192.66,384.25L223.08,383.02L233.22,382.22L253.5,379.27L263.64,376.73L283.92,368.62L294.06,366.47L304.2,362.44L314.34,357.08L344.76,332.6L354.9,322.04L375.18,305.01L385.32,297.52L395.46,289.86L405.6,280.61L425.88,258.86L436.02,245.25L446.16,228.81L456.3,210.83L466.44,188.57L476.58,164.13L486.72,153.16L496.86,150.96L507,151.5L517.14,160.95L527.28,167.7L537.42,172.81L547.56,187.13L557.7,196.45L567.84,199.15L577.98,208.57L588.12,217.46L598.26,224.83L608.4,233.22L618.54,232.1L628.68,243.65L638.82,264.99L648.96,284.88L659.1,308.07L669.24,316.49L679.38,318.61L689.52,323.54L699.66,329.38L709.8,335.86L719.94,343.45L730.08,346.83L740.22,346.53L760.5,349.15L770.64,352.24L790.92,354.01L801.06,359.48L811.2,363.05L821.34,363.15L831.48,360.87L841.62,361.48L851.76,366.82L861.9,369.99L872.04,372.2L882.18,376.85L892.32,381.18L902.46,382.95L922.74,384.25L932.88,384.52L1003.86,384.95L1014,384.95" style="vector-effect: none; fill: none; stroke: rgb(240, 173, 78); stroke-opacity: 1; stroke-width: 2px; opacity: 1;"/></g><g class="points"/><g class="text"/></g><g class="trace scatter trace5b02db" style="stroke-miterlimit: 2; opacity: 1;"><g class="fills"/><g class="errorbars"/><g class="lines"><path class="js-line" d="M0,381.52L20.28,384.68L30.42,384.71L202.8,384.29L212.94,383.9L233.22,382.42L243.36,381.25L263.64,377.58L273.78,374.89L294.06,369.31L304.2,365.7L334.62,353.86L344.76,349.25L375.18,336.21L385.32,333.23L436.02,321.86L446.16,317.56L456.3,313.52L466.44,310.99L486.72,304.61L496.86,304.51L507,306.94L517.14,310.28L527.28,313.73L537.42,320.04L547.56,328.55L557.7,334.75L577.98,344.53L588.12,347.96L598.26,349.65L608.4,350.54L628.68,351.83L638.82,351.31L648.96,348.78L659.1,348.13L669.24,348.49L679.38,342.88L689.52,330.21L699.66,307.62L709.8,283.74L719.94,277.94L730.08,284.08L740.22,284.56L750.36,262.88L760.5,215.67L770.64,180.53L780.78,150.14L790.92,132.08L801.06,137.82L811.2,119.41L821.34,84.5L831.48,19.25L841.62,66.77L851.76,176.27L861.9,192.94L872.04,199.86L882.18,257.26L892.32,329.41L902.46,352.19L912.6,367.24L922.74,379.85L932.88,382.32L943.02,383.4L963.3,384.36L973.44,384.42L1014,384.98" style="vector-effect: none; fill: none; stroke: rgb(217, 83, 79); stroke-opacity: 1; stroke-width: 2px; opacity: 1;"/></g><g class="points"/><g class="text"/></g><g class="trace scatter tracef674f9" style="stroke-miterlimit: 2; opacity: 1;"><g class="fills"/><g class="errorbars"/><g class="lines"><path class="js-line" d="M0,384.03L30.42,384.32L40.56,384.23L111.54,384.83L121.68,384.82L202.8,383.92L212.94,383.44L233.22,381.72L243.36,380.34L263.64,376.43L273.78,373.52L304.2,364.67L314.34,361.12L354.9,344.46L365.04,340.27L385.32,334.34L395.46,331.84L436.02,323.2L446.16,319.75L476.58,309.03L486.72,306.32L496.86,305.72L507,307.08L517.14,311.28L527.28,316.95L537.42,322.8L547.56,329.74L557.7,335.95L567.84,340.45L588.12,348.19L598.26,350.88L608.4,350.99L618.54,348.79L648.96,341.73L659.1,340.45L669.24,337.83L679.38,329.01L689.52,310.96L699.66,301.26L709.8,303.96L719.94,302.79L730.08,299.01L740.22,292.39L750.36,267.8L760.5,232.83L770.64,213.35L780.78,188.39L790.92,163.03L801.06,150.98L811.2,129.91L821.34,104.1L831.48,27.4L841.62,46.62L851.76,156.75L861.9,170.23L872.04,164.91L882.18,233.37L892.32,315.26L902.46,340.64L922.74,372.32L932.88,378.37L943.02,380.69L953.16,381.93L983.58,383.34L993.72,383.68L1014,384.44" style="vector-effect: none; fill: none; stroke: rgb(217, 83, 79); stroke-opacity: 1; stroke-width: 2px; opacity: 1;"/></g><g class="points"/><g class="text"/></g><g class="trace scatter traceb8527c" style="stroke-miterlimit: 2; opacity: 1;"><g class="fills"/><g class="errorbars"/><g class="lines"><path class="js-line" d="M0,383.37L30.42,384.84L40.56,384.84L182.52,384.45L192.66,384.21L223.08,382.55L233.22,381.49L253.5,377.76L263.64,374.06L283.92,363.37L294.06,357.92L324.48,329.75L334.62,317.52L354.9,287.66L365.04,273.93L375.18,261.61L385.32,251.3L405.6,233.82L415.74,225.49L436.02,207.02L446.16,195.31L456.3,184.12L466.44,176.43L486.72,165.25L496.86,163.34L517.14,168.63L527.28,169.35L537.42,182.4L547.56,203.61L557.7,219.36L567.84,232.64L577.98,241.93L588.12,245.63L598.26,238.35L608.4,233.67L618.54,230.4L628.68,240.8L638.82,262.05L648.96,288.84L659.1,331.04L669.24,354.11L679.38,357.53L689.52,358.53L699.66,362.23L709.8,365.02L719.94,364.81L730.08,367.75L740.22,371.47L750.36,370.75L760.5,368.14L770.64,366.78L780.78,365.39L790.92,365.9L801.06,366.94L811.2,364.66L821.34,361.03L831.48,356.57L841.62,361.56L851.76,370.31L872.04,379.14L882.18,382.41L892.32,384.51L902.46,384.87L1014,385" style="vector-effect: none; fill: none; stroke: rgb(240, 173, 78); stroke-opacity: 1; stroke-width: 2px; opacity: 1;"/></g><g class="points"/><g class="text"/></g><g class="trace scatter tracedf6c6b" style="stroke-miterlimit: 2; opacity: 1;"><g class="fills"/><g class="errorbars"/><g class="lines"><path class="js-line" d="M0,384.46L50.7,384.72L60.84,384.73L182.52,384.18L192.66,383.92L223.08,382.08L233.22,380.89L243.36,379.22L253.5,376.36L263.64,372.26L273.78,365.31L283.92,359.21L294.06,354.51L304.2,346.23L314.34,336.77L324.48,325.01L334.62,311.79L365.04,273.6L375.18,263.29L395.46,244.27L405.6,234.21L425.88,215.18L436.02,207.07L446.16,197.92L456.3,187.01L466.44,178.43L476.58,172.46L486.72,168.22L496.86,167.79L507,171.83L517.14,180.56L537.42,201.33L547.56,214.27L557.7,226.33L567.84,236.35L598.26,251.17L608.4,247.39L618.54,243.32L628.68,248.07L638.82,252.56L648.96,272.02L659.1,313.86L669.24,340.49L679.38,348.76L689.52,352.31L709.8,361.45L719.94,363.39L740.22,367.89L750.36,367.33L760.5,365.38L770.64,366.25L790.92,364.69L801.06,366.76L811.2,365.71L821.34,362.21L831.48,356.85L841.62,359.9L851.76,368.74L861.9,373L872.04,376.02L882.18,379.85L892.32,383.13L902.46,384.09L943.02,384.83L953.16,384.87L1014,384.96" style="vector-effect: none; fill: none; stroke: rgb(240, 173, 78); stroke-opacity: 1; stroke-width: 2px; opacity: 1;"/></g><g class="points"/><g class="text"/></g><g class="trace scatter traceea5bb0" style="stroke-miterlimit: 2; opacity: 1;"><g class="fills"/><g class="errorbars"/><g class="lines"><path class="js-line" d="M0,382.76L20.28,384.72L30.42,384.73L182.52,384L192.66,383.48L212.94,381.44L223.08,379.51L233.22,376.71L243.36,373.02L253.5,368.19L263.64,361.94L283.92,346.56L294.06,337.38L324.48,304.75L334.62,292.59L354.9,266.41L365.04,251.92L375.18,237.64L385.32,225.73L395.46,214.94L405.6,205.27L415.74,197.04L425.88,190.45L436.02,184.94L446.16,177.83L456.3,171.81L466.44,169.57L486.72,168.2L496.86,171.18L517.14,182.63L527.28,183.92L537.42,195.41L547.56,216.01L557.7,230.72L567.84,243.95L577.98,256.47L588.12,264.22L598.26,262.3L608.4,259.4L618.54,257.77L628.68,268.08L638.82,285.91L648.96,309.54L659.1,342.59L669.24,359.54L679.38,363.22L689.52,365.72L699.66,369.04L709.8,371.45L719.94,372.38L730.08,374.7L740.22,377.22L750.36,377.48L760.5,377.01L770.64,377.47L801.06,377.6L811.2,376.3L831.48,371.56L841.62,374.02L851.76,378.36L861.9,380.15L882.18,383.89L892.32,384.79L953.16,385L963.3,385L1014,385" style="vector-effect: none; fill: none; stroke: rgb(92, 184, 92); stroke-opacity: 1; stroke-width: 2px; opacity: 1;"/></g><g class="points"/><g class="text"/></g><g class="trace scatter trace61b031" style="stroke-miterlimit: 2; opacity: 1;"><g class="fills"/><g class="errorbars"/><g class="lines"><path class="js-line" d="M0,384.32L40.56,384.51L50.7,384.53L152.1,384.34L162.24,384.16L192.66,382.5L202.8,381.35L223.08,377.07L233.22,373.63L243.36,369.09L253.5,363.45L263.64,356.7L273.78,348.78L294.06,331.34L304.2,321.22L324.48,299.23L334.62,287.05L375.18,237.18L385.32,227.22L405.6,207.79L415.74,199.46L425.88,192.25L436.02,188.35L456.3,179.56L466.44,177.94L486.72,180.66L496.86,183.84L507,189.43L517.14,197.43L537.42,215.22L547.56,226.27L567.84,248.12L577.98,254.57L598.26,267.92L608.4,269.69L618.54,268.71L628.68,274.25L638.82,280.39L648.96,296.62L659.1,327.34L669.24,345.54L679.38,352.99L689.52,356.98L699.66,361.02L709.8,366.13L730.08,371.1L740.22,373.29L780.78,375.01L790.92,375.15L801.06,376.25L811.2,376.26L821.34,375.06L831.48,372.33L841.62,373.46L851.76,377.64L882.18,382.84L892.32,384.13L922.74,384.79L932.88,384.86L1014,384.96" style="vector-effect: none; fill: none; stroke: rgb(92, 184, 92); stroke-opacity: 1; stroke-width: 2px; opacity: 1;"/></g><g class="points"/><g class="text"/></g><g class="trace scatter traceeecbcf" style="stroke-miterlimit: 2; opacity: 1;"><g class="fills"/><g class="errorbars"/><g class="lines"><path class="js-line" d="M0,380.56L20.28,384.6L30.42,384.64L182.52,384.07L192.66,383.57L212.94,381.47L223.08,379.5L233.22,376.65L243.36,372.67L253.5,367.39L263.64,359.91L294.06,330.4L304.2,317.02L324.48,291.42L334.62,276.96L354.9,247.65L365.04,234.05L375.18,221.6L385.32,211.79L405.6,196.45L415.74,189.74L425.88,184.12L436.02,179.77L446.16,174.23L456.3,170.18L466.44,169.94L476.58,171.04L486.72,171.99L496.86,176.32L527.28,200.82L537.42,213.8L547.56,231.15L557.7,246.26L577.98,274.1L588.12,285.23L608.4,298.74L618.54,306.94L638.82,328.57L648.96,340.41L659.1,355.84L669.24,364.74L679.38,367.16L689.52,368.56L709.8,371.28L719.94,371.09L740.22,373.79L750.36,372.6L760.5,370.15L770.64,369.27L801.06,364.41L811.2,360.49L821.34,354.69L831.48,344.9L841.62,350.04L851.76,362.64L861.9,365.78L872.04,368.1L882.18,371.86L892.32,378.61L902.46,382.29L912.6,383.91L922.74,384.84L932.88,384.93L1014,385" style="vector-effect: none; fill: none; stroke: rgb(240, 173, 78); stroke-opacity: 1; stroke-width: 2px; opacity: 1;"/></g><g class="points"/><g class="text"/></g><g class="trace scatter traceb5eeb2" style="stroke-miterlimit: 2; opacity: 1;"><g class="fills"/><g class="errorbars"/><g class="lines"><path class="js-line" d="M0,383.67L30.42,384.24L40.56,384.16L131.82,384.47L141.96,384.36L182.52,383.18L192.66,382.44L212.94,379.62L223.08,377.16L233.22,373.54L243.36,368.75L253.5,362.33L263.64,354.05L294.06,322.49L304.2,310.34L324.48,284.07L334.62,270.32L354.9,244.6L365.04,233.16L375.18,223.57L385.32,215.62L405.6,200.72L415.74,194.07L425.88,188.77L436.02,185.66L456.3,178.68L466.44,178.51L486.72,183.32L496.86,187.9L507,194.49L517.14,203.78L537.42,224.87L547.56,237.49L567.84,263.06L577.98,274.26L598.26,295.35L608.4,302.85L618.54,308.35L628.68,315.67L638.82,322.61L648.96,332.49L659.1,347.97L669.24,357.5L679.38,361.74L689.52,364.37L709.8,369L719.94,370.13L740.22,371.71L750.36,370.54L760.5,368.8L770.64,368.98L790.92,365.33L801.06,365.5L811.2,363.48L821.34,358.45L831.48,347.15L841.62,347.82L851.76,359.21L861.9,360.75L872.04,361.9L882.18,369.95L892.32,378.2L902.46,381.41L922.74,383.98L932.88,384.38L993.72,384.88L1003.86,384.91L1014,384.93" style="vector-effect: none; fill: none; stroke: rgb(240, 173, 78); stroke-opacity: 1; stroke-width: 2px; opacity: 1;"/></g><g class="points"/><g class="text"/></g><g class="trace scatter tracef063b3" style="stroke-miterlimit: 2; opacity: 1;"><g class="fills"/><g class="errorbars"/><g class="lines"><path class="js-line" d="M0,383.43L30.42,384.82L40.56,384.79L182.52,384.56L192.66,384.33L223.08,382.54L233.22,381.25L253.5,377.07L263.64,373.73L294.06,360.07L304.2,353.82L334.62,334.32L344.76,326.85L375.18,305.98L385.32,300.17L425.88,280.27L436.02,270.79L456.3,235L466.44,214.69L476.58,190.97L486.72,181.91L496.86,193.44L507,207.48L517.14,197.66L527.28,190.67L537.42,195.56L547.56,204.68L557.7,213.55L567.84,206.15L577.98,218.23L588.12,237.1L598.26,235.18L608.4,241.99L618.54,245.14L628.68,260.72L638.82,283.02L648.96,290.86L659.1,304.97L669.24,313.36L679.38,305.42L689.52,302.32L699.66,309.73L709.8,308.43L719.94,311.65L730.08,307.38L740.22,309.18L750.36,327.76L760.5,336.36L770.64,327.59L780.78,323.52L790.92,336.05L801.06,344.99L811.2,338.92L821.34,325.97L831.48,328.19L841.62,332.43L851.76,343.42L861.9,360.19L872.04,366.87L882.18,375.88L892.32,382.85L902.46,384.28L912.6,384.64L943.02,384.99L953.16,384.99L1014,385" style="vector-effect: none; fill: none; stroke: rgb(217, 83, 79); stroke-opacity: 1; stroke-width: 2px; opacity: 1;"/></g><g class="points"/><g class="text"/></g><g class="trace scatter traceefa8d0" style="stroke-miterlimit: 2; opacity: 1;"><g class="fills"/><g class="errorbars"/><g class="lines"><path class="js-line" d="M0,384.47L60.84,384.74L70.98,384.74L172.38,384.47L182.52,384.28L212.94,382.74L223.08,381.66L243.36,377.87L253.5,374.91L263.64,371.03L273.78,365.98L294.06,356.11L304.2,350.21L375.18,305.54L385.32,300.73L425.88,282.67L436.02,273.65L446.16,261.54L456.3,241.42L476.58,195.85L486.72,181.24L496.86,187.17L507,204.07L517.14,209.78L527.28,196.99L537.42,185.6L547.56,192.64L557.7,208.79L567.84,211.17L577.98,226.99L588.12,245.95L598.26,254.96L608.4,267.25L618.54,268.98L628.68,277.83L638.82,295.38L648.96,309.25L659.1,313.75L669.24,313.54L679.38,306.82L689.52,308.73L699.66,314.37L709.8,306.53L719.94,307.26L730.08,304.34L740.22,304.47L750.36,311.85L760.5,320.73L770.64,331.5L780.78,328.94L790.92,329.7L801.06,342.46L811.2,347.1L821.34,336.44L831.48,323.82L841.62,323.58L851.76,326.89L861.9,330.12L872.04,345.31L882.18,364.31L892.32,377.19L902.46,382.05L912.6,383.37L932.88,384.39L943.02,384.6L1014,384.95" style="vector-effect: none; fill: none; stroke: rgb(217, 83, 79); stroke-opacity: 1; stroke-width: 2px; opacity: 1;"/></g><g class="points"/><g class="text"/></g><g class="trace scatter trace079c35" style="stroke-miterlimit: 2; opacity: 1;"><g class="fills"/><g class="errorbars"/><g class="lines"><path class="js-line" d="M0,380.55L20.28,384.67L30.42,384.73L182.52,384.3L192.66,383.92L212.94,382.38L223.08,380.93L243.36,376.22L253.5,372.61L263.64,367.56L273.78,360.71L294.06,347.79L304.2,338.78L334.62,309.74L344.76,297.7L375.18,259.82L385.32,249.13L405.6,228.75L415.74,217.1L425.88,206.66L436.02,198.39L446.16,183.87L456.3,171.53L466.44,166.71L476.58,160.64L486.72,156.29L496.86,158.8L517.14,175.53L527.28,177.82L537.42,189.67L547.56,213.74L557.7,230.18L567.84,242.38L577.98,254.11L588.12,259.75L598.26,254.94L608.4,254.55L618.54,250.19L628.68,250.99L638.82,263.93L648.96,294.1L659.1,337.59L669.24,356.2L679.38,360.16L689.52,362.35L699.66,365.66L709.8,367.53L719.94,367.22L730.08,370L740.22,373.69L750.36,373.19L760.5,372.05L770.64,371.76L780.78,369.12L790.92,367.36L801.06,367.17L811.2,363.67L831.48,357.48L841.62,361.63L851.76,369.71L861.9,373.79L872.04,378.69L882.18,381.7L892.32,383.93L902.46,384.72L953.16,385L963.3,385L1014,385" style="vector-effect: none; fill: none; stroke: rgb(240, 173, 78); stroke-opacity: 1; stroke-width: 2px; opacity: 1;"/></g><g class="points"/><g class="text"/></g><g class="trace scatter trace70e21b" style="stroke-miterlimit: 2; opacity: 1;"><g class="fills"/><g class="errorbars"/><g class="lines"><path class="js-line" d="M0,384.01L30.42,384.24L40.56,384.17L162.24,384.33L172.38,384.08L192.66,383.08L202.8,382.13L223.08,378.85L233.22,376.16L243.36,372.59L253.5,367.9L263.64,362.1L273.78,354.38L304.2,332.33L314.34,323.23L334.62,302.57L344.76,291.41L365.04,269.09L375.18,259.08L425.88,215.37L436.02,209.89L446.16,200.13L456.3,187.47L466.44,178.88L476.58,172.98L486.72,168.88L496.86,167.86L507,171.28L517.14,181.18L527.28,193.59L537.42,204.13L557.7,233.76L567.84,244.05L588.12,251.67L598.26,257.78L608.4,256.87L618.54,254.86L638.82,272.12L648.96,290.58L659.1,324.5L669.24,344.39L679.38,351.18L689.52,354.53L699.66,358.31L709.8,363.61L740.22,370L750.36,369.69L760.5,368.65L770.64,369.79L790.92,367.8L801.06,369.48L811.2,368.5L821.34,363.47L831.48,356.16L841.62,357.76L851.76,365L861.9,367.33L872.04,371.48L882.18,378.61L892.32,382.83L902.46,384.04L932.88,384.77L943.02,384.84L1014,384.96" style="vector-effect: none; fill: none; stroke: rgb(92, 184, 92); stroke-opacity: 1; stroke-width: 2px; opacity: 1;"/></g><g class="points"/><g class="text"/></g><g class="trace scatter trace2b82d7" style="stroke-miterlimit: 2; opacity: 1;"><g class="fills"/><g class="errorbars"/><g class="lines"><path class="js-line" d="M0,383.12L20.28,384.79L30.42,384.81L192.66,384.14L202.8,383.71L223.08,381.87L233.22,380.27L253.5,374.93L263.64,369.96L294.06,348.51L304.2,337.04L324.48,312.43L334.62,297.82L365.04,248.45L375.18,233.7L385.32,221.11L395.46,209.74L405.6,199.24L415.74,189.83L425.88,181.82L436.02,175.19L446.16,167.34L456.3,161.61L466.44,160.46L476.58,161.36L486.72,162.58L496.86,168.09L517.14,187.67L527.28,196.37L537.42,209.28L547.56,227.16L567.84,257.3L577.98,271.93L588.12,283.31L598.26,289.75L608.4,297.41L618.54,303.09L628.68,310.25L638.82,319.66L648.96,333.13L659.1,351.7L669.24,360.18L679.38,360.93L689.52,361.14L699.66,362.21L719.94,361.34L730.08,362.79L740.22,364.78L750.36,362.47L760.5,358.25L770.64,356.04L780.78,355.84L790.92,356.8L801.06,356.12L811.2,350.5L821.34,344.55L831.48,341.88L841.62,350.35L851.76,362.54L872.04,377.2L882.18,381.74L892.32,384.46L902.46,384.84L993.72,385L1003.86,385L1014,385" style="vector-effect: none; fill: none; stroke: rgb(240, 173, 78); stroke-opacity: 1; stroke-width: 2px; opacity: 1;"/></g><g class="points"/><g class="text"/></g><g class="trace scatter trace5ba18f" style="stroke-miterlimit: 2; opacity: 1;"><g class="fills"/><g class="errorbars"/><g class="lines"><path class="js-line" d="M0,384.61L91.26,384.79L101.4,384.8L182.52,383.89L192.66,383.44L212.94,381.87L223.08,380.41L243.36,375.58L253.5,371.56L263.64,365.9L273.78,357.76L294.06,341.28L304.2,330.53L314.34,318.22L324.48,303.91L365.04,245.54L375.18,234.12L395.46,213.63L405.6,204.15L425.88,187.58L436.02,180.87L456.3,170.43L466.44,168.81L476.58,170.18L486.72,172.91L496.86,178.1L507,185.28L517.14,195.52L527.28,207.23L537.42,218.37L547.56,231.73L557.7,246.09L567.84,259.13L598.26,291.95L608.4,298.24L618.54,303.45L628.68,312.35L638.82,321.78L648.96,332.33L659.1,346L669.24,354.72L679.38,357.56L689.52,358.18L699.66,358.42L709.8,359.64L740.22,363.66L750.36,361.06L760.5,356.88L770.64,356.03L780.78,353.82L790.92,352.69L801.06,354.56L811.2,352.49L821.34,346.98L831.48,340.26L841.62,346.71L851.76,360.69L861.9,368.2L872.04,373.86L882.18,379.02L892.32,382.98L912.6,384.42L922.74,384.65L1014,384.96" style="vector-effect: none; fill: none; stroke: rgb(240, 173, 78); stroke-opacity: 1; stroke-width: 2px; opacity: 1;"/></g><g class="points"/><g class="text"/></g><g class="trace scatter trace6fdb1c" style="stroke-miterlimit: 2; opacity: 1;"><g class="fills"/><g class="errorbars"/><g class="lines"><path class="js-line" d="M0,379.19L20.28,384.52L30.42,384.64L192.66,384.22L202.8,383.82L223.08,382.42L233.22,381.2L253.5,377.43L263.64,374.24L283.92,365.3L294.06,359.8L304.2,351.94L314.34,342.95L324.48,333.12L334.62,321.1L354.9,292.45L365.04,276.8L385.32,246.56L395.46,232.65L415.74,208.56L425.88,198.87L436.02,191.43L446.16,181.46L456.3,174.11L466.44,172.03L486.72,169.93L496.86,173.28L517.14,188.84L527.28,194.58L537.42,206.03L547.56,223.69L567.84,250.29L577.98,262.41L588.12,270.39L598.26,272.68L618.54,284.26L628.68,292.24L638.82,302.63L648.96,320.18L659.1,345.92L669.24,357.83L689.52,360.81L699.66,362.43L740.22,364.83L750.36,361.34L760.5,352.66L770.64,347.76L780.78,346.23L790.92,343.02L801.06,339.68L811.2,333.79L821.34,326.95L831.48,314.36L841.62,322.2L851.76,340.82L872.04,352.22L882.18,359.89L892.32,372.98L902.46,380.82L912.6,383.69L922.74,384.85L1014,385" style="vector-effect: none; fill: none; stroke: rgb(217, 83, 79); stroke-opacity: 1; stroke-width: 2px; opacity: 1;"/></g><g class="points"/><g class="text"/></g><g class="trace scatter tracedf5376" style="stroke-miterlimit: 2; opacity: 1;"><g class="fills"/><g class="errorbars"/><g class="lines"><path class="js-line" d="M0,383.59L30.42,383.93L40.56,383.8L121.68,384.74L131.82,384.71L192.66,383.74L202.8,383.26L223.08,381.57L233.22,380.23L253.5,375.78L263.64,372.29L283.92,362.24L294.06,356.37L304.2,348.63L314.34,339.28L324.48,328.03L334.62,315.47L354.9,287.02L365.04,272.66L385.32,246.92L395.46,235.38L415.74,214.33L425.88,205.76L436.02,199.37L446.16,191.39L456.3,183.53L466.44,179.68L476.58,178.84L486.72,179.3L496.86,181.72L507,186.73L517.14,195.32L527.28,205.33L537.42,214.99L547.56,227.1L557.7,239.71L567.84,250.7L598.26,276.97L608.4,280.59L618.54,283.34L628.68,292.28L638.82,302.24L648.96,315.96L659.1,337.02L669.24,350.08L679.38,354.69L689.52,356.1L699.66,357.79L709.8,360.68L730.08,362.71L740.22,362.28L760.5,354.37L770.64,353.49L780.78,350.1L790.92,343.92L801.06,339.7L811.2,333.54L821.34,325.19L831.48,310.83L841.62,315.7L851.76,337.03L861.9,341.29L872.04,344.36L892.32,374.18L902.46,380.25L912.6,382.72L922.74,383.96L963.3,384.78L973.44,384.83L1014,384.95" style="vector-effect: none; fill: none; stroke: rgb(217, 83, 79); stroke-opacity: 1; stroke-width: 2px; opacity: 1;"/></g><g class="points"/><g class="text"/></g></g></g></g><g class="zerolinelayer-above"/><path class="xlines-above crisp" d="M0,0" style="fill: none;"/><path class="ylines-above crisp" d="M0,0" style="fill: none;"/><g class="overlines-above"/><g class="xaxislayer-above"><g class="xtick"><text text-anchor="middle" x="0" y="451" transform="translate(60,0)" style="font-family: 'Lucida Grande', 'Open Sans', verdana, arial, sans-serif; font-size: 10px; fill: rgb(0, 0, 0); fill-opacity: 1; white-space: pre;">0%</text></g><g class="xtick"><text text-anchor="middle" x="0" y="451" style="font-family: 'Lucida Grande', 'Open Sans', verdana, arial, sans-serif; font-size: 10px; fill: rgb(0, 0, 0); fill-opacity: 1; white-space: pre;" transform="translate(262.8,0)">20%</text></g><g class="xtick"><text text-anchor="middle" x="0" y="451" style="font-family: 'Lucida Grande', 'Open Sans', verdana, arial, sans-serif; font-size: 10px; fill: rgb(0, 0, 0); fill-opacity: 1; white-space: pre;" transform="translate(465.6,0)">40%</text></g><g class="xtick"><text text-anchor="middle" x="0" y="451" style="font-family: 'Lucida Grande', 'Open Sans', verdana, arial, sans-serif; font-size: 10px; fill: rgb(0, 0, 0); fill-opacity: 1; white-space: pre;" transform="translate(668.4,0)">60%</text></g><g class="xtick"><text text-anchor="middle" x="0" y="451" style="font-family: 'Lucida Grande', 'Open Sans', verdana, arial, sans-serif; font-size: 10px; fill: rgb(0, 0, 0); fill-opacity: 1; white-space: pre;" transform="translate(871.2,0)">80%</text></g><g class="xtick"><text text-anchor="middle" x="0" y="451" style="font-family: 'Lucida Grande', 'Open Sans', verdana, arial, sans-serif; font-size: 10px; fill: rgb(0, 0, 0); fill-opacity: 1; white-space: pre;" transform="translate(1074,0)">100%</text></g></g><g class="yaxislayer-above"><g class="ytick"><text text-anchor="end" x="54" y="3.5" transform="translate(0,435)" style="font-family: 'Lucida Grande', 'Open Sans', verdana, arial, sans-serif; font-size: 10px; fill: rgb(0, 0, 0); fill-opacity: 1; white-space: pre;">0%</text></g><g class="ytick"><text text-anchor="end" x="54" y="3.5" style="font-family: 'Lucida Grande', 'Open Sans', verdana, arial, sans-serif; font-size: 10px; fill: rgb(0, 0, 0); fill-opacity: 1; white-space: pre;" transform="translate(0,376.68)">1%</text></g><g class="ytick"><text text-anchor="end" x="54" y="3.5" style="font-family: 'Lucida Grande', 'Open Sans', verdana, arial, sans-serif; font-size: 10px; fill: rgb(0, 0, 0); fill-opacity: 1; white-space: pre;" transform="translate(0,318.35)">2%</text></g><g class="ytick"><text text-anchor="end" x="54" y="3.5" style="font-family: 'Lucida Grande', 'Open Sans', verdana, arial, sans-serif; font-size: 10px; fill: rgb(0, 0, 0); fill-opacity: 1; white-space: pre;" transform="translate(0,260.03)">3%</text></g><g class="ytick"><text text-anchor="end" x="54" y="3.5" style="font-family: 'Lucida Grande', 'Open Sans', verdana, arial, sans-serif; font-size: 10px; fill: rgb(0, 0, 0); fill-opacity: 1; white-space: pre;" transform="translate(0,201.71)">4%</text></g><g class="ytick"><text text-anchor="end" x="54" y="3.5" style="font-family: 'Lucida Grande', 'Open Sans', verdana, arial, sans-serif; font-size: 10px; fill: rgb(0, 0, 0); fill-opacity: 1; white-space: pre;" transform="translate(0,143.38)">5%</text></g><g class="ytick"><text text-anchor="end" x="54" y="3.5" style="font-family: 'Lucida Grande', 'Open Sans', verdana, arial, sans-serif; font-size: 10px; fill: rgb(0, 0, 0); fill-opacity: 1; white-space: pre;" transform="translate(0,85.06)">6%</text></g></g><g class="overaxes-above"/></g></g><g class="polarlayer"/><g class="smithlayer"/><g class="ternarylayer"/><g class="geolayer"/><g class="funnelarealayer"/><g class="pielayer"/><g class="iciclelayer"/><g class="treemaplayer"/><g class="sunburstlayer"/><g class="glimages"/><defs id="topdefs-ff5ecc"><g class="clips"/></defs><g class="layer-above"><g class="imagelayer"/><g class="shapelayer"/></g><g class="infolayer"><g class="g-gtitle"><text class="gtitle" x="550" y="25" text-anchor="middle" dy="0em" style="opacity: 1; font-family: 'Lucida Grande', 'Open Sans', verdana, arial, sans-serif; font-size: 20px; fill: rgb(68, 68, 68); fill-opacity: 1; white-space: pre;"><tspan class="line" dy="0em" x="550" y="25">FastQC: Per Sequence GC Content</tspan><tspan class="line" dy="1.3em" x="550" y="25">​<tspan style="font-size:70%" dy="-0.6em">Percentages, 32 lines</tspan><tspan dy="0.42em">​</tspan></tspan></text></g><g class="g-xtitle"><text class="xtitle" x="567" y="487" text-anchor="middle" style="opacity: 0.3; font-family: 'Lucida Grande', 'Open Sans', verdana, arial, sans-serif; font-size: 14px; fill: rgb(0, 0, 0); fill-opacity: 1; white-space: pre;">% GC</text></g><g class="g-ytitle"><text class="ytitle" transform="rotate(-90,22,242.5)" x="22" y="242.5" text-anchor="middle" style="opacity: 0.3; font-family: 'Lucida Grande', 'Open Sans', verdana, arial, sans-serif; font-size: 14px; fill: rgb(0, 0, 0); fill-opacity: 1; white-space: pre;">Percentage</text></g></g></svg>