<svg class="main-svg" xmlns="http://www.w3.org/2000/svg" xmlns:xlink="http://www.w3.org/1999/xlink" width="2200" height="1000" style="" viewBox="0 0 1100 500"><rect x="0" y="0" width="1100" height="500" style="fill: rgb(255, 255, 255); fill-opacity: 1;"/><defs id="defs-1a688b"><g class="clips"><clipPath id="clip1a688bxyplot" class="plotclip"><rect width="1014" height="385"/></clipPath><clipPath class="axesclip" id="clip1a688bx"><rect x="60" y="0" width="1014" height="500"/></clipPath><clipPath class="axesclip" id="clip1a688by"><rect x="0" y="50" width="1100" height="385"/></clipPath><clipPath class="axesclip" id="clip1a688bxy"><rect x="60" y="50" width="1014" height="385"/></clipPath></g><g class="gradients"/><g class="patterns"/></defs><g class="bglayer"/><g class="layer-below"><g class="imagelayer"/><g class="shapelayer"/></g><g class="cartesianlayer"><g class="subplot xy"><g class="layer-subplot"><g class="shapelayer"/><g class="imagelayer"/></g><g class="minor-gridlayer"><g class="x"/><g class="y"/></g><g class="gridlayer"><g class="x"><path class="xgrid crisp" transform="translate(262.8,0)" d="M0,50v385" style="stroke: rgb(0, 0, 0); stroke-opacity: 0.05; stroke-width: 1px;"/><path class="xgrid crisp" transform="translate(465.6,0)" d="M0,50v385" style="stroke: rgb(0, 0, 0); stroke-opacity: 0.05; stroke-width: 1px;"/><path class="xgrid crisp" transform="translate(668.4,0)" d="M0,50v385" style="stroke: rgb(0, 0, 0); stroke-opacity: 0.05; stroke-width: 1px;"/><path class="xgrid crisp" transform="translate(871.2,0)" d="M0,50v385" style="stroke: rgb(0, 0, 0); stroke-opacity: 0.05; stroke-width: 1px;"/></g><g class="y"><path class="ygrid crisp" transform="translate(0,384.28)" d="M60,0h1014" style="stroke: rgb(0, 0, 0); stroke-opacity: 0.05; stroke-width: 1px;"/><path class="ygrid crisp" transform="translate(0,333.55)" d="M60,0h1014" style="stroke: rgb(0, 0, 0); stroke-opacity: 0.05; stroke-width: 1px;"/><path class="ygrid crisp" transform="translate(0,282.83000000000004)" d="M60,0h1014" style="stroke: rgb(0, 0, 0); stroke-opacity: 0.05; stroke-width: 1px;"/><path class="ygrid crisp" transform="translate(0,232.1)" d="M60,0h1014" style="stroke: rgb(0, 0, 0); stroke-opacity: 0.05; stroke-width: 1px;"/><path class="ygrid crisp" transform="translate(0,181.38)" d="M60,0h1014" style="stroke: rgb(0, 0, 0); stroke-opacity: 0.05; stroke-width: 1px;"/><path class="ygrid crisp" transform="translate(0,130.66)" d="M60,0h1014" style="stroke: rgb(0, 0, 0); stroke-opacity: 0.05; stroke-width: 1px;"/><path class="ygrid crisp" transform="translate(0,79.93)" d="M60,0h1014" style="stroke: rgb(0, 0, 0); stroke-opacity: 0.05; stroke-width: 1px;"/></g></g><g class="zerolinelayer"><path class="xzl zl crisp" transform="translate(60,0)" d="M0,50v385" style="stroke: rgb(0, 0, 0); stroke-opacity: 0.05; stroke-width: 1px;"/><path class="yzl zl crisp" transform="translate(0,435)" d="M60,0h1014" style="stroke: rgb(0, 0, 0); stroke-opacity: 0.05; stroke-width: 1px;"/></g><g class="layer-between"><g class="shapelayer"/><g class="imagelayer"/></g><path class="xlines-below"/><path class="ylines-below"/><g class="overlines-below"/><g class="xaxislayer-below"/><g class="yaxislayer-below"/><g class="overaxes-below"/><g class="overplot"><g class="xy" transform="translate(60,50)" clip-path="url(#clip1a688bxyplot)"><g class="scatterlayer mlayer"><g class="trace scatter tracee20e67" style="stroke-miterlimit: 2; opacity: 1;"><g class="fills"/><g class="errorbars"/><g class="lines"><path class="js-line" d="M0,384.49L50.7,384.82L60.84,384.77L192.66,383.7L202.8,383.43L223.08,382.23L233.22,380.86L243.36,378.85L253.5,376.02L263.64,371.4L273.78,364.72L294.06,351.41L304.2,340.61L314.34,328.99L324.48,318.84L334.62,306.09L344.76,291.32L354.9,278.02L365.04,266.68L375.18,256.01L385.32,247.57L405.6,233.31L415.74,223.93L425.88,218.78L436.02,217.05L446.16,201.57L456.3,191.56L466.44,191.86L476.58,191.36L486.72,191.22L496.86,194.7L507,204L517.14,211.35L527.28,212.64L537.42,218.85L547.56,232.55L557.7,243.84L577.98,270.76L588.12,279.06L598.26,284.33L608.4,287.48L618.54,287.15L628.68,292.94L638.82,303.49L648.96,322.66L659.1,349.15L669.24,361.3L679.38,364.27L689.52,366.42L709.8,372.53L719.94,373.04L740.22,377.17L750.36,376.83L760.5,375.68L770.64,375.63L780.78,374.53L790.92,374.85L801.06,376.09L811.2,374.26L821.34,372.22L831.48,366.8L841.62,366.46L851.76,372.13L882.18,381.46L892.32,383.46L912.6,384.62L922.74,384.89L1014,385" style="vector-effect: none; fill: none; stroke: rgb(92, 184, 92); stroke-opacity: 1; stroke-width: 2px; opacity: 1;"/></g><g class="points"/><g class="text"/></g><g class="trace scatter trace4c3b9a" style="stroke-miterlimit: 2; opacity: 1;"><g class="fills"/><g class="errorbars"/><g class="lines"><path class="js-line" d="M0,384.63L81.12,384.72L91.26,384.68L182.52,383.86L192.66,383.53L212.94,382.19L223.08,381.03L233.22,379.24L243.36,376.64L253.5,372.6L263.64,367.1L283.92,350.75L294.06,344.41L304.2,335.08L314.34,324.28L354.9,274.1L365.04,264.66L375.18,257.04L385.32,250.5L405.6,236.92L415.74,227.64L425.88,221.48L436.02,214.16L446.16,199.72L456.3,198.49L466.44,206.13L476.58,208.31L496.86,210.72L507,213.05L527.28,226.22L537.42,229.8L557.7,248.28L567.84,255.85L588.12,276.67L598.26,284.78L618.54,289.36L628.68,296.65L638.82,303.03L648.96,316.48L659.1,340.78L669.24,354.59L679.38,359.71L689.52,362.67L709.8,369.65L719.94,371.07L750.36,374.06L760.5,373.64L770.64,374.79L780.78,374.52L790.92,375.07L801.06,377.12L811.2,377.09L821.34,373.54L831.48,365.08L841.62,363.14L851.76,369.42L861.9,372.52L872.04,375.43L882.18,380.14L892.32,382.89L902.46,383.8L932.88,384.74L943.02,384.81L1014,384.96" style="vector-effect: none; fill: none; stroke: rgb(92, 184, 92); stroke-opacity: 1; stroke-width: 2px; opacity: 1;"/></g><g class="points"/><g class="text"/></g><g class="trace scatter tracee7948f" style="stroke-miterlimit: 2; opacity: 1;"><g class="fills"/><g class="errorbars"/><g class="lines"><path class="js-line" d="M0,381.27L20.28,384.68L30.42,384.74L202.8,384.04L212.94,383.77L233.22,382.67L243.36,381.67L263.64,378.11L273.78,375.01L294.06,367.63L304.2,361.9L324.48,347.91L334.62,339.2L365.04,310.78L375.18,302.49L395.46,289.32L405.6,283.23L415.74,277.28L425.88,272.95L436.02,269.56L446.16,263.46L456.3,258.36L466.44,254.85L476.58,237.58L486.72,195.92L496.86,109.73L507,146.24L517.14,254.28L527.28,268.31L537.42,277.5L547.56,290.45L557.7,300.49L567.84,308.81L577.98,315.63L588.12,319.97L608.4,323.45L618.54,326.22L628.68,332.57L638.82,340.17L648.96,349.31L659.1,362.04L669.24,369.11L679.38,370.69L709.8,372.06L719.94,371.22L730.08,371.26L740.22,370.52L750.36,366.13L760.5,358.16L780.78,350.25L790.92,339.74L801.06,328.14L811.2,318.38L821.34,295.26L831.48,221.57L841.62,194.4L851.76,210.18L861.9,208.35L872.04,234.22L882.18,278.14L892.32,310.79L902.46,319.34L912.6,342.83L922.74,371.62L932.88,381.02L943.02,382.71L953.16,383.28L1003.86,384.94L1014,384.96" style="vector-effect: none; fill: none; stroke: rgb(217, 83, 79); stroke-opacity: 1; stroke-width: 2px; opacity: 1;"/></g><g class="points"/><g class="text"/></g><g class="trace scatter tracee9b0b3" style="stroke-miterlimit: 2; opacity: 1;"><g class="fills"/><g class="errorbars"/><g class="lines"><path class="js-line" d="M0,383.92L40.56,384.27L50.7,384.37L141.96,384.55L152.1,384.51L212.94,383.43L223.08,382.9L243.36,381.02L253.5,379.48L263.64,377.33L273.78,374.07L294.06,366.39L304.2,361.06L314.34,354.55L324.48,346.81L344.76,329.2L354.9,320.14L375.18,304.71L385.32,298.69L415.74,282.05L425.88,277.92L436.02,274.87L446.16,269.87L456.3,262.8L466.44,249.34L476.58,126.87L486.72,37.03L496.86,153.73L507,256.6L517.14,271.52L527.28,280.42L537.42,287.27L547.56,296.03L557.7,304.72L567.84,311.48L588.12,321.9L598.26,325.99L618.54,329.36L628.68,333.9L638.82,339.33L648.96,346.7L659.1,358.11L669.24,365.44L679.38,368.02L689.52,368.99L719.94,371.33L730.08,370.34L740.22,368.07L750.36,364.5L760.5,360.84L770.64,358.39L780.78,352.28L790.92,342.92L811.2,324.56L821.34,299.25L831.48,228.65L841.62,198.05L851.76,215.34L861.9,210.36L872.04,226.88L882.18,279.72L892.32,317.5L902.46,325.62L912.6,345.26L922.74,369.46L932.88,379.2L943.02,381.48L973.44,383.69L983.58,384.14L1014,384.8" style="vector-effect: none; fill: none; stroke: rgb(217, 83, 79); stroke-opacity: 1; stroke-width: 2px; opacity: 1;"/></g><g class="points"/><g class="text"/></g><g class="trace scatter trace27b8be" style="stroke-miterlimit: 2; opacity: 1;"><g class="fills"/><g class="errorbars"/><g class="lines"><path class="js-line" d="M0,380.5L20.28,384.73L30.42,384.77L233.22,384.42L243.36,384.16L273.78,382.5L283.92,381.75L314.34,378.44L324.48,377.17L344.76,373.56L354.9,370.68L365.04,367.01L375.18,365.01L385.32,363.56L395.46,360.03L405.6,357.61L415.74,354.06L425.88,347.45L436.02,333.15L446.16,316.64L456.3,303.44L476.58,221.69L486.72,166.89L496.86,99.95L507,130.98L517.14,176.37L527.28,181.21L547.56,206.76L557.7,208.44L567.84,206.18L577.98,215.19L588.12,192.08L598.26,192.12L608.4,229.76L618.54,242.51L628.68,259.89L638.82,293.73L648.96,319.56L659.1,314.66L669.24,296.45L679.38,281.35L689.52,287.63L699.66,309.61L709.8,318.15L719.94,330.42L730.08,339.47L740.22,339.49L750.36,327.74L760.5,307.79L770.64,301.95L780.78,318.98L790.92,337.37L801.06,347.64L811.2,354.85L821.34,353.41L831.48,338.46L841.62,336.79L851.76,350.4L861.9,356.66L872.04,363.33L882.18,371.53L892.32,376.2L902.46,378.02L922.74,382.96L932.88,384.01L963.3,384.62L973.44,384.74L1014,384.96" style="vector-effect: none; fill: none; stroke: rgb(217, 83, 79); stroke-opacity: 1; stroke-width: 2px; opacity: 1;"/></g><g class="points"/><g class="text"/></g><g class="trace scatter trace5f86b4" style="stroke-miterlimit: 2; opacity: 1;"><g class="fills"/><g class="errorbars"/><g class="lines"><path class="js-line" d="M0,384.08L30.42,384.15L40.56,384.08L111.54,384.73L121.68,384.73L233.22,384.09L243.36,383.8L273.78,381.85L283.92,380.93L314.34,377.94L324.48,376.47L354.9,371.27L365.04,369.05L385.32,362.4L395.46,359.04L405.6,354.81L415.74,348.08L425.88,336.04L436.02,266.22L446.16,210.14L456.3,250.25L466.44,257.85L476.58,214.86L486.72,208.51L496.86,209.93L507,201.03L517.14,206.57L527.28,203.38L537.42,195.84L547.56,210.28L557.7,209.66L567.84,196L577.98,209.94L588.12,217.2L598.26,221.1L608.4,239.18L618.54,238.1L628.68,251.38L638.82,280.33L648.96,297.16L659.1,303.82L679.38,292.16L689.52,294.73L699.66,302.1L709.8,311.1L719.94,325.83L730.08,330.41L740.22,325.15L750.36,326.59L760.5,327.16L770.64,329.89L780.78,334.09L790.92,334.11L811.2,352.51L821.34,353.56L831.48,345.52L841.62,341.5L851.76,347.48L861.9,350.83L872.04,354.81L882.18,364.2L892.32,371.93L902.46,374.9L922.74,380.87L932.88,382.3L963.3,383.77L973.44,384.05L1014,384.78" style="vector-effect: none; fill: none; stroke: rgb(217, 83, 79); stroke-opacity: 1; stroke-width: 2px; opacity: 1;"/></g><g class="points"/><g class="text"/></g><g class="trace scatter trace10fbf6" style="stroke-miterlimit: 2; opacity: 1;"><g class="fills"/><g class="errorbars"/><g class="lines"><path class="js-line" d="M0,383.26L30.42,384.56L40.56,384.53L182.52,384.06L192.66,383.8L223.08,382.29L233.22,381L253.5,376.68L263.64,371.95L273.78,364.89L283.92,360L294.06,354.77L304.2,344.42L314.34,333.83L324.48,325.6L334.62,314.75L344.76,300.89L354.9,288.32L365.04,277.14L375.18,266.48L385.32,259.8L405.6,248.9L415.74,243.19L436.02,230.14L446.16,222.34L456.3,215.87L466.44,212.42L476.58,208.2L486.72,202.51L496.86,203.11L507,207.96L517.14,208.5L527.28,204.81L537.42,210.74L547.56,225.24L577.98,253.2L588.12,258.03L598.26,252.4L608.4,254.92L618.54,257.67L628.68,264.81L638.82,279.62L648.96,302.76L659.1,337.5L669.24,354.68L679.38,359.44L689.52,362.38L709.8,369.73L719.94,371.13L740.22,375.34L750.36,375.61L770.64,375.77L780.78,374.79L801.06,376.08L811.2,374.3L831.48,373.03L841.62,373.69L851.76,376.79L861.9,379.03L882.18,383.02L892.32,383.88L953.16,384.98L963.3,384.98L1014,385" style="vector-effect: none; fill: none; stroke: rgb(92, 184, 92); stroke-opacity: 1; stroke-width: 2px; opacity: 1;"/></g><g class="points"/><g class="text"/></g><g class="trace scatter traced7fe5a" style="stroke-miterlimit: 2; opacity: 1;"><g class="fills"/><g class="errorbars"/><g class="lines"><path class="js-line" d="M0,384.42L60.84,384.57L70.98,384.58L172.38,384.05L182.52,383.81L212.94,382.19L223.08,381.09L243.36,377.28L253.5,373.54L263.64,368.2L273.78,359.86L283.92,352.97L294.06,348.3L304.2,340.06L314.34,330.4L334.62,307.12L344.76,296.61L354.9,285.63L365.04,276.92L375.18,269.37L385.32,264.11L395.46,259.37L405.6,252.73L425.88,238.82L436.02,233.32L446.16,229.2L456.3,223.81L476.58,217.33L486.72,213.36L496.86,214.7L507,218.34L537.42,228.86L547.56,235.09L567.84,247.8L577.98,251.03L588.12,254.92L598.26,260.23L618.54,261.51L628.68,269.16L638.82,279.29L648.96,296.47L659.1,323.52L669.24,341.18L679.38,348.91L689.52,354.13L709.8,363.66L719.94,366.47L740.22,370.42L750.36,371.41L790.92,373.92L801.06,375.67L811.2,376.4L821.34,374.79L831.48,371.38L841.62,370.77L872.04,376.83L882.18,379.98L892.32,382.13L902.46,383.07L932.88,384.51L943.02,384.65L1014,384.95" style="vector-effect: none; fill: none; stroke: rgb(92, 184, 92); stroke-opacity: 1; stroke-width: 2px; opacity: 1;"/></g><g class="points"/><g class="text"/></g><g class="trace scatter traceefd345" style="stroke-miterlimit: 2; opacity: 1;"><g class="fills"/><g class="errorbars"/><g class="lines"><path class="js-line" d="M0,383.44L30.42,384.67L40.56,384.65L182.52,383.98L192.66,383.68L223.08,382.33L233.22,381.12L243.36,379.23L253.5,376.47L263.64,372.22L273.78,366.44L283.92,360.28L294.06,353.06L324.48,324.16L334.62,313.57L365.04,281.45L375.18,272.88L385.32,266.41L395.46,261.15L415.74,251.26L425.88,247.08L446.16,240.25L456.3,237.63L466.44,233.48L476.58,224.48L486.72,221.52L496.86,233.48L507,245.78L517.14,252.31L527.28,258.63L537.42,267.58L547.56,278.63L557.7,288.57L577.98,307.16L588.12,314.76L598.26,320.89L608.4,325.45L618.54,328.64L628.68,335.18L638.82,342.4L648.96,350.76L659.1,361.69L669.24,367.41L679.38,368.81L689.52,369.35L699.66,370.01L709.8,369.84L730.08,367.48L740.22,363.8L750.36,354.48L760.5,346.55L770.64,344.66L780.78,341.9L790.92,331.17L801.06,313.5L811.2,300.49L821.34,296.18L831.48,270.42L841.62,264.01L851.76,276.07L861.9,270.33L872.04,284.2L882.18,317.73L892.32,340.82L902.46,348.96L922.74,373.56L932.88,379.12L943.02,381.51L953.16,382.46L1003.86,384.89L1014,384.94" style="vector-effect: none; fill: none; stroke: rgb(217, 83, 79); stroke-opacity: 1; stroke-width: 2px; opacity: 1;"/></g><g class="points"/><g class="text"/></g><g class="trace scatter trace24669c" style="stroke-miterlimit: 2; opacity: 1;"><g class="fills"/><g class="errorbars"/><g class="lines"><path class="js-line" d="M0,384.32L60.84,384.53L70.98,384.51L182.52,383.68L192.66,383.37L212.94,382.26L223.08,381.22L243.36,377.34L253.5,374.11L263.64,369.63L273.78,363.36L294.06,349.28L304.2,340.42L324.48,320.6L334.62,310.13L354.9,289.64L365.04,280.63L375.18,273.75L385.32,268.14L405.6,257.45L415.74,252.73L425.88,247.75L436.02,235.95L446.16,226.66L456.3,232.79L466.44,239.69L476.58,241.36L486.72,243.09L496.86,246.08L507,250.46L517.14,256.9L537.42,272.08L547.56,280.99L567.84,298.58L577.98,306.18L598.26,320.83L608.4,325.75L618.54,329.87L628.68,335.54L638.82,341.31L648.96,348.42L659.1,358.31L669.24,364.54L679.38,366.86L689.52,368.17L709.8,369.79L719.94,369.88L730.08,368.13L740.22,362.84L760.5,347.03L770.64,344.3L780.78,339.42L790.92,328.88L801.06,315.14L811.2,306.47L821.34,304.18L831.48,276.25L841.62,263.96L851.76,275.2L861.9,268.11L872.04,277.93L882.18,313.84L892.32,339.02L902.46,347.37L912.6,359.86L922.74,371.94L932.88,377.92L943.02,380.6L953.16,381.78L1003.86,384.67L1014,384.77" style="vector-effect: none; fill: none; stroke: rgb(217, 83, 79); stroke-opacity: 1; stroke-width: 2px; opacity: 1;"/></g><g class="points"/><g class="text"/></g><g class="trace scatter trace4355af" style="stroke-miterlimit: 2; opacity: 1;"><g class="fills"/><g class="errorbars"/><g class="lines"><path class="js-line" d="M0,382.98L20.28,384.72L30.42,384.7L192.66,383.9L202.8,383.7L223.08,382.84L233.22,381.97L253.5,379.07L263.64,376.2L273.78,371.39L283.92,367.98L294.06,364.66L304.2,357.51L314.34,349.93L324.48,343.34L334.62,334.18L344.76,322.41L365.04,297.84L375.18,286.51L415.74,246.43L425.88,237.43L436.02,229.32L446.16,216.64L466.44,187.81L476.58,188.53L486.72,194.66L496.86,194.89L507,199.66L517.14,202.13L527.28,200.42L537.42,205.45L547.56,220L557.7,231.44L577.98,250.96L588.12,253.69L598.26,241.85L608.4,243.54L618.54,252.92L628.68,261.1L638.82,273.95L648.96,296.66L659.1,333.24L669.24,352.84L679.38,357.83L689.52,360.45L709.8,367.53L719.94,368.62L740.22,373.51L750.36,373.62L770.64,373.53L780.78,371.48L790.92,371.57L801.06,372.96L811.2,371.17L821.34,370.52L831.48,369L841.62,370L851.76,374.29L861.9,376.78L882.18,381.35L892.32,382.78L932.88,384.9L943.02,384.94L1014,385" style="vector-effect: none; fill: none; stroke: rgb(92, 184, 92); stroke-opacity: 1; stroke-width: 2px; opacity: 1;"/></g><g class="points"/><g class="text"/></g><g class="trace scatter trace61eee0" style="stroke-miterlimit: 2; opacity: 1;"><g class="fills"/><g class="errorbars"/><g class="lines"><path class="js-line" d="M0,384.19L40.56,384.58L50.7,384.61L172.38,384.29L182.52,384.11L212.94,382.91L223.08,382.16L243.36,379.65L253.5,377.31L263.64,373.99L273.78,368.61L283.92,363.98L294.06,360.98L304.2,355.41L314.34,348.32L334.62,327.67L344.76,316.89L354.9,304.39L365.04,293.76L375.18,283.92L385.32,275.25L395.46,266.95L405.6,257.23L425.88,237.75L436.02,231.08L446.16,225.07L456.3,217.88L466.44,212.77L476.58,194.14L486.72,178.44L496.86,192.67L507,207.77L517.14,213.58L527.28,218.39L537.42,221.81L547.56,229.37L557.7,238.22L567.84,245.1L577.98,248.65L588.12,252.23L598.26,257.75L608.4,257.83L618.54,256.59L638.82,272.75L648.96,289.46L659.1,321.46L669.24,342.4L679.38,349.66L689.52,353.49L699.66,357.7L709.8,362.82L719.94,365.49L730.08,367.11L740.22,369.48L750.36,370.23L760.5,370.38L770.64,371.95L780.78,371.56L790.92,372.22L801.06,374.77L811.2,375.4L821.34,372.47L831.48,366.86L841.62,366.04L851.76,368.99L861.9,370.54L872.04,373.8L882.18,378.64L892.32,381.73L922.74,384.3L932.88,384.61L1014,384.96" style="vector-effect: none; fill: none; stroke: rgb(240, 173, 78); stroke-opacity: 1; stroke-width: 2px; opacity: 1;"/></g><g class="points"/><g class="text"/></g><g class="trace scatter trace9ef09c" style="stroke-miterlimit: 2; opacity: 1;"><g class="fills"/><g class="errorbars"/><g class="lines"><path class="js-line" d="M0,384.96L223.08,384.45L233.22,384.25L253.5,383.24L263.64,381.81L273.78,378.91L283.92,378.03L294.06,377.87L304.2,373.67L314.34,369.21L324.48,367.23L334.62,364.66L344.76,360.94L365.04,351.22L375.18,349.27L385.32,350.89L395.46,351.09L415.74,347.92L425.88,342.32L436.02,324.98L446.16,296.22L456.3,274.32L466.44,257.42L486.72,217.35L496.86,217.03L507,227L517.14,207.68L527.28,196.82L537.42,209.65L547.56,215.86L557.7,214.66L567.84,200.81L577.98,207.08L588.12,207.04L598.26,196.07L608.4,205.99L618.54,202.53L628.68,222.52L638.82,248.89L648.96,249.27L659.1,269.59L669.24,297.45L679.38,304.57L689.52,306.79L699.66,306.73L709.8,306.4L719.94,316.66L730.08,306.43L740.22,302.86L750.36,323.87L760.5,334.28L770.64,327.29L780.78,330.56L790.92,348.51L801.06,357.77L811.2,354.37L821.34,343.25L831.48,348.28L841.62,355.68L851.76,361.8L861.9,369.86L872.04,371.53L882.18,376.98L892.32,382.19L902.46,384.02L932.88,384.88L943.02,384.92L1014,385" style="vector-effect: none; fill: none; stroke: rgb(240, 173, 78); stroke-opacity: 1; stroke-width: 2px; opacity: 1;"/></g><g class="points"/><g class="text"/></g><g class="trace scatter tracec166cf" style="stroke-miterlimit: 2; opacity: 1;"><g class="fills"/><g class="errorbars"/><g class="lines"><path class="js-line" d="M0,384.98L212.94,384.56L223.08,384.32L243.36,383.59L253.5,382.25L263.64,380.61L273.78,377.63L283.92,375.61L294.06,375.4L304.2,373.22L314.34,370.19L334.62,359.37L344.76,357.3L365.04,350.73L375.18,350.48L385.32,352.8L395.46,354.13L405.6,352.01L415.74,348.68L425.88,341.76L436.02,323.22L446.16,301.67L456.3,268.72L466.44,241.63L476.58,225.22L486.72,206.21L496.86,205.83L507,219.71L517.14,224.39L527.28,201.77L537.42,190.05L547.56,199.85L557.7,205.17L567.84,187.8L577.98,202.35L588.12,226.49L598.26,221.86L608.4,231.19L618.54,246.24L628.68,267.29L638.82,290.33L648.96,305.46L659.1,304.42L669.24,307.45L679.38,308L699.66,312.99L709.8,302.07L719.94,299.72L730.08,294.2L740.22,295.11L750.36,306.63L760.5,318.89L770.64,328.98L780.78,328.14L790.92,331.88L801.06,346.6L811.2,354.12L821.34,346.46L831.48,341.36L841.62,344.26L851.76,341.07L861.9,341.2L872.04,356.24L882.18,369.25L892.32,377.68L902.46,382.35L912.6,383.5L943.02,384.53L953.16,384.67L1014,384.94" style="vector-effect: none; fill: none; stroke: rgb(240, 173, 78); stroke-opacity: 1; stroke-width: 2px; opacity: 1;"/></g><g class="points"/><g class="text"/></g><g class="trace scatter tracecfde2c" style="stroke-miterlimit: 2; opacity: 1;"><g class="fills"/><g class="errorbars"/><g class="lines"><path class="js-line" d="M0,383.91L30.42,384.79L40.56,384.77L182.52,384.21L192.66,384.01L223.08,383.26L233.22,382.62L253.5,380.43L263.64,378.2L273.78,374.27L283.92,371.63L294.06,369.68L304.2,364.47L324.48,353.7L334.62,346.37L375.18,309.01L385.32,301.66L415.74,279.56L425.88,271.5L436.02,261.24L446.16,240.67L456.3,225.74L466.44,222.56L476.58,216.36L486.72,200.42L496.86,190.23L507,197.02L517.14,199.47L527.28,197.98L537.42,204.07L547.56,217.85L557.7,226.66L567.84,228.46L577.98,235.33L588.12,233.92L598.26,229.36L608.4,240.05L618.54,248.53L628.68,261.41L648.96,305.71L659.1,325.16L669.24,331.09L679.38,328.4L689.52,330.8L699.66,340.73L730.08,357.53L740.22,360.39L750.36,356.41L760.5,347.29L770.64,342.92L780.78,349.67L790.92,359.19L801.06,363.31L811.2,364.55L821.34,364.48L831.48,359.31L841.62,359.25L851.76,365.93L861.9,369.3L892.32,380.38L902.46,381.59L932.88,384.5L943.02,384.69L1014,384.98" style="vector-effect: none; fill: none; stroke: rgb(240, 173, 78); stroke-opacity: 1; stroke-width: 2px; opacity: 1;"/></g><g class="points"/><g class="text"/></g><g class="trace scatter trace5e66e1" style="stroke-miterlimit: 2; opacity: 1;"><g class="fills"/><g class="errorbars"/><g class="lines"><path class="js-line" d="M0,384.51L60.84,384.75L70.98,384.76L192.66,384.09L202.8,383.83L233.22,382.2L243.36,381.15L263.64,377.26L273.78,373.38L283.92,369.9L294.06,367.73L304.2,363.84L314.34,358.64L344.76,334.88L354.9,324.98L375.18,308.92L385.32,302.23L395.46,295.63L405.6,287.8L456.3,244.69L466.44,230.81L476.58,206.11L486.72,193.83L496.86,201.47L507,207.22L517.14,211.61L527.28,213.18L537.42,213.6L547.56,221.57L557.7,225.84L567.84,225.34L608.4,249.87L618.54,248.52L628.68,257.3L638.82,275.15L648.96,292.89L659.1,313.86L669.24,322.28L679.38,324.55L689.52,328.81L699.66,334.55L719.94,348.6L730.08,351.52L740.22,350.81L750.36,351.67L760.5,352.49L770.64,354.78L790.92,357.33L801.06,361.96L811.2,365L821.34,364.68L831.48,360.97L841.62,359.63L851.76,363.04L861.9,365.13L872.04,367.92L882.18,373.55L892.32,378.04L902.46,379.89L922.74,382.93L932.88,383.69L973.44,384.62L983.58,384.71L1014,384.91" style="vector-effect: none; fill: none; stroke: rgb(240, 173, 78); stroke-opacity: 1; stroke-width: 2px; opacity: 1;"/></g><g class="points"/><g class="text"/></g><g class="trace scatter trace9924f3" style="stroke-miterlimit: 2; opacity: 1;"><g class="fills"/><g class="errorbars"/><g class="lines"><path class="js-line" d="M0,382.62L20.28,384.74L30.42,384.75L202.8,384.2L212.94,383.93L233.22,382.68L243.36,381.61L263.64,378.29L273.78,375.86L294.06,370.7L304.2,367.43L365.04,347.05L375.18,344.49L395.46,341.64L405.6,340.51L425.88,338.64L436.02,338.08L456.3,335.12L466.44,334.3L476.58,329.73L486.72,319.36L496.86,298.33L507,307.67L517.14,335.26L527.28,339.85L537.42,343.67L547.56,348.53L567.84,354.9L577.98,357.81L588.12,360.11L598.26,361.62L618.54,363.11L628.68,365L648.96,369.84L659.1,372.69L669.24,373.13L679.38,372.02L709.8,369.37L719.94,366.66L730.08,360.89L740.22,347.36L750.36,330.41L760.5,315.4L770.64,303.95L780.78,284.72L790.92,244.11L801.06,195.75L811.2,170.02L821.34,162.37L831.48,83.33L841.62,50.26L851.76,65.87L861.9,19.25L872.04,35.59L882.18,143.94L892.32,223.32L902.46,247.23L922.74,339.37L932.88,359.91L943.02,367.72L953.16,371.5L993.72,383.84L1003.86,384.57L1014,384.78" style="vector-effect: none; fill: none; stroke: rgb(217, 83, 79); stroke-opacity: 1; stroke-width: 2px; opacity: 1;"/></g><g class="points"/><g class="text"/></g><g class="trace scatter tracecf748b" style="stroke-miterlimit: 2; opacity: 1;"><g class="fills"/><g class="errorbars"/><g class="lines"><path class="js-line" d="M0,384.26L50.7,384.54L60.84,384.6L192.66,384.23L202.8,383.97L233.22,382.08L243.36,380.85L263.64,377.37L273.78,374.82L304.2,366.72L314.34,363.52L354.9,350.07L365.04,347.23L385.32,343.8L395.46,342.65L425.88,339.47L436.02,339.06L456.3,336.65L466.44,333.64L476.58,301.86L486.72,277.9L496.86,307.66L507,334.33L517.14,338.96L527.28,342.5L567.84,354.66L577.98,357.12L598.26,361.9L608.4,363.14L628.68,364.76L638.82,366.28L659.1,370.99L669.24,371.63L689.52,370.73L699.66,370.39L719.94,368.13L730.08,362.39L740.22,347.97L750.36,331.8L760.5,317.91L770.64,305.94L780.78,287.06L790.92,250.79L801.06,205.45L811.2,184L821.34,184.49L831.48,105.9L841.62,56.34L851.76,67.78L861.9,19.94L872.04,24.95L882.18,134.1L892.32,217.16L902.46,241.99L912.6,286.36L922.74,332.93L932.88,355.67L943.02,364.69L953.16,369.09L983.58,379.83L993.72,382.66L1014,384.18" style="vector-effect: none; fill: none; stroke: rgb(217, 83, 79); stroke-opacity: 1; stroke-width: 2px; opacity: 1;"/></g><g class="points"/><g class="text"/></g><g class="trace scatter traceaacb81" style="stroke-miterlimit: 2; opacity: 1;"><g class="fills"/><g class="errorbars"/><g class="lines"><path class="js-line" d="M0,383.64L30.42,384.74L40.56,384.73L172.38,383.72L182.52,383.27L233.22,381.72L243.36,380.44L253.5,378.53L263.64,375.27L294.06,360.37L304.2,351.64L324.48,332.82L334.62,321.12L354.9,294.6L365.04,282.96L375.18,272.69L385.32,264.62L425.88,238.17L436.02,232.32L446.16,225.99L456.3,220.89L466.44,217.45L476.58,209.36L486.72,190.72L496.86,153.16L507,170.36L517.14,216.8L527.28,219.85L537.42,228.41L547.56,243.43L557.7,253.68L567.84,262.8L577.98,268.72L588.12,269.21L598.26,260.91L608.4,255.96L618.54,252.53L628.68,259.89L638.82,276.91L648.96,300.08L659.1,336.53L669.24,356.44L679.38,359.88L689.52,361.32L699.66,365L709.8,368.52L719.94,369.3L740.22,374.52L750.36,373.51L760.5,371.86L770.64,371.7L780.78,371.08L790.92,371.31L801.06,371.11L811.2,369.09L821.34,365.77L831.48,357.77L841.62,357.53L851.76,362.97L861.9,365.75L872.04,372L882.18,378.09L892.32,380.75L902.46,381.17L912.6,382.57L922.74,384.05L932.88,384.64L993.72,384.98L1003.86,384.99L1014,384.99" style="vector-effect: none; fill: none; stroke: rgb(240, 173, 78); stroke-opacity: 1; stroke-width: 2px; opacity: 1;"/></g><g class="points"/><g class="text"/></g><g class="trace scatter trace1ca92b" style="stroke-miterlimit: 2; opacity: 1;"><g class="fills"/><g class="errorbars"/><g class="lines"><path class="js-line" d="M0,384.51L60.84,384.64L70.98,384.6L182.52,383.92L192.66,383.68L223.08,382.15L233.22,381.12L243.36,379.64L253.5,377.14L263.64,373.58L273.78,367.56L283.92,362.02L294.06,357.46L304.2,349.73L314.34,340.58L334.62,316.83L344.76,305.12L354.9,293.45L365.04,283.69L375.18,275.22L385.32,268.3L425.88,239.89L436.02,235.71L446.16,232.03L456.3,226.79L466.44,219.39L476.58,164.26L486.72,124.26L496.86,176.71L507,223.84L517.14,233.18L537.42,244.01L547.56,251.67L557.7,258.59L567.84,264.5L588.12,269.73L598.26,272.6L618.54,264.65L628.68,267.21L638.82,270.93L648.96,287.77L659.1,323.05L669.24,345.69L679.38,353.02L689.52,356.55L699.66,360.4L709.8,365.17L730.08,369.46L740.22,371.22L760.5,369.53L770.64,370.46L790.92,369.68L801.06,371.08L811.2,370.4L821.34,367.32L831.48,359.05L841.62,357.26L851.76,362.42L861.9,365.17L872.04,369.8L882.18,375.98L892.32,379.59L902.46,380.57L922.74,383.69L932.88,384.34L983.58,384.87L993.72,384.92L1014,384.95" style="vector-effect: none; fill: none; stroke: rgb(240, 173, 78); stroke-opacity: 1; stroke-width: 2px; opacity: 1;"/></g><g class="points"/><g class="text"/></g><g class="trace scatter trace57c9db" style="stroke-miterlimit: 2; opacity: 1;"><g class="fills"/><g class="errorbars"/><g class="lines"><path class="js-line" d="M0,383.18L20.28,384.73L30.42,384.72L172.38,384.04L182.52,383.62L212.94,381.59L223.08,380.04L233.22,377.64L243.36,374.43L253.5,370.19L263.64,364.67L283.92,351L294.06,342.85L324.48,313.95L334.62,303.37L354.9,280.81L365.04,268.26L375.18,255.93L385.32,245.78L395.46,236.66L405.6,228.58L415.74,221.6L425.88,216.1L436.02,211.68L446.16,205.92L456.3,201.05L466.44,198.93L476.58,196.94L486.72,196.3L496.86,200.37L507,206.65L517.14,211.48L527.28,212.59L537.42,222.36L547.56,239.88L557.7,252.41L567.84,263.7L577.98,274.39L588.12,280.92L598.26,279.14L608.4,276.54L618.54,275.01L628.68,283.7L638.82,298.88L648.96,319.32L659.1,347.99L669.24,362.75L679.38,366.07L689.52,368.34L709.8,373.6L719.94,374.53L740.22,378.62L750.36,378.82L760.5,378.66L770.64,379.34L790.92,379.59L801.06,379.32L811.2,378.29L821.34,376.38L831.48,372.58L841.62,373.35L851.76,376.42L861.9,377.42L882.18,382.55L892.32,383.76L953.16,384.97L963.3,384.97L1014,384.99" style="vector-effect: none; fill: none; stroke: rgb(92, 184, 92); stroke-opacity: 1; stroke-width: 2px; opacity: 1;"/></g><g class="points"/><g class="text"/></g><g class="trace scatter trace930a22" style="stroke-miterlimit: 2; opacity: 1;"><g class="fills"/><g class="errorbars"/><g class="lines"><path class="js-line" d="M0,384.38L50.7,384.52L60.84,384.54L152.1,384.05L162.24,383.85L192.66,382.33L202.8,381.33L223.08,377.62L233.22,374.63L243.36,370.67L253.5,365.74L263.64,359.82L273.78,352.89L294.06,337.54L304.2,328.63L324.48,309.34L334.62,298.79L375.18,256.27L385.32,247.86L405.6,231.72L415.74,224.64L425.88,218.59L436.02,215.49L456.3,208.37L466.44,207.07L476.58,206.85L486.72,207.45L496.86,211.41L507,217.36L527.28,231.7L537.42,239.4L567.84,266.85L577.98,272.32L598.26,283.56L608.4,285.04L618.54,284.17L628.68,288.76L638.82,294L648.96,308.07L659.1,334.52L669.24,350.28L679.38,356.83L689.52,360.41L699.66,364.01L709.8,368.53L730.08,373L740.22,374.86L801.06,378.03L811.2,378.16L821.34,377.06L831.48,373.47L841.62,373.1L851.76,375.9L861.9,376.96L872.04,378.83L882.18,381.57L892.32,383.11L932.88,384.72L943.02,384.8L1014,384.95" style="vector-effect: none; fill: none; stroke: rgb(92, 184, 92); stroke-opacity: 1; stroke-width: 2px; opacity: 1;"/></g><g class="points"/><g class="text"/></g><g class="trace scatter trace88709b" style="stroke-miterlimit: 2; opacity: 1;"><g class="fills"/><g class="errorbars"/><g class="lines"><path class="js-line" d="M0,381.5L20.28,384.64L30.42,384.66L182.52,383.79L192.66,383.29L212.94,381.65L223.08,380.03L233.22,377.56L243.36,374.01L253.5,369.29L263.64,362.63L294.06,336.06L304.2,324.12L334.62,288.83L344.76,275.81L365.04,252.25L375.18,241.86L385.32,234.01L395.46,227.75L415.74,216.63L425.88,212.07L456.3,201.6L466.44,201.03L476.58,200.08L486.72,200.27L496.86,206.28L507,214.87L527.28,228.85L537.42,239.73L547.56,254.14L557.7,266.74L577.98,290.12L588.12,299.42L608.4,310.67L618.54,317.68L638.82,336.2L648.96,346.59L659.1,360.05L669.24,367.9L679.38,370.45L689.52,372.17L709.8,375.02L719.94,375.06L740.22,377.34L750.36,376.3L760.5,374.77L770.64,374.69L780.78,373.62L790.92,371.3L801.06,368.9L811.2,365.62L821.34,360.9L831.48,349.08L841.62,348.94L851.76,356.4L861.9,356.6L872.04,360.06L892.32,374.13L902.46,377.41L922.74,383.53L932.88,384.42L993.72,384.97L1003.86,384.98L1014,384.99" style="vector-effect: none; fill: none; stroke: rgb(240, 173, 78); stroke-opacity: 1; stroke-width: 2px; opacity: 1;"/></g><g class="points"/><g class="text"/></g><g class="trace scatter trace85f068" style="stroke-miterlimit: 2; opacity: 1;"><g class="fills"/><g class="errorbars"/><g class="lines"><path class="js-line" d="M0,383.8L30.42,384.27L40.56,384.2L131.82,384.1L141.96,383.96L182.52,382.88L192.66,382.23L212.94,379.76L223.08,377.61L233.22,374.45L243.36,370.24L253.5,364.6L263.64,357.32L294.06,329.22L304.2,318.44L324.48,295.27L334.62,283.41L354.9,261.44L365.04,251.94L375.18,244.1L385.32,237.83L415.74,220.85L425.88,216.47L456.3,209.44L466.44,209.51L476.58,209.42L486.72,210.33L496.86,216.1L507,223.32L527.28,240.37L537.42,249.36L567.84,280.94L577.98,290.24L598.26,307.77L608.4,314.11L618.54,318.83L628.68,325.01L638.82,331.02L648.96,339.68L659.1,353.05L669.24,361.43L679.38,365.4L689.52,368.21L709.8,372.69L719.94,373.84L740.22,374.89L750.36,374.19L760.5,373.24L770.64,373.53L811.2,368.24L821.34,364.38L831.48,351.91L841.62,348.23L851.76,354.37L861.9,353.25L872.04,355.45L882.18,365.68L892.32,373.87L902.46,376.77L922.74,382.61L932.88,383.76L973.44,384.57L983.58,384.69L1014,384.91" style="vector-effect: none; fill: none; stroke: rgb(240, 173, 78); stroke-opacity: 1; stroke-width: 2px; opacity: 1;"/></g><g class="points"/><g class="text"/></g><g class="trace scatter trace7d92a1" style="stroke-miterlimit: 2; opacity: 1;"><g class="fills"/><g class="errorbars"/><g class="lines"><path class="js-line" d="M0,383.71L30.42,384.8L40.56,384.78L192.66,384.25L202.8,383.96L223.08,382.81L233.22,381.7L253.5,378L263.64,375.01L283.92,367.08L294.06,362.5L334.62,339.05L344.76,332.48L375.18,314.94L385.32,310.15L425.88,293.17L436.02,283.93L456.3,253.47L466.44,235.33L476.58,216.9L486.72,212.33L496.86,222.6L507,234.78L517.14,226.7L527.28,221.02L537.42,224.71L547.56,231.71L557.7,239L567.84,232.74L577.98,242.71L588.12,258.23L598.26,256.09L608.4,261.74L618.54,264.87L628.68,277.74L638.82,296.36L648.96,304.04L659.1,317.05L669.24,323.64L679.38,316.51L689.52,313.93L699.66,320.43L709.8,320.76L719.94,323.79L730.08,319.27L740.22,319.85L750.36,334.44L760.5,341.48L770.64,334.51L780.78,331.84L790.92,343.01L801.06,350.15L811.2,344.93L821.34,333.99L831.48,334.06L841.62,335.91L851.76,344.6L861.9,357.63L872.04,363.48L882.18,372.99L892.32,380.24L902.46,382.2L912.6,383.27L932.88,384.73L943.02,384.83L1014,384.99" style="vector-effect: none; fill: none; stroke: rgb(217, 83, 79); stroke-opacity: 1; stroke-width: 2px; opacity: 1;"/></g><g class="points"/><g class="text"/></g><g class="trace scatter traceff0d76" style="stroke-miterlimit: 2; opacity: 1;"><g class="fills"/><g class="errorbars"/><g class="lines"><path class="js-line" d="M0,384.53L60.84,384.73L70.98,384.72L182.52,384.21L192.66,383.96L223.08,381.97L233.22,380.57L253.5,376.06L263.64,372.64L294.06,359.19L304.2,353.79L354.9,324.63L365.04,319.45L385.32,310.79L395.46,307.11L415.74,299.44L425.88,294.9L436.02,285.93L446.16,275.34L456.3,259.41L466.44,240.57L476.58,220.5L486.72,206.91L496.86,215.4L507,232.51L517.14,237.73L527.28,227.05L537.42,217.35L547.56,223.01L557.7,236.27L567.84,238.26L577.98,251.22L588.12,266.64L598.26,273.45L608.4,283.28L618.54,284.96L628.68,292.24L638.82,306.88L648.96,319.19L659.1,324.09L669.24,324.01L679.38,317.84L689.52,319.3L699.66,324.42L709.8,318.96L719.94,320L730.08,316.89L740.22,316L750.36,321.35L760.5,328.48L770.64,337.39L780.78,335.84L790.92,337.25L801.06,347.81L811.2,351.75L821.34,342.7L831.48,330.35L841.62,328.46L851.76,330.52L861.9,332.12L872.04,345.07L882.18,362.82L892.32,375L902.46,379.88L912.6,381.78L932.88,383.92L943.02,384.24L1003.86,384.91L1014,384.92" style="vector-effect: none; fill: none; stroke: rgb(217, 83, 79); stroke-opacity: 1; stroke-width: 2px; opacity: 1;"/></g><g class="points"/><g class="text"/></g><g class="trace scatter trace38e772" style="stroke-miterlimit: 2; opacity: 1;"><g class="fills"/><g class="errorbars"/><g class="lines"><path class="js-line" d="M0,381.3L20.28,384.66L30.42,384.7L182.52,383.98L192.66,383.6L212.94,382.44L223.08,381.24L243.36,377.05L253.5,373.78L263.64,369.19L273.78,362.96L294.06,350.99L304.2,342.68L334.62,315.77L344.76,304.95L375.18,271.74L385.32,262.84L405.6,246.85L415.74,238.7L425.88,232.3L436.02,227.98L446.16,217.16L456.3,204.33L466.44,192.27L476.58,193.84L486.72,202.52L496.86,204.6L517.14,215.3L527.28,214.28L537.42,221.31L547.56,239.44L557.7,251.91L567.84,261.42L577.98,270.82L588.12,275.11L598.26,270.39L608.4,269.43L618.54,264.75L628.68,264.76L638.82,276.03L648.96,302.98L659.1,341.76L669.24,358.58L679.38,362.47L689.52,364.66L699.66,367.69L709.8,369.88L719.94,370.23L730.08,372.75L740.22,375.7L750.36,375.03L760.5,374.42L770.64,374.8L790.92,371.3L801.06,370.93L821.34,366.04L831.48,358.95L841.62,358.36L851.76,364.07L861.9,367.12L872.04,373.21L882.18,378.68L892.32,381.27L902.46,381.68L912.6,382.85L922.74,384.28L932.88,384.8L1014,385" style="vector-effect: none; fill: none; stroke: rgb(240, 173, 78); stroke-opacity: 1; stroke-width: 2px; opacity: 1;"/></g><g class="points"/><g class="text"/></g><g class="trace scatter trace87302b" style="stroke-miterlimit: 2; opacity: 1;"><g class="fills"/><g class="errorbars"/><g class="lines"><path class="js-line" d="M0,384.09L30.42,384.31L40.56,384.25L162.24,384.12L172.38,383.9L202.8,382.13L212.94,380.92L233.22,376.89L243.36,373.71L253.5,369.51L263.64,364.29L283.92,350.74L294.06,344.74L314.34,328.86L324.48,319.53L365.04,280.46L375.18,271.72L415.74,241.66L425.88,235.64L436.02,232.75L446.16,227.56L456.3,220.78L466.44,216.94L476.58,200.47L486.72,188.17L507,220.13L517.14,227.15L527.28,233.84L537.42,238.74L547.56,247.35L557.7,257.44L567.84,264.21L577.98,266.02L588.12,268.39L598.26,272.99L608.4,271.92L618.54,269.71L628.68,276.22L638.82,284.07L648.96,300.58L659.1,330.47L669.24,348.26L679.38,354.46L699.66,361.24L709.8,366.28L740.22,372.2L750.36,372.04L760.5,371.48L770.64,372.54L780.78,371.41L790.92,371.26L801.06,373.07L811.2,373.05L821.34,368.7L831.48,358.48L841.62,355.65L851.76,360.29L861.9,361.78L872.04,367.06L882.18,375.91L892.32,380.21L912.6,382.41L922.74,383.89L943.02,384.69L953.16,384.78L1014,384.95" style="vector-effect: none; fill: none; stroke: rgb(240, 173, 78); stroke-opacity: 1; stroke-width: 2px; opacity: 1;"/></g><g class="points"/><g class="text"/></g><g class="trace scatter tracea3acb1" style="stroke-miterlimit: 2; opacity: 1;"><g class="fills"/><g class="errorbars"/><g class="lines"><path class="js-line" d="M0,383.63L30.42,384.71L40.56,384.71L182.52,384.15L192.66,383.88L212.94,382.98L223.08,382.03L243.36,378.35L253.5,375.46L263.64,370.79L273.78,364.14L283.92,357.52L294.06,349.69L314.34,326.25L324.48,314.25L334.62,300.74L344.76,285.58L354.9,271.04L365.04,258.58L375.18,247.42L385.32,238.73L405.6,224.66L415.74,218.48L436.02,209.26L446.16,201.25L456.3,196.21L466.44,199.66L476.58,203.37L486.72,204.78L496.86,209.34L507,217.18L517.14,224.83L527.28,231.29L537.42,241.14L547.56,254.97L577.98,290.08L588.12,299.07L598.26,304.06L608.4,310.31L618.54,315.27L628.68,321.37L638.82,329.37L648.96,341.08L659.1,357.11L669.24,365.04L689.52,368.42L699.66,370.09L709.8,371.12L719.94,370.83L740.22,371.53L750.36,368.91L760.5,366.87L770.64,366.73L780.78,365.73L790.92,362.61L801.06,356.95L811.2,353L821.34,351.35L831.48,343.07L841.62,339.82L851.76,343.72L861.9,346.8L872.04,357.34L882.18,369.78L892.32,374.7L902.46,375.28L912.6,378.54L922.74,382.32L932.88,383.91L953.16,384.72L963.3,384.81L1014,384.98" style="vector-effect: none; fill: none; stroke: rgb(217, 83, 79); stroke-opacity: 1; stroke-width: 2px; opacity: 1;"/></g><g class="points"/><g class="text"/></g><g class="trace scatter trace517d40" style="stroke-miterlimit: 2; opacity: 1;"><g class="fills"/><g class="errorbars"/><g class="lines"><path class="js-line" d="M0,384.65L81.12,384.58L91.26,384.59L172.38,383.93L182.52,383.64L212.94,381.85L223.08,380.54L243.36,376.07L253.5,372.36L263.64,367.14L273.78,359.65L294.06,343.52L304.2,332.97L314.34,320.83L324.48,307.21L354.9,266.68L365.04,255.81L375.18,246.98L385.32,239.71L415.74,221.52L425.88,216.38L436.02,212.66L446.16,210.03L456.3,208.3L466.44,208.7L476.58,207.67L486.72,207.69L496.86,215.28L507,224.26L527.28,241.47L537.42,250.18L567.84,281.14L577.98,289.69L598.26,306.4L608.4,311.35L618.54,315.46L628.68,322.55L638.82,330.86L648.96,340.41L659.1,352.3L669.24,360.13L679.38,363.33L689.52,365.53L709.8,369.39L719.94,370.48L740.22,369.87L750.36,367.63L760.5,365.7L770.64,365.52L780.78,362.88L790.92,359.29L801.06,356.55L811.2,355.59L821.34,354.2L831.48,343.36L841.62,338.68L851.76,343.55L861.9,346.58L872.04,355.44L882.18,367.66L892.32,373.49L902.46,374.71L912.6,378.14L922.74,381.92L932.88,383.6L953.16,384.56L963.3,384.69L1014,384.93" style="vector-effect: none; fill: none; stroke: rgb(217, 83, 79); stroke-opacity: 1; stroke-width: 2px; opacity: 1;"/></g><g class="points"/><g class="text"/></g><g class="trace scatter trace2ac86f" style="stroke-miterlimit: 2; opacity: 1;"><g class="fills"/><g class="errorbars"/><g class="lines"><path class="js-line" d="M0,380.72L20.28,384.55L30.42,384.6L192.66,383.95L202.8,383.66L223.08,382.62L233.22,381.6L253.5,378.32L263.64,375.54L283.92,367.4L294.06,362.22L304.2,354.87L314.34,346.06L324.48,336.2L334.62,324.72L365.04,284.82L375.18,271.53L385.32,260.07L395.46,249.76L415.74,233.28L425.88,227.11L436.02,221.96L446.16,206.39L456.3,195.57L466.44,204.39L476.58,211.82L486.72,211.72L496.86,214.52L507,220.85L517.14,227.03L527.28,230.79L537.42,239.41L547.56,253.12L567.84,273.69L577.98,282.89L588.12,288.61L598.26,289.76L618.54,299.16L628.68,305.88L638.82,314.5L648.96,329.44L659.1,351.65L669.24,362.83L679.38,365.94L689.52,368.01L709.8,372.59L719.94,373.59L730.08,374.52L740.22,374.39L750.36,372.34L760.5,367.95L780.78,365.52L790.92,360.52L801.06,354.2L811.2,349.9L821.34,343.53L831.48,318.1L841.62,307.32L851.76,312.16L861.9,311.5L872.04,324.57L882.18,344.58L892.32,357.24L902.46,361.39L912.6,369.88L922.74,379.53L932.88,383.24L953.16,384.37L963.3,384.53L1014,384.96" style="vector-effect: none; fill: none; stroke: rgb(217, 83, 79); stroke-opacity: 1; stroke-width: 2px; opacity: 1;"/></g><g class="points"/><g class="text"/></g><g class="trace scatter tracefec4f9" style="stroke-miterlimit: 2; opacity: 1;"><g class="fills"/><g class="errorbars"/><g class="lines"><path class="js-line" d="M0,383.84L30.42,384.14L40.56,384.05L131.82,384.41L141.96,384.36L192.66,383.54L202.8,383.13L223.08,381.69L233.22,380.52L253.5,376.66L263.64,373.62L283.92,364.59L294.06,359.1L304.2,351.89L314.34,342.84L334.62,320L344.76,307.33L365.04,281.14L375.18,269.47L395.46,250.71L405.6,242.77L415.74,235.65L425.88,230.21L436.02,226.98L446.16,222.89L456.3,218.99L466.44,217.31L476.58,208.51L486.72,202.16L496.86,213.48L507,226.48L527.28,241.46L537.42,248.49L557.7,267.02L567.84,274.81L598.26,293.95L608.4,296.47L618.54,298.53L628.68,305.5L638.82,314.19L648.96,326.32L659.1,344.29L669.24,355.95L679.38,361.12L689.52,364.39L709.8,369.99L719.94,371.82L730.08,372.52L740.22,371.67L760.5,369.03L770.64,368.1L780.78,364.76L790.92,359.77L811.2,350.84L821.34,343.52L831.48,318.35L841.62,305.33L851.76,311.65L861.9,309.95L872.04,320.08L882.18,344.51L892.32,358.56L902.46,361.57L912.6,369.37L922.74,378.6L932.88,382.51L943.02,383.6L983.58,384.65L993.72,384.8L1014,384.91" style="vector-effect: none; fill: none; stroke: rgb(217, 83, 79); stroke-opacity: 1; stroke-width: 2px; opacity: 1;"/></g><g class="points"/><g class="text"/></g></g></g></g><g class="zerolinelayer-above"/><path class="xlines-above crisp" d="M0,0" style="fill: none;"/><path class="ylines-above crisp" d="M0,0" style="fill: none;"/><g class="overlines-above"/><g class="xaxislayer-above"><g class="xtick"><text text-anchor="middle" x="0" y="451" transform="translate(60,0)" style="font-family: 'Lucida Grande', 'Open Sans', verdana, arial, sans-serif; font-size: 10px; fill: rgb(0, 0, 0); fill-opacity: 1; white-space: pre;">0%</text></g><g class="xtick"><text text-anchor="middle" x="0" y="451" style="font-family: 'Lucida Grande', 'Open Sans', verdana, arial, sans-serif; font-size: 10px; fill: rgb(0, 0, 0); fill-opacity: 1; white-space: pre;" transform="translate(262.8,0)">20%</text></g><g class="xtick"><text text-anchor="middle" x="0" y="451" style="font-family: 'Lucida Grande', 'Open Sans', verdana, arial, sans-serif; font-size: 10px; fill: rgb(0, 0, 0); fill-opacity: 1; white-space: pre;" transform="translate(465.6,0)">40%</text></g><g class="xtick"><text text-anchor="middle" x="0" y="451" style="font-family: 'Lucida Grande', 'Open Sans', verdana, arial, sans-serif; font-size: 10px; fill: rgb(0, 0, 0); fill-opacity: 1; white-space: pre;" transform="translate(668.4,0)">60%</text></g><g class="xtick"><text text-anchor="middle" x="0" y="451" style="font-family: 'Lucida Grande', 'Open Sans', verdana, arial, sans-serif; font-size: 10px; fill: rgb(0, 0, 0); fill-opacity: 1; white-space: pre;" transform="translate(871.2,0)">80%</text></g><g class="xtick"><text text-anchor="middle" x="0" y="451" style="font-family: 'Lucida Grande', 'Open Sans', verdana, arial, sans-serif; font-size: 10px; fill: rgb(0, 0, 0); fill-opacity: 1; white-space: pre;" transform="translate(1074,0)">100%</text></g></g><g class="yaxislayer-above"><g class="ytick"><text text-anchor="end" x="54" y="3.5" transform="translate(0,435)" style="font-family: 'Lucida Grande', 'Open Sans', verdana, arial, sans-serif; font-size: 10px; fill: rgb(0, 0, 0); fill-opacity: 1; white-space: pre;">0%</text></g><g class="ytick"><text text-anchor="end" x="54" y="3.5" style="font-family: 'Lucida Grande', 'Open Sans', verdana, arial, sans-serif; font-size: 10px; fill: rgb(0, 0, 0); fill-opacity: 1; white-space: pre;" transform="translate(0,384.28)">1%</text></g><g class="ytick"><text text-anchor="end" x="54" y="3.5" style="font-family: 'Lucida Grande', 'Open Sans', verdana, arial, sans-serif; font-size: 10px; fill: rgb(0, 0, 0); fill-opacity: 1; white-space: pre;" transform="translate(0,333.55)">2%</text></g><g class="ytick"><text text-anchor="end" x="54" y="3.5" style="font-family: 'Lucida Grande', 'Open Sans', verdana, arial, sans-serif; font-size: 10px; fill: rgb(0, 0, 0); fill-opacity: 1; white-space: pre;" transform="translate(0,282.83000000000004)">3%</text></g><g class="ytick"><text text-anchor="end" x="54" y="3.5" style="font-family: 'Lucida Grande', 'Open Sans', verdana, arial, sans-serif; font-size: 10px; fill: rgb(0, 0, 0); fill-opacity: 1; white-space: pre;" transform="translate(0,232.1)">4%</text></g><g class="ytick"><text text-anchor="end" x="54" y="3.5" style="font-family: 'Lucida Grande', 'Open Sans', verdana, arial, sans-serif; font-size: 10px; fill: rgb(0, 0, 0); fill-opacity: 1; white-space: pre;" transform="translate(0,181.38)">5%</text></g><g class="ytick"><text text-anchor="end" x="54" y="3.5" style="font-family: 'Lucida Grande', 'Open Sans', verdana, arial, sans-serif; font-size: 10px; fill: rgb(0, 0, 0); fill-opacity: 1; white-space: pre;" transform="translate(0,130.66)">6%</text></g><g class="ytick"><text text-anchor="end" x="54" y="3.5" style="font-family: 'Lucida Grande', 'Open Sans', verdana, arial, sans-serif; font-size: 10px; fill: rgb(0, 0, 0); fill-opacity: 1; white-space: pre;" transform="translate(0,79.93)">7%</text></g></g><g class="overaxes-above"/></g></g><g class="polarlayer"/><g class="smithlayer"/><g class="ternarylayer"/><g class="geolayer"/><g class="funnelarealayer"/><g class="pielayer"/><g class="iciclelayer"/><g class="treemaplayer"/><g class="sunburstlayer"/><g class="glimages"/><defs id="topdefs-1a688b"><g class="clips"/></defs><g class="layer-above"><g class="imagelayer"/><g class="shapelayer"/></g><g class="infolayer"><g class="g-gtitle"><text class="gtitle" x="550" y="25" text-anchor="middle" dy="0em" style="opacity: 1; font-family: 'Lucida Grande', 'Open Sans', verdana, arial, sans-serif; font-size: 20px; fill: rgb(68, 68, 68); fill-opacity: 1; white-space: pre;"><tspan class="line" dy="0em" x="550" y="25">FastQC: Per Sequence GC Content</tspan><tspan class="line" dy="1.3em" x="550" y="25">​<tspan style="font-size:70%" dy="-0.6em">Percentages, 32 lines</tspan><tspan dy="0.42em">​</tspan></tspan></text></g><g class="g-xtitle"><text class="xtitle" x="567" y="487" text-anchor="middle" style="opacity: 0.3; font-family: 'Lucida Grande', 'Open Sans', verdana, arial, sans-serif; font-size: 14px; fill: rgb(0, 0, 0); fill-opacity: 1; white-space: pre;">% GC</text></g><g class="g-ytitle"><text class="ytitle" transform="rotate(-90,22,242.5)" x="22" y="242.5" text-anchor="middle" style="opacity: 0.3; font-family: 'Lucida Grande', 'Open Sans', verdana, arial, sans-serif; font-size: 14px; fill: rgb(0, 0, 0); fill-opacity: 1; white-space: pre;">Percentage</text></g></g></svg>