<svg class="main-svg" xmlns="http://www.w3.org/2000/svg" xmlns:xlink="http://www.w3.org/1999/xlink" width="2200" height="1000" style="" viewBox="0 0 1100 500"><rect x="0" y="0" width="1100" height="500" style="fill: rgb(255, 255, 255); fill-opacity: 1;"/><defs id="defs-329338"><g class="clips"><clipPath id="clip329338xyplot" class="plotclip"><rect width="1025" height="385"/></clipPath><clipPath class="axesclip" id="clip329338x"><rect x="60" y="0" width="1025" height="500"/></clipPath><clipPath class="axesclip" id="clip329338y"><rect x="0" y="50" width="1100" height="385"/></clipPath><clipPath class="axesclip" id="clip329338xy"><rect x="60" y="50" width="1025" height="385"/></clipPath></g><g class="gradients"/><g class="patterns"/></defs><g class="bglayer"/><g class="layer-below"><g class="imagelayer"/><g class="shapelayer"><g class="shape-group" data-index="0" clip-path="url(#clip329338y)"><path data-index="0" fill-rule="evenodd" d="M60,179.13H1085V-478.83000000000004H60Z" style="opacity: 0.13; stroke: rgb(0, 0, 0); stroke-opacity: 0; fill: rgb(0, 149, 0); fill-opacity: 1; stroke-width: 0px;"/></g><g class="shape-group" data-index="1" clip-path="url(#clip329338y)"><path data-index="1" fill-rule="evenodd" d="M60,252.23H1085V179.13H60Z" style="opacity: 0.13; stroke: rgb(0, 0, 0); stroke-opacity: 0; fill: rgb(160, 115, 0); fill-opacity: 1; stroke-width: 0px;"/></g><g class="shape-group" data-index="2" clip-path="url(#clip329338y)"><path data-index="2" fill-rule="evenodd" d="M60,435H1085V252.23H60Z" style="opacity: 0.13; stroke: rgb(0, 0, 0); stroke-opacity: 0; fill: rgb(153, 1, 1); fill-opacity: 1; stroke-width: 0px;"/></g><g class="shape-group" data-index="3" clip-path="url(#clip329338y)"><path data-index="3" fill-rule="evenodd" d="M60,179.13H1085V-478.83000000000004H60Z" style="opacity: 0.13; stroke: rgb(0, 0, 0); stroke-opacity: 0; fill: rgb(0, 149, 0); fill-opacity: 1; stroke-width: 0px;"/></g><g class="shape-group" data-index="4" clip-path="url(#clip329338y)"><path data-index="4" fill-rule="evenodd" d="M60,252.23H1085V179.13H60Z" style="opacity: 0.13; stroke: rgb(0, 0, 0); stroke-opacity: 0; fill: rgb(160, 115, 0); fill-opacity: 1; stroke-width: 0px;"/></g><g class="shape-group" data-index="5" clip-path="url(#clip329338y)"><path data-index="5" fill-rule="evenodd" d="M60,435H1085V252.23H60Z" style="opacity: 0.13; stroke: rgb(0, 0, 0); stroke-opacity: 0; fill: rgb(153, 1, 1); fill-opacity: 1; stroke-width: 0px;"/></g></g></g><g class="cartesianlayer"><g class="subplot xy"><g class="layer-subplot"><g class="shapelayer"/><g class="imagelayer"/></g><g class="minor-gridlayer"><g class="x"/><g class="y"/></g><g class="gridlayer"><g class="x"><path class="xgrid crisp" transform="translate(196.67,0)" d="M0,50v385" style="stroke: rgb(0, 0, 0); stroke-opacity: 0.05; stroke-width: 1px;"/><path class="xgrid crisp" transform="translate(333.33,0)" d="M0,50v385" style="stroke: rgb(0, 0, 0); stroke-opacity: 0.05; stroke-width: 1px;"/><path class="xgrid crisp" transform="translate(470,0)" d="M0,50v385" style="stroke: rgb(0, 0, 0); stroke-opacity: 0.05; stroke-width: 1px;"/><path class="xgrid crisp" transform="translate(606.67,0)" d="M0,50v385" style="stroke: rgb(0, 0, 0); stroke-opacity: 0.05; stroke-width: 1px;"/><path class="xgrid crisp" transform="translate(743.33,0)" d="M0,50v385" style="stroke: rgb(0, 0, 0); stroke-opacity: 0.05; stroke-width: 1px;"/><path class="xgrid crisp" transform="translate(880,0)" d="M0,50v385" style="stroke: rgb(0, 0, 0); stroke-opacity: 0.05; stroke-width: 1px;"/><path class="xgrid crisp" transform="translate(1016.67,0)" d="M0,50v385" style="stroke: rgb(0, 0, 0); stroke-opacity: 0.05; stroke-width: 1px;"/></g><g class="y"><path class="ygrid crisp" transform="translate(0,389.31)" d="M60,0h1025" style="stroke: rgb(0, 0, 0); stroke-opacity: 0.05; stroke-width: 1px;"/><path class="ygrid crisp" transform="translate(0,343.62)" d="M60,0h1025" style="stroke: rgb(0, 0, 0); stroke-opacity: 0.05; stroke-width: 1px;"/><path class="ygrid crisp" transform="translate(0,297.91999999999996)" d="M60,0h1025" style="stroke: rgb(0, 0, 0); stroke-opacity: 0.05; stroke-width: 1px;"/><path class="ygrid crisp" transform="translate(0,252.23)" d="M60,0h1025" style="stroke: rgb(0, 0, 0); stroke-opacity: 0.05; stroke-width: 1px;"/><path class="ygrid crisp" transform="translate(0,206.54)" d="M60,0h1025" style="stroke: rgb(0, 0, 0); stroke-opacity: 0.05; stroke-width: 1px;"/><path class="ygrid crisp" transform="translate(0,160.85)" d="M60,0h1025" style="stroke: rgb(0, 0, 0); stroke-opacity: 0.05; stroke-width: 1px;"/><path class="ygrid crisp" transform="translate(0,115.16)" d="M60,0h1025" style="stroke: rgb(0, 0, 0); stroke-opacity: 0.05; stroke-width: 1px;"/><path class="ygrid crisp" transform="translate(0,69.47)" d="M60,0h1025" style="stroke: rgb(0, 0, 0); stroke-opacity: 0.05; stroke-width: 1px;"/></g></g><g class="zerolinelayer"><path class="xzl zl crisp" transform="translate(60,0)" d="M0,50v385" style="stroke: rgb(0, 0, 0); stroke-opacity: 0.05; stroke-width: 1px;"/><path class="yzl zl crisp" transform="translate(0,435)" d="M60,0h1025" style="stroke: rgb(0, 0, 0); stroke-opacity: 0.05; stroke-width: 1px;"/></g><g class="layer-between"><g class="shapelayer"/><g class="imagelayer"/></g><path class="xlines-below"/><path class="ylines-below"/><g class="overlines-below"/><g class="xaxislayer-below"/><g class="yaxislayer-below"/><g class="overaxes-below"/><g class="overplot"><g class="xy" transform="translate(60,50)" clip-path="url(#clip329338xyplot)"><g class="scatterlayer mlayer"><g class="trace scatter trace5ccfb8" style="stroke-miterlimit: 2; opacity: 1;"><g class="fills"/><g class="errorbars"/><g class="lines"><path class="js-line" d="M6.83,107.01L13.67,98.89L20.5,70.53L27.33,57.9L34.17,54.53L41,23.41L47.83,21.18L61.5,19.61L68.33,18.9L170.83,20.17L205,21.27L375.83,23.74L410,24.23L478.33,25.89L512.5,28.25L546.67,24.93L580.83,25.14L717.5,29.04L751.67,30.47L888.33,37.22L922.5,39.78L990.83,46.63L1025,48.89" style="vector-effect: none; fill: none; stroke: rgb(92, 184, 92); stroke-opacity: 1; stroke-width: 2px; opacity: 1;"/></g><g class="points"/><g class="text"/></g><g class="trace scatter trace7968b0" style="stroke-miterlimit: 2; opacity: 1;"><g class="fills"/><g class="errorbars"/><g class="lines"><path class="js-line" d="M6.83,103.5L13.67,101.35L20.5,74.33L27.33,63.48L34.17,60.31L41,31.79L47.83,31.71L61.5,30.18L68.33,29.99L170.83,34.23L205,34.25L239.17,38.37L273.33,39.9L307.5,41.52L341.67,42.05L478.33,46.71L512.5,50.91L546.67,44.64L580.83,46.6L683.33,54.38L717.5,57.84L820,71.66L854.17,78.09L922.5,90.04L956.67,96.49L990.83,98.69L1025,102.93" style="vector-effect: none; fill: none; stroke: rgb(92, 184, 92); stroke-opacity: 1; stroke-width: 2px; opacity: 1;"/></g><g class="points"/><g class="text"/></g><g class="trace scatter trace79dc08" style="stroke-miterlimit: 2; opacity: 1;"><g class="fills"/><g class="errorbars"/><g class="lines"><path class="js-line" d="M6.83,101.96L13.67,96.27L20.5,65.29L27.33,55.07L34.17,53.15L41,21.53L47.83,20.61L54.67,19.34L61.5,18.9L68.33,18.45L102.5,18.85L136.67,18.75L170.83,19.66L239.17,21.38L273.33,23.89L341.67,22.94L375.83,23.97L444.17,24.64L478.33,39.74L512.5,46.16L546.67,43.29L615,44.45L649.17,45.3L751.67,49.74L785.83,51.84L854.17,57.34L888.33,61.93L922.5,68.48L956.67,76.83L990.83,86.81L1025,93.04" style="vector-effect: none; fill: none; stroke: rgb(92, 184, 92); stroke-opacity: 1; stroke-width: 2px; opacity: 1;"/></g><g class="points"/><g class="text"/></g><g class="trace scatter traceda814d" style="stroke-miterlimit: 2; opacity: 1;"><g class="fills"/><g class="errorbars"/><g class="lines"><path class="js-line" d="M6.83,102.44L13.67,100.68L20.5,74.34L27.33,63.45L34.17,61.49L41,34.94L47.83,33.7L54.67,33.4L61.5,31.99L68.33,31.89L102.5,34.02L136.67,33.31L170.83,36.27L205,36.37L239.17,42.4L273.33,42.47L307.5,44.47L341.67,44.77L375.83,47.33L410,49.62L444.17,49.57L478.33,49.68L512.5,72.24L546.67,66.67L580.83,69.54L649.17,76.13L683.33,80.45L717.5,84.66L751.67,90.31L820,100.71L854.17,107.34L922.5,121.56L956.67,130.59L1025,143.72" style="vector-effect: none; fill: none; stroke: rgb(92, 184, 92); stroke-opacity: 1; stroke-width: 2px; opacity: 1;"/></g><g class="points"/><g class="text"/></g><g class="trace scatter trace6cbfb6" style="stroke-miterlimit: 2; opacity: 1;"><g class="fills"/><g class="errorbars"/><g class="lines"><path class="js-line" d="M6.83,108.29L13.67,99.52L20.5,72.1L27.33,59.42L34.17,55.04L41,24.79L47.83,22.29L68.33,19.5L102.5,19.72L170.83,20.8L205,22L239.17,22.5L273.33,23.98L341.67,24.23L375.83,25.1L444.17,26L478.33,32.67L512.5,36.81L546.67,33.37L615,34.57L649.17,35.33L751.67,39.62L785.83,41.52L854.17,46.42L888.33,49.89L922.5,54.29L956.67,59.92L990.83,66.47L1025,70.43" style="vector-effect: none; fill: none; stroke: rgb(92, 184, 92); stroke-opacity: 1; stroke-width: 2px; opacity: 1;"/></g><g class="points"/><g class="text"/></g><g class="trace scatter trace184f4b" style="stroke-miterlimit: 2; opacity: 1;"><g class="fills"/><g class="errorbars"/><g class="lines"><path class="js-line" d="M6.83,104.42L13.67,104L20.5,79.51L27.33,68.78L34.17,66.11L41,41.12L47.83,40.31L54.67,39.85L61.5,37.69L68.33,37.13L102.5,39.27L136.67,40.62L170.83,42.87L205,43.12L239.17,48.4L307.5,52.48L341.67,53.44L375.83,55.43L410,56.56L478.33,59.17L512.5,71.09L546.67,64.66L580.83,67.01L683.33,77.63L717.5,82.2L785.83,93.02L820,98.52L922.5,120L956.67,128.52L990.83,132.71L1025,138.47" style="vector-effect: none; fill: none; stroke: rgb(92, 184, 92); stroke-opacity: 1; stroke-width: 2px; opacity: 1;"/></g><g class="points"/><g class="text"/></g><g class="trace scatter trace1e3d42" style="stroke-miterlimit: 2; opacity: 1;"><g class="fills"/><g class="errorbars"/><g class="lines"><path class="js-line" d="M6.83,104.61L13.67,96.95L20.5,67.71L27.33,56.82L34.17,54.02L41,23.19L47.83,22.67L54.67,20.8L61.5,19.75L68.33,19.23L102.5,19.25L170.83,20.52L205,21.68L478.33,26L512.5,28.19L546.67,24.78L580.83,24.92L717.5,28.75L751.67,30.23L854.17,35.22L888.33,37.74L956.67,44.71L990.83,49.27L1025,52.14" style="vector-effect: none; fill: none; stroke: rgb(92, 184, 92); stroke-opacity: 1; stroke-width: 2px; opacity: 1;"/></g><g class="points"/><g class="text"/></g><g class="trace scatter trace5c5a63" style="stroke-miterlimit: 2; opacity: 1;"><g class="fills"/><g class="errorbars"/><g class="lines"><path class="js-line" d="M6.83,106.87L13.67,104.16L20.5,82.35L27.33,68.44L34.17,67.15L41,40.93L47.83,41.82L54.67,41.79L61.5,39.41L68.33,37.67L102.5,39.8L170.83,44.18L205,43.7L239.17,50.29L273.33,52.46L307.5,54.55L341.67,55.34L375.83,56.85L410,57.24L478.33,61.25L512.5,65.05L546.67,57.67L580.83,60.1L649.17,66.45L683.33,70.49L717.5,74.78L751.67,80.1L820,90.81L854.17,97.72L922.5,111.24L956.67,118.73L990.83,122.01L1025,126.9" style="vector-effect: none; fill: none; stroke: rgb(92, 184, 92); stroke-opacity: 1; stroke-width: 2px; opacity: 1;"/></g><g class="points"/><g class="text"/></g><g class="trace scatter trace75b4cb" style="stroke-miterlimit: 2; opacity: 1;"><g class="fills"/><g class="errorbars"/><g class="lines"><path class="js-line" d="M6.83,105.9L13.67,98.34L20.5,69.01L27.33,57.47L34.17,54.08L41,22.91L47.83,20.92L61.5,19.3L68.33,18.58L136.67,19.09L170.83,19.83L239.17,21.46L273.33,22.09L410,24.11L444.17,24.81L478.33,26.3L512.5,28.81L546.67,25.75L580.83,26.01L683.33,29.28L717.5,30.71L785.83,35.27L820,38.22L854.17,41.87L888.33,47.23L922.5,54.61L956.67,63.83L990.83,74.7L1025,81.48" style="vector-effect: none; fill: none; stroke: rgb(92, 184, 92); stroke-opacity: 1; stroke-width: 2px; opacity: 1;"/></g><g class="points"/><g class="text"/></g><g class="trace scatter tracef2e82a" style="stroke-miterlimit: 2; opacity: 1;"><g class="fills"/><g class="errorbars"/><g class="lines"><path class="js-line" d="M6.83,103.03L13.67,100.34L20.5,78.06L27.33,62.85L34.17,61.24L41,37.23L47.83,32.58L61.5,30.31L68.33,30.03L136.67,32.83L170.83,35.46L205,34.74L239.17,40.79L307.5,43.98L341.67,44.28L444.17,47.48L478.33,49.41L512.5,55.08L546.67,48.71L649.17,57.6L683.33,61.45L717.5,65.52L751.67,70.57L820,80.67L854.17,87.79L888.33,95.16L922.5,103.45L956.67,113.42L990.83,120.59L1025,127.9" style="vector-effect: none; fill: none; stroke: rgb(92, 184, 92); stroke-opacity: 1; stroke-width: 2px; opacity: 1;"/></g><g class="points"/><g class="text"/></g><g class="trace scatter tracee8f7a0" style="stroke-miterlimit: 2; opacity: 1;"><g class="fills"/><g class="errorbars"/><g class="lines"><path class="js-line" d="M6.83,104.53L13.67,97.09L20.5,67.95L27.33,56.84L34.17,54.12L41,23.25L47.83,22.76L54.67,20.85L61.5,19.88L68.33,19.32L102.5,19.35L170.83,20.59L205,21.67L444.17,25.49L478.33,27.87L512.5,30.75L546.67,27.37L615,28.42L649.17,29.12L785.83,34.35L820,36.08L854.17,37.74L888.33,40.19L956.67,46.94L990.83,51.2L1025,53.77" style="vector-effect: none; fill: none; stroke: rgb(92, 184, 92); stroke-opacity: 1; stroke-width: 2px; opacity: 1;"/></g><g class="points"/><g class="text"/></g><g class="trace scatter traceb6b217" style="stroke-miterlimit: 2; opacity: 1;"><g class="fills"/><g class="errorbars"/><g class="lines"><path class="js-line" d="M6.83,103.43L13.67,101.37L20.5,77.12L27.33,64.7L34.17,62.33L41,36.54L47.83,34.53L68.33,32.1L102.5,34.06L136.67,35.45L170.83,37.93L205,36.86L239.17,42.97L307.5,46L341.67,46.34L375.83,47.76L410,48.13L478.33,50.96L512.5,57.3L546.67,50.45L580.83,52.51L683.33,61.17L717.5,64.7L820,78.72L854.17,85.04L922.5,97.47L956.67,104.65L990.83,107.57L1025,112.26" style="vector-effect: none; fill: none; stroke: rgb(92, 184, 92); stroke-opacity: 1; stroke-width: 2px; opacity: 1;"/></g><g class="points"/><g class="text"/></g><g class="trace scatter tracea858ae" style="stroke-miterlimit: 2; opacity: 1;"><g class="fills"/><g class="errorbars"/><g class="lines"><path class="js-line" d="M6.83,106.97L13.67,99.28L20.5,71.07L27.33,59.37L34.17,55.12L41,24.43L47.83,21.52L68.33,19.66L102.5,19.99L478.33,26.77L512.5,29.06L546.67,25.18L580.83,25.62L717.5,29.79L751.67,31.59L785.83,33.22L820,35.76L854.17,37.75L888.33,41.46L922.5,45.64L956.67,51.47L990.83,57.98L1025,62.07" style="vector-effect: none; fill: none; stroke: rgb(92, 184, 92); stroke-opacity: 1; stroke-width: 2px; opacity: 1;"/></g><g class="points"/><g class="text"/></g><g class="trace scatter trace793b0e" style="stroke-miterlimit: 2; opacity: 1;"><g class="fills"/><g class="errorbars"/><g class="lines"><path class="js-line" d="M6.83,103.22L13.67,100.93L20.5,77.43L27.33,65.48L34.17,62.95L41,38.2L47.83,34.72L68.33,32.2L102.5,33.89L170.83,38.31L205,37.54L239.17,43.45L273.33,45.02L307.5,46.59L341.67,46.92L444.17,50.04L478.33,51.8L512.5,56.04L546.67,49.37L615,54.5L649.17,57.26L717.5,64.6L751.67,69.64L820,79.32L854.17,86.06L888.33,93.4L922.5,101.53L956.67,109.57L990.83,114.22L1025,119.95" style="vector-effect: none; fill: none; stroke: rgb(92, 184, 92); stroke-opacity: 1; stroke-width: 2px; opacity: 1;"/></g><g class="points"/><g class="text"/></g><g class="trace scatter trace3c5c70" style="stroke-miterlimit: 2; opacity: 1;"><g class="fills"/><g class="errorbars"/><g class="lines"><path class="js-line" d="M6.83,103.71L13.67,96.9L20.5,67.23L27.33,56.39L34.17,53.86L41,22.56L47.83,22.3L54.67,20.39L61.5,19.68L68.33,19.12L102.5,19.11L170.83,20.38L205,21.48L273.33,22.52L307.5,24.09L341.67,23.4L375.83,24.34L444.17,25.4L478.33,32.97L512.5,39.62L546.67,36.4L615,37.49L649.17,38.19L751.67,42.06L785.83,43.74L854.17,47.95L888.33,51.15L922.5,55.4L956.67,60.47L990.83,66.36L1025,69.98" style="vector-effect: none; fill: none; stroke: rgb(92, 184, 92); stroke-opacity: 1; stroke-width: 2px; opacity: 1;"/></g><g class="points"/><g class="text"/></g><g class="trace scatter trace2b7bb4" style="stroke-miterlimit: 2; opacity: 1;"><g class="fills"/><g class="errorbars"/><g class="lines"><path class="js-line" d="M6.83,109.24L13.67,104.43L20.5,81.85L27.33,69.39L34.17,65.01L41,40.09L47.83,38.35L61.5,36.65L68.33,36.82L136.67,40.47L170.83,43.18L205,42.79L239.17,48.98L307.5,52.86L341.67,53.92L375.83,55.64L410,56.5L478.33,59.74L512.5,72.94L546.67,68.27L580.83,70.74L649.17,77.24L683.33,81.33L717.5,85.79L751.67,91.34L820,102.18L854.17,109.23L922.5,123.41L956.67,131.57L990.83,135.61L1025,141.07" style="vector-effect: none; fill: none; stroke: rgb(92, 184, 92); stroke-opacity: 1; stroke-width: 2px; opacity: 1;"/></g><g class="points"/><g class="text"/></g><g class="trace scatter tracee3fac6" style="stroke-miterlimit: 2; opacity: 1;"><g class="fills"/><g class="errorbars"/><g class="lines"><path class="js-line" d="M6.83,98.51L13.67,98.43L20.5,64.76L27.33,55.62L34.17,53.75L41,21.94L47.83,21.35L61.5,18.76L68.33,18.33L170.83,19.39L205,20.47L444.17,25.25L478.33,29.66L512.5,33.44L546.67,30.53L615,31.8L649.17,32.86L717.5,36.49L751.67,39.31L820,46.5L854.17,51.68L888.33,59.33L922.5,70.42L956.67,84.64L990.83,101.16L1025,111.57" style="vector-effect: none; fill: none; stroke: rgb(92, 184, 92); stroke-opacity: 1; stroke-width: 2px; opacity: 1;"/></g><g class="points"/><g class="text"/></g><g class="trace scatter tracecfa942" style="stroke-miterlimit: 2; opacity: 1;"><g class="fills"/><g class="errorbars"/><g class="lines"><path class="js-line" d="M6.83,101.39L13.67,99.2L20.5,72.3L27.33,61.88L34.17,59.69L41,31.26L47.83,31.76L54.67,31.22L61.5,29.28L68.33,28.82L102.5,30.78L136.67,31.95L170.83,34.15L205,34.19L239.17,40.22L307.5,44.73L341.67,45.46L410,48.21L444.17,49.81L478.33,52.25L512.5,62.14L546.67,56.78L580.83,60.86L649.17,69.04L683.33,74.12L717.5,79.24L751.67,85.53L820,96.4L854.17,103.94L888.33,112.38L922.5,121.99L956.67,134.21L990.83,144.99L1025,154.13" style="vector-effect: none; fill: none; stroke: rgb(92, 184, 92); stroke-opacity: 1; stroke-width: 2px; opacity: 1;"/></g><g class="points"/><g class="text"/></g><g class="trace scatter tracea28cbc" style="stroke-miterlimit: 2; opacity: 1;"><g class="fills"/><g class="errorbars"/><g class="lines"><path class="js-line" d="M6.83,101.85L13.67,96.22L20.5,66.76L27.33,57.11L34.17,54.25L41,23L47.83,20.94L68.33,18.88L102.5,19.05L170.83,20.25L205,21.42L307.5,23.27L341.67,23.38L444.17,25.2L478.33,32.21L512.5,36.44L546.67,33.33L615,34.42L649.17,35.17L751.67,39.09L785.83,40.87L854.17,45.18L888.33,48.64L922.5,53.21L956.67,58.65L990.83,65.05L1025,68.98" style="vector-effect: none; fill: none; stroke: rgb(92, 184, 92); stroke-opacity: 1; stroke-width: 2px; opacity: 1;"/></g><g class="points"/><g class="text"/></g><g class="trace scatter trace906863" style="stroke-miterlimit: 2; opacity: 1;"><g class="fills"/><g class="errorbars"/><g class="lines"><path class="js-line" d="M6.83,103.43L13.67,101.42L20.5,75.43L27.33,65.29L34.17,62.5L41,35.54L47.83,36.2L54.67,35.87L61.5,34.06L68.33,32.94L102.5,34.85L136.67,35.78L170.83,37.48L205,37.62L239.17,42.35L307.5,46.14L341.67,46.63L410,50L444.17,50.87L478.33,52.05L512.5,63.94L546.67,57.77L580.83,60.07L649.17,65.91L683.33,69.57L717.5,73.38L751.67,78.34L820,88.52L854.17,95.2L922.5,109L956.67,117.08L990.83,121.41L1025,126.99" style="vector-effect: none; fill: none; stroke: rgb(92, 184, 92); stroke-opacity: 1; stroke-width: 2px; opacity: 1;"/></g><g class="points"/><g class="text"/></g><g class="trace scatter traceb0fafd" style="stroke-miterlimit: 2; opacity: 1;"><g class="fills"/><g class="errorbars"/><g class="lines"><path class="js-line" d="M6.83,101.99L13.67,96.67L20.5,67.95L27.33,57.72L34.17,54.57L41,23.66L47.83,21.63L54.67,21.16L61.5,19.92L68.33,19.3L102.5,19.34L170.83,20.69L205,21.9L478.33,26.13L512.5,28.34L546.67,24.9L580.83,25.07L717.5,28.96L751.67,30.43L854.17,35.16L888.33,37.43L956.67,43.16L990.83,46.74L1025,48.87" style="vector-effect: none; fill: none; stroke: rgb(92, 184, 92); stroke-opacity: 1; stroke-width: 2px; opacity: 1;"/></g><g class="points"/><g class="text"/></g><g class="trace scatter trace868daa" style="stroke-miterlimit: 2; opacity: 1;"><g class="fills"/><g class="errorbars"/><g class="lines"><path class="js-line" d="M6.83,107.5L13.67,104.83L20.5,83.55L27.33,69.78L34.17,67.72L41,42L47.83,42.54L54.67,42.7L61.5,40.16L68.33,38.63L102.5,40.48L170.83,45.24L205,44.78L239.17,51.06L273.33,53.61L307.5,55.76L341.67,56.61L375.83,58.18L410,58.75L478.33,62.81L512.5,66.57L546.67,59.02L580.83,61.52L649.17,67.77L683.33,71.69L717.5,75.99L751.67,81.14L820,91.71L854.17,98.46L922.5,111.22L956.67,118.17L990.83,120.66L1025,125.09" style="vector-effect: none; fill: none; stroke: rgb(92, 184, 92); stroke-opacity: 1; stroke-width: 2px; opacity: 1;"/></g><g class="points"/><g class="text"/></g><g class="trace scatter tracec0f353" style="stroke-miterlimit: 2; opacity: 1;"><g class="fills"/><g class="errorbars"/><g class="lines"><path class="js-line" d="M6.83,99.95L13.67,102.09L20.5,67.38L27.33,56.99L34.17,54.45L41,24.43L47.83,24.35L54.67,21.04L61.5,19.84L68.33,19.55L102.5,19.43L170.83,20.55L205,21.71L478.33,26L512.5,28.26L546.67,24.91L580.83,25.12L717.5,29.15L751.67,30.75L854.17,36.01L888.33,38.65L956.67,45.76L990.83,50.42L1025,53.26" style="vector-effect: none; fill: none; stroke: rgb(92, 184, 92); stroke-opacity: 1; stroke-width: 2px; opacity: 1;"/></g><g class="points"/><g class="text"/></g><g class="trace scatter trace5732bf" style="stroke-miterlimit: 2; opacity: 1;"><g class="fills"/><g class="errorbars"/><g class="lines"><path class="js-line" d="M6.83,106.26L13.67,103.85L20.5,85.36L27.33,68.9L34.17,66.71L41,43.04L47.83,39.87L61.5,36.97L68.33,36.49L136.67,39.81L170.83,42.74L205,42.52L239.17,49.58L307.5,53.25L341.67,53.81L444.17,57.33L478.33,59.25L512.5,63.19L546.67,55.85L615,61.37L649.17,64.34L717.5,72.57L751.67,77.81L820,88.52L854.17,95.43L922.5,108.71L956.67,115.98L990.83,119.19L1025,124.01" style="vector-effect: none; fill: none; stroke: rgb(92, 184, 92); stroke-opacity: 1; stroke-width: 2px; opacity: 1;"/></g><g class="points"/><g class="text"/></g><g class="trace scatter trace64625a" style="stroke-miterlimit: 2; opacity: 1;"><g class="fills"/><g class="errorbars"/><g class="lines"><path class="js-line" d="M6.83,99.13L13.67,101.04L20.5,66.97L27.33,57.43L34.17,54.98L41,24.68L47.83,24L54.67,21.18L61.5,20.32L68.33,19.82L102.5,20.05L375.83,24.62L410,25.34L478.33,26.8L512.5,29.25L546.67,25.54L580.83,25.9L717.5,29.99L751.67,31.72L820,35.5L854.17,37.32L922.5,43.83L956.67,48.67L990.83,54.14L1025,57.31" style="vector-effect: none; fill: none; stroke: rgb(92, 184, 92); stroke-opacity: 1; stroke-width: 2px; opacity: 1;"/></g><g class="points"/><g class="text"/></g><g class="trace scatter traceea0f2a" style="stroke-miterlimit: 2; opacity: 1;"><g class="fills"/><g class="errorbars"/><g class="lines"><path class="js-line" d="M6.83,103.7L13.67,101.33L20.5,78.25L27.33,65.99L34.17,62.94L41,37.28L47.83,35.34L54.67,34.86L61.5,33.24L68.33,32.56L102.5,34.38L170.83,38.97L205,38.52L239.17,44.87L273.33,46.37L307.5,48.25L341.67,48.72L444.17,52.04L478.33,53.78L512.5,58.23L546.67,51.25L615,56.41L649.17,59.15L717.5,66.98L751.67,72.1L820,82.09L854.17,88.71L888.33,95.51L922.5,103.12L956.67,110.67L990.83,114.45L1025,119.75" style="vector-effect: none; fill: none; stroke: rgb(92, 184, 92); stroke-opacity: 1; stroke-width: 2px; opacity: 1;"/></g><g class="points"/><g class="text"/></g><g class="trace scatter tracec033b3" style="stroke-miterlimit: 2; opacity: 1;"><g class="fills"/><g class="errorbars"/><g class="lines"><path class="js-line" d="M6.83,102.33L13.67,96.46L20.5,67.98L27.33,56.97L34.17,54.48L41,23.42L47.83,21.5L54.67,21.06L61.5,19.83L68.33,19.12L102.5,19.26L170.83,20.53L205,21.62L307.5,23.99L341.67,23.64L444.17,25.58L478.33,31.56L512.5,36.81L546.67,33.53L615,34.63L649.17,35.35L785.83,40.64L820,42.39L854.17,44.18L888.33,46.78L956.67,53.98L990.83,58.3L1025,60.91" style="vector-effect: none; fill: none; stroke: rgb(92, 184, 92); stroke-opacity: 1; stroke-width: 2px; opacity: 1;"/></g><g class="points"/><g class="text"/></g><g class="trace scatter trace5df355" style="stroke-miterlimit: 2; opacity: 1;"><g class="fills"/><g class="errorbars"/><g class="lines"><path class="js-line" d="M6.83,103.86L13.67,101.51L20.5,76.83L27.33,65.13L34.17,61.8L41,36.22L47.83,34.65L54.67,34.25L61.5,32.94L68.33,32.36L102.5,34.24L170.83,38.09L205,37.04L239.17,42.71L273.33,44.42L307.5,45.98L341.67,46.42L410,48.73L444.17,49.88L478.33,51.15L512.5,62.4L546.67,57.05L580.83,59.09L649.17,64.49L683.33,67.91L717.5,71.43L751.67,76.18L820,85.48L854.17,91.67L922.5,103.66L956.67,110.67L990.83,113.56L1025,118.12" style="vector-effect: none; fill: none; stroke: rgb(92, 184, 92); stroke-opacity: 1; stroke-width: 2px; opacity: 1;"/></g><g class="points"/><g class="text"/></g><g class="trace scatter tracedf5a47" style="stroke-miterlimit: 2; opacity: 1;"><g class="fills"/><g class="errorbars"/><g class="lines"><path class="js-line" d="M6.83,102.25L13.67,95.97L20.5,66.07L27.33,56.15L34.17,53.7L41,22.17L47.83,20.3L61.5,18.93L68.33,18.4L136.67,18.98L170.83,19.75L239.17,21.49L273.33,21.76L444.17,24.41L478.33,25.13L512.5,27.31L546.67,24.22L615,25.28L649.17,25.99L751.67,29.98L785.83,31.77L854.17,36.44L888.33,40.36L922.5,45.66L956.67,52.32L990.83,60.15L1025,65.07" style="vector-effect: none; fill: none; stroke: rgb(92, 184, 92); stroke-opacity: 1; stroke-width: 2px; opacity: 1;"/></g><g class="points"/><g class="text"/></g><g class="trace scatter trace146cc2" style="stroke-miterlimit: 2; opacity: 1;"><g class="fills"/><g class="errorbars"/><g class="lines"><path class="js-line" d="M6.83,107.26L13.67,102.5L20.5,78.14L27.33,66.04L34.17,61.57L41,35.45L47.83,33.37L61.5,32.01L68.33,32L102.5,33.27L136.67,35.35L170.83,37.85L205,37.45L239.17,43.37L273.33,45.4L307.5,47.17L341.67,47.9L444.17,51.63L478.33,53.7L512.5,58.14L546.67,51.25L615,56.72L649.17,59.52L717.5,67.2L751.67,72.21L820,82.58L854.17,89.63L888.33,96.67L922.5,104.59L956.67,113.68L990.83,119.28L1025,125.63" style="vector-effect: none; fill: none; stroke: rgb(92, 184, 92); stroke-opacity: 1; stroke-width: 2px; opacity: 1;"/></g><g class="points"/><g class="text"/></g><g class="trace scatter traceeec927" style="stroke-miterlimit: 2; opacity: 1;"><g class="fills"/><g class="errorbars"/><g class="lines"><path class="js-line" d="M6.83,99.11L13.67,100.66L20.5,65.83L27.33,56.26L34.17,53.88L41,23.23L47.83,23.1L54.67,20.18L61.5,19.16L68.33,18.84L102.5,18.81L170.83,19.83L205,20.99L444.17,24.51L478.33,25.92L512.5,28.37L546.67,25.22L615,26.26L649.17,27L751.67,31.05L785.83,32.88L854.17,37.58L888.33,41.48L922.5,46.76L956.67,53.49L990.83,61.44L1025,66.47" style="vector-effect: none; fill: none; stroke: rgb(92, 184, 92); stroke-opacity: 1; stroke-width: 2px; opacity: 1;"/></g><g class="points"/><g class="text"/></g><g class="trace scatter tracee16e43" style="stroke-miterlimit: 2; opacity: 1;"><g class="fills"/><g class="errorbars"/><g class="lines"><path class="js-line" d="M6.83,107.75L13.67,102.83L20.5,79.65L27.33,66.86L34.17,62.61L41,36.49L47.83,34.9L68.33,33.32L102.5,34.75L170.83,39.12L205,38.66L239.17,44.61L273.33,46.66L307.5,48.37L341.67,49.08L444.17,52.83L478.33,54.75L512.5,59.96L546.67,53.06L615,58.9L649.17,62.05L717.5,70.32L751.67,75.66L820,86.37L854.17,93.56L922.5,108.38L956.67,117.24L990.83,122.75L1025,129.05" style="vector-effect: none; fill: none; stroke: rgb(92, 184, 92); stroke-opacity: 1; stroke-width: 2px; opacity: 1;"/></g><g class="points"/><g class="text"/></g></g></g></g><g class="zerolinelayer-above"/><path class="xlines-above crisp" d="M0,0" style="fill: none;"/><path class="ylines-above crisp" d="M0,0" style="fill: none;"/><g class="overlines-above"/><g class="xaxislayer-above"><g class="xtick"><text text-anchor="middle" x="0" y="451" transform="translate(60,0)" style="font-family: 'Lucida Grande', 'Open Sans', verdana, arial, sans-serif; font-size: 10px; fill: rgb(0, 0, 0); fill-opacity: 1; white-space: pre;">0 bp</text></g><g class="xtick"><text text-anchor="middle" x="0" y="451" style="font-family: 'Lucida Grande', 'Open Sans', verdana, arial, sans-serif; font-size: 10px; fill: rgb(0, 0, 0); fill-opacity: 1; white-space: pre;" transform="translate(196.67,0)">20 bp</text></g><g class="xtick"><text text-anchor="middle" x="0" y="451" style="font-family: 'Lucida Grande', 'Open Sans', verdana, arial, sans-serif; font-size: 10px; fill: rgb(0, 0, 0); fill-opacity: 1; white-space: pre;" transform="translate(333.33,0)">40 bp</text></g><g class="xtick"><text text-anchor="middle" x="0" y="451" style="font-family: 'Lucida Grande', 'Open Sans', verdana, arial, sans-serif; font-size: 10px; fill: rgb(0, 0, 0); fill-opacity: 1; white-space: pre;" transform="translate(470,0)">60 bp</text></g><g class="xtick"><text text-anchor="middle" x="0" y="451" style="font-family: 'Lucida Grande', 'Open Sans', verdana, arial, sans-serif; font-size: 10px; fill: rgb(0, 0, 0); fill-opacity: 1; white-space: pre;" transform="translate(606.67,0)">80 bp</text></g><g class="xtick"><text text-anchor="middle" x="0" y="451" style="font-family: 'Lucida Grande', 'Open Sans', verdana, arial, sans-serif; font-size: 10px; fill: rgb(0, 0, 0); fill-opacity: 1; white-space: pre;" transform="translate(743.33,0)">100 bp</text></g><g class="xtick"><text text-anchor="middle" x="0" y="451" style="font-family: 'Lucida Grande', 'Open Sans', verdana, arial, sans-serif; font-size: 10px; fill: rgb(0, 0, 0); fill-opacity: 1; white-space: pre;" transform="translate(880,0)">120 bp</text></g><g class="xtick"><text text-anchor="middle" x="0" y="451" style="font-family: 'Lucida Grande', 'Open Sans', verdana, arial, sans-serif; font-size: 10px; fill: rgb(0, 0, 0); fill-opacity: 1; white-space: pre;" transform="translate(1016.67,0)">140 bp</text></g></g><g class="yaxislayer-above"><g class="ytick"><text text-anchor="end" x="54" y="3.5" transform="translate(0,435)" style="font-family: 'Lucida Grande', 'Open Sans', verdana, arial, sans-serif; font-size: 10px; fill: rgb(0, 0, 0); fill-opacity: 1; white-space: pre;">0</text></g><g class="ytick"><text text-anchor="end" x="54" y="3.5" style="font-family: 'Lucida Grande', 'Open Sans', verdana, arial, sans-serif; font-size: 10px; fill: rgb(0, 0, 0); fill-opacity: 1; white-space: pre;" transform="translate(0,389.31)">5</text></g><g class="ytick"><text text-anchor="end" x="54" y="3.5" style="font-family: 'Lucida Grande', 'Open Sans', verdana, arial, sans-serif; font-size: 10px; fill: rgb(0, 0, 0); fill-opacity: 1; white-space: pre;" transform="translate(0,343.62)">10</text></g><g class="ytick"><text text-anchor="end" x="54" y="3.5" style="font-family: 'Lucida Grande', 'Open Sans', verdana, arial, sans-serif; font-size: 10px; fill: rgb(0, 0, 0); fill-opacity: 1; white-space: pre;" transform="translate(0,297.91999999999996)">15</text></g><g class="ytick"><text text-anchor="end" x="54" y="3.5" style="font-family: 'Lucida Grande', 'Open Sans', verdana, arial, sans-serif; font-size: 10px; fill: rgb(0, 0, 0); fill-opacity: 1; white-space: pre;" transform="translate(0,252.23)">20</text></g><g class="ytick"><text text-anchor="end" x="54" y="3.5" style="font-family: 'Lucida Grande', 'Open Sans', verdana, arial, sans-serif; font-size: 10px; fill: rgb(0, 0, 0); fill-opacity: 1; white-space: pre;" transform="translate(0,206.54)">25</text></g><g class="ytick"><text text-anchor="end" x="54" y="3.5" style="font-family: 'Lucida Grande', 'Open Sans', verdana, arial, sans-serif; font-size: 10px; fill: rgb(0, 0, 0); fill-opacity: 1; white-space: pre;" transform="translate(0,160.85)">30</text></g><g class="ytick"><text text-anchor="end" x="54" y="3.5" style="font-family: 'Lucida Grande', 'Open Sans', verdana, arial, sans-serif; font-size: 10px; fill: rgb(0, 0, 0); fill-opacity: 1; white-space: pre;" transform="translate(0,115.16)">35</text></g><g class="ytick"><text text-anchor="end" x="54" y="3.5" style="font-family: 'Lucida Grande', 'Open Sans', verdana, arial, sans-serif; font-size: 10px; fill: rgb(0, 0, 0); fill-opacity: 1; white-space: pre;" transform="translate(0,69.47)">40</text></g></g><g class="overaxes-above"/></g></g><g class="polarlayer"/><g class="smithlayer"/><g class="ternarylayer"/><g class="geolayer"/><g class="funnelarealayer"/><g class="pielayer"/><g class="iciclelayer"/><g class="treemaplayer"/><g class="sunburstlayer"/><g class="glimages"/><defs id="topdefs-329338"><g class="clips"/></defs><g class="layer-above"><g class="imagelayer"/><g class="shapelayer"/></g><g class="infolayer"><g class="g-gtitle"><text class="gtitle" x="550" y="25" text-anchor="middle" dy="0em" style="opacity: 1; font-family: 'Lucida Grande', 'Open Sans', verdana, arial, sans-serif; font-size: 20px; fill: rgb(68, 68, 68); fill-opacity: 1; white-space: pre;"><tspan class="line" dy="0em" x="550" y="25">FastQC: Mean Quality Scores</tspan><tspan class="line" dy="1.3em" x="550" y="25">​<tspan style="font-size:70%" dy="-0.6em">32 lines</tspan><tspan dy="0.42em">​</tspan></tspan></text></g><g class="g-xtitle"><text class="xtitle" x="572.5" y="487" text-anchor="middle" style="opacity: 0.3; font-family: 'Lucida Grande', 'Open Sans', verdana, arial, sans-serif; font-size: 14px; fill: rgb(0, 0, 0); fill-opacity: 1; white-space: pre;">Position (bp)</text></g><g class="g-ytitle"><text class="ytitle" transform="rotate(-90,22,242.5)" x="22" y="242.5" text-anchor="middle" style="opacity: 0.3; font-family: 'Lucida Grande', 'Open Sans', verdana, arial, sans-serif; font-size: 14px; fill: rgb(0, 0, 0); fill-opacity: 1; white-space: pre;">Phred Score</text></g></g></svg>