<svg class="main-svg" xmlns="http://www.w3.org/2000/svg" xmlns:xlink="http://www.w3.org/1999/xlink" width="2200" height="1000" style="" viewBox="0 0 1100 500"><rect x="0" y="0" width="1100" height="500" style="fill: rgb(255, 255, 255); fill-opacity: 1;"/><defs id="defs-349e45"><g class="clips"><clipPath id="clip349e45xyplot" class="plotclip"><rect width="1025" height="385"/></clipPath><clipPath class="axesclip" id="clip349e45x"><rect x="60" y="0" width="1025" height="500"/></clipPath><clipPath class="axesclip" id="clip349e45y"><rect x="0" y="50" width="1100" height="385"/></clipPath><clipPath class="axesclip" id="clip349e45xy"><rect x="60" y="50" width="1025" height="385"/></clipPath></g><g class="gradients"/><g class="patterns"/></defs><g class="bglayer"/><g class="layer-below"><g class="imagelayer"/><g class="shapelayer"><g class="shape-group" data-index="0" clip-path="url(#clip349e45y)"><path data-index="0" fill-rule="evenodd" d="M60,179.19H1085V-478.6H60Z" style="opacity: 0.13; stroke: rgb(0, 0, 0); stroke-opacity: 0; fill: rgb(0, 149, 0); fill-opacity: 1; stroke-width: 0px;"/></g><g class="shape-group" data-index="1" clip-path="url(#clip349e45y)"><path data-index="1" fill-rule="evenodd" d="M60,252.28H1085V179.19H60Z" style="opacity: 0.13; stroke: rgb(0, 0, 0); stroke-opacity: 0; fill: rgb(160, 115, 0); fill-opacity: 1; stroke-width: 0px;"/></g><g class="shape-group" data-index="2" clip-path="url(#clip349e45y)"><path data-index="2" fill-rule="evenodd" d="M60,435H1085V252.28H60Z" style="opacity: 0.13; stroke: rgb(0, 0, 0); stroke-opacity: 0; fill: rgb(153, 1, 1); fill-opacity: 1; stroke-width: 0px;"/></g><g class="shape-group" data-index="3" clip-path="url(#clip349e45y)"><path data-index="3" fill-rule="evenodd" d="M60,179.19H1085V-478.6H60Z" style="opacity: 0.13; stroke: rgb(0, 0, 0); stroke-opacity: 0; fill: rgb(0, 149, 0); fill-opacity: 1; stroke-width: 0px;"/></g><g class="shape-group" data-index="4" clip-path="url(#clip349e45y)"><path data-index="4" fill-rule="evenodd" d="M60,252.28H1085V179.19H60Z" style="opacity: 0.13; stroke: rgb(0, 0, 0); stroke-opacity: 0; fill: rgb(160, 115, 0); fill-opacity: 1; stroke-width: 0px;"/></g><g class="shape-group" data-index="5" clip-path="url(#clip349e45y)"><path data-index="5" fill-rule="evenodd" d="M60,435H1085V252.28H60Z" style="opacity: 0.13; stroke: rgb(0, 0, 0); stroke-opacity: 0; fill: rgb(153, 1, 1); fill-opacity: 1; stroke-width: 0px;"/></g></g></g><g class="cartesianlayer"><g class="subplot xy"><g class="layer-subplot"><g class="shapelayer"/><g class="imagelayer"/></g><g class="minor-gridlayer"><g class="x"/><g class="y"/></g><g class="gridlayer"><g class="x"><path class="xgrid crisp" transform="translate(196.67,0)" d="M0,50v385" style="stroke: rgb(0, 0, 0); stroke-opacity: 0.05; stroke-width: 1px;"/><path class="xgrid crisp" transform="translate(333.33,0)" d="M0,50v385" style="stroke: rgb(0, 0, 0); stroke-opacity: 0.05; stroke-width: 1px;"/><path class="xgrid crisp" transform="translate(470,0)" d="M0,50v385" style="stroke: rgb(0, 0, 0); stroke-opacity: 0.05; stroke-width: 1px;"/><path class="xgrid crisp" transform="translate(606.67,0)" d="M0,50v385" style="stroke: rgb(0, 0, 0); stroke-opacity: 0.05; stroke-width: 1px;"/><path class="xgrid crisp" transform="translate(743.33,0)" d="M0,50v385" style="stroke: rgb(0, 0, 0); stroke-opacity: 0.05; stroke-width: 1px;"/><path class="xgrid crisp" transform="translate(880,0)" d="M0,50v385" style="stroke: rgb(0, 0, 0); stroke-opacity: 0.05; stroke-width: 1px;"/><path class="xgrid crisp" transform="translate(1016.67,0)" d="M0,50v385" style="stroke: rgb(0, 0, 0); stroke-opacity: 0.05; stroke-width: 1px;"/></g><g class="y"><path class="ygrid crisp" transform="translate(0,389.32)" d="M60,0h1025" style="stroke: rgb(0, 0, 0); stroke-opacity: 0.05; stroke-width: 1px;"/><path class="ygrid crisp" transform="translate(0,343.64)" d="M60,0h1025" style="stroke: rgb(0, 0, 0); stroke-opacity: 0.05; stroke-width: 1px;"/><path class="ygrid crisp" transform="translate(0,297.96000000000004)" d="M60,0h1025" style="stroke: rgb(0, 0, 0); stroke-opacity: 0.05; stroke-width: 1px;"/><path class="ygrid crisp" transform="translate(0,252.28)" d="M60,0h1025" style="stroke: rgb(0, 0, 0); stroke-opacity: 0.05; stroke-width: 1px;"/><path class="ygrid crisp" transform="translate(0,206.6)" d="M60,0h1025" style="stroke: rgb(0, 0, 0); stroke-opacity: 0.05; stroke-width: 1px;"/><path class="ygrid crisp" transform="translate(0,160.92000000000002)" d="M60,0h1025" style="stroke: rgb(0, 0, 0); stroke-opacity: 0.05; stroke-width: 1px;"/><path class="ygrid crisp" transform="translate(0,115.24)" d="M60,0h1025" style="stroke: rgb(0, 0, 0); stroke-opacity: 0.05; stroke-width: 1px;"/><path class="ygrid crisp" transform="translate(0,69.56)" d="M60,0h1025" style="stroke: rgb(0, 0, 0); stroke-opacity: 0.05; stroke-width: 1px;"/></g></g><g class="zerolinelayer"><path class="xzl zl crisp" transform="translate(60,0)" d="M0,50v385" style="stroke: rgb(0, 0, 0); stroke-opacity: 0.05; stroke-width: 1px;"/><path class="yzl zl crisp" transform="translate(0,435)" d="M60,0h1025" style="stroke: rgb(0, 0, 0); stroke-opacity: 0.05; stroke-width: 1px;"/></g><g class="layer-between"><g class="shapelayer"/><g class="imagelayer"/></g><path class="xlines-below"/><path class="ylines-below"/><g class="overlines-below"/><g class="xaxislayer-below"/><g class="yaxislayer-below"/><g class="overaxes-below"/><g class="overplot"><g class="xy" transform="translate(60,50)" clip-path="url(#clip349e45xyplot)"><g class="scatterlayer mlayer"><g class="trace scatter trace3b324d" style="stroke-miterlimit: 2; opacity: 1;"><g class="fills"/><g class="errorbars"/><g class="lines"><path class="js-line" d="M6.83,106.96L13.67,98.9L20.5,70.48L27.33,57.88L34.17,54.54L41,23.36L47.83,21.13L61.5,19.56L68.33,18.85L170.83,20.1L205,21.19L375.83,23.55L410,24.02L478.33,25.06L512.5,27.13L546.67,23.77L580.83,23.97L717.5,27.95L751.67,29.47L888.33,36.56L922.5,39.02L956.67,41.55L990.83,43.07L1025,34.84" style="vector-effect: none; fill: none; stroke: rgb(92, 184, 92); stroke-opacity: 1; stroke-width: 2px; opacity: 1;"/></g><g class="points"/><g class="text"/></g><g class="trace scatter trace99bb0d" style="stroke-miterlimit: 2; opacity: 1;"><g class="fills"/><g class="errorbars"/><g class="lines"><path class="js-line" d="M6.83,103.05L13.67,100.77L20.5,73.59L27.33,62.71L34.17,59.47L41,30.77L47.83,30.62L61.5,29.1L68.33,28.88L170.83,32.87L205,32.76L239.17,36.8L273.33,38.21L307.5,39.7L341.67,40.1L478.33,44.28L512.5,47.71L546.67,41.18L580.83,43.01L683.33,50.34L717.5,53.68L785.83,62.59L820,67.81L888.33,80.88L922.5,87.54L956.67,94.1L990.83,91.57L1025,69.3" style="vector-effect: none; fill: none; stroke: rgb(92, 184, 92); stroke-opacity: 1; stroke-width: 2px; opacity: 1;"/></g><g class="points"/><g class="text"/></g><g class="trace scatter tracebab808" style="stroke-miterlimit: 2; opacity: 1;"><g class="fills"/><g class="errorbars"/><g class="lines"><path class="js-line" d="M6.83,101.97L13.67,96.29L20.5,65.26L27.33,55.08L34.17,53.17L41,21.54L47.83,20.58L54.67,19.34L61.5,18.87L68.33,18.44L102.5,18.81L136.67,18.73L170.83,19.61L239.17,21.3L273.33,23.81L307.5,22.87L341.67,22.8L410,24.16L444.17,24.39L478.33,28.61L512.5,30.72L546.67,27.42L580.83,27.78L683.33,31.63L717.5,33.08L888.33,43.79L922.5,46.77L956.67,49.67L990.83,51.22L1025,39.96" style="vector-effect: none; fill: none; stroke: rgb(92, 184, 92); stroke-opacity: 1; stroke-width: 2px; opacity: 1;"/></g><g class="points"/><g class="text"/></g><g class="trace scatter trace25a1a8" style="stroke-miterlimit: 2; opacity: 1;"><g class="fills"/><g class="errorbars"/><g class="lines"><path class="js-line" d="M6.83,102.15L13.67,100.25L20.5,73.83L27.33,62.86L34.17,60.86L41,34.19L47.83,32.89L54.67,32.59L61.5,31.17L68.33,31.03L102.5,33.14L136.67,32.36L170.83,35.21L205,35.18L239.17,41.13L273.33,41.1L307.5,43L341.67,43.19L375.83,45.7L410,47.98L444.17,47.87L478.33,48L512.5,57.3L546.67,50.13L580.83,53.26L649.17,60.45L683.33,65.16L717.5,70.05L751.67,76.23L820,88.41L854.17,96.29L956.67,116.89L990.83,113.71L1025,83.68" style="vector-effect: none; fill: none; stroke: rgb(92, 184, 92); stroke-opacity: 1; stroke-width: 2px; opacity: 1;"/></g><g class="points"/><g class="text"/></g><g class="trace scatter trace92d587" style="stroke-miterlimit: 2; opacity: 1;"><g class="fills"/><g class="errorbars"/><g class="lines"><path class="js-line" d="M6.83,108.26L13.67,99.51L20.5,72.04L27.33,59.38L34.17,55.02L41,24.71L47.83,22.22L68.33,19.44L102.5,19.65L170.83,20.7L205,21.88L239.17,22.36L273.33,23.84L341.67,24.06L375.83,24.92L444.17,25.82L478.33,27.58L512.5,29.76L546.67,26.09L615,27.34L649.17,28.13L785.83,34.1L820,35.92L922.5,42.23L956.67,44.89L990.83,46.32L1025,35.97" style="vector-effect: none; fill: none; stroke: rgb(92, 184, 92); stroke-opacity: 1; stroke-width: 2px; opacity: 1;"/></g><g class="points"/><g class="text"/></g><g class="trace scatter trace925d06" style="stroke-miterlimit: 2; opacity: 1;"><g class="fills"/><g class="errorbars"/><g class="lines"><path class="js-line" d="M6.83,103.96L13.67,103.33L20.5,78.66L27.33,67.81L34.17,65.1L41,39.89L47.83,39L54.67,38.54L61.5,36.37L68.33,35.75L102.5,37.84L136.67,39.07L170.83,41.13L205,41.18L239.17,46.35L307.5,50.07L341.67,50.87L375.83,52.75L410,53.81L444.17,54.76L478.33,56.51L512.5,62.58L546.67,55.23L580.83,57.6L615,61L683.33,68.09L717.5,72.71L820,89.52L854.17,97.09L956.67,118.47L990.83,113.63L1025,80.86" style="vector-effect: none; fill: none; stroke: rgb(92, 184, 92); stroke-opacity: 1; stroke-width: 2px; opacity: 1;"/></g><g class="points"/><g class="text"/></g><g class="trace scatter tracef20d7a" style="stroke-miterlimit: 2; opacity: 1;"><g class="fills"/><g class="errorbars"/><g class="lines"><path class="js-line" d="M6.83,104.6L13.67,96.96L20.5,67.66L27.33,56.79L34.17,54L41,23.14L47.83,22.62L54.67,20.75L61.5,19.71L68.33,19.18L102.5,19.2L170.83,20.44L205,21.57L444.17,25.22L478.33,25.49L512.5,27.55L546.67,24.13L580.83,24.28L615,25.22L683.33,27.16L717.5,28.19L854.17,34.28L888.33,36.37L956.67,41.06L990.83,42.34L1025,34.23" style="vector-effect: none; fill: none; stroke: rgb(92, 184, 92); stroke-opacity: 1; stroke-width: 2px; opacity: 1;"/></g><g class="points"/><g class="text"/></g><g class="trace scatter trace62bfcc" style="stroke-miterlimit: 2; opacity: 1;"><g class="fills"/><g class="errorbars"/><g class="lines"><path class="js-line" d="M6.83,106.6L13.67,103.82L20.5,81.91L27.33,67.94L34.17,66.62L41,40.26L47.83,41.11L54.67,41.1L61.5,38.7L68.33,36.93L102.5,39.02L170.83,43.17L205,42.52L239.17,48.97L273.33,50.97L307.5,52.87L341.67,53.47L375.83,54.81L410,55.04L478.33,58.85L512.5,62.36L546.67,54.74L580.83,57.07L683.33,66.93L717.5,70.94L820,86.76L854.17,93.68L956.67,112.24L990.83,108.05L1025,79.86" style="vector-effect: none; fill: none; stroke: rgb(92, 184, 92); stroke-opacity: 1; stroke-width: 2px; opacity: 1;"/></g><g class="points"/><g class="text"/></g><g class="trace scatter tracee71112" style="stroke-miterlimit: 2; opacity: 1;"><g class="fills"/><g class="errorbars"/><g class="lines"><path class="js-line" d="M6.83,105.92L13.67,98.37L20.5,69.02L27.33,57.5L34.17,54.11L41,22.92L47.83,20.94L61.5,19.32L68.33,18.6L136.67,19.11L170.83,19.83L239.17,21.42L273.33,22.03L410,23.94L444.17,24.63L478.33,25.25L512.5,27.47L546.67,24.38L580.83,24.67L717.5,28.91L751.67,30.55L888.33,37.77L922.5,40.17L956.67,42.67L990.83,44.05L1025,35.21" style="vector-effect: none; fill: none; stroke: rgb(92, 184, 92); stroke-opacity: 1; stroke-width: 2px; opacity: 1;"/></g><g class="points"/><g class="text"/></g><g class="trace scatter trace56f631" style="stroke-miterlimit: 2; opacity: 1;"><g class="fills"/><g class="errorbars"/><g class="lines"><path class="js-line" d="M6.83,102.89L13.67,100.07L20.5,77.69L27.33,62.43L34.17,60.8L41,36.69L47.83,32L61.5,29.71L68.33,29.41L136.67,32.12L170.83,34.66L205,33.85L239.17,39.84L307.5,42.82L341.67,43.03L444.17,46.08L478.33,47.89L512.5,52.62L546.67,45.86L615,51.37L649.17,54.27L717.5,62.21L751.67,67.42L820,78.23L854.17,85.6L956.67,105.43L990.83,102.29L1025,75.97" style="vector-effect: none; fill: none; stroke: rgb(92, 184, 92); stroke-opacity: 1; stroke-width: 2px; opacity: 1;"/></g><g class="points"/><g class="text"/></g><g class="trace scatter tracec8446a" style="stroke-miterlimit: 2; opacity: 1;"><g class="fills"/><g class="errorbars"/><g class="lines"><path class="js-line" d="M6.83,104.57L13.67,97.13L20.5,67.94L27.33,56.87L34.17,54.15L41,23.27L47.83,22.76L54.67,20.86L61.5,19.88L68.33,19.32L102.5,19.34L170.83,20.57L205,21.64L478.33,25.94L512.5,28.01L546.67,24.54L580.83,24.67L717.5,28.44L751.67,29.93L888.33,36.43L922.5,38.86L956.67,41.13L990.83,42.38L1025,34.03" style="vector-effect: none; fill: none; stroke: rgb(92, 184, 92); stroke-opacity: 1; stroke-width: 2px; opacity: 1;"/></g><g class="points"/><g class="text"/></g><g class="trace scatter trace55731e" style="stroke-miterlimit: 2; opacity: 1;"><g class="fills"/><g class="errorbars"/><g class="lines"><path class="js-line" d="M6.83,103.24L13.67,101.12L20.5,76.81L27.33,64.36L34.17,61.95L41,36.08L47.83,34.02L68.33,31.57L102.5,33.49L136.67,34.85L170.83,37.21L205,36.03L239.17,42.06L307.5,44.86L341.67,45.07L375.83,46.36L410,46.6L478.33,49.33L512.5,53.5L546.67,46.24L580.83,48.23L683.33,56.47L717.5,59.87L820,73.67L854.17,80.08L956.67,97.92L990.83,94.49L1025,70.82" style="vector-effect: none; fill: none; stroke: rgb(92, 184, 92); stroke-opacity: 1; stroke-width: 2px; opacity: 1;"/></g><g class="points"/><g class="text"/></g><g class="trace scatter trace11d315" style="stroke-miterlimit: 2; opacity: 1;"><g class="fills"/><g class="errorbars"/><g class="lines"><path class="js-line" d="M6.83,106.98L13.67,99.3L20.5,71.06L27.33,59.37L34.17,55.13L41,24.41L47.83,21.51L68.33,19.66L102.5,19.98L478.33,26.45L512.5,28.63L546.67,24.72L580.83,25.19L717.5,29.26L751.67,30.92L785.83,32.22L820,34.33L854.17,35.47L888.33,37.91L922.5,39.7L956.67,42.54L990.83,43.86L1025,33.72" style="vector-effect: none; fill: none; stroke: rgb(92, 184, 92); stroke-opacity: 1; stroke-width: 2px; opacity: 1;"/></g><g class="points"/><g class="text"/></g><g class="trace scatter tracef1a3d3" style="stroke-miterlimit: 2; opacity: 1;"><g class="fills"/><g class="errorbars"/><g class="lines"><path class="js-line" d="M6.83,103.07L13.67,100.73L20.5,77.16L27.33,65.15L34.17,62.62L41,37.77L47.83,34.27L68.33,31.73L102.5,33.39L170.83,37.65L205,36.77L239.17,42.59L273.33,44.05L307.5,45.51L341.67,45.74L444.17,48.9L478.33,50.79L512.5,54.91L546.67,48.16L615,53.47L649.17,56.34L717.5,63.78L751.67,69.01L820,79.21L854.17,86.16L922.5,101.24L956.67,106.77L990.83,102.69L1025,73.23" style="vector-effect: none; fill: none; stroke: rgb(92, 184, 92); stroke-opacity: 1; stroke-width: 2px; opacity: 1;"/></g><g class="points"/><g class="text"/></g><g class="trace scatter trace3f63f3" style="stroke-miterlimit: 2; opacity: 1;"><g class="fills"/><g class="errorbars"/><g class="lines"><path class="js-line" d="M6.83,104.06L13.67,96.99L20.5,67.42L27.33,56.55L34.17,53.98L41,22.85L47.83,22.42L54.67,20.58L61.5,19.76L68.33,19.26L102.5,19.23L170.83,20.46L205,21.6L375.83,24.05L410,24.51L478.33,25.69L512.5,27.8L546.67,24.38L580.83,24.53L717.5,28.48L751.67,30.04L888.33,36.93L922.5,39.26L956.67,41.59L990.83,42.91L1025,34.21" style="vector-effect: none; fill: none; stroke: rgb(92, 184, 92); stroke-opacity: 1; stroke-width: 2px; opacity: 1;"/></g><g class="points"/><g class="text"/></g><g class="trace scatter trace4221f8" style="stroke-miterlimit: 2; opacity: 1;"><g class="fills"/><g class="errorbars"/><g class="lines"><path class="js-line" d="M6.83,109.49L13.67,104.45L20.5,82.23L27.33,69.55L34.17,65.07L41,40.26L47.83,38.37L68.33,36.71L102.5,38.4L170.83,42.92L205,42.46L239.17,48.58L273.33,50.62L307.5,52.6L341.67,53.44L375.83,54.94L410,55.33L478.33,59.23L512.5,63.19L546.67,55.63L580.83,58.24L683.33,68.85L717.5,73.36L820,90.31L854.17,97.82L956.67,117.97L990.83,113.47L1025,82.61" style="vector-effect: none; fill: none; stroke: rgb(92, 184, 92); stroke-opacity: 1; stroke-width: 2px; opacity: 1;"/></g><g class="points"/><g class="text"/></g><g class="trace scatter tracebd3883" style="stroke-miterlimit: 2; opacity: 1;"><g class="fills"/><g class="errorbars"/><g class="lines"><path class="js-line" d="M6.83,98.53L13.67,98.45L20.5,64.76L27.33,55.63L34.17,53.77L41,21.93L47.83,21.33L61.5,18.75L68.33,18.33L170.83,19.35L205,20.41L444.17,24.89L478.33,26.49L512.5,29.4L546.67,26.56L580.83,27.12L615,28.44L717.5,33.14L751.67,35.5L888.33,45.01L922.5,48.2L956.67,51.04L990.83,52.73L1025,40.28" style="vector-effect: none; fill: none; stroke: rgb(92, 184, 92); stroke-opacity: 1; stroke-width: 2px; opacity: 1;"/></g><g class="points"/><g class="text"/></g><g class="trace scatter trace2a96a1" style="stroke-miterlimit: 2; opacity: 1;"><g class="fills"/><g class="errorbars"/><g class="lines"><path class="js-line" d="M6.83,101.23L13.67,98.92L20.5,71.93L27.33,61.46L34.17,59.24L41,30.7L47.83,31.17L54.67,30.63L61.5,28.67L68.33,28.18L102.5,30.11L136.67,31.23L170.83,33.34L205,33.29L239.17,39.26L307.5,43.56L341.67,44.21L410,46.81L444.17,48.29L478.33,50.37L512.5,57.25L546.67,51.04L580.83,54.98L649.17,62.84L683.33,68.18L717.5,74.42L751.67,81.87L820,94.34L854.17,103.48L922.5,118.41L956.67,125.01L990.83,120.8L1025,86.52" style="vector-effect: none; fill: none; stroke: rgb(92, 184, 92); stroke-opacity: 1; stroke-width: 2px; opacity: 1;"/></g><g class="points"/><g class="text"/></g><g class="trace scatter tracecd95c9" style="stroke-miterlimit: 2; opacity: 1;"><g class="fills"/><g class="errorbars"/><g class="lines"><path class="js-line" d="M6.83,101.91L13.67,96.25L20.5,66.75L27.33,57.15L34.17,54.27L41,23.02L47.83,20.94L68.33,18.89L102.5,19.04L170.83,20.22L205,21.37L307.5,23L341.67,23.22L444.17,24.94L478.33,26.75L512.5,28.75L546.67,25.36L580.83,25.51L615,26.42L683.33,28.43L717.5,29.51L854.17,36.01L888.33,38.29L956.67,43.35L990.83,44.76L1025,35.56" style="vector-effect: none; fill: none; stroke: rgb(92, 184, 92); stroke-opacity: 1; stroke-width: 2px; opacity: 1;"/></g><g class="points"/><g class="text"/></g><g class="trace scatter tracee1c0df" style="stroke-miterlimit: 2; opacity: 1;"><g class="fills"/><g class="errorbars"/><g class="lines"><path class="js-line" d="M6.83,103.26L13.67,101.14L20.5,75.1L27.33,64.89L34.17,62.08L41,35.02L47.83,35.64L54.67,35.32L61.5,33.49L68.33,32.34L102.5,34.21L170.83,36.69L205,36.69L239.17,41.35L273.33,43.18L307.5,44.91L341.67,45.27L410,48.45L444.17,49.31L478.33,50.54L512.5,56.14L546.67,49.05L580.83,51.42L649.17,57.42L683.33,61.17L717.5,65.18L751.67,70.3L820,81.32L854.17,88.59L956.67,109.12L990.83,105.9L1025,78.29" style="vector-effect: none; fill: none; stroke: rgb(92, 184, 92); stroke-opacity: 1; stroke-width: 2px; opacity: 1;"/></g><g class="points"/><g class="text"/></g><g class="trace scatter tracec3c4ef" style="stroke-miterlimit: 2; opacity: 1;"><g class="fills"/><g class="errorbars"/><g class="lines"><path class="js-line" d="M6.83,101.99L13.67,96.68L20.5,67.87L27.33,57.67L34.17,54.53L41,23.58L47.83,21.55L54.67,21.08L61.5,19.84L68.33,19.23L102.5,19.26L170.83,20.58L205,21.76L478.33,25.64L512.5,27.72L546.67,24.26L580.83,24.42L717.5,28.27L751.67,29.73L888.33,36.35L922.5,38.68L956.67,40.9L990.83,42.13L1025,34.21" style="vector-effect: none; fill: none; stroke: rgb(92, 184, 92); stroke-opacity: 1; stroke-width: 2px; opacity: 1;"/></g><g class="points"/><g class="text"/></g><g class="trace scatter trace348b43" style="stroke-miterlimit: 2; opacity: 1;"><g class="fills"/><g class="errorbars"/><g class="lines"><path class="js-line" d="M6.83,107.08L13.67,104.3L20.5,82.88L27.33,69.02L34.17,66.92L41,41.01L47.83,41.5L54.67,41.68L61.5,39.11L68.33,37.55L102.5,39.36L170.83,43.84L205,43.18L239.17,49.32L273.33,51.68L307.5,53.62L341.67,54.26L375.83,55.62L410,55.99L478.33,59.71L512.5,63.15L546.67,55.26L580.83,57.53L683.33,66.67L717.5,70.53L820,85.52L854.17,92.24L956.67,110.07L990.83,105.87L1025,78.39" style="vector-effect: none; fill: none; stroke: rgb(92, 184, 92); stroke-opacity: 1; stroke-width: 2px; opacity: 1;"/></g><g class="points"/><g class="text"/></g><g class="trace scatter trace8212b4" style="stroke-miterlimit: 2; opacity: 1;"><g class="fills"/><g class="errorbars"/><g class="lines"><path class="js-line" d="M6.83,99.96L13.67,102.11L20.5,67.37L27.33,56.99L34.17,54.46L41,24.4L47.83,24.31L54.67,21.02L61.5,19.82L68.33,19.53L102.5,19.41L170.83,20.5L205,21.64L478.33,25.58L512.5,27.74L546.67,24.37L580.83,24.57L717.5,28.55L751.67,30.09L888.33,36.83L922.5,39.04L956.67,41.48L990.83,42.82L1025,34.78" style="vector-effect: none; fill: none; stroke: rgb(92, 184, 92); stroke-opacity: 1; stroke-width: 2px; opacity: 1;"/></g><g class="points"/><g class="text"/></g><g class="trace scatter trace8ac940" style="stroke-miterlimit: 2; opacity: 1;"><g class="fills"/><g class="errorbars"/><g class="lines"><path class="js-line" d="M6.83,105.95L13.67,103.39L20.5,84.77L27.33,68.23L34.17,66.01L41,42.19L47.83,38.97L61.5,36.03L68.33,35.53L136.67,38.71L170.83,41.5L205,41.13L239.17,48.09L307.5,51.42L341.67,51.82L444.17,54.88L478.33,56.67L512.5,60.32L546.67,52.68L615,57.76L649.17,60.41L717.5,67.86L751.67,72.75L820,83.01L854.17,89.85L956.67,108.1L990.83,104.33L1025,77.66" style="vector-effect: none; fill: none; stroke: rgb(92, 184, 92); stroke-opacity: 1; stroke-width: 2px; opacity: 1;"/></g><g class="points"/><g class="text"/></g><g class="trace scatter trace7ff63f" style="stroke-miterlimit: 2; opacity: 1;"><g class="fills"/><g class="errorbars"/><g class="lines"><path class="js-line" d="M6.83,99.16L13.67,101.07L20.5,66.97L27.33,57.43L34.17,55L41,24.66L47.83,23.97L54.67,21.16L61.5,20.31L68.33,19.81L102.5,20.04L410,25.18L444.17,25.8L478.33,26.27L512.5,28.54L546.67,24.8L580.83,25.15L717.5,29.15L751.67,30.77L854.17,35.29L888.33,37.51L956.67,42.34L990.83,43.62L1025,33.87" style="vector-effect: none; fill: none; stroke: rgb(92, 184, 92); stroke-opacity: 1; stroke-width: 2px; opacity: 1;"/></g><g class="points"/><g class="text"/></g><g class="trace scatter traced42344" style="stroke-miterlimit: 2; opacity: 1;"><g class="fills"/><g class="errorbars"/><g class="lines"><path class="js-line" d="M6.83,103.53L13.67,101.11L20.5,77.95L27.33,65.64L34.17,62.58L41,36.81L47.83,34.85L54.67,34.37L61.5,32.75L68.33,32.04L102.5,33.83L170.83,38.24L205,37.67L239.17,43.94L273.33,45.31L307.5,47.06L341.67,47.4L444.17,50.48L478.33,52.23L512.5,56.29L546.67,49.11L615,54.17L649.17,56.76L717.5,64.2L751.67,69.16L820,79.07L854.17,85.64L922.5,99.36L956.67,105.02L990.83,101L1025,73.36" style="vector-effect: none; fill: none; stroke: rgb(92, 184, 92); stroke-opacity: 1; stroke-width: 2px; opacity: 1;"/></g><g class="points"/><g class="text"/></g><g class="trace scatter trace98a1d2" style="stroke-miterlimit: 2; opacity: 1;"><g class="fills"/><g class="errorbars"/><g class="lines"><path class="js-line" d="M6.83,102.64L13.67,96.53L20.5,68.02L27.33,57.18L34.17,54.56L41,23.63L47.83,21.61L54.67,21.18L61.5,19.93L68.33,19.2L102.5,19.3L170.83,20.6L205,21.69L375.83,24.28L410,24.74L478.33,26.05L512.5,28.09L546.67,24.62L580.83,24.78L717.5,28.66L751.67,30.1L888.33,36.78L922.5,39.28L956.67,41.51L990.83,42.7L1025,34.48" style="vector-effect: none; fill: none; stroke: rgb(92, 184, 92); stroke-opacity: 1; stroke-width: 2px; opacity: 1;"/></g><g class="points"/><g class="text"/></g><g class="trace scatter trace9fb4ca" style="stroke-miterlimit: 2; opacity: 1;"><g class="fills"/><g class="errorbars"/><g class="lines"><path class="js-line" d="M6.83,103.81L13.67,101.33L20.5,76.77L27.33,64.99L34.17,61.61L41,36.05L47.83,34.29L54.67,34.05L61.5,32.75L68.33,32L102.5,33.87L170.83,37.58L205,36.43L239.17,42.17L273.33,43.78L307.5,45.3L341.67,45.57L375.83,46.94L410,47.33L478.33,50.06L512.5,54.26L546.67,46.97L580.83,48.99L683.33,57.34L717.5,60.8L820,74.65L854.17,81.1L956.67,98.8L990.83,95.34L1025,71.53" style="vector-effect: none; fill: none; stroke: rgb(92, 184, 92); stroke-opacity: 1; stroke-width: 2px; opacity: 1;"/></g><g class="points"/><g class="text"/></g><g class="trace scatter trace9b1fc4" style="stroke-miterlimit: 2; opacity: 1;"><g class="fills"/><g class="errorbars"/><g class="lines"><path class="js-line" d="M6.83,102.27L13.67,96L20.5,66.04L27.33,56.16L34.17,53.7L41,22.15L47.83,20.27L54.67,19.97L61.5,18.91L68.33,18.38L102.5,18.49L170.83,19.7L205,20.79L307.5,22.02L341.67,22.41L478.33,24.55L512.5,26.6L546.67,23.51L580.83,23.71L717.5,27.67L751.67,29.16L888.33,35.81L922.5,38.04L956.67,40.38L990.83,41.69L1025,33.9" style="vector-effect: none; fill: none; stroke: rgb(92, 184, 92); stroke-opacity: 1; stroke-width: 2px; opacity: 1;"/></g><g class="points"/><g class="text"/></g><g class="trace scatter trace4289fc" style="stroke-miterlimit: 2; opacity: 1;"><g class="fills"/><g class="errorbars"/><g class="lines"><path class="js-line" d="M6.83,107.05L13.67,102.24L20.5,77.8L27.33,65.65L34.17,61.16L41,34.94L47.83,32.82L68.33,31.43L102.5,32.67L170.83,37.06L205,36.53L239.17,42.35L273.33,44.25L307.5,45.88L341.67,46.49L444.17,50.15L478.33,52.28L512.5,56.45L546.67,49.42L615,55.15L649.17,58.15L717.5,66.32L751.67,71.69L820,82.98L854.17,90.29L956.67,110.08L990.83,106.63L1025,79.34" style="vector-effect: none; fill: none; stroke: rgb(92, 184, 92); stroke-opacity: 1; stroke-width: 2px; opacity: 1;"/></g><g class="points"/><g class="text"/></g><g class="trace scatter trace95f1f1" style="stroke-miterlimit: 2; opacity: 1;"><g class="fills"/><g class="errorbars"/><g class="lines"><path class="js-line" d="M6.83,99.13L13.67,100.67L20.5,65.81L27.33,56.25L34.17,53.89L41,23.2L47.83,23.04L54.67,20.15L61.5,19.12L68.33,18.81L102.5,18.78L170.83,19.77L205,20.89L478.33,24.82L512.5,26.92L546.67,23.74L580.83,23.95L717.5,27.98L751.67,29.5L888.33,36.24L922.5,38.56L956.67,40.89L990.83,42.22L1025,34.17" style="vector-effect: none; fill: none; stroke: rgb(92, 184, 92); stroke-opacity: 1; stroke-width: 2px; opacity: 1;"/></g><g class="points"/><g class="text"/></g><g class="trace scatter traceed8367" style="stroke-miterlimit: 2; opacity: 1;"><g class="fills"/><g class="errorbars"/><g class="lines"><path class="js-line" d="M6.83,107.48L13.67,102.49L20.5,79.21L27.33,66.35L34.17,62.07L41,35.82L47.83,34.19L68.33,32.58L102.5,33.96L170.83,38.14L205,37.53L239.17,43.38L273.33,45.3L307.5,46.87L341.67,47.46L444.17,51.1L478.33,53.04L512.5,57.29L546.67,50.07L615,55.82L649.17,58.92L717.5,67.17L751.67,72.55L820,83.68L854.17,90.98L956.67,110.59L990.83,106.96L1025,79.36" style="vector-effect: none; fill: none; stroke: rgb(92, 184, 92); stroke-opacity: 1; stroke-width: 2px; opacity: 1;"/></g><g class="points"/><g class="text"/></g></g></g></g><g class="zerolinelayer-above"/><path class="xlines-above crisp" d="M0,0" style="fill: none;"/><path class="ylines-above crisp" d="M0,0" style="fill: none;"/><g class="overlines-above"/><g class="xaxislayer-above"><g class="xtick"><text text-anchor="middle" x="0" y="451" transform="translate(60,0)" style="font-family: 'Lucida Grande', 'Open Sans', verdana, arial, sans-serif; font-size: 10px; fill: rgb(0, 0, 0); fill-opacity: 1; white-space: pre;">0 bp</text></g><g class="xtick"><text text-anchor="middle" x="0" y="451" style="font-family: 'Lucida Grande', 'Open Sans', verdana, arial, sans-serif; font-size: 10px; fill: rgb(0, 0, 0); fill-opacity: 1; white-space: pre;" transform="translate(196.67,0)">20 bp</text></g><g class="xtick"><text text-anchor="middle" x="0" y="451" style="font-family: 'Lucida Grande', 'Open Sans', verdana, arial, sans-serif; font-size: 10px; fill: rgb(0, 0, 0); fill-opacity: 1; white-space: pre;" transform="translate(333.33,0)">40 bp</text></g><g class="xtick"><text text-anchor="middle" x="0" y="451" style="font-family: 'Lucida Grande', 'Open Sans', verdana, arial, sans-serif; font-size: 10px; fill: rgb(0, 0, 0); fill-opacity: 1; white-space: pre;" transform="translate(470,0)">60 bp</text></g><g class="xtick"><text text-anchor="middle" x="0" y="451" style="font-family: 'Lucida Grande', 'Open Sans', verdana, arial, sans-serif; font-size: 10px; fill: rgb(0, 0, 0); fill-opacity: 1; white-space: pre;" transform="translate(606.67,0)">80 bp</text></g><g class="xtick"><text text-anchor="middle" x="0" y="451" style="font-family: 'Lucida Grande', 'Open Sans', verdana, arial, sans-serif; font-size: 10px; fill: rgb(0, 0, 0); fill-opacity: 1; white-space: pre;" transform="translate(743.33,0)">100 bp</text></g><g class="xtick"><text text-anchor="middle" x="0" y="451" style="font-family: 'Lucida Grande', 'Open Sans', verdana, arial, sans-serif; font-size: 10px; fill: rgb(0, 0, 0); fill-opacity: 1; white-space: pre;" transform="translate(880,0)">120 bp</text></g><g class="xtick"><text text-anchor="middle" x="0" y="451" style="font-family: 'Lucida Grande', 'Open Sans', verdana, arial, sans-serif; font-size: 10px; fill: rgb(0, 0, 0); fill-opacity: 1; white-space: pre;" transform="translate(1016.67,0)">140 bp</text></g></g><g class="yaxislayer-above"><g class="ytick"><text text-anchor="end" x="54" y="3.5" transform="translate(0,435)" style="font-family: 'Lucida Grande', 'Open Sans', verdana, arial, sans-serif; font-size: 10px; fill: rgb(0, 0, 0); fill-opacity: 1; white-space: pre;">0</text></g><g class="ytick"><text text-anchor="end" x="54" y="3.5" style="font-family: 'Lucida Grande', 'Open Sans', verdana, arial, sans-serif; font-size: 10px; fill: rgb(0, 0, 0); fill-opacity: 1; white-space: pre;" transform="translate(0,389.32)">5</text></g><g class="ytick"><text text-anchor="end" x="54" y="3.5" style="font-family: 'Lucida Grande', 'Open Sans', verdana, arial, sans-serif; font-size: 10px; fill: rgb(0, 0, 0); fill-opacity: 1; white-space: pre;" transform="translate(0,343.64)">10</text></g><g class="ytick"><text text-anchor="end" x="54" y="3.5" style="font-family: 'Lucida Grande', 'Open Sans', verdana, arial, sans-serif; font-size: 10px; fill: rgb(0, 0, 0); fill-opacity: 1; white-space: pre;" transform="translate(0,297.96000000000004)">15</text></g><g class="ytick"><text text-anchor="end" x="54" y="3.5" style="font-family: 'Lucida Grande', 'Open Sans', verdana, arial, sans-serif; font-size: 10px; fill: rgb(0, 0, 0); fill-opacity: 1; white-space: pre;" transform="translate(0,252.28)">20</text></g><g class="ytick"><text text-anchor="end" x="54" y="3.5" style="font-family: 'Lucida Grande', 'Open Sans', verdana, arial, sans-serif; font-size: 10px; fill: rgb(0, 0, 0); fill-opacity: 1; white-space: pre;" transform="translate(0,206.6)">25</text></g><g class="ytick"><text text-anchor="end" x="54" y="3.5" style="font-family: 'Lucida Grande', 'Open Sans', verdana, arial, sans-serif; font-size: 10px; fill: rgb(0, 0, 0); fill-opacity: 1; white-space: pre;" transform="translate(0,160.92000000000002)">30</text></g><g class="ytick"><text text-anchor="end" x="54" y="3.5" style="font-family: 'Lucida Grande', 'Open Sans', verdana, arial, sans-serif; font-size: 10px; fill: rgb(0, 0, 0); fill-opacity: 1; white-space: pre;" transform="translate(0,115.24)">35</text></g><g class="ytick"><text text-anchor="end" x="54" y="3.5" style="font-family: 'Lucida Grande', 'Open Sans', verdana, arial, sans-serif; font-size: 10px; fill: rgb(0, 0, 0); fill-opacity: 1; white-space: pre;" transform="translate(0,69.56)">40</text></g></g><g class="overaxes-above"/></g></g><g class="polarlayer"/><g class="smithlayer"/><g class="ternarylayer"/><g class="geolayer"/><g class="funnelarealayer"/><g class="pielayer"/><g class="iciclelayer"/><g class="treemaplayer"/><g class="sunburstlayer"/><g class="glimages"/><defs id="topdefs-349e45"><g class="clips"/></defs><g class="layer-above"><g class="imagelayer"/><g class="shapelayer"/></g><g class="infolayer"><g class="g-gtitle"><text class="gtitle" x="550" y="25" text-anchor="middle" dy="0em" style="opacity: 1; font-family: 'Lucida Grande', 'Open Sans', verdana, arial, sans-serif; font-size: 20px; fill: rgb(68, 68, 68); fill-opacity: 1; white-space: pre;"><tspan class="line" dy="0em" x="550" y="25">FastQC: Mean Quality Scores</tspan><tspan class="line" dy="1.3em" x="550" y="25">​<tspan style="font-size:70%" dy="-0.6em">32 lines</tspan><tspan dy="0.42em">​</tspan></tspan></text></g><g class="g-xtitle"><text class="xtitle" x="572.5" y="487" text-anchor="middle" style="opacity: 0.3; font-family: 'Lucida Grande', 'Open Sans', verdana, arial, sans-serif; font-size: 14px; fill: rgb(0, 0, 0); fill-opacity: 1; white-space: pre;">Position (bp)</text></g><g class="g-ytitle"><text class="ytitle" transform="rotate(-90,22,242.5)" x="22" y="242.5" text-anchor="middle" style="opacity: 0.3; font-family: 'Lucida Grande', 'Open Sans', verdana, arial, sans-serif; font-size: 14px; fill: rgb(0, 0, 0); fill-opacity: 1; white-space: pre;">Phred Score</text></g></g></svg>