<svg class="main-svg" xmlns="http://www.w3.org/2000/svg" xmlns:xlink="http://www.w3.org/1999/xlink" width="2200" height="1000" style="" viewBox="0 0 1100 500"><rect x="0" y="0" width="1100" height="500" style="fill: rgb(255, 255, 255); fill-opacity: 1;"/><defs id="defs-fcc3ab"><g class="clips"><clipPath id="clipfcc3abxyplot" class="plotclip"><rect width="1025" height="385"/></clipPath><clipPath class="axesclip" id="clipfcc3abx"><rect x="60" y="0" width="1025" height="500"/></clipPath><clipPath class="axesclip" id="clipfcc3aby"><rect x="0" y="50" width="1100" height="385"/></clipPath><clipPath class="axesclip" id="clipfcc3abxy"><rect x="60" y="50" width="1025" height="385"/></clipPath></g><g class="gradients"/><g class="patterns"/></defs><g class="bglayer"/><g class="layer-below"><g class="imagelayer"/><g class="shapelayer"><g class="shape-group" data-index="0" clip-path="url(#clipfcc3aby)"><path data-index="0" fill-rule="evenodd" d="M60,324.74H1085V-116.31H60Z" style="opacity: 0.13; stroke: rgb(0, 0, 0); stroke-opacity: 0; fill: rgb(153, 1, 1); fill-opacity: 1; stroke-width: 0px;"/></g><g class="shape-group" data-index="1" clip-path="url(#clipfcc3aby)"><path data-index="1" fill-rule="evenodd" d="M60,407.43H1085V324.74H60Z" style="opacity: 0.13; stroke: rgb(0, 0, 0); stroke-opacity: 0; fill: rgb(160, 115, 0); fill-opacity: 1; stroke-width: 0px;"/></g><g class="shape-group" data-index="2" clip-path="url(#clipfcc3aby)"><path data-index="2" fill-rule="evenodd" d="M60,435H1085V407.43H60Z" style="opacity: 0.13; stroke: rgb(0, 0, 0); stroke-opacity: 0; fill: rgb(0, 149, 0); fill-opacity: 1; stroke-width: 0px;"/></g><g class="shape-group" data-index="3" clip-path="url(#clipfcc3aby)"><path data-index="3" fill-rule="evenodd" d="M60,324.74H1085V-116.31H60Z" style="opacity: 0.13; stroke: rgb(0, 0, 0); stroke-opacity: 0; fill: rgb(153, 1, 1); fill-opacity: 1; stroke-width: 0px;"/></g><g class="shape-group" data-index="4" clip-path="url(#clipfcc3aby)"><path data-index="4" fill-rule="evenodd" d="M60,407.43H1085V324.74H60Z" style="opacity: 0.13; stroke: rgb(0, 0, 0); stroke-opacity: 0; fill: rgb(160, 115, 0); fill-opacity: 1; stroke-width: 0px;"/></g><g class="shape-group" data-index="5" clip-path="url(#clipfcc3aby)"><path data-index="5" fill-rule="evenodd" d="M60,435H1085V407.43H60Z" style="opacity: 0.13; stroke: rgb(0, 0, 0); stroke-opacity: 0; fill: rgb(0, 149, 0); fill-opacity: 1; stroke-width: 0px;"/></g></g></g><g class="cartesianlayer"><g class="subplot xy"><g class="layer-subplot"><g class="shapelayer"/><g class="imagelayer"/></g><g class="minor-gridlayer"><g class="x"/><g class="y"/></g><g class="gridlayer"><g class="x"><path class="xgrid crisp" transform="translate(202.15,0)" d="M0,50v385" style="stroke: rgb(0, 0, 0); stroke-opacity: 0.05; stroke-width: 1px;"/><path class="xgrid crisp" transform="translate(351.79,0)" d="M0,50v385" style="stroke: rgb(0, 0, 0); stroke-opacity: 0.05; stroke-width: 1px;"/><path class="xgrid crisp" transform="translate(501.42,0)" d="M0,50v385" style="stroke: rgb(0, 0, 0); stroke-opacity: 0.05; stroke-width: 1px;"/><path class="xgrid crisp" transform="translate(651.06,0)" d="M0,50v385" style="stroke: rgb(0, 0, 0); stroke-opacity: 0.05; stroke-width: 1px;"/><path class="xgrid crisp" transform="translate(800.69,0)" d="M0,50v385" style="stroke: rgb(0, 0, 0); stroke-opacity: 0.05; stroke-width: 1px;"/><path class="xgrid crisp" transform="translate(950.33,0)" d="M0,50v385" style="stroke: rgb(0, 0, 0); stroke-opacity: 0.05; stroke-width: 1px;"/></g><g class="y"><path class="ygrid crisp" transform="translate(0,379.87)" d="M60,0h1025" style="stroke: rgb(0, 0, 0); stroke-opacity: 0.05; stroke-width: 1px;"/><path class="ygrid crisp" transform="translate(0,324.74)" d="M60,0h1025" style="stroke: rgb(0, 0, 0); stroke-opacity: 0.05; stroke-width: 1px;"/><path class="ygrid crisp" transform="translate(0,269.61)" d="M60,0h1025" style="stroke: rgb(0, 0, 0); stroke-opacity: 0.05; stroke-width: 1px;"/><path class="ygrid crisp" transform="translate(0,214.48)" d="M60,0h1025" style="stroke: rgb(0, 0, 0); stroke-opacity: 0.05; stroke-width: 1px;"/><path class="ygrid crisp" transform="translate(0,159.34)" d="M60,0h1025" style="stroke: rgb(0, 0, 0); stroke-opacity: 0.05; stroke-width: 1px;"/><path class="ygrid crisp" transform="translate(0,104.21000000000001)" d="M60,0h1025" style="stroke: rgb(0, 0, 0); stroke-opacity: 0.05; stroke-width: 1px;"/></g></g><g class="zerolinelayer"><path class="yzl zl crisp" transform="translate(0,435)" d="M60,0h1025" style="stroke: rgb(0, 0, 0); stroke-opacity: 0.05; stroke-width: 1px;"/></g><g class="layer-between"><g class="shapelayer"/><g class="imagelayer"/></g><path class="xlines-below"/><path class="ylines-below"/><g class="overlines-below"/><g class="xaxislayer-below"/><g class="yaxislayer-below"/><g class="overaxes-below"/><g class="overplot"><g class="xy" transform="translate(60,50)" clip-path="url(#clipfcc3abxyplot)"><g class="scatterlayer mlayer"><g class="trace scatter tracee9001a" style="stroke-miterlimit: 2; opacity: 1;"><g class="fills"/><g class="errorbars"/><g class="lines"><path class="js-line" d="M0,385L471.35,384.35L486.31,384.15L546.17,382.65L561.13,382.01L606.02,379.06L620.99,377.56L650.91,373.64L665.88,371.24L695.8,364.69L710.77,360.66L740.69,351.14L755.66,345.64L785.58,333.04L800.55,326.11L830.47,311.29L845.44,303.28L875.36,285.4L890.33,276.31L1025,196.89" style="vector-effect: none; fill: none; stroke: rgb(124, 181, 236); stroke-opacity: 1; stroke-width: 2px; opacity: 1;"/></g><g class="points"/><g class="text"/></g><g class="trace scatter trace06d67d" style="stroke-miterlimit: 2; opacity: 1;"><g class="fills"/><g class="errorbars"/><g class="lines"><path class="js-line" d="M0,384.93L1025,382.73" style="vector-effect: none; fill: none; stroke: rgb(67, 67, 72); stroke-opacity: 1; stroke-width: 2px; opacity: 1;"/></g><g class="points"/><g class="text"/></g><g class="trace scatter traced2e0c1" style="stroke-miterlimit: 2; opacity: 1;"><g class="fills"/><g class="errorbars"/><g class="lines"><path class="js-line" d="M0,385L471.35,384.34L486.31,384.15L546.17,382.69L561.13,382.07L606.02,379.22L620.99,377.77L650.91,373.99L665.88,371.67L695.8,365.37L710.77,361.47L740.69,352.3L755.66,347.01L785.58,334.88L800.55,328.24L830.47,314.01L845.44,306.37L875.36,289.41L890.33,280.79L995.07,222.97L1010.04,215.01L1025,207.25" style="vector-effect: none; fill: none; stroke: rgb(144, 237, 125); stroke-opacity: 1; stroke-width: 2px; opacity: 1;"/></g><g class="points"/><g class="text"/></g><g class="trace scatter trace9d3521" style="stroke-miterlimit: 2; opacity: 1;"><g class="fills"/><g class="errorbars"/><g class="lines"><path class="js-line" d="M0,384.93L755.66,382.61L770.62,382.59L1025,382.27" style="vector-effect: none; fill: none; stroke: rgb(247, 163, 92); stroke-opacity: 1; stroke-width: 2px; opacity: 1;"/></g><g class="points"/><g class="text"/></g><g class="trace scatter tracea61324" style="stroke-miterlimit: 2; opacity: 1;"><g class="fills"/><g class="errorbars"/><g class="lines"><path class="js-line" d="M0,384.99L276.82,384.4L291.79,384.22L351.64,382.83L366.61,382.12L411.5,378.81L426.46,377.17L456.39,372.31L471.35,369.08L501.28,360.9L516.24,355.73L531.2,350.51L546.17,344.3L591.06,323.88L606.02,316.67L650.91,292.15L665.88,284.09L710.77,255.43L725.73,246.32L770.62,218.1L785.58,209.29L815.51,193.13L830.47,185.74L860.4,170.8L875.36,164.14L965.15,127.88L980.11,122.61L1010.04,112.31L1025,107.84" style="vector-effect: none; fill: none; stroke: rgb(128, 133, 233); stroke-opacity: 1; stroke-width: 2px; opacity: 1;"/></g><g class="points"/><g class="text"/></g><g class="trace scatter tracec244fa" style="stroke-miterlimit: 2; opacity: 1;"><g class="fills"/><g class="errorbars"/><g class="lines"><path class="js-line" d="M0,384.47L920.26,382.74L935.22,382.72L1025,382.6" style="vector-effect: none; fill: none; stroke: rgb(241, 92, 128); stroke-opacity: 1; stroke-width: 2px; opacity: 1;"/></g><g class="points"/><g class="text"/></g><g class="trace scatter trace025df0" style="stroke-miterlimit: 2; opacity: 1;"><g class="fills"/><g class="errorbars"/><g class="lines"><path class="js-line" d="M0,384.99L276.82,384.41L291.79,384.23L366.61,382.15L381.57,381.24L426.46,377.28L441.42,375.21L471.35,369.39L486.31,365.8L516.24,356.48L531.2,351.41L561.13,339.07L576.09,332.44L606.02,318.84L620.99,310.78L665.88,287.79L680.84,278.83L695.8,269.33L710.77,260.95L755.66,234.71L770.62,226.22L800.55,210.55L815.51,203.36L860.4,183.12L875.36,177.09L950.18,150L965.15,145.35L1010.04,132.05L1025,128.22" style="vector-effect: none; fill: none; stroke: rgb(228, 211, 84); stroke-opacity: 1; stroke-width: 2px; opacity: 1;"/></g><g class="points"/><g class="text"/></g><g class="trace scatter trace701827" style="stroke-miterlimit: 2; opacity: 1;"><g class="fills"/><g class="errorbars"/><g class="lines"><path class="js-line" d="M0,384.85L980.11,382.77L995.07,382.76L1025,382.73" style="vector-effect: none; fill: none; stroke: rgb(43, 144, 143); stroke-opacity: 1; stroke-width: 2px; opacity: 1;"/></g><g class="points"/><g class="text"/></g><g class="trace scatter trace259ebc" style="stroke-miterlimit: 2; opacity: 1;"><g class="fills"/><g class="errorbars"/><g class="lines"><path class="js-line" d="M0,385L306.75,384.31L321.72,384.13L366.61,383.16L381.57,382.57L426.46,380.14L441.42,378.95L486.31,373.91L501.28,371.8L546.17,364.07L561.13,361.17L606.02,351.85L620.99,348.26L665.88,336.89L680.84,332.74L800.55,296.3L815.51,291.49L950.18,247.01L965.15,241.94L1025,221.97" style="vector-effect: none; fill: none; stroke: rgb(244, 91, 91); stroke-opacity: 1; stroke-width: 2px; opacity: 1;"/></g><g class="points"/><g class="text"/></g><g class="trace scatter trace23d8c0" style="stroke-miterlimit: 2; opacity: 1;"><g class="fills"/><g class="errorbars"/><g class="lines"><path class="js-line" d="M0,384.42L905.29,383.94L920.26,383.94L1025,383.88" style="vector-effect: none; fill: none; stroke: rgb(145, 232, 225); stroke-opacity: 1; stroke-width: 2px; opacity: 1;"/></g><g class="points"/><g class="text"/></g><g class="trace scatter trace6b7d39" style="stroke-miterlimit: 2; opacity: 1;"><g class="fills"/><g class="errorbars"/><g class="lines"><path class="js-line" d="M0,385L306.75,384.29L321.72,384.11L381.57,382.52L396.53,381.87L441.42,378.93L456.39,377.49L501.28,371.95L516.24,369.65L561.13,361.45L576.09,358.46L606.02,352.31L620.99,348.8L665.88,337.72L680.84,333.66L800.55,298.66L815.51,294.02L980.11,243.04L995.07,238.69L1025,229.76" style="vector-effect: none; fill: none; stroke: rgb(124, 181, 236); stroke-opacity: 1; stroke-width: 2px; opacity: 1;"/></g><g class="points"/><g class="text"/></g><g class="trace scatter trace270db1" style="stroke-miterlimit: 2; opacity: 1;"><g class="fills"/><g class="errorbars"/><g class="lines"><path class="js-line" d="M0,384.9L755.66,384.15L770.62,384.14L1025,384.02" style="vector-effect: none; fill: none; stroke: rgb(67, 67, 72); stroke-opacity: 1; stroke-width: 2px; opacity: 1;"/></g><g class="points"/><g class="text"/></g><g class="trace scatter tracee33d1b" style="stroke-miterlimit: 2; opacity: 1;"><g class="fills"/><g class="errorbars"/><g class="lines"><path class="js-line" d="M0,385L396.53,384.28L411.5,384.04L456.39,382.66L471.35,381.9L516.24,378.64L531.2,377.2L576.09,371.61L591.06,369.43L635.95,361.7L650.91,358.78L680.84,352.6L695.8,349.14L755.66,334.12L770.62,330.19L830.47,313.35L845.44,308.95L920.26,285.25L935.22,280.38L1025,250.08" style="vector-effect: none; fill: none; stroke: rgb(144, 237, 125); stroke-opacity: 1; stroke-width: 2px; opacity: 1;"/></g><g class="points"/><g class="text"/></g><g class="trace scatter tracec1e108" style="stroke-miterlimit: 2; opacity: 1;"><g class="fills"/><g class="errorbars"/><g class="lines"><path class="js-line" d="M0,384.77L1025,382.5" style="vector-effect: none; fill: none; stroke: rgb(247, 163, 92); stroke-opacity: 1; stroke-width: 2px; opacity: 1;"/></g><g class="points"/><g class="text"/></g><g class="trace scatter trace9fffcb" style="stroke-miterlimit: 2; opacity: 1;"><g class="fills"/><g class="errorbars"/><g class="lines"><path class="js-line" d="M0,385L396.53,384.28L411.5,384.04L456.39,382.68L471.35,381.93L516.24,378.74L531.2,377.33L576.09,371.85L591.06,369.72L635.95,362.2L650.91,359.37L695.8,350.02L710.77,346.54L785.58,327.8L800.55,323.77L875.36,302.48L890.33,298.03L995.07,266.63L1010.04,262.07L1025,257.51" style="vector-effect: none; fill: none; stroke: rgb(128, 133, 233); stroke-opacity: 1; stroke-width: 2px; opacity: 1;"/></g><g class="points"/><g class="text"/></g><g class="trace scatter trace7ae01b" style="stroke-miterlimit: 2; opacity: 1;"><g class="fills"/><g class="errorbars"/><g class="lines"><path class="js-line" d="M0,384.88L680.84,382.87L695.8,382.84L1025,382.31" style="vector-effect: none; fill: none; stroke: rgb(241, 92, 128); stroke-opacity: 1; stroke-width: 2px; opacity: 1;"/></g><g class="points"/><g class="text"/></g><g class="trace scatter trace8b7d94" style="stroke-miterlimit: 2; opacity: 1;"><g class="fills"/><g class="errorbars"/><g class="lines"><path class="js-line" d="M0,385L261.86,384.34L276.82,384.14L336.68,382.52L351.64,381.78L381.57,379.3L396.53,377.59L426.46,373.25L441.42,370.18L471.35,362.24L486.31,357.55L516.24,346.25L531.2,340.17L561.13,326.04L576.09,318.54L606.02,303.24L620.99,294.77L680.84,261.47L695.8,252.3L785.58,200.48L800.55,192.47L860.4,162.21L875.36,155.05L965.15,115.26L980.11,109.1L1025,91.43" style="vector-effect: none; fill: none; stroke: rgb(228, 211, 84); stroke-opacity: 1; stroke-width: 2px; opacity: 1;"/></g><g class="points"/><g class="text"/></g><g class="trace scatter trace04ffd4" style="stroke-miterlimit: 2; opacity: 1;"><g class="fills"/><g class="errorbars"/><g class="lines"><path class="js-line" d="M0,384.76L620.99,382.99L635.95,382.96L1025,382.22" style="vector-effect: none; fill: none; stroke: rgb(43, 144, 143); stroke-opacity: 1; stroke-width: 2px; opacity: 1;"/></g><g class="points"/><g class="text"/></g><g class="trace scatter trace6a0420" style="stroke-miterlimit: 2; opacity: 1;"><g class="fills"/><g class="errorbars"/><g class="lines"><path class="js-line" d="M0,385L261.86,384.34L276.82,384.15L336.68,382.54L351.64,381.82L381.57,379.39L396.53,377.71L426.46,373.43L441.42,370.43L471.35,362.68L486.31,358.14L516.24,347.22L531.2,341.36L561.13,327.72L576.09,320.5L606.02,305.84L620.99,297.77L680.84,266.17L695.8,257.55L785.58,208.69L800.55,201.31L860.4,173.4L875.36,166.83L950.18,136.7L965.15,131.12L1025,110.25" style="vector-effect: none; fill: none; stroke: rgb(244, 91, 91); stroke-opacity: 1; stroke-width: 2px; opacity: 1;"/></g><g class="points"/><g class="text"/></g><g class="trace scatter trace8f11eb" style="stroke-miterlimit: 2; opacity: 1;"><g class="fills"/><g class="errorbars"/><g class="lines"><path class="js-line" d="M0,384.83L860.4,382.03L875.36,382L1025,381.74" style="vector-effect: none; fill: none; stroke: rgb(145, 232, 225); stroke-opacity: 1; stroke-width: 2px; opacity: 1;"/></g><g class="points"/><g class="text"/></g><g class="trace scatter trace455635" style="stroke-miterlimit: 2; opacity: 1;"><g class="fills"/><g class="errorbars"/><g class="lines"><path class="js-line" d="M0,385L396.53,384.34L411.5,384.14L471.35,382.35L486.31,381.6L531.2,378.63L546.17,377.31L591.06,372.5L606.02,370.63L650.91,364.09L665.88,361.75L710.77,353.62L725.73,350.6L785.58,337.66L800.55,334.14L860.4,319.07L875.36,314.76L935.22,297.3L950.18,292.6L1010.04,272.97L1025,267.79" style="vector-effect: none; fill: none; stroke: rgb(124, 181, 236); stroke-opacity: 1; stroke-width: 2px; opacity: 1;"/></g><g class="points"/><g class="text"/></g><g class="trace scatter tracea0c79e" style="stroke-miterlimit: 2; opacity: 1;"><g class="fills"/><g class="errorbars"/><g class="lines"><path class="js-line" d="M0,384.75L920.26,383.02L935.22,383L1025,382.87" style="vector-effect: none; fill: none; stroke: rgb(67, 67, 72); stroke-opacity: 1; stroke-width: 2px; opacity: 1;"/></g><g class="points"/><g class="text"/></g><g class="trace scatter trace74ae01" style="stroke-miterlimit: 2; opacity: 1;"><g class="fills"/><g class="errorbars"/><g class="lines"><path class="js-line" d="M0,385L396.53,384.32L411.5,384.11L471.35,382.34L486.31,381.59L531.2,378.64L546.17,377.33L591.06,372.57L606.02,370.72L665.88,361.97L680.84,359.48L725.73,350.98L740.69,347.91L800.55,334.81L815.51,331.24L860.4,320.11L875.36,315.94L950.18,294.8L965.15,290.31L1025,271.64" style="vector-effect: none; fill: none; stroke: rgb(144, 237, 125); stroke-opacity: 1; stroke-width: 2px; opacity: 1;"/></g><g class="points"/><g class="text"/></g><g class="trace scatter trace91199c" style="stroke-miterlimit: 2; opacity: 1;"><g class="fills"/><g class="errorbars"/><g class="lines"><path class="js-line" d="M0,384.89L1025,382.55" style="vector-effect: none; fill: none; stroke: rgb(247, 163, 92); stroke-opacity: 1; stroke-width: 2px; opacity: 1;"/></g><g class="points"/><g class="text"/></g><g class="trace scatter trace56c9dd" style="stroke-miterlimit: 2; opacity: 1;"><g class="fills"/><g class="errorbars"/><g class="lines"><path class="js-line" d="M0,385L336.68,384.41L351.64,384.17L396.53,382.59L411.5,381.82L441.42,379.31L456.39,377.53L501.28,370.71L516.24,367.99L546.17,361.79L561.13,358.21L635.95,338.59L650.91,334.42L695.8,321.11L710.77,316.3L860.4,269.98L875.36,264.75L935.22,245.45L950.18,240.56L1025,215.49" style="vector-effect: none; fill: none; stroke: rgb(128, 133, 233); stroke-opacity: 1; stroke-width: 2px; opacity: 1;"/></g><g class="points"/><g class="text"/></g><g class="trace scatter trace929f25" style="stroke-miterlimit: 2; opacity: 1;"><g class="fills"/><g class="errorbars"/><g class="lines"><path class="js-line" d="M0,385L336.68,384.39L351.64,384.14L396.53,382.56L411.5,381.78L441.42,379.27L456.39,377.49L501.28,370.69L516.24,367.97L546.17,361.78L561.13,358.2L635.95,338.68L650.91,334.55L695.8,321.35L710.77,316.57L875.36,265.57L890.33,260.7L1025,218.5" style="vector-effect: none; fill: none; stroke: rgb(241, 92, 128); stroke-opacity: 1; stroke-width: 2px; opacity: 1;"/></g><g class="points"/><g class="text"/></g><g class="trace scatter traceed96cc" style="stroke-miterlimit: 2; opacity: 1;"><g class="fills"/><g class="errorbars"/><g class="lines"><path class="js-line" d="M0,384.67L142.15,384.59L157.12,384.59L351.64,383.73L366.61,383.36L426.46,380.72L441.42,379.57L486.31,374.51L501.28,372.43L531.2,367.51L546.17,364.63L606.02,351.67L620.99,347.93L680.84,331.72L695.8,327.09L770.62,302.94L785.58,297.83L845.44,276.72L860.4,271.22L1025,209.64" style="vector-effect: none; fill: none; stroke: rgb(228, 211, 84); stroke-opacity: 1; stroke-width: 2px; opacity: 1;"/></g><g class="points"/><g class="text"/></g><g class="trace scatter tracea90f53" style="stroke-miterlimit: 2; opacity: 1;"><g class="fills"/><g class="errorbars"/><g class="lines"><path class="js-line" d="M0,384.85L1025,383.32" style="vector-effect: none; fill: none; stroke: rgb(43, 144, 143); stroke-opacity: 1; stroke-width: 2px; opacity: 1;"/></g><g class="points"/><g class="text"/></g><g class="trace scatter tracee5ef43" style="stroke-miterlimit: 2; opacity: 1;"><g class="fills"/><g class="errorbars"/><g class="lines"><path class="js-line" d="M0,384.67L142.15,384.59L157.12,384.59L351.64,383.72L366.61,383.36L426.46,380.75L441.42,379.63L486.31,374.71L501.28,372.68L531.2,367.88L546.17,365.06L606.02,352.44L620.99,348.82L680.84,333.18L695.8,328.72L770.62,305.59L785.58,300.73L860.4,275.67L875.36,270.43L1010.04,225.44L1025,220.59" style="vector-effect: none; fill: none; stroke: rgb(244, 91, 91); stroke-opacity: 1; stroke-width: 2px; opacity: 1;"/></g><g class="points"/><g class="text"/></g><g class="trace scatter traced1e82a" style="stroke-miterlimit: 2; opacity: 1;"><g class="fills"/><g class="errorbars"/><g class="lines"><path class="js-line" d="M0,384.93L980.11,383L995.07,382.98L1025,382.95" style="vector-effect: none; fill: none; stroke: rgb(145, 232, 225); stroke-opacity: 1; stroke-width: 2px; opacity: 1;"/></g><g class="points"/><g class="text"/></g><g class="trace scatter trace506081" style="stroke-miterlimit: 2; opacity: 1;"><g class="fills"/><g class="errorbars"/><g class="lines"><path class="js-line" d="M0,385L202.01,384.31L216.97,384L291.79,381.62L306.75,380.74L351.64,377.47L366.61,375.68L396.53,370.22L411.5,366.93L426.46,362.96L441.42,357.96L471.35,344.63L486.31,336.96L501.28,327.89L516.24,317.44L531.2,307.79L546.17,296.44L606.02,247.1L620.99,233.04L635.95,220.31L650.91,208.65L665.88,197.11L680.84,183.61L695.8,170.2L710.77,158.75L740.69,135.19L755.66,123.2L770.62,112.25L785.58,102.77L815.51,86.16L830.47,79.11L860.4,65.51L875.36,59.58L920.26,45.05L935.22,40.53L965.15,31.87L980.11,28.02L1010.04,21.24L1025,18.33" style="vector-effect: none; fill: none; stroke: rgb(124, 181, 236); stroke-opacity: 1; stroke-width: 2px; opacity: 1;"/></g><g class="points"/><g class="text"/></g><g class="trace scatter trace1bac56" style="stroke-miterlimit: 2; opacity: 1;"><g class="fills"/><g class="errorbars"/><g class="lines"><path class="js-line" d="M0,384.64L591.06,383.79L606.02,383.78L1025,383.34" style="vector-effect: none; fill: none; stroke: rgb(67, 67, 72); stroke-opacity: 1; stroke-width: 2px; opacity: 1;"/></g><g class="points"/><g class="text"/></g><g class="trace scatter traceaeca30" style="stroke-miterlimit: 2; opacity: 1;"><g class="fills"/><g class="errorbars"/><g class="lines"><path class="js-line" d="M0,385L202.01,384.31L216.97,384L291.79,381.62L306.75,380.75L351.64,377.5L366.61,375.73L396.53,370.29L411.5,367.03L426.46,363.06L441.42,358.14L471.35,344.96L486.31,337.49L501.28,328.73L516.24,318.6L531.2,309.27L546.17,298.29L606.02,250.8L620.99,237.49L635.95,225.32L650.91,214.22L665.88,203.32L680.84,190.81L695.8,178.39L710.77,167.68L740.69,145.8L755.66,134.51L770.62,124.26L785.58,115.57L815.51,100.92L830.47,94.6L860.4,82.69L875.36,77.47L920.26,64.9L935.22,61.12L965.15,54.05L980.11,50.93L1025,42.95" style="vector-effect: none; fill: none; stroke: rgb(144, 237, 125); stroke-opacity: 1; stroke-width: 2px; opacity: 1;"/></g><g class="points"/><g class="text"/></g><g class="trace scatter trace5a762a" style="stroke-miterlimit: 2; opacity: 1;"><g class="fills"/><g class="errorbars"/><g class="lines"><path class="js-line" d="M0,384.87L740.69,383.61L755.66,383.6L1025,383.32" style="vector-effect: none; fill: none; stroke: rgb(247, 163, 92); stroke-opacity: 1; stroke-width: 2px; opacity: 1;"/></g><g class="points"/><g class="text"/></g><g class="trace scatter tracebc32a6" style="stroke-miterlimit: 2; opacity: 1;"><g class="fills"/><g class="errorbars"/><g class="lines"><path class="js-line" d="M0,384.99L231.93,384.8L246.9,384.78L1025,383.58" style="vector-effect: none; fill: none; stroke: rgb(128, 133, 233); stroke-opacity: 1; stroke-width: 2px; opacity: 1;"/></g><g class="points"/><g class="text"/></g><g class="trace scatter traceda9c7e" style="stroke-miterlimit: 2; opacity: 1;"><g class="fills"/><g class="errorbars"/><g class="lines"><path class="js-line" d="M0,385L336.68,384.33L351.64,384.07L411.5,381.72L426.46,380.78L456.39,377.94L471.35,376.11L516.24,369.21L531.2,366.35L576.09,356.12L591.06,352.32L620.99,343.81L635.95,339.2L680.84,324.34L695.8,318.53L755.66,294.37L770.62,287.93L845.44,254.62L860.4,247.43L980.11,190.18L995.07,183.07L1025,168.72" style="vector-effect: none; fill: none; stroke: rgb(241, 92, 128); stroke-opacity: 1; stroke-width: 2px; opacity: 1;"/></g><g class="points"/><g class="text"/></g><g class="trace scatter traceac1a17" style="stroke-miterlimit: 2; opacity: 1;"><g class="fills"/><g class="errorbars"/><g class="lines"><path class="js-line" d="M0,384.79L1025,382.62" style="vector-effect: none; fill: none; stroke: rgb(228, 211, 84); stroke-opacity: 1; stroke-width: 2px; opacity: 1;"/></g><g class="points"/><g class="text"/></g><g class="trace scatter tracea5987c" style="stroke-miterlimit: 2; opacity: 1;"><g class="fills"/><g class="errorbars"/><g class="lines"><path class="js-line" d="M0,385L336.68,384.33L351.64,384.07L411.5,381.75L426.46,380.82L456.39,378.02L471.35,376.24L516.24,369.5L531.2,366.71L576.09,356.71L591.06,353.01L620.99,344.76L635.95,340.31L680.84,325.98L695.8,320.38L755.66,297.16L770.62,290.98L860.4,252.6L875.36,245.81L1025,181.24" style="vector-effect: none; fill: none; stroke: rgb(43, 144, 143); stroke-opacity: 1; stroke-width: 2px; opacity: 1;"/></g><g class="points"/><g class="text"/></g><g class="trace scatter trace539819" style="stroke-miterlimit: 2; opacity: 1;"><g class="fills"/><g class="errorbars"/><g class="lines"><path class="js-line" d="M0,384.87L486.31,383.11L501.28,382.56L546.17,382.1L561.13,382.07L1025,381.39" style="vector-effect: none; fill: none; stroke: rgb(244, 91, 91); stroke-opacity: 1; stroke-width: 2px; opacity: 1;"/></g><g class="points"/><g class="text"/></g><g class="trace scatter tracee36be0" style="stroke-miterlimit: 2; opacity: 1;"><g class="fills"/><g class="errorbars"/><g class="lines"><path class="js-line" d="M0,385L426.46,384.38L441.42,384.18L516.24,382.28L531.2,381.69L591.06,378.44L606.02,377.38L665.88,371.94L680.84,370.22L740.69,361.78L755.66,359.34L815.51,348.02L830.47,344.9L875.36,334.12L890.33,330.36L920.26,322.25L935.22,317.87L995.07,299.66L1010.04,294.66L1025,289.64" style="vector-effect: none; fill: none; stroke: rgb(145, 232, 225); stroke-opacity: 1; stroke-width: 2px; opacity: 1;"/></g><g class="points"/><g class="text"/></g><g class="trace scatter traceea05ee" style="stroke-miterlimit: 2; opacity: 1;"><g class="fills"/><g class="errorbars"/><g class="lines"><path class="js-line" d="M0,384.75L1025,382.04" style="vector-effect: none; fill: none; stroke: rgb(124, 181, 236); stroke-opacity: 1; stroke-width: 2px; opacity: 1;"/></g><g class="points"/><g class="text"/></g><g class="trace scatter trace6db0e6" style="stroke-miterlimit: 2; opacity: 1;"><g class="fills"/><g class="errorbars"/><g class="lines"><path class="js-line" d="M0,385L426.46,384.37L441.42,384.17L516.24,382.33L531.2,381.75L591.06,378.6L606.02,377.57L665.88,372.34L680.84,370.69L740.69,362.61L755.66,360.28L815.51,349.5L830.47,346.54L890.33,332.95L905.29,329.36L980.11,309.36L995.07,305.1L1025,296.21" style="vector-effect: none; fill: none; stroke: rgb(67, 67, 72); stroke-opacity: 1; stroke-width: 2px; opacity: 1;"/></g><g class="points"/><g class="text"/></g><g class="trace scatter tracec72804" style="stroke-miterlimit: 2; opacity: 1;"><g class="fills"/><g class="errorbars"/><g class="lines"><path class="js-line" d="M0,384.85L845.44,382.2L860.4,382.17L1025,381.87" style="vector-effect: none; fill: none; stroke: rgb(144, 237, 125); stroke-opacity: 1; stroke-width: 2px; opacity: 1;"/></g><g class="points"/><g class="text"/></g><g class="trace scatter traced96973" style="stroke-miterlimit: 2; opacity: 1;"><g class="fills"/><g class="errorbars"/><g class="lines"><path class="js-line" d="M0,385L381.57,384.37L396.53,384.13L456.39,382.4L471.35,381.69L516.24,378.94L531.2,377.77L591.06,371.53L606.02,369.6L665.88,360.07L680.84,357.13L740.69,343.27L755.66,339.31L815.51,321.92L830.47,317.33L890.33,296.76L905.29,291.43L965.15,268.32L980.11,262.47L1025,244.02" style="vector-effect: none; fill: none; stroke: rgb(247, 163, 92); stroke-opacity: 1; stroke-width: 2px; opacity: 1;"/></g><g class="points"/><g class="text"/></g><g class="trace scatter trace2d4a7a" style="stroke-miterlimit: 2; opacity: 1;"><g class="fills"/><g class="errorbars"/><g class="lines"><path class="js-line" d="M0,384.54L785.58,382.12L800.55,382.09L1025,381.58" style="vector-effect: none; fill: none; stroke: rgb(128, 133, 233); stroke-opacity: 1; stroke-width: 2px; opacity: 1;"/></g><g class="points"/><g class="text"/></g><g class="trace scatter trace670dcb" style="stroke-miterlimit: 2; opacity: 1;"><g class="fills"/><g class="errorbars"/><g class="lines"><path class="js-line" d="M0,385L381.57,384.38L396.53,384.15L456.39,382.46L471.35,381.78L516.24,379.14L531.2,378.01L591.06,372.03L606.02,370.19L665.88,361.15L680.84,358.39L740.69,345.35L755.66,341.63L830.47,321.19L845.44,316.61L935.22,287.32L950.18,282.08L1010.04,261.17L1025,255.83" style="vector-effect: none; fill: none; stroke: rgb(241, 92, 128); stroke-opacity: 1; stroke-width: 2px; opacity: 1;"/></g><g class="points"/><g class="text"/></g><g class="trace scatter tracef911cb" style="stroke-miterlimit: 2; opacity: 1;"><g class="fills"/><g class="errorbars"/><g class="lines"><path class="js-line" d="M0,384.79L890.33,381.94L905.29,381.91L1025,381.69" style="vector-effect: none; fill: none; stroke: rgb(228, 211, 84); stroke-opacity: 1; stroke-width: 2px; opacity: 1;"/></g><g class="points"/><g class="text"/></g><g class="trace scatter trace167743" style="stroke-miterlimit: 2; opacity: 1;"><g class="fills"/><g class="errorbars"/><g class="lines"><path class="js-line" d="M0,385L366.61,384.28L381.57,383.99L441.42,381.92L456.39,380.96L501.28,376.92L516.24,375.18L561.13,368.51L576.09,365.86L620.99,357.12L635.95,353.9L680.84,343.58L695.8,339.85L800.55,311.82L815.51,307.51L875.36,289.83L890.33,285.17L980.11,257L995.07,252.07L1025,241.92" style="vector-effect: none; fill: none; stroke: rgb(43, 144, 143); stroke-opacity: 1; stroke-width: 2px; opacity: 1;"/></g><g class="points"/><g class="text"/></g><g class="trace scatter traced90397" style="stroke-miterlimit: 2; opacity: 1;"><g class="fills"/><g class="errorbars"/><g class="lines"><path class="js-line" d="M0,384.84L710.77,383.67L725.73,383.65L1025,383.26" style="vector-effect: none; fill: none; stroke: rgb(244, 91, 91); stroke-opacity: 1; stroke-width: 2px; opacity: 1;"/></g><g class="points"/><g class="text"/></g><g class="trace scatter tracee95a4d" style="stroke-miterlimit: 2; opacity: 1;"><g class="fills"/><g class="errorbars"/><g class="lines"><path class="js-line" d="M0,385L366.61,384.26L381.57,383.97L441.42,381.9L456.39,380.93L501.28,376.93L516.24,375.2L561.13,368.58L576.09,365.95L620.99,357.31L635.95,354.15L695.8,340.31L710.77,336.44L815.51,308.5L830.47,304.31L905.29,282.47L920.26,278.1L995.07,255.62L1010.04,250.92L1025,246.25" style="vector-effect: none; fill: none; stroke: rgb(145, 232, 225); stroke-opacity: 1; stroke-width: 2px; opacity: 1;"/></g><g class="points"/><g class="text"/></g><g class="trace scatter trace718e3e" style="stroke-miterlimit: 2; opacity: 1;"><g class="fills"/><g class="errorbars"/><g class="lines"><path class="js-line" d="M0,384.91L740.69,383.66L755.66,383.64L1025,383.33" style="vector-effect: none; fill: none; stroke: rgb(124, 181, 236); stroke-opacity: 1; stroke-width: 2px; opacity: 1;"/></g><g class="points"/><g class="text"/></g><g class="trace scatter trace6ad5f9" style="stroke-miterlimit: 2; opacity: 1;"><g class="fills"/><g class="errorbars"/><g class="lines"><path class="js-line" d="M0,385L381.57,384.42L396.53,384.2L456.39,382.53L471.35,381.79L531.2,377.61L546.17,376.22L606.02,369.49L620.99,367.44L680.84,358.13L695.8,355.33L740.69,346.26L755.66,343.05L815.51,329.25L830.47,325.66L860.4,317.94L875.36,313.63L950.18,292.1L965.15,287.51L1025,268.59" style="vector-effect: none; fill: none; stroke: rgb(67, 67, 72); stroke-opacity: 1; stroke-width: 2px; opacity: 1;"/></g><g class="points"/><g class="text"/></g><g class="trace scatter trace47b509" style="stroke-miterlimit: 2; opacity: 1;"><g class="fills"/><g class="errorbars"/><g class="lines"><path class="js-line" d="M0,384.55L471.35,383.38L486.31,383.12L1025,382.08" style="vector-effect: none; fill: none; stroke: rgb(144, 237, 125); stroke-opacity: 1; stroke-width: 2px; opacity: 1;"/></g><g class="points"/><g class="text"/></g><g class="trace scatter trace394b8c" style="stroke-miterlimit: 2; opacity: 1;"><g class="fills"/><g class="errorbars"/><g class="lines"><path class="js-line" d="M0,385L381.57,384.4L396.53,384.18L456.39,382.51L471.35,381.78L531.2,377.62L546.17,376.25L606.02,369.6L620.99,367.59L680.84,358.46L695.8,355.7L740.69,346.8L755.66,343.66L815.51,330.18L830.47,326.7L875.36,315.08L890.33,311.02L950.18,294.61L965.15,290.31L1025,272.74" style="vector-effect: none; fill: none; stroke: rgb(247, 163, 92); stroke-opacity: 1; stroke-width: 2px; opacity: 1;"/></g><g class="points"/><g class="text"/></g><g class="trace scatter tracef4266c" style="stroke-miterlimit: 2; opacity: 1;"><g class="fills"/><g class="errorbars"/><g class="lines"><path class="js-line" d="M0,384.87L456.39,383.78L471.35,383.75L620.99,382.95L635.95,382.93L1025,382.26" style="vector-effect: none; fill: none; stroke: rgb(128, 133, 233); stroke-opacity: 1; stroke-width: 2px; opacity: 1;"/></g><g class="points"/><g class="text"/></g><g class="trace scatter tracedc2a7a" style="stroke-miterlimit: 2; opacity: 1;"><g class="fills"/><g class="errorbars"/><g class="lines"><path class="js-line" d="M0,385L321.72,384.25L336.68,384L381.57,382.11L396.53,381.05L426.46,378.2L441.42,376.06L471.35,370.34L486.31,366.99L516.24,359.09L531.2,354.71L561.13,344.71L576.09,339.37L620.99,322.09L635.95,315.79L680.84,296.2L695.8,289.04L785.58,246L800.55,238.73L890.33,195.79L905.29,188.9L1010.04,141.87L1025,135.38" style="vector-effect: none; fill: none; stroke: rgb(241, 92, 128); stroke-opacity: 1; stroke-width: 2px; opacity: 1;"/></g><g class="points"/><g class="text"/></g><g class="trace scatter traceea358c" style="stroke-miterlimit: 2; opacity: 1;"><g class="fills"/><g class="errorbars"/><g class="lines"><path class="js-line" d="M0,384.79L1025,382.33" style="vector-effect: none; fill: none; stroke: rgb(228, 211, 84); stroke-opacity: 1; stroke-width: 2px; opacity: 1;"/></g><g class="points"/><g class="text"/></g><g class="trace scatter trace40ff26" style="stroke-miterlimit: 2; opacity: 1;"><g class="fills"/><g class="errorbars"/><g class="lines"><path class="js-line" d="M0,385L321.72,384.25L336.68,384L381.57,382.13L396.53,381.07L426.46,378.26L441.42,376.15L471.35,370.54L486.31,367.26L516.24,359.52L531.2,355.24L561.13,345.45L576.09,340.22L620.99,323.43L635.95,317.32L680.84,298.41L695.8,291.51L890.33,202.78L905.29,196.4L980.11,165.58L995.07,159.78L1025,148.31" style="vector-effect: none; fill: none; stroke: rgb(43, 144, 143); stroke-opacity: 1; stroke-width: 2px; opacity: 1;"/></g><g class="points"/><g class="text"/></g><g class="trace scatter trace5f5194" style="stroke-miterlimit: 2; opacity: 1;"><g class="fills"/><g class="errorbars"/><g class="lines"><path class="js-line" d="M0,384.9L740.69,382.67L755.66,382.64L1025,382.21" style="vector-effect: none; fill: none; stroke: rgb(244, 91, 91); stroke-opacity: 1; stroke-width: 2px; opacity: 1;"/></g><g class="points"/><g class="text"/></g><g class="trace scatter trace0780a1" style="stroke-miterlimit: 2; opacity: 1;"><g class="fills"/><g class="errorbars"/><g class="lines"><path class="js-line" d="M0,385L306.75,384.31L321.72,384.08L366.61,382.75L381.57,381.91L426.46,378.14L441.42,376.17L471.35,370.79L486.31,367.53L516.24,359.62L531.2,355.35L561.13,345.4L576.09,339.99L620.99,322.76L635.95,316.51L680.84,296.95L695.8,289.52L740.69,267.64L755.66,260.24L845.44,217.12L860.4,210.01L905.29,189.28L920.26,182.65L980.11,156.53L995.07,150.31L1025,138.19" style="vector-effect: none; fill: none; stroke: rgb(145, 232, 225); stroke-opacity: 1; stroke-width: 2px; opacity: 1;"/></g><g class="points"/><g class="text"/></g><g class="trace scatter traceca7828" style="stroke-miterlimit: 2; opacity: 1;"><g class="fills"/><g class="errorbars"/><g class="lines"><path class="js-line" d="M0,384.41L441.42,383.36L456.39,383.33L1025,382.37" style="vector-effect: none; fill: none; stroke: rgb(124, 181, 236); stroke-opacity: 1; stroke-width: 2px; opacity: 1;"/></g><g class="points"/><g class="text"/></g><g class="trace scatter trace00b395" style="stroke-miterlimit: 2; opacity: 1;"><g class="fills"/><g class="errorbars"/><g class="lines"><path class="js-line" d="M0,385L306.75,384.31L321.72,384.08L366.61,382.76L381.57,381.93L426.46,378.22L441.42,376.29L471.35,371.05L486.31,367.88L516.24,360.18L531.2,356.03L561.13,346.34L576.09,341.1L620.99,324.5L635.95,318.48L680.84,299.78L695.8,292.71L740.69,271.92L755.66,264.9L830.47,230.95L845.44,224.37L905.29,198.72L920.26,192.69L980.11,169.39L995.07,163.89L1025,153.25" style="vector-effect: none; fill: none; stroke: rgb(67, 67, 72); stroke-opacity: 1; stroke-width: 2px; opacity: 1;"/></g><g class="points"/><g class="text"/></g><g class="trace scatter tracec4996a" style="stroke-miterlimit: 2; opacity: 1;"><g class="fills"/><g class="errorbars"/><g class="lines"><path class="js-line" d="M0,384.82L456.39,383.71L471.35,383.68L635.95,383.06L650.91,383.04L1025,382.47" style="vector-effect: none; fill: none; stroke: rgb(144, 237, 125); stroke-opacity: 1; stroke-width: 2px; opacity: 1;"/></g><g class="points"/><g class="text"/></g></g></g></g><g class="zerolinelayer-above"/><path class="xlines-above crisp" d="M0,0" style="fill: none;"/><path class="ylines-above crisp" d="M0,0" style="fill: none;"/><g class="overlines-above"/><g class="xaxislayer-above"><g class="xtick"><text text-anchor="middle" x="0" y="451" transform="translate(202.15,0)" style="font-family: 'Lucida Grande', 'Open Sans', verdana, arial, sans-serif; font-size: 10px; fill: rgb(0, 0, 0); fill-opacity: 1; white-space: pre;">20 bp</text></g><g class="xtick"><text text-anchor="middle" x="0" y="451" style="font-family: 'Lucida Grande', 'Open Sans', verdana, arial, sans-serif; font-size: 10px; fill: rgb(0, 0, 0); fill-opacity: 1; white-space: pre;" transform="translate(351.79,0)">40 bp</text></g><g class="xtick"><text text-anchor="middle" x="0" y="451" style="font-family: 'Lucida Grande', 'Open Sans', verdana, arial, sans-serif; font-size: 10px; fill: rgb(0, 0, 0); fill-opacity: 1; white-space: pre;" transform="translate(501.42,0)">60 bp</text></g><g class="xtick"><text text-anchor="middle" x="0" y="451" style="font-family: 'Lucida Grande', 'Open Sans', verdana, arial, sans-serif; font-size: 10px; fill: rgb(0, 0, 0); fill-opacity: 1; white-space: pre;" transform="translate(651.06,0)">80 bp</text></g><g class="xtick"><text text-anchor="middle" x="0" y="451" style="font-family: 'Lucida Grande', 'Open Sans', verdana, arial, sans-serif; font-size: 10px; fill: rgb(0, 0, 0); fill-opacity: 1; white-space: pre;" transform="translate(800.69,0)">100 bp</text></g><g class="xtick"><text text-anchor="middle" x="0" y="451" style="font-family: 'Lucida Grande', 'Open Sans', verdana, arial, sans-serif; font-size: 10px; fill: rgb(0, 0, 0); fill-opacity: 1; white-space: pre;" transform="translate(950.33,0)">120 bp</text></g></g><g class="yaxislayer-above"><g class="ytick"><text text-anchor="end" x="54" y="3.5" transform="translate(0,435)" style="font-family: 'Lucida Grande', 'Open Sans', verdana, arial, sans-serif; font-size: 10px; fill: rgb(0, 0, 0); fill-opacity: 1; white-space: pre;">0%</text></g><g class="ytick"><text text-anchor="end" x="54" y="3.5" style="font-family: 'Lucida Grande', 'Open Sans', verdana, arial, sans-serif; font-size: 10px; fill: rgb(0, 0, 0); fill-opacity: 1; white-space: pre;" transform="translate(0,379.87)">10%</text></g><g class="ytick"><text text-anchor="end" x="54" y="3.5" style="font-family: 'Lucida Grande', 'Open Sans', verdana, arial, sans-serif; font-size: 10px; fill: rgb(0, 0, 0); fill-opacity: 1; white-space: pre;" transform="translate(0,324.74)">20%</text></g><g class="ytick"><text text-anchor="end" x="54" y="3.5" style="font-family: 'Lucida Grande', 'Open Sans', verdana, arial, sans-serif; font-size: 10px; fill: rgb(0, 0, 0); fill-opacity: 1; white-space: pre;" transform="translate(0,269.61)">30%</text></g><g class="ytick"><text text-anchor="end" x="54" y="3.5" style="font-family: 'Lucida Grande', 'Open Sans', verdana, arial, sans-serif; font-size: 10px; fill: rgb(0, 0, 0); fill-opacity: 1; white-space: pre;" transform="translate(0,214.48)">40%</text></g><g class="ytick"><text text-anchor="end" x="54" y="3.5" style="font-family: 'Lucida Grande', 'Open Sans', verdana, arial, sans-serif; font-size: 10px; fill: rgb(0, 0, 0); fill-opacity: 1; white-space: pre;" transform="translate(0,159.34)">50%</text></g><g class="ytick"><text text-anchor="end" x="54" y="3.5" style="font-family: 'Lucida Grande', 'Open Sans', verdana, arial, sans-serif; font-size: 10px; fill: rgb(0, 0, 0); fill-opacity: 1; white-space: pre;" transform="translate(0,104.21000000000001)">60%</text></g></g><g class="overaxes-above"/></g></g><g class="polarlayer"/><g class="smithlayer"/><g class="ternarylayer"/><g class="geolayer"/><g class="funnelarealayer"/><g class="pielayer"/><g class="iciclelayer"/><g class="treemaplayer"/><g class="sunburstlayer"/><g class="glimages"/><defs id="topdefs-fcc3ab"><g class="clips"/></defs><g class="layer-above"><g class="imagelayer"/><g class="shapelayer"/></g><g class="infolayer"><g class="g-gtitle"><text class="gtitle" x="550" y="25" text-anchor="middle" dy="0em" style="opacity: 1; font-family: 'Lucida Grande', 'Open Sans', verdana, arial, sans-serif; font-size: 20px; fill: rgb(68, 68, 68); fill-opacity: 1; white-space: pre;"><tspan class="line" dy="0em" x="550" y="25">FastQC: Adapter Content</tspan><tspan class="line" dy="1.3em" x="550" y="25">​<tspan style="font-size:70%" dy="-0.6em">63 sample-adapter combinations</tspan><tspan dy="0.42em">​</tspan></tspan></text></g><g class="g-xtitle"><text class="xtitle" x="572.5" y="487" text-anchor="middle" style="opacity: 0.3; font-family: 'Lucida Grande', 'Open Sans', verdana, arial, sans-serif; font-size: 14px; fill: rgb(0, 0, 0); fill-opacity: 1; white-space: pre;">Position (bp)</text></g><g class="g-ytitle"><text class="ytitle" transform="rotate(-90,22,242.5)" x="22" y="242.5" text-anchor="middle" style="opacity: 0.3; font-family: 'Lucida Grande', 'Open Sans', verdana, arial, sans-serif; font-size: 14px; fill: rgb(0, 0, 0); fill-opacity: 1; white-space: pre;">% of Sequences</text></g></g></svg>