<svg class="main-svg" xmlns="http://www.w3.org/2000/svg" xmlns:xlink="http://www.w3.org/1999/xlink" width="2200" height="1000" style="" viewBox="0 0 1100 500"><rect x="0" y="0" width="1100" height="500" style="fill: rgb(255, 255, 255); fill-opacity: 1;"/><defs id="defs-0c9195"><g class="clips"><clipPath id="clip0c9195xyplot" class="plotclip"><rect width="1014" height="385"/></clipPath><clipPath class="axesclip" id="clip0c9195x"><rect x="60" y="0" width="1014" height="500"/></clipPath><clipPath class="axesclip" id="clip0c9195y"><rect x="0" y="50" width="1100" height="385"/></clipPath><clipPath class="axesclip" id="clip0c9195xy"><rect x="60" y="50" width="1014" height="385"/></clipPath></g><g class="gradients"/><g class="patterns"/></defs><g class="bglayer"/><g class="layer-below"><g class="imagelayer"/><g class="shapelayer"/></g><g class="cartesianlayer"><g class="subplot xy"><g class="layer-subplot"><g class="shapelayer"/><g class="imagelayer"/></g><g class="minor-gridlayer"><g class="x"/><g class="y"/></g><g class="gridlayer"><g class="x"><path class="xgrid crisp" transform="translate(262.8,0)" d="M0,50v385" style="stroke: rgb(0, 0, 0); stroke-opacity: 0.05; stroke-width: 1px;"/><path class="xgrid crisp" transform="translate(465.6,0)" d="M0,50v385" style="stroke: rgb(0, 0, 0); stroke-opacity: 0.05; stroke-width: 1px;"/><path class="xgrid crisp" transform="translate(668.4,0)" d="M0,50v385" style="stroke: rgb(0, 0, 0); stroke-opacity: 0.05; stroke-width: 1px;"/><path class="xgrid crisp" transform="translate(871.2,0)" d="M0,50v385" style="stroke: rgb(0, 0, 0); stroke-opacity: 0.05; stroke-width: 1px;"/></g><g class="y"><path class="ygrid crisp" transform="translate(0,390.49)" d="M60,0h1014" style="stroke: rgb(0, 0, 0); stroke-opacity: 0.05; stroke-width: 1px;"/><path class="ygrid crisp" transform="translate(0,345.98)" d="M60,0h1014" style="stroke: rgb(0, 0, 0); stroke-opacity: 0.05; stroke-width: 1px;"/><path class="ygrid crisp" transform="translate(0,301.47)" d="M60,0h1014" style="stroke: rgb(0, 0, 0); stroke-opacity: 0.05; stroke-width: 1px;"/><path class="ygrid crisp" transform="translate(0,256.96000000000004)" d="M60,0h1014" style="stroke: rgb(0, 0, 0); stroke-opacity: 0.05; stroke-width: 1px;"/><path class="ygrid crisp" transform="translate(0,212.45)" d="M60,0h1014" style="stroke: rgb(0, 0, 0); stroke-opacity: 0.05; stroke-width: 1px;"/><path class="ygrid crisp" transform="translate(0,167.93)" d="M60,0h1014" style="stroke: rgb(0, 0, 0); stroke-opacity: 0.05; stroke-width: 1px;"/><path class="ygrid crisp" transform="translate(0,123.42)" d="M60,0h1014" style="stroke: rgb(0, 0, 0); stroke-opacity: 0.05; stroke-width: 1px;"/><path class="ygrid crisp" transform="translate(0,78.91)" d="M60,0h1014" style="stroke: rgb(0, 0, 0); stroke-opacity: 0.05; stroke-width: 1px;"/></g></g><g class="zerolinelayer"><path class="xzl zl crisp" transform="translate(60,0)" d="M0,50v385" style="stroke: rgb(0, 0, 0); stroke-opacity: 0.05; stroke-width: 1px;"/><path class="yzl zl crisp" transform="translate(0,435)" d="M60,0h1014" style="stroke: rgb(0, 0, 0); stroke-opacity: 0.05; stroke-width: 1px;"/></g><g class="layer-between"><g class="shapelayer"/><g class="imagelayer"/></g><path class="xlines-below"/><path class="ylines-below"/><g class="overlines-below"/><g class="xaxislayer-below"/><g class="yaxislayer-below"/><g class="overaxes-below"/><g class="overplot"><g class="xy" transform="translate(60,50)" clip-path="url(#clip0c9195xyplot)"><g class="scatterlayer mlayer"><g class="trace scatter tracef7d650" style="stroke-miterlimit: 2; opacity: 1;"><g class="fills"/><g class="errorbars"/><g class="lines"><path class="js-line" d="M0,384.47L50.7,384.96L60.84,384.96L192.66,384.34L202.8,383.97L223.08,382.48L233.22,381.07L243.36,379.08L253.5,376.28L263.64,371.67L273.78,365.06L294.06,352.08L304.2,341.54L314.34,330.3L324.48,320.42L334.62,307.86L344.76,292.85L354.9,278.57L365.04,266.36L375.18,255.28L385.32,246.32L405.6,230.25L415.74,220.72L425.88,215.12L436.02,212.81L446.16,197.14L456.3,188.53L466.44,193.07L476.58,190.7L486.72,185.21L496.86,188.45L507,198.38L517.14,205.93L527.28,206.77L537.42,213.68L547.56,228.84L557.7,240.72L577.98,268.51L588.12,276.96L598.26,282L608.4,285.43L618.54,285.66L628.68,291.91L638.82,302.96L648.96,322.36L659.1,349.05L669.24,361.28L679.38,364.2L689.52,366.3L699.66,369.68L709.8,372.25L719.94,372.72L730.08,374.59L740.22,376.94L750.36,376.62L760.5,375.45L770.64,375.36L780.78,374.03L790.92,373.91L801.06,374.88L811.2,372.37L821.34,370.26L831.48,367.3L841.62,368.84L851.76,374.08L872.04,380.22L882.18,382.25L892.32,384L902.46,384.75L953.16,385L963.3,385L1014,385" style="vector-effect: none; fill: none; stroke: rgb(92, 184, 92); stroke-opacity: 1; stroke-width: 2px; opacity: 1;"/></g><g class="points"/><g class="text"/></g><g class="trace scatter trace8a017a" style="stroke-miterlimit: 2; opacity: 1;"><g class="fills"/><g class="errorbars"/><g class="lines"><path class="js-line" d="M0,384.7L91.26,384.9L101.4,384.88L182.52,384.18L192.66,383.84L212.94,382.5L223.08,381.33L233.22,379.55L243.36,376.98L253.5,372.96L263.64,367.44L283.92,351.12L294.06,344.89L304.2,335.74L314.34,325.3L354.9,274.14L365.04,263.77L385.32,248.59L395.46,241.29L405.6,233.39L415.74,223.98L425.88,217.98L436.02,215.56L446.16,204.51L456.3,197L476.58,201.52L486.72,203.27L496.86,204.89L507,207.6L527.28,221.98L537.42,225.77L557.7,244.94L567.84,252.98L588.12,274.75L598.26,283.12L618.54,287.77L628.68,295.52L638.82,302.15L648.96,315.76L659.1,340.5L669.24,354.51L679.38,359.63L689.52,362.58L709.8,369.45L719.94,370.88L740.22,373.61L750.36,373.89L760.5,373.44L770.64,374.67L790.92,374.47L801.06,376.09L811.2,375.35L821.34,371.69L831.48,365.34L841.62,365.19L851.76,371.23L861.9,374.06L872.04,376.75L882.18,381L892.32,383.51L902.46,384.36L943.02,384.89L953.16,384.92L1014,384.97" style="vector-effect: none; fill: none; stroke: rgb(92, 184, 92); stroke-opacity: 1; stroke-width: 2px; opacity: 1;"/></g><g class="points"/><g class="text"/></g><g class="trace scatter tracefe74bc" style="stroke-miterlimit: 2; opacity: 1;"><g class="fills"/><g class="errorbars"/><g class="lines"><path class="js-line" d="M0,379.72L20.28,384.62L30.42,384.72L202.8,384.13L212.94,383.71L233.22,382.28L243.36,381.1L253.5,379.51L263.64,377.07L294.06,365.79L304.2,359.74L324.48,345.64L334.62,336.4L375.18,293.72L385.32,284.48L436.02,238.79L446.16,224.33L456.3,210.03L466.44,199.62L486.72,176.05L496.86,173.07L507,178.42L517.14,186.89L527.28,196.46L537.42,213.64L547.56,237.66L557.7,257.84L567.84,274.54L577.98,288.37L588.12,298.15L598.26,303.04L618.54,311.58L628.68,320.15L648.96,340.2L659.1,355.01L669.24,363.27L679.38,363.78L689.52,361.68L699.66,358.6L719.94,349.47L730.08,349.86L740.22,350.22L750.36,341.55L760.5,320.96L770.64,305.67L790.92,280.19L801.06,273.91L811.2,259.47L821.34,240.54L831.48,200.68L841.62,217.69L851.76,266.73L861.9,281.54L872.04,292.38L882.18,308.75L892.32,343.6L902.46,361.35L922.74,383.44L932.88,384.65L993.72,384.96L1003.86,384.98L1014,385" style="vector-effect: none; fill: none; stroke: rgb(217, 83, 79); stroke-opacity: 1; stroke-width: 2px; opacity: 1;"/></g><g class="points"/><g class="text"/></g><g class="trace scatter trace0774e8" style="stroke-miterlimit: 2; opacity: 1;"><g class="fills"/><g class="errorbars"/><g class="lines"><path class="js-line" d="M0,383.62L30.42,384.11L40.56,384.04L131.82,384.78L141.96,384.75L202.8,383.83L212.94,383.33L233.22,381.78L243.36,380.43L263.64,376.04L273.78,372.15L294.06,363.64L304.2,357.87L314.34,350.95L324.48,342.78L344.76,323.21L354.9,312.66L375.18,293.67L385.32,285.31L405.6,268.29L415.74,258.89L425.88,249.5L436.02,238.8L456.3,206.4L466.44,192.48L476.58,180.5L486.72,173.19L496.86,173.45L507,181.08L517.14,195.06L527.28,212.6L557.7,267.94L567.84,281.86L577.98,292.15L588.12,301.07L598.26,308.12L608.4,311.5L618.54,313.23L628.68,319.29L638.82,325.92L648.96,334.5L659.1,348.85L669.24,357.54L679.38,359.31L689.52,357.84L699.66,354.9L709.8,353.41L719.94,351.6L730.08,350.75L740.22,350.2L750.36,340.77L760.5,326.63L770.64,319.49L780.78,308.67L790.92,291.61L801.06,278.76L811.2,262.99L821.34,238.41L831.48,192.1L841.62,203.23L851.76,258.44L861.9,268.36L872.04,270.65L882.18,304.6L892.32,348.11L902.46,364.93L912.6,373.37L922.74,380.81L932.88,382.98L953.16,384.07L963.3,384.31L1014,384.86" style="vector-effect: none; fill: none; stroke: rgb(217, 83, 79); stroke-opacity: 1; stroke-width: 2px; opacity: 1;"/></g><g class="points"/><g class="text"/></g><g class="trace scatter trace004881" style="stroke-miterlimit: 2; opacity: 1;"><g class="fills"/><g class="errorbars"/><g class="lines"><path class="js-line" d="M0,379.45L20.28,384.69L30.42,384.75L233.22,384.4L243.36,384.13L273.78,382.4L283.92,381.66L314.34,378.4L324.48,377.12L344.76,373.55L354.9,370.54L365.04,366.48L375.18,364.35L385.32,362.95L395.46,359.03L405.6,356.53L415.74,353.07L425.88,346.27L436.02,329.96L446.16,310.47L456.3,296.19L476.58,209.62L486.72,160.89L496.86,123.8L507,143.12L517.14,144.37L527.28,142.94L537.42,155.63L547.56,173.77L557.7,178.85L567.84,178.58L577.98,191.21L588.12,167.96L598.26,169.91L608.4,212.61L618.54,226.29L628.68,247.34L638.82,286.82L648.96,314.58L659.1,307.17L669.24,286.13L679.38,269.78L689.52,278.14L699.66,302.18L709.8,309.13L719.94,322.2L730.08,332.96L740.22,333.71L750.36,320.5L760.5,299.05L770.64,293.3L780.78,310.81L790.92,330.82L801.06,343.28L811.2,351.29L821.34,350.96L831.48,340.61L841.62,343.69L851.76,360.3L861.9,367.7L872.04,372.45L882.18,378.15L892.32,382.37L902.46,384.07L912.6,384.64L943.02,384.98L953.16,384.99L1014,385" style="vector-effect: none; fill: none; stroke: rgb(217, 83, 79); stroke-opacity: 1; stroke-width: 2px; opacity: 1;"/></g><g class="points"/><g class="text"/></g><g class="trace scatter trace07abce" style="stroke-miterlimit: 2; opacity: 1;"><g class="fills"/><g class="errorbars"/><g class="lines"><path class="js-line" d="M0,383.95L30.42,383.94L40.56,383.84L101.4,384.84L111.54,384.87L223.08,384.4L233.22,384.18L263.64,382.72L273.78,381.77L314.34,377.89L324.48,376.39L354.9,371.17L365.04,368.64L375.18,365.02L385.32,360.39L395.46,355.37L405.6,348.81L415.74,340.6L425.88,331.18L436.02,313.39L446.16,292.08L456.3,275.65L466.44,234.44L476.58,182.76L486.72,174.6L496.86,175.69L507,167.93L517.14,178.51L527.28,175.66L537.42,165.5L547.56,183.5L557.7,184.09L567.84,169.05L577.98,186.57L588.12,195.91L598.26,199.91L608.4,220.4L618.54,218.72L628.68,235.03L638.82,269.65L648.96,288.11L659.1,293.88L669.24,285.29L679.38,279.66L689.52,284.12L699.66,292.15L709.8,301.36L719.94,317.45L730.08,322.35L740.22,317.05L750.36,318.89L760.5,320.57L770.64,324.86L780.78,328.69L790.92,327.48L811.2,347.42L821.34,349.91L831.48,346.36L841.62,346.88L851.76,356.07L861.9,360.82L872.04,363.16L882.18,370.69L892.32,378.53L902.46,381.49L922.74,383.68L932.88,384.13L983.58,384.81L993.72,384.85L1014,384.91" style="vector-effect: none; fill: none; stroke: rgb(217, 83, 79); stroke-opacity: 1; stroke-width: 2px; opacity: 1;"/></g><g class="points"/><g class="text"/></g><g class="trace scatter trace239844" style="stroke-miterlimit: 2; opacity: 1;"><g class="fills"/><g class="errorbars"/><g class="lines"><path class="js-line" d="M0,382.93L20.28,384.61L30.42,384.66L192.66,384.18L202.8,383.8L223.08,382.18L233.22,380.72L253.5,376.05L263.64,370.94L273.78,363.33L283.92,358.3L294.06,353.02L304.2,342.22L314.34,331.32L324.48,323.09L334.62,311.78L344.76,296.96L365.04,270.45L375.18,258.26L385.32,250.07L395.46,243.45L415.74,230.55L425.88,222.98L436.02,215.54L446.16,205.99L456.3,197.69L466.44,193.89L476.58,191.34L486.72,186.04L496.86,184.01L507,187L517.14,187.14L527.28,183.21L537.42,190.23L547.56,206.54L577.98,238.15L588.12,244.02L598.26,238.41L608.4,241.51L618.54,245.08L628.68,254.07L638.82,270.94L648.96,296.24L659.1,334.28L669.24,352.96L679.38,357.86L689.52,360.95L699.66,365.33L709.8,368.63L719.94,369.69L730.08,371.77L740.22,374.39L750.36,374.84L770.64,374.77L780.78,373.48L801.06,374.81L811.2,372.51L821.34,371.75L831.48,372.39L841.62,374.51L851.76,378.25L872.04,382.83L882.18,384.05L902.46,384.94L912.6,384.98L1014,385" style="vector-effect: none; fill: none; stroke: rgb(92, 184, 92); stroke-opacity: 1; stroke-width: 2px; opacity: 1;"/></g><g class="points"/><g class="text"/></g><g class="trace scatter tracef4236a" style="stroke-miterlimit: 2; opacity: 1;"><g class="fills"/><g class="errorbars"/><g class="lines"><path class="js-line" d="M0,384.38L50.7,384.53L60.84,384.61L162.24,384.49L172.38,384.33L202.8,383.17L212.94,382.33L233.22,379.42L243.36,377L253.5,372.91L263.64,367.07L273.78,357.91L283.92,350.56L294.06,345.88L304.2,337.35L314.34,327.38L324.48,315.21L354.9,279.6L365.04,269.65L375.18,261.06L385.32,254.53L395.46,248.2L405.6,240.28L425.88,224.93L436.02,218.57L446.16,213.22L456.3,206.09L466.44,201.98L476.58,200.16L486.72,197.44L496.86,196.88L507,198.61L517.14,201.98L527.28,205.63L537.42,210.15L567.84,232.37L577.98,236.26L588.12,240.78L598.26,247.06L618.54,249.2L628.68,258.83L638.82,270.35L648.96,288.99L659.1,318.86L669.24,338.25L679.38,346.59L689.52,352.32L709.8,362.48L719.94,365.05L740.22,369.39L750.36,370.47L760.5,370.93L770.64,372.23L790.92,372.77L801.06,374.66L811.2,375.17L821.34,373.33L831.48,370.7L841.62,371.34L851.76,373.82L861.9,375.52L892.32,382.95L902.46,383.89L932.88,384.67L943.02,384.77L1014,384.96" style="vector-effect: none; fill: none; stroke: rgb(92, 184, 92); stroke-opacity: 1; stroke-width: 2px; opacity: 1;"/></g><g class="points"/><g class="text"/></g><g class="trace scatter traceaf9245" style="stroke-miterlimit: 2; opacity: 1;"><g class="fills"/><g class="errorbars"/><g class="lines"><path class="js-line" d="M0,382.95L20.28,384.7L30.42,384.71L192.66,384.17L202.8,383.78L223.08,382.15L233.22,380.72L243.36,378.57L253.5,375.52L263.64,370.86L273.78,364.51L283.92,358.16L294.06,350.83L324.48,320.36L334.62,308.29L375.18,256.27L385.32,245.9L405.6,228.06L415.74,220.11L446.16,199.16L456.3,193.71L466.44,191.16L476.58,190.15L486.72,189.91L496.86,192.81L507,199.19L517.14,207.39L527.28,216.33L537.42,229.19L547.56,244.83L557.7,258.94L577.98,285.5L588.12,296.17L598.26,304.75L608.4,310.77L618.54,314.2L628.68,321.83L648.96,336.13L659.1,348.09L669.24,354.45L679.38,351.62L689.52,346.68L699.66,345.24L709.8,345.07L719.94,343.1L740.22,340.33L750.36,332.28L760.5,318.15L770.64,311.6L780.78,309.07L790.92,305.45L801.06,301.52L811.2,289.52L821.34,276.7L831.48,259.11L841.62,279.29L851.76,319.17L861.9,330.31L872.04,336.67L882.18,352.27L892.32,372.13L902.46,379.63L912.6,382.79L922.74,384.4L932.88,384.64L1014,385" style="vector-effect: none; fill: none; stroke: rgb(217, 83, 79); stroke-opacity: 1; stroke-width: 2px; opacity: 1;"/></g><g class="points"/><g class="text"/></g><g class="trace scatter trace3a6fb5" style="stroke-miterlimit: 2; opacity: 1;"><g class="fills"/><g class="errorbars"/><g class="lines"><path class="js-line" d="M0,384.22L40.56,384.48L50.7,384.55L141.96,384.49L152.1,384.39L192.66,383.48L202.8,382.95L223.08,380.9L233.22,379.07L243.36,376.47L253.5,372.82L263.64,367.85L273.78,360.87L294.06,346.18L304.2,336.95L314.34,327.1L324.48,316.07L354.9,279.71L365.04,267.7L405.6,227.4L415.74,219.06L425.88,211.88L436.02,205.99L446.16,200.47L456.3,195.85L466.44,193.89L476.58,194.62L486.72,197.02L496.86,201.3L507,207.68L517.14,216.78L537.42,237.68L547.56,249.7L567.84,274.31L577.98,284.75L588.12,294.34L598.26,302.52L608.4,307.55L618.54,311.26L638.82,324.78L648.96,332.25L659.1,341.55L669.24,346.9L679.38,350.54L689.52,351.63L699.66,349.97L709.8,349.38L740.22,346.19L750.36,337.54L760.5,324.41L770.64,320.02L780.78,313.55L790.92,305.6L801.06,302.54L811.2,294.52L821.34,283.99L831.48,260.24L841.62,271.6L851.76,312.69L861.9,322.13L872.04,324.66L882.18,345.69L892.32,368.92L902.46,376.89L912.6,380.49L922.74,382.86L932.88,383.73L973.44,384.57L983.58,384.65L1014,384.86" style="vector-effect: none; fill: none; stroke: rgb(217, 83, 79); stroke-opacity: 1; stroke-width: 2px; opacity: 1;"/></g><g class="points"/><g class="text"/></g><g class="trace scatter trace2e6db5" style="stroke-miterlimit: 2; opacity: 1;"><g class="fills"/><g class="errorbars"/><g class="lines"><path class="js-line" d="M0,382.4L20.28,384.76L30.42,384.78L192.66,384.27L202.8,383.93L223.08,382.58L233.22,381.44L253.5,377.89L263.64,374.42L273.78,368.62L283.92,364.55L294.06,360.69L304.2,352.26L314.34,343.41L324.48,335.92L334.62,325.4L344.76,311.72L365.04,282.9L375.18,269.56L425.88,208.16L436.02,197.13L446.16,182.2L456.3,169.72L476.58,157.64L486.72,150.02L496.86,149.33L507,154.72L517.14,158.22L527.28,157.12L537.42,164.55L547.56,183.33L557.7,198.02L567.84,210.46L577.98,222.57L588.12,226.51L598.26,212.78L608.4,215.19L618.54,227.04L628.68,237.69L638.82,253.6L648.96,280.8L659.1,324.47L669.24,347.68L679.38,353.31L689.52,356.24L699.66,360.81L709.8,364.31L719.94,365.13L730.08,367.65L740.22,371.13L750.36,371.47L770.64,371.09L780.78,368.32L790.92,368.24L801.06,370L811.2,367.61L821.34,366.86L831.48,366.57L841.62,369.32L851.76,375.05L861.9,378.23L872.04,380.81L882.18,382.27L902.46,384.53L912.6,384.81L963.3,384.99L973.44,385L1014,385" style="vector-effect: none; fill: none; stroke: rgb(92, 184, 92); stroke-opacity: 1; stroke-width: 2px; opacity: 1;"/></g><g class="points"/><g class="text"/></g><g class="trace scatter tracee24558" style="stroke-miterlimit: 2; opacity: 1;"><g class="fills"/><g class="errorbars"/><g class="lines"><path class="js-line" d="M0,384.05L30.42,384.52L40.56,384.56L162.24,384.56L172.38,384.41L202.8,383.44L212.94,382.77L233.22,380.52L243.36,378.8L253.5,375.95L263.64,371.93L273.78,365.39L283.92,359.8L294.06,356.31L304.2,349.73L314.34,341.38L324.48,329.73L344.76,304.6L354.9,289.79L375.18,265.73L385.32,255.4L395.46,245.33L405.6,233.44L425.88,209.86L436.02,200.71L446.16,191.5L456.3,180.57L466.44,173.38L476.58,167.89L486.72,162.73L496.86,161.3L507,162.87L517.14,169.09L527.28,176.49L537.42,182.38L547.56,192.75L557.7,204.69L567.84,214.04L577.98,219.01L588.12,223.85L598.26,231.06L608.4,231.35L618.54,230.25L638.82,251.18L648.96,271.17L659.1,309.79L669.24,334.91L679.38,343.46L689.52,347.94L699.66,352.95L709.8,358.82L719.94,361.56L730.08,363.45L740.22,366.5L750.36,367.48L760.5,367.57L770.64,369.41L780.78,368.77L790.92,369.3L801.06,372.33L811.2,372.77L821.34,369.23L831.48,363.82L841.62,364.36L851.76,368.6L861.9,370.65L872.04,374.07L882.18,379.11L892.32,382.56L902.46,383.9L912.6,384.39L963.3,384.91L973.44,384.94L1014,384.97" style="vector-effect: none; fill: none; stroke: rgb(92, 184, 92); stroke-opacity: 1; stroke-width: 2px; opacity: 1;"/></g><g class="points"/><g class="text"/></g><g class="trace scatter trace1eea95" style="stroke-miterlimit: 2; opacity: 1;"><g class="fills"/><g class="errorbars"/><g class="lines"><path class="js-line" d="M0,384.95L212.94,384.66L223.08,384.38L253.5,382.97L263.64,381.26L273.78,377.8L283.92,376.86L294.06,376.89L304.2,372.11L314.34,367.15L324.48,365.29L334.62,362.72L344.76,358.73L354.9,353.5L365.04,346.95L375.18,344.27L385.32,345.98L395.46,345.93L405.6,344.83L415.74,344.3L425.88,340.05L436.02,322.77L446.16,289.87L456.3,263.84L466.44,245.21L486.72,189.81L496.86,188.24L507,196.56L517.14,171.21L527.28,157.95L537.42,174.17L547.56,182.47L557.7,181.18L567.84,163.58L577.98,171.3L588.12,174.23L598.26,164.48L608.4,177.34L618.54,172.08L628.68,196.43L638.82,228.12L648.96,226.98L659.1,248.42L669.24,281.71L679.38,291.45L689.52,294.62L699.66,294.73L709.8,292.02L719.94,303.62L730.08,292.57L740.22,289.66L750.36,316.89L760.5,330.17L770.64,321.75L780.78,324.51L790.92,344.24L801.06,354.78L811.2,350.65L821.34,337.49L831.48,344.36L841.62,353.28L851.76,360.1L861.9,370.74L872.04,373.6L882.18,379.42L892.32,384.1L902.46,384.88L1014,385" style="vector-effect: none; fill: none; stroke: rgb(217, 83, 79); stroke-opacity: 1; stroke-width: 2px; opacity: 1;"/></g><g class="points"/><g class="text"/></g><g class="trace scatter trace34f8c7" style="stroke-miterlimit: 2; opacity: 1;"><g class="fills"/><g class="errorbars"/><g class="lines"><path class="js-line" d="M0,384.98L212.94,384.54L223.08,384.25L243.36,383.4L253.5,381.83L263.64,379.85L273.78,376.26L283.92,373.93L294.06,373.93L304.2,371.57L314.34,368.33L334.62,356.29L344.76,354.31L365.04,346.39L375.18,345.91L385.32,348.53L395.46,349.77L415.74,344.93L425.88,339.19L436.02,322.61L446.16,299.84L456.3,256.26L466.44,220.11L476.58,199.12L486.72,176.23L496.86,174.76L507,188.22L517.14,192.63L527.28,164.91L537.42,150.52L547.56,162.35L557.7,168.92L567.84,147.18L577.98,165.58L588.12,198.29L598.26,195.08L608.4,206.8L618.54,224.78L628.68,250L638.82,277.65L648.96,295.43L659.1,291.39L669.24,293.84L679.38,295.52L689.52,299L699.66,302.47L709.8,287.34L719.94,283.23L730.08,277.32L740.22,279.77L750.36,295.43L760.5,311.24L770.64,323.82L780.78,321.79L790.92,324.47L801.06,341.51L811.2,350.47L821.34,341.61L831.48,336.26L841.62,339.75L851.76,335.46L861.9,336.58L872.04,355.62L882.18,370.64L892.32,379.25L902.46,383.46L912.6,384.2L953.16,384.84L963.3,384.89L1014,384.96" style="vector-effect: none; fill: none; stroke: rgb(217, 83, 79); stroke-opacity: 1; stroke-width: 2px; opacity: 1;"/></g><g class="points"/><g class="text"/></g><g class="trace scatter trace6e098d" style="stroke-miterlimit: 2; opacity: 1;"><g class="fills"/><g class="errorbars"/><g class="lines"><path class="js-line" d="M0,383.59L30.42,384.88L40.56,384.87L202.8,384.24L212.94,383.87L233.22,382.5L243.36,381.43L253.5,380.03L263.64,377.54L273.78,373.14L283.92,370.32L294.06,368.41L304.2,362.9L314.34,356.95L324.48,352.03L334.62,344.59L344.76,335.05L405.6,273.94L415.74,261.87L425.88,248.21L436.02,231.74L446.16,212.13L456.3,196.82L476.58,164.77L486.72,146.42L496.86,136.89L507,149.05L517.14,157.25L527.28,159.78L537.42,170.27L547.56,189.98L557.7,202.48L567.84,206.01L577.98,215.37L588.12,215.55L598.26,211.96L608.4,224.51L618.54,234.11L628.68,249.97L648.96,300.51L659.1,321.04L669.24,326.49L679.38,323.06L689.52,326.06L699.66,336.67L719.94,347.21L730.08,353.76L740.22,357.37L750.36,353.15L760.5,343.42L770.64,338.72L780.78,345.68L790.92,356.13L801.06,361.19L811.2,362.8L821.34,363.11L831.48,359.31L841.62,361.35L851.76,370.17L861.9,374.74L872.04,377.73L892.32,383.35L902.46,384.45L932.88,384.98L943.02,384.98L1014,385" style="vector-effect: none; fill: none; stroke: rgb(240, 173, 78); stroke-opacity: 1; stroke-width: 2px; opacity: 1;"/></g><g class="points"/><g class="text"/></g><g class="trace scatter trace09cd0d" style="stroke-miterlimit: 2; opacity: 1;"><g class="fills"/><g class="errorbars"/><g class="lines"><path class="js-line" d="M0,384.46L60.84,384.8L70.98,384.84L182.52,384.46L192.66,384.25L223.08,383.02L233.22,382.22L253.5,379.28L263.64,376.73L283.92,368.63L294.06,366.48L304.2,362.45L314.34,357.09L344.76,332.63L354.9,322.07L375.18,305.05L385.32,297.56L395.46,289.9L405.6,280.66L425.88,258.91L436.02,245.31L446.16,228.88L456.3,210.91L466.44,188.65L476.58,164.23L486.72,153.26L496.86,151.06L507,151.6L517.14,161.05L527.28,167.79L537.42,172.9L547.56,187.22L557.7,196.53L567.84,199.23L577.98,208.64L588.12,217.54L598.26,224.9L608.4,233.29L618.54,232.16L628.68,243.71L638.82,265.04L648.96,284.93L659.1,308.11L669.24,316.52L679.38,318.64L689.52,323.57L699.66,329.41L709.8,335.88L719.94,343.47L730.08,346.84L740.22,346.55L760.5,349.16L770.64,352.26L790.92,354.02L801.06,359.49L811.2,363.06L821.34,363.16L831.48,360.88L841.62,361.49L851.76,366.83L861.9,369.99L872.04,372.2L882.18,376.86L892.32,381.19L902.46,382.95L922.74,384.25L932.88,384.52L1003.86,384.95L1014,384.95" style="vector-effect: none; fill: none; stroke: rgb(240, 173, 78); stroke-opacity: 1; stroke-width: 2px; opacity: 1;"/></g><g class="points"/><g class="text"/></g><g class="trace scatter trace9ab3de" style="stroke-miterlimit: 2; opacity: 1;"><g class="fills"/><g class="errorbars"/><g class="lines"><path class="js-line" d="M0,381.52L20.28,384.68L30.42,384.71L202.8,384.29L212.94,383.9L233.22,382.42L243.36,381.25L263.64,377.58L273.78,374.89L294.06,369.31L304.2,365.7L334.62,353.86L344.76,349.25L375.18,336.21L385.32,333.23L436.02,321.86L446.16,317.56L456.3,313.52L466.44,310.99L486.72,304.61L496.86,304.51L507,306.94L517.14,310.28L527.28,313.73L537.42,320.04L547.56,328.55L557.7,334.75L577.98,344.53L588.12,347.96L598.26,349.65L608.4,350.54L628.68,351.83L638.82,351.31L648.96,348.78L659.1,348.13L669.24,348.49L679.38,342.88L689.52,330.21L699.66,307.62L709.8,283.74L719.94,277.94L730.08,284.08L740.22,284.56L750.36,262.88L760.5,215.67L770.64,180.53L780.78,150.14L790.92,132.08L801.06,137.82L811.2,119.41L821.34,84.5L831.48,19.25L841.62,66.77L851.76,176.27L861.9,192.94L872.04,199.86L882.18,257.26L892.32,329.41L902.46,352.19L912.6,367.24L922.74,379.85L932.88,382.32L943.02,383.4L963.3,384.36L973.44,384.42L1014,384.98" style="vector-effect: none; fill: none; stroke: rgb(217, 83, 79); stroke-opacity: 1; stroke-width: 2px; opacity: 1;"/></g><g class="points"/><g class="text"/></g><g class="trace scatter trace1d9af3" style="stroke-miterlimit: 2; opacity: 1;"><g class="fills"/><g class="errorbars"/><g class="lines"><path class="js-line" d="M0,384.03L30.42,384.32L40.56,384.23L111.54,384.83L121.68,384.82L202.8,383.92L212.94,383.44L233.22,381.72L243.36,380.34L263.64,376.43L273.78,373.52L304.2,364.68L314.34,361.13L354.9,344.47L365.04,340.28L385.32,334.35L395.46,331.86L436.02,323.21L446.16,319.77L476.58,309.05L486.72,306.34L496.86,305.74L507,307.1L517.14,311.3L527.28,316.97L537.42,322.81L547.56,329.76L557.7,335.96L567.84,340.46L588.12,348.2L598.26,350.89L608.4,351L618.54,348.8L648.96,341.74L659.1,340.47L669.24,337.84L679.38,329.03L689.52,310.98L699.66,301.28L709.8,303.98L719.94,302.81L730.08,299.03L740.22,292.42L750.36,267.83L760.5,232.87L770.64,213.39L780.78,188.44L790.92,163.08L801.06,151.04L811.2,129.97L821.34,104.17L831.48,27.49L841.62,46.71L851.76,156.81L861.9,170.28L872.04,164.97L882.18,233.4L892.32,315.28L902.46,340.65L922.74,372.33L932.88,378.37L943.02,380.69L953.16,381.93L983.58,383.34L993.72,383.68L1014,384.44" style="vector-effect: none; fill: none; stroke: rgb(217, 83, 79); stroke-opacity: 1; stroke-width: 2px; opacity: 1;"/></g><g class="points"/><g class="text"/></g><g class="trace scatter traced9d854" style="stroke-miterlimit: 2; opacity: 1;"><g class="fills"/><g class="errorbars"/><g class="lines"><path class="js-line" d="M0,383.56L30.42,384.86L40.56,384.86L192.66,384.3L202.8,384.02L233.22,381.9L243.36,380.55L253.5,378.62L263.64,375.36L294.06,361.13L304.2,352.92L324.48,336.31L334.62,325.53L354.9,299.22L365.04,287.11L375.18,276.25L385.32,267.17L405.6,251.76L415.74,244.42L436.02,228.14L446.16,217.82L456.3,207.97L466.44,201.19L486.72,191.33L496.86,189.65L517.14,194.31L527.28,194.94L537.42,206.45L547.56,225.14L557.7,239.02L567.84,250.72L577.98,258.91L588.12,262.17L598.26,255.75L608.4,251.63L618.54,248.75L628.68,257.92L638.82,276.65L648.96,300.25L659.1,337.44L669.24,357.77L679.38,360.79L689.52,361.67L699.66,364.93L709.8,367.39L719.94,367.21L730.08,369.8L740.22,373.07L750.36,372.44L760.5,370.14L770.64,368.94L780.78,367.72L790.92,368.17L801.06,369.08L811.2,367.08L831.48,359.94L841.62,364.34L851.76,372.06L861.9,375.78L872.04,379.84L882.18,382.72L892.32,384.57L902.46,384.89L1014,385" style="vector-effect: none; fill: none; stroke: rgb(240, 173, 78); stroke-opacity: 1; stroke-width: 2px; opacity: 1;"/></g><g class="points"/><g class="text"/></g><g class="trace scatter trace08e26c" style="stroke-miterlimit: 2; opacity: 1;"><g class="fills"/><g class="errorbars"/><g class="lines"><path class="js-line" d="M0,384.53L60.84,384.77L70.98,384.76L172.38,384.45L182.52,384.27L212.94,383.19L223.08,382.43L243.36,379.91L253.5,377.38L263.64,373.78L273.78,367.65L283.92,362.27L294.06,358.14L304.2,350.83L314.34,342.5L324.48,332.13L334.62,320.49L365.04,286.83L375.18,277.75L395.46,260.98L405.6,252.12L425.88,235.35L436.02,228.2L446.16,220.14L456.3,210.53L466.44,202.96L476.58,197.7L486.72,193.97L496.86,193.59L507,197.15L517.14,204.84L537.42,223.15L547.56,234.55L557.7,245.18L567.84,254.01L598.26,267.06L608.4,263.73L618.54,260.14L628.68,264.34L638.82,268.29L648.96,285.44L659.1,322.31L669.24,345.78L679.38,353.06L689.52,356.19L709.8,364.25L719.94,365.95L740.22,369.92L750.36,369.43L760.5,367.71L770.64,368.48L790.92,367.1L801.06,368.93L811.2,368L821.34,364.92L831.48,360.2L841.62,362.88L851.76,370.67L861.9,374.43L882.18,380.46L892.32,383.35L912.6,384.52L922.74,384.69L1014,384.96" style="vector-effect: none; fill: none; stroke: rgb(240, 173, 78); stroke-opacity: 1; stroke-width: 2px; opacity: 1;"/></g><g class="points"/><g class="text"/></g><g class="trace scatter trace9e1282" style="stroke-miterlimit: 2; opacity: 1;"><g class="fills"/><g class="errorbars"/><g class="lines"><path class="js-line" d="M0,383.01L20.28,384.75L30.42,384.76L182.52,384.11L192.66,383.65L212.94,381.83L223.08,380.11L233.22,377.61L243.36,374.33L253.5,370.03L263.64,364.45L283.92,350.75L294.06,342.57L324.48,313.5L334.62,302.66L354.9,279.33L365.04,266.43L375.18,253.7L385.32,243.09L405.6,224.86L415.74,217.53L425.88,211.65L436.02,206.75L446.16,200.41L456.3,195.05L466.44,193.06L476.58,192.17L486.72,191.83L496.86,194.48L517.14,204.69L527.28,205.84L537.42,216.08L547.56,234.43L557.7,247.54L567.84,259.32L577.98,270.48L588.12,277.38L598.26,275.67L608.4,273.09L618.54,271.64L628.68,280.83L638.82,296.72L648.96,317.76L659.1,347.21L669.24,362.32L679.38,365.59L689.52,367.82L699.66,370.78L709.8,372.93L719.94,373.76L730.08,375.82L740.22,378.07L750.36,378.3L760.5,377.89L770.64,378.29L801.06,378.41L811.2,377.25L831.48,373.02L841.62,375.22L851.76,379.08L861.9,380.68L882.18,384.01L892.32,384.81L953.16,385L963.3,385L1014,385" style="vector-effect: none; fill: none; stroke: rgb(92, 184, 92); stroke-opacity: 1; stroke-width: 2px; opacity: 1;"/></g><g class="points"/><g class="text"/></g><g class="trace scatter trace43344b" style="stroke-miterlimit: 2; opacity: 1;"><g class="fills"/><g class="errorbars"/><g class="lines"><path class="js-line" d="M0,384.4L50.7,384.59L60.84,384.63L152.1,384.41L162.24,384.25L192.66,382.77L202.8,381.75L223.08,377.93L233.22,374.87L243.36,370.82L253.5,365.81L263.64,359.79L273.78,352.74L294.06,337.19L304.2,328.18L324.48,308.59L334.62,297.74L375.18,253.31L385.32,244.44L405.6,227.13L415.74,219.71L425.88,213.29L436.02,209.81L456.3,201.98L466.44,200.54L486.72,202.96L496.86,205.79L507,210.78L517.14,217.9L537.42,233.75L547.56,243.59L567.84,263.06L577.98,268.8L598.26,280.7L608.4,282.27L618.54,281.4L628.68,286.34L638.82,291.81L648.96,306.26L659.1,333.64L669.24,349.85L679.38,356.49L689.52,360.04L699.66,363.64L709.8,368.19L740.22,374.57L750.36,375.05L760.5,375.02L770.64,375.97L790.92,376.23L801.06,377.21L811.2,377.22L821.34,376.15L831.48,373.72L841.62,374.72L851.76,378.44L861.9,380.07L892.32,384.23L902.46,384.58L973.44,384.95L983.58,384.96L1014,384.96" style="vector-effect: none; fill: none; stroke: rgb(92, 184, 92); stroke-opacity: 1; stroke-width: 2px; opacity: 1;"/></g><g class="points"/><g class="text"/></g><g class="trace scatter traceecf3c3" style="stroke-miterlimit: 2; opacity: 1;"><g class="fills"/><g class="errorbars"/><g class="lines"><path class="js-line" d="M0,381.35L20.28,384.67L30.42,384.71L182.52,384.24L192.66,383.83L212.94,382.1L223.08,380.49L233.22,378.14L243.36,374.87L253.5,370.53L263.64,364.39L294.06,340.14L304.2,329.15L324.48,308.12L334.62,296.24L354.9,272.16L365.04,260.99L375.18,250.76L385.32,242.7L405.6,230.1L415.74,224.58L425.88,219.97L436.02,216.4L446.16,211.84L456.3,208.51L466.44,208.32L476.58,209.22L486.72,210L496.86,213.56L527.28,233.69L537.42,244.35L547.56,258.61L557.7,271.02L577.98,293.89L588.12,303.03L608.4,314.13L618.54,320.87L638.82,338.64L648.96,348.36L659.1,361.04L669.24,368.36L679.38,370.34L689.52,371.49L709.8,373.73L719.94,373.57L740.22,375.79L750.36,374.81L760.5,372.8L770.64,372.08L801.06,368.09L811.2,364.87L821.34,360.1L831.48,352.06L841.62,356.28L851.76,366.63L882.18,374.2L892.32,379.75L902.46,382.78L912.6,384.1L932.88,384.95L943.02,384.97L1014,385" style="vector-effect: none; fill: none; stroke: rgb(240, 173, 78); stroke-opacity: 1; stroke-width: 2px; opacity: 1;"/></g><g class="points"/><g class="text"/></g><g class="trace scatter tracefd7b8d" style="stroke-miterlimit: 2; opacity: 1;"><g class="fills"/><g class="errorbars"/><g class="lines"><path class="js-line" d="M0,383.91L30.42,384.38L40.56,384.31L141.96,384.48L152.1,384.35L182.52,383.5L192.66,382.89L212.94,380.58L223.08,378.56L233.22,375.59L243.36,371.66L253.5,366.38L263.64,359.58L294.06,333.66L304.2,323.68L324.48,302.1L334.62,290.81L354.9,269.69L365.04,260.29L375.18,252.42L385.32,245.89L405.6,233.65L415.74,228.19L425.88,223.83L436.02,221.28L456.3,215.55L466.44,215.41L486.72,219.36L496.86,223.12L507,228.53L517.14,236.16L537.42,253.48L547.56,263.85L567.84,284.85L577.98,294.05L598.26,311.37L608.4,317.53L618.54,322.05L628.68,328.05L638.82,333.76L648.96,341.88L659.1,354.58L669.24,362.41L679.38,365.89L689.52,368.06L709.8,371.86L719.94,372.78L740.22,374.08L750.36,373.13L760.5,371.7L770.64,371.84L790.92,368.85L801.06,368.99L811.2,367.33L821.34,363.2L831.48,353.91L841.62,354.46L851.76,363.82L861.9,365.08L872.04,366.03L882.18,372.64L892.32,379.41L902.46,382.05L922.74,384.16L932.88,384.49L1003.86,384.93L1014,384.95" style="vector-effect: none; fill: none; stroke: rgb(240, 173, 78); stroke-opacity: 1; stroke-width: 2px; opacity: 1;"/></g><g class="points"/><g class="text"/></g><g class="trace scatter tracefe50ca" style="stroke-miterlimit: 2; opacity: 1;"><g class="fills"/><g class="errorbars"/><g class="lines"><path class="js-line" d="M0,383.56L30.42,384.83L40.56,384.81L192.66,384.38L202.8,384.04L223.08,382.74L233.22,381.56L253.5,377.71L263.64,374.64L294.06,362.08L304.2,356.34L334.62,338.4L344.76,331.54L375.18,312.35L385.32,307.01L425.88,288.71L436.02,280L456.3,247.09L466.44,228.42L476.58,206.62L486.72,198.29L496.86,208.89L507,221.79L517.14,212.77L527.28,206.34L537.42,210.84L547.56,219.22L557.7,227.38L567.84,220.57L577.98,231.68L588.12,249.03L598.26,247.26L608.4,253.52L618.54,256.42L628.68,270.74L638.82,291.25L648.96,298.45L659.1,311.43L669.24,319.14L679.38,311.84L689.52,308.99L699.66,315.8L709.8,314.61L719.94,317.56L730.08,313.64L740.22,315.29L750.36,332.38L760.5,340.28L770.64,332.22L780.78,328.48L790.92,339.99L801.06,348.21L811.2,342.64L821.34,330.73L831.48,332.77L841.62,336.67L851.76,346.77L861.9,362.19L872.04,368.33L882.18,376.62L892.32,383.02L902.46,384.34L912.6,384.67L943.02,384.99L953.16,384.99L1014,385" style="vector-effect: none; fill: none; stroke: rgb(217, 83, 79); stroke-opacity: 1; stroke-width: 2px; opacity: 1;"/></g><g class="points"/><g class="text"/></g><g class="trace scatter tracea9e03d" style="stroke-miterlimit: 2; opacity: 1;"><g class="fills"/><g class="errorbars"/><g class="lines"><path class="js-line" d="M0,384.51L60.84,384.76L70.98,384.76L172.38,384.52L182.52,384.33L212.94,382.92L223.08,381.93L243.36,378.45L253.5,375.72L263.64,372.16L273.78,367.51L304.2,353.02L314.34,347.16L365.04,317.21L375.18,311.96L415.74,294.98L425.88,290.93L436.02,282.64L446.16,271.51L456.3,253.01L466.44,231.2L476.58,211.12L486.72,197.69L496.86,203.14L507,218.68L517.14,223.92L527.28,212.17L537.42,201.7L547.56,208.17L557.7,223.01L567.84,225.21L577.98,239.75L588.12,257.18L598.26,265.46L608.4,276.76L618.54,278.35L628.68,286.48L638.82,302.62L648.96,315.36L659.1,319.5L669.24,319.31L679.38,313.13L689.52,314.88L699.66,320.07L709.8,312.86L719.94,313.54L730.08,310.86L740.22,310.97L750.36,317.76L760.5,325.92L770.64,335.82L780.78,333.46L790.92,334.17L801.06,345.9L811.2,350.16L821.34,340.36L831.48,328.76L841.62,328.54L851.76,331.59L861.9,334.55L872.04,348.51L882.18,365.98L892.32,377.82L902.46,382.29L912.6,383.5L932.88,384.44L943.02,384.63L1014,384.95" style="vector-effect: none; fill: none; stroke: rgb(217, 83, 79); stroke-opacity: 1; stroke-width: 2px; opacity: 1;"/></g><g class="points"/><g class="text"/></g><g class="trace scatter tracea92322" style="stroke-miterlimit: 2; opacity: 1;"><g class="fills"/><g class="errorbars"/><g class="lines"><path class="js-line" d="M0,381.48L20.28,384.74L30.42,384.79L192.66,384.15L202.8,383.67L223.08,381.79L233.22,380.18L253.5,375.22L263.64,371.24L294.06,355.63L304.2,348.51L334.62,325.6L344.76,316.09L375.18,286.19L385.32,277.76L405.6,261.67L415.74,252.48L425.88,244.23L436.02,237.7L446.16,226.24L456.3,216.51L466.44,212.7L476.58,207.91L486.72,204.47L496.86,206.45L517.14,219.66L527.28,221.47L537.42,230.83L547.56,249.83L557.7,262.8L567.84,272.43L577.98,281.69L588.12,286.14L598.26,282.34L608.4,282.03L618.54,278.59L628.68,279.22L638.82,289.44L648.96,313.25L659.1,347.58L669.24,362.27L679.38,365.4L689.52,367.12L699.66,369.74L709.8,371.21L719.94,370.96L730.08,373.16L740.22,376.07L750.36,375.68L770.64,374.55L780.78,372.47L790.92,371.08L801.06,370.92L831.48,363.28L841.62,366.55L851.76,372.93L861.9,376.16L872.04,380.02L882.18,382.39L892.32,384.16L902.46,384.78L963.3,385L973.44,385L1014,385" style="vector-effect: none; fill: none; stroke: rgb(240, 173, 78); stroke-opacity: 1; stroke-width: 2px; opacity: 1;"/></g><g class="points"/><g class="text"/></g><g class="trace scatter tracec5f737" style="stroke-miterlimit: 2; opacity: 1;"><g class="fills"/><g class="errorbars"/><g class="lines"><path class="js-line" d="M0,384.22L30.42,384.4L40.56,384.35L172.38,384.27L182.52,383.97L202.8,382.74L212.94,381.66L233.22,378.02L243.36,375.21L253.5,371.51L263.64,366.93L283.92,355.04L294.06,349.89L314.34,336.26L324.48,328.26L344.76,311.15L354.9,301.89L375.18,285.64L385.32,278.72L405.6,265.04L415.74,257.48L425.88,251.15L436.02,246.83L446.16,239.12L456.3,229.14L466.44,222.36L476.58,217.7L486.72,214.46L496.86,213.66L507,216.36L517.14,224.17L527.28,233.96L537.42,242.28L557.7,265.66L567.84,273.78L588.12,279.79L598.26,284.61L608.4,283.9L618.54,282.31L638.82,295.93L648.96,310.5L659.1,337.26L669.24,352.95L679.38,358.31L689.52,360.96L699.66,363.94L709.8,368.12L740.22,373.17L750.36,372.92L760.5,372.1L770.64,373L790.92,371.43L801.06,372.75L811.2,371.98L821.34,368.01L831.48,362.24L841.62,363.5L851.76,369.22L861.9,371.05L872.04,374.33L882.18,379.96L892.32,383.28L902.46,384.24L943.02,384.88L953.16,384.91L1014,384.97" style="vector-effect: none; fill: none; stroke: rgb(92, 184, 92); stroke-opacity: 1; stroke-width: 2px; opacity: 1;"/></g><g class="points"/><g class="text"/></g><g class="trace scatter trace023b6a" style="stroke-miterlimit: 2; opacity: 1;"><g class="fills"/><g class="errorbars"/><g class="lines"><path class="js-line" d="M0,383.36L30.42,384.83L40.56,384.82L182.52,384.48L192.66,384.25L212.94,383.23L223.08,382.27L243.36,378.86L253.5,376.2L263.64,371.86L273.78,365.65L283.92,359.88L294.06,353.14L314.34,332.38L324.48,321.63L334.62,308.88L344.76,294.33L365.04,265.77L375.18,252.89L395.46,231.97L405.6,222.8L415.74,214.58L425.88,207.59L436.02,201.79L446.16,194.94L456.3,189.93L466.44,188.93L486.72,190.78L496.86,195.6L527.28,220.29L537.42,231.56L547.56,247.17L557.7,260.69L577.98,286.27L588.12,296.21L598.26,301.83L608.4,308.51L618.54,313.48L628.68,319.73L638.82,327.95L648.96,339.71L659.1,355.92L669.24,363.33L699.66,365.1L709.8,365.01L719.94,364.34L730.08,365.6L740.22,367.34L750.36,365.32L760.5,361.64L770.64,359.71L780.78,359.54L790.92,360.37L801.06,359.78L811.2,354.87L821.34,349.68L831.48,347.35L841.62,354.74L851.76,365.38L872.04,378.19L882.18,382.16L892.32,384.53L902.46,384.86L993.72,385L1003.86,385L1014,385" style="vector-effect: none; fill: none; stroke: rgb(240, 173, 78); stroke-opacity: 1; stroke-width: 2px; opacity: 1;"/></g><g class="points"/><g class="text"/></g><g class="trace scatter trace41d20b" style="stroke-miterlimit: 2; opacity: 1;"><g class="fills"/><g class="errorbars"/><g class="lines"><path class="js-line" d="M0,384.66L101.4,384.82L111.54,384.8L182.52,384.03L192.66,383.64L212.94,382.27L223.08,380.99L243.36,376.78L253.5,373.26L263.64,368.32L273.78,361.22L294.06,346.83L304.2,337.44L314.34,326.69L324.48,314.2L365.04,263.24L375.18,253.27L395.46,235.38L405.6,227.11L425.88,212.64L436.02,206.78L456.3,197.66L466.44,196.24L476.58,197.44L486.72,199.83L496.86,204.36L507,210.63L517.14,219.57L527.28,229.79L537.42,239.52L547.56,251.18L567.84,275.1L577.98,284.94L598.26,303.76L608.4,309.25L618.54,313.8L628.68,321.57L638.82,329.81L648.96,339.02L659.1,350.95L669.24,358.56L679.38,361.04L689.52,361.58L699.66,361.8L709.8,362.86L740.22,366.37L750.36,364.1L760.5,360.45L770.64,359.71L780.78,357.78L790.92,356.79L801.06,358.43L811.2,356.62L821.34,351.8L831.48,345.93L841.62,351.57L851.76,363.77L861.9,370.34L872.04,375.28L882.18,379.78L892.32,383.24L912.6,384.5L922.74,384.69L1014,384.96" style="vector-effect: none; fill: none; stroke: rgb(240, 173, 78); stroke-opacity: 1; stroke-width: 2px; opacity: 1;"/></g><g class="points"/><g class="text"/></g><g class="trace scatter trace265356" style="stroke-miterlimit: 2; opacity: 1;"><g class="fills"/><g class="errorbars"/><g class="lines"><path class="js-line" d="M0,379.83L20.28,384.57L30.42,384.68L192.66,384.3L202.8,383.95L223.08,382.71L233.22,381.61L253.5,378.26L263.64,375.42L283.92,367.46L294.06,362.57L304.2,355.57L314.34,347.56L324.48,338.81L334.62,328.11L354.9,302.6L365.04,288.66L385.32,261.75L395.46,249.36L415.74,227.91L425.88,219.29L436.02,212.66L446.16,203.79L456.3,197.24L466.44,195.39L486.72,193.52L496.86,196.5L517.14,210.36L527.28,215.47L537.42,225.66L547.56,241.38L567.84,265.07L577.98,275.86L588.12,282.96L598.26,285L618.54,295.31L628.68,302.41L638.82,311.66L648.96,327.29L659.1,350.21L669.24,360.81L689.52,363.47L699.66,364.9L740.22,367.04L750.36,363.94L760.5,356.21L770.64,351.85L780.78,350.48L790.92,347.63L801.06,344.65L811.2,339.41L821.34,333.32L831.48,322.11L841.62,329.09L851.76,345.66L872.04,355.81L882.18,362.64L892.32,374.3L902.46,381.28L912.6,383.83L922.74,384.86L1014,385" style="vector-effect: none; fill: none; stroke: rgb(217, 83, 79); stroke-opacity: 1; stroke-width: 2px; opacity: 1;"/></g><g class="points"/><g class="text"/></g><g class="trace scatter tracecb4a71" style="stroke-miterlimit: 2; opacity: 1;"><g class="fills"/><g class="errorbars"/><g class="lines"><path class="js-line" d="M0,383.75L30.42,384.05L40.56,383.94L121.68,384.77L131.82,384.74L192.66,383.88L202.8,383.45L223.08,381.95L233.22,380.75L253.5,376.79L263.64,373.69L283.92,364.74L294.06,359.52L304.2,352.63L314.34,344.31L324.48,334.3L334.62,323.12L354.9,297.8L365.04,285.02L385.32,262.12L395.46,251.85L415.74,233.1L425.88,225.48L436.02,219.79L446.16,212.69L456.3,205.7L466.44,202.27L476.58,201.53L486.72,201.93L496.86,204.09L507,208.55L517.14,216.19L527.28,225.1L537.42,233.7L547.56,244.47L557.7,255.7L567.84,265.48L598.26,288.86L608.4,292.08L618.54,294.52L628.68,302.48L638.82,311.35L648.96,323.56L659.1,342.3L669.24,353.92L679.38,358.02L689.52,359.28L699.66,360.78L709.8,363.35L730.08,365.16L740.22,364.78L760.5,357.74L770.64,356.96L780.78,353.94L790.92,348.44L801.06,344.68L811.2,339.2L821.34,331.77L831.48,318.99L841.62,323.33L851.76,342.31L861.9,346.1L872.04,348.83L892.32,375.37L902.46,380.77L912.6,382.97L922.74,384.08L963.3,384.8L973.44,384.85L1014,384.95" style="vector-effect: none; fill: none; stroke: rgb(217, 83, 79); stroke-opacity: 1; stroke-width: 2px; opacity: 1;"/></g><g class="points"/><g class="text"/></g></g></g></g><g class="zerolinelayer-above"/><path class="xlines-above crisp" d="M0,0" style="fill: none;"/><path class="ylines-above crisp" d="M0,0" style="fill: none;"/><g class="overlines-above"/><g class="xaxislayer-above"><g class="xtick"><text text-anchor="middle" x="0" y="451" transform="translate(60,0)" style="font-family: 'Lucida Grande', 'Open Sans', verdana, arial, sans-serif; font-size: 10px; fill: rgb(0, 0, 0); fill-opacity: 1; white-space: pre;">0%</text></g><g class="xtick"><text text-anchor="middle" x="0" y="451" style="font-family: 'Lucida Grande', 'Open Sans', verdana, arial, sans-serif; font-size: 10px; fill: rgb(0, 0, 0); fill-opacity: 1; white-space: pre;" transform="translate(262.8,0)">20%</text></g><g class="xtick"><text text-anchor="middle" x="0" y="451" style="font-family: 'Lucida Grande', 'Open Sans', verdana, arial, sans-serif; font-size: 10px; fill: rgb(0, 0, 0); fill-opacity: 1; white-space: pre;" transform="translate(465.6,0)">40%</text></g><g class="xtick"><text text-anchor="middle" x="0" y="451" style="font-family: 'Lucida Grande', 'Open Sans', verdana, arial, sans-serif; font-size: 10px; fill: rgb(0, 0, 0); fill-opacity: 1; white-space: pre;" transform="translate(668.4,0)">60%</text></g><g class="xtick"><text text-anchor="middle" x="0" y="451" style="font-family: 'Lucida Grande', 'Open Sans', verdana, arial, sans-serif; font-size: 10px; fill: rgb(0, 0, 0); fill-opacity: 1; white-space: pre;" transform="translate(871.2,0)">80%</text></g><g class="xtick"><text text-anchor="middle" x="0" y="451" style="font-family: 'Lucida Grande', 'Open Sans', verdana, arial, sans-serif; font-size: 10px; fill: rgb(0, 0, 0); fill-opacity: 1; white-space: pre;" transform="translate(1074,0)">100%</text></g></g><g class="yaxislayer-above"><g class="ytick"><text text-anchor="end" x="54" y="3.5" transform="translate(0,435)" style="font-family: 'Lucida Grande', 'Open Sans', verdana, arial, sans-serif; font-size: 10px; fill: rgb(0, 0, 0); fill-opacity: 1; white-space: pre;">0</text></g><g class="ytick"><text text-anchor="end" x="54" y="3.5" style="font-family: 'Lucida Grande', 'Open Sans', verdana, arial, sans-serif; font-size: 10px; fill: rgb(0, 0, 0); fill-opacity: 1; white-space: pre;" transform="translate(0,390.49)">0.2M</text></g><g class="ytick"><text text-anchor="end" x="54" y="3.5" style="font-family: 'Lucida Grande', 'Open Sans', verdana, arial, sans-serif; font-size: 10px; fill: rgb(0, 0, 0); fill-opacity: 1; white-space: pre;" transform="translate(0,345.98)">0.4M</text></g><g class="ytick"><text text-anchor="end" x="54" y="3.5" style="font-family: 'Lucida Grande', 'Open Sans', verdana, arial, sans-serif; font-size: 10px; fill: rgb(0, 0, 0); fill-opacity: 1; white-space: pre;" transform="translate(0,301.47)">0.6M</text></g><g class="ytick"><text text-anchor="end" x="54" y="3.5" style="font-family: 'Lucida Grande', 'Open Sans', verdana, arial, sans-serif; font-size: 10px; fill: rgb(0, 0, 0); fill-opacity: 1; white-space: pre;" transform="translate(0,256.96000000000004)">0.8M</text></g><g class="ytick"><text text-anchor="end" x="54" y="3.5" style="font-family: 'Lucida Grande', 'Open Sans', verdana, arial, sans-serif; font-size: 10px; fill: rgb(0, 0, 0); fill-opacity: 1; white-space: pre;" transform="translate(0,212.45)">1M</text></g><g class="ytick"><text text-anchor="end" x="54" y="3.5" style="font-family: 'Lucida Grande', 'Open Sans', verdana, arial, sans-serif; font-size: 10px; fill: rgb(0, 0, 0); fill-opacity: 1; white-space: pre;" transform="translate(0,167.93)">1.2M</text></g><g class="ytick"><text text-anchor="end" x="54" y="3.5" style="font-family: 'Lucida Grande', 'Open Sans', verdana, arial, sans-serif; font-size: 10px; fill: rgb(0, 0, 0); fill-opacity: 1; white-space: pre;" transform="translate(0,123.42)">1.4M</text></g><g class="ytick"><text text-anchor="end" x="54" y="3.5" style="font-family: 'Lucida Grande', 'Open Sans', verdana, arial, sans-serif; font-size: 10px; fill: rgb(0, 0, 0); fill-opacity: 1; white-space: pre;" transform="translate(0,78.91)">1.6M</text></g></g><g class="overaxes-above"/></g></g><g class="polarlayer"/><g class="smithlayer"/><g class="ternarylayer"/><g class="geolayer"/><g class="funnelarealayer"/><g class="pielayer"/><g class="iciclelayer"/><g class="treemaplayer"/><g class="sunburstlayer"/><g class="glimages"/><defs id="topdefs-0c9195"><g class="clips"/></defs><g class="layer-above"><g class="imagelayer"/><g class="shapelayer"/></g><g class="infolayer"><g class="g-gtitle"><text class="gtitle" x="550" y="25" text-anchor="middle" dy="0em" style="opacity: 1; font-family: 'Lucida Grande', 'Open Sans', verdana, arial, sans-serif; font-size: 20px; fill: rgb(68, 68, 68); fill-opacity: 1; white-space: pre;"><tspan class="line" dy="0em" x="550" y="25">FastQC: Per Sequence GC Content</tspan><tspan class="line" dy="1.3em" x="550" y="25">​<tspan style="font-size:70%" dy="-0.6em">Counts, 32 lines</tspan><tspan dy="0.42em">​</tspan></tspan></text></g><g class="g-xtitle"><text class="xtitle" x="567" y="487" text-anchor="middle" style="opacity: 0.3; font-family: 'Lucida Grande', 'Open Sans', verdana, arial, sans-serif; font-size: 14px; fill: rgb(0, 0, 0); fill-opacity: 1; white-space: pre;">% GC</text></g><g class="g-ytitle"><text class="ytitle" transform="rotate(-90,22,242.5)" x="22" y="242.5" text-anchor="middle" style="opacity: 0.3; font-family: 'Lucida Grande', 'Open Sans', verdana, arial, sans-serif; font-size: 14px; fill: rgb(0, 0, 0); fill-opacity: 1; white-space: pre;">Count</text></g></g></svg>