<svg class="main-svg" xmlns="http://www.w3.org/2000/svg" xmlns:xlink="http://www.w3.org/1999/xlink" width="2200" height="1000" style="" viewBox="0 0 1100 500"><rect x="0" y="0" width="1100" height="500" style="fill: rgb(255, 255, 255); fill-opacity: 1;"/><defs id="defs-a65002"><g class="clips"><clipPath id="clipa65002xyplot" class="plotclip"><rect width="1014" height="385"/></clipPath><clipPath class="axesclip" id="clipa65002x"><rect x="60" y="0" width="1014" height="500"/></clipPath><clipPath class="axesclip" id="clipa65002y"><rect x="0" y="50" width="1100" height="385"/></clipPath><clipPath class="axesclip" id="clipa65002xy"><rect x="60" y="50" width="1014" height="385"/></clipPath></g><g class="gradients"/><g class="patterns"/></defs><g class="bglayer"/><g class="layer-below"><g class="imagelayer"/><g class="shapelayer"/></g><g class="cartesianlayer"><g class="subplot xy"><g class="layer-subplot"><g class="shapelayer"/><g class="imagelayer"/></g><g class="minor-gridlayer"><g class="x"/><g class="y"/></g><g class="gridlayer"><g class="x"><path class="xgrid crisp" transform="translate(262.8,0)" d="M0,50v385" style="stroke: rgb(0, 0, 0); stroke-opacity: 0.05; stroke-width: 1px;"/><path class="xgrid crisp" transform="translate(465.6,0)" d="M0,50v385" style="stroke: rgb(0, 0, 0); stroke-opacity: 0.05; stroke-width: 1px;"/><path class="xgrid crisp" transform="translate(668.4,0)" d="M0,50v385" style="stroke: rgb(0, 0, 0); stroke-opacity: 0.05; stroke-width: 1px;"/><path class="xgrid crisp" transform="translate(871.2,0)" d="M0,50v385" style="stroke: rgb(0, 0, 0); stroke-opacity: 0.05; stroke-width: 1px;"/></g><g class="y"><path class="ygrid crisp" transform="translate(0,353.65)" d="M60,0h1014" style="stroke: rgb(0, 0, 0); stroke-opacity: 0.05; stroke-width: 1px;"/><path class="ygrid crisp" transform="translate(0,272.31)" d="M60,0h1014" style="stroke: rgb(0, 0, 0); stroke-opacity: 0.05; stroke-width: 1px;"/><path class="ygrid crisp" transform="translate(0,190.96)" d="M60,0h1014" style="stroke: rgb(0, 0, 0); stroke-opacity: 0.05; stroke-width: 1px;"/><path class="ygrid crisp" transform="translate(0,109.61)" d="M60,0h1014" style="stroke: rgb(0, 0, 0); stroke-opacity: 0.05; stroke-width: 1px;"/></g></g><g class="zerolinelayer"><path class="xzl zl crisp" transform="translate(60,0)" d="M0,50v385" style="stroke: rgb(0, 0, 0); stroke-opacity: 0.05; stroke-width: 1px;"/><path class="yzl zl crisp" transform="translate(0,435)" d="M60,0h1014" style="stroke: rgb(0, 0, 0); stroke-opacity: 0.05; stroke-width: 1px;"/></g><g class="layer-between"><g class="shapelayer"/><g class="imagelayer"/></g><path class="xlines-below"/><path class="ylines-below"/><g class="overlines-below"/><g class="xaxislayer-below"/><g class="yaxislayer-below"/><g class="overaxes-below"/><g class="overplot"><g class="xy" transform="translate(60,50)" clip-path="url(#clipa65002xyplot)"><g class="scatterlayer mlayer"><g class="trace scatter trace2b6ba6" style="stroke-miterlimit: 2; opacity: 1;"><g class="fills"/><g class="errorbars"/><g class="lines"><path class="js-line" d="M0,384.62L60.84,384.83L70.98,384.79L202.8,383.84L212.94,383.54L233.22,381.93L243.36,380.43L253.5,378.33L263.64,374.9L294.06,360.06L304.2,352.04L314.34,343.4L324.48,335.87L334.62,326.4L344.76,315.43L354.9,305.55L365.04,297.13L375.18,289.21L385.32,282.94L405.6,272.35L415.74,265.38L425.88,261.56L436.02,260.27L446.16,248.78L456.3,241.34L476.58,241.2L486.72,241.09L496.86,243.68L507,250.58L517.14,256.04L527.28,257L537.42,261.61L547.56,271.79L557.7,280.17L567.84,290.59L577.98,300.16L588.12,306.33L598.26,310.24L608.4,312.58L618.54,312.33L628.68,316.63L638.82,324.47L648.96,338.71L659.1,358.38L669.24,367.4L709.8,375.74L719.94,376.12L740.22,379.18L750.36,378.94L760.5,378.08L770.64,378.04L780.78,377.22L790.92,377.46L801.06,378.38L811.2,377.03L821.34,375.51L831.48,371.48L841.62,371.23L851.76,375.44L882.18,382.37L892.32,383.86L922.74,384.92L932.88,384.97L1014,385" style="vector-effect: none; fill: none; stroke: rgb(92, 184, 92); stroke-opacity: 1; stroke-width: 2px; opacity: 1;"/></g><g class="points"/><g class="text"/></g><g class="trace scatter trace5dce3c" style="stroke-miterlimit: 2; opacity: 1;"><g class="fills"/><g class="errorbars"/><g class="lines"><path class="js-line" d="M0,384.72L101.4,384.73L111.54,384.7L192.66,383.89L202.8,383.5L223.08,382.01L233.22,380.67L243.36,378.72L253.5,375.68L263.64,371.54L273.78,365.2L283.92,359.25L294.06,354.48L304.2,347.47L314.34,339.34L354.9,301.61L365.04,294.51L385.32,283.86L395.46,279.03L405.6,273.66L415.74,266.67L425.88,262.04L436.02,256.54L446.16,245.68L456.3,244.76L466.44,250.5L476.58,252.14L496.86,253.95L507,255.7L527.28,265.61L537.42,268.3L557.7,282.19L567.84,287.89L588.12,303.54L598.26,309.64L618.54,313.09L628.68,318.57L638.82,323.37L648.96,333.48L659.1,351.75L669.24,362.13L679.38,365.98L689.52,368.21L709.8,373.45L719.94,374.53L750.36,376.77L760.5,376.46L770.64,377.32L780.78,377.12L790.92,377.54L801.06,379.08L811.2,379.06L821.34,376.39L831.48,370.02L841.62,368.56L851.76,373.28L861.9,375.61L872.04,377.8L882.18,381.34L892.32,383.41L902.46,384.1L943.02,384.86L953.16,384.89L1014,384.97" style="vector-effect: none; fill: none; stroke: rgb(92, 184, 92); stroke-opacity: 1; stroke-width: 2px; opacity: 1;"/></g><g class="points"/><g class="text"/></g><g class="trace scatter trace2919e0" style="stroke-miterlimit: 2; opacity: 1;"><g class="fills"/><g class="errorbars"/><g class="lines"><path class="js-line" d="M0,381.52L20.28,384.7L30.42,384.76L202.8,384.11L212.94,383.85L243.36,381.9L253.5,380.59L263.64,378.59L273.78,375.7L294.06,368.84L304.2,363.5L324.48,350.48L334.62,342.37L365.04,315.92L375.18,308.2L395.46,295.94L405.6,290.28L415.74,284.74L425.88,280.71L436.02,277.56L446.16,271.88L456.3,267.13L466.44,263.86L476.58,247.79L486.72,209.01L496.86,128.79L507,162.77L517.14,263.33L527.28,276.38L537.42,284.94L547.56,297L557.7,306.34L567.84,314.09L577.98,320.43L588.12,324.47L608.4,327.71L618.54,330.29L628.68,336.2L638.82,343.27L648.96,351.78L659.1,363.63L669.24,370.21L679.38,371.68L709.8,372.96L719.94,372.18L740.22,371.53L750.36,367.44L760.5,360.01L770.64,356.63L780.78,352.65L790.92,342.87L801.06,332.08L811.2,323L821.34,301.48L831.48,232.88L841.62,207.6L851.76,222.28L861.9,220.58L872.04,244.66L882.18,285.53L892.32,315.93L902.46,323.89L912.6,345.75L922.74,372.54L932.88,381.3L943.02,382.87L953.16,383.4L1003.86,384.95L1014,384.96" style="vector-effect: none; fill: none; stroke: rgb(217, 83, 79); stroke-opacity: 1; stroke-width: 2px; opacity: 1;"/></g><g class="points"/><g class="text"/></g><g class="trace scatter trace44409b" style="stroke-miterlimit: 2; opacity: 1;"><g class="fills"/><g class="errorbars"/><g class="lines"><path class="js-line" d="M0,383.96L40.56,384.3L50.7,384.39L141.96,384.56L152.1,384.52L212.94,383.47L223.08,382.96L243.36,381.14L253.5,379.64L263.64,377.56L273.78,374.38L294.06,366.93L304.2,361.76L314.34,355.43L324.48,347.91L344.76,330.81L354.9,322.01L375.18,307.03L385.32,301.18L415.74,285.03L425.88,281.02L436.02,278.05L446.16,273.19L456.3,266.33L466.44,253.26L476.58,134.32L486.72,47.08L496.86,160.4L507,260.3L517.14,274.79L527.28,283.44L537.42,290.09L547.56,298.6L557.7,307.03L567.84,313.61L588.12,323.72L598.26,327.69L618.54,330.97L628.68,335.37L638.82,340.65L648.96,347.81L659.1,358.88L669.24,366L679.38,368.51L689.52,369.46L719.94,371.73L730.08,370.77L740.22,368.56L750.36,365.09L760.5,361.53L770.64,359.16L780.78,353.23L790.92,344.13L811.2,326.3L821.34,301.73L831.48,233.16L841.62,203.45L851.76,220.24L861.9,215.4L872.04,231.45L882.18,282.76L892.32,319.45L902.46,327.34L912.6,346.41L922.74,369.91L932.88,379.37L943.02,381.58L973.44,383.73L983.58,384.17L1014,384.81" style="vector-effect: none; fill: none; stroke: rgb(217, 83, 79); stroke-opacity: 1; stroke-width: 2px; opacity: 1;"/></g><g class="points"/><g class="text"/></g><g class="trace scatter tracea47818" style="stroke-miterlimit: 2; opacity: 1;"><g class="fills"/><g class="errorbars"/><g class="lines"><path class="js-line" d="M0,381.31L20.28,384.78L30.42,384.81L243.36,384.31L253.5,384.01L294.06,381.63L304.2,380.66L334.62,377.32L344.76,375.64L375.18,368.63L385.32,367.45L395.46,364.55L405.6,362.57L415.74,359.67L425.88,354.26L436.02,342.54L446.16,329.03L456.3,318.22L466.44,285.15L476.58,251.28L486.72,206.41L496.86,151.6L507,177.01L517.14,214.18L527.28,218.14L547.56,239.06L557.7,240.43L567.84,238.58L577.98,245.96L588.12,227.04L598.26,227.07L608.4,257.89L618.54,268.33L628.68,282.56L638.82,310.27L648.96,331.42L659.1,327.4L669.24,312.49L679.38,300.13L689.52,305.28L699.66,323.27L709.8,330.27L719.94,340.31L730.08,347.72L740.22,347.73L750.36,338.11L760.5,321.78L770.64,317L780.78,330.95L790.92,346L801.06,354.41L811.2,360.32L821.34,359.13L831.48,346.89L841.62,345.52L851.76,356.67L861.9,361.79L872.04,367.26L882.18,373.97L892.32,377.79L902.46,379.28L922.74,383.33L932.88,384.19L973.44,384.79L983.58,384.85L1014,384.97" style="vector-effect: none; fill: none; stroke: rgb(217, 83, 79); stroke-opacity: 1; stroke-width: 2px; opacity: 1;"/></g><g class="points"/><g class="text"/></g><g class="trace scatter trace326461" style="stroke-miterlimit: 2; opacity: 1;"><g class="fills"/><g class="errorbars"/><g class="lines"><path class="js-line" d="M0,384.22L60.84,384.55L70.98,384.6L212.94,384.52L223.08,384.4L263.64,383.07L273.78,382.33L314.34,379.03L324.48,377.78L354.9,373.37L365.04,371.5L395.46,363.02L405.6,359.44L415.74,353.75L425.88,343.56L436.02,284.45L446.16,236.98L456.3,270.93L466.44,277.36L476.58,240.97L486.72,235.6L496.86,236.8L507,229.26L517.14,233.95L527.28,231.26L537.42,224.87L547.56,237.09L557.7,236.57L567.84,225L577.98,236.8L588.12,242.95L598.26,246.25L608.4,261.56L618.54,260.65L628.68,271.89L638.82,296.39L648.96,310.64L659.1,316.28L669.24,311.11L679.38,306.41L689.52,308.58L699.66,314.82L709.8,322.44L719.94,334.91L730.08,338.79L740.22,334.33L750.36,335.56L760.5,336.03L770.64,338.35L780.78,341.91L790.92,341.92L811.2,357.5L821.34,358.38L831.48,351.58L841.62,348.17L851.76,353.24L861.9,356.08L872.04,359.44L882.18,367.39L892.32,373.94L902.46,376.45L922.74,381.5L932.88,382.71L963.3,383.96L973.44,384.19L1014,384.81" style="vector-effect: none; fill: none; stroke: rgb(217, 83, 79); stroke-opacity: 1; stroke-width: 2px; opacity: 1;"/></g><g class="points"/><g class="text"/></g><g class="trace scatter trace8328f0" style="stroke-miterlimit: 2; opacity: 1;"><g class="fills"/><g class="errorbars"/><g class="lines"><path class="js-line" d="M0,383.59L30.42,384.65L40.56,384.62L192.66,384.03L202.8,383.81L223.08,382.8L233.22,381.76L253.5,378.25L263.64,374.42L273.78,368.7L283.92,364.74L294.06,360.5L304.2,352.11L314.34,343.52L324.48,336.86L334.62,328.06L344.76,316.83L354.9,306.64L365.04,297.58L375.18,288.93L385.32,283.52L405.6,274.69L415.74,270.06L436.02,259.48L446.16,253.16L456.3,247.91L466.44,245.11L476.58,241.69L486.72,237.08L496.86,237.57L507,241.51L517.14,241.94L527.28,238.95L537.42,243.76L547.56,255.51L577.98,278.17L588.12,282.09L598.26,277.52L608.4,279.57L618.54,281.79L628.68,287.58L638.82,299.59L648.96,318.34L659.1,346.5L669.24,360.43L679.38,364.28L689.52,366.66L709.8,372.62L719.94,373.76L740.22,377.17L750.36,377.39L770.64,377.52L780.78,376.72L801.06,377.77L811.2,376.32L831.48,375.3L841.62,375.83L861.9,380.16L872.04,382.06L892.32,384.1L902.46,384.31L953.16,384.98L963.3,384.99L1014,385" style="vector-effect: none; fill: none; stroke: rgb(92, 184, 92); stroke-opacity: 1; stroke-width: 2px; opacity: 1;"/></g><g class="points"/><g class="text"/></g><g class="trace scatter trace6175b6" style="stroke-miterlimit: 2; opacity: 1;"><g class="fills"/><g class="errorbars"/><g class="lines"><path class="js-line" d="M0,384.53L70.98,384.66L81.12,384.66L182.52,384.02L192.66,383.74L223.08,381.78L233.22,380.47L243.36,378.64L253.5,375.56L263.64,371.16L273.78,364.29L283.92,358.62L294.06,354.77L304.2,347.99L314.34,340.02L344.76,312.19L354.9,303.15L365.04,295.98L375.18,289.76L395.46,281.52L405.6,276.05L425.88,264.6L436.02,260.07L446.16,256.67L456.3,252.23L486.72,243.62L496.86,244.72L537.42,256.39L547.56,261.52L567.84,271.99L577.98,274.65L588.12,277.85L598.26,282.23L618.54,283.29L628.68,289.58L638.82,297.93L648.96,312.08L659.1,334.36L669.24,348.91L679.38,355.27L689.52,359.57L709.8,367.42L719.94,369.74L750.36,373.81L760.5,374.19L770.64,375.16L780.78,375.29L790.92,375.87L801.06,377.31L811.2,377.91L821.34,376.59L831.48,373.78L841.62,373.28L872.04,378.27L882.18,380.87L892.32,382.63L902.46,383.41L932.88,384.6L943.02,384.71L1014,384.96" style="vector-effect: none; fill: none; stroke: rgb(92, 184, 92); stroke-opacity: 1; stroke-width: 2px; opacity: 1;"/></g><g class="points"/><g class="text"/></g><g class="trace scatter trace78082b" style="stroke-miterlimit: 2; opacity: 1;"><g class="fills"/><g class="errorbars"/><g class="lines"><path class="js-line" d="M0,383.51L30.42,384.68L40.56,384.67L182.52,384.02L192.66,383.74L223.08,382.46L233.22,381.3L243.36,379.5L253.5,376.87L263.64,372.82L273.78,367.31L283.92,361.43L294.06,354.55L324.48,327L334.62,316.91L365.04,286.28L375.18,278.11L385.32,271.94L395.46,266.93L415.74,257.5L425.88,253.51L466.44,240.55L476.58,231.97L486.72,229.14L496.86,240.55L507,252.27L517.14,258.5L527.28,264.52L537.42,273.05L557.7,293.06L567.84,302.3L577.98,310.79L588.12,318.04L598.26,323.88L608.4,328.23L618.54,331.27L628.68,337.5L638.82,344.39L648.96,352.36L659.1,362.78L669.24,368.23L679.38,369.57L689.52,370.08L699.66,370.71L709.8,370.54L730.08,368.3L740.22,364.79L750.36,355.91L760.5,348.34L770.64,346.54L780.78,343.91L790.92,333.68L801.06,316.83L811.2,304.43L821.34,300.32L831.48,275.76L841.62,269.65L851.76,281.15L861.9,275.68L872.04,288.9L882.18,320.87L892.32,342.88L902.46,350.64L922.74,374.09L932.88,379.39L943.02,381.67L953.16,382.58L1003.86,384.89L1014,384.94" style="vector-effect: none; fill: none; stroke: rgb(217, 83, 79); stroke-opacity: 1; stroke-width: 2px; opacity: 1;"/></g><g class="points"/><g class="text"/></g><g class="trace scatter tracea49797" style="stroke-miterlimit: 2; opacity: 1;"><g class="fills"/><g class="errorbars"/><g class="lines"><path class="js-line" d="M0,384.35L60.84,384.55L70.98,384.53L182.52,383.73L192.66,383.43L212.94,382.37L223.08,381.37L243.36,377.65L253.5,374.55L263.64,370.25L273.78,364.24L294.06,350.73L304.2,342.23L324.48,323.21L334.62,313.16L354.9,293.5L365.04,284.86L375.18,278.25L385.32,272.87L405.6,262.62L415.74,258.08L425.88,253.31L436.02,241.99L446.16,233.07L456.3,238.95L466.44,245.58L476.58,247.18L486.72,248.83L496.86,251.7L507,255.91L517.14,262.08L537.42,276.65L547.56,285.2L567.84,302.08L577.98,309.37L598.26,323.42L608.4,328.15L618.54,332.1L628.68,337.54L638.82,343.08L648.96,349.9L659.1,359.39L669.24,365.37L679.38,367.6L689.52,368.85L709.8,370.4L719.94,370.49L730.08,368.81L740.22,363.73L760.5,348.57L770.64,345.95L780.78,341.27L790.92,331.16L801.06,317.96L811.2,309.65L821.34,307.45L831.48,280.65L841.62,268.86L851.76,279.64L861.9,272.84L872.04,282.27L882.18,316.72L892.32,340.88L902.46,348.9L912.6,360.88L922.74,372.47L932.88,378.21L943.02,380.78L953.16,381.91L1003.86,384.68L1014,384.78" style="vector-effect: none; fill: none; stroke: rgb(217, 83, 79); stroke-opacity: 1; stroke-width: 2px; opacity: 1;"/></g><g class="points"/><g class="text"/></g><g class="trace scatter trace40c8e5" style="stroke-miterlimit: 2; opacity: 1;"><g class="fills"/><g class="errorbars"/><g class="lines"><path class="js-line" d="M0,383.22L20.28,384.75L30.42,384.74L192.66,384.03L202.8,383.85L233.22,382.32L243.36,381.19L253.5,379.76L263.64,377.23L273.78,372.98L283.92,369.96L294.06,367.03L304.2,360.72L324.48,348.2L334.62,340.1L375.18,297.99L385.32,289.04L425.88,254.63L436.02,247.46L446.16,236.27L456.3,223.64L466.44,210.8L476.58,211.43L486.72,216.85L496.86,217.05L507,221.26L517.14,223.44L527.28,221.93L537.42,226.38L547.56,239.23L557.7,249.34L577.98,266.58L588.12,269L598.26,258.53L608.4,260.03L618.54,268.31L628.68,275.55L638.82,286.89L648.96,306.95L659.1,339.28L669.24,356.59L679.38,361L689.52,363.31L709.8,369.57L719.94,370.53L740.22,374.85L750.36,374.95L770.64,374.87L780.78,373.05L790.92,373.14L801.06,374.36L811.2,372.78L821.34,372.21L831.48,370.87L841.62,371.75L851.76,375.54L861.9,377.74L882.18,381.77L892.32,383.04L932.88,384.91L943.02,384.95L1014,385" style="vector-effect: none; fill: none; stroke: rgb(92, 184, 92); stroke-opacity: 1; stroke-width: 2px; opacity: 1;"/></g><g class="points"/><g class="text"/></g><g class="trace scatter trace555cb9" style="stroke-miterlimit: 2; opacity: 1;"><g class="fills"/><g class="errorbars"/><g class="lines"><path class="js-line" d="M0,384.27L40.56,384.62L50.7,384.65L172.38,384.36L182.52,384.2L212.94,383.13L223.08,382.45L243.36,380.21L253.5,378.1L263.64,375.13L273.78,370.3L283.92,366.15L294.06,363.47L304.2,358.47L314.34,352.12L334.62,333.61L344.76,323.94L354.9,312.73L365.04,303.2L375.18,294.39L385.32,286.61L395.46,279.18L405.6,270.46L425.88,252.99L436.02,247.02L446.16,241.63L456.3,235.18L466.44,230.6L476.58,213.9L486.72,199.82L496.86,212.58L507,226.12L517.14,231.32L527.28,235.63L537.42,238.7L547.56,245.48L557.7,253.42L567.84,259.58L577.98,262.76L588.12,265.98L598.26,270.93L608.4,271L618.54,269.88L638.82,284.37L648.96,299.35L659.1,328.04L669.24,346.81L679.38,353.31L689.52,356.75L699.66,360.53L709.8,365.12L719.94,367.51L730.08,368.96L740.22,371.09L750.36,371.76L760.5,371.9L770.64,373.3L780.78,372.95L790.92,373.54L801.06,375.83L811.2,376.39L821.34,373.76L831.48,368.74L841.62,368.01L851.76,370.64L861.9,372.04L872.04,374.96L882.18,379.3L892.32,382.07L922.74,384.37L932.88,384.65L1014,384.97" style="vector-effect: none; fill: none; stroke: rgb(240, 173, 78); stroke-opacity: 1; stroke-width: 2px; opacity: 1;"/></g><g class="points"/><g class="text"/></g><g class="trace scatter tracea8ef83" style="stroke-miterlimit: 2; opacity: 1;"><g class="fills"/><g class="errorbars"/><g class="lines"><path class="js-line" d="M0,384.96L223.08,384.52L233.22,384.34L253.5,383.46L263.64,382.2L273.78,379.66L283.92,378.88L294.06,378.74L304.2,375.06L314.34,371.14L324.48,369.41L334.62,367.15L344.76,363.88L365.04,355.35L375.18,353.64L385.32,355.06L395.46,355.23L415.74,352.46L425.88,347.54L436.02,332.32L446.16,307.08L456.3,287.86L466.44,273.03L486.72,237.85L496.86,237.58L507,246.33L517.14,229.37L527.28,219.83L537.42,231.1L547.56,236.55L557.7,235.49L567.84,223.34L577.98,228.84L588.12,228.81L598.26,219.18L608.4,227.88L618.54,224.85L628.68,242.4L638.82,265.54L648.96,265.87L659.1,283.7L669.24,308.16L679.38,314.41L689.52,316.36L699.66,316.3L709.8,316.01L719.94,325.02L730.08,316.04L740.22,312.91L750.36,331.35L760.5,340.48L770.64,334.35L780.78,337.22L790.92,352.97L801.06,361.1L811.2,358.12L821.34,348.36L831.48,352.77L841.62,359.26L851.76,364.63L861.9,371.71L872.04,373.18L882.18,377.96L892.32,382.53L902.46,384.14L932.88,384.89L943.02,384.93L1014,385" style="vector-effect: none; fill: none; stroke: rgb(240, 173, 78); stroke-opacity: 1; stroke-width: 2px; opacity: 1;"/></g><g class="points"/><g class="text"/></g><g class="trace scatter traceef5cd0" style="stroke-miterlimit: 2; opacity: 1;"><g class="fills"/><g class="errorbars"/><g class="lines"><path class="js-line" d="M0,384.99L223.08,384.39L233.22,384.11L243.36,383.75L253.5,382.56L263.64,381.1L273.78,378.46L283.92,376.66L294.06,376.48L314.34,371.86L324.48,366.82L334.62,362.25L344.76,360.41L365.04,354.58L375.18,354.36L385.32,356.42L395.46,357.6L405.6,355.72L415.74,352.76L425.88,346.62L436.02,330.16L446.16,311.03L456.3,281.78L466.44,257.73L476.58,243.17L486.72,226.3L496.86,225.96L507,238.28L517.14,242.44L527.28,222.35L537.42,211.95L547.56,220.65L557.7,225.37L567.84,209.96L577.98,222.87L588.12,244.3L598.26,240.19L608.4,248.47L618.54,261.83L628.68,280.51L638.82,300.97L648.96,314.4L659.1,313.47L669.24,316.16L679.38,316.65L699.66,321.08L709.8,311.38L719.94,309.3L730.08,304.41L740.22,305.21L750.36,315.43L760.5,326.32L770.64,335.27L780.78,334.53L790.92,337.85L801.06,350.92L811.2,357.59L821.34,350.79L831.48,346.27L841.62,348.84L851.76,346L861.9,346.12L872.04,359.47L882.18,371.02L892.32,378.5L902.46,382.65L912.6,383.67L943.02,384.59L953.16,384.71L1014,384.94" style="vector-effect: none; fill: none; stroke: rgb(240, 173, 78); stroke-opacity: 1; stroke-width: 2px; opacity: 1;"/></g><g class="points"/><g class="text"/></g><g class="trace scatter tracea374f4" style="stroke-miterlimit: 2; opacity: 1;"><g class="fills"/><g class="errorbars"/><g class="lines"><path class="js-line" d="M0,384.1L30.42,384.82L40.56,384.81L192.66,384.18L202.8,384.05L233.22,383.03L243.36,382.26L253.5,381.22L263.64,379.37L273.78,376.11L283.92,373.93L294.06,372.31L304.2,368L324.48,359.08L334.62,353.01L375.18,322.06L385.32,315.97L415.74,297.67L425.88,291L436.02,282.49L446.16,265.46L456.3,253.09L466.44,250.46L476.58,245.33L486.72,232.12L496.86,223.69L507,229.31L517.14,231.34L527.28,230.11L537.42,235.15L547.56,246.56L557.7,253.85L567.84,255.35L577.98,261.04L588.12,259.87L598.26,256.09L608.4,264.95L618.54,271.97L628.68,282.64L648.96,319.33L659.1,335.44L669.24,340.35L679.38,338.12L689.52,340.11L699.66,348.33L730.08,362.25L740.22,364.62L750.36,361.32L760.5,353.76L770.64,350.15L780.78,355.74L790.92,363.62L801.06,367.04L811.2,368.06L821.34,368L831.48,363.72L841.62,363.68L851.76,369.2L861.9,372L892.32,381.17L902.46,382.18L932.88,384.59L943.02,384.74L1014,384.98" style="vector-effect: none; fill: none; stroke: rgb(240, 173, 78); stroke-opacity: 1; stroke-width: 2px; opacity: 1;"/></g><g class="points"/><g class="text"/></g><g class="trace scatter trace587729" style="stroke-miterlimit: 2; opacity: 1;"><g class="fills"/><g class="errorbars"/><g class="lines"><path class="js-line" d="M0,384.59L81.12,384.8L91.26,384.79L202.8,384.02L212.94,383.69L243.36,381.76L253.5,380.39L263.64,378.48L273.78,375.21L283.92,372.28L294.06,370.46L304.2,367.17L314.34,362.79L344.76,342.79L354.9,334.45L375.18,320.92L385.32,315.28L395.46,309.72L405.6,303.12L456.3,266.81L466.44,255.12L476.58,234.31L486.72,223.97L496.86,230.41L507,235.25L517.14,238.95L527.28,240.27L537.42,240.63L547.56,247.34L557.7,250.94L567.84,250.52L608.4,271.17L618.54,270.04L628.68,277.43L638.82,292.47L648.96,307.42L659.1,325.08L669.24,332.17L679.38,334.08L689.52,337.67L699.66,342.51L719.94,354.34L730.08,356.8L740.22,356.2L750.36,356.92L760.5,357.61L770.64,359.54L790.92,361.69L801.06,365.6L811.2,368.15L821.34,367.88L831.48,364.75L841.62,363.63L851.76,366.5L861.9,368.26L872.04,370.61L882.18,375.35L892.32,379.14L902.46,380.7L922.74,383.26L932.88,383.9L983.58,384.75L993.72,384.83L1014,384.92" style="vector-effect: none; fill: none; stroke: rgb(240, 173, 78); stroke-opacity: 1; stroke-width: 2px; opacity: 1;"/></g><g class="points"/><g class="text"/></g><g class="trace scatter traceb93d44" style="stroke-miterlimit: 2; opacity: 1;"><g class="fills"/><g class="errorbars"/><g class="lines"><path class="js-line" d="M0,382.65L20.28,384.75L30.42,384.76L212.94,383.95L223.08,383.47L243.36,381.65L253.5,380.28L273.78,375.97L283.92,373.54L304.2,367.65L314.34,364.34L365.04,347.52L375.18,344.99L395.46,342.18L405.6,341.06L425.88,339.22L436.02,338.67L456.3,335.74L466.44,334.93L476.58,330.42L486.72,320.18L496.86,299.41L507,308.63L517.14,335.87L527.28,340.42L537.42,344.18L547.56,348.99L567.84,355.28L577.98,358.15L588.12,360.42L598.26,361.91L618.54,363.38L628.68,365.25L648.96,370.03L659.1,372.85L669.24,373.28L679.38,372.18L709.8,369.56L719.94,366.89L730.08,361.19L740.22,347.83L750.36,331.09L760.5,316.27L770.64,304.96L780.78,285.96L790.92,245.86L801.06,198.11L811.2,172.7L821.34,165.14L831.48,87.09L841.62,54.43L851.76,69.85L861.9,23.8L872.04,39.94L882.18,146.94L892.32,225.33L902.46,248.94L922.74,339.94L932.88,360.22L943.02,367.94L953.16,371.66L993.72,383.86L1003.86,384.58L1014,384.79" style="vector-effect: none; fill: none; stroke: rgb(217, 83, 79); stroke-opacity: 1; stroke-width: 2px; opacity: 1;"/></g><g class="points"/><g class="text"/></g><g class="trace scatter tracee4060f" style="stroke-miterlimit: 2; opacity: 1;"><g class="fills"/><g class="errorbars"/><g class="lines"><path class="js-line" d="M0,384.26L50.7,384.54L60.84,384.6L192.66,384.23L202.8,383.97L233.22,382.07L243.36,380.85L263.64,377.36L273.78,374.8L304.2,366.68L314.34,363.48L354.9,350L365.04,347.16L385.32,343.72L395.46,342.57L425.88,339.38L436.02,338.97L456.3,336.55L466.44,333.54L476.58,301.7L486.72,277.7L496.86,307.51L507,334.24L517.14,338.87L527.28,342.42L567.84,354.6L577.98,357.07L598.26,361.85L608.4,363.1L628.68,364.72L638.82,366.24L659.1,370.96L669.24,371.6L709.8,369.5L719.94,368.09L730.08,362.35L740.22,347.9L750.36,331.7L760.5,317.78L770.64,305.79L780.78,286.88L790.92,250.54L801.06,205.11L811.2,183.62L821.34,184.11L831.48,105.38L841.62,55.72L851.76,67.18L861.9,19.25L872.04,24.27L882.18,133.63L892.32,216.84L902.46,241.72L922.74,332.84L932.88,355.62L943.02,364.65L953.16,369.06L983.58,379.82L993.72,382.66L1014,384.17" style="vector-effect: none; fill: none; stroke: rgb(217, 83, 79); stroke-opacity: 1; stroke-width: 2px; opacity: 1;"/></g><g class="points"/><g class="text"/></g><g class="trace scatter trace3992dc" style="stroke-miterlimit: 2; opacity: 1;"><g class="fills"/><g class="errorbars"/><g class="lines"><path class="js-line" d="M0,383.96L30.42,384.8L40.56,384.79L172.38,384.02L182.52,383.67L233.22,382.48L243.36,381.5L253.5,380.03L263.64,377.53L294.06,366.08L304.2,359.37L324.48,344.92L334.62,335.93L354.9,315.56L365.04,306.62L375.18,298.74L385.32,292.54L436.02,267.72L446.16,262.86L456.3,258.95L466.44,256.3L476.58,250.09L486.72,235.77L496.86,206.92L507,220.13L517.14,255.81L527.28,258.14L537.42,264.72L547.56,276.26L567.84,291.14L577.98,295.69L588.12,296.06L598.26,289.69L608.4,285.88L618.54,283.24L628.68,288.9L638.82,301.97L648.96,319.78L659.1,347.77L669.24,363.06L679.38,365.71L689.52,366.81L699.66,369.64L709.8,372.34L719.94,372.94L740.22,376.95L750.36,376.17L760.5,374.91L770.64,374.79L790.92,374.48L801.06,374.33L811.2,372.78L821.34,370.23L831.48,364.08L841.62,363.9L851.76,368.08L861.9,370.21L882.18,379.69L892.32,381.74L902.46,382.06L912.6,383.14L932.88,384.72L943.02,384.86L1014,384.99" style="vector-effect: none; fill: none; stroke: rgb(240, 173, 78); stroke-opacity: 1; stroke-width: 2px; opacity: 1;"/></g><g class="points"/><g class="text"/></g><g class="trace scatter trace2aab4b" style="stroke-miterlimit: 2; opacity: 1;"><g class="fills"/><g class="errorbars"/><g class="lines"><path class="js-line" d="M0,384.61L60.84,384.72L70.98,384.69L192.66,383.96L202.8,383.71L233.22,381.95L243.36,380.78L253.5,378.82L263.64,376L283.92,366.9L294.06,363.32L304.2,357.23L314.34,350.02L334.62,331.32L344.76,322.11L354.9,312.92L365.04,305.23L375.18,298.56L385.32,293.12L425.88,270.74L436.02,267.46L446.16,264.55L456.3,260.43L466.44,254.61L476.58,211.19L486.72,179.7L496.86,221L507,258.11L517.14,265.46L537.42,273.99L547.56,280.02L567.84,290.12L577.98,291.97L598.26,296.5L608.4,293.51L618.54,290.24L628.68,292.26L638.82,295.18L648.96,308.45L659.1,336.22L669.24,354.05L679.38,359.82L689.52,362.6L709.8,369.38L719.94,371.31L740.22,374.15L750.36,373.75L760.5,372.82L770.64,373.55L790.92,372.94L801.06,374.04L811.2,373.51L821.34,371.08L831.48,364.57L841.62,363.16L851.76,367.22L861.9,369.39L872.04,373.03L882.18,377.9L892.32,380.74L902.46,381.51L932.88,384.48L943.02,384.68L1014,384.96" style="vector-effect: none; fill: none; stroke: rgb(240, 173, 78); stroke-opacity: 1; stroke-width: 2px; opacity: 1;"/></g><g class="points"/><g class="text"/></g><g class="trace scatter tracee1238f" style="stroke-miterlimit: 2; opacity: 1;"><g class="fills"/><g class="errorbars"/><g class="lines"><path class="js-line" d="M0,383.64L30.42,384.79L40.56,384.76L172.38,384.28L182.52,383.96L212.94,382.44L223.08,381.27L243.36,377.06L253.5,373.87L273.78,364.81L283.92,359.45L294.06,353.33L304.2,346.3L334.62,323.67L344.76,315.18L365.04,297.29L375.18,288.02L395.46,273.55L405.6,267.48L415.74,262.23L425.88,258.1L436.02,254.78L446.16,250.45L456.3,246.79L466.44,245.2L476.58,243.7L486.72,243.22L496.86,246.28L507,251L517.14,254.63L527.28,255.46L537.42,262.8L547.56,275.97L567.84,293.87L577.98,301.89L588.12,306.8L598.26,305.47L608.4,303.51L618.54,302.36L628.68,308.89L638.82,320.3L648.96,335.65L659.1,357.19L669.24,368.28L679.38,370.78L709.8,376.43L719.94,377.13L740.22,380.21L750.36,380.36L770.64,380.75L780.78,380.97L801.06,380.73L811.2,379.96L821.34,378.52L831.48,375.67L841.62,376.25L851.76,378.55L861.9,379.3L872.04,381.27L882.18,383.16L892.32,384.07L963.3,384.98L973.44,384.98L1014,385" style="vector-effect: none; fill: none; stroke: rgb(92, 184, 92); stroke-opacity: 1; stroke-width: 2px; opacity: 1;"/></g><g class="points"/><g class="text"/></g><g class="trace scatter trace0703fd" style="stroke-miterlimit: 2; opacity: 1;"><g class="fills"/><g class="errorbars"/><g class="lines"><path class="js-line" d="M0,384.53L70.98,384.66L81.12,384.67L162.24,384.12L172.38,383.85L202.8,382.19L212.94,381.02L233.22,377.06L243.36,374.03L263.64,365.72L273.78,360.42L294.06,348.67L304.2,341.85L324.48,327.08L334.62,319L375.18,286.46L385.32,280.01L405.6,267.66L415.74,262.24L425.88,257.61L436.02,255.23L456.3,249.78L466.44,248.79L486.72,249.08L496.86,252.11L517.14,262.02L527.28,267.64L537.42,273.54L547.56,280.69L567.84,294.55L577.98,298.74L598.26,307.34L608.4,308.48L618.54,307.81L628.68,311.33L638.82,315.34L648.96,326.11L659.1,346.35L669.24,358.42L679.38,363.43L689.52,366.18L709.8,372.39L719.94,374.28L740.22,377.23L750.36,377.66L790.92,378.97L801.06,379.66L811.2,379.76L821.34,378.92L831.48,376.18L841.62,375.89L851.76,378.03L861.9,378.84L892.32,383.55L902.46,383.92L943.02,384.84L953.16,384.88L1014,384.96" style="vector-effect: none; fill: none; stroke: rgb(92, 184, 92); stroke-opacity: 1; stroke-width: 2px; opacity: 1;"/></g><g class="points"/><g class="text"/></g><g class="trace scatter trace8de553" style="stroke-miterlimit: 2; opacity: 1;"><g class="fills"/><g class="errorbars"/><g class="lines"><path class="js-line" d="M0,382.55L20.28,384.75L30.42,384.76L182.52,384.15L192.66,383.8L212.94,382.66L223.08,381.52L243.36,377.3L253.5,374L263.64,369.33L273.78,363.34L294.06,350.73L304.2,342.36L334.62,317.64L344.76,308.52L365.04,292.02L375.18,284.75L385.32,279.25L395.46,274.86L415.74,267.07L425.88,263.88L456.3,256.55L466.44,256.15L476.58,255.48L486.72,255.62L496.86,259.82L507,265.85L527.28,275.63L537.42,283.26L547.56,293.35L557.7,302.17L577.98,318.54L588.12,325.06L608.4,332.94L618.54,337.85L638.82,350.82L648.96,358.1L659.1,367.53L669.24,373.02L689.52,376.02L699.66,377.28L740.22,379.64L750.36,378.91L760.5,377.83L770.64,377.78L780.78,377.03L790.92,375.41L811.2,371.43L821.34,368.12L831.48,359.84L841.62,359.75L851.76,364.97L861.9,365.11L872.04,367.54L882.18,372.46L892.32,377.39L902.46,379.68L922.74,383.97L932.88,384.59L1003.86,384.99L1014,384.99" style="vector-effect: none; fill: none; stroke: rgb(240, 173, 78); stroke-opacity: 1; stroke-width: 2px; opacity: 1;"/></g><g class="points"/><g class="text"/></g><g class="trace scatter trace570f27" style="stroke-miterlimit: 2; opacity: 1;"><g class="fills"/><g class="errorbars"/><g class="lines"><path class="js-line" d="M0,384.15L40.56,384.43L50.7,384.47L152.1,384.15L162.24,384.02L192.66,383.03L202.8,382.32L223.08,379.75L233.22,377.51L243.36,374.51L253.5,370.5L263.64,365.33L273.78,358.54L304.2,337.7L314.34,329.71L344.76,304.93L354.9,297.2L365.04,290.45L375.18,284.88L405.6,272.15L415.74,268.35L425.88,265.24L436.02,263.63L456.3,260.25L466.44,260.3L486.72,260.87L496.86,264.98L517.14,275.84L527.28,282.23L537.42,288.61L547.56,296.05L567.84,311.06L577.98,317.66L598.26,330.12L608.4,334.63L618.54,337.98L628.68,342.37L638.82,346.64L648.96,352.8L659.1,362.3L669.24,368.25L679.38,371.07L689.52,373.07L709.8,376.25L719.94,377.07L740.22,377.82L750.36,377.32L760.5,376.64L770.64,376.85L811.2,373.09L821.34,370.35L831.48,361.49L841.62,358.87L851.76,363.23L861.9,362.44L872.04,364L882.18,371.27L892.32,377.09L902.46,379.15L922.74,383.3L932.88,384.12L983.58,384.78L993.72,384.87L1014,384.94" style="vector-effect: none; fill: none; stroke: rgb(240, 173, 78); stroke-opacity: 1; stroke-width: 2px; opacity: 1;"/></g><g class="points"/><g class="text"/></g><g class="trace scatter trace6f41e0" style="stroke-miterlimit: 2; opacity: 1;"><g class="fills"/><g class="errorbars"/><g class="lines"><path class="js-line" d="M0,383.98L30.42,384.84L40.56,384.83L192.66,384.41L202.8,384.18L233.22,382.39L243.36,381.14L263.64,377.1L273.78,374.04L294.06,367.21L304.2,362.69L344.76,343.47L354.9,338.71L385.32,325.81L395.46,322.6L425.88,312.38L436.02,305.08L456.3,280.99L466.44,266.65L476.58,252.07L486.72,248.45L496.86,256.58L507,266.21L517.14,259.82L527.28,255.33L537.42,258.25L547.56,263.78L557.7,269.55L567.84,264.6L577.98,272.48L588.12,284.76L598.26,283.06L608.4,287.53L618.54,290L628.68,300.18L638.82,314.91L648.96,320.98L659.1,331.27L669.24,336.48L679.38,330.84L689.52,328.8L699.66,333.94L709.8,334.2L719.94,336.59L730.08,333.02L740.22,333.48L750.36,345.02L760.5,350.58L770.64,345.08L780.78,342.96L790.92,351.8L801.06,357.44L811.2,353.31L821.34,344.66L831.48,344.72L841.62,346.18L851.76,353.05L861.9,363.35L872.04,367.99L882.18,375.51L892.32,381.24L912.6,383.63L922.74,384.47L953.16,384.9L963.3,384.93L1014,385" style="vector-effect: none; fill: none; stroke: rgb(217, 83, 79); stroke-opacity: 1; stroke-width: 2px; opacity: 1;"/></g><g class="points"/><g class="text"/></g><g class="trace scatter trace2e3939" style="stroke-miterlimit: 2; opacity: 1;"><g class="fills"/><g class="errorbars"/><g class="lines"><path class="js-line" d="M0,384.63L81.12,384.79L91.26,384.82L192.66,384.17L202.8,383.81L223.08,382.58L233.22,381.45L253.5,377.84L263.64,375.11L304.2,360.01L314.34,355.33L354.9,336.66L365.04,332.52L385.32,325.59L395.46,322.64L415.74,316.5L425.88,312.87L436.02,305.68L446.16,297.21L456.3,284.45L466.44,269.36L476.58,253.3L486.72,242.42L496.86,249.21L507,262.91L517.14,267.09L527.28,258.54L537.42,250.78L547.56,255.31L557.7,265.92L567.84,267.52L577.98,277.89L588.12,290.24L598.26,295.69L608.4,303.56L618.54,304.91L628.68,310.73L638.82,322.46L648.96,332.31L659.1,336.23L669.24,336.17L679.38,331.23L689.52,332.4L699.66,336.5L709.8,332.13L719.94,332.96L730.08,330.47L740.22,329.76L750.36,334.04L760.5,339.75L770.64,346.89L780.78,345.64L790.92,346.77L801.06,355.23L811.2,358.38L821.34,351.13L831.48,341.25L841.62,339.73L851.76,341.38L861.9,342.66L872.04,353.04L882.18,367.25L892.32,376.99L902.46,380.9L912.6,382.42L932.88,384.13L943.02,384.4L1014,384.93" style="vector-effect: none; fill: none; stroke: rgb(217, 83, 79); stroke-opacity: 1; stroke-width: 2px; opacity: 1;"/></g><g class="points"/><g class="text"/></g><g class="trace scatter traced31e32" style="stroke-miterlimit: 2; opacity: 1;"><g class="fills"/><g class="errorbars"/><g class="lines"><path class="js-line" d="M0,382.58L20.28,384.78L30.42,384.8L192.66,384.09L202.8,383.8L223.08,382.55L233.22,381.39L253.5,377.68L263.64,374.69L294.06,362.81L304.2,357.38L334.62,339.83L344.76,332.77L375.18,311.1L385.32,305.29L415.74,289.54L425.88,285.36L436.02,282.55L446.16,275.48L466.44,259.24L476.58,260.27L486.72,265.93L496.86,267.29L517.14,274.27L527.28,273.6L537.42,278.19L547.56,290.02L557.7,298.16L567.84,304.36L577.98,310.5L588.12,313.3L598.26,310.21L608.4,309.59L618.54,306.54L628.68,306.54L638.82,313.9L648.96,331.48L659.1,356.79L669.24,367.76L679.38,370.3L689.52,371.73L709.8,375.13L719.94,375.36L740.22,378.93L750.36,378.49L770.64,378.34L780.78,377.01L811.2,374.28L821.34,372.63L831.48,368L841.62,367.62L851.76,371.34L861.9,373.33L882.18,380.88L892.32,382.56L912.6,383.6L922.74,384.53L953.16,384.96L963.3,384.97L1014,385" style="vector-effect: none; fill: none; stroke: rgb(240, 173, 78); stroke-opacity: 1; stroke-width: 2px; opacity: 1;"/></g><g class="points"/><g class="text"/></g><g class="trace scatter trace0f90b0" style="stroke-miterlimit: 2; opacity: 1;"><g class="fills"/><g class="errorbars"/><g class="lines"><path class="js-line" d="M0,384.4L40.56,384.5L50.7,384.51L162.24,384.42L172.38,384.27L202.8,383.1L212.94,382.3L233.22,379.62L243.36,377.52L263.64,371.27L273.78,366.69L304.2,353.33L314.34,347.78L344.76,328.64L354.9,321.88L375.18,309.9L385.32,304.99L425.88,285.98L436.02,284.07L446.16,280.62L456.3,276.13L466.44,273.59L476.58,262.67L486.72,254.51L496.86,265.11L507,275.7L517.14,280.36L527.28,284.79L537.42,288.04L547.56,293.74L557.7,300.43L567.84,304.92L577.98,306.12L588.12,307.7L598.26,310.75L618.54,308.57L628.68,312.88L638.82,318.09L648.96,329.03L659.1,348.85L669.24,360.65L679.38,364.75L689.52,366.88L699.66,369.25L709.8,372.59L740.22,376.52L750.36,376.41L760.5,376.04L770.64,376.74L790.92,375.89L801.06,377.09L811.2,377.08L821.34,374.19L831.48,367.42L841.62,365.54L851.76,368.62L861.9,369.61L872.04,373.11L882.18,378.97L892.32,381.82L902.46,382.39L932.88,384.67L943.02,384.79L1014,384.97" style="vector-effect: none; fill: none; stroke: rgb(240, 173, 78); stroke-opacity: 1; stroke-width: 2px; opacity: 1;"/></g><g class="points"/><g class="text"/></g><g class="trace scatter trace54a74c" style="stroke-miterlimit: 2; opacity: 1;"><g class="fills"/><g class="errorbars"/><g class="lines"><path class="js-line" d="M0,383.93L30.42,384.78L40.56,384.77L182.52,384.34L192.66,384.13L223.08,382.69L233.22,381.53L253.5,377.58L263.64,373.96L283.92,363.64L294.06,357.55L314.34,339.33L324.48,330L334.62,319.51L344.76,307.72L354.9,296.42L365.04,286.73L375.18,278.06L385.32,271.3L415.74,255.56L425.88,251.67L436.02,248.39L446.16,242.17L456.3,238.25L466.44,240.93L476.58,243.82L486.72,244.91L496.86,248.46L507,254.55L517.14,260.49L527.28,265.52L537.42,273.17L547.56,283.93L577.98,311.22L588.12,318.2L598.26,322.08L608.4,326.94L618.54,330.8L628.68,335.54L638.82,341.76L648.96,350.86L659.1,363.32L669.24,369.48L689.52,372.11L699.66,373.41L709.8,374.21L719.94,373.99L740.22,374.53L750.36,372.49L760.5,370.91L770.64,370.8L780.78,370.02L790.92,367.59L801.06,363.2L811.2,360.13L821.34,358.84L831.48,352.41L841.62,349.88L851.76,352.91L861.9,355.31L872.04,363.5L882.18,373.17L892.32,377L902.46,377.44L912.6,379.98L922.74,382.92L932.88,384.15L963.3,384.85L973.44,384.89L1014,384.98" style="vector-effect: none; fill: none; stroke: rgb(217, 83, 79); stroke-opacity: 1; stroke-width: 2px; opacity: 1;"/></g><g class="points"/><g class="text"/></g><g class="trace scatter trace627ce7" style="stroke-miterlimit: 2; opacity: 1;"><g class="fills"/><g class="errorbars"/><g class="lines"><path class="js-line" d="M0,384.73L111.54,384.65L121.68,384.61L192.66,383.61L202.8,383.19L223.08,381.5L233.22,380.01L243.36,377.99L253.5,375.07L263.64,370.96L273.78,365.07L294.06,352.4L304.2,344.11L314.34,334.57L324.48,323.86L354.9,292.01L365.04,283.47L375.18,276.53L385.32,270.81L415.74,256.52L425.88,252.48L436.02,249.56L446.16,247.49L456.3,246.13L466.44,246.44L476.58,245.63L486.72,245.65L496.86,251.61L507,258.67L527.28,272.2L537.42,279.05L567.84,303.38L577.98,310.09L598.26,323.23L608.4,327.12L618.54,330.35L628.68,335.92L638.82,342.45L648.96,349.96L659.1,359.3L669.24,365.45L679.38,367.97L689.52,369.7L709.8,372.73L719.94,373.59L740.22,373.11L750.36,371.35L760.5,369.83L770.64,369.69L790.92,364.8L801.06,362.64L821.34,360.79L831.48,352.27L841.62,348.6L851.76,352.42L861.9,354.8L872.04,361.77L882.18,371.37L892.32,375.95L902.46,376.92L912.6,379.61L922.74,382.58L932.88,383.9L963.3,384.76L973.44,384.82L1014,384.95" style="vector-effect: none; fill: none; stroke: rgb(217, 83, 79); stroke-opacity: 1; stroke-width: 2px; opacity: 1;"/></g><g class="points"/><g class="text"/></g><g class="trace scatter trace3ad580" style="stroke-miterlimit: 2; opacity: 1;"><g class="fills"/><g class="errorbars"/><g class="lines"><path class="js-line" d="M0,381.61L20.28,384.64L30.42,384.68L192.66,384.16L202.8,383.93L223.08,383.11L233.22,382.3L253.5,379.69L263.64,377.49L283.92,371.02L294.06,366.91L304.2,361.08L314.34,354.08L324.48,346.26L334.62,337.14L375.18,294.9L385.32,285.81L395.46,277.62L405.6,270.79L415.74,264.53L425.88,259.64L436.02,255.55L446.16,243.18L456.3,234.59L466.44,241.6L476.58,247.49L486.72,247.42L496.86,249.64L507,254.66L517.14,259.57L527.28,262.56L537.42,269.4L547.56,280.29L567.84,296.62L577.98,303.93L588.12,308.47L598.26,309.38L618.54,316.84L628.68,322.18L638.82,329.02L648.96,340.89L659.1,358.52L669.24,367.4L679.38,369.86L689.52,371.51L709.8,375.14L719.94,375.94L730.08,376.68L740.22,376.58L750.36,374.95L760.5,371.47L780.78,369.53L790.92,365.56L801.06,360.54L811.2,357.13L821.34,352.07L831.48,331.88L841.62,323.33L851.76,327.17L861.9,326.64L872.04,337.02L882.18,352.9L892.32,362.96L902.46,366.25L912.6,372.99L922.74,380.66L932.88,383.6L953.16,384.5L963.3,384.63L1014,384.97" style="vector-effect: none; fill: none; stroke: rgb(217, 83, 79); stroke-opacity: 1; stroke-width: 2px; opacity: 1;"/></g><g class="points"/><g class="text"/></g><g class="trace scatter trace94f755" style="stroke-miterlimit: 2; opacity: 1;"><g class="fills"/><g class="errorbars"/><g class="lines"><path class="js-line" d="M0,384.07L30.42,384.31L40.56,384.23L131.82,384.53L141.96,384.48L202.8,383.5L212.94,383.02L233.22,381.4L243.36,380.11L263.64,375.86L273.78,372.46L294.06,364.2L304.2,358.41L314.34,351.13L324.48,342.33L344.76,322.62L354.9,311.84L375.18,292.21L385.32,284.26L405.6,270.76L415.74,265.04L425.88,260.67L436.02,258.08L456.3,251.66L466.44,250.31L476.58,243.24L486.72,238.14L496.86,247.23L507,257.67L527.28,269.71L537.42,275.35L557.7,290.24L567.84,296.5L598.26,311.87L608.4,313.89L618.54,315.55L628.68,321.14L638.82,328.12L648.96,337.87L659.1,352.3L669.24,361.67L679.38,365.82L689.52,368.44L719.94,374.42L730.08,374.98L760.5,372.17L770.64,371.43L780.78,368.74L790.92,364.73L811.2,357.56L821.34,351.68L831.48,331.47L841.62,321.01L851.76,326.09L861.9,324.72L872.04,332.85L882.18,352.48L892.32,363.76L902.46,366.18L912.6,372.45L922.74,379.86L932.88,383L943.02,383.87L993.72,384.84L1003.86,384.91L1014,384.92" style="vector-effect: none; fill: none; stroke: rgb(217, 83, 79); stroke-opacity: 1; stroke-width: 2px; opacity: 1;"/></g><g class="points"/><g class="text"/></g></g></g></g><g class="zerolinelayer-above"/><path class="xlines-above crisp" d="M0,0" style="fill: none;"/><path class="ylines-above crisp" d="M0,0" style="fill: none;"/><g class="overlines-above"/><g class="xaxislayer-above"><g class="xtick"><text text-anchor="middle" x="0" y="451" transform="translate(60,0)" style="font-family: 'Lucida Grande', 'Open Sans', verdana, arial, sans-serif; font-size: 10px; fill: rgb(0, 0, 0); fill-opacity: 1; white-space: pre;">0%</text></g><g class="xtick"><text text-anchor="middle" x="0" y="451" style="font-family: 'Lucida Grande', 'Open Sans', verdana, arial, sans-serif; font-size: 10px; fill: rgb(0, 0, 0); fill-opacity: 1; white-space: pre;" transform="translate(262.8,0)">20%</text></g><g class="xtick"><text text-anchor="middle" x="0" y="451" style="font-family: 'Lucida Grande', 'Open Sans', verdana, arial, sans-serif; font-size: 10px; fill: rgb(0, 0, 0); fill-opacity: 1; white-space: pre;" transform="translate(465.6,0)">40%</text></g><g class="xtick"><text text-anchor="middle" x="0" y="451" style="font-family: 'Lucida Grande', 'Open Sans', verdana, arial, sans-serif; font-size: 10px; fill: rgb(0, 0, 0); fill-opacity: 1; white-space: pre;" transform="translate(668.4,0)">60%</text></g><g class="xtick"><text text-anchor="middle" x="0" y="451" style="font-family: 'Lucida Grande', 'Open Sans', verdana, arial, sans-serif; font-size: 10px; fill: rgb(0, 0, 0); fill-opacity: 1; white-space: pre;" transform="translate(871.2,0)">80%</text></g><g class="xtick"><text text-anchor="middle" x="0" y="451" style="font-family: 'Lucida Grande', 'Open Sans', verdana, arial, sans-serif; font-size: 10px; fill: rgb(0, 0, 0); fill-opacity: 1; white-space: pre;" transform="translate(1074,0)">100%</text></g></g><g class="yaxislayer-above"><g class="ytick"><text text-anchor="end" x="54" y="3.5" transform="translate(0,435)" style="font-family: 'Lucida Grande', 'Open Sans', verdana, arial, sans-serif; font-size: 10px; fill: rgb(0, 0, 0); fill-opacity: 1; white-space: pre;">0</text></g><g class="ytick"><text text-anchor="end" x="54" y="3.5" style="font-family: 'Lucida Grande', 'Open Sans', verdana, arial, sans-serif; font-size: 10px; fill: rgb(0, 0, 0); fill-opacity: 1; white-space: pre;" transform="translate(0,353.65)">0.5M</text></g><g class="ytick"><text text-anchor="end" x="54" y="3.5" style="font-family: 'Lucida Grande', 'Open Sans', verdana, arial, sans-serif; font-size: 10px; fill: rgb(0, 0, 0); fill-opacity: 1; white-space: pre;" transform="translate(0,272.31)">1M</text></g><g class="ytick"><text text-anchor="end" x="54" y="3.5" style="font-family: 'Lucida Grande', 'Open Sans', verdana, arial, sans-serif; font-size: 10px; fill: rgb(0, 0, 0); fill-opacity: 1; white-space: pre;" transform="translate(0,190.96)">1.5M</text></g><g class="ytick"><text text-anchor="end" x="54" y="3.5" style="font-family: 'Lucida Grande', 'Open Sans', verdana, arial, sans-serif; font-size: 10px; fill: rgb(0, 0, 0); fill-opacity: 1; white-space: pre;" transform="translate(0,109.61)">2M</text></g></g><g class="overaxes-above"/></g></g><g class="polarlayer"/><g class="smithlayer"/><g class="ternarylayer"/><g class="geolayer"/><g class="funnelarealayer"/><g class="pielayer"/><g class="iciclelayer"/><g class="treemaplayer"/><g class="sunburstlayer"/><g class="glimages"/><defs id="topdefs-a65002"><g class="clips"/></defs><g class="layer-above"><g class="imagelayer"/><g class="shapelayer"/></g><g class="infolayer"><g class="g-gtitle"><text class="gtitle" x="550" y="25" text-anchor="middle" dy="0em" style="opacity: 1; font-family: 'Lucida Grande', 'Open Sans', verdana, arial, sans-serif; font-size: 20px; fill: rgb(68, 68, 68); fill-opacity: 1; white-space: pre;"><tspan class="line" dy="0em" x="550" y="25">FastQC: Per Sequence GC Content</tspan><tspan class="line" dy="1.3em" x="550" y="25">​<tspan style="font-size:70%" dy="-0.6em">Counts, 32 lines</tspan><tspan dy="0.42em">​</tspan></tspan></text></g><g class="g-xtitle"><text class="xtitle" x="567" y="487" text-anchor="middle" style="opacity: 0.3; font-family: 'Lucida Grande', 'Open Sans', verdana, arial, sans-serif; font-size: 14px; fill: rgb(0, 0, 0); fill-opacity: 1; white-space: pre;">% GC</text></g><g class="g-ytitle"><text class="ytitle" transform="rotate(-90,22,242.5)" x="22" y="242.5" text-anchor="middle" style="opacity: 0.3; font-family: 'Lucida Grande', 'Open Sans', verdana, arial, sans-serif; font-size: 14px; fill: rgb(0, 0, 0); fill-opacity: 1; white-space: pre;">Count</text></g></g></svg>