<svg class="main-svg" xmlns="http://www.w3.org/2000/svg" xmlns:xlink="http://www.w3.org/1999/xlink" width="2200" height="1000" style="" viewBox="0 0 1100 500"><rect x="0" y="0" width="1100" height="500" style="fill: rgb(255, 255, 255); fill-opacity: 1;"/><defs id="defs-6f5212"><g class="clips"><clipPath id="clip6f5212xyplot" class="plotclip"><rect width="1014" height="385"/></clipPath><clipPath class="axesclip" id="clip6f5212x"><rect x="60" y="0" width="1014" height="500"/></clipPath><clipPath class="axesclip" id="clip6f5212y"><rect x="0" y="50" width="1100" height="385"/></clipPath><clipPath class="axesclip" id="clip6f5212xy"><rect x="60" y="50" width="1014" height="385"/></clipPath></g><g class="gradients"/><g class="patterns"/></defs><g class="bglayer"/><g class="layer-below"><g class="imagelayer"/><g class="shapelayer"/></g><g class="cartesianlayer"><g class="subplot xy"><g class="layer-subplot"><g class="shapelayer"/><g class="imagelayer"/></g><g class="minor-gridlayer"><g class="x"/><g class="y"/></g><g class="gridlayer"><g class="x"><path class="xgrid crisp" transform="translate(262.8,0)" d="M0,50v385" style="stroke: rgb(0, 0, 0); stroke-opacity: 0.05; stroke-width: 1px;"/><path class="xgrid crisp" transform="translate(465.6,0)" d="M0,50v385" style="stroke: rgb(0, 0, 0); stroke-opacity: 0.05; stroke-width: 1px;"/><path class="xgrid crisp" transform="translate(668.4,0)" d="M0,50v385" style="stroke: rgb(0, 0, 0); stroke-opacity: 0.05; stroke-width: 1px;"/><path class="xgrid crisp" transform="translate(871.2,0)" d="M0,50v385" style="stroke: rgb(0, 0, 0); stroke-opacity: 0.05; stroke-width: 1px;"/></g><g class="y"><path class="ygrid crisp" transform="translate(0,390.27)" d="M60,0h1014" style="stroke: rgb(0, 0, 0); stroke-opacity: 0.05; stroke-width: 1px;"/><path class="ygrid crisp" transform="translate(0,345.54)" d="M60,0h1014" style="stroke: rgb(0, 0, 0); stroke-opacity: 0.05; stroke-width: 1px;"/><path class="ygrid crisp" transform="translate(0,300.81)" d="M60,0h1014" style="stroke: rgb(0, 0, 0); stroke-opacity: 0.05; stroke-width: 1px;"/><path class="ygrid crisp" transform="translate(0,256.08000000000004)" d="M60,0h1014" style="stroke: rgb(0, 0, 0); stroke-opacity: 0.05; stroke-width: 1px;"/><path class="ygrid crisp" transform="translate(0,211.35)" d="M60,0h1014" style="stroke: rgb(0, 0, 0); stroke-opacity: 0.05; stroke-width: 1px;"/><path class="ygrid crisp" transform="translate(0,166.62)" d="M60,0h1014" style="stroke: rgb(0, 0, 0); stroke-opacity: 0.05; stroke-width: 1px;"/><path class="ygrid crisp" transform="translate(0,121.89)" d="M60,0h1014" style="stroke: rgb(0, 0, 0); stroke-opacity: 0.05; stroke-width: 1px;"/><path class="ygrid crisp" transform="translate(0,77.16)" d="M60,0h1014" style="stroke: rgb(0, 0, 0); stroke-opacity: 0.05; stroke-width: 1px;"/></g></g><g class="zerolinelayer"><path class="xzl zl crisp" transform="translate(60,0)" d="M0,50v385" style="stroke: rgb(0, 0, 0); stroke-opacity: 0.05; stroke-width: 1px;"/><path class="yzl zl crisp" transform="translate(0,435)" d="M60,0h1014" style="stroke: rgb(0, 0, 0); stroke-opacity: 0.05; stroke-width: 1px;"/></g><g class="layer-between"><g class="shapelayer"/><g class="imagelayer"/></g><path class="xlines-below"/><path class="ylines-below"/><g class="overlines-below"/><g class="xaxislayer-below"/><g class="yaxislayer-below"/><g class="overaxes-below"/><g class="overplot"><g class="xy" transform="translate(60,50)" clip-path="url(#clip6f5212xyplot)"><g class="scatterlayer mlayer"><g class="trace scatter traced7f1ac" style="stroke-miterlimit: 2; opacity: 1;"><g class="fills"/><g class="errorbars"/><g class="lines"><path class="js-line" d="M0,261.48L20.28,240.22L30.42,230.4L50.7,210.24L60.84,199.98L70.98,189.43L81.12,181.2L91.26,173.67L101.4,167.2L111.54,157.19L121.68,152.95L141.96,144.68L152.1,141.59L162.24,140.37L172.38,137.33L192.66,135.18L202.8,133.29L212.94,132.23L223.08,130.24L273.78,120.89L283.92,120.66L304.2,120.33L314.34,119.05L344.76,118.06L354.9,117.97L375.18,118.2L385.32,118.96L446.16,120.61L456.3,122.69L466.44,126.3L476.58,126.81L486.72,128.55L496.86,129.26L517.14,130.11L527.28,131.57L577.98,136.45L588.12,136.71L598.26,138.06L608.4,138.17L648.96,142.03L659.1,144.2L689.52,149.14L699.66,149.71L709.8,152.23L719.94,152.6L760.5,154.67L770.64,156.45L790.92,160.07L801.06,160.77L821.34,164.28L831.48,166.41L841.62,168.53L851.76,172.02L861.9,175.49L872.04,180.73L882.18,185.49L892.32,191.36L902.46,198.69L912.6,207.61L932.88,229.5L943.02,242.25L963.3,271.32L973.44,289.15L983.58,311.78L993.72,339.62L1003.86,370.28" style="vector-effect: none; fill: none; stroke: rgb(124, 181, 236); stroke-opacity: 1; stroke-width: 2px; opacity: 1;"/></g><g class="points"/><g class="text"/></g><g class="trace scatter tracec7ef20" style="stroke-miterlimit: 2; opacity: 1;"><g class="fills"/><g class="errorbars"/><g class="lines"><path class="js-line" d="M0,260.77L20.28,238.73L30.42,228.91L60.84,199.08L70.98,189.31L91.26,174.38L101.4,167.99L111.54,156.76L121.68,151.84L141.96,142.05L152.1,138.22L162.24,136.54L172.38,132.7L212.94,127.71L223.08,126.78L253.5,123.28L263.64,120.93L294.06,120.84L304.2,120.91L324.48,119.29L334.62,119.6L344.76,120.1L354.9,119.62L375.18,120.37L385.32,122.12L405.6,123.86L415.74,124.19L436.02,122.51L446.16,122.66L456.3,124.15L466.44,126.82L476.58,127L486.72,128.68L517.14,131.52L527.28,133.59L537.42,135L547.56,137.49L608.4,142.02L618.54,141.69L648.96,144.53L659.1,146.88L709.8,151.22L719.94,151.46L730.08,151.78L740.22,152.9L760.5,154.13L770.64,155.85L790.92,160.33L801.06,161L821.34,164.2L831.48,166.22L841.62,168.43L851.76,172.21L861.9,175.51L872.04,180.13L882.18,184.34L892.32,189.54L902.46,196.54L912.6,204.97L932.88,227.65L943.02,239.95L963.3,269.19L973.44,287.49L983.58,310.5L993.72,338.73L1003.86,370.03" style="vector-effect: none; fill: none; stroke: rgb(67, 67, 72); stroke-opacity: 1; stroke-width: 2px; opacity: 1;"/></g><g class="points"/><g class="text"/></g><g class="trace scatter trace5cb99e" style="stroke-miterlimit: 2; opacity: 1;"><g class="fills"/><g class="errorbars"/><g class="lines"><path class="js-line" d="M0,338.03L10.14,312.03L20.28,291.07L40.56,236.94L50.7,217.78L60.84,200.23L70.98,186.89L91.26,205.85L101.4,227.24L111.54,228.43L121.68,216.95L131.82,210.97L141.96,195.09L162.24,172L172.38,172.85L182.52,165.37L192.66,162.38L202.8,166.2L212.94,179.2L223.08,196.38L233.22,210.38L243.36,215.83L253.5,215.46L263.64,220.33L273.78,213.49L283.92,207.13L294.06,210.19L304.2,189.08L314.34,182.42L324.48,163.82L334.62,150.72L354.9,114.42L365.04,85.83L375.18,56.18L385.32,52.99L395.46,49.25L405.6,57.05L415.74,58.19L425.88,61.3L436.02,63.42L446.16,70.77L466.44,86.95L476.58,70.74L486.72,55.28L496.86,52.17L507,49.03L517.14,66.69L527.28,84.24L537.42,92.12L547.56,114.66L557.7,120.65L567.84,126.3L577.98,127.52L588.12,123.72L598.26,110.99L608.4,119.42L618.54,101.15L628.68,78.25L638.82,83.61L648.96,85.52L659.1,97.39L669.24,102.84L679.38,113.83L689.52,122.11L699.66,111.51L709.8,113.27L719.94,122.18L730.08,124.13L740.22,129.67L750.36,120.46L760.5,119.47L780.78,140.34L790.92,145.31L801.06,125.6L811.2,100.29L831.48,30.39L841.62,19.25L851.76,44.38L861.9,67.42L872.04,123.82L882.18,208.14L902.46,268.47L912.6,286.81L922.74,301.19L932.88,334.44L943.02,329.47L953.16,337.34L963.3,344.02L973.44,356.7L983.58,369.8L993.72,375.62L1003.86,381.96" style="vector-effect: none; fill: none; stroke: rgb(144, 237, 125); stroke-opacity: 1; stroke-width: 2px; opacity: 1;"/></g><g class="points"/><g class="text"/></g><g class="trace scatter traced5ce3d" style="stroke-miterlimit: 2; opacity: 1;"><g class="fills"/><g class="errorbars"/><g class="lines"><path class="js-line" d="M0,265.93L20.28,246.78L30.42,237.58L70.98,197.2L81.12,189.39L91.26,182.12L101.4,175.79L111.54,164.81L121.68,160.24L152.1,146.55L162.24,144.4L172.38,141.16L182.52,139.92L212.94,135.54L223.08,133.84L263.64,124.91L273.78,123.83L294.06,123.13L304.2,123.07L324.48,121.23L334.62,120.81L375.18,118.57L385.32,119.58L436.02,119L446.16,120.04L466.44,124.6L476.58,124.55L486.72,126.15L496.86,126.79L517.14,127.13L527.28,128.33L577.98,134L588.12,134.38L608.4,135.59L618.54,136.36L628.68,137.83L638.82,138.54L648.96,139.19L659.1,140.78L679.38,142.82L689.52,144.17L699.66,144.41L709.8,145.87L730.08,147.02L740.22,148.04L760.5,149.71L770.64,151.66L801.06,155.61L811.2,157.32L831.48,161.84L841.62,164.35L861.9,171.63L872.04,176.89L882.18,182.06L892.32,188.37L902.46,196.38L912.6,205.78L932.88,228.72L943.02,241.82L963.3,271.72L973.44,289.95L983.58,312.85L993.72,340.15L1003.86,370.39" style="vector-effect: none; fill: none; stroke: rgb(247, 163, 92); stroke-opacity: 1; stroke-width: 2px; opacity: 1;"/></g><g class="points"/><g class="text"/></g><g class="trace scatter trace62c494" style="stroke-miterlimit: 2; opacity: 1;"><g class="fills"/><g class="errorbars"/><g class="lines"><path class="js-line" d="M0,271.08L40.56,231.1L50.7,220.7L70.98,201.52L81.12,193.07L101.4,178.49L111.54,167.19L141.96,151.41L152.1,147.25L162.24,145.21L172.38,141.33L212.94,134.26L223.08,132.98L253.5,126.79L263.64,123.61L283.92,121.04L294.06,121.65L304.2,122.1L314.34,121.05L324.48,120.37L334.62,120.59L354.9,119.2L365.04,118.12L375.18,117.37L385.32,118.68L405.6,119.99L415.74,120.19L446.16,119.07L456.3,121.9L466.44,125.45L476.58,125.88L496.86,128.83L507,129.19L517.14,130.72L527.28,133.21L547.56,137.27L557.7,137.2L567.84,137.73L577.98,137.44L588.12,137.45L598.26,138.59L648.96,141.04L659.1,143.16L689.52,145.1L699.66,144.48L709.8,145.88L719.94,146.14L750.36,146.79L760.5,147.02L780.78,150.5L790.92,152.81L801.06,153.81L811.2,155.94L831.48,159.88L841.62,162.06L861.9,168.88L872.04,174.61L882.18,179.51L892.32,185.28L902.46,191.9L912.6,200.55L922.74,210.91L932.88,222.91L953.16,249.35L963.3,264.09L973.44,282.17L983.58,305.54L993.72,335.47L1003.86,369.06" style="vector-effect: none; fill: none; stroke: rgb(128, 133, 233); stroke-opacity: 1; stroke-width: 2px; opacity: 1;"/></g><g class="points"/><g class="text"/></g><g class="trace scatter traceb12b97" style="stroke-miterlimit: 2; opacity: 1;"><g class="fills"/><g class="errorbars"/><g class="lines"><path class="js-line" d="M0,261.02L70.98,191.22L81.12,183.14L91.26,175.78L101.4,169.57L111.54,159.91L121.68,155.35L152.1,142.4L162.24,140.31L172.38,136.97L182.52,135.35L212.94,131.64L223.08,130.63L253.5,125.8L263.64,123.1L294.06,121.61L304.2,121.5L314.34,120.25L324.48,120.2L344.76,119.69L354.9,118.79L375.18,118.87L385.32,119.97L415.74,119.51L425.88,118.45L436.02,117.68L446.16,118.5L456.3,119.64L466.44,122.3L476.58,122.77L486.72,124.6L517.14,126.7L527.28,128.17L567.84,134.68L577.98,135.43L618.54,138.69L628.68,140.37L648.96,142.34L659.1,144.33L689.52,148.88L699.66,149.15L709.8,150.52L719.94,150.97L750.36,153.01L760.5,153.97L780.78,157.25L790.92,159.16L801.06,159.89L811.2,161.44L841.62,167.67L851.76,171.41L861.9,174.98L872.04,180.28L882.18,185.45L892.32,191.75L902.46,199.36L912.6,208.85L932.88,232.41L943.02,245.38L963.3,275.06L973.44,292.89L983.58,315.09L993.72,341.35L1003.86,370.59" style="vector-effect: none; fill: none; stroke: rgb(241, 92, 128); stroke-opacity: 1; stroke-width: 2px; opacity: 1;"/></g><g class="points"/><g class="text"/></g><g class="trace scatter trace21ad82" style="stroke-miterlimit: 2; opacity: 1;"><g class="fills"/><g class="errorbars"/><g class="lines"><path class="js-line" d="M0,337.69L10.14,293.46L20.28,260.3L30.42,228.52L40.56,190.47L50.7,156.5L60.84,129.75L70.98,109.1L81.12,111.2L91.26,105.94L101.4,122.91L111.54,97.9L121.68,98.09L131.82,92.47L141.96,87.85L152.1,80.7L162.24,96L172.38,123.42L182.52,135.21L192.66,131.49L202.8,130.56L223.08,134.16L233.22,142.4L243.36,129.35L253.5,120.69L263.64,110L273.78,112.47L283.92,112.26L294.06,108.01L304.2,114.59L314.34,130.64L324.48,154.85L334.62,161.59L344.76,161.17L354.9,136.68L375.18,95.79L385.32,79.44L395.46,61.68L405.6,60.77L415.74,56.74L425.88,51.62L446.16,91.57L456.3,106.22L466.44,122.48L476.58,126.73L486.72,132.72L496.86,151.98L507,153.45L517.14,132.18L527.28,123.39L537.42,119.53L547.56,123.7L557.7,134.08L567.84,126.16L577.98,122.49L598.26,126.63L608.4,129.21L618.54,124.35L628.68,132.28L638.82,154.05L648.96,171.67L659.1,182.94L669.24,189.55L679.38,177.51L689.52,170.34L709.8,154.89L719.94,141.1L730.08,135.36L740.22,142.13L750.36,146.75L760.5,153.09L780.78,161.15L790.92,172.08L801.06,180.62L811.2,170.47L821.34,162.47L831.48,149.04L841.62,146.85L851.76,152.36L861.9,158.37L872.04,179.89L882.18,215.51L892.32,239.16L902.46,263.52L912.6,299.21L922.74,319.64L932.88,336.45L943.02,338L953.16,342.72L963.3,349.74L973.44,358.52L983.58,367L993.72,374.36L1003.86,381.55" style="vector-effect: none; fill: none; stroke: rgb(228, 211, 84); stroke-opacity: 1; stroke-width: 2px; opacity: 1;"/></g><g class="points"/><g class="text"/></g><g class="trace scatter trace347f13" style="stroke-miterlimit: 2; opacity: 1;"><g class="fills"/><g class="errorbars"/><g class="lines"><path class="js-line" d="M0,274.36L20.28,249.13L30.42,236.92L40.56,223.74L50.7,211.96L70.98,190.7L81.12,185.81L91.26,181.1L101.4,178.67L111.54,170.4L121.68,164.57L131.82,159.41L141.96,152.76L152.1,147.75L162.24,145.01L182.52,140.45L192.66,139.79L202.8,139.43L212.94,141.12L223.08,143.49L233.22,144.33L243.36,144.07L253.5,142.22L283.92,136.74L294.06,137.03L314.34,131.53L324.48,127.35L334.62,124.5L344.76,120.46L354.9,117.16L365.04,112.22L375.18,108.72L385.32,109.52L405.6,113.14L415.74,113.6L425.88,114L436.02,112.97L456.3,115L466.44,118.09L476.58,116.09L486.72,115.43L507,113.91L517.14,117.22L527.28,121.08L537.42,123.42L547.56,128.68L557.7,130.75L567.84,132.9L577.98,133.7L598.26,134.48L608.4,137.48L628.68,133.16L638.82,133.51L648.96,133.19L659.1,136.43L669.24,137.18L679.38,139.88L689.52,142.7L699.66,141.89L709.8,143.02L719.94,146.05L740.22,147.69L750.36,147.23L760.5,146.91L770.64,150.12L790.92,154.01L801.06,151.16L811.2,147.28L821.34,142.35L831.48,137.24L841.62,137.8L851.76,146.12L861.9,155.89L872.04,170.51L882.18,188.73L892.32,198.64L902.46,209.95L922.74,233.8L932.88,249.34L943.02,259.73L953.16,272.26L963.3,285.21L973.44,301.57L983.58,322.87L993.72,346.34L1003.86,372.43" style="vector-effect: none; fill: none; stroke: rgb(43, 144, 143); stroke-opacity: 1; stroke-width: 2px; opacity: 1;"/></g><g class="points"/><g class="text"/></g><g class="trace scatter traceaad2e1" style="stroke-miterlimit: 2; opacity: 1;"><g class="fills"/><g class="errorbars"/><g class="lines"><path class="js-line" d="M0,279.95L20.28,260.05L30.42,248.73L40.56,234.94L50.7,224.67L60.84,216.1L70.98,209.4L101.4,185.7L111.54,171.7L121.68,165.23L131.82,156.68L152.1,146.22L162.24,142.32L172.38,138.93L182.52,136.61L202.8,136.48L212.94,135.5L233.22,131.83L243.36,130.12L263.64,123.81L273.78,122.45L283.92,120.65L294.06,120.76L304.2,120.42L314.34,119L324.48,117.5L334.62,117L344.76,115.78L354.9,112.21L365.04,108.18L375.18,106.21L385.32,106.57L395.46,109.56L425.88,115.81L436.02,117.18L446.16,117.27L456.3,120.16L466.44,125.57L476.58,126.62L496.86,130.85L507,132.5L517.14,134.46L527.28,137.42L547.56,141.83L557.7,140.43L567.84,138.71L577.98,132.5L588.12,129.52L598.26,130.84L608.4,138.07L618.54,140.3L628.68,140.66L638.82,142.57L648.96,143.86L659.1,147.1L669.24,148.63L679.38,148.9L689.52,149.25L699.66,148.39L719.94,148.24L730.08,147.87L740.22,148.63L750.36,148.42L760.5,148.69L770.64,149.98L790.92,154.45L801.06,155.18L831.48,159.27L841.62,162.48L861.9,170.92L872.04,176.54L892.32,182.68L902.46,183.47L912.6,190.49L922.74,200.94L932.88,220.39L943.02,233.04L963.3,260.32L973.44,278.26L983.58,302.97L993.72,334.47L1003.86,369.15" style="vector-effect: none; fill: none; stroke: rgb(244, 91, 91); stroke-opacity: 1; stroke-width: 2px; opacity: 1;"/></g><g class="points"/><g class="text"/></g><g class="trace scatter trace7a75c6" style="stroke-miterlimit: 2; opacity: 1;"><g class="fills"/><g class="errorbars"/><g class="lines"><path class="js-line" d="M0,265.61L20.28,244.71L30.42,235.64L50.7,215.8L60.84,205.66L70.98,193.55L81.12,184.84L101.4,168.63L111.54,155.21L141.96,140.15L152.1,136.37L162.24,135.03L172.38,131.1L182.52,127.72L192.66,125.83L212.94,122.46L223.08,120.78L243.36,117.36L253.5,115.43L263.64,112.66L273.78,111.83L304.2,110.17L314.34,108.66L324.48,108.23L334.62,108.6L354.9,109.8L365.04,110.18L375.18,110.4L385.32,111.92L405.6,113.15L415.74,113.68L425.88,112.61L436.02,112.32L446.16,113.34L456.3,115.85L466.44,120.47L476.58,121.1L486.72,123.59L496.86,125.07L517.14,127.33L527.28,129.54L537.42,131L547.56,133.25L567.84,136.63L577.98,137.64L588.12,139.01L598.26,141.2L618.54,142.68L628.68,144.3L679.38,152.03L689.52,154.04L699.66,154.75L709.8,156.68L740.22,158.25L750.36,160.57L790.92,167.82L801.06,168.56L821.34,172.26L831.48,175.25L841.62,177.76L851.76,181.14L861.9,184.52L872.04,189.55L882.18,194.12L892.32,199.76L902.46,206.79L912.6,215.35L932.88,236.64L943.02,249.01L963.3,277.08L973.44,294.62L983.58,316.39L993.72,342.44L1003.86,371.22" style="vector-effect: none; fill: none; stroke: rgb(145, 232, 225); stroke-opacity: 1; stroke-width: 2px; opacity: 1;"/></g><g class="points"/><g class="text"/></g><g class="trace scatter trace530003" style="stroke-miterlimit: 2; opacity: 1;"><g class="fills"/><g class="errorbars"/><g class="lines"><path class="js-line" d="M0,267.52L30.42,242.98L40.56,234.01L60.84,215.37L70.98,206.78L91.26,192.12L101.4,185.24L111.54,175.33L121.68,170.63L152.1,157.32L162.24,154.15L172.38,150.41L182.52,147.98L223.08,138.9L233.22,136.65L253.5,132.96L263.64,130.43L283.92,128.1L294.06,126.99L314.34,123.52L324.48,122.7L365.04,119.02L375.18,118.68L385.32,119.41L395.46,119.27L425.88,117.13L436.02,115.89L456.3,116.62L466.44,118.42L476.58,119.08L486.72,121.57L517.14,123.53L527.28,125.04L567.84,131.02L577.98,131.37L648.96,134.87L659.1,136.33L679.38,137.97L689.52,139.56L699.66,140.03L709.8,141.83L740.22,143.26L750.36,143.78L760.5,144.79L770.64,147.07L790.92,151.16L801.06,152.19L831.48,158.65L841.62,160.92L861.9,168.49L872.04,173.79L882.18,178.62L892.32,184.47L902.46,192.09L912.6,201.17L932.88,223.92L943.02,236.94L963.3,266.99L973.44,285.99L983.58,309.09L993.72,337.61L1003.86,369.47" style="vector-effect: none; fill: none; stroke: rgb(124, 181, 236); stroke-opacity: 1; stroke-width: 2px; opacity: 1;"/></g><g class="points"/><g class="text"/></g><g class="trace scatter tracee15815" style="stroke-miterlimit: 2; opacity: 1;"><g class="fills"/><g class="errorbars"/><g class="lines"><path class="js-line" d="M0,268.24L30.42,240.13L40.56,230.27L60.84,209.91L70.98,200.78L91.26,185.46L101.4,179.3L111.54,170.78L121.68,166.23L141.96,157.16L152.1,153.39L162.24,151.66L172.38,148.45L243.36,137.23L253.5,135.1L263.64,132.49L273.78,131.13L294.06,130.06L304.2,129.7L324.48,127.59L334.62,126.9L365.04,123.98L375.18,123.48L385.32,124.17L395.46,124.1L425.88,123.73L436.02,122.92L446.16,123.24L456.3,124.4L466.44,126.13L476.58,126.12L486.72,127.42L496.86,127.84L507,128.02L517.14,129L547.56,132.73L557.7,133.33L577.98,134.22L588.12,134.32L618.54,135.35L628.68,135.67L648.96,136.39L659.1,137.9L679.38,139.47L689.52,140.35L699.66,140.27L709.8,141.57L750.36,142.71L760.5,142.97L790.92,147.19L801.06,147.97L841.62,155.93L851.76,159.27L861.9,162.53L872.04,167.76L882.18,172.66L892.32,178.63L902.46,186.07L912.6,195.09L932.88,218.11L943.02,231.45L963.3,261.89L973.44,281.23L983.58,305.63L993.72,335.71L1003.86,368.95" style="vector-effect: none; fill: none; stroke: rgb(67, 67, 72); stroke-opacity: 1; stroke-width: 2px; opacity: 1;"/></g><g class="points"/><g class="text"/></g><g class="trace scatter trace322c59" style="stroke-miterlimit: 2; opacity: 1;"><g class="fills"/><g class="errorbars"/><g class="lines"><path class="js-line" d="M0,283.85L10.14,261.71L20.28,242.93L30.42,225.68L40.56,204.59L50.7,183.72L60.84,167.89L70.98,155L81.12,151.66L91.26,147.59L101.4,153.53L111.54,134.94L121.68,131.22L141.96,118.7L152.1,111.83L162.24,113.04L172.38,120.07L182.52,118.44L192.66,121.41L202.8,122.01L212.94,126.02L223.08,130.4L233.22,135.7L253.5,133.64L263.64,129.99L273.78,131.21L283.92,130.89L294.06,128.71L304.2,130.27L314.34,132.79L324.48,136.93L344.76,138.32L354.9,123.15L375.18,109.15L385.32,104.98L395.46,101.03L405.6,103.96L425.88,105.15L436.02,113.59L446.16,121.73L456.3,126.7L466.44,132.86L476.58,134.69L486.72,139.44L496.86,146.48L507,146.35L517.14,136.16L527.28,136.59L537.42,138.47L557.7,143.41L567.84,141.83L588.12,138.41L598.26,138.82L608.4,139.93L618.54,139.02L628.68,140.75L638.82,146.55L659.1,157.02L669.24,159.14L679.38,150.28L689.52,148.56L719.94,143.8L730.08,144.01L750.36,153.19L760.5,159.18L770.64,163.73L780.78,165.83L790.92,168.97L801.06,168.72L821.34,146.52L831.48,138.03L841.62,140.08L851.76,151.37L861.9,165.01L872.04,181.91L882.18,204.56L892.32,215.46L902.46,224.64L912.6,236.14L932.88,257.94L943.02,267.66L963.3,291.18L973.44,306.33L983.58,324.85L993.72,347.47L1003.86,372.76" style="vector-effect: none; fill: none; stroke: rgb(144, 237, 125); stroke-opacity: 1; stroke-width: 2px; opacity: 1;"/></g><g class="points"/><g class="text"/></g><g class="trace scatter trace8ddae1" style="stroke-miterlimit: 2; opacity: 1;"><g class="fills"/><g class="errorbars"/><g class="lines"><path class="js-line" d="M0,263.12L40.56,226.51L50.7,216.35L70.98,196.8L81.12,189.46L101.4,175.15L111.54,164.21L152.1,147.4L162.24,144.79L172.38,141.2L182.52,139.45L263.64,123.16L273.78,122.21L304.2,120.43L314.34,118.58L344.76,116.7L354.9,115.96L375.18,115.23L385.32,116.31L415.74,116.37L425.88,115.55L436.02,115.02L446.16,115.7L456.3,117L466.44,119.47L476.58,120.18L486.72,122.58L517.14,125.47L527.28,127.04L557.7,132.59L567.84,134.51L648.96,139.73L659.1,141.51L719.94,148.44L730.08,148.97L760.5,151.89L770.64,154.41L801.06,159.88L811.2,161.79L841.62,169.43L851.76,173.14L861.9,176.61L872.04,181.9L882.18,186.97L892.32,193.1L902.46,200.71L912.6,209.73L932.88,231.21L943.02,243.85L963.3,273.33L973.44,291.44L983.58,313.38L993.72,340.51L1003.86,370.52" style="vector-effect: none; fill: none; stroke: rgb(247, 163, 92); stroke-opacity: 1; stroke-width: 2px; opacity: 1;"/></g><g class="points"/><g class="text"/></g><g class="trace scatter trace63b67b" style="stroke-miterlimit: 2; opacity: 1;"><g class="fills"/><g class="errorbars"/><g class="lines"><path class="js-line" d="M0,267.47L40.56,225.65L50.7,214.44L70.98,193.89L81.12,186.1L101.4,173.38L111.54,161.69L131.82,151.8L141.96,146.62L152.1,142.39L162.24,140.9L172.38,137.6L182.52,136.06L243.36,127.87L253.5,126.08L263.64,123.31L273.78,122.63L283.92,122.01L294.06,122.6L304.2,122.97L314.34,121.87L354.9,121.19L365.04,120.37L375.18,119.82L385.32,121.23L415.74,121.48L425.88,120.76L436.02,119.87L446.16,120.42L466.44,126.02L476.58,126.35L496.86,129L507,129.38L517.14,129.93L527.28,131.92L547.56,135.34L557.7,135.7L577.98,136.84L588.12,137.13L598.26,138.09L608.4,138.12L648.96,140.55L659.1,142.53L689.52,146.14L699.66,145.82L709.8,147.25L719.94,147.74L760.5,150.68L770.64,152.83L841.62,165.33L851.76,168.24L861.9,171.63L872.04,177.07L882.18,181.92L892.32,187.83L902.46,195.25L912.6,204.53L932.88,226.49L943.02,239.05L963.3,267.91L973.44,285.8L983.58,308.91L993.72,337.82L1003.86,369.88" style="vector-effect: none; fill: none; stroke: rgb(128, 133, 233); stroke-opacity: 1; stroke-width: 2px; opacity: 1;"/></g><g class="points"/><g class="text"/></g><g class="trace scatter traceb43ff1" style="stroke-miterlimit: 2; opacity: 1;"><g class="fills"/><g class="errorbars"/><g class="lines"><path class="js-line" d="M0,262.33L70.98,196.07L81.12,188.85L101.4,175.59L111.54,164.71L152.1,147.19L162.24,144.37L182.52,136.99L192.66,135.23L212.94,131.94L223.08,130.47L253.5,125.3L263.64,123.07L304.2,121.79L314.34,120.48L334.62,120.47L344.76,120.85L365.04,119.84L375.18,119.68L385.32,120.83L395.46,121.08L436.02,119.39L446.16,120.19L456.3,121.55L466.44,124.38L476.58,125.23L486.72,127.24L496.86,128.07L507,128.07L517.14,128.73L527.28,130.38L547.56,133.54L557.7,134.01L567.84,135.39L577.98,135.67L598.26,137.72L608.4,137.63L628.68,138.2L638.82,139.13L648.96,139.93L659.1,142.03L709.8,147.03L719.94,147.36L740.22,149L750.36,149.92L760.5,150.96L770.64,153.16L811.2,159.32L821.34,161.04L841.62,165.61L851.76,169.32L861.9,173.12L872.04,178.23L882.18,182.97L892.32,188.77L902.46,196.32L912.6,205.54L932.88,228.16L943.02,240.86L963.3,269.21L973.44,287.58L983.58,310.79L993.72,338.7L1003.86,370.01" style="vector-effect: none; fill: none; stroke: rgb(241, 92, 128); stroke-opacity: 1; stroke-width: 2px; opacity: 1;"/></g><g class="points"/><g class="text"/></g></g></g></g><g class="zerolinelayer-above"/><path class="xlines-above crisp" d="M0,0" style="fill: none;"/><path class="ylines-above crisp" d="M0,0" style="fill: none;"/><g class="overlines-above"/><g class="xaxislayer-above"><g class="xtick"><text text-anchor="middle" x="0" y="451" transform="translate(60,0)" style="font-family: 'Lucida Grande', 'Open Sans', verdana, arial, sans-serif; font-size: 10px; fill: rgb(0, 0, 0); fill-opacity: 1; white-space: pre;">0%</text></g><g class="xtick"><text text-anchor="middle" x="0" y="451" style="font-family: 'Lucida Grande', 'Open Sans', verdana, arial, sans-serif; font-size: 10px; fill: rgb(0, 0, 0); fill-opacity: 1; white-space: pre;" transform="translate(262.8,0)">20%</text></g><g class="xtick"><text text-anchor="middle" x="0" y="451" style="font-family: 'Lucida Grande', 'Open Sans', verdana, arial, sans-serif; font-size: 10px; fill: rgb(0, 0, 0); fill-opacity: 1; white-space: pre;" transform="translate(465.6,0)">40%</text></g><g class="xtick"><text text-anchor="middle" x="0" y="451" style="font-family: 'Lucida Grande', 'Open Sans', verdana, arial, sans-serif; font-size: 10px; fill: rgb(0, 0, 0); fill-opacity: 1; white-space: pre;" transform="translate(668.4,0)">60%</text></g><g class="xtick"><text text-anchor="middle" x="0" y="451" style="font-family: 'Lucida Grande', 'Open Sans', verdana, arial, sans-serif; font-size: 10px; fill: rgb(0, 0, 0); fill-opacity: 1; white-space: pre;" transform="translate(871.2,0)">80%</text></g><g class="xtick"><text text-anchor="middle" x="0" y="451" style="font-family: 'Lucida Grande', 'Open Sans', verdana, arial, sans-serif; font-size: 10px; fill: rgb(0, 0, 0); fill-opacity: 1; white-space: pre;" transform="translate(1074,0)">100%</text></g></g><g class="yaxislayer-above"><g class="ytick"><text text-anchor="end" x="54" y="3.5" transform="translate(0,435)" style="font-family: 'Lucida Grande', 'Open Sans', verdana, arial, sans-serif; font-size: 10px; fill: rgb(0, 0, 0); fill-opacity: 1; white-space: pre;">0%</text></g><g class="ytick"><text text-anchor="end" x="54" y="3.5" style="font-family: 'Lucida Grande', 'Open Sans', verdana, arial, sans-serif; font-size: 10px; fill: rgb(0, 0, 0); fill-opacity: 1; white-space: pre;" transform="translate(0,390.27)">0.2%</text></g><g class="ytick"><text text-anchor="end" x="54" y="3.5" style="font-family: 'Lucida Grande', 'Open Sans', verdana, arial, sans-serif; font-size: 10px; fill: rgb(0, 0, 0); fill-opacity: 1; white-space: pre;" transform="translate(0,345.54)">0.4%</text></g><g class="ytick"><text text-anchor="end" x="54" y="3.5" style="font-family: 'Lucida Grande', 'Open Sans', verdana, arial, sans-serif; font-size: 10px; fill: rgb(0, 0, 0); fill-opacity: 1; white-space: pre;" transform="translate(0,300.81)">0.6%</text></g><g class="ytick"><text text-anchor="end" x="54" y="3.5" style="font-family: 'Lucida Grande', 'Open Sans', verdana, arial, sans-serif; font-size: 10px; fill: rgb(0, 0, 0); fill-opacity: 1; white-space: pre;" transform="translate(0,256.08000000000004)">0.8%</text></g><g class="ytick"><text text-anchor="end" x="54" y="3.5" style="font-family: 'Lucida Grande', 'Open Sans', verdana, arial, sans-serif; font-size: 10px; fill: rgb(0, 0, 0); fill-opacity: 1; white-space: pre;" transform="translate(0,211.35)">1%</text></g><g class="ytick"><text text-anchor="end" x="54" y="3.5" style="font-family: 'Lucida Grande', 'Open Sans', verdana, arial, sans-serif; font-size: 10px; fill: rgb(0, 0, 0); fill-opacity: 1; white-space: pre;" transform="translate(0,166.62)">1.2%</text></g><g class="ytick"><text text-anchor="end" x="54" y="3.5" style="font-family: 'Lucida Grande', 'Open Sans', verdana, arial, sans-serif; font-size: 10px; fill: rgb(0, 0, 0); fill-opacity: 1; white-space: pre;" transform="translate(0,121.89)">1.4%</text></g><g class="ytick"><text text-anchor="end" x="54" y="3.5" style="font-family: 'Lucida Grande', 'Open Sans', verdana, arial, sans-serif; font-size: 10px; fill: rgb(0, 0, 0); fill-opacity: 1; white-space: pre;" transform="translate(0,77.16)">1.6%</text></g></g><g class="overaxes-above"/></g></g><g class="polarlayer"/><g class="smithlayer"/><g class="ternarylayer"/><g class="geolayer"/><g class="funnelarealayer"/><g class="pielayer"/><g class="iciclelayer"/><g class="treemaplayer"/><g class="sunburstlayer"/><g class="glimages"/><defs id="topdefs-6f5212"><g class="clips"/></defs><g class="layer-above"><g class="imagelayer"/><g class="shapelayer"/></g><g class="infolayer"><g class="g-gtitle"><text class="gtitle" x="550" y="25" text-anchor="middle" dy="0em" style="opacity: 1; font-family: 'Lucida Grande', 'Open Sans', verdana, arial, sans-serif; font-size: 20px; fill: rgb(68, 68, 68); fill-opacity: 1; white-space: pre;"><tspan class="line" dy="0em" x="550" y="25">QualiMap: RNAseq: Coverage Profile Along Genes (total)</tspan><tspan class="line" dy="1.3em" x="550" y="25">​<tspan style="font-size:70%" dy="-0.6em">Normalised, 16 lines</tspan><tspan dy="0.42em">​</tspan></tspan></text></g><g class="g-xtitle"><text class="xtitle" x="567" y="487" text-anchor="middle" style="opacity: 0.3; font-family: 'Lucida Grande', 'Open Sans', verdana, arial, sans-serif; font-size: 14px; fill: rgb(0, 0, 0); fill-opacity: 1; white-space: pre;">Transcript Position 5'->3' (%)</text></g><g class="g-ytitle"><text class="ytitle" transform="rotate(-90,22,242.5)" x="22" y="242.5" text-anchor="middle" style="opacity: 0.3; font-family: 'Lucida Grande', 'Open Sans', verdana, arial, sans-serif; font-size: 14px; fill: rgb(0, 0, 0); fill-opacity: 1; white-space: pre;">Percentage total cumulative mapped-read depth</text></g></g></svg>