<svg class="main-svg" xmlns="http://www.w3.org/2000/svg" xmlns:xlink="http://www.w3.org/1999/xlink" width="2200" height="1000" style="" viewBox="0 0 1100 500"><rect x="0" y="0" width="1100" height="500" style="fill: rgb(255, 255, 255); fill-opacity: 1;"/><defs id="defs-19af9a"><g class="clips"><clipPath id="clip19af9axyplot" class="plotclip"><rect width="1014" height="385"/></clipPath><clipPath class="axesclip" id="clip19af9ax"><rect x="60" y="0" width="1014" height="500"/></clipPath><clipPath class="axesclip" id="clip19af9ay"><rect x="0" y="50" width="1100" height="385"/></clipPath><clipPath class="axesclip" id="clip19af9axy"><rect x="60" y="50" width="1014" height="385"/></clipPath></g><g class="gradients"/><g class="patterns"/></defs><g class="bglayer"/><g class="layer-below"><g class="imagelayer"/><g class="shapelayer"/></g><g class="cartesianlayer"><g class="subplot xy"><g class="layer-subplot"><g class="shapelayer"/><g class="imagelayer"/></g><g class="minor-gridlayer"><g class="x"/><g class="y"/></g><g class="gridlayer"><g class="x"><path class="xgrid crisp" transform="translate(262.8,0)" d="M0,50v385" style="stroke: rgb(0, 0, 0); stroke-opacity: 0.05; stroke-width: 1px;"/><path class="xgrid crisp" transform="translate(465.6,0)" d="M0,50v385" style="stroke: rgb(0, 0, 0); stroke-opacity: 0.05; stroke-width: 1px;"/><path class="xgrid crisp" transform="translate(668.4,0)" d="M0,50v385" style="stroke: rgb(0, 0, 0); stroke-opacity: 0.05; stroke-width: 1px;"/><path class="xgrid crisp" transform="translate(871.2,0)" d="M0,50v385" style="stroke: rgb(0, 0, 0); stroke-opacity: 0.05; stroke-width: 1px;"/></g><g class="y"><path class="ygrid crisp" transform="translate(0,381.96)" d="M60,0h1014" style="stroke: rgb(0, 0, 0); stroke-opacity: 0.05; stroke-width: 1px;"/><path class="ygrid crisp" transform="translate(0,328.93)" d="M60,0h1014" style="stroke: rgb(0, 0, 0); stroke-opacity: 0.05; stroke-width: 1px;"/><path class="ygrid crisp" transform="translate(0,275.89)" d="M60,0h1014" style="stroke: rgb(0, 0, 0); stroke-opacity: 0.05; stroke-width: 1px;"/><path class="ygrid crisp" transform="translate(0,222.85)" d="M60,0h1014" style="stroke: rgb(0, 0, 0); stroke-opacity: 0.05; stroke-width: 1px;"/><path class="ygrid crisp" transform="translate(0,169.81)" d="M60,0h1014" style="stroke: rgb(0, 0, 0); stroke-opacity: 0.05; stroke-width: 1px;"/><path class="ygrid crisp" transform="translate(0,116.78)" d="M60,0h1014" style="stroke: rgb(0, 0, 0); stroke-opacity: 0.05; stroke-width: 1px;"/><path class="ygrid crisp" transform="translate(0,63.74)" d="M60,0h1014" style="stroke: rgb(0, 0, 0); stroke-opacity: 0.05; stroke-width: 1px;"/></g></g><g class="zerolinelayer"><path class="xzl zl crisp" transform="translate(60,0)" d="M0,50v385" style="stroke: rgb(0, 0, 0); stroke-opacity: 0.05; stroke-width: 1px;"/><path class="yzl zl crisp" transform="translate(0,435)" d="M60,0h1014" style="stroke: rgb(0, 0, 0); stroke-opacity: 0.05; stroke-width: 1px;"/></g><g class="layer-between"><g class="shapelayer"/><g class="imagelayer"/></g><path class="xlines-below"/><path class="ylines-below"/><g class="overlines-below"/><g class="xaxislayer-below"/><g class="yaxislayer-below"/><g class="overaxes-below"/><g class="overplot"><g class="xy" transform="translate(60,50)" clip-path="url(#clip19af9axyplot)"><g class="scatterlayer mlayer"><g class="trace scatter trace562241" style="stroke-miterlimit: 2; opacity: 1;"><g class="fills"/><g class="errorbars"/><g class="lines"><path class="js-line" d="M0,261.68L20.28,240.45L30.42,230.64L50.7,210.52L60.84,200.28L70.98,189.74L81.12,181.53L91.26,174.01L101.4,167.54L111.54,157.56L121.68,153.32L141.96,145.07L152.1,141.98L162.24,140.76L172.38,137.72L192.66,135.58L202.8,133.7L212.94,132.63L223.08,130.65L273.78,121.31L283.92,121.08L304.2,120.75L314.34,119.48L344.76,118.48L354.9,118.4L375.18,118.62L385.32,119.39L446.16,121.03L456.3,123.11L466.44,126.71L476.58,127.23L486.72,128.96L496.86,129.67L517.14,130.51L527.28,131.98L577.98,136.85L588.12,137.1L598.26,138.45L608.4,138.57L648.96,142.42L659.1,144.59L689.52,149.51L699.66,150.09L709.8,152.6L719.94,152.98L760.5,155.04L770.64,156.82L790.92,160.43L801.06,161.13L821.34,164.63L831.48,166.76L841.62,168.87L851.76,172.36L861.9,175.83L872.04,181.06L882.18,185.81L892.32,191.67L902.46,198.98L912.6,207.9L932.88,229.75L943.02,242.48L963.3,271.5L973.44,289.31L983.58,311.89L993.72,339.69L1003.86,370.3" style="vector-effect: none; fill: none; stroke: rgb(124, 181, 236); stroke-opacity: 1; stroke-width: 2px; opacity: 1;"/></g><g class="points"/><g class="text"/></g><g class="trace scatter trace02e021" style="stroke-miterlimit: 2; opacity: 1;"><g class="fills"/><g class="errorbars"/><g class="lines"><path class="js-line" d="M0,321.79L20.28,310.57L30.42,305.58L70.98,285.42L81.12,281.52L101.4,274.58L111.54,268.86L152.1,259.43L162.24,258.57L172.38,256.62L182.52,255.9L253.5,251.82L263.64,250.63L365.04,250.01L375.18,250.34L395.46,251.8L405.6,252.12L425.88,251.81L436.02,251.44L456.3,252.27L466.44,253.62L486.72,254.57L496.86,255.03L517.14,256.02L527.28,257.07L567.84,260.04L577.98,260.25L648.96,262.64L659.1,263.84L770.64,268.4L780.78,269.4L790.92,270.68L801.06,271.02L831.48,273.68L841.62,274.8L882.18,282.89L892.32,285.54L912.6,293.39L922.74,299.02L943.02,311.19L953.16,318.32L963.3,326.07L973.44,335.38L983.58,347.09L993.72,361.46L1003.86,377.38" style="vector-effect: none; fill: none; stroke: rgb(67, 67, 72); stroke-opacity: 1; stroke-width: 2px; opacity: 1;"/></g><g class="points"/><g class="text"/></g><g class="trace scatter trace4157cb" style="stroke-miterlimit: 2; opacity: 1;"><g class="fills"/><g class="errorbars"/><g class="lines"><path class="js-line" d="M0,359.09L10.14,344.74L20.28,333.18L40.56,303.32L50.7,292.75L60.84,283.06L70.98,275.71L91.26,286.17L101.4,297.97L111.54,298.62L121.68,292.29L131.82,288.99L141.96,280.23L162.24,267.49L172.38,267.96L182.52,263.84L192.66,262.18L202.8,264.3L212.94,271.47L223.08,280.95L233.22,288.67L243.36,291.67L253.5,291.47L263.64,294.15L273.78,290.38L283.92,286.87L294.06,288.56L304.2,276.92L314.34,273.24L324.48,262.98L334.62,255.75L354.9,235.73L365.04,219.95L375.18,203.6L385.32,201.84L395.46,199.77L405.6,204.08L415.74,204.71L425.88,206.42L436.02,207.59L446.16,211.64L466.44,220.57L476.58,211.63L486.72,203.1L496.86,201.39L507,199.66L517.14,209.4L527.28,219.08L537.42,223.42L547.56,235.86L557.7,239.17L567.84,242.28L577.98,242.95L588.12,240.86L598.26,233.83L608.4,238.48L618.54,228.41L628.68,215.77L638.82,218.73L648.96,219.79L659.1,226.33L669.24,229.34L679.38,235.4L689.52,239.97L699.66,234.12L709.8,235.09L719.94,240.01L730.08,241.08L740.22,244.14L750.36,239.06L760.5,238.51L780.78,250.03L790.92,252.77L801.06,241.89L811.2,227.93L831.48,189.37L841.62,183.22L861.9,209.8L872.04,240.91L882.18,287.43L892.32,303.66L902.46,320.71L912.6,330.83L922.74,338.77L932.88,357.11L943.02,354.36L953.16,358.71L963.3,362.39L973.44,369.39L983.58,376.61L993.72,379.83L1003.86,383.32" style="vector-effect: none; fill: none; stroke: rgb(144, 237, 125); stroke-opacity: 1; stroke-width: 2px; opacity: 1;"/></g><g class="points"/><g class="text"/></g><g class="trace scatter traceb140aa" style="stroke-miterlimit: 2; opacity: 1;"><g class="fills"/><g class="errorbars"/><g class="lines"><path class="js-line" d="M0,230.81L20.28,206.01L30.42,194.1L60.84,155.21L70.98,141.8L91.26,122.28L101.4,114.08L111.54,99.87L121.68,93.94L141.96,81.79L152.1,76.22L162.24,73.43L172.38,69.23L202.8,63.72L212.94,61.95L233.22,56.93L243.36,54.53L253.5,51.77L263.64,48.19L283.92,45.91L294.06,45.89L304.2,45.81L314.34,44.16L375.18,39.98L385.32,41.29L436.02,40.54L446.16,41.88L456.3,44.42L466.44,47.78L476.58,47.73L486.72,49.8L496.86,50.62L507,50.66L517.14,51.06L527.28,52.62L537.42,54.01L547.56,56.2L577.98,59.96L588.12,60.45L598.26,61.7L608.4,62.02L618.54,63.01L628.68,64.93L648.96,66.69L659.1,68.74L679.38,71.38L689.52,73.13L699.66,73.45L709.8,75.33L730.08,76.82L740.22,78.14L760.5,80.31L770.64,82.83L780.78,84.37L790.92,86.71L801.06,87.94L811.2,90.16L831.48,96.01L841.62,99.27L861.9,108.69L872.04,115.51L882.18,122.2L892.32,130.38L902.46,140.74L912.6,152.91L932.88,182.63L943.02,199.59L963.3,238.31L973.44,261.91L983.58,291.57L993.72,326.92L1003.86,366.08" style="vector-effect: none; fill: none; stroke: rgb(247, 163, 92); stroke-opacity: 1; stroke-width: 2px; opacity: 1;"/></g><g class="points"/><g class="text"/></g><g class="trace scatter trace86d965" style="stroke-miterlimit: 2; opacity: 1;"><g class="fills"/><g class="errorbars"/><g class="lines"><path class="js-line" d="M0,324.73L70.98,287.92L81.12,283.46L101.4,275.74L111.54,269.76L152.1,259.22L162.24,258.13L172.38,256.08L182.52,255.14L253.5,248.39L263.64,246.7L283.92,245.35L294.06,245.67L304.2,245.91L314.34,245.35L375.18,243.4L385.32,244.1L415.74,244.9L425.88,244.69L446.16,244.3L456.3,245.8L466.44,247.68L476.58,247.91L496.86,249.47L507,249.66L527.28,251.79L537.42,252.86L547.56,253.93L557.7,253.9L648.96,255.93L659.1,257.05L689.52,258.08L699.66,257.75L719.94,258.62L730.08,258.63L770.64,259.91L780.78,260.93L801.06,262.68L811.2,263.81L841.62,267.05L851.76,268.83L861.9,270.66L872.04,273.69L892.32,279.33L902.46,282.84L912.6,287.41L922.74,292.9L943.02,305.96L953.16,313.23L963.3,321.03L973.44,330.6L983.58,342.96L993.72,358.8L1003.86,376.57" style="vector-effect: none; fill: none; stroke: rgb(128, 133, 233); stroke-opacity: 1; stroke-width: 2px; opacity: 1;"/></g><g class="points"/><g class="text"/></g><g class="trace scatter tracea43d73" style="stroke-miterlimit: 2; opacity: 1;"><g class="fills"/><g class="errorbars"/><g class="lines"><path class="js-line" d="M0,215.36L70.98,119.86L81.12,108.81L91.26,98.73L101.4,90.25L111.54,77.03L121.68,70.79L141.96,58.52L152.1,53.07L162.24,50.21L172.38,45.64L202.8,39.58L212.94,38.34L223.08,36.96L233.22,34.59L253.5,30.36L263.64,26.67L283.92,24.66L294.06,24.63L304.2,24.47L314.34,22.76L334.62,22.82L344.76,21.99L354.9,20.77L365.04,20.57L375.18,20.88L385.32,22.38L415.74,21.75L425.88,20.3L436.02,19.25L446.16,20.36L456.3,21.92L466.44,25.56L476.58,26.21L486.72,28.71L517.14,31.59L527.28,33.6L537.42,35.7L547.56,38.68L577.98,43.54L588.12,44.49L608.4,47L618.54,48L628.68,50.29L638.82,51.57L648.96,52.98L659.1,55.71L689.52,61.93L699.66,62.31L709.8,64.18L719.94,64.79L750.36,67.59L760.5,68.9L770.64,71.62L780.78,73.39L790.92,76L801.06,76.99L811.2,79.12L821.34,82.03L841.62,87.64L851.76,92.77L861.9,97.64L872.04,104.9L882.18,111.98L892.32,120.58L902.46,131.01L912.6,143.99L932.88,176.22L943.02,193.97L963.3,234.57L973.44,258.98L983.58,289.34L993.72,325.28L1003.86,365.29" style="vector-effect: none; fill: none; stroke: rgb(241, 92, 128); stroke-opacity: 1; stroke-width: 2px; opacity: 1;"/></g><g class="points"/><g class="text"/></g><g class="trace scatter traced2674d" style="stroke-miterlimit: 2; opacity: 1;"><g class="fills"/><g class="errorbars"/><g class="lines"><path class="js-line" d="M0,349.76L10.14,316.8L20.28,292.1L30.42,268.42L40.56,240.08L50.7,214.77L60.84,194.84L70.98,179.46L81.12,181.02L91.26,177.11L101.4,189.74L111.54,171.11L121.68,171.26L141.96,163.62L152.1,158.3L162.24,169.7L172.38,190.13L182.52,198.91L192.66,196.14L202.8,195.45L212.94,196.7L223.08,198.12L233.22,204.26L243.36,194.55L253.5,188.09L263.64,180.13L273.78,181.97L283.92,181.81L294.06,178.65L304.2,183.55L314.34,195.5L324.48,213.54L334.62,218.56L344.76,218.25L354.9,200.01L375.18,169.54L385.32,157.36L395.46,144.13L405.6,143.45L415.74,140.45L425.88,136.64L446.16,166.4L456.3,177.31L466.44,189.43L476.58,192.59L486.72,197.06L496.86,211.4L507,212.5L517.14,196.65L527.28,190.1L537.42,187.23L547.56,190.34L557.7,198.07L567.84,192.17L577.98,189.43L598.26,192.52L608.4,194.44L618.54,190.82L628.68,196.73L638.82,212.94L648.96,226.07L659.1,234.47L669.24,239.39L679.38,230.42L689.52,225.08L709.8,213.57L719.94,203.3L730.08,199.02L740.22,204.06L750.36,207.51L760.5,212.23L780.78,218.23L790.92,226.38L801.06,232.74L811.2,225.18L821.34,219.22L831.48,209.21L841.62,207.58L851.76,211.69L861.9,216.17L872.04,232.2L882.18,258.73L892.32,276.35L902.46,294.5L912.6,321.08L922.74,336.31L932.88,348.83L943.02,349.99L953.16,353.5L963.3,358.73L973.44,365.27L993.72,377.07L1003.86,382.43" style="vector-effect: none; fill: none; stroke: rgb(228, 211, 84); stroke-opacity: 1; stroke-width: 2px; opacity: 1;"/></g><g class="points"/><g class="text"/></g><g class="trace scatter tracec490da" style="stroke-miterlimit: 2; opacity: 1;"><g class="fills"/><g class="errorbars"/><g class="lines"><path class="js-line" d="M0,271.49L20.28,245.6L30.42,233.08L40.56,219.55L50.7,207.47L70.98,185.65L81.12,180.64L91.26,175.8L101.4,173.32L111.54,164.83L121.68,158.84L131.82,153.55L141.96,146.73L152.1,141.59L162.24,138.78L182.52,134.1L192.66,133.43L202.8,133.05L212.94,134.79L223.08,137.22L233.22,138.08L243.36,137.82L253.5,135.92L283.92,130.29L294.06,130.59L314.34,124.95L324.48,120.66L334.62,117.73L344.76,113.59L354.9,110.2L365.04,105.14L375.18,101.55L385.32,102.37L405.6,106.08L415.74,106.55L425.88,106.97L436.02,105.91L456.3,107.99L466.44,111.16L476.58,109.11L486.72,108.43L507,106.87L517.14,110.27L527.28,114.23L537.42,116.63L547.56,122.03L557.7,124.15L567.84,126.35L577.98,127.18L598.26,127.98L608.4,131.05L628.68,126.63L638.82,126.99L648.96,126.66L659.1,129.98L669.24,130.75L679.38,133.52L689.52,136.41L699.66,135.58L709.8,136.74L719.94,139.85L740.22,141.53L750.36,141.06L760.5,140.73L770.64,144.02L790.92,148.02L801.06,145.09L811.2,141.1L821.34,136.05L831.48,130.8L841.62,131.38L851.76,139.92L861.9,149.94L872.04,164.95L882.18,183.64L892.32,193.81L902.46,205.41L922.74,229.88L932.88,245.81L943.02,256.48L953.16,269.33L963.3,282.62L973.44,299.4L983.58,321.26L993.72,345.34L1003.86,372.11" style="vector-effect: none; fill: none; stroke: rgb(43, 144, 143); stroke-opacity: 1; stroke-width: 2px; opacity: 1;"/></g><g class="points"/><g class="text"/></g><g class="trace scatter trace6cf193" style="stroke-miterlimit: 2; opacity: 1;"><g class="fills"/><g class="errorbars"/><g class="lines"><path class="js-line" d="M0,365.74L30.42,360.01L40.56,357.48L60.84,354.03L70.98,352.8L101.4,348.45L111.54,345.89L152.1,341.22L162.24,340.5L182.52,339.45L192.66,339.45L223.08,338.98L233.22,338.58L314.34,336.22L324.48,335.95L354.9,334.98L365.04,334.24L385.32,333.94L395.46,334.49L456.3,336.44L466.44,337.43L517.14,339.06L527.28,339.6L557.7,340.15L567.84,339.84L588.12,338.15L598.26,338.39L608.4,339.72L618.54,340.13L648.96,340.78L659.1,341.38L689.52,341.77L699.66,341.61L780.78,342.28L790.92,342.72L831.48,343.61L841.62,344.2L892.32,347.9L902.46,348.05L922.74,351.25L932.88,354.81L963.3,362.14L973.44,365.43L983.58,369.96L993.72,375.73L1003.86,382.09" style="vector-effect: none; fill: none; stroke: rgb(244, 91, 91); stroke-opacity: 1; stroke-width: 2px; opacity: 1;"/></g><g class="points"/><g class="text"/></g><g class="trace scatter trace7774c1" style="stroke-miterlimit: 2; opacity: 1;"><g class="fills"/><g class="errorbars"/><g class="lines"><path class="js-line" d="M0,278.78L20.28,260.19L30.42,252.11L50.7,234.46L60.84,225.44L70.98,214.67L81.12,206.92L101.4,192.5L111.54,180.56L141.96,167.16L152.1,163.79L162.24,162.6L172.38,159.11L182.52,156.1L192.66,154.41L212.94,151.42L223.08,149.92L243.36,146.88L253.5,145.16L263.64,142.7L273.78,141.96L304.2,140.48L314.34,139.14L334.62,139.08L344.76,139.88L375.18,140.69L385.32,142.04L405.6,143.13L415.74,143.61L436.02,142.4L446.16,143.3L456.3,145.54L466.44,149.65L476.58,150.2L486.72,152.42L537.42,159.01L547.56,161.02L577.98,164.92L588.12,166.14L598.26,168.09L608.4,168.66L628.68,170.85L638.82,172.25L648.96,173.03L659.1,174.92L679.38,177.73L689.52,179.51L699.66,180.14L709.8,181.87L740.22,183.26L750.36,185.33L790.92,191.78L801.06,192.43L821.34,195.73L831.48,198.38L851.76,203.62L861.9,206.63L892.32,220.19L902.46,226.44L912.6,234.06L922.74,243.24L932.88,253L943.02,264.01L963.3,288.98L973.44,304.59L983.58,323.96L993.72,347.13L1003.86,372.74" style="vector-effect: none; fill: none; stroke: rgb(145, 232, 225); stroke-opacity: 1; stroke-width: 2px; opacity: 1;"/></g><g class="points"/><g class="text"/></g><g class="trace scatter trace340582" style="stroke-miterlimit: 2; opacity: 1;"><g class="fills"/><g class="errorbars"/><g class="lines"><path class="js-line" d="M0,273.02L30.42,249.63L40.56,241.09L60.84,223.32L70.98,215.13L91.26,201.16L101.4,194.6L111.54,185.15L121.68,180.67L152.1,167.99L162.24,164.96L172.38,161.4L182.52,159.09L223.08,150.43L233.22,148.28L253.5,144.77L263.64,142.35L283.92,140.13L294.06,139.08L324.48,134.98L334.62,134.13L354.9,132.01L365.04,131.48L375.18,131.16L385.32,131.85L415.74,130.78L425.88,129.68L436.02,128.5L446.16,128.71L456.3,129.19L466.44,130.91L476.58,131.54L486.72,133.91L517.14,135.77L527.28,137.22L567.84,142.92L577.98,143.25L648.96,146.58L659.1,147.98L679.38,149.55L689.52,151.06L699.66,151.5L709.8,153.22L760.5,156.04L770.64,158.22L790.92,162.11L801.06,163.09L831.48,169.25L841.62,171.42L861.9,178.63L872.04,183.68L882.18,188.29L892.32,193.87L902.46,201.13L912.6,209.78L932.88,231.47L943.02,243.87L963.3,272.52L973.44,290.63L983.58,312.65L993.72,339.83L1003.86,370.19" style="vector-effect: none; fill: none; stroke: rgb(124, 181, 236); stroke-opacity: 1; stroke-width: 2px; opacity: 1;"/></g><g class="points"/><g class="text"/></g><g class="trace scatter tracee3f52b" style="stroke-miterlimit: 2; opacity: 1;"><g class="fills"/><g class="errorbars"/><g class="lines"><path class="js-line" d="M0,310.43L30.42,292.47L40.56,286.17L60.84,273.17L70.98,267.34L91.26,257.55L101.4,253.62L111.54,248.17L121.68,245.27L152.1,237.07L162.24,235.96L172.38,233.91L182.52,232.93L223.08,229.08L233.22,227.77L253.5,225.38L263.64,223.72L283.92,222.38L294.06,222.17L314.34,221.17L324.48,220.59L375.18,217.96L385.32,218.4L425.88,218.12L436.02,217.6L456.3,218.55L466.44,219.66L476.58,219.65L486.72,220.48L517.14,221.49L527.28,222.43L567.84,224.74L577.98,224.82L638.82,225.95L648.96,226.21L669.24,227.51L679.38,228.17L719.94,229.81L730.08,229.92L770.64,231.38L780.78,232.23L811.2,234.79L821.34,236.2L841.62,238.69L851.76,240.82L861.9,242.9L872.04,246.24L892.32,253.19L902.46,257.94L912.6,263.7L922.74,270.81L943.02,286.93L953.16,296.33L963.3,306.37L973.44,318.72L983.58,334.31L993.72,353.52L1003.86,374.75" style="vector-effect: none; fill: none; stroke: rgb(67, 67, 72); stroke-opacity: 1; stroke-width: 2px; opacity: 1;"/></g><g class="points"/><g class="text"/></g><g class="trace scatter tracef78990" style="stroke-miterlimit: 2; opacity: 1;"><g class="fills"/><g class="errorbars"/><g class="lines"><path class="js-line" d="M0,323.95L10.14,310.59L20.28,299.25L30.42,288.84L40.56,276.11L50.7,263.51L60.84,253.96L70.98,246.18L81.12,244.16L91.26,241.71L101.4,245.29L111.54,234.07L121.68,231.82L141.96,224.27L152.1,220.12L162.24,220.85L172.38,225.1L182.52,224.11L192.66,225.9L202.8,226.27L212.94,228.69L233.22,234.53L243.36,233.95L253.5,233.28L263.64,231.08L273.78,231.82L283.92,231.62L294.06,230.31L304.2,231.25L314.34,232.77L324.48,235.27L344.76,236.11L354.9,226.95L375.18,218.5L385.32,215.98L395.46,213.6L405.6,215.37L425.88,216.09L436.02,221.18L446.16,226.09L456.3,229.1L466.44,232.81L476.58,233.92L486.72,236.79L496.86,241.04L507,240.96L517.14,234.8L527.28,235.07L537.42,236.2L557.7,239.18L567.84,238.23L588.12,236.17L598.26,236.41L608.4,237.08L618.54,236.53L628.68,237.58L638.82,241.08L659.1,247.4L669.24,248.68L679.38,243.33L689.52,242.29L719.94,239.42L730.08,239.54L750.36,245.08L760.5,248.7L770.64,251.45L780.78,252.72L790.92,254.61L801.06,254.46L821.34,241.06L831.48,235.93L841.62,237.17L851.76,243.99L861.9,252.22L872.04,262.42L882.18,276.09L892.32,282.67L902.46,288.21L912.6,295.15L932.88,308.31L943.02,314.18L963.3,328.38L973.44,337.52L983.58,348.69L993.72,362.35L1003.86,377.61" style="vector-effect: none; fill: none; stroke: rgb(144, 237, 125); stroke-opacity: 1; stroke-width: 2px; opacity: 1;"/></g><g class="points"/><g class="text"/></g><g class="trace scatter tracede2577" style="stroke-miterlimit: 2; opacity: 1;"><g class="fills"/><g class="errorbars"/><g class="lines"><path class="js-line" d="M0,272.87L40.56,239.19L50.7,229.84L70.98,211.85L81.12,205.1L101.4,191.94L111.54,181.87L152.1,166.4L162.24,164.01L172.38,160.7L182.52,159.09L263.64,144.1L273.78,143.23L304.2,141.59L314.34,139.89L344.76,138.16L354.9,137.48L375.18,136.81L385.32,137.8L415.74,137.86L425.88,137.1L436.02,136.62L446.16,137.24L456.3,138.44L466.44,140.71L476.58,141.36L486.72,143.57L517.14,146.22L527.28,147.67L557.7,152.78L567.84,154.55L648.96,159.34L659.1,160.98L719.94,167.36L730.08,167.85L760.5,170.53L770.64,172.85L821.34,182.04L831.48,184.69L841.62,186.67L851.76,190.09L861.9,193.28L872.04,198.14L882.18,202.81L892.32,208.44L902.46,215.45L912.6,223.75L932.88,243.51L943.02,255.14L963.3,282.26L973.44,298.93L983.58,319.11L993.72,344.07L1003.86,371.68" style="vector-effect: none; fill: none; stroke: rgb(247, 163, 92); stroke-opacity: 1; stroke-width: 2px; opacity: 1;"/></g><g class="points"/><g class="text"/></g><g class="trace scatter trace7b28e1" style="stroke-miterlimit: 2; opacity: 1;"><g class="fills"/><g class="errorbars"/><g class="lines"><path class="js-line" d="M0,314.67L70.98,270.63L81.12,265.97L101.4,258.36L111.54,251.36L152.1,239.81L162.24,238.92L172.38,236.94L182.52,236.02L253.5,230.05L263.64,228.4L283.92,227.61L294.06,227.97L304.2,228.19L314.34,227.53L354.9,227.12L365.04,226.64L375.18,226.3L385.32,227.15L425.88,226.87L436.02,226.33L446.16,226.67L456.3,228.17L466.44,230.01L476.58,230.21L496.86,231.8L507,232.02L517.14,232.35L527.28,233.55L557.7,235.81L567.84,236.3L628.68,238.09L638.82,238.37L648.96,238.71L659.1,239.9L689.52,242.05L699.66,241.87L719.94,243.01L730.08,243.41L770.64,246.06L780.78,247.18L851.76,255.28L861.9,257.31L892.32,267.01L902.46,271.44L922.74,283.39L932.88,290.14L953.16,306.1L963.3,314.93L973.44,325.63L983.58,339.46L993.72,356.76L1003.86,375.95" style="vector-effect: none; fill: none; stroke: rgb(128, 133, 233); stroke-opacity: 1; stroke-width: 2px; opacity: 1;"/></g><g class="points"/><g class="text"/></g><g class="trace scatter tracedd9cbe" style="stroke-miterlimit: 2; opacity: 1;"><g class="fills"/><g class="errorbars"/><g class="lines"><path class="js-line" d="M0,287.7L70.98,235.15L81.12,229.43L101.4,218.91L111.54,210.28L152.1,196.38L162.24,194.15L182.52,188.3L192.66,186.9L223.08,183.12L233.22,181.91L263.64,177.26L273.78,177.04L324.48,175.03L334.62,175.19L344.76,175.49L354.9,174.88L375.18,174.56L385.32,175.47L415.74,175.43L425.88,174.91L436.02,174.33L446.16,174.97L456.3,176.05L466.44,178.29L476.58,178.97L486.72,180.56L507,181.22L517.14,181.74L547.56,185.55L557.7,185.93L567.84,187.02L577.98,187.25L608.4,188.8L618.54,188.9L648.96,190.62L659.1,192.29L709.8,196.25L719.94,196.51L750.36,198.55L760.5,199.37L780.78,202.22L790.92,203.64L811.2,206L821.34,207.37L841.62,211L851.76,213.93L861.9,216.95L872.04,221L882.18,224.76L892.32,229.36L902.46,235.35L912.6,242.67L932.88,260.61L943.02,270.67L963.3,293.16L973.44,307.73L983.58,326.15L993.72,348.28L1003.86,373.11" style="vector-effect: none; fill: none; stroke: rgb(241, 92, 128); stroke-opacity: 1; stroke-width: 2px; opacity: 1;"/></g><g class="points"/><g class="text"/></g></g></g></g><g class="zerolinelayer-above"/><path class="xlines-above crisp" d="M0,0" style="fill: none;"/><path class="ylines-above crisp" d="M0,0" style="fill: none;"/><g class="overlines-above"/><g class="xaxislayer-above"><g class="xtick"><text text-anchor="middle" x="0" y="451" transform="translate(60,0)" style="font-family: 'Lucida Grande', 'Open Sans', verdana, arial, sans-serif; font-size: 10px; fill: rgb(0, 0, 0); fill-opacity: 1; white-space: pre;">0%</text></g><g class="xtick"><text text-anchor="middle" x="0" y="451" style="font-family: 'Lucida Grande', 'Open Sans', verdana, arial, sans-serif; font-size: 10px; fill: rgb(0, 0, 0); fill-opacity: 1; white-space: pre;" transform="translate(262.8,0)">20%</text></g><g class="xtick"><text text-anchor="middle" x="0" y="451" style="font-family: 'Lucida Grande', 'Open Sans', verdana, arial, sans-serif; font-size: 10px; fill: rgb(0, 0, 0); fill-opacity: 1; white-space: pre;" transform="translate(465.6,0)">40%</text></g><g class="xtick"><text text-anchor="middle" x="0" y="451" style="font-family: 'Lucida Grande', 'Open Sans', verdana, arial, sans-serif; font-size: 10px; fill: rgb(0, 0, 0); fill-opacity: 1; white-space: pre;" transform="translate(668.4,0)">60%</text></g><g class="xtick"><text text-anchor="middle" x="0" y="451" style="font-family: 'Lucida Grande', 'Open Sans', verdana, arial, sans-serif; font-size: 10px; fill: rgb(0, 0, 0); fill-opacity: 1; white-space: pre;" transform="translate(871.2,0)">80%</text></g><g class="xtick"><text text-anchor="middle" x="0" y="451" style="font-family: 'Lucida Grande', 'Open Sans', verdana, arial, sans-serif; font-size: 10px; fill: rgb(0, 0, 0); fill-opacity: 1; white-space: pre;" transform="translate(1074,0)">100%</text></g></g><g class="yaxislayer-above"><g class="ytick"><text text-anchor="end" x="54" y="3.5" transform="translate(0,435)" style="font-family: 'Lucida Grande', 'Open Sans', verdana, arial, sans-serif; font-size: 10px; fill: rgb(0, 0, 0); fill-opacity: 1; white-space: pre;">0</text></g><g class="ytick"><text text-anchor="end" x="54" y="3.5" style="font-family: 'Lucida Grande', 'Open Sans', verdana, arial, sans-serif; font-size: 10px; fill: rgb(0, 0, 0); fill-opacity: 1; white-space: pre;" transform="translate(0,381.96)">10k</text></g><g class="ytick"><text text-anchor="end" x="54" y="3.5" style="font-family: 'Lucida Grande', 'Open Sans', verdana, arial, sans-serif; font-size: 10px; fill: rgb(0, 0, 0); fill-opacity: 1; white-space: pre;" transform="translate(0,328.93)">20k</text></g><g class="ytick"><text text-anchor="end" x="54" y="3.5" style="font-family: 'Lucida Grande', 'Open Sans', verdana, arial, sans-serif; font-size: 10px; fill: rgb(0, 0, 0); fill-opacity: 1; white-space: pre;" transform="translate(0,275.89)">30k</text></g><g class="ytick"><text text-anchor="end" x="54" y="3.5" style="font-family: 'Lucida Grande', 'Open Sans', verdana, arial, sans-serif; font-size: 10px; fill: rgb(0, 0, 0); fill-opacity: 1; white-space: pre;" transform="translate(0,222.85)">40k</text></g><g class="ytick"><text text-anchor="end" x="54" y="3.5" style="font-family: 'Lucida Grande', 'Open Sans', verdana, arial, sans-serif; font-size: 10px; fill: rgb(0, 0, 0); fill-opacity: 1; white-space: pre;" transform="translate(0,169.81)">50k</text></g><g class="ytick"><text text-anchor="end" x="54" y="3.5" style="font-family: 'Lucida Grande', 'Open Sans', verdana, arial, sans-serif; font-size: 10px; fill: rgb(0, 0, 0); fill-opacity: 1; white-space: pre;" transform="translate(0,116.78)">60k</text></g><g class="ytick"><text text-anchor="end" x="54" y="3.5" style="font-family: 'Lucida Grande', 'Open Sans', verdana, arial, sans-serif; font-size: 10px; fill: rgb(0, 0, 0); fill-opacity: 1; white-space: pre;" transform="translate(0,63.74)">70k</text></g></g><g class="overaxes-above"/></g></g><g class="polarlayer"/><g class="smithlayer"/><g class="ternarylayer"/><g class="geolayer"/><g class="funnelarealayer"/><g class="pielayer"/><g class="iciclelayer"/><g class="treemaplayer"/><g class="sunburstlayer"/><g class="glimages"/><defs id="topdefs-19af9a"><g class="clips"/></defs><g class="layer-above"><g class="imagelayer"/><g class="shapelayer"/></g><g class="infolayer"><g class="g-gtitle"><text class="gtitle" x="550" y="25" text-anchor="middle" dy="0em" style="opacity: 1; font-family: 'Lucida Grande', 'Open Sans', verdana, arial, sans-serif; font-size: 20px; fill: rgb(68, 68, 68); fill-opacity: 1; white-space: pre;"><tspan class="line" dy="0em" x="550" y="25">QualiMap: RNAseq: Coverage Profile Along Genes (total)</tspan><tspan class="line" dy="1.3em" x="550" y="25">​<tspan style="font-size:70%" dy="-0.6em">Counts, 16 lines</tspan><tspan dy="0.42em">​</tspan></tspan></text></g><g class="g-xtitle"><text class="xtitle" x="567" y="487" text-anchor="middle" style="opacity: 0.3; font-family: 'Lucida Grande', 'Open Sans', verdana, arial, sans-serif; font-size: 14px; fill: rgb(0, 0, 0); fill-opacity: 1; white-space: pre;">Transcript Position 5'->3' (%)</text></g><g class="g-ytitle"><text class="ytitle" transform="rotate(-90,22,242.5)" x="22" y="242.5" text-anchor="middle" style="opacity: 0.3; font-family: 'Lucida Grande', 'Open Sans', verdana, arial, sans-serif; font-size: 14px; fill: rgb(0, 0, 0); fill-opacity: 1; white-space: pre;">Cumulative mapped-read depth</text></g></g></svg>