<svg class="main-svg" xmlns="http://www.w3.org/2000/svg" xmlns:xlink="http://www.w3.org/1999/xlink" width="2200" height="1000" style="" viewBox="0 0 1100 500"><rect x="0" y="0" width="1100" height="500" style="fill: rgb(255, 255, 255); fill-opacity: 1;"/><defs id="defs-9477eb"><g class="clips"><clipPath id="clip9477ebxyplot" class="plotclip"><rect width="1025" height="385"/></clipPath><clipPath class="axesclip" id="clip9477ebx"><rect x="60" y="0" width="1025" height="500"/></clipPath><clipPath class="axesclip" id="clip9477eby"><rect x="0" y="50" width="1100" height="385"/></clipPath><clipPath class="axesclip" id="clip9477ebxy"><rect x="60" y="50" width="1025" height="385"/></clipPath></g><g class="gradients"/><g class="patterns"/></defs><g class="bglayer"/><g class="layer-below"><g class="imagelayer"/><g class="shapelayer"/></g><g class="cartesianlayer"><g class="subplot xy"><g class="layer-subplot"><g class="shapelayer"/><g class="imagelayer"/></g><g class="minor-gridlayer"><g class="x"/><g class="y"/></g><g class="gridlayer"><g class="x"><path class="xgrid crisp" transform="translate(158.36,0)" d="M0,50v385" style="stroke: rgb(0, 0, 0); stroke-opacity: 0.05; stroke-width: 1px;"/><path class="xgrid crisp" transform="translate(261.89,0)" d="M0,50v385" style="stroke: rgb(0, 0, 0); stroke-opacity: 0.05; stroke-width: 1px;"/><path class="xgrid crisp" transform="translate(365.43,0)" d="M0,50v385" style="stroke: rgb(0, 0, 0); stroke-opacity: 0.05; stroke-width: 1px;"/><path class="xgrid crisp" transform="translate(468.96,0)" d="M0,50v385" style="stroke: rgb(0, 0, 0); stroke-opacity: 0.05; stroke-width: 1px;"/><path class="xgrid crisp" transform="translate(676.04,0)" d="M0,50v385" style="stroke: rgb(0, 0, 0); stroke-opacity: 0.05; stroke-width: 1px;"/><path class="xgrid crisp" transform="translate(779.57,0)" d="M0,50v385" style="stroke: rgb(0, 0, 0); stroke-opacity: 0.05; stroke-width: 1px;"/><path class="xgrid crisp" transform="translate(883.11,0)" d="M0,50v385" style="stroke: rgb(0, 0, 0); stroke-opacity: 0.05; stroke-width: 1px;"/><path class="xgrid crisp" transform="translate(986.64,0)" d="M0,50v385" style="stroke: rgb(0, 0, 0); stroke-opacity: 0.05; stroke-width: 1px;"/></g><g class="y"><path class="ygrid crisp" transform="translate(0,366.84)" d="M60,0h1025" style="stroke: rgb(0, 0, 0); stroke-opacity: 0.05; stroke-width: 1px;"/><path class="ygrid crisp" transform="translate(0,317.92)" d="M60,0h1025" style="stroke: rgb(0, 0, 0); stroke-opacity: 0.05; stroke-width: 1px;"/><path class="ygrid crisp" transform="translate(0,269.01)" d="M60,0h1025" style="stroke: rgb(0, 0, 0); stroke-opacity: 0.05; stroke-width: 1px;"/><path class="ygrid crisp" transform="translate(0,220.09)" d="M60,0h1025" style="stroke: rgb(0, 0, 0); stroke-opacity: 0.05; stroke-width: 1px;"/><path class="ygrid crisp" transform="translate(0,171.18)" d="M60,0h1025" style="stroke: rgb(0, 0, 0); stroke-opacity: 0.05; stroke-width: 1px;"/><path class="ygrid crisp" transform="translate(0,122.26)" d="M60,0h1025" style="stroke: rgb(0, 0, 0); stroke-opacity: 0.05; stroke-width: 1px;"/><path class="ygrid crisp" transform="translate(0,73.35)" d="M60,0h1025" style="stroke: rgb(0, 0, 0); stroke-opacity: 0.05; stroke-width: 1px;"/></g></g><g class="zerolinelayer"><path class="xzl zl crisp" transform="translate(572.5,0)" d="M0,50v385" style="stroke: rgb(0, 0, 0); stroke-opacity: 0.05; stroke-width: 1px;"/><path class="yzl zl crisp" transform="translate(0,415.75)" d="M60,0h1025" style="stroke: rgb(0, 0, 0); stroke-opacity: 0.05; stroke-width: 1px;"/></g><g class="layer-between"><g class="shapelayer"/><g class="imagelayer"/></g><path class="xlines-below"/><path class="ylines-below"/><g class="overlines-below"/><g class="xaxislayer-below"/><g class="yaxislayer-below"/><g class="overaxes-below"/><g class="overplot"><g class="xy" transform="translate(60,50)" clip-path="url(#clip9477ebxyplot)"><g class="scatterlayer mlayer"><g class="trace scatter traceb4f3ca" style="stroke-miterlimit: 2; opacity: 1;"><g class="fills"/><g class="errorbars"/><g class="lines"><path class="js-line" d="M0,365.75L186.36,365.75L196.72,346.09L207.07,65.46L217.42,40.07L227.78,21.03L238.13,19.25L258.84,19.64L269.19,26.47L279.55,42.62L289.9,64.26L300.25,95.41L310.61,136.71L331.31,212.84L341.67,241.3L352.02,268.17L362.37,285.24L372.73,298.96L383.08,307.22L393.43,313.54L403.79,318.83L424.49,326.71L434.85,329.69L465.91,338.44L476.26,339.55L496.97,344.33L507.32,344.69L517.68,347.51L528.03,349.05L548.74,351.27L559.09,353.22L569.44,353.27L579.8,354.64L610.86,357L621.21,357.58L652.27,359.73L662.63,359.88L745.45,362.8L755.81,363.11L786.87,363.68L797.22,363.89L931.82,365.18L942.17,365.08L1025,365.38" style="vector-effect: none; fill: none; stroke: rgb(124, 181, 236); stroke-opacity: 1; stroke-width: 2px; opacity: 1;"/></g><g class="points"/><g class="text"/></g><g class="trace scatter tracefa5c5b" style="stroke-miterlimit: 2; opacity: 1;"><g class="fills"/><g class="errorbars"/><g class="lines"><path class="js-line" d="M0,365.75L186.36,365.75L196.72,353.25L207.07,158.92L217.42,134.75L227.78,123.7L238.13,114.06L248.48,117.24L258.84,108.15L269.19,110.42L279.55,102.55L289.9,106.56L300.25,98.83L310.61,104.67L320.96,100.29L331.31,115.99L341.67,118.56L352.02,147.25L362.37,160.41L372.73,201.83L383.08,227.94L393.43,265.99L403.79,290.15L414.14,311.48L424.49,322.98L434.85,330.53L445.2,334.46L465.91,340.43L476.26,342.61L496.97,346.68L507.32,346.92L517.68,349.84L528.03,351.15L569.44,356.04L579.8,356.89L600.51,358.38L610.86,358.96L662.63,361.63L672.98,361.78L745.45,363.87L755.81,364.16L776.52,364.31L786.87,364.53L962.88,365.52L973.23,365.54L1025,365.55" style="vector-effect: none; fill: none; stroke: rgb(67, 67, 72); stroke-opacity: 1; stroke-width: 2px; opacity: 1;"/></g><g class="points"/><g class="text"/></g><g class="trace scatter tracee3e59e" style="stroke-miterlimit: 2; opacity: 1;"><g class="fills"/><g class="errorbars"/><g class="lines"><path class="js-line" d="M0,365.75L186.36,365.75L196.72,353.93L207.07,204.49L217.42,180.76L227.78,160.55L238.13,158.03L248.48,157.74L258.84,154.46L289.9,152.26L300.25,154.79L310.61,154.31L320.96,161.2L331.31,168.16L341.67,167.14L352.02,185.15L362.37,189.03L372.73,207.69L383.08,220.76L403.79,259.41L414.14,272.61L424.49,284.82L434.85,294.83L445.2,304.51L455.56,312.27L465.91,316.87L476.26,318.17L486.62,320.61L496.97,319.16L507.32,297.45L517.68,330.63L528.03,328.81L538.38,331.17L548.74,335.2L559.09,336.21L569.44,341.35L579.8,342.98L600.51,345.2L610.86,346.52L621.21,345.3L631.57,347.95L662.63,352.4L672.98,352.35L683.33,353.84L693.69,353.71L714.39,355.6L724.75,357.07L755.81,358.73L766.16,358.31L776.52,359.7L786.87,360.25L828.28,361.43L838.64,361.91L880.05,362.69L890.4,362.97L931.82,363.66L942.17,364L973.23,364.14L983.59,364.27L1025,364.49" style="vector-effect: none; fill: none; stroke: rgb(144, 237, 125); stroke-opacity: 1; stroke-width: 2px; opacity: 1;"/></g><g class="points"/><g class="text"/></g><g class="trace scatter tracefe81b9" style="stroke-miterlimit: 2; opacity: 1;"><g class="fills"/><g class="errorbars"/><g class="lines"><path class="js-line" d="M0,365.75L186.36,365.75L196.72,354.76L207.07,151.83L217.42,130.95L227.78,126.95L238.13,124.71L248.48,127.65L258.84,131.51L269.19,131.97L279.55,140.27L289.9,144.86L300.25,154.07L310.61,161.31L320.96,173.16L331.31,183.63L341.67,198.24L362.37,226.36L372.73,241.3L383.08,252.59L393.43,266.01L403.79,273.39L414.14,281.85L434.85,291.83L445.2,297.64L486.62,313.61L496.97,318.69L507.32,319.25L517.68,325.12L569.44,339.67L579.8,340.08L590.15,343.1L600.51,345.07L621.21,348.6L631.57,349.81L652.27,352.44L662.63,354.01L672.98,354.52L683.33,355.84L755.81,360.3L766.16,360.67L828.28,362.69L838.64,362.89L890.4,364.01L900.76,364.03L1004.29,365.03L1014.65,364.96L1025,365.1" style="vector-effect: none; fill: none; stroke: rgb(247, 163, 92); stroke-opacity: 1; stroke-width: 2px; opacity: 1;"/></g><g class="points"/><g class="text"/></g><g class="trace scatter trace74379d" style="stroke-miterlimit: 2; opacity: 1;"><g class="fills"/><g class="errorbars"/><g class="lines"><path class="js-line" d="M0,365.75L186.36,365.75L196.72,350.53L207.07,118.98L217.42,92.39L227.78,69.46L238.13,70.87L248.48,71.01L258.84,74.6L269.19,74.37L279.55,80.78L289.9,85.25L300.25,93.06L310.61,105.19L320.96,112.93L331.31,134.26L341.67,147.21L352.02,174.05L362.37,193.73L372.73,228.3L383.08,252.88L393.43,283.19L403.79,304.15L414.14,322.91L424.49,332.97L434.85,338.98L445.2,343.57L455.56,346.1L465.91,347.32L476.26,350L486.62,350.87L496.97,352.83L507.32,349.57L517.68,355.7L528.03,356.41L569.44,359.48L579.8,360.09L652.27,363.02L662.63,363.19L735.1,364.54L745.45,364.72L952.53,365.63L962.88,365.57L1025,365.63" style="vector-effect: none; fill: none; stroke: rgb(128, 133, 233); stroke-opacity: 1; stroke-width: 2px; opacity: 1;"/></g><g class="points"/><g class="text"/></g><g class="trace scatter traceab1a71" style="stroke-miterlimit: 2; opacity: 1;"><g class="fills"/><g class="errorbars"/><g class="lines"><path class="js-line" d="M0,365.75L186.36,365.75L196.72,351.96L207.07,117.82L217.42,96.06L227.78,92.78L238.13,93.13L248.48,96.53L258.84,101.58L279.55,114.58L289.9,123.2L310.61,146.54L320.96,161.38L331.31,173.33L341.67,189.45L383.08,260.13L393.43,273.81L403.79,285.84L414.14,294.86L424.49,301.72L434.85,307.31L445.2,313.49L455.56,317.08L476.26,324.89L486.62,328.1L496.97,331.04L507.32,332.03L517.68,337.28L528.03,339.33L538.38,341.65L548.74,344.77L559.09,345.63L569.44,348.08L621.21,354.55L631.57,355.15L641.92,356.77L652.27,357.25L662.63,358.31L672.98,358.3L693.69,359.94L704.04,360.44L766.16,362.65L776.52,362.7L786.87,363.56L797.22,363.63L838.64,363.94L848.99,364.08L931.82,364.98L942.17,364.9L1025,365.41" style="vector-effect: none; fill: none; stroke: rgb(241, 92, 128); stroke-opacity: 1; stroke-width: 2px; opacity: 1;"/></g><g class="points"/><g class="text"/></g><g class="trace scatter trace627011" style="stroke-miterlimit: 2; opacity: 1;"><g class="fills"/><g class="errorbars"/><g class="lines"><path class="js-line" d="M0,365.75L186.36,365.75L196.72,356.48L207.07,170.38L217.42,150.85L248.48,143.01L258.84,143.21L269.19,145L279.55,143.95L289.9,144.17L300.25,147.99L310.61,150.41L320.96,160.81L331.31,165.69L341.67,176.85L352.02,189.97L362.37,201.67L372.73,220.7L383.08,235.96L393.43,254.42L403.79,265.99L414.14,279.4L424.49,286.85L434.85,295.41L445.2,301.3L455.56,307.61L465.91,312.04L486.62,319.98L496.97,322.91L507.32,312.94L517.68,327.51L528.03,330.44L538.38,332.04L548.74,333.14L559.09,336.51L569.44,340.22L579.8,342.28L590.15,343.27L600.51,346.24L610.86,348.21L621.21,349.15L631.57,349.66L641.92,353.3L652.27,352.36L662.63,355.24L672.98,354.82L683.33,356.33L704.04,357.63L714.39,358.42L776.52,361.54L786.87,361.77L797.22,362.21L807.58,361.77L838.64,363.27L848.99,363.26L869.7,363.57L880.05,363.58L911.11,364.21L921.46,364.27L993.94,365.06L1004.29,365.1L1025,365.23" style="vector-effect: none; fill: none; stroke: rgb(228, 211, 84); stroke-opacity: 1; stroke-width: 2px; opacity: 1;"/></g><g class="points"/><g class="text"/></g><g class="trace scatter trace91e899" style="stroke-miterlimit: 2; opacity: 1;"><g class="fills"/><g class="errorbars"/><g class="lines"><path class="js-line" d="M0,365.75L186.36,365.75L196.72,353.57L207.07,154.49L217.42,130.93L227.78,124.56L238.13,120.32L248.48,123L258.84,121.56L269.19,125.7L279.55,125.94L289.9,131.83L300.25,135.32L310.61,140.26L320.96,148.39L331.31,159.73L341.67,167.61L352.02,186.01L362.37,195.08L372.73,219.34L383.08,238.03L393.43,260.88L403.79,276.59L414.14,291.78L424.49,300.15L445.2,312.56L455.56,316.08L465.91,320.75L476.26,322.85L486.62,325.32L496.97,328.85L507.32,324.1L517.68,334.02L528.03,338.03L538.38,340.03L548.74,342.11L559.09,345.2L579.8,348.18L590.15,350.04L600.51,351.76L610.86,352.68L621.21,354.27L631.57,355.07L683.33,359.12L693.69,359.23L724.75,361.18L735.1,361.87L838.64,363.96L848.99,363.71L890.4,364.63L900.76,364.57L952.53,364.94L962.88,365.02L1025,365.28" style="vector-effect: none; fill: none; stroke: rgb(43, 144, 143); stroke-opacity: 1; stroke-width: 2px; opacity: 1;"/></g><g class="points"/><g class="text"/></g><g class="trace scatter trace446dbf" style="stroke-miterlimit: 2; opacity: 1;"><g class="fills"/><g class="errorbars"/><g class="lines"><path class="js-line" d="M0,365.75L186.36,365.75L196.72,351.09L207.07,142.01L217.42,116.46L227.78,98.89L238.13,93.19L248.48,93.37L258.84,87.68L269.19,87L279.55,81.65L289.9,85.65L300.25,81.8L310.61,88.53L320.96,89.17L331.31,111.57L341.67,119.49L352.02,149.68L362.37,170.18L372.73,214.6L383.08,243.18L393.43,277.45L403.79,301.12L414.14,321.36L424.49,332.01L445.2,343.48L455.56,346.19L496.97,354.82L507.32,349.37L517.68,357.47L528.03,358.8L600.51,362.69L610.86,362.8L662.63,364.26L672.98,364.37L714.39,364.82L724.75,365.08L1025,365.68" style="vector-effect: none; fill: none; stroke: rgb(244, 91, 91); stroke-opacity: 1; stroke-width: 2px; opacity: 1;"/></g><g class="points"/><g class="text"/></g><g class="trace scatter trace724938" style="stroke-miterlimit: 2; opacity: 1;"><g class="fills"/><g class="errorbars"/><g class="lines"><path class="js-line" d="M0,365.75L186.36,365.75L196.72,349.54L207.07,80.15L217.42,48.62L227.78,40.46L238.13,40.65L248.48,51.84L258.84,54.33L269.19,68.06L279.55,78.8L289.9,97.4L300.25,111.27L310.61,130.76L320.96,147.54L331.31,171.1L341.67,185.98L352.02,212.82L362.37,228.89L372.73,255.31L383.08,271.5L393.43,292.6L403.79,307.07L414.14,319.66L424.49,327.78L445.2,336.26L455.56,338.57L465.91,342.02L476.26,343.96L496.97,348.05L507.32,344.61L517.68,351.14L528.03,352.52L569.44,356.82L579.8,357.66L621.21,360.27L631.57,360.81L672.98,362.42L683.33,362.49L714.39,363.34L724.75,363.58L786.87,364.69L797.22,364.79L993.94,365.58L1004.29,365.57L1025,365.56" style="vector-effect: none; fill: none; stroke: rgb(145, 232, 225); stroke-opacity: 1; stroke-width: 2px; opacity: 1;"/></g><g class="points"/><g class="text"/></g><g class="trace scatter traced646f2" style="stroke-miterlimit: 2; opacity: 1;"><g class="fills"/><g class="errorbars"/><g class="lines"><path class="js-line" d="M0,365.75L186.36,365.75L196.72,351.43L207.07,125.69L217.42,99.28L227.78,92.51L238.13,95.44L248.48,104.47L258.84,109.09L269.19,122.52L279.55,129.28L289.9,145.91L300.25,156.47L310.61,173.02L320.96,184.07L331.31,200.63L341.67,210.87L352.02,224.8L362.37,234.73L372.73,247.45L383.08,255.97L393.43,267.36L403.79,273.95L414.14,282.41L424.49,288.26L434.85,296.2L445.2,300.37L465.91,309.09L476.26,314.45L486.62,319.47L496.97,322.12L507.32,319.6L517.68,329.64L528.03,332.72L538.38,334.94L569.44,343.01L579.8,344.8L631.57,352.8L641.92,353.49L672.98,356.6L683.33,357.53L766.16,361.66L776.52,361.93L797.22,362.55L807.58,362.86L942.17,364.81L952.53,364.79L1025,365.25" style="vector-effect: none; fill: none; stroke: rgb(124, 181, 236); stroke-opacity: 1; stroke-width: 2px; opacity: 1;"/></g><g class="points"/><g class="text"/></g><g class="trace scatter trace518f3f" style="stroke-miterlimit: 2; opacity: 1;"><g class="fills"/><g class="errorbars"/><g class="lines"><path class="js-line" d="M0,365.75L186.36,365.75L196.72,349.29L207.07,90.79L217.42,61.23L227.78,48.06L238.13,49.51L248.48,65.25L258.84,73.77L269.19,91.89L279.55,107.34L289.9,127.75L300.25,145.44L310.61,166.79L320.96,180.83L331.31,203.8L341.67,218.93L352.02,237.24L362.37,248.83L372.73,263.78L383.08,271.95L393.43,283.91L403.79,294.12L414.14,301.43L424.49,306.53L445.2,315.39L455.56,318.69L496.97,330.72L507.32,329.55L517.68,337.24L528.03,339.9L538.38,341.12L548.74,343.97L610.86,353.28L621.21,354.12L672.98,358.46L683.33,359.25L724.75,361.44L735.1,361.71L848.99,364.6L859.34,364.6L911.11,364.89L921.46,365.14L952.53,365.18L962.88,365.26L1025,365.39" style="vector-effect: none; fill: none; stroke: rgb(67, 67, 72); stroke-opacity: 1; stroke-width: 2px; opacity: 1;"/></g><g class="points"/><g class="text"/></g><g class="trace scatter tracec50b6d" style="stroke-miterlimit: 2; opacity: 1;"><g class="fills"/><g class="errorbars"/><g class="lines"><path class="js-line" d="M0,365.75L186.36,365.75L196.72,354.26L207.07,143.69L217.42,120.89L227.78,115.3L238.13,113.54L248.48,113.86L258.84,118.57L269.19,118.99L279.55,123.37L300.25,137.88L310.61,141.59L320.96,154.6L331.31,164.91L341.67,176.88L352.02,194.94L362.37,210.97L372.73,230.29L393.43,262.08L403.79,274.75L414.14,285.69L424.49,292.97L434.85,300.32L445.2,306.71L465.91,317.98L476.26,321.54L496.97,329.81L507.32,325.84L517.68,336.01L528.03,337.91L569.44,347.46L579.8,349.03L621.21,355.55L631.57,355.45L652.27,357.84L662.63,358.41L755.81,362.73L766.16,362.7L973.23,365.3L983.59,365.3L1025,365.49" style="vector-effect: none; fill: none; stroke: rgb(144, 237, 125); stroke-opacity: 1; stroke-width: 2px; opacity: 1;"/></g><g class="points"/><g class="text"/></g><g class="trace scatter trace689c2c" style="stroke-miterlimit: 2; opacity: 1;"><g class="fills"/><g class="errorbars"/><g class="lines"><path class="js-line" d="M0,365.75L186.36,365.75L196.72,353.4L207.07,139.67L217.42,121.6L227.78,117.52L238.13,119.46L248.48,117.84L258.84,122.16L269.19,123.5L279.55,129.94L289.9,136.86L300.25,145.77L310.61,153.28L320.96,166.31L331.31,174.05L341.67,189.22L352.02,200.65L362.37,215.62L372.73,233.49L383.08,248.69L403.79,277.85L414.14,288.5L424.49,296.94L434.85,302.4L445.2,305.92L455.56,310.37L476.26,319.12L486.62,322.34L496.97,325.39L507.32,326.74L517.68,332.48L528.03,334.65L538.38,336.79L548.74,339.97L621.21,351.45L631.57,351.9L652.27,354.84L662.63,355.22L683.33,357.28L693.69,357.17L714.39,359L724.75,359.13L735.1,360.16L745.45,360.23L776.52,361.74L786.87,361.93L828.28,362.87L838.64,363.08L911.11,364.34L921.46,364.28L983.59,364.77L993.94,364.76L1025,364.98" style="vector-effect: none; fill: none; stroke: rgb(247, 163, 92); stroke-opacity: 1; stroke-width: 2px; opacity: 1;"/></g><g class="points"/><g class="text"/></g><g class="trace scatter traceba47cb" style="stroke-miterlimit: 2; opacity: 1;"><g class="fills"/><g class="errorbars"/><g class="lines"><path class="js-line" d="M0,365.75L186.36,365.75L196.72,353.85L207.07,129.56L217.42,107.56L227.78,102.19L238.13,101.14L248.48,99.82L258.84,102.18L269.19,100.09L279.55,103.44L289.9,108.09L300.25,114.3L310.61,120.24L320.96,130.1L331.31,141.69L341.67,156.86L362.37,193.05L372.73,220.89L383.08,241.04L393.43,273.12L403.79,293.11L414.14,310.46L424.49,320.54L434.85,325.51L445.2,329.88L455.56,332.98L465.91,334.54L476.26,337.7L496.97,341.18L507.32,343.02L517.68,345.62L528.03,346.97L538.38,349.11L548.74,350.11L579.8,353.66L590.15,354.63L610.86,356.52L621.21,357.07L652.27,359.41L662.63,359.73L693.69,361.43L704.04,361.68L848.99,364.62L859.34,364.64L890.4,364.88L900.76,365.05L1025,365.49" style="vector-effect: none; fill: none; stroke: rgb(128, 133, 233); stroke-opacity: 1; stroke-width: 2px; opacity: 1;"/></g><g class="points"/><g class="text"/></g><g class="trace scatter tracec503b8" style="stroke-miterlimit: 2; opacity: 1;"><g class="fills"/><g class="errorbars"/><g class="lines"><path class="js-line" d="M0,365.75L186.36,365.75L196.72,352.63L207.07,134.47L217.42,115.69L227.78,107.96L238.13,103.64L248.48,103.22L258.84,106.27L269.19,104.67L279.55,107.73L289.9,109.06L300.25,115.11L310.61,119.87L320.96,128.79L331.31,139.66L341.67,152.48L352.02,172.49L362.37,186.72L372.73,216.86L383.08,239.35L393.43,271.68L403.79,293.8L414.14,311.84L424.49,320.21L434.85,327L445.2,330.29L455.56,332.39L465.91,335.33L486.62,339.44L496.97,342.18L507.32,341.89L517.68,345.26L528.03,346.19L538.38,347.89L590.15,353.92L600.51,354.8L662.63,359.48L672.98,359.76L766.16,363.34L776.52,363.29L828.28,364.11L838.64,364.29L890.4,364.9L900.76,364.88L973.23,365.27L983.59,365.29L1025,365.48" style="vector-effect: none; fill: none; stroke: rgb(241, 92, 128); stroke-opacity: 1; stroke-width: 2px; opacity: 1;"/></g><g class="points"/><g class="text"/></g></g></g></g><g class="zerolinelayer-above"/><path class="xlines-above crisp" d="M0,0" style="fill: none;"/><path class="ylines-above crisp" d="M0,0" style="fill: none;"/><g class="overlines-above"/><g class="xaxislayer-above"><g class="xtick"><text text-anchor="middle" x="0" y="451" transform="translate(158.36,0)" style="font-family: 'Lucida Grande', 'Open Sans', verdana, arial, sans-serif; font-size: 10px; fill: rgb(0, 0, 0); fill-opacity: 1; white-space: pre;">−200 bp</text></g><g class="xtick"><text text-anchor="middle" x="0" y="451" style="font-family: 'Lucida Grande', 'Open Sans', verdana, arial, sans-serif; font-size: 10px; fill: rgb(0, 0, 0); fill-opacity: 1; white-space: pre;" transform="translate(261.89,0)">−150 bp</text></g><g class="xtick"><text text-anchor="middle" x="0" y="451" style="font-family: 'Lucida Grande', 'Open Sans', verdana, arial, sans-serif; font-size: 10px; fill: rgb(0, 0, 0); fill-opacity: 1; white-space: pre;" transform="translate(365.43,0)">−100 bp</text></g><g class="xtick"><text text-anchor="middle" x="0" y="451" style="font-family: 'Lucida Grande', 'Open Sans', verdana, arial, sans-serif; font-size: 10px; fill: rgb(0, 0, 0); fill-opacity: 1; white-space: pre;" transform="translate(468.96,0)">−50 bp</text></g><g class="xtick"><text text-anchor="middle" x="0" y="451" style="font-family: 'Lucida Grande', 'Open Sans', verdana, arial, sans-serif; font-size: 10px; fill: rgb(0, 0, 0); fill-opacity: 1; white-space: pre;" transform="translate(572.5,0)">0 bp</text></g><g class="xtick"><text text-anchor="middle" x="0" y="451" style="font-family: 'Lucida Grande', 'Open Sans', verdana, arial, sans-serif; font-size: 10px; fill: rgb(0, 0, 0); fill-opacity: 1; white-space: pre;" transform="translate(676.04,0)">50 bp</text></g><g class="xtick"><text text-anchor="middle" x="0" y="451" style="font-family: 'Lucida Grande', 'Open Sans', verdana, arial, sans-serif; font-size: 10px; fill: rgb(0, 0, 0); fill-opacity: 1; white-space: pre;" transform="translate(779.57,0)">100 bp</text></g><g class="xtick"><text text-anchor="middle" x="0" y="451" style="font-family: 'Lucida Grande', 'Open Sans', verdana, arial, sans-serif; font-size: 10px; fill: rgb(0, 0, 0); fill-opacity: 1; white-space: pre;" transform="translate(883.11,0)">150 bp</text></g><g class="xtick"><text text-anchor="middle" x="0" y="451" style="font-family: 'Lucida Grande', 'Open Sans', verdana, arial, sans-serif; font-size: 10px; fill: rgb(0, 0, 0); fill-opacity: 1; white-space: pre;" transform="translate(986.64,0)">200 bp</text></g></g><g class="yaxislayer-above"><g class="ytick"><text text-anchor="end" x="54" y="3.5" transform="translate(0,415.75)" style="font-family: 'Lucida Grande', 'Open Sans', verdana, arial, sans-serif; font-size: 10px; fill: rgb(0, 0, 0); fill-opacity: 1; white-space: pre;">0%</text></g><g class="ytick"><text text-anchor="end" x="54" y="3.5" style="font-family: 'Lucida Grande', 'Open Sans', verdana, arial, sans-serif; font-size: 10px; fill: rgb(0, 0, 0); fill-opacity: 1; white-space: pre;" transform="translate(0,366.84)">1%</text></g><g class="ytick"><text text-anchor="end" x="54" y="3.5" style="font-family: 'Lucida Grande', 'Open Sans', verdana, arial, sans-serif; font-size: 10px; fill: rgb(0, 0, 0); fill-opacity: 1; white-space: pre;" transform="translate(0,317.92)">2%</text></g><g class="ytick"><text text-anchor="end" x="54" y="3.5" style="font-family: 'Lucida Grande', 'Open Sans', verdana, arial, sans-serif; font-size: 10px; fill: rgb(0, 0, 0); fill-opacity: 1; white-space: pre;" transform="translate(0,269.01)">3%</text></g><g class="ytick"><text text-anchor="end" x="54" y="3.5" style="font-family: 'Lucida Grande', 'Open Sans', verdana, arial, sans-serif; font-size: 10px; fill: rgb(0, 0, 0); fill-opacity: 1; white-space: pre;" transform="translate(0,220.09)">4%</text></g><g class="ytick"><text text-anchor="end" x="54" y="3.5" style="font-family: 'Lucida Grande', 'Open Sans', verdana, arial, sans-serif; font-size: 10px; fill: rgb(0, 0, 0); fill-opacity: 1; white-space: pre;" transform="translate(0,171.18)">5%</text></g><g class="ytick"><text text-anchor="end" x="54" y="3.5" style="font-family: 'Lucida Grande', 'Open Sans', verdana, arial, sans-serif; font-size: 10px; fill: rgb(0, 0, 0); fill-opacity: 1; white-space: pre;" transform="translate(0,122.26)">6%</text></g><g class="ytick"><text text-anchor="end" x="54" y="3.5" style="font-family: 'Lucida Grande', 'Open Sans', verdana, arial, sans-serif; font-size: 10px; fill: rgb(0, 0, 0); fill-opacity: 1; white-space: pre;" transform="translate(0,73.35)">7%</text></g></g><g class="overaxes-above"/></g></g><g class="polarlayer"/><g class="smithlayer"/><g class="ternarylayer"/><g class="geolayer"/><g class="funnelarealayer"/><g class="pielayer"/><g class="iciclelayer"/><g class="treemaplayer"/><g class="sunburstlayer"/><g class="glimages"/><defs id="topdefs-9477eb"><g class="clips"/></defs><g class="layer-above"><g class="imagelayer"/><g class="shapelayer"/></g><g class="infolayer"><g class="g-gtitle"><text class="gtitle" x="550" y="25" text-anchor="middle" dy="0em" style="opacity: 1; font-family: 'Lucida Grande', 'Open Sans', verdana, arial, sans-serif; font-size: 20px; fill: rgb(68, 68, 68); fill-opacity: 1; white-space: pre;"><tspan class="line" dy="0em" x="550" y="25">RSeQC: Inner Distance</tspan><tspan class="line" dy="1.3em" x="550" y="25">​<tspan style="font-size:70%" dy="-0.6em">Percentages, 16 lines</tspan><tspan dy="0.42em">​</tspan></tspan></text></g><g class="g-xtitle"><text class="xtitle" x="572.5" y="487" text-anchor="middle" style="opacity: 0.3; font-family: 'Lucida Grande', 'Open Sans', verdana, arial, sans-serif; font-size: 14px; fill: rgb(0, 0, 0); fill-opacity: 1; white-space: pre;">Inner Distance (bp)</text></g><g class="g-ytitle"><text class="ytitle" transform="rotate(-90,22,242.5)" x="22" y="242.5" text-anchor="middle" style="opacity: 0.3; font-family: 'Lucida Grande', 'Open Sans', verdana, arial, sans-serif; font-size: 14px; fill: rgb(0, 0, 0); fill-opacity: 1; white-space: pre;">Percentage</text></g></g></svg>