<svg class="main-svg" xmlns="http://www.w3.org/2000/svg" xmlns:xlink="http://www.w3.org/1999/xlink" width="2200" height="1000" style="" viewBox="0 0 1100 500"><rect x="0" y="0" width="1100" height="500" style="fill: rgb(255, 255, 255); fill-opacity: 1;"/><defs id="defs-6c04b0"><g class="clips"><clipPath id="clip6c04b0xyplot" class="plotclip"><rect width="1025" height="385"/></clipPath><clipPath class="axesclip" id="clip6c04b0x"><rect x="60" y="0" width="1025" height="500"/></clipPath><clipPath class="axesclip" id="clip6c04b0y"><rect x="0" y="50" width="1100" height="385"/></clipPath><clipPath class="axesclip" id="clip6c04b0xy"><rect x="60" y="50" width="1025" height="385"/></clipPath></g><g class="gradients"/><g class="patterns"/></defs><g class="bglayer"/><g class="layer-below"><g class="imagelayer"/><g class="shapelayer"/></g><g class="cartesianlayer"><g class="subplot xy"><g class="layer-subplot"><g class="shapelayer"/><g class="imagelayer"/></g><g class="minor-gridlayer"><g class="x"/><g class="y"/></g><g class="gridlayer"><g class="x"><path class="xgrid crisp" transform="translate(158.36,0)" d="M0,50v385" style="stroke: rgb(0, 0, 0); stroke-opacity: 0.05; stroke-width: 1px;"/><path class="xgrid crisp" transform="translate(261.89,0)" d="M0,50v385" style="stroke: rgb(0, 0, 0); stroke-opacity: 0.05; stroke-width: 1px;"/><path class="xgrid crisp" transform="translate(365.43,0)" d="M0,50v385" style="stroke: rgb(0, 0, 0); stroke-opacity: 0.05; stroke-width: 1px;"/><path class="xgrid crisp" transform="translate(468.96,0)" d="M0,50v385" style="stroke: rgb(0, 0, 0); stroke-opacity: 0.05; stroke-width: 1px;"/><path class="xgrid crisp" transform="translate(676.04,0)" d="M0,50v385" style="stroke: rgb(0, 0, 0); stroke-opacity: 0.05; stroke-width: 1px;"/><path class="xgrid crisp" transform="translate(779.57,0)" d="M0,50v385" style="stroke: rgb(0, 0, 0); stroke-opacity: 0.05; stroke-width: 1px;"/><path class="xgrid crisp" transform="translate(883.11,0)" d="M0,50v385" style="stroke: rgb(0, 0, 0); stroke-opacity: 0.05; stroke-width: 1px;"/><path class="xgrid crisp" transform="translate(986.64,0)" d="M0,50v385" style="stroke: rgb(0, 0, 0); stroke-opacity: 0.05; stroke-width: 1px;"/></g><g class="y"><path class="ygrid crisp" transform="translate(0,366.69)" d="M60,0h1025" style="stroke: rgb(0, 0, 0); stroke-opacity: 0.05; stroke-width: 1px;"/><path class="ygrid crisp" transform="translate(0,317.63)" d="M60,0h1025" style="stroke: rgb(0, 0, 0); stroke-opacity: 0.05; stroke-width: 1px;"/><path class="ygrid crisp" transform="translate(0,268.57)" d="M60,0h1025" style="stroke: rgb(0, 0, 0); stroke-opacity: 0.05; stroke-width: 1px;"/><path class="ygrid crisp" transform="translate(0,219.51)" d="M60,0h1025" style="stroke: rgb(0, 0, 0); stroke-opacity: 0.05; stroke-width: 1px;"/><path class="ygrid crisp" transform="translate(0,170.45)" d="M60,0h1025" style="stroke: rgb(0, 0, 0); stroke-opacity: 0.05; stroke-width: 1px;"/><path class="ygrid crisp" transform="translate(0,121.39)" d="M60,0h1025" style="stroke: rgb(0, 0, 0); stroke-opacity: 0.05; stroke-width: 1px;"/><path class="ygrid crisp" transform="translate(0,72.33)" d="M60,0h1025" style="stroke: rgb(0, 0, 0); stroke-opacity: 0.05; stroke-width: 1px;"/></g></g><g class="zerolinelayer"><path class="xzl zl crisp" transform="translate(572.5,0)" d="M0,50v385" style="stroke: rgb(0, 0, 0); stroke-opacity: 0.05; stroke-width: 1px;"/><path class="yzl zl crisp" transform="translate(0,415.75)" d="M60,0h1025" style="stroke: rgb(0, 0, 0); stroke-opacity: 0.05; stroke-width: 1px;"/></g><g class="layer-between"><g class="shapelayer"/><g class="imagelayer"/></g><path class="xlines-below"/><path class="ylines-below"/><g class="overlines-below"/><g class="xaxislayer-below"/><g class="yaxislayer-below"/><g class="overaxes-below"/><g class="overplot"><g class="xy" transform="translate(60,50)" clip-path="url(#clip6c04b0xyplot)"><g class="scatterlayer mlayer"><g class="trace scatter tracea8252a" style="stroke-miterlimit: 2; opacity: 1;"><g class="fills"/><g class="errorbars"/><g class="lines"><path class="js-line" d="M0,365.75L186.36,365.75L196.72,346.09L207.07,65.46L217.42,40.07L227.78,21.03L238.13,19.25L258.84,19.64L269.19,26.47L279.55,42.62L289.9,64.26L300.25,95.41L310.61,136.71L331.31,212.84L341.67,241.3L352.02,268.17L362.37,285.24L372.73,298.96L383.08,307.22L393.43,313.54L403.79,318.83L424.49,326.71L434.85,329.69L465.91,338.44L476.26,339.55L496.97,344.33L507.32,344.69L517.68,347.51L528.03,349.05L548.74,351.27L559.09,353.22L569.44,353.27L579.8,354.64L610.86,357L621.21,357.58L652.27,359.73L662.63,359.88L745.45,362.8L755.81,363.11L786.87,363.68L797.22,363.89L931.82,365.18L942.17,365.08L1025,365.38" style="vector-effect: none; fill: none; stroke: rgb(124, 181, 236); stroke-opacity: 1; stroke-width: 2px; opacity: 1;"/></g><g class="points"/><g class="text"/></g><g class="trace scatter trace1d4e05" style="stroke-miterlimit: 2; opacity: 1;"><g class="fills"/><g class="errorbars"/><g class="lines"><path class="js-line" d="M0,365.75L186.36,365.75L196.72,353.24L207.07,158.74L217.42,134.55L227.78,123.49L238.13,113.84L248.48,117.02L258.84,107.93L269.19,110.2L279.55,102.32L289.9,106.33L300.25,98.59L310.61,104.44L320.96,100.06L331.31,115.78L341.67,118.35L352.02,147.06L362.37,160.23L372.73,201.69L383.08,227.82L393.43,265.9L403.79,290.08L414.14,311.44L424.49,322.94L434.85,330.5L445.2,334.43L465.91,340.41L476.26,342.59L496.97,346.67L507.32,346.9L517.68,349.83L528.03,351.14L569.44,356.04L579.8,356.88L600.51,358.37L610.86,358.96L662.63,361.63L672.98,361.78L755.81,364.16L766.16,364.03L807.58,364.42L817.93,364.66L890.4,365.27L900.76,365.31L983.59,365.49L993.94,365.55L1025,365.55" style="vector-effect: none; fill: none; stroke: rgb(67, 67, 72); stroke-opacity: 1; stroke-width: 2px; opacity: 1;"/></g><g class="points"/><g class="text"/></g><g class="trace scatter trace22800c" style="stroke-miterlimit: 2; opacity: 1;"><g class="fills"/><g class="errorbars"/><g class="lines"><path class="js-line" d="M0,365.75L186.36,365.75L196.72,354.05L207.07,206.18L217.42,182.7L227.78,162.71L238.13,160.21L248.48,159.92L258.84,156.67L289.9,154.5L300.25,157.01L310.61,156.52L320.96,163.34L331.31,170.23L341.67,169.22L352.02,187.04L362.37,190.88L372.73,209.35L383.08,222.28L403.79,260.52L414.14,273.59L424.49,285.66L434.85,295.57L445.2,305.15L455.56,312.83L465.91,317.38L476.26,318.67L486.62,321.08L496.97,319.65L507.32,298.17L517.68,331L528.03,329.2L538.38,331.53L548.74,335.52L559.09,336.52L569.44,341.61L579.8,343.22L600.51,345.42L610.86,346.72L621.21,345.52L631.57,348.14L662.63,352.54L672.98,352.49L683.33,353.97L693.69,353.83L714.39,355.71L724.75,357.16L755.81,358.8L766.16,358.39L776.52,359.76L786.87,360.31L828.28,361.48L838.64,361.95L880.05,362.72L890.4,363L931.82,363.68L942.17,364.02L973.23,364.16L983.59,364.28L1025,364.5" style="vector-effect: none; fill: none; stroke: rgb(144, 237, 125); stroke-opacity: 1; stroke-width: 2px; opacity: 1;"/></g><g class="points"/><g class="text"/></g><g class="trace scatter trace875394" style="stroke-miterlimit: 2; opacity: 1;"><g class="fills"/><g class="errorbars"/><g class="lines"><path class="js-line" d="M0,365.75L186.36,365.75L196.72,354.78L207.07,152.19L217.42,131.35L227.78,127.35L238.13,125.12L248.48,128.05L258.84,131.91L269.19,132.37L279.55,140.65L289.9,145.23L300.25,154.43L310.61,161.66L320.96,173.48L331.31,183.93L341.67,198.52L362.37,226.6L372.73,241.51L383.08,252.78L393.43,266.18L403.79,273.54L414.14,281.99L434.85,291.95L445.2,297.76L486.62,313.7L496.97,318.77L507.32,319.33L517.68,325.19L569.44,339.71L579.8,340.12L590.15,343.14L600.51,345.1L621.21,348.63L631.57,349.83L641.92,351.53L652.27,352.46L662.63,354.03L672.98,354.53L693.69,356.52L704.04,357.14L755.81,360.3L766.16,360.68L848.99,363.26L859.34,363.38L900.76,364.03L911.11,364.2L973.23,364.87L983.59,364.85L1025,365.1" style="vector-effect: none; fill: none; stroke: rgb(247, 163, 92); stroke-opacity: 1; stroke-width: 2px; opacity: 1;"/></g><g class="points"/><g class="text"/></g><g class="trace scatter trace08dd52" style="stroke-miterlimit: 2; opacity: 1;"><g class="fills"/><g class="errorbars"/><g class="lines"><path class="js-line" d="M0,365.75L186.36,365.75L196.72,350.51L207.07,118.54L217.42,91.9L227.78,68.93L238.13,70.35L248.48,70.49L258.84,74.08L269.19,73.85L279.55,80.27L289.9,84.75L300.25,92.57L310.61,104.72L320.96,112.48L331.31,133.85L341.67,146.82L352.02,173.71L362.37,193.43L372.73,228.06L383.08,252.68L393.43,283.04L403.79,304.04L414.14,322.84L424.49,332.91L434.85,338.93L445.2,343.53L455.56,346.06L465.91,347.28L476.26,349.97L486.62,350.85L496.97,352.8L507.32,349.54L517.68,355.68L528.03,356.39L569.44,359.47L579.8,360.08L652.27,363.02L662.63,363.18L735.1,364.54L745.45,364.72L952.53,365.63L962.88,365.57L1025,365.63" style="vector-effect: none; fill: none; stroke: rgb(128, 133, 233); stroke-opacity: 1; stroke-width: 2px; opacity: 1;"/></g><g class="points"/><g class="text"/></g><g class="trace scatter trace8a6fc0" style="stroke-miterlimit: 2; opacity: 1;"><g class="fills"/><g class="errorbars"/><g class="lines"><path class="js-line" d="M0,365.75L186.36,365.75L196.72,351.96L207.07,117.82L217.42,96.07L227.78,92.79L238.13,93.14L248.48,96.53L258.84,101.59L279.55,114.58L289.9,123.21L310.61,146.54L320.96,161.39L331.31,173.33L341.67,189.45L383.08,260.13L393.43,273.81L403.79,285.84L414.14,294.86L424.49,301.72L434.85,307.31L445.2,313.49L455.56,317.08L476.26,324.89L486.62,328.1L496.97,331.05L507.32,332.03L517.68,337.28L528.03,339.33L538.38,341.65L548.74,344.77L559.09,345.63L569.44,348.08L621.21,354.55L631.57,355.15L641.92,356.77L652.27,357.25L662.63,358.31L672.98,358.3L693.69,359.94L704.04,360.44L766.16,362.65L776.52,362.7L786.87,363.56L797.22,363.63L838.64,363.94L848.99,364.08L931.82,364.98L942.17,364.9L1025,365.41" style="vector-effect: none; fill: none; stroke: rgb(241, 92, 128); stroke-opacity: 1; stroke-width: 2px; opacity: 1;"/></g><g class="points"/><g class="text"/></g><g class="trace scatter trace355ecb" style="stroke-miterlimit: 2; opacity: 1;"><g class="fills"/><g class="errorbars"/><g class="lines"><path class="js-line" d="M0,365.75L186.36,365.75L196.72,356.49L207.07,170.59L217.42,151.08L248.48,143.25L258.84,143.45L269.19,145.23L279.55,144.19L289.9,144.4L300.25,148.22L310.61,150.64L320.96,161.03L331.31,165.9L341.67,177.05L352.02,190.16L362.37,201.84L372.73,220.85L383.08,236.09L393.43,254.54L403.79,266.1L414.14,279.49L424.49,286.94L434.85,295.48L445.2,301.37L455.56,307.67L465.91,312.1L486.62,320.03L496.97,322.96L507.32,313L517.68,327.55L528.03,330.48L538.38,332.08L548.74,333.17L559.09,336.54L569.44,340.24L579.8,342.31L590.15,343.3L600.51,346.26L610.86,348.23L621.21,349.16L631.57,349.68L641.92,353.31L652.27,352.38L662.63,355.25L672.98,354.83L683.33,356.34L704.04,357.64L714.39,358.43L776.52,361.55L786.87,361.78L797.22,362.22L807.58,361.78L838.64,363.27L848.99,363.27L869.7,363.58L880.05,363.59L911.11,364.21L921.46,364.27L993.94,365.06L1004.29,365.1L1025,365.23" style="vector-effect: none; fill: none; stroke: rgb(228, 211, 84); stroke-opacity: 1; stroke-width: 2px; opacity: 1;"/></g><g class="points"/><g class="text"/></g><g class="trace scatter trace249022" style="stroke-miterlimit: 2; opacity: 1;"><g class="fills"/><g class="errorbars"/><g class="lines"><path class="js-line" d="M0,365.75L186.36,365.75L196.72,353.58L207.07,154.7L217.42,131.17L227.78,124.8L238.13,120.56L248.48,123.25L258.84,121.8L269.19,125.94L279.55,126.18L289.9,132.07L300.25,135.55L310.61,140.49L320.96,148.61L331.31,159.94L341.67,167.81L352.02,186.19L362.37,195.25L372.73,219.48L383.08,238.16L393.43,260.98L403.79,276.68L414.14,291.86L424.49,300.22L445.2,312.61L455.56,316.13L465.91,320.8L476.26,322.9L486.62,325.36L496.97,328.89L507.32,324.14L517.68,334.05L528.03,338.06L538.38,340.05L548.74,342.14L559.09,345.22L579.8,348.2L590.15,350.06L600.51,351.77L610.86,352.7L621.21,354.28L631.57,355.08L683.33,359.13L693.69,359.24L724.75,361.18L735.1,361.87L838.64,363.96L848.99,363.71L890.4,364.63L900.76,364.57L952.53,364.94L962.88,365.02L1025,365.28" style="vector-effect: none; fill: none; stroke: rgb(43, 144, 143); stroke-opacity: 1; stroke-width: 2px; opacity: 1;"/></g><g class="points"/><g class="text"/></g><g class="trace scatter tracef747d4" style="stroke-miterlimit: 2; opacity: 1;"><g class="fills"/><g class="errorbars"/><g class="lines"><path class="js-line" d="M0,365.75L186.36,365.75L196.72,351.07L207.07,141.71L217.42,116.13L227.78,98.53L238.13,92.83L248.48,93.01L258.84,87.31L269.19,86.62L279.55,81.27L289.9,85.27L300.25,81.42L310.61,88.16L320.96,88.8L331.31,111.23L341.67,119.16L352.02,149.39L362.37,169.92L372.73,214.4L383.08,243.02L393.43,277.33L403.79,301.03L414.14,321.3L424.49,331.96L445.2,343.45L455.56,346.17L496.97,354.81L507.32,349.35L517.68,357.45L528.03,358.79L600.51,362.68L610.86,362.8L672.98,364.37L683.33,364.36L714.39,364.82L724.75,365.08L1025,365.68" style="vector-effect: none; fill: none; stroke: rgb(244, 91, 91); stroke-opacity: 1; stroke-width: 2px; opacity: 1;"/></g><g class="points"/><g class="text"/></g><g class="trace scatter tracecfe39d" style="stroke-miterlimit: 2; opacity: 1;"><g class="fills"/><g class="errorbars"/><g class="lines"><path class="js-line" d="M0,365.75L186.36,365.75L196.72,349.52L207.07,79.76L217.42,48.2L227.78,40.02L238.13,40.21L248.48,51.41L258.84,53.91L269.19,67.66L279.55,78.41L289.9,97.03L300.25,110.92L310.61,130.44L320.96,147.25L331.31,170.84L341.67,185.74L352.02,212.61L362.37,228.71L372.73,255.16L383.08,271.37L393.43,292.5L403.79,306.99L414.14,319.59L424.49,327.73L445.2,336.22L455.56,338.54L465.91,341.99L476.26,343.93L496.97,348.02L507.32,344.59L517.68,351.12L528.03,352.5L569.44,356.81L579.8,357.65L621.21,360.26L631.57,360.8L672.98,362.41L683.33,362.48L714.39,363.34L724.75,363.58L786.87,364.69L797.22,364.79L993.94,365.58L1004.29,365.57L1025,365.56" style="vector-effect: none; fill: none; stroke: rgb(145, 232, 225); stroke-opacity: 1; stroke-width: 2px; opacity: 1;"/></g><g class="points"/><g class="text"/></g><g class="trace scatter trace43e42a" style="stroke-miterlimit: 2; opacity: 1;"><g class="fills"/><g class="errorbars"/><g class="lines"><path class="js-line" d="M0,365.75L186.36,365.75L196.72,351.44L207.07,125.84L217.42,99.45L227.78,92.69L238.13,95.62L248.48,104.64L258.84,109.26L269.19,122.68L279.55,129.43L289.9,146.06L300.25,156.61L310.61,173.15L320.96,184.18L331.31,200.74L341.67,210.97L352.02,224.89L362.37,234.81L372.73,247.53L383.08,256.04L393.43,267.42L403.79,274.01L414.14,282.46L424.49,288.31L434.85,296.24L445.2,300.41L465.91,309.13L476.26,314.48L486.62,319.5L496.97,322.15L507.32,319.63L517.68,329.66L528.03,332.74L538.38,334.96L569.44,343.03L579.8,344.82L631.57,352.81L641.92,353.49L672.98,356.61L683.33,357.54L766.16,361.66L776.52,361.93L797.22,362.55L807.58,362.86L942.17,364.81L952.53,364.79L1025,365.25" style="vector-effect: none; fill: none; stroke: rgb(124, 181, 236); stroke-opacity: 1; stroke-width: 2px; opacity: 1;"/></g><g class="points"/><g class="text"/></g><g class="trace scatter tracef5d7b1" style="stroke-miterlimit: 2; opacity: 1;"><g class="fills"/><g class="errorbars"/><g class="lines"><path class="js-line" d="M0,365.75L186.36,365.75L196.72,349.28L207.07,90.63L217.42,61.05L227.78,47.87L238.13,49.31L248.48,65.07L258.84,73.59L269.19,91.72L279.55,107.18L289.9,127.61L300.25,145.3L310.61,166.67L320.96,180.72L331.31,203.7L341.67,218.84L352.02,237.16L362.37,248.76L372.73,263.72L383.08,271.89L393.43,283.86L403.79,294.08L414.14,301.39L424.49,306.5L445.2,315.36L455.56,318.66L496.97,330.7L507.32,329.52L517.68,337.22L528.03,339.88L538.38,341.1L548.74,343.95L610.86,353.27L621.21,354.11L672.98,358.46L683.33,359.25L724.75,361.44L735.1,361.7L817.93,363.94L828.28,363.96L869.7,364.56L880.05,364.57L983.59,365.29L993.94,365.34L1025,365.39" style="vector-effect: none; fill: none; stroke: rgb(67, 67, 72); stroke-opacity: 1; stroke-width: 2px; opacity: 1;"/></g><g class="points"/><g class="text"/></g><g class="trace scatter tracecbe4c1" style="stroke-miterlimit: 2; opacity: 1;"><g class="fills"/><g class="errorbars"/><g class="lines"><path class="js-line" d="M0,365.75L186.36,365.75L196.72,354.25L207.07,143.54L217.42,120.73L227.78,115.13L238.13,113.37L248.48,113.69L258.84,118.4L269.19,118.83L279.55,123.2L300.25,137.73L310.61,141.44L320.96,154.46L331.31,164.78L341.67,176.75L352.02,194.83L362.37,210.87L372.73,230.2L393.43,262.01L403.79,274.69L414.14,285.64L424.49,292.92L434.85,300.27L445.2,306.67L465.91,317.95L476.26,321.51L496.97,329.79L507.32,325.82L517.68,335.99L528.03,337.89L569.44,347.45L579.8,349.02L621.21,355.55L631.57,355.45L652.27,357.83L662.63,358.4L755.81,362.73L766.16,362.69L952.53,365.18L962.88,365.23L1025,365.49" style="vector-effect: none; fill: none; stroke: rgb(144, 237, 125); stroke-opacity: 1; stroke-width: 2px; opacity: 1;"/></g><g class="points"/><g class="text"/></g><g class="trace scatter tracee6706b" style="stroke-miterlimit: 2; opacity: 1;"><g class="fills"/><g class="errorbars"/><g class="lines"><path class="js-line" d="M0,365.75L186.36,365.75L196.72,353.42L207.07,140.06L217.42,122.02L227.78,117.95L238.13,119.89L248.48,118.27L258.84,122.57L269.19,123.91L279.55,130.34L289.9,137.25L300.25,146.15L310.61,153.65L320.96,166.65L331.31,174.38L341.67,189.53L352.02,200.93L362.37,215.88L372.73,233.72L383.08,248.89L403.79,278L414.14,288.63L424.49,297.06L434.85,302.51L445.2,306.02L455.56,310.47L476.26,319.2L486.62,322.41L496.97,325.46L507.32,326.81L517.68,332.54L528.03,334.7L538.38,336.84L548.74,340.02L621.21,351.47L631.57,351.92L652.27,354.86L662.63,355.24L683.33,357.3L693.69,357.18L714.39,359.01L724.75,359.14L735.1,360.17L745.45,360.24L776.52,361.75L786.87,361.94L828.28,362.87L838.64,363.09L911.11,364.34L921.46,364.28L983.59,364.77L993.94,364.76L1025,364.98" style="vector-effect: none; fill: none; stroke: rgb(247, 163, 92); stroke-opacity: 1; stroke-width: 2px; opacity: 1;"/></g><g class="points"/><g class="text"/></g><g class="trace scatter traced2cb6d" style="stroke-miterlimit: 2; opacity: 1;"><g class="fills"/><g class="errorbars"/><g class="lines"><path class="js-line" d="M0,365.75L186.36,365.75L196.72,353.84L207.07,129.34L217.42,107.31L227.78,101.94L238.13,100.88L248.48,99.57L258.84,101.93L269.19,99.84L279.55,103.19L289.9,107.84L300.25,114.05L310.61,120L320.96,129.88L331.31,141.48L341.67,156.66L362.37,192.88L372.73,220.75L383.08,240.92L393.43,273.03L403.79,293.04L414.14,310.41L424.49,320.5L434.85,325.47L445.2,329.85L455.56,332.95L465.91,334.51L476.26,337.67L496.97,341.16L507.32,343L517.68,345.6L528.03,346.96L538.38,349.09L548.74,350.09L579.8,353.65L590.15,354.62L610.86,356.51L621.21,357.07L641.92,358.61L652.27,359.4L683.33,360.99L693.69,361.43L838.64,364.54L848.99,364.62L1025,365.49" style="vector-effect: none; fill: none; stroke: rgb(128, 133, 233); stroke-opacity: 1; stroke-width: 2px; opacity: 1;"/></g><g class="points"/><g class="text"/></g><g class="trace scatter trace747cc6" style="stroke-miterlimit: 2; opacity: 1;"><g class="fills"/><g class="errorbars"/><g class="lines"><path class="js-line" d="M0,365.75L186.36,365.75L196.72,352.62L207.07,134.38L217.42,115.59L227.78,107.86L238.13,103.53L248.48,103.12L258.84,106.17L269.19,104.57L279.55,107.63L289.9,108.96L300.25,115.01L310.61,119.78L320.96,128.7L331.31,139.57L341.67,152.39L352.02,172.41L362.37,186.65L372.73,216.8L383.08,239.3L393.43,271.65L403.79,293.77L414.14,311.82L424.49,320.19L434.85,326.99L445.2,330.27L455.56,332.38L465.91,335.32L486.62,339.43L496.97,342.17L507.32,341.88L517.68,345.25L528.03,346.18L538.38,347.89L590.15,353.91L600.51,354.8L662.63,359.48L672.98,359.76L766.16,363.34L776.52,363.29L828.28,364.11L838.64,364.29L890.4,364.9L900.76,364.88L973.23,365.27L983.59,365.29L1025,365.48" style="vector-effect: none; fill: none; stroke: rgb(241, 92, 128); stroke-opacity: 1; stroke-width: 2px; opacity: 1;"/></g><g class="points"/><g class="text"/></g></g></g></g><g class="zerolinelayer-above"/><path class="xlines-above crisp" d="M0,0" style="fill: none;"/><path class="ylines-above crisp" d="M0,0" style="fill: none;"/><g class="overlines-above"/><g class="xaxislayer-above"><g class="xtick"><text text-anchor="middle" x="0" y="451" transform="translate(158.36,0)" style="font-family: 'Lucida Grande', 'Open Sans', verdana, arial, sans-serif; font-size: 10px; fill: rgb(0, 0, 0); fill-opacity: 1; white-space: pre;">−200 bp</text></g><g class="xtick"><text text-anchor="middle" x="0" y="451" style="font-family: 'Lucida Grande', 'Open Sans', verdana, arial, sans-serif; font-size: 10px; fill: rgb(0, 0, 0); fill-opacity: 1; white-space: pre;" transform="translate(261.89,0)">−150 bp</text></g><g class="xtick"><text text-anchor="middle" x="0" y="451" style="font-family: 'Lucida Grande', 'Open Sans', verdana, arial, sans-serif; font-size: 10px; fill: rgb(0, 0, 0); fill-opacity: 1; white-space: pre;" transform="translate(365.43,0)">−100 bp</text></g><g class="xtick"><text text-anchor="middle" x="0" y="451" style="font-family: 'Lucida Grande', 'Open Sans', verdana, arial, sans-serif; font-size: 10px; fill: rgb(0, 0, 0); fill-opacity: 1; white-space: pre;" transform="translate(468.96,0)">−50 bp</text></g><g class="xtick"><text text-anchor="middle" x="0" y="451" style="font-family: 'Lucida Grande', 'Open Sans', verdana, arial, sans-serif; font-size: 10px; fill: rgb(0, 0, 0); fill-opacity: 1; white-space: pre;" transform="translate(572.5,0)">0 bp</text></g><g class="xtick"><text text-anchor="middle" x="0" y="451" style="font-family: 'Lucida Grande', 'Open Sans', verdana, arial, sans-serif; font-size: 10px; fill: rgb(0, 0, 0); fill-opacity: 1; white-space: pre;" transform="translate(676.04,0)">50 bp</text></g><g class="xtick"><text text-anchor="middle" x="0" y="451" style="font-family: 'Lucida Grande', 'Open Sans', verdana, arial, sans-serif; font-size: 10px; fill: rgb(0, 0, 0); fill-opacity: 1; white-space: pre;" transform="translate(779.57,0)">100 bp</text></g><g class="xtick"><text text-anchor="middle" x="0" y="451" style="font-family: 'Lucida Grande', 'Open Sans', verdana, arial, sans-serif; font-size: 10px; fill: rgb(0, 0, 0); fill-opacity: 1; white-space: pre;" transform="translate(883.11,0)">150 bp</text></g><g class="xtick"><text text-anchor="middle" x="0" y="451" style="font-family: 'Lucida Grande', 'Open Sans', verdana, arial, sans-serif; font-size: 10px; fill: rgb(0, 0, 0); fill-opacity: 1; white-space: pre;" transform="translate(986.64,0)">200 bp</text></g></g><g class="yaxislayer-above"><g class="ytick"><text text-anchor="end" x="54" y="3.5" transform="translate(0,415.75)" style="font-family: 'Lucida Grande', 'Open Sans', verdana, arial, sans-serif; font-size: 10px; fill: rgb(0, 0, 0); fill-opacity: 1; white-space: pre;">0</text></g><g class="ytick"><text text-anchor="end" x="54" y="3.5" style="font-family: 'Lucida Grande', 'Open Sans', verdana, arial, sans-serif; font-size: 10px; fill: rgb(0, 0, 0); fill-opacity: 1; white-space: pre;" transform="translate(0,366.69)">10k</text></g><g class="ytick"><text text-anchor="end" x="54" y="3.5" style="font-family: 'Lucida Grande', 'Open Sans', verdana, arial, sans-serif; font-size: 10px; fill: rgb(0, 0, 0); fill-opacity: 1; white-space: pre;" transform="translate(0,317.63)">20k</text></g><g class="ytick"><text text-anchor="end" x="54" y="3.5" style="font-family: 'Lucida Grande', 'Open Sans', verdana, arial, sans-serif; font-size: 10px; fill: rgb(0, 0, 0); fill-opacity: 1; white-space: pre;" transform="translate(0,268.57)">30k</text></g><g class="ytick"><text text-anchor="end" x="54" y="3.5" style="font-family: 'Lucida Grande', 'Open Sans', verdana, arial, sans-serif; font-size: 10px; fill: rgb(0, 0, 0); fill-opacity: 1; white-space: pre;" transform="translate(0,219.51)">40k</text></g><g class="ytick"><text text-anchor="end" x="54" y="3.5" style="font-family: 'Lucida Grande', 'Open Sans', verdana, arial, sans-serif; font-size: 10px; fill: rgb(0, 0, 0); fill-opacity: 1; white-space: pre;" transform="translate(0,170.45)">50k</text></g><g class="ytick"><text text-anchor="end" x="54" y="3.5" style="font-family: 'Lucida Grande', 'Open Sans', verdana, arial, sans-serif; font-size: 10px; fill: rgb(0, 0, 0); fill-opacity: 1; white-space: pre;" transform="translate(0,121.39)">60k</text></g><g class="ytick"><text text-anchor="end" x="54" y="3.5" style="font-family: 'Lucida Grande', 'Open Sans', verdana, arial, sans-serif; font-size: 10px; fill: rgb(0, 0, 0); fill-opacity: 1; white-space: pre;" transform="translate(0,72.33)">70k</text></g></g><g class="overaxes-above"/></g></g><g class="polarlayer"/><g class="smithlayer"/><g class="ternarylayer"/><g class="geolayer"/><g class="funnelarealayer"/><g class="pielayer"/><g class="iciclelayer"/><g class="treemaplayer"/><g class="sunburstlayer"/><g class="glimages"/><defs id="topdefs-6c04b0"><g class="clips"/></defs><g class="layer-above"><g class="imagelayer"/><g class="shapelayer"/></g><g class="infolayer"><g class="g-gtitle"><text class="gtitle" x="550" y="25" text-anchor="middle" dy="0em" style="opacity: 1; font-family: 'Lucida Grande', 'Open Sans', verdana, arial, sans-serif; font-size: 20px; fill: rgb(68, 68, 68); fill-opacity: 1; white-space: pre;"><tspan class="line" dy="0em" x="550" y="25">RSeQC: Inner Distance</tspan><tspan class="line" dy="1.3em" x="550" y="25">​<tspan style="font-size:70%" dy="-0.6em">Counts, 16 lines</tspan><tspan dy="0.42em">​</tspan></tspan></text></g><g class="g-xtitle"><text class="xtitle" x="572.5" y="487" text-anchor="middle" style="opacity: 0.3; font-family: 'Lucida Grande', 'Open Sans', verdana, arial, sans-serif; font-size: 14px; fill: rgb(0, 0, 0); fill-opacity: 1; white-space: pre;">Inner Distance (bp)</text></g><g class="g-ytitle"><text class="ytitle" transform="rotate(-90,22,242.5)" x="22" y="242.5" text-anchor="middle" style="opacity: 0.3; font-family: 'Lucida Grande', 'Open Sans', verdana, arial, sans-serif; font-size: 14px; fill: rgb(0, 0, 0); fill-opacity: 1; white-space: pre;">Counts</text></g></g></svg>