<svg class="main-svg" xmlns="http://www.w3.org/2000/svg" xmlns:xlink="http://www.w3.org/1999/xlink" width="2200" height="1000" style="" viewBox="0 0 1100 500"><rect x="0" y="0" width="1100" height="500" style="fill: rgb(255, 255, 255); fill-opacity: 1;"/><defs id="defs-e6a4ea"><g class="clips"><clipPath id="clipe6a4eaxyplot" class="plotclip"><rect width="1018" height="385"/></clipPath><clipPath class="axesclip" id="clipe6a4eax"><rect x="60" y="0" width="1018" height="500"/></clipPath><clipPath class="axesclip" id="clipe6a4eay"><rect x="0" y="50" width="1100" height="385"/></clipPath><clipPath class="axesclip" id="clipe6a4eaxy"><rect x="60" y="50" width="1018" height="385"/></clipPath></g><g class="gradients"/><g class="patterns"/></defs><g class="bglayer"/><g class="layer-below"><g class="imagelayer"/><g class="shapelayer"/></g><g class="cartesianlayer"><g class="subplot xy"><g class="layer-subplot"><g class="shapelayer"/><g class="imagelayer"/></g><g class="minor-gridlayer"><g class="x"/><g class="y"/></g><g class="gridlayer"><g class="x"><path class="xgrid crisp" transform="translate(159.95999999999998,0)" d="M0,50v385" style="stroke: rgb(0, 0, 0); stroke-opacity: 0.05; stroke-width: 1px;"/><path class="xgrid crisp" transform="translate(261.97,0)" d="M0,50v385" style="stroke: rgb(0, 0, 0); stroke-opacity: 0.05; stroke-width: 1px;"/><path class="xgrid crisp" transform="translate(363.97,0)" d="M0,50v385" style="stroke: rgb(0, 0, 0); stroke-opacity: 0.05; stroke-width: 1px;"/><path class="xgrid crisp" transform="translate(465.98,0)" d="M0,50v385" style="stroke: rgb(0, 0, 0); stroke-opacity: 0.05; stroke-width: 1px;"/><path class="xgrid crisp" transform="translate(567.98,0)" d="M0,50v385" style="stroke: rgb(0, 0, 0); stroke-opacity: 0.05; stroke-width: 1px;"/><path class="xgrid crisp" transform="translate(669.98,0)" d="M0,50v385" style="stroke: rgb(0, 0, 0); stroke-opacity: 0.05; stroke-width: 1px;"/><path class="xgrid crisp" transform="translate(771.99,0)" d="M0,50v385" style="stroke: rgb(0, 0, 0); stroke-opacity: 0.05; stroke-width: 1px;"/><path class="xgrid crisp" transform="translate(873.99,0)" d="M0,50v385" style="stroke: rgb(0, 0, 0); stroke-opacity: 0.05; stroke-width: 1px;"/><path class="xgrid crisp" transform="translate(976,0)" d="M0,50v385" style="stroke: rgb(0, 0, 0); stroke-opacity: 0.05; stroke-width: 1px;"/></g><g class="y"><path class="ygrid crisp" transform="translate(0,415.75)" d="M60,0h1018" style="stroke: rgb(0, 0, 0); stroke-opacity: 0.05; stroke-width: 1px;"/><path class="ygrid crisp" transform="translate(0,367.69)" d="M60,0h1018" style="stroke: rgb(0, 0, 0); stroke-opacity: 0.05; stroke-width: 1px;"/><path class="ygrid crisp" transform="translate(0,319.62)" d="M60,0h1018" style="stroke: rgb(0, 0, 0); stroke-opacity: 0.05; stroke-width: 1px;"/><path class="ygrid crisp" transform="translate(0,271.56)" d="M60,0h1018" style="stroke: rgb(0, 0, 0); stroke-opacity: 0.05; stroke-width: 1px;"/><path class="ygrid crisp" transform="translate(0,223.5)" d="M60,0h1018" style="stroke: rgb(0, 0, 0); stroke-opacity: 0.05; stroke-width: 1px;"/><path class="ygrid crisp" transform="translate(0,175.44)" d="M60,0h1018" style="stroke: rgb(0, 0, 0); stroke-opacity: 0.05; stroke-width: 1px;"/><path class="ygrid crisp" transform="translate(0,127.37)" d="M60,0h1018" style="stroke: rgb(0, 0, 0); stroke-opacity: 0.05; stroke-width: 1px;"/><path class="ygrid crisp" transform="translate(0,79.31)" d="M60,0h1018" style="stroke: rgb(0, 0, 0); stroke-opacity: 0.05; stroke-width: 1px;"/></g></g><g class="zerolinelayer"/><g class="layer-between"><g class="shapelayer"/><g class="imagelayer"/></g><path class="xlines-below"/><path class="ylines-below"/><g class="overlines-below"/><g class="xaxislayer-below"/><g class="yaxislayer-below"/><g class="overaxes-below"/><g class="overplot"><g class="xy" transform="translate(60,50)" clip-path="url(#clipe6a4eaxyplot)"><g class="scatterlayer mlayer"><g class="trace scatter trace386990" style="stroke-miterlimit: 2; opacity: 1;"><g class="fills"/><g class="errorbars"/><g class="lines"><path class="js-line" d="M0,50.86L4.08,81.55L10.2,82.21L14.28,93.8L20.4,134.53L28.56,160.89L34.68,162.92L38.76,176.98L44.88,204.43L48.96,211.87L55.08,215.64L59.16,220.5L63.24,224.18L69.36,233.55L73.44,235.99L79.56,238.28L83.64,241L93.84,250.41L97.92,251.01L104.04,254.04L108.12,255.05L112.2,255.05L118.32,257.36L122.4,265.13L128.53,263.99L138.73,264.15L142.81,267.45L146.89,270.05L153.01,271.82L163.21,278.3L167.29,277.67L171.37,280.99L177.49,281.36L181.57,280.64L187.69,278.3L191.77,282.1L195.85,287.24L206.05,289.28L212.17,287.73L216.25,286.29L222.37,296.95L230.53,288.75L236.65,289.82L240.73,301.23L246.85,292.14L250.93,294.76L255.01,292.14L261.13,294.07L265.21,292.14L275.41,303.22L279.49,294.07L285.61,300.3L289.69,307.88L295.81,310.66L299.89,304.29L306.01,302.2L310.09,303.22L314.17,302.2L320.29,304.29L324.37,305.42L330.49,305.42L334.57,310.66L338.65,312.21L344.77,303.22L348.85,306.61L354.97,307.88L359.05,307.88L363.13,305.42L369.25,313.88L373.33,307.88L379.45,319.89L383.54,310.66L389.66,325.13L393.74,317.69L397.82,322.34L403.94,317.69L408.02,328.35L414.14,317.69L418.22,319.89L422.3,317.69L428.42,328.35L432.5,322.34L438.62,322.34L442.7,328.35L446.78,328.35L452.9,317.69L456.98,315.7L463.1,319.89L467.18,332.16L473.3,322.34L477.38,328.35L481.46,342.82L487.58,319.89L491.66,322.34L497.78,332.16L501.86,328.35L505.94,328.35L512.06,325.13L516.14,325.13L522.26,342.82L526.34,342.82L532.46,332.16L536.54,332.16L540.62,328.35L546.74,325.13L550.82,332.16L556.94,332.16L561.02,336.81L565.1,332.16L571.22,322.34L575.3,336.81L581.42,328.35L585.5,328.35L589.58,336.81L595.7,325.13L599.78,336.81L605.9,332.16L609.98,342.82L616.1,328.35L620.18,332.16L624.26,328.35L630.38,328.35L634.46,332.16L644.67,365.75L648.75,336.81L654.87,332.16L658.95,365.75L665.07,325.13L669.15,336.81L673.23,336.81L679.35,322.34L683.43,365.75L689.55,332.16L693.63,351.28L699.75,332.16L703.83,328.35L707.91,351.28L714.03,342.82L718.11,325.13L726.27,365.75L732.39,336.81L736.47,336.81L742.59,319.89L746.67,365.75L752.79,336.81L756.87,365.75L760.95,365.75L771.15,342.82L777.27,336.81L781.35,342.82L787.47,365.75L791.55,332.16L795.63,342.82L801.75,342.82L805.83,351.28L811.95,365.75L818.07,365.75L822.15,332.16L828.27,351.28L832.35,342.82L838.47,332.16L842.55,336.81L846.63,342.82L852.75,351.28L858.87,328.35L864.99,332.16L869.07,351.28L875.19,365.75L879.27,351.28L883.35,342.82L891.52,351.28L895.6,351.28L903.76,342.82L909.88,365.75L916,351.28L924.16,365.75L928.24,336.81L934.36,365.75L940.48,351.28L946.6,342.82L952.72,342.82L956.8,365.75L967,365.75L971.08,351.28L977.2,365.75L997.6,365.75L1001.68,351.28L1009.84,365.75L1018,342.82" style="vector-effect: none; fill: none; stroke: rgb(124, 181, 236); stroke-opacity: 1; stroke-width: 2px; opacity: 1;"/></g><g class="points"/><g class="text"/></g><g class="trace scatter trace21cafb" style="stroke-miterlimit: 2; opacity: 1;"><g class="fills"/><g class="errorbars"/><g class="lines"><path class="js-line" d="M0,52.42L4.08,83.24L8.16,101.28L16.32,138.25L22.44,132.35L38.76,196.96L42.84,209.89L51,227.23L55.08,232.65L59.16,237.41L65.28,248.28L69.36,252.7L73.44,254.34L77.52,256.34L81.6,261.3L89.76,262.75L93.84,264.8L104.04,267.26L108.12,271.36L112.2,267.45L116.28,275.63L120.36,273.77L124.44,275.08L128.53,275.91L132.61,286.29L136.69,278.62L140.77,284.09L146.89,282.49L150.97,292.77L155.05,287.24L159.13,290.38L163.21,292.77L167.29,291.54L171.37,293.41L175.45,298.56L179.53,293.41L185.65,298.56L189.73,299.41L193.81,295.46L197.89,299.41L201.97,299.41L206.05,303.22L210.13,302.2L214.21,300.3L218.29,302.2L222.37,299.41L228.49,307.88L232.57,301.23L236.65,307.88L240.73,310.66L244.81,301.23L248.89,315.7L252.97,315.7L257.05,301.23L261.13,310.66L267.25,315.7L271.33,317.69L275.41,310.66L279.49,317.69L283.57,312.21L287.65,317.69L291.73,309.22L295.81,317.69L299.89,319.89L303.97,325.13L310.09,328.35L314.17,315.7L322.33,325.13L326.41,310.66L330.49,325.13L334.57,313.88L338.65,319.89L342.73,317.69L348.85,319.89L352.93,328.35L357.01,319.89L361.09,336.81L365.17,342.82L369.25,317.69L373.33,336.81L377.41,325.13L381.49,325.13L385.58,317.69L391.7,332.16L395.78,325.13L399.86,315.7L403.94,328.35L408.02,328.35L412.1,332.16L416.18,328.35L420.26,336.81L424.34,365.75L430.46,351.28L434.54,351.28L438.62,332.16L442.7,332.16L446.78,342.82L450.86,328.35L454.94,332.16L459.02,351.28L463.1,332.16L469.22,319.89L473.3,336.81L477.38,332.16L481.46,342.82L485.54,342.82L489.62,351.28L493.7,365.75L497.78,325.13L501.86,328.35L505.94,365.75L512.06,328.35L516.14,351.28L520.22,351.28L524.3,365.75L528.38,351.28L532.46,342.82L536.54,365.75L540.62,351.28L544.7,365.75L554.9,351.28L558.98,365.75L563.06,342.82L567.14,351.28L573.26,365.75L579.38,365.75L583.46,325.13L587.54,351.28L591.62,336.81L595.7,336.81L601.82,351.28L607.94,365.75L612.02,351.28L616.1,351.28L620.18,342.82L624.26,365.75L632.42,365.75L636.51,336.81L642.63,332.16L650.79,351.28L654.87,351.28L658.95,365.75L663.03,365.75L669.15,365.75L677.31,342.82L681.39,351.28L685.47,365.75L697.71,342.82L714.03,351.28L722.19,351.28L728.31,342.82L736.47,365.75L740.55,365.75L744.63,365.75L750.75,351.28L758.91,342.82L762.99,351.28L777.27,365.75L783.39,365.75L799.71,365.75L803.79,342.82L813.99,365.75L820.11,365.75L830.31,351.28L834.39,365.75L852.75,365.75L856.83,342.82L862.95,351.28L869.07,351.28L879.27,351.28L887.43,365.75L895.6,342.82L903.76,365.75L938.44,365.75L944.56,351.28L956.8,365.75L962.92,365.75L987.4,365.75L991.48,342.82L1003.72,351.28L1015.96,342.82" style="vector-effect: none; fill: none; stroke: rgb(67, 67, 72); stroke-opacity: 1; stroke-width: 2px; opacity: 1;"/></g><g class="points"/><g class="text"/></g><g class="trace scatter tracefa213b" style="stroke-miterlimit: 2; opacity: 1;"><g class="fills"/><g class="errorbars"/><g class="lines"><path class="js-line" d="M0,73.11L10.2,126.28L16.32,169.12L20.4,178.43L26.52,181.31L36.72,198.01L40.8,201.04L46.92,201.9L51,204.66L57.12,210.05L61.2,212.28L71.4,215.56L77.52,220.64L81.6,220.98L87.72,222.68L91.8,225.13L97.92,227.13L102,228.51L108.12,229.49L112.2,231.64L118.32,233.37L122.4,232.26L128.53,235.25L138.73,239.03L142.81,240.64L153.01,241.32L159.13,242.54L163.21,241.92L169.33,246.48L173.41,245.09L179.53,247.98L189.73,249.12L193.81,247.69L204.01,252.79L210.13,254.24L220.33,252.42L224.41,254.74L230.53,259.55L234.61,259.43L244.81,257.71L250.93,257.47L255.01,259.05L261.13,258.18L265.21,262.01L271.33,262.75L275.41,263.52L281.53,262.6L285.61,263.05L291.73,262.75L295.81,266.89L301.93,265.82L306.01,264.47L312.13,269.62L322.33,269.21L326.41,268.61L342.73,271.14L348.85,273.51L352.93,273.51L359.05,271.82L363.13,277.07L369.25,275.08L373.33,276.19L379.45,274.81L383.54,276.48L389.66,273.02L393.74,276.48L399.86,274.81L403.94,280.99L410.06,281.36L414.14,272.77L420.26,277.37L424.34,279.27L430.46,283.27L434.54,279.94L440.66,276.19L444.74,284.51L450.86,281.73L454.94,275.35L461.06,279.27L465.14,284.94L471.26,288.75L475.34,286.29L481.46,284.51L485.54,282.49L491.66,285.83L495.74,283.68L501.86,284.09L505.94,289.82L512.06,289.82L516.14,284.94L522.26,287.73L526.34,283.68L532.46,290.95L536.54,294.76L542.66,285.38L546.74,283.27L552.86,290.95L556.94,293.41L563.06,286.76L567.14,290.38L573.26,292.77L577.34,291.54L583.46,285.83L587.54,295.46L593.66,287.73L607.94,295.46L614.06,304.29L618.14,304.29L624.26,292.77L628.34,293.41L634.46,289.82L638.55,298.56L644.67,297.74L648.75,291.54L654.87,292.14L658.95,302.2L665.07,303.22L669.15,294.76L675.27,294.07L685.47,299.41L691.59,298.56L695.67,293.41L701.79,305.42L705.87,303.22L711.99,298.56L716.07,298.56L722.19,293.41L726.27,302.2L732.39,301.23L736.47,303.22L742.59,299.41L746.67,298.56L752.79,302.2L762.99,296.95L767.07,297.74L773.19,306.61L777.27,300.3L783.39,306.61L787.47,303.22L793.59,306.61L797.67,306.61L803.79,301.23L807.87,299.41L813.99,313.88L818.07,315.7L824.19,319.89L828.27,304.29L834.39,302.2L838.47,310.66L844.59,300.3L848.67,307.88L854.79,307.88L858.87,325.13L864.99,313.88L869.07,315.7L875.19,300.3L879.27,302.2L885.39,302.2L889.47,301.23L899.68,313.88L905.8,309.22L909.88,305.42L916,310.66L920.08,307.88L926.2,309.22L930.28,322.34L936.4,305.42L940.48,307.88L946.6,310.66L956.8,306.61L960.88,322.34L967,313.88L971.08,306.61L977.2,313.88L981.28,307.88L987.4,302.2L991.48,305.42L997.6,312.21L1001.68,310.66L1007.8,307.88L1011.88,319.89L1018,313.88" style="vector-effect: none; fill: none; stroke: rgb(144, 237, 125); stroke-opacity: 1; stroke-width: 2px; opacity: 1;"/></g><g class="points"/><g class="text"/></g><g class="trace scatter trace8af0e0" style="stroke-miterlimit: 2; opacity: 1;"><g class="fills"/><g class="errorbars"/><g class="lines"><path class="js-line" d="M0,22.06L4.08,78.29L10.2,111.65L14.28,136.39L20.4,163.38L24.48,173.71L30.6,182.88L40.8,201.25L44.88,205.94L51,210.14L55.08,215.41L61.2,222.88L65.28,225.68L75.48,230.43L79.56,233.81L89.76,240.79L95.88,243.71L99.96,244.02L106.08,248.89L110.16,253.07L116.28,252.88L126.48,257.94L130.57,259.3L134.65,262.01L140.77,263.67L144.85,260.48L150.97,263.99L155.05,266.35L161.17,268.81L165.25,268.41L171.37,273.77L175.45,272.53L181.57,274.28L185.65,276.77L191.77,278.62L195.85,278.3L199.93,281.73L210.13,279.27L216.25,284.09L220.33,280.64L226.45,288.75L230.53,283.27L236.65,291.54L246.85,289.28L250.93,292.77L257.05,290.38L261.13,290.38L271.33,292.14L275.41,298.56L281.53,298.56L285.61,290.95L291.73,294.76L295.81,302.2L301.93,291.54L306.01,302.2L312.13,296.95L316.21,294.76L322.33,299.41L326.41,293.41L332.53,305.42L336.61,297.74L340.69,294.07L346.81,312.21L350.89,300.3L357.01,312.21L361.09,304.29L367.21,304.29L371.29,313.88L377.41,310.66L381.49,303.22L387.62,313.88L391.7,307.88L397.82,322.34L401.9,307.88L405.98,309.22L412.1,319.89L416.18,310.66L422.3,309.22L426.38,315.7L432.5,306.61L436.58,313.88L442.7,322.34L446.78,315.7L452.9,315.7L456.98,312.21L463.1,325.13L467.18,328.35L477.38,313.88L481.46,312.21L487.58,313.88L491.66,325.13L497.78,317.69L501.86,317.69L507.98,328.35L512.06,309.22L518.18,312.21L522.26,315.7L528.38,315.7L532.46,328.35L536.54,328.35L542.66,310.66L546.74,332.16L552.86,325.13L556.94,328.35L563.06,325.13L567.14,325.13L573.26,315.7L577.34,332.16L583.46,315.7L587.54,313.88L593.66,342.82L597.74,351.28L601.82,332.16L607.94,325.13L612.02,325.13L618.14,336.81L622.22,328.35L628.34,332.16L632.42,328.35L638.55,336.81L642.63,332.16L652.83,325.13L658.95,328.35L663.03,325.13L667.11,319.89L673.23,325.13L677.31,365.75L683.43,342.82L687.51,342.82L693.63,336.81L697.71,342.82L703.83,336.81L707.91,336.81L718.11,336.81L724.23,351.28L728.31,342.82L732.39,332.16L738.51,325.13L742.59,342.82L748.71,336.81L752.79,328.35L758.91,332.16L762.99,365.75L769.11,342.82L773.19,332.16L779.31,332.16L783.39,342.82L791.55,328.35L797.67,342.82L803.79,351.28L807.87,319.89L811.95,365.75L818.07,336.81L828.27,336.81L832.35,351.28L838.47,365.75L842.55,336.81L848.67,328.35L852.75,351.28L858.87,365.75L862.95,342.82L871.11,365.75L875.19,336.81L879.27,351.28L885.39,342.82L889.47,365.75L897.64,351.28L907.84,351.28L911.92,336.81L918.04,365.75L922.12,365.75L928.24,342.82L932.32,365.75L938.44,342.82L944.56,365.75L948.64,351.28L954.76,336.81L958.84,351.28L964.96,365.75L969.04,342.82L975.16,365.75L985.36,365.75L989.44,342.82L995.56,351.28L1001.68,351.28L1011.88,336.81L1018,351.28" style="vector-effect: none; fill: none; stroke: rgb(247, 163, 92); stroke-opacity: 1; stroke-width: 2px; opacity: 1;"/></g><g class="points"/><g class="text"/></g><g class="trace scatter tracec3c9d6" style="stroke-miterlimit: 2; opacity: 1;"><g class="fills"/><g class="errorbars"/><g class="lines"><path class="js-line" d="M0,29.91L4.08,92.02L8.16,136.04L12.24,165.01L18.36,172.99L22.44,187.98L26.52,197.51L34.68,210.98L38.76,217.6L46.92,226.27L53.04,238.14L57.12,241.98L61.2,247.54L73.44,251.97L77.52,256.01L81.6,256.34L87.72,257.71L95.88,258.06L99.96,260.75L108.12,262.45L112.2,265.47L116.28,269.83L122.4,277.67L126.48,277.37L130.57,277.98L134.65,276.48L138.73,283.68L142.81,284.09L146.89,280.29L150.97,281.36L157.09,284.09L161.17,289.82L165.25,282.88L169.33,287.24L173.41,292.77L177.49,289.82L181.57,292.14L185.65,296.2L191.77,294.07L195.85,298.56L199.93,301.23L204.01,309.22L208.09,295.46L212.17,296.2L216.25,299.41L220.33,301.23L226.45,305.42L234.61,305.42L238.69,306.61L242.77,313.88L246.85,299.41L250.93,309.22L255.01,315.7L261.13,306.61L265.21,306.61L269.29,306.61L273.37,313.88L277.45,309.22L281.53,317.69L285.61,319.89L289.69,313.88L295.81,322.34L299.89,310.66L303.97,332.16L308.05,315.7L312.13,322.34L316.21,319.89L320.29,315.7L324.37,328.35L330.49,315.7L334.57,328.35L338.65,319.89L342.73,313.88L346.81,332.16L350.89,319.89L354.97,322.34L359.05,332.16L369.25,325.13L373.33,315.7L377.41,336.81L381.49,317.69L385.58,332.16L389.66,328.35L393.74,332.16L399.86,332.16L403.94,332.16L410.06,325.13L414.14,342.82L418.22,342.82L422.3,322.34L426.38,336.81L430.46,342.82L436.58,342.82L440.66,315.7L444.74,336.81L448.82,332.16L452.9,322.34L456.98,336.81L463.1,351.28L467.18,332.16L473.3,325.13L477.38,365.75L481.46,332.16L485.54,336.81L489.62,328.35L493.7,365.75L497.78,336.81L501.86,351.28L507.98,322.34L512.06,332.16L518.18,336.81L522.26,351.28L526.34,342.82L530.42,336.81L534.5,332.16L544.7,342.82L548.78,332.16L552.86,365.75L556.94,342.82L561.02,351.28L565.1,336.81L569.18,365.75L573.26,365.75L581.42,342.82L585.5,336.81L589.58,351.28L593.66,351.28L597.74,336.81L601.82,332.16L605.9,351.28L609.98,351.28L616.1,365.75L620.18,351.28L624.26,332.16L628.34,342.82L634.46,365.75L638.55,365.75L644.67,351.28L648.75,351.28L654.87,365.75L658.95,365.75L663.03,342.82L669.15,336.81L675.27,351.28L679.35,342.82L687.51,351.28L691.59,365.75L697.71,351.28L703.83,365.75L711.99,365.75L718.11,351.28L722.19,351.28L726.27,342.82L742.59,365.75L746.67,351.28L750.75,365.75L754.83,342.82L758.91,342.82L762.99,351.28L769.11,365.75L777.27,342.82L791.55,365.75L799.71,342.82L803.79,365.75L807.87,351.28L816.03,365.75L820.11,365.75L824.19,351.28L830.31,351.28L838.47,365.75L848.67,365.75L862.95,351.28L867.03,351.28L885.39,365.75L891.52,365.75L897.64,351.28L907.84,365.75L934.36,351.28L940.48,351.28L944.56,342.82L950.68,365.75L958.84,365.75L962.92,342.82L967,365.75L979.24,342.82L989.44,365.75L999.64,365.75L1005.76,365.75L1011.88,351.28" style="vector-effect: none; fill: none; stroke: rgb(128, 133, 233); stroke-opacity: 1; stroke-width: 2px; opacity: 1;"/></g><g class="points"/><g class="text"/></g><g class="trace scatter tracec49fb1" style="stroke-miterlimit: 2; opacity: 1;"><g class="fills"/><g class="errorbars"/><g class="lines"><path class="js-line" d="M0,35.53L4.08,65.47L10.2,87.68L14.28,109.58L20.4,151L24.48,163.96L30.6,175.41L40.8,196.93L44.88,202.55L51,207.51L55.08,212.09L61.2,219.33L65.28,222.03L71.4,226.67L75.48,231.31L79.56,232.72L85.68,237.14L89.76,240.27L95.88,243.06L99.96,245.09L106.08,246.69L110.16,249.28L116.28,252.24L120.36,252.98L126.48,257.71L130.57,258.18L136.69,260.08L140.77,258.43L146.89,263.99L161.17,265.3L165.25,270.69L175.45,272.29L181.57,274.81L185.65,272.06L191.77,278.3L195.85,281.73L201.97,275.91L206.05,284.09L212.17,280.64L216.25,285.83L222.37,281.36L226.45,283.68L230.53,284.94L236.65,281.36L240.73,292.14L246.85,296.95L250.93,288.75L257.05,288.75L261.13,296.95L267.25,289.82L271.33,288.23L287.65,300.3L291.73,296.2L297.85,294.07L301.93,294.07L308.05,310.66L312.13,304.29L322.33,292.14L326.41,296.2L332.53,301.23L336.61,317.69L342.73,301.23L346.81,309.22L352.93,310.66L357.01,296.95L363.13,302.2L367.21,303.22L373.33,309.22L377.41,304.29L383.54,313.88L387.62,302.2L391.7,306.61L397.82,310.66L401.9,309.22L408.02,304.29L412.1,306.61L418.22,313.88L428.42,317.69L432.5,313.88L438.62,317.69L442.7,322.34L448.82,315.7L452.9,319.89L459.02,312.21L463.1,313.88L467.18,322.34L473.3,312.21L477.38,315.7L483.5,325.13L487.58,332.16L493.7,317.69L497.78,319.89L503.9,313.88L507.98,309.22L514.1,322.34L518.18,325.13L524.3,325.13L528.38,313.88L534.5,322.34L538.58,328.35L542.66,319.89L548.78,336.81L552.86,342.82L558.98,322.34L563.06,317.69L569.18,336.81L573.26,328.35L579.38,332.16L583.46,322.34L589.58,317.69L593.66,322.34L599.78,322.34L603.86,328.35L609.98,336.81L614.06,325.13L618.14,322.34L624.26,328.35L628.34,319.89L634.46,336.81L638.55,351.28L644.67,342.82L648.75,332.16L654.87,325.13L658.95,322.34L665.07,328.35L669.15,332.16L677.31,332.16L681.39,336.81L687.51,351.28L691.59,342.82L697.71,328.35L703.83,342.82L707.91,332.16L714.03,332.16L718.11,342.82L724.23,336.81L728.31,342.82L734.43,351.28L738.51,351.28L748.71,336.81L754.83,336.81L758.91,332.16L765.03,332.16L775.23,342.82L779.31,365.75L783.39,325.13L789.51,351.28L793.59,336.81L799.71,332.16L803.79,351.28L809.91,328.35L813.99,332.16L820.11,351.28L824.19,342.82L830.31,351.28L834.39,332.16L840.51,351.28L844.59,342.82L850.71,328.35L854.79,351.28L858.87,336.81L867.03,342.82L871.11,332.16L877.23,342.82L881.31,332.16L887.43,342.82L891.52,342.82L899.68,336.81L903.76,336.81L911.92,336.81L916,365.75L922.12,322.34L926.2,342.82L932.32,351.28L938.44,332.16L942.52,365.75L948.64,351.28L952.72,365.75L958.84,365.75L962.92,351.28L969.04,365.75L973.12,351.28L979.24,351.28L983.32,351.28L989.44,342.82L993.52,351.28L999.64,328.35L1005.76,342.82L1013.92,342.82L1018,365.75" style="vector-effect: none; fill: none; stroke: rgb(241, 92, 128); stroke-opacity: 1; stroke-width: 2px; opacity: 1;"/></g><g class="points"/><g class="text"/></g><g class="trace scatter tracecadd69" style="stroke-miterlimit: 2; opacity: 1;"><g class="fills"/><g class="errorbars"/><g class="lines"><path class="js-line" d="M0,52.39L6.12,113.65L10.2,142.6L16.32,172.5L20.4,178.75L26.52,179.2L30.6,182.7L36.72,195.17L40.8,197.8L46.92,197.11L51,199.59L57.12,207.78L61.2,208.97L67.32,208.64L71.4,211.36L77.52,216.46L81.6,218.11L87.72,218.09L91.8,219.23L97.92,224.52L102,223.99L108.12,224.95L112.2,227.57L118.32,229.89L122.4,230.36L128.53,230.97L132.61,233.37L142.81,236.16L148.93,236.75L153.01,238.32L159.13,238.6L163.21,240.58L169.33,240.17L179.53,244.77L183.61,243.24L189.73,245.41L193.81,245.67L199.93,247.04L204.01,249.52L214.21,247.47L220.33,252.7L224.41,249.05L230.53,251.52L234.61,250.92L240.73,252.98L244.81,257.01L250.93,255.68L255.01,252.06L261.13,257.24L265.21,255.79L271.33,256.9L275.41,259.68L281.53,259.43L285.61,259.81L291.73,262.01L295.81,264.97L301.93,262.3L306.01,258.92L312.13,264.8L316.21,262.9L322.33,262.3L326.41,264.47L332.53,264.15L342.73,267.07L348.85,269.01L352.93,269.01L359.05,270.05L363.13,269.01L369.25,268.61L373.33,266.35L379.45,270.26L383.54,272.77L389.66,270.69L393.74,268.41L399.86,268.21L403.94,272.29L410.06,272.29L414.14,273.51L420.26,272.53L424.34,269.01L430.46,273.51L434.54,277.98L440.66,275.63L444.74,277.67L450.86,273.77L461.06,273.26L465.14,281.73L471.26,276.77L475.34,280.99L485.54,275.35L491.66,282.1L495.74,276.77L501.86,282.49L505.94,278.62L512.06,278.62L516.14,277.67L522.26,282.49L526.34,280.99L532.46,280.64L536.54,285.83L542.66,285.83L546.74,280.64L552.86,284.09L556.94,284.51L563.06,281.36L587.54,288.23L593.66,288.75L597.74,286.29L603.86,288.23L607.94,289.82L614.06,288.75L618.14,292.77L624.26,287.24L628.34,290.95L634.46,291.54L644.67,290.95L648.75,293.41L654.87,292.77L658.95,285.83L665.07,288.23L669.15,296.2L675.27,285.83L681.39,289.82L685.47,291.54L691.59,292.14L701.79,290.95L705.87,293.41L711.99,303.22L716.07,292.14L722.19,297.74L726.27,293.41L732.39,307.88L736.47,292.77L742.59,296.95L746.67,296.95L752.79,295.46L756.87,299.41L762.99,301.23L767.07,290.95L773.19,292.77L777.27,295.46L783.39,302.2L787.47,298.56L793.59,295.46L797.67,298.56L803.79,294.76L807.87,298.56L813.99,300.3L818.07,300.3L824.19,296.95L828.27,304.29L834.39,302.2L838.47,307.88L844.59,307.88L848.67,297.74L854.79,298.56L858.87,300.3L864.99,306.61L869.07,309.22L875.19,294.07L879.27,305.42L889.47,298.56L895.6,296.95L899.68,303.22L905.8,307.88L909.88,301.23L916,307.88L920.08,302.2L926.2,306.61L930.28,304.29L936.4,304.29L940.48,301.23L946.6,317.69L950.68,297.74L956.8,309.22L960.88,307.88L967,313.88L971.08,303.22L977.2,304.29L981.28,309.22L987.4,309.22L991.48,303.22L997.6,310.66L1001.68,309.22L1007.8,310.66L1011.88,307.88L1018,310.66" style="vector-effect: none; fill: none; stroke: rgb(228, 211, 84); stroke-opacity: 1; stroke-width: 2px; opacity: 1;"/></g><g class="points"/><g class="text"/></g><g class="trace scatter traceb0d800" style="stroke-miterlimit: 2; opacity: 1;"><g class="fills"/><g class="errorbars"/><g class="lines"><path class="js-line" d="M0,44.08L10.2,91.32L16.32,138.38L20.4,153.62L26.52,159.68L36.72,192.08L40.8,198.07L46.92,199.12L51,202.57L57.12,211.2L61.2,214.32L67.32,215.62L71.4,217.43L77.52,223.88L81.6,224.23L91.8,227.37L97.92,232.93L108.12,233.74L112.2,235.45L118.32,239.42L122.4,240.79L128.53,243.42L132.61,242.71L138.73,247.04L142.81,247.54L153.01,248.43L159.13,251.18L169.33,252.42L173.41,256.45L179.53,256.56L183.61,259.55L193.81,258.8L199.93,261.02L210.13,263.21L214.21,261.44L220.33,263.67L224.41,263.36L230.53,264.64L234.61,268.21L244.81,270.48L250.93,270.26L255.01,267.83L261.13,269.21L265.21,275.91L271.33,273.02L275.41,271.82L281.53,272.53L285.61,274.54L291.73,275.91L295.81,277.37L301.93,275.08L306.01,276.77L312.13,277.07L316.21,283.27L322.33,279.6L326.41,281.73L332.53,282.49L336.61,284.94L342.73,284.51L348.85,284.94L352.93,289.28L359.05,286.29L363.13,282.1L369.25,287.24L373.33,285.38L379.45,289.82L383.54,285.83L389.66,296.95L393.74,290.38L399.86,289.28L403.94,291.54L410.06,286.29L414.14,289.82L420.26,287.24L424.34,288.23L430.46,296.2L434.54,295.46L440.66,303.22L444.74,289.82L450.86,296.95L454.94,289.28L461.06,289.28L465.14,310.66L471.26,291.54L475.34,294.07L481.46,294.76L485.54,300.3L491.66,299.41L495.74,293.41L501.86,298.56L505.94,296.95L512.06,296.2L516.14,306.61L522.26,302.2L526.34,301.23L532.46,293.41L536.54,297.74L542.66,297.74L546.74,300.3L556.94,298.56L563.06,306.61L567.14,306.61L573.26,301.23L577.34,295.46L583.46,303.22L587.54,309.22L593.66,310.66L597.74,304.29L603.86,298.56L607.94,310.66L614.06,310.66L618.14,303.22L624.26,303.22L628.34,313.88L634.46,312.21L638.55,310.66L644.67,306.61L648.75,307.88L654.87,328.35L658.95,305.42L665.07,305.42L669.15,312.21L675.27,313.88L681.39,317.69L685.47,315.7L691.59,310.66L695.67,309.22L701.79,313.88L705.87,307.88L711.99,307.88L716.07,312.21L722.19,328.35L726.27,312.21L742.59,312.21L746.67,313.88L752.79,317.69L756.87,328.35L762.99,312.21L767.07,319.89L773.19,309.22L777.27,305.42L783.39,319.89L787.47,305.42L793.59,325.13L797.67,319.89L803.79,322.34L807.87,322.34L813.99,319.89L818.07,322.34L824.19,319.89L828.27,319.89L834.39,313.88L838.47,325.13L844.59,319.89L848.67,319.89L854.79,317.69L858.87,313.88L869.07,328.35L875.19,317.69L879.27,312.21L885.39,319.89L889.47,328.35L895.6,332.16L899.68,325.13L905.8,325.13L909.88,319.89L916,332.16L920.08,317.69L926.2,336.81L930.28,313.88L936.4,317.69L940.48,332.16L946.6,342.82L950.68,351.28L956.8,315.7L960.88,328.35L967,332.16L971.08,325.13L977.2,332.16L981.28,322.34L987.4,328.35L991.48,313.88L997.6,328.35L1001.68,328.35L1007.8,319.89L1011.88,332.16L1018,328.35" style="vector-effect: none; fill: none; stroke: rgb(43, 144, 143); stroke-opacity: 1; stroke-width: 2px; opacity: 1;"/></g><g class="points"/><g class="text"/></g><g class="trace scatter tracec0a672" style="stroke-miterlimit: 2; opacity: 1;"><g class="fills"/><g class="errorbars"/><g class="lines"><path class="js-line" d="M0,58.25L8.16,140.3L12.24,170.64L16.32,193.16L20.4,209.64L28.56,228.65L32.64,232.79L36.72,239.57L40.8,242.66L44.88,245.94L48.96,250.58L53.04,250.92L57.12,256.34L61.2,258.06L65.28,262.6L69.36,263.52L73.44,263.05L77.52,268.41L81.6,271.59L85.68,268.81L89.76,276.77L93.84,276.77L97.92,275.63L104.04,277.07L108.12,273.02L112.2,279.6L116.28,282.88L120.36,280.64L124.44,286.76L128.53,282.49L132.61,281.73L136.69,290.38L140.77,284.51L144.85,293.41L148.93,291.54L153.01,297.74L157.09,295.46L161.17,295.46L165.25,303.22L169.33,295.46L173.41,296.2L177.49,292.77L181.57,292.77L185.65,300.3L189.73,301.23L197.89,305.42L201.97,301.23L206.05,302.2L210.13,309.22L214.21,312.21L218.29,302.2L222.37,312.21L226.45,306.61L230.53,312.21L234.61,307.88L238.69,312.21L242.77,322.34L246.85,332.16L250.93,313.88L255.01,317.69L259.09,313.88L263.17,313.88L267.25,319.89L271.33,325.13L275.41,332.16L279.49,325.13L283.57,325.13L287.65,317.69L291.73,315.7L295.81,328.35L299.89,332.16L303.97,322.34L310.09,332.16L314.17,315.7L318.25,332.16L322.33,328.35L326.41,332.16L330.49,328.35L334.57,328.35L338.65,342.82L342.73,332.16L346.81,336.81L350.89,332.16L354.97,332.16L359.05,319.89L363.13,328.35L367.21,365.75L371.29,336.81L375.37,336.81L379.45,342.82L383.54,351.28L387.62,332.16L391.7,342.82L395.78,365.75L399.86,342.82L403.94,336.81L408.02,322.34L412.1,336.81L416.18,342.82L420.26,365.75L424.34,351.28L428.42,342.82L432.5,351.28L436.58,336.81L440.66,365.75L444.74,336.81L448.82,342.82L452.9,342.82L456.98,336.81L461.06,342.82L465.14,342.82L469.22,328.35L473.3,342.82L477.38,351.28L483.5,342.82L493.7,342.82L497.78,351.28L501.86,365.75L505.94,336.81L512.06,336.81L518.18,342.82L524.3,351.28L528.38,365.75L532.46,365.75L538.58,351.28L542.66,365.75L546.74,365.75L556.94,342.82L561.02,342.82L567.14,336.81L571.22,351.28L581.42,336.81L587.54,365.75L593.66,342.82L601.82,365.75L607.94,342.82L612.02,351.28L618.14,336.81L622.22,365.75L626.3,351.28L632.42,351.28L646.71,351.28L650.79,336.81L656.91,351.28L667.11,342.82L671.19,351.28L675.27,365.75L679.35,351.28L683.43,365.75L687.51,351.28L691.59,351.28L697.71,342.82L703.83,365.75L707.91,351.28L711.99,351.28L716.07,365.75L720.15,365.75L728.31,351.28L732.39,365.75L867.03,365.75L875.19,351.28L879.27,365.75L883.35,365.75L946.6,365.75L950.68,351.28L958.84,365.75L973.12,351.28L983.32,351.28L993.52,365.75L1001.68,365.75L1009.84,351.28L1018,365.75" style="vector-effect: none; fill: none; stroke: rgb(244, 91, 91); stroke-opacity: 1; stroke-width: 2px; opacity: 1;"/></g><g class="points"/><g class="text"/></g><g class="trace scatter tracea1d557" style="stroke-miterlimit: 2; opacity: 1;"><g class="fills"/><g class="errorbars"/><g class="lines"><path class="js-line" d="M0,29.25L4.08,88.86L10.2,113.28L14.28,144.64L20.4,185.07L28.56,201.66L34.68,204.1L38.76,209.44L44.88,222.9L53.04,228.86L59.16,229.73L63.24,233.15L69.36,240.33L73.44,244.14L79.56,241.87L83.64,246.76L87.72,247.91L93.84,254.44L97.92,254.24L108.12,257.36L112.2,260.34L118.32,263.99L122.4,265.13L128.53,265.47L132.61,266.89L142.81,267.45L146.89,270.92L153.01,274.28L157.09,274.54L161.17,275.08L167.29,277.67L171.37,280.29L177.49,280.64L181.57,280.64L185.65,278.3L191.77,283.68L195.85,285.38L206.05,285.38L212.17,290.95L216.25,284.94L220.33,290.38L226.45,292.77L230.53,298.56L236.65,296.2L240.73,296.2L244.81,288.75L250.93,299.41L255.01,297.74L261.13,299.41L265.21,292.14L269.29,305.42L275.41,305.42L279.49,298.56L285.61,300.3L289.69,305.42L293.77,297.74L299.89,300.3L303.97,305.42L310.09,300.3L314.17,302.2L318.25,296.2L324.37,304.29L328.45,317.69L334.57,317.69L338.65,302.2L342.73,306.61L348.85,322.34L352.93,310.66L359.05,307.88L363.13,313.88L369.25,313.88L373.33,310.66L377.41,322.34L383.54,313.88L387.62,328.35L393.74,317.69L397.82,313.88L401.9,306.61L408.02,332.16L412.1,309.22L418.22,306.61L422.3,332.16L426.38,328.35L432.5,322.34L436.58,325.13L442.7,325.13L446.78,313.88L450.86,336.81L456.98,312.21L461.06,322.34L467.18,309.22L471.26,319.89L475.34,325.13L481.46,319.89L485.54,319.89L491.66,332.16L495.74,365.75L501.86,328.35L505.94,325.13L510.02,342.82L516.14,332.16L520.22,332.16L526.34,351.28L530.42,328.35L534.5,325.13L540.62,317.69L544.7,328.35L550.82,312.21L554.9,342.82L558.98,328.35L565.1,332.16L569.18,325.13L575.3,336.81L579.38,319.89L583.46,336.81L591.62,328.35L595.7,332.16L601.82,336.81L605.9,322.34L609.98,342.82L616.1,328.35L620.18,336.81L626.3,336.81L636.51,351.28L640.59,351.28L644.67,325.13L650.79,342.82L654.87,332.16L660.99,342.82L667.11,332.16L671.19,365.75L677.31,328.35L681.39,336.81L687.51,322.34L691.59,351.28L695.67,322.34L701.79,332.16L705.87,365.75L711.99,342.82L716.07,351.28L722.19,332.16L728.31,332.16L732.39,351.28L738.51,351.28L742.59,336.81L746.67,336.81L752.79,332.16L756.87,332.16L762.99,342.82L769.11,328.35L773.19,365.75L779.31,332.16L783.39,365.75L789.51,332.16L793.59,342.82L801.75,332.16L805.83,365.75L811.95,342.82L818.07,342.82L822.15,342.82L828.27,365.75L832.35,351.28L836.43,351.28L848.67,351.28L854.79,342.82L860.91,351.28L864.99,342.82L871.11,365.75L875.19,351.28L887.43,351.28L893.56,365.75L899.68,351.28L905.8,342.82L920.08,342.82L926.2,365.75L932.32,342.82L936.4,351.28L944.56,342.82L950.68,365.75L956.8,351.28L960.88,365.75L967,336.81L973.12,342.82L977.2,351.28L985.36,351.28L995.56,351.28L1001.68,365.75L1005.76,351.28L1013.92,342.82L1018,342.82" style="vector-effect: none; fill: none; stroke: rgb(145, 232, 225); stroke-opacity: 1; stroke-width: 2px; opacity: 1;"/></g><g class="points"/><g class="text"/></g><g class="trace scatter traceb84a86" style="stroke-miterlimit: 2; opacity: 1;"><g class="fills"/><g class="errorbars"/><g class="lines"><path class="js-line" d="M0,19.25L4.08,79.18L8.16,117.6L18.36,163.98L22.44,176.96L30.6,195.85L36.72,206.99L40.8,213.59L44.88,217.51L48.96,223.99L53.04,228.92L59.16,234.93L63.24,236.8L71.4,246.01L77.52,249.36L81.6,253.45L85.68,250.92L89.76,257.59L93.84,261.58L99.96,261.02L104.04,264.47L108.12,268.61L112.2,270.26L116.28,270.05L122.4,272.29L126.48,277.98L130.57,276.48L134.65,274.02L138.73,277.98L144.85,284.51L148.93,286.29L153.01,284.09L157.09,288.23L161.17,283.68L167.29,288.23L175.45,292.14L179.53,294.07L183.61,299.41L189.73,296.95L193.81,295.46L197.89,300.3L201.97,298.56L206.05,292.14L212.17,299.41L216.25,307.88L220.33,303.22L224.41,301.23L230.53,304.29L234.61,304.29L238.69,301.23L242.77,303.22L246.85,307.88L252.97,303.22L257.05,310.66L261.13,306.61L265.21,328.35L269.29,312.21L275.41,310.66L279.49,313.88L287.65,317.69L291.73,313.88L297.85,325.13L301.93,317.69L306.01,312.21L310.09,313.88L314.17,313.88L320.29,328.35L324.37,319.89L328.45,336.81L332.53,328.35L336.61,336.81L342.73,312.21L346.81,332.16L350.89,319.89L354.97,325.13L359.05,328.35L365.17,322.34L369.25,325.13L373.33,319.89L377.41,315.7L383.54,332.16L387.62,328.35L391.7,319.89L395.78,322.34L399.86,332.16L405.98,336.81L410.06,325.13L414.14,342.82L418.22,332.16L422.3,342.82L428.42,325.13L434.54,315.7L438.62,342.82L442.7,322.34L446.78,325.13L452.9,322.34L456.98,336.81L461.06,336.81L465.14,342.82L469.22,351.28L475.34,332.16L479.42,351.28L483.5,332.16L487.58,336.81L491.66,336.81L497.78,365.75L501.86,336.81L505.94,342.82L510.02,351.28L514.1,336.81L520.22,351.28L524.3,342.82L528.38,336.81L532.46,332.16L540.62,365.75L544.7,342.82L548.78,342.82L552.86,336.81L556.94,342.82L563.06,365.75L567.14,351.28L571.22,342.82L575.3,342.82L581.42,351.28L587.54,365.75L591.62,365.75L595.7,336.81L603.86,336.81L614.06,365.75L618.14,351.28L622.22,328.35L626.3,365.75L630.38,351.28L636.51,342.82L640.59,351.28L644.67,351.28L648.75,342.82L652.83,328.35L658.95,351.28L663.03,342.82L667.11,342.82L673.23,351.28L677.31,365.75L687.51,365.75L695.67,351.28L707.91,351.28L711.99,365.75L716.07,351.28L720.15,351.28L724.23,365.75L732.39,365.75L740.55,351.28L746.67,351.28L754.83,342.82L758.91,365.75L767.07,365.75L771.15,342.82L775.23,365.75L781.35,365.75L791.55,351.28L799.71,351.28L803.79,365.75L809.91,351.28L813.99,336.81L826.23,351.28L832.35,351.28L838.47,365.75L844.59,351.28L850.71,365.75L867.03,365.75L873.15,342.82L883.35,351.28L895.6,351.28L899.68,365.75L913.96,342.82L918.04,365.75L922.12,351.28L926.2,365.75L934.36,365.75L956.8,365.75L964.96,342.82L971.08,351.28L977.2,351.28L1003.72,351.28L1011.88,365.75L1018,365.75" style="vector-effect: none; fill: none; stroke: rgb(124, 181, 236); stroke-opacity: 1; stroke-width: 2px; opacity: 1;"/></g><g class="points"/><g class="text"/></g><g class="trace scatter trace251f4e" style="stroke-miterlimit: 2; opacity: 1;"><g class="fills"/><g class="errorbars"/><g class="lines"><path class="js-line" d="M0,22.09L4.08,81.16L8.16,124.96L12.24,154.21L18.36,174.69L22.44,189.32L26.52,200.48L34.68,215.81L38.76,219.92L44.88,232.19L48.96,236.54L53.04,238.37L57.12,242.03L65.28,248.58L71.4,253.17L75.48,253.84L79.56,261.58L83.64,260.34L87.72,261.16L91.8,264.47L97.92,266.35L102,269.01L106.08,275.08L110.16,272.77L114.24,275.91L118.32,277.07L124.44,275.63L128.53,281.73L132.61,280.29L136.69,282.49L140.77,286.76L144.85,286.29L150.97,287.73L155.05,289.82L159.13,289.82L163.21,288.23L167.29,297.74L171.37,289.28L177.49,302.2L181.57,292.77L185.65,296.2L189.73,295.46L193.81,302.2L197.89,296.95L204.01,304.29L208.09,298.56L212.17,307.88L216.25,303.22L220.33,296.2L224.41,303.22L230.53,305.42L238.69,305.42L242.77,317.69L246.85,301.23L250.93,315.7L257.05,315.7L261.13,319.89L265.21,309.22L269.29,325.13L273.37,306.61L277.45,312.21L283.57,328.35L287.65,312.21L291.73,325.13L295.81,328.35L299.89,317.69L303.97,328.35L310.09,315.7L314.17,313.88L318.25,328.35L322.33,319.89L326.41,328.35L330.49,312.21L336.61,325.13L340.69,319.89L348.85,325.13L352.93,332.16L357.01,365.75L363.13,322.34L367.21,336.81L371.29,328.35L375.37,365.75L379.45,325.13L383.54,325.13L389.66,332.16L393.74,342.82L397.82,336.81L401.9,332.16L405.98,325.13L410.06,342.82L416.18,332.16L420.26,342.82L424.34,332.16L428.42,332.16L432.5,342.82L436.58,322.34L442.7,332.16L450.86,332.16L454.94,351.28L459.02,325.13L463.1,342.82L469.22,328.35L473.3,365.75L477.38,336.81L481.46,336.81L485.54,332.16L489.62,342.82L495.74,351.28L499.82,342.82L503.9,351.28L507.98,351.28L514.1,351.28L518.18,365.75L524.3,365.75L530.42,336.81L534.5,342.82L540.62,328.35L544.7,351.28L548.78,351.28L554.9,342.82L558.98,351.28L569.18,336.81L573.26,342.82L577.34,342.82L583.46,336.81L591.62,365.75L595.7,342.82L599.78,351.28L603.86,342.82L612.02,351.28L616.1,365.75L622.22,342.82L626.3,332.16L630.38,365.75L636.51,351.28L642.63,351.28L650.79,365.75L654.87,365.75L660.99,351.28L669.15,351.28L679.35,365.75L689.55,332.16L693.63,336.81L699.75,336.81L703.83,351.28L716.07,351.28L726.27,365.75L736.47,342.82L740.55,365.75L744.63,351.28L750.75,365.75L765.03,342.82L769.11,365.75L773.19,365.75L779.31,351.28L785.43,351.28L791.55,365.75L801.75,365.75L805.83,351.28L809.91,365.75L816.03,351.28L820.11,365.75L826.23,365.75L867.03,365.75L875.19,342.82L879.27,351.28L883.35,365.75L891.52,365.75L901.72,351.28L907.84,365.75L916,365.75L920.08,351.28L926.2,342.82L930.28,365.75L944.56,365.75L948.64,351.28L956.8,351.28L975.16,351.28L983.32,365.75L987.4,365.75L995.56,342.82L999.64,365.75L1005.76,365.75L1018,365.75" style="vector-effect: none; fill: none; stroke: rgb(67, 67, 72); stroke-opacity: 1; stroke-width: 2px; opacity: 1;"/></g><g class="points"/><g class="text"/></g><g class="trace scatter traced1f8ac" style="stroke-miterlimit: 2; opacity: 1;"><g class="fills"/><g class="errorbars"/><g class="lines"><path class="js-line" d="M0,30.91L10.2,128.95L16.32,170.36L20.4,179.23L26.52,184.48L30.6,189.65L36.72,200.7L40.8,204.1L46.92,205.99L51,209.33L57.12,216.1L61.2,219.12L67.32,219.2L71.4,222.22L77.52,225.55L81.6,227.13L87.72,226.8L91.8,229.55L97.92,232.68L102,235.62L108.12,237.63L112.2,237.45L118.32,241.65L122.4,240.84L128.53,243.9L142.81,246.9L148.93,247.04L159.13,250.92L163.21,253.74L173.41,252.7L179.53,257.59L183.61,256.12L189.73,257.59L199.93,260.48L204.01,260.88L210.13,261.44L214.21,259.3L224.41,265.13L230.53,266.89L234.61,263.05L240.73,269.01L244.81,266.17L250.93,265.47L255.01,269.01L261.13,267.63L265.21,273.26L271.33,272.29L275.41,270.92L281.53,271.36L285.61,269.62L291.73,277.07L295.81,272.53L301.93,271.14L306.01,275.35L312.13,273.77L316.21,276.77L322.33,278.94L326.41,280.64L332.53,279.94L336.61,278.3L342.73,282.1L348.85,281.73L352.93,277.07L359.05,282.88L363.13,277.98L369.25,284.09L373.33,283.68L379.45,282.49L383.54,285.83L389.66,289.82L393.74,287.24L399.86,289.28L403.94,292.14L410.06,283.27L414.14,285.38L420.26,289.28L424.34,289.82L430.46,289.28L434.54,290.38L440.66,290.38L444.74,292.14L450.86,292.14L454.94,287.24L461.06,295.46L465.14,296.95L471.26,286.29L475.34,291.54L481.46,288.75L485.54,291.54L491.66,282.88L495.74,293.41L501.86,290.95L505.94,303.22L512.06,289.28L516.14,296.2L522.26,292.14L526.34,302.2L532.46,302.2L536.54,290.38L542.66,293.41L546.74,301.23L552.86,305.42L556.94,290.95L563.06,307.88L567.14,305.42L573.26,307.88L577.34,296.95L583.46,302.2L587.54,304.29L593.66,306.61L597.74,296.2L603.86,295.46L607.94,304.29L614.06,304.29L618.14,303.22L624.26,302.2L628.34,305.42L634.46,306.61L638.55,299.41L644.67,312.21L648.75,297.74L654.87,305.42L658.95,307.88L665.07,303.22L669.15,307.88L675.27,298.56L681.39,307.88L685.47,304.29L691.59,301.23L695.67,315.7L701.79,303.22L705.87,303.22L711.99,312.21L716.07,306.61L722.19,306.61L726.27,317.69L732.39,297.74L736.47,325.13L742.59,307.88L746.67,305.42L752.79,307.88L756.87,313.88L762.99,312.21L767.07,317.69L773.19,309.22L777.27,309.22L783.39,315.7L787.47,319.89L793.59,328.35L797.67,305.42L803.79,310.66L807.87,313.88L813.99,315.7L818.07,322.34L824.19,312.21L828.27,319.89L834.39,319.89L838.47,312.21L844.59,319.89L848.67,319.89L854.79,328.35L858.87,310.66L864.99,319.89L869.07,315.7L875.19,319.89L879.27,322.34L885.39,319.89L889.47,315.7L895.6,319.89L899.68,325.13L905.8,315.7L909.88,325.13L916,322.34L920.08,309.22L926.2,322.34L930.28,325.13L936.4,325.13L940.48,325.13L946.6,312.21L950.68,312.21L956.8,328.35L960.88,328.35L967,322.34L971.08,322.34L977.2,313.88L981.28,325.13L987.4,328.35L991.48,332.16L997.6,317.69L1001.68,336.81L1007.8,322.34L1011.88,317.69L1018,319.89" style="vector-effect: none; fill: none; stroke: rgb(144, 237, 125); stroke-opacity: 1; stroke-width: 2px; opacity: 1;"/></g><g class="points"/><g class="text"/></g><g class="trace scatter trace4bddcf" style="stroke-miterlimit: 2; opacity: 1;"><g class="fills"/><g class="errorbars"/><g class="lines"><path class="js-line" d="M0,47.73L4.08,76.52L10.2,88.81L18.36,119.36L24.48,157.87L32.64,181.62L38.76,189.03L46.92,207.44L51,215.47L57.12,224.61L61.2,229.34L65.28,232.97L71.4,237.37L75.48,238.56L79.56,243.24L85.68,245.74L89.76,250.17L99.96,258.06L104.04,258.3L114.24,262.6L118.32,266.35L128.53,269.21L132.61,269.21L136.69,270.69L140.77,274.54L146.89,281.36L150.97,276.77L161.17,281.36L165.25,283.27L169.33,280.29L175.45,284.94L179.53,287.73L183.61,285.83L189.73,289.28L193.81,294.07L197.89,284.51L204.01,299.41L208.09,295.46L212.17,294.07L218.29,304.29L222.37,295.46L226.45,297.74L232.57,305.42L236.65,296.95L240.73,296.95L244.81,310.66L250.93,304.29L255.01,296.95L259.09,309.22L265.21,309.22L269.29,299.41L273.37,307.88L279.49,299.41L283.57,303.22L287.65,309.22L293.77,312.21L297.85,306.61L301.93,312.21L308.05,309.22L312.13,317.69L316.21,307.88L322.33,317.69L326.41,319.89L330.49,313.88L334.57,315.7L340.69,325.13L344.77,312.21L348.85,312.21L354.97,313.88L363.13,325.13L369.25,315.7L373.33,325.13L377.41,332.16L383.54,325.13L387.62,325.13L391.7,328.35L397.82,310.66L401.9,328.35L405.98,319.89L412.1,332.16L416.18,332.16L420.26,336.81L424.34,325.13L430.46,319.89L434.54,328.35L438.62,317.69L444.74,328.35L448.82,332.16L452.9,322.34L459.02,328.35L463.1,328.35L467.18,336.81L473.3,328.35L477.38,336.81L481.46,317.69L487.58,317.69L491.66,332.16L495.74,336.81L501.86,332.16L505.94,336.81L510.02,317.69L516.14,322.34L520.22,336.81L524.3,332.16L528.38,332.16L534.5,328.35L538.58,328.35L542.66,315.7L548.78,328.35L552.86,365.75L556.94,342.82L563.06,336.81L567.14,351.28L571.22,342.82L579.38,342.82L583.46,365.75L587.54,351.28L595.7,342.82L599.78,342.82L603.86,328.35L609.98,342.82L614.06,365.75L618.14,351.28L622.22,365.75L628.34,332.16L632.42,342.82L636.51,351.28L642.63,365.75L646.71,351.28L650.79,342.82L656.91,336.81L660.99,336.81L667.11,342.82L673.23,351.28L677.31,342.82L685.47,342.82L691.59,365.75L695.67,332.16L699.75,351.28L705.87,342.82L709.95,328.35L714.03,336.81L718.11,351.28L724.23,351.28L730.35,365.75L734.43,342.82L740.55,365.75L744.63,328.35L748.71,351.28L754.83,351.28L760.95,365.75L765.03,336.81L775.23,351.28L783.39,351.28L787.47,342.82L795.63,351.28L799.71,351.28L803.79,342.82L809.91,351.28L813.99,351.28L818.07,365.75L826.23,365.75L836.43,351.28L840.51,365.75L844.59,351.28L850.71,351.28L854.79,365.75L860.91,351.28L875.19,365.75L891.52,365.75L895.6,351.28L901.72,342.82L911.92,351.28L916,332.16L922.12,351.28L930.28,365.75L936.4,342.82L942.52,336.81L948.64,342.82L954.76,365.75L958.84,342.82L962.92,365.75L971.08,365.75L977.2,365.75L983.32,351.28L989.44,351.28L993.52,336.81L1007.8,351.28L1015.96,351.28" style="vector-effect: none; fill: none; stroke: rgb(247, 163, 92); stroke-opacity: 1; stroke-width: 2px; opacity: 1;"/></g><g class="points"/><g class="text"/></g><g class="trace scatter tracec21b8e" style="stroke-miterlimit: 2; opacity: 1;"><g class="fills"/><g class="errorbars"/><g class="lines"><path class="js-line" d="M0,34.63L4.08,74.77L10.2,91.48L18.36,142.42L24.48,191.38L28.56,202.96L32.64,210.31L38.76,211.31L42.84,216.47L46.92,220.82L53.04,231.44L57.12,236.88L61.2,238.84L67.32,239.52L71.4,240.79L81.6,251.35L85.68,252.7L89.76,256.67L95.88,256.34L99.96,255.37L104.04,260.21L110.16,261.44L114.24,263.52L118.32,266.71L124.44,264.8L128.53,272.53L132.61,271.14L138.73,270.26L142.81,275.91L146.89,277.98L153.01,274.81L157.09,283.27L161.17,276.19L167.29,283.27L171.37,280.64L175.45,289.28L181.57,283.68L185.65,281.36L189.73,284.94L195.85,292.77L199.93,289.28L204.01,296.2L210.13,298.56L214.21,301.23L218.29,287.73L224.41,299.41L228.49,303.22L232.57,298.56L238.69,295.46L242.77,300.3L248.89,296.2L252.97,313.88L257.05,299.41L263.17,305.42L267.25,304.29L271.33,302.2L277.45,305.42L281.53,313.88L285.61,300.3L291.73,306.61L295.81,304.29L299.89,319.89L306.01,307.88L310.09,319.89L314.17,309.22L320.29,313.88L324.37,307.88L328.45,312.21L334.57,304.29L338.65,328.35L342.73,322.34L348.85,312.21L352.93,315.7L357.01,317.69L363.13,315.7L367.21,328.35L371.29,325.13L377.41,310.66L381.49,332.16L385.58,315.7L391.7,315.7L395.78,325.13L399.86,332.16L405.98,309.22L410.06,322.34L414.14,351.28L420.26,328.35L424.34,317.69L428.42,328.35L434.54,325.13L438.62,332.16L442.7,322.34L448.82,328.35L452.9,336.81L456.98,332.16L463.1,336.81L467.18,328.35L471.26,332.16L477.38,342.82L481.46,336.81L485.54,322.34L491.66,328.35L495.74,319.89L499.82,332.16L505.94,336.81L510.02,319.89L514.1,328.35L520.22,325.13L524.3,342.82L528.38,332.16L534.5,342.82L538.58,342.82L542.66,322.34L548.78,342.82L552.86,328.35L556.94,342.82L563.06,332.16L567.14,351.28L571.22,342.82L577.34,332.16L581.42,351.28L585.5,365.75L591.62,351.28L595.7,332.16L599.78,351.28L605.9,342.82L612.02,332.16L616.1,332.16L622.22,351.28L626.3,336.81L630.38,365.75L636.51,342.82L640.59,336.81L644.67,365.75L652.83,332.16L656.91,342.82L660.99,342.82L669.15,332.16L673.23,365.75L677.31,351.28L683.43,342.82L687.51,365.75L693.63,351.28L699.75,336.81L703.83,365.75L707.91,351.28L714.03,336.81L726.27,336.81L730.35,351.28L736.47,332.16L742.59,351.28L746.67,342.82L750.75,365.75L765.03,365.75L771.15,351.28L775.23,342.82L779.31,342.82L785.43,365.75L789.51,351.28L793.59,351.28L799.71,365.75L803.79,365.75L807.87,351.28L813.99,365.75L820.11,342.82L824.19,365.75L832.35,336.81L842.55,351.28L850.71,342.82L858.87,342.82L864.99,365.75L875.19,365.75L881.31,351.28L885.39,351.28L891.52,365.75L905.8,365.75L913.96,351.28L920.08,365.75L924.16,351.28L928.24,365.75L940.48,351.28L950.68,351.28L954.76,365.75L969.04,365.75L983.32,351.28L993.52,365.75L997.6,365.75L1018,365.75" style="vector-effect: none; fill: none; stroke: rgb(128, 133, 233); stroke-opacity: 1; stroke-width: 2px; opacity: 1;"/></g><g class="points"/><g class="text"/></g><g class="trace scatter tracef4d8c9" style="stroke-miterlimit: 2; opacity: 1;"><g class="fills"/><g class="errorbars"/><g class="lines"><path class="js-line" d="M0,43.5L4.08,74.62L8.16,96.46L14.28,104.77L18.36,124.92L30.6,182.75L34.68,197.43L40.8,217.12L44.88,222.63L48.96,227.85L53.04,231.54L57.12,236.97L63.24,238.65L67.32,243.84L71.4,246.21L75.48,250.33L79.56,251.61L85.68,258.06L89.76,257.94L93.84,260.61L97.92,261.3L102,264.97L106.08,267.63L120.36,273.26L124.44,272.77L128.53,274.02L134.65,274.81L138.73,280.29L142.81,284.51L146.89,281.73L150.97,289.28L157.09,282.1L161.17,288.23L169.33,286.29L173.41,286.76L177.49,292.14L183.61,296.2L187.69,291.54L191.77,291.54L195.85,293.41L199.93,296.2L206.05,298.56L210.13,302.2L214.21,297.74L218.29,304.29L222.37,299.41L226.45,301.23L232.57,301.23L236.65,307.88L240.73,312.21L244.81,304.29L248.89,313.88L255.01,312.21L259.09,306.61L263.17,313.88L267.25,304.29L271.33,319.89L277.45,319.89L281.53,306.61L285.61,312.21L289.69,325.13L293.77,313.88L297.85,319.89L303.97,306.61L308.05,317.69L312.13,315.7L316.21,319.89L320.29,313.88L326.41,317.69L330.49,315.7L334.57,322.34L338.65,315.7L342.73,342.82L348.85,319.89L352.93,328.35L357.01,322.34L361.09,351.28L365.17,336.81L369.25,325.13L375.37,328.35L379.45,325.13L383.54,322.34L387.62,336.81L391.7,332.16L397.82,328.35L401.9,336.81L405.98,351.28L410.06,336.81L414.14,328.35L418.22,328.35L424.34,332.16L428.42,328.35L432.5,336.81L436.58,336.81L440.66,332.16L446.78,332.16L450.86,342.82L454.94,342.82L459.02,365.75L469.22,332.16L473.3,319.89L477.38,336.81L481.46,328.35L485.54,322.34L489.62,351.28L495.74,328.35L499.82,336.81L503.9,332.16L507.98,342.82L512.06,325.13L518.18,342.82L522.26,332.16L526.34,332.16L530.42,351.28L534.5,351.28L538.58,342.82L544.7,342.82L548.78,365.75L552.86,351.28L556.94,351.28L561.02,365.75L567.14,336.81L571.22,342.82L575.3,365.75L579.38,332.16L583.46,332.16L589.58,342.82L593.66,365.75L597.74,336.81L601.82,365.75L605.9,365.75L609.98,365.75L616.1,351.28L620.18,342.82L624.26,336.81L628.34,342.82L632.42,351.28L642.63,351.28L648.75,365.75L652.83,365.75L656.91,342.82L663.03,342.82L667.11,365.75L671.19,351.28L675.27,365.75L679.35,336.81L687.51,351.28L693.63,365.75L697.71,336.81L701.79,365.75L705.87,365.75L709.95,351.28L720.15,365.75L724.23,351.28L728.31,342.82L742.59,351.28L750.75,365.75L754.83,351.28L767.07,351.28L771.15,342.82L775.23,351.28L783.39,365.75L787.47,351.28L797.67,365.75L801.75,365.75L811.95,365.75L822.15,351.28L832.35,365.75L838.47,351.28L842.55,365.75L850.71,351.28L856.83,365.75L862.95,351.28L871.11,365.75L877.23,351.28L887.43,342.82L893.56,365.75L901.72,365.75L907.84,342.82L911.92,365.75L920.08,365.75L930.28,365.75L934.36,342.82L948.64,351.28L960.88,365.75L983.32,365.75L989.44,351.28L997.6,365.75L1003.72,365.75L1013.92,351.28L1018,365.75" style="vector-effect: none; fill: none; stroke: rgb(241, 92, 128); stroke-opacity: 1; stroke-width: 2px; opacity: 1;"/></g><g class="points"/><g class="text"/></g></g></g></g><g class="zerolinelayer-above"/><path class="xlines-above crisp" d="M0,0" style="fill: none;"/><path class="ylines-above crisp" d="M0,0" style="fill: none;"/><g class="overlines-above"/><g class="xaxislayer-above"><g class="xtick"><text text-anchor="middle" x="0" y="451" transform="translate(159.95999999999998,0)" style="font-family: 'Lucida Grande', 'Open Sans', verdana, arial, sans-serif; font-size: 10px; fill: rgb(0, 0, 0); fill-opacity: 1; white-space: pre;">50</text></g><g class="xtick"><text text-anchor="middle" x="0" y="451" style="font-family: 'Lucida Grande', 'Open Sans', verdana, arial, sans-serif; font-size: 10px; fill: rgb(0, 0, 0); fill-opacity: 1; white-space: pre;" transform="translate(261.97,0)">100</text></g><g class="xtick"><text text-anchor="middle" x="0" y="451" style="font-family: 'Lucida Grande', 'Open Sans', verdana, arial, sans-serif; font-size: 10px; fill: rgb(0, 0, 0); fill-opacity: 1; white-space: pre;" transform="translate(363.97,0)">150</text></g><g class="xtick"><text text-anchor="middle" x="0" y="451" style="font-family: 'Lucida Grande', 'Open Sans', verdana, arial, sans-serif; font-size: 10px; fill: rgb(0, 0, 0); fill-opacity: 1; white-space: pre;" transform="translate(465.98,0)">200</text></g><g class="xtick"><text text-anchor="middle" x="0" y="451" style="font-family: 'Lucida Grande', 'Open Sans', verdana, arial, sans-serif; font-size: 10px; fill: rgb(0, 0, 0); fill-opacity: 1; white-space: pre;" transform="translate(567.98,0)">250</text></g><g class="xtick"><text text-anchor="middle" x="0" y="451" style="font-family: 'Lucida Grande', 'Open Sans', verdana, arial, sans-serif; font-size: 10px; fill: rgb(0, 0, 0); fill-opacity: 1; white-space: pre;" transform="translate(669.98,0)">300</text></g><g class="xtick"><text text-anchor="middle" x="0" y="451" style="font-family: 'Lucida Grande', 'Open Sans', verdana, arial, sans-serif; font-size: 10px; fill: rgb(0, 0, 0); fill-opacity: 1; white-space: pre;" transform="translate(771.99,0)">350</text></g><g class="xtick"><text text-anchor="middle" x="0" y="451" style="font-family: 'Lucida Grande', 'Open Sans', verdana, arial, sans-serif; font-size: 10px; fill: rgb(0, 0, 0); fill-opacity: 1; white-space: pre;" transform="translate(873.99,0)">400</text></g><g class="xtick"><text text-anchor="middle" x="0" y="451" style="font-family: 'Lucida Grande', 'Open Sans', verdana, arial, sans-serif; font-size: 10px; fill: rgb(0, 0, 0); fill-opacity: 1; white-space: pre;" transform="translate(976,0)">450</text></g><g class="xtick"><text text-anchor="middle" x="0" y="451" style="font-family: 'Lucida Grande', 'Open Sans', verdana, arial, sans-serif; font-size: 10px; fill: rgb(0, 0, 0); fill-opacity: 1; white-space: pre;" transform="translate(1078,0)">500</text></g></g><g class="yaxislayer-above"><g class="ytick"><text text-anchor="end" x="54" y="3.5" transform="translate(0,415.75)" style="font-family: 'Lucida Grande', 'Open Sans', verdana, arial, sans-serif; font-size: 10px; fill: rgb(0, 0, 0); fill-opacity: 1; white-space: pre;">1</text></g><g class="ytick"><text text-anchor="end" x="54" y="3.5" style="font-family: 'Lucida Grande', 'Open Sans', verdana, arial, sans-serif; font-size: 10px; fill: rgb(0, 0, 0); fill-opacity: 1; white-space: pre;" transform="translate(0,367.69)">10</text></g><g class="ytick"><text text-anchor="end" x="54" y="3.5" style="font-family: 'Lucida Grande', 'Open Sans', verdana, arial, sans-serif; font-size: 10px; fill: rgb(0, 0, 0); fill-opacity: 1; white-space: pre;" transform="translate(0,319.62)">100</text></g><g class="ytick"><text text-anchor="end" x="54" y="3.5" style="font-family: 'Lucida Grande', 'Open Sans', verdana, arial, sans-serif; font-size: 10px; fill: rgb(0, 0, 0); fill-opacity: 1; white-space: pre;" transform="translate(0,271.56)">1000</text></g><g class="ytick"><text text-anchor="end" x="54" y="3.5" style="font-family: 'Lucida Grande', 'Open Sans', verdana, arial, sans-serif; font-size: 10px; fill: rgb(0, 0, 0); fill-opacity: 1; white-space: pre;" transform="translate(0,223.5)">10k</text></g><g class="ytick"><text text-anchor="end" x="54" y="3.5" style="font-family: 'Lucida Grande', 'Open Sans', verdana, arial, sans-serif; font-size: 10px; fill: rgb(0, 0, 0); fill-opacity: 1; white-space: pre;" transform="translate(0,175.44)">100k</text></g><g class="ytick"><text text-anchor="end" x="54" y="3.5" style="font-family: 'Lucida Grande', 'Open Sans', verdana, arial, sans-serif; font-size: 10px; fill: rgb(0, 0, 0); fill-opacity: 1; white-space: pre;" transform="translate(0,127.37)">1M</text></g><g class="ytick"><text text-anchor="end" x="54" y="3.5" style="font-family: 'Lucida Grande', 'Open Sans', verdana, arial, sans-serif; font-size: 10px; fill: rgb(0, 0, 0); fill-opacity: 1; white-space: pre;" transform="translate(0,79.31)">10M</text></g></g><g class="overaxes-above"/></g></g><g class="polarlayer"/><g class="smithlayer"/><g class="ternarylayer"/><g class="geolayer"/><g class="funnelarealayer"/><g class="pielayer"/><g class="iciclelayer"/><g class="treemaplayer"/><g class="sunburstlayer"/><g class="glimages"/><defs id="topdefs-e6a4ea"><g class="clips"/></defs><g class="layer-above"><g class="imagelayer"/><g class="shapelayer"/></g><g class="infolayer"><g class="g-gtitle"><text class="gtitle" x="550" y="25" text-anchor="middle" dy="0em" style="opacity: 1; font-family: 'Lucida Grande', 'Open Sans', verdana, arial, sans-serif; font-size: 20px; fill: rgb(68, 68, 68); fill-opacity: 1; white-space: pre;"><tspan class="line" dy="0em" x="550" y="25">RSeQC: Read Duplication</tspan><tspan class="line" dy="1.3em" x="550" y="25"><tspan style="font-size:70%" dy="-0.6em">16 lines</tspan><tspan dy="0.42em"></tspan></tspan></text></g><g class="g-xtitle"><text class="xtitle" x="569" y="487" text-anchor="middle" style="opacity: 0.3; font-family: 'Lucida Grande', 'Open Sans', verdana, arial, sans-serif; font-size: 14px; fill: rgb(0, 0, 0); fill-opacity: 1; white-space: pre;">Occurrence of read</text></g><g class="g-ytitle"><text class="ytitle" transform="rotate(-90,22,242.5)" x="22" y="242.5" text-anchor="middle" style="opacity: 0.3; font-family: 'Lucida Grande', 'Open Sans', verdana, arial, sans-serif; font-size: 14px; fill: rgb(0, 0, 0); fill-opacity: 1; white-space: pre;">Number of Reads (log10)</text></g></g></svg>