<svg class="main-svg" xmlns="http://www.w3.org/2000/svg" xmlns:xlink="http://www.w3.org/1999/xlink" width="2200" height="1000" style="" viewBox="0 0 1100 500"><rect x="0" y="0" width="1100" height="500" style="fill: rgb(255, 255, 255); fill-opacity: 1;"/><defs id="defs-d68732"><g class="clips"><clipPath id="clipd68732xyplot" class="plotclip"><rect width="1025" height="385"/></clipPath><clipPath class="axesclip" id="clipd68732x"><rect x="60" y="0" width="1025" height="500"/></clipPath><clipPath class="axesclip" id="clipd68732y"><rect x="0" y="50" width="1100" height="385"/></clipPath><clipPath class="axesclip" id="clipd68732xy"><rect x="60" y="50" width="1025" height="385"/></clipPath></g><g class="gradients"/><g class="patterns"/></defs><g class="bglayer"/><g class="layer-below"><g class="imagelayer"/><g class="shapelayer"/></g><g class="cartesianlayer"><g class="subplot xy"><g class="layer-subplot"><g class="shapelayer"/><g class="imagelayer"/></g><g class="minor-gridlayer"><g class="x"/><g class="y"/></g><g class="gridlayer"><g class="x"><path class="xgrid crisp" transform="translate(111.25,0)" d="M0,50v385" style="stroke: rgb(0, 0, 0); stroke-opacity: 0.05; stroke-width: 1px;"/><path class="xgrid crisp" transform="translate(162.5,0)" d="M0,50v385" style="stroke: rgb(0, 0, 0); stroke-opacity: 0.05; stroke-width: 1px;"/><path class="xgrid crisp" transform="translate(213.75,0)" d="M0,50v385" style="stroke: rgb(0, 0, 0); stroke-opacity: 0.05; stroke-width: 1px;"/><path class="xgrid crisp" transform="translate(265,0)" d="M0,50v385" style="stroke: rgb(0, 0, 0); stroke-opacity: 0.05; stroke-width: 1px;"/><path class="xgrid crisp" transform="translate(316.25,0)" d="M0,50v385" style="stroke: rgb(0, 0, 0); stroke-opacity: 0.05; stroke-width: 1px;"/><path class="xgrid crisp" transform="translate(367.5,0)" d="M0,50v385" style="stroke: rgb(0, 0, 0); stroke-opacity: 0.05; stroke-width: 1px;"/><path class="xgrid crisp" transform="translate(418.75,0)" d="M0,50v385" style="stroke: rgb(0, 0, 0); stroke-opacity: 0.05; stroke-width: 1px;"/><path class="xgrid crisp" transform="translate(470,0)" d="M0,50v385" style="stroke: rgb(0, 0, 0); stroke-opacity: 0.05; stroke-width: 1px;"/><path class="xgrid crisp" transform="translate(521.25,0)" d="M0,50v385" style="stroke: rgb(0, 0, 0); stroke-opacity: 0.05; stroke-width: 1px;"/><path class="xgrid crisp" transform="translate(572.5,0)" d="M0,50v385" style="stroke: rgb(0, 0, 0); stroke-opacity: 0.05; stroke-width: 1px;"/><path class="xgrid crisp" transform="translate(623.75,0)" d="M0,50v385" style="stroke: rgb(0, 0, 0); stroke-opacity: 0.05; stroke-width: 1px;"/><path class="xgrid crisp" transform="translate(675,0)" d="M0,50v385" style="stroke: rgb(0, 0, 0); stroke-opacity: 0.05; stroke-width: 1px;"/><path class="xgrid crisp" transform="translate(726.25,0)" d="M0,50v385" style="stroke: rgb(0, 0, 0); stroke-opacity: 0.05; stroke-width: 1px;"/><path class="xgrid crisp" transform="translate(777.5,0)" d="M0,50v385" style="stroke: rgb(0, 0, 0); stroke-opacity: 0.05; stroke-width: 1px;"/><path class="xgrid crisp" transform="translate(828.75,0)" d="M0,50v385" style="stroke: rgb(0, 0, 0); stroke-opacity: 0.05; stroke-width: 1px;"/><path class="xgrid crisp" transform="translate(880,0)" d="M0,50v385" style="stroke: rgb(0, 0, 0); stroke-opacity: 0.05; stroke-width: 1px;"/><path class="xgrid crisp" transform="translate(931.25,0)" d="M0,50v385" style="stroke: rgb(0, 0, 0); stroke-opacity: 0.05; stroke-width: 1px;"/><path class="xgrid crisp" transform="translate(982.5,0)" d="M0,50v385" style="stroke: rgb(0, 0, 0); stroke-opacity: 0.05; stroke-width: 1px;"/><path class="xgrid crisp" transform="translate(1033.75,0)" d="M0,50v385" style="stroke: rgb(0, 0, 0); stroke-opacity: 0.05; stroke-width: 1px;"/></g><g class="y"><path class="ygrid crisp" transform="translate(0,422.43)" d="M60,0h1025" style="stroke: rgb(0, 0, 0); stroke-opacity: 0.05; stroke-width: 1px;"/><path class="ygrid crisp" transform="translate(0,405.34)" d="M60,0h1025" style="stroke: rgb(0, 0, 0); stroke-opacity: 0.05; stroke-width: 1px;"/><path class="ygrid crisp" transform="translate(0,391.38)" d="M60,0h1025" style="stroke: rgb(0, 0, 0); stroke-opacity: 0.05; stroke-width: 1px;"/><path class="ygrid crisp" transform="translate(0,379.57)" d="M60,0h1025" style="stroke: rgb(0, 0, 0); stroke-opacity: 0.05; stroke-width: 1px;"/><path class="ygrid crisp" transform="translate(0,369.34)" d="M60,0h1025" style="stroke: rgb(0, 0, 0); stroke-opacity: 0.05; stroke-width: 1px;"/><path class="ygrid crisp" transform="translate(0,360.32)" d="M60,0h1025" style="stroke: rgb(0, 0, 0); stroke-opacity: 0.05; stroke-width: 1px;"/><path class="ygrid crisp" transform="translate(0,352.25)" d="M60,0h1025" style="stroke: rgb(0, 0, 0); stroke-opacity: 0.05; stroke-width: 1px;"/><path class="ygrid crisp" transform="translate(0,299.16999999999996)" d="M60,0h1025" style="stroke: rgb(0, 0, 0); stroke-opacity: 0.05; stroke-width: 1px;"/><path class="ygrid crisp" transform="translate(0,268.11)" d="M60,0h1025" style="stroke: rgb(0, 0, 0); stroke-opacity: 0.05; stroke-width: 1px;"/><path class="ygrid crisp" transform="translate(0,246.08)" d="M60,0h1025" style="stroke: rgb(0, 0, 0); stroke-opacity: 0.05; stroke-width: 1px;"/><path class="ygrid crisp" transform="translate(0,228.99)" d="M60,0h1025" style="stroke: rgb(0, 0, 0); stroke-opacity: 0.05; stroke-width: 1px;"/><path class="ygrid crisp" transform="translate(0,215.03)" d="M60,0h1025" style="stroke: rgb(0, 0, 0); stroke-opacity: 0.05; stroke-width: 1px;"/><path class="ygrid crisp" transform="translate(0,203.22)" d="M60,0h1025" style="stroke: rgb(0, 0, 0); stroke-opacity: 0.05; stroke-width: 1px;"/><path class="ygrid crisp" transform="translate(0,193)" d="M60,0h1025" style="stroke: rgb(0, 0, 0); stroke-opacity: 0.05; stroke-width: 1px;"/><path class="ygrid crisp" transform="translate(0,183.98)" d="M60,0h1025" style="stroke: rgb(0, 0, 0); stroke-opacity: 0.05; stroke-width: 1px;"/><path class="ygrid crisp" transform="translate(0,175.91)" d="M60,0h1025" style="stroke: rgb(0, 0, 0); stroke-opacity: 0.05; stroke-width: 1px;"/><path class="ygrid crisp" transform="translate(0,122.82)" d="M60,0h1025" style="stroke: rgb(0, 0, 0); stroke-opacity: 0.05; stroke-width: 1px;"/><path class="ygrid crisp" transform="translate(0,91.77000000000001)" d="M60,0h1025" style="stroke: rgb(0, 0, 0); stroke-opacity: 0.05; stroke-width: 1px;"/><path class="ygrid crisp" transform="translate(0,69.74)" d="M60,0h1025" style="stroke: rgb(0, 0, 0); stroke-opacity: 0.05; stroke-width: 1px;"/><path class="ygrid crisp" transform="translate(0,52.65)" d="M60,0h1025" style="stroke: rgb(0, 0, 0); stroke-opacity: 0.05; stroke-width: 1px;"/></g></g><g class="zerolinelayer"/><g class="layer-between"><g class="shapelayer"/><g class="imagelayer"/></g><path class="xlines-below"/><path class="ylines-below"/><g class="overlines-below"/><g class="xaxislayer-below"/><g class="yaxislayer-below"/><g class="overaxes-below"/><g class="overplot"><g class="xy" transform="translate(60,50)" clip-path="url(#clipd68732xyplot)"><g class="scatterlayer mlayer"><g class="trace scatter trace775db6" style="stroke-miterlimit: 2; opacity: 1;"><g class="fills"/><g class="errorbars"/><g class="lines"><path class="js-line" d="M0,199.74L51.25,149.64L102.5,101.32L153.75,222.25L205,208.86L256.25,210.62L307.5,205.1L358.75,217.33L410,218.59L461.25,223.36L512.5,161.47L563.75,149.79L615,196.69L666.25,192.65L717.5,179.33L768.75,176.96L820,181.96L871.25,198.6L922.5,171.36L973.75,189.97L1025,227.22" style="vector-effect: none; fill: none; stroke: rgb(124, 181, 236); stroke-opacity: 1; stroke-width: 2px; opacity: 1;"/></g><g class="points"/><g class="text"/></g><g class="trace scatter tracedfe842" style="stroke-miterlimit: 2; opacity: 1;"><g class="fills"/><g class="errorbars"/><g class="lines"><path class="js-line" d="M0,186.38L51.25,164.91L102.5,107.5L153.75,218.72L205,201.41L256.25,210.53L307.5,196.38L358.75,203.09L410,227.03L461.25,230.9L512.5,166.43L563.75,146.02L615,195.55L666.25,188.14L717.5,163L768.75,169.83L820,177.54L871.25,193.42L922.5,167.86L973.75,246.08L1025,223.24" style="vector-effect: none; fill: none; stroke: rgb(67, 67, 72); stroke-opacity: 1; stroke-width: 2px; opacity: 1;"/></g><g class="points"/><g class="text"/></g><g class="trace scatter trace6a6c78" style="stroke-miterlimit: 2; opacity: 1;"><g class="fills"/><g class="errorbars"/><g class="lines"><path class="js-line" d="M0,264.24L51.25,158.28L102.5,173.9L153.75,229.56L205,246.06L256.25,265.43L307.5,142.57L358.75,32.38L410,269.87L461.25,360.58L512.5,249.95L563.75,180.16L615,166.86L666.25,334.01L717.5,218.09L768.75,173.64L820,291.26L871.25,240.84L922.5,129.69L973.75,316.25L1025,330.8" style="vector-effect: none; fill: none; stroke: rgb(144, 237, 125); stroke-opacity: 1; stroke-width: 2px; opacity: 1;"/></g><g class="points"/><g class="text"/></g><g class="trace scatter trace87dffc" style="stroke-miterlimit: 2; opacity: 1;"><g class="fills"/><g class="errorbars"/><g class="lines"><path class="js-line" d="M0,197.84L51.25,163.14L102.5,94L153.75,225.51L205,215.13L256.25,207.21L307.5,210.18L358.75,209.54L410,235.51L461.25,222.48L512.5,165.01L563.75,149.9L615,200.66L666.25,192.93L717.5,179.83L768.75,178.93L820,183.06L871.25,199.98L922.5,165.05L973.75,177.79L1025,226.79" style="vector-effect: none; fill: none; stroke: rgb(247, 163, 92); stroke-opacity: 1; stroke-width: 2px; opacity: 1;"/></g><g class="points"/><g class="text"/></g><g class="trace scatter tracea1613e" style="stroke-miterlimit: 2; opacity: 1;"><g class="fills"/><g class="errorbars"/><g class="lines"><path class="js-line" d="M0,184.63L51.25,164.51L102.5,131.97L153.75,210.75L205,196.55L256.25,207.96L307.5,193.35L358.75,195.72L410,223.58L461.25,229.78L512.5,162.67L563.75,141.77L615,192.48L666.25,181.3L717.5,167.17L768.75,168.95L820,174.09L871.25,186.83L922.5,170.47L973.75,231.43L1025,222.58" style="vector-effect: none; fill: none; stroke: rgb(128, 133, 233); stroke-opacity: 1; stroke-width: 2px; opacity: 1;"/></g><g class="points"/><g class="text"/></g><g class="trace scatter trace72be29" style="stroke-miterlimit: 2; opacity: 1;"><g class="fills"/><g class="errorbars"/><g class="lines"><path class="js-line" d="M0,198.87L51.25,161.77L102.5,87.11L153.75,228.2L205,213.72L256.25,207.42L307.5,210.08L358.75,207.92L410,234.79L461.25,226.03L512.5,170.22L563.75,150.72L615,204.46L666.25,191.72L717.5,176L768.75,181.76L820,179.66L871.25,201.11L922.5,165.95L1025,224.8" style="vector-effect: none; fill: none; stroke: rgb(241, 92, 128); stroke-opacity: 1; stroke-width: 2px; opacity: 1;"/></g><g class="points"/><g class="text"/></g><g class="trace scatter trace5b7c4e" style="stroke-miterlimit: 2; opacity: 1;"><g class="fills"/><g class="errorbars"/><g class="lines"><path class="js-line" d="M0,284.57L51.25,173.17L102.5,183.03L153.75,258.79L205,281.88L256.25,278.33L307.5,131.02L358.75,19.25L410,255.55L461.25,365.75L512.5,258.19L563.75,207.53L615,176.87L666.25,319.44L717.5,198.24L768.75,180.44L820,305.18L871.25,268.35L922.5,184.62L973.75,189.14L1025,322.8" style="vector-effect: none; fill: none; stroke: rgb(228, 211, 84); stroke-opacity: 1; stroke-width: 2px; opacity: 1;"/></g><g class="points"/><g class="text"/></g><g class="trace scatter trace12d12b" style="stroke-miterlimit: 2; opacity: 1;"><g class="fills"/><g class="errorbars"/><g class="lines"><path class="js-line" d="M0,215.89L51.25,154.3L102.5,104.23L153.75,225.26L205,219.33L256.25,216.22L307.5,181.35L358.75,131.82L410,238.03L461.25,240L512.5,183.69L563.75,155.17L615,194.04L666.25,212.87L717.5,183.51L768.75,177.3L820,199.81L871.25,207.02L922.5,151.65L973.75,194.33L1025,246.87" style="vector-effect: none; fill: none; stroke: rgb(43, 144, 143); stroke-opacity: 1; stroke-width: 2px; opacity: 1;"/></g><g class="points"/><g class="text"/></g><g class="trace scatter traceb5df0e" style="stroke-miterlimit: 2; opacity: 1;"><g class="fills"/><g class="errorbars"/><g class="lines"><path class="js-line" d="M0,179.69L51.25,160.85L102.5,131.24L153.75,213.79L205,199.84L256.25,210.67L307.5,188.46L358.75,183.55L410,228.07L461.25,238.41L512.5,166.34L563.75,143.07L615,191.72L666.25,182.67L717.5,160.27L768.75,173.73L820,180.58L871.25,192.49L922.5,167.38L973.75,234.17L1025,221.65" style="vector-effect: none; fill: none; stroke: rgb(244, 91, 91); stroke-opacity: 1; stroke-width: 2px; opacity: 1;"/></g><g class="points"/><g class="text"/></g><g class="trace scatter trace87e6bf" style="stroke-miterlimit: 2; opacity: 1;"><g class="fills"/><g class="errorbars"/><g class="lines"><path class="js-line" d="M0,204.31L51.25,162.49L102.5,74.04L153.75,228.71L205,214.08L256.25,206.56L307.5,213.35L358.75,220.3L410,233.03L461.25,235.25L512.5,171.49L563.75,151.6L615,206.87L666.25,197.58L717.5,183.48L768.75,176.69L820,186.54L871.25,204.79L922.5,165.5L973.75,200.39L1025,234.3" style="vector-effect: none; fill: none; stroke: rgb(145, 232, 225); stroke-opacity: 1; stroke-width: 2px; opacity: 1;"/></g><g class="points"/><g class="text"/></g><g class="trace scatter trace4d51a5" style="stroke-miterlimit: 2; opacity: 1;"><g class="fills"/><g class="errorbars"/><g class="lines"><path class="js-line" d="M0,192.27L51.25,169.97L102.5,97.48L153.75,216.75L205,200.84L256.25,205.75L307.5,201.85L358.75,212.76L410,229.17L461.25,229.28L512.5,160.92L563.75,145.2L615,191.61L666.25,188.75L717.5,178.43L768.75,176.93L820,176.48L871.25,193.26L922.5,164.93L973.75,250.91L1025,220.33" style="vector-effect: none; fill: none; stroke: rgb(124, 181, 236); stroke-opacity: 1; stroke-width: 2px; opacity: 1;"/></g><g class="points"/><g class="text"/></g><g class="trace scatter traced57657" style="stroke-miterlimit: 2; opacity: 1;"><g class="fills"/><g class="errorbars"/><g class="lines"><path class="js-line" d="M0,182.09L51.25,170.09L102.5,136.27L153.75,208.79L205,193.35L256.25,207.24L307.5,193.72L358.75,203.54L410,221.32L461.25,228.45L512.5,159.09L563.75,140.18L615,187.15L666.25,183.85L717.5,169.17L768.75,170.18L820,172.31L871.25,186.28L922.5,169.5L973.75,230.61L1025,217.98" style="vector-effect: none; fill: none; stroke: rgb(67, 67, 72); stroke-opacity: 1; stroke-width: 2px; opacity: 1;"/></g><g class="points"/><g class="text"/></g><g class="trace scatter trace3ee756" style="stroke-miterlimit: 2; opacity: 1;"><g class="fills"/><g class="errorbars"/><g class="lines"><path class="js-line" d="M0,212.89L51.25,140.71L102.5,145.02L153.75,222.62L205,219.73L256.25,227.84L307.5,136.21L358.75,113.34L410,222.14L461.25,268.64L512.5,195.86L563.75,158.17L615,152.47L666.25,223L717.5,168.21L768.75,177.5L820,212.77L871.25,212.12L922.5,160.78L973.75,286.18L1025,248.97" style="vector-effect: none; fill: none; stroke: rgb(144, 237, 125); stroke-opacity: 1; stroke-width: 2px; opacity: 1;"/></g><g class="points"/><g class="text"/></g><g class="trace scatter trace3e96b6" style="stroke-miterlimit: 2; opacity: 1;"><g class="fills"/><g class="errorbars"/><g class="lines"><path class="js-line" d="M0,193.56L51.25,168.99L102.5,85.19L153.75,224.22L205,206.02L256.25,207.78L307.5,205.75L358.75,218.53L410,233L461.25,228.67L512.5,164.67L563.75,149.98L615,199.07L666.25,192.54L717.5,180.99L768.75,177.07L820,181.62L871.25,200L922.5,165.32L973.75,217.4L1025,224.42" style="vector-effect: none; fill: none; stroke: rgb(247, 163, 92); stroke-opacity: 1; stroke-width: 2px; opacity: 1;"/></g><g class="points"/><g class="text"/></g><g class="trace scatter tracec43945" style="stroke-miterlimit: 2; opacity: 1;"><g class="fills"/><g class="errorbars"/><g class="lines"><path class="js-line" d="M0,188.28L51.25,165.03L102.5,126.82L153.75,211.16L205,196.04L256.25,210.13L307.5,189.83L358.75,200.95L410,221.52L461.25,227.93L512.5,163.28L563.75,142.66L615,191.46L666.25,184.66L717.5,170.16L768.75,168.08L820,177.38L871.25,187.94L922.5,170.21L973.75,217.79L1025,224.91" style="vector-effect: none; fill: none; stroke: rgb(128, 133, 233); stroke-opacity: 1; stroke-width: 2px; opacity: 1;"/></g><g class="points"/><g class="text"/></g><g class="trace scatter trace0549ee" style="stroke-miterlimit: 2; opacity: 1;"><g class="fills"/><g class="errorbars"/><g class="lines"><path class="js-line" d="M0,189.19L51.25,163.35L102.5,103.7L153.75,218.04L205,201.41L256.25,205.95L307.5,203.53L358.75,207.87L410,227.13L461.25,229.79L512.5,162.7L563.75,144.57L615,194.19L666.25,186.21L717.5,173.17L768.75,172.43L820,179.23L871.25,195.08L922.5,165.21L973.75,244.24L1025,223.84" style="vector-effect: none; fill: none; stroke: rgb(241, 92, 128); stroke-opacity: 1; stroke-width: 2px; opacity: 1;"/></g><g class="points"/><g class="text"/></g></g></g></g><g class="zerolinelayer-above"/><path class="xlines-above crisp" d="M0,0" style="fill: none;"/><path class="ylines-above crisp" d="M0,0" style="fill: none;"/><g class="overlines-above"/><g class="xaxislayer-above"><g class="xtick"><text text-anchor="middle" x="0" y="451" transform="translate(60,0)" style="font-family: 'Lucida Grande', 'Open Sans', verdana, arial, sans-serif; font-size: 10px; fill: rgb(0, 0, 0); fill-opacity: 1; white-space: pre;">10</text></g><g class="xtick"><text text-anchor="middle" x="0" y="451" transform="translate(111.25,0)" style="font-family: 'Lucida Grande', 'Open Sans', verdana, arial, sans-serif; font-size: 10px; fill: rgb(0, 0, 0); fill-opacity: 1; white-space: pre;">11</text></g><g class="xtick"><text text-anchor="middle" x="0" y="451" transform="translate(162.5,0)" style="font-family: 'Lucida Grande', 'Open Sans', verdana, arial, sans-serif; font-size: 10px; fill: rgb(0, 0, 0); fill-opacity: 1; white-space: pre;">12</text></g><g class="xtick"><text text-anchor="middle" x="0" y="451" transform="translate(213.75,0)" style="font-family: 'Lucida Grande', 'Open Sans', verdana, arial, sans-serif; font-size: 10px; fill: rgb(0, 0, 0); fill-opacity: 1; white-space: pre;">13</text></g><g class="xtick"><text text-anchor="middle" x="0" y="451" transform="translate(265,0)" style="font-family: 'Lucida Grande', 'Open Sans', verdana, arial, sans-serif; font-size: 10px; fill: rgb(0, 0, 0); fill-opacity: 1; white-space: pre;">14</text></g><g class="xtick"><text text-anchor="middle" x="0" y="451" transform="translate(316.25,0)" style="font-family: 'Lucida Grande', 'Open Sans', verdana, arial, sans-serif; font-size: 10px; fill: rgb(0, 0, 0); fill-opacity: 1; white-space: pre;">15</text></g><g class="xtick"><text text-anchor="middle" x="0" y="451" transform="translate(367.5,0)" style="font-family: 'Lucida Grande', 'Open Sans', verdana, arial, sans-serif; font-size: 10px; fill: rgb(0, 0, 0); fill-opacity: 1; white-space: pre;">16</text></g><g class="xtick"><text text-anchor="middle" x="0" y="451" transform="translate(418.75,0)" style="font-family: 'Lucida Grande', 'Open Sans', verdana, arial, sans-serif; font-size: 10px; fill: rgb(0, 0, 0); fill-opacity: 1; white-space: pre;">17</text></g><g class="xtick"><text text-anchor="middle" x="0" y="451" transform="translate(470,0)" style="font-family: 'Lucida Grande', 'Open Sans', verdana, arial, sans-serif; font-size: 10px; fill: rgb(0, 0, 0); fill-opacity: 1; white-space: pre;">18</text></g><g class="xtick"><text text-anchor="middle" x="0" y="451" transform="translate(521.25,0)" style="font-family: 'Lucida Grande', 'Open Sans', verdana, arial, sans-serif; font-size: 10px; fill: rgb(0, 0, 0); fill-opacity: 1; white-space: pre;">19</text></g><g class="xtick"><text text-anchor="middle" x="0" y="451" transform="translate(572.5,0)" style="font-family: 'Lucida Grande', 'Open Sans', verdana, arial, sans-serif; font-size: 10px; fill: rgb(0, 0, 0); fill-opacity: 1; white-space: pre;">1</text></g><g class="xtick"><text text-anchor="middle" x="0" y="451" transform="translate(623.75,0)" style="font-family: 'Lucida Grande', 'Open Sans', verdana, arial, sans-serif; font-size: 10px; fill: rgb(0, 0, 0); fill-opacity: 1; white-space: pre;">2</text></g><g class="xtick"><text text-anchor="middle" x="0" y="451" transform="translate(675,0)" style="font-family: 'Lucida Grande', 'Open Sans', verdana, arial, sans-serif; font-size: 10px; fill: rgb(0, 0, 0); fill-opacity: 1; white-space: pre;">3</text></g><g class="xtick"><text text-anchor="middle" x="0" y="451" transform="translate(726.25,0)" style="font-family: 'Lucida Grande', 'Open Sans', verdana, arial, sans-serif; font-size: 10px; fill: rgb(0, 0, 0); fill-opacity: 1; white-space: pre;">4</text></g><g class="xtick"><text text-anchor="middle" x="0" y="451" transform="translate(777.5,0)" style="font-family: 'Lucida Grande', 'Open Sans', verdana, arial, sans-serif; font-size: 10px; fill: rgb(0, 0, 0); fill-opacity: 1; white-space: pre;">5</text></g><g class="xtick"><text text-anchor="middle" x="0" y="451" transform="translate(828.75,0)" style="font-family: 'Lucida Grande', 'Open Sans', verdana, arial, sans-serif; font-size: 10px; fill: rgb(0, 0, 0); fill-opacity: 1; white-space: pre;">6</text></g><g class="xtick"><text text-anchor="middle" x="0" y="451" transform="translate(880,0)" style="font-family: 'Lucida Grande', 'Open Sans', verdana, arial, sans-serif; font-size: 10px; fill: rgb(0, 0, 0); fill-opacity: 1; white-space: pre;">7</text></g><g class="xtick"><text text-anchor="middle" x="0" y="451" transform="translate(931.25,0)" style="font-family: 'Lucida Grande', 'Open Sans', verdana, arial, sans-serif; font-size: 10px; fill: rgb(0, 0, 0); fill-opacity: 1; white-space: pre;">8</text></g><g class="xtick"><text text-anchor="middle" x="0" y="451" transform="translate(982.5,0)" style="font-family: 'Lucida Grande', 'Open Sans', verdana, arial, sans-serif; font-size: 10px; fill: rgb(0, 0, 0); fill-opacity: 1; white-space: pre;">9</text></g><g class="xtick"><text text-anchor="middle" x="0" y="451" transform="translate(1033.75,0)" style="font-family: 'Lucida Grande', 'Open Sans', verdana, arial, sans-serif; font-size: 10px; fill: rgb(0, 0, 0); fill-opacity: 1; white-space: pre;">MT</text></g><g class="xtick"><text text-anchor="middle" x="0" y="451" transform="translate(1085,0)" style="font-family: 'Lucida Grande', 'Open Sans', verdana, arial, sans-serif; font-size: 10px; fill: rgb(0, 0, 0); fill-opacity: 1; white-space: pre;">X</text></g></g><g class="yaxislayer-above"><g class="ytick"><text text-anchor="end" x="54" y="2.625" transform="translate(0,422.43)" style="font-family: 'Lucida Grande', 'Open Sans', verdana, arial, sans-serif; font-size: 7.5px; fill: rgb(0, 0, 0); fill-opacity: 1; white-space: pre;">4</text></g><g class="ytick"><text text-anchor="end" x="54" y="2.625" style="font-family: 'Lucida Grande', 'Open Sans', verdana, arial, sans-serif; font-size: 7.5px; fill: rgb(0, 0, 0); fill-opacity: 1; white-space: pre;" transform="translate(0,405.34)">5</text></g><g class="ytick"><text text-anchor="end" x="54" y="2.625" style="font-family: 'Lucida Grande', 'Open Sans', verdana, arial, sans-serif; font-size: 7.5px; fill: rgb(0, 0, 0); fill-opacity: 1; white-space: pre;" transform="translate(0,391.38)">6</text></g><g class="ytick"><text text-anchor="end" x="54" y="2.625" style="font-family: 'Lucida Grande', 'Open Sans', verdana, arial, sans-serif; font-size: 7.5px; fill: rgb(0, 0, 0); fill-opacity: 1; white-space: pre;" transform="translate(0,379.57)">7</text></g><g class="ytick"><text text-anchor="end" x="54" y="2.625" style="font-family: 'Lucida Grande', 'Open Sans', verdana, arial, sans-serif; font-size: 7.5px; fill: rgb(0, 0, 0); fill-opacity: 1; white-space: pre;" transform="translate(0,369.34)">8</text></g><g class="ytick"><text text-anchor="end" x="54" y="2.625" style="font-family: 'Lucida Grande', 'Open Sans', verdana, arial, sans-serif; font-size: 7.5px; fill: rgb(0, 0, 0); fill-opacity: 1; white-space: pre;" transform="translate(0,360.32)">9</text></g><g class="ytick"><text text-anchor="end" x="51.5" y="1.8333333333333333" style="font-family: 'Lucida Grande', 'Open Sans', verdana, arial, sans-serif; font-size: 10px; fill: rgb(0, 0, 0); fill-opacity: 1; white-space: pre;" transform="translate(0,352.25)">0.01</text></g><g class="ytick"><text text-anchor="end" x="54" y="2.625" style="font-family: 'Lucida Grande', 'Open Sans', verdana, arial, sans-serif; font-size: 7.5px; fill: rgb(0, 0, 0); fill-opacity: 1; white-space: pre;" transform="translate(0,299.16999999999996)">2</text></g><g class="ytick"><text text-anchor="end" x="54" y="2.625" style="font-family: 'Lucida Grande', 'Open Sans', verdana, arial, sans-serif; font-size: 7.5px; fill: rgb(0, 0, 0); fill-opacity: 1; white-space: pre;" transform="translate(0,268.11)">3</text></g><g class="ytick"><text text-anchor="end" x="54" y="2.625" style="font-family: 'Lucida Grande', 'Open Sans', verdana, arial, sans-serif; font-size: 7.5px; fill: rgb(0, 0, 0); fill-opacity: 1; white-space: pre;" transform="translate(0,246.08)">4</text></g><g class="ytick"><text text-anchor="end" x="54" y="2.625" style="font-family: 'Lucida Grande', 'Open Sans', verdana, arial, sans-serif; font-size: 7.5px; fill: rgb(0, 0, 0); fill-opacity: 1; white-space: pre;" transform="translate(0,228.99)">5</text></g><g class="ytick"><text text-anchor="end" x="54" y="2.625" style="font-family: 'Lucida Grande', 'Open Sans', verdana, arial, sans-serif; font-size: 7.5px; fill: rgb(0, 0, 0); fill-opacity: 1; white-space: pre;" transform="translate(0,215.03)">6</text></g><g class="ytick"><text text-anchor="end" x="54" y="2.625" style="font-family: 'Lucida Grande', 'Open Sans', verdana, arial, sans-serif; font-size: 7.5px; fill: rgb(0, 0, 0); fill-opacity: 1; white-space: pre;" transform="translate(0,203.22)">7</text></g><g class="ytick"><text text-anchor="end" x="54" y="2.625" style="font-family: 'Lucida Grande', 'Open Sans', verdana, arial, sans-serif; font-size: 7.5px; fill: rgb(0, 0, 0); fill-opacity: 1; white-space: pre;" transform="translate(0,193)">8</text></g><g class="ytick"><text text-anchor="end" x="54" y="2.625" style="font-family: 'Lucida Grande', 'Open Sans', verdana, arial, sans-serif; font-size: 7.5px; fill: rgb(0, 0, 0); fill-opacity: 1; white-space: pre;" transform="translate(0,183.98)">9</text></g><g class="ytick"><text text-anchor="end" x="51.5" y="1.8333333333333333" style="font-family: 'Lucida Grande', 'Open Sans', verdana, arial, sans-serif; font-size: 10px; fill: rgb(0, 0, 0); fill-opacity: 1; white-space: pre;" transform="translate(0,175.91)">0.1</text></g><g class="ytick"><text text-anchor="end" x="54" y="2.625" style="font-family: 'Lucida Grande', 'Open Sans', verdana, arial, sans-serif; font-size: 7.5px; fill: rgb(0, 0, 0); fill-opacity: 1; white-space: pre;" transform="translate(0,122.82)">2</text></g><g class="ytick"><text text-anchor="end" x="54" y="2.625" style="font-family: 'Lucida Grande', 'Open Sans', verdana, arial, sans-serif; font-size: 7.5px; fill: rgb(0, 0, 0); fill-opacity: 1; white-space: pre;" transform="translate(0,91.77000000000001)">3</text></g><g class="ytick"><text text-anchor="end" x="54" y="2.625" style="font-family: 'Lucida Grande', 'Open Sans', verdana, arial, sans-serif; font-size: 7.5px; fill: rgb(0, 0, 0); fill-opacity: 1; white-space: pre;" transform="translate(0,69.74)">4</text></g><g class="ytick"><text text-anchor="end" x="54" y="2.625" style="font-family: 'Lucida Grande', 'Open Sans', verdana, arial, sans-serif; font-size: 7.5px; fill: rgb(0, 0, 0); fill-opacity: 1; white-space: pre;" transform="translate(0,52.65)">5</text></g></g><g class="overaxes-above"/></g></g><g class="polarlayer"/><g class="smithlayer"/><g class="ternarylayer"/><g class="geolayer"/><g class="funnelarealayer"/><g class="pielayer"/><g class="iciclelayer"/><g class="treemaplayer"/><g class="sunburstlayer"/><g class="glimages"/><defs id="topdefs-d68732"><g class="clips"/></defs><g class="layer-above"><g class="imagelayer"/><g class="shapelayer"/></g><g class="infolayer"><g class="g-gtitle"><text class="gtitle" x="550" y="25" text-anchor="middle" dy="0em" style="opacity: 1; font-family: 'Lucida Grande', 'Open Sans', verdana, arial, sans-serif; font-size: 20px; fill: rgb(68, 68, 68); fill-opacity: 1; white-space: pre;"><tspan class="line" dy="0em" x="550" y="25">Samtools: idxstats: Mapped reads per contig</tspan><tspan class="line" dy="1.3em" x="550" y="25">​<tspan style="font-size:70%" dy="-0.6em">Normalised Counts, 16 lines</tspan><tspan dy="0.42em">​</tspan></tspan></text></g><g class="g-xtitle"><text class="xtitle" x="572.5" y="487" text-anchor="middle" style="opacity: 0.3; font-family: 'Lucida Grande', 'Open Sans', verdana, arial, sans-serif; font-size: 14px; fill: rgb(0, 0, 0); fill-opacity: 1; white-space: pre;">Chromosome name</text></g><g class="g-ytitle"><text class="ytitle" transform="rotate(-90,22,242.5)" x="22" y="242.5" text-anchor="middle" style="opacity: 0.3; font-family: 'Lucida Grande', 'Open Sans', verdana, arial, sans-serif; font-size: 14px; fill: rgb(0, 0, 0); fill-opacity: 1; white-space: pre;">Fraction of total count</text></g></g></svg>