<svg class="main-svg" xmlns="http://www.w3.org/2000/svg" xmlns:xlink="http://www.w3.org/1999/xlink" width="2200" height="1000" style="" viewBox="0 0 1100 500"><rect x="0" y="0" width="1100" height="500" style="fill: rgb(255, 255, 255); fill-opacity: 1;"/><defs id="defs-32dfcf"><g class="clips"><clipPath id="clip32dfcfxyplot" class="plotclip"><rect width="1025" height="385"/></clipPath><clipPath class="axesclip" id="clip32dfcfx"><rect x="60" y="0" width="1025" height="500"/></clipPath><clipPath class="axesclip" id="clip32dfcfy"><rect x="0" y="50" width="1100" height="385"/></clipPath><clipPath class="axesclip" id="clip32dfcfxy"><rect x="60" y="50" width="1025" height="385"/></clipPath></g><g class="gradients"/><g class="patterns"/></defs><g class="bglayer"/><g class="layer-below"><g class="imagelayer"/><g class="shapelayer"/></g><g class="cartesianlayer"><g class="subplot xy"><g class="layer-subplot"><g class="shapelayer"/><g class="imagelayer"/></g><g class="minor-gridlayer"><g class="x"/><g class="y"/></g><g class="gridlayer"><g class="x"><path class="xgrid crisp" transform="translate(111.25,0)" d="M0,50v385" style="stroke: rgb(0, 0, 0); stroke-opacity: 0.05; stroke-width: 1px;"/><path class="xgrid crisp" transform="translate(162.5,0)" d="M0,50v385" style="stroke: rgb(0, 0, 0); stroke-opacity: 0.05; stroke-width: 1px;"/><path class="xgrid crisp" transform="translate(213.75,0)" d="M0,50v385" style="stroke: rgb(0, 0, 0); stroke-opacity: 0.05; stroke-width: 1px;"/><path class="xgrid crisp" transform="translate(265,0)" d="M0,50v385" style="stroke: rgb(0, 0, 0); stroke-opacity: 0.05; stroke-width: 1px;"/><path class="xgrid crisp" transform="translate(316.25,0)" d="M0,50v385" style="stroke: rgb(0, 0, 0); stroke-opacity: 0.05; stroke-width: 1px;"/><path class="xgrid crisp" transform="translate(367.5,0)" d="M0,50v385" style="stroke: rgb(0, 0, 0); stroke-opacity: 0.05; stroke-width: 1px;"/><path class="xgrid crisp" transform="translate(418.75,0)" d="M0,50v385" style="stroke: rgb(0, 0, 0); stroke-opacity: 0.05; stroke-width: 1px;"/><path class="xgrid crisp" transform="translate(470,0)" d="M0,50v385" style="stroke: rgb(0, 0, 0); stroke-opacity: 0.05; stroke-width: 1px;"/><path class="xgrid crisp" transform="translate(521.25,0)" d="M0,50v385" style="stroke: rgb(0, 0, 0); stroke-opacity: 0.05; stroke-width: 1px;"/><path class="xgrid crisp" transform="translate(572.5,0)" d="M0,50v385" style="stroke: rgb(0, 0, 0); stroke-opacity: 0.05; stroke-width: 1px;"/><path class="xgrid crisp" transform="translate(623.75,0)" d="M0,50v385" style="stroke: rgb(0, 0, 0); stroke-opacity: 0.05; stroke-width: 1px;"/><path class="xgrid crisp" transform="translate(675,0)" d="M0,50v385" style="stroke: rgb(0, 0, 0); stroke-opacity: 0.05; stroke-width: 1px;"/><path class="xgrid crisp" transform="translate(726.25,0)" d="M0,50v385" style="stroke: rgb(0, 0, 0); stroke-opacity: 0.05; stroke-width: 1px;"/><path class="xgrid crisp" transform="translate(777.5,0)" d="M0,50v385" style="stroke: rgb(0, 0, 0); stroke-opacity: 0.05; stroke-width: 1px;"/><path class="xgrid crisp" transform="translate(828.75,0)" d="M0,50v385" style="stroke: rgb(0, 0, 0); stroke-opacity: 0.05; stroke-width: 1px;"/><path class="xgrid crisp" transform="translate(880,0)" d="M0,50v385" style="stroke: rgb(0, 0, 0); stroke-opacity: 0.05; stroke-width: 1px;"/><path class="xgrid crisp" transform="translate(931.25,0)" d="M0,50v385" style="stroke: rgb(0, 0, 0); stroke-opacity: 0.05; stroke-width: 1px;"/><path class="xgrid crisp" transform="translate(982.5,0)" d="M0,50v385" style="stroke: rgb(0, 0, 0); stroke-opacity: 0.05; stroke-width: 1px;"/><path class="xgrid crisp" transform="translate(1033.75,0)" d="M0,50v385" style="stroke: rgb(0, 0, 0); stroke-opacity: 0.05; stroke-width: 1px;"/></g><g class="y"><path class="ygrid crisp" transform="translate(0,410.18)" d="M60,0h1025" style="stroke: rgb(0, 0, 0); stroke-opacity: 0.05; stroke-width: 1px;"/><path class="ygrid crisp" transform="translate(0,380.96)" d="M60,0h1025" style="stroke: rgb(0, 0, 0); stroke-opacity: 0.05; stroke-width: 1px;"/><path class="ygrid crisp" transform="translate(0,360.23)" d="M60,0h1025" style="stroke: rgb(0, 0, 0); stroke-opacity: 0.05; stroke-width: 1px;"/><path class="ygrid crisp" transform="translate(0,344.14)" d="M60,0h1025" style="stroke: rgb(0, 0, 0); stroke-opacity: 0.05; stroke-width: 1px;"/><path class="ygrid crisp" transform="translate(0,331.01)" d="M60,0h1025" style="stroke: rgb(0, 0, 0); stroke-opacity: 0.05; stroke-width: 1px;"/><path class="ygrid crisp" transform="translate(0,319.9)" d="M60,0h1025" style="stroke: rgb(0, 0, 0); stroke-opacity: 0.05; stroke-width: 1px;"/><path class="ygrid crisp" transform="translate(0,310.27)" d="M60,0h1025" style="stroke: rgb(0, 0, 0); stroke-opacity: 0.05; stroke-width: 1px;"/><path class="ygrid crisp" transform="translate(0,301.78)" d="M60,0h1025" style="stroke: rgb(0, 0, 0); stroke-opacity: 0.05; stroke-width: 1px;"/><path class="ygrid crisp" transform="translate(0,294.19)" d="M60,0h1025" style="stroke: rgb(0, 0, 0); stroke-opacity: 0.05; stroke-width: 1px;"/><path class="ygrid crisp" transform="translate(0,244.24)" d="M60,0h1025" style="stroke: rgb(0, 0, 0); stroke-opacity: 0.05; stroke-width: 1px;"/><path class="ygrid crisp" transform="translate(0,215.02)" d="M60,0h1025" style="stroke: rgb(0, 0, 0); stroke-opacity: 0.05; stroke-width: 1px;"/><path class="ygrid crisp" transform="translate(0,194.29)" d="M60,0h1025" style="stroke: rgb(0, 0, 0); stroke-opacity: 0.05; stroke-width: 1px;"/><path class="ygrid crisp" transform="translate(0,178.21)" d="M60,0h1025" style="stroke: rgb(0, 0, 0); stroke-opacity: 0.05; stroke-width: 1px;"/><path class="ygrid crisp" transform="translate(0,165.07)" d="M60,0h1025" style="stroke: rgb(0, 0, 0); stroke-opacity: 0.05; stroke-width: 1px;"/><path class="ygrid crisp" transform="translate(0,153.95999999999998)" d="M60,0h1025" style="stroke: rgb(0, 0, 0); stroke-opacity: 0.05; stroke-width: 1px;"/><path class="ygrid crisp" transform="translate(0,144.32999999999998)" d="M60,0h1025" style="stroke: rgb(0, 0, 0); stroke-opacity: 0.05; stroke-width: 1px;"/><path class="ygrid crisp" transform="translate(0,135.85)" d="M60,0h1025" style="stroke: rgb(0, 0, 0); stroke-opacity: 0.05; stroke-width: 1px;"/><path class="ygrid crisp" transform="translate(0,128.25)" d="M60,0h1025" style="stroke: rgb(0, 0, 0); stroke-opacity: 0.05; stroke-width: 1px;"/><path class="ygrid crisp" transform="translate(0,78.3)" d="M60,0h1025" style="stroke: rgb(0, 0, 0); stroke-opacity: 0.05; stroke-width: 1px;"/></g></g><g class="zerolinelayer"/><g class="layer-between"><g class="shapelayer"/><g class="imagelayer"/></g><path class="xlines-below"/><path class="ylines-below"/><g class="overlines-below"/><g class="xaxislayer-below"/><g class="yaxislayer-below"/><g class="overaxes-below"/><g class="overplot"><g class="xy" transform="translate(60,50)" clip-path="url(#clip32dfcfxyplot)"><g class="scatterlayer mlayer"><g class="trace scatter trace5a77d7" style="stroke-miterlimit: 2; opacity: 1;"><g class="fills"/><g class="errorbars"/><g class="lines"><path class="js-line" d="M0,198.25L51.25,151.1L102.5,105.63L153.75,219.43L205,206.83L256.25,208.48L307.5,203.29L358.75,214.8L410,215.98L461.25,220.47L512.5,162.24L563.75,151.25L615,195.38L666.25,191.57L717.5,179.05L768.75,176.81L820,181.52L871.25,197.18L922.5,171.55L973.75,189.05L1025,224.1" style="vector-effect: none; fill: none; stroke: rgb(124, 181, 236); stroke-opacity: 1; stroke-width: 2px; opacity: 1;"/></g><g class="points"/><g class="text"/></g><g class="trace scatter trace5ac20c" style="stroke-miterlimit: 2; opacity: 1;"><g class="fills"/><g class="errorbars"/><g class="lines"><path class="js-line" d="M0,207.26L51.25,187.06L102.5,133.04L153.75,237.69L205,221.4L256.25,229.98L307.5,216.67L358.75,222.99L410,245.51L461.25,249.15L512.5,188.49L563.75,169.28L615,215.88L666.25,208.92L717.5,185.26L768.75,191.69L820,198.95L871.25,213.88L922.5,189.83L973.75,263.44L1025,241.94" style="vector-effect: none; fill: none; stroke: rgb(67, 67, 72); stroke-opacity: 1; stroke-width: 2px; opacity: 1;"/></g><g class="points"/><g class="text"/></g><g class="trace scatter traceff9cd8" style="stroke-miterlimit: 2; opacity: 1;"><g class="fills"/><g class="errorbars"/><g class="lines"><path class="js-line" d="M0,275.1L51.25,175.39L102.5,190.09L153.75,242.47L205,257.99L256.25,276.22L307.5,160.61L358.75,56.92L410,280.39L461.25,365.75L512.5,261.65L563.75,195.98L615,183.46L666.25,340.75L717.5,231.67L768.75,189.85L820,300.52L871.25,253.08L922.5,148.49L973.75,324.04L1025,337.73" style="vector-effect: none; fill: none; stroke: rgb(144, 237, 125); stroke-opacity: 1; stroke-width: 2px; opacity: 1;"/></g><g class="points"/><g class="text"/></g><g class="trace scatter trace4dbf8b" style="stroke-miterlimit: 2; opacity: 1;"><g class="fills"/><g class="errorbars"/><g class="lines"><path class="js-line" d="M0,190.02L51.25,157.37L102.5,92.31L153.75,216.06L205,206.29L256.25,198.84L307.5,201.64L358.75,201.04L410,225.47L461.25,213.2L512.5,159.13L563.75,144.92L615,192.68L666.25,185.4L717.5,173.08L768.75,172.23L820,176.11L871.25,192.03L922.5,159.17L973.75,171.16L1025,217.26" style="vector-effect: none; fill: none; stroke: rgb(247, 163, 92); stroke-opacity: 1; stroke-width: 2px; opacity: 1;"/></g><g class="points"/><g class="text"/></g><g class="trace scatter trace1c4ec9" style="stroke-miterlimit: 2; opacity: 1;"><g class="fills"/><g class="errorbars"/><g class="lines"><path class="js-line" d="M0,191.8L51.25,172.86L102.5,142.24L153.75,216.37L205,203.02L256.25,213.75L307.5,200L358.75,202.23L410,228.44L461.25,234.28L512.5,171.13L563.75,151.47L615,199.18L666.25,188.66L717.5,175.36L768.75,177.04L820,181.88L871.25,193.86L922.5,178.47L973.75,235.83L1025,227.51" style="vector-effect: none; fill: none; stroke: rgb(128, 133, 233); stroke-opacity: 1; stroke-width: 2px; opacity: 1;"/></g><g class="points"/><g class="text"/></g><g class="trace scatter trace7f0b05" style="stroke-miterlimit: 2; opacity: 1;"><g class="fills"/><g class="errorbars"/><g class="lines"><path class="js-line" d="M0,185.76L51.25,150.85L102.5,80.59L153.75,213.36L205,199.74L256.25,193.81L307.5,196.31L358.75,194.27L410,219.56L461.25,211.32L512.5,158.8L563.75,140.45L615,191.02L666.25,179.03L717.5,164.24L768.75,169.66L820,167.69L871.25,187.86L922.5,154.78L1025,210.16" style="vector-effect: none; fill: none; stroke: rgb(241, 92, 128); stroke-opacity: 1; stroke-width: 2px; opacity: 1;"/></g><g class="points"/><g class="text"/></g><g class="trace scatter trace698711" style="stroke-miterlimit: 2; opacity: 1;"><g class="fills"/><g class="errorbars"/><g class="lines"><path class="js-line" d="M0,268.91L51.25,164.09L102.5,173.36L153.75,244.65L205,266.38L256.25,263.04L307.5,124.43L358.75,19.25L410,241.6L461.25,345.3L512.5,244.09L563.75,196.42L615,167.57L666.25,301.72L717.5,187.68L768.75,170.92L820,288.31L871.25,253.65L922.5,174.86L973.75,179.12L1025,304.88" style="vector-effect: none; fill: none; stroke: rgb(228, 211, 84); stroke-opacity: 1; stroke-width: 2px; opacity: 1;"/></g><g class="points"/><g class="text"/></g><g class="trace scatter trace5f6406" style="stroke-miterlimit: 2; opacity: 1;"><g class="fills"/><g class="errorbars"/><g class="lines"><path class="js-line" d="M0,212.58L51.25,154.63L102.5,107.51L153.75,221.39L205,215.82L256.25,212.89L307.5,180.07L358.75,133.47L410,233.41L461.25,235.26L512.5,182.28L563.75,155.45L615,192.02L666.25,209.74L717.5,182.11L768.75,176.26L820,197.45L871.25,204.24L922.5,152.13L973.75,192.29L1025,241.73" style="vector-effect: none; fill: none; stroke: rgb(43, 144, 143); stroke-opacity: 1; stroke-width: 2px; opacity: 1;"/></g><g class="points"/><g class="text"/></g><g class="trace scatter tracef2a15e" style="stroke-miterlimit: 2; opacity: 1;"><g class="fills"/><g class="errorbars"/><g class="lines"><path class="js-line" d="M0,255.58L51.25,237.85L102.5,209.99L153.75,287.67L205,274.54L256.25,284.73L307.5,263.83L358.75,259.21L410,301.1L461.25,310.84L512.5,243.02L563.75,221.12L615,266.9L666.25,258.39L717.5,237.3L768.75,249.97L820,256.41L871.25,267.63L922.5,244L973.75,306.85L1025,295.07" style="vector-effect: none; fill: none; stroke: rgb(244, 91, 91); stroke-opacity: 1; stroke-width: 2px; opacity: 1;"/></g><g class="points"/><g class="text"/></g><g class="trace scatter trace22f741" style="stroke-miterlimit: 2; opacity: 1;"><g class="fills"/><g class="errorbars"/><g class="lines"><path class="js-line" d="M0,203.64L51.25,164.29L102.5,81.06L153.75,226.61L205,212.83L256.25,205.76L307.5,212.15L358.75,218.69L410,230.67L461.25,232.76L512.5,172.76L563.75,154.05L615,206.05L666.25,197.31L717.5,184.05L768.75,177.66L820,186.92L871.25,204.1L922.5,167.13L973.75,199.95L1025,231.86" style="vector-effect: none; fill: none; stroke: rgb(145, 232, 225); stroke-opacity: 1; stroke-width: 2px; opacity: 1;"/></g><g class="points"/><g class="text"/></g><g class="trace scatter trace80b679" style="stroke-miterlimit: 2; opacity: 1;"><g class="fills"/><g class="errorbars"/><g class="lines"><path class="js-line" d="M0,193.08L51.25,172.1L102.5,103.89L153.75,216.12L205,201.15L256.25,205.77L307.5,202.1L358.75,212.37L410,227.81L461.25,227.92L512.5,163.58L563.75,148.79L615,192.46L666.25,189.77L717.5,180.06L768.75,178.65L820,178.23L871.25,194.02L922.5,167.36L973.75,248.27L1025,219.49" style="vector-effect: none; fill: none; stroke: rgb(124, 181, 236); stroke-opacity: 1; stroke-width: 2px; opacity: 1;"/></g><g class="points"/><g class="text"/></g><g class="trace scatter trace14f752" style="stroke-miterlimit: 2; opacity: 1;"><g class="fills"/><g class="errorbars"/><g class="lines"><path class="js-line" d="M0,193.98L51.25,182.69L102.5,150.87L153.75,219.11L205,204.59L256.25,217.65L307.5,204.93L358.75,214.17L410,230.9L461.25,237.61L512.5,172.34L563.75,154.55L615,198.75L666.25,195.64L717.5,181.83L768.75,182.78L820,184.78L871.25,197.93L922.5,182.14L973.75,239.64L1025,227.76" style="vector-effect: none; fill: none; stroke: rgb(67, 67, 72); stroke-opacity: 1; stroke-width: 2px; opacity: 1;"/></g><g class="points"/><g class="text"/></g><g class="trace scatter tracef90d6a" style="stroke-miterlimit: 2; opacity: 1;"><g class="fills"/><g class="errorbars"/><g class="lines"><path class="js-line" d="M0,217.18L51.25,149.26L102.5,153.32L153.75,226.34L205,223.61L256.25,231.25L307.5,145.03L358.75,123.5L410,225.89L461.25,269.64L512.5,201.15L563.75,165.69L615,160.33L666.25,226.69L717.5,175.13L768.75,183.88L820,217.06L871.25,216.45L922.5,168.14L973.75,286.14L1025,251.13" style="vector-effect: none; fill: none; stroke: rgb(144, 237, 125); stroke-opacity: 1; stroke-width: 2px; opacity: 1;"/></g><g class="points"/><g class="text"/></g><g class="trace scatter tracec88793" style="stroke-miterlimit: 2; opacity: 1;"><g class="fills"/><g class="errorbars"/><g class="lines"><path class="js-line" d="M0,203.48L51.25,180.36L102.5,101.51L153.75,232.32L205,215.2L256.25,216.86L307.5,214.95L358.75,226.97L410,240.59L461.25,236.51L512.5,176.29L563.75,162.47L615,208.66L666.25,202.52L717.5,191.65L768.75,187.96L820,192.25L871.25,209.54L922.5,176.9L973.75,225.91L1025,232.51" style="vector-effect: none; fill: none; stroke: rgb(247, 163, 92); stroke-opacity: 1; stroke-width: 2px; opacity: 1;"/></g><g class="points"/><g class="text"/></g><g class="trace scatter tracec15f43" style="stroke-miterlimit: 2; opacity: 1;"><g class="fills"/><g class="errorbars"/><g class="lines"><path class="js-line" d="M0,193.25L51.25,171.37L102.5,135.41L153.75,214.78L205,200.55L256.25,213.81L307.5,194.7L358.75,205.17L410,224.53L461.25,230.55L512.5,169.72L563.75,150.32L615,196.24L666.25,189.84L717.5,176.2L768.75,174.24L820,182.99L871.25,192.92L922.5,176.25L973.75,221.02L1025,227.71" style="vector-effect: none; fill: none; stroke: rgb(128, 133, 233); stroke-opacity: 1; stroke-width: 2px; opacity: 1;"/></g><g class="points"/><g class="text"/></g><g class="trace scatter trace5d5497" style="stroke-miterlimit: 2; opacity: 1;"><g class="fills"/><g class="errorbars"/><g class="lines"><path class="js-line" d="M0,195.08L51.25,170.76L102.5,114.64L153.75,222.22L205,206.58L256.25,210.85L307.5,208.58L358.75,212.66L410,230.78L461.25,233.28L512.5,170.15L563.75,153.09L615,199.78L666.25,192.27L717.5,180L768.75,179.31L820,185.71L871.25,200.62L922.5,172.51L973.75,246.88L1025,227.68" style="vector-effect: none; fill: none; stroke: rgb(241, 92, 128); stroke-opacity: 1; stroke-width: 2px; opacity: 1;"/></g><g class="points"/><g class="text"/></g></g></g></g><g class="zerolinelayer-above"/><path class="xlines-above crisp" d="M0,0" style="fill: none;"/><path class="ylines-above crisp" d="M0,0" style="fill: none;"/><g class="overlines-above"/><g class="xaxislayer-above"><g class="xtick"><text text-anchor="middle" x="0" y="451" transform="translate(60,0)" style="font-family: 'Lucida Grande', 'Open Sans', verdana, arial, sans-serif; font-size: 10px; fill: rgb(0, 0, 0); fill-opacity: 1; white-space: pre;">10</text></g><g class="xtick"><text text-anchor="middle" x="0" y="451" transform="translate(111.25,0)" style="font-family: 'Lucida Grande', 'Open Sans', verdana, arial, sans-serif; font-size: 10px; fill: rgb(0, 0, 0); fill-opacity: 1; white-space: pre;">11</text></g><g class="xtick"><text text-anchor="middle" x="0" y="451" transform="translate(162.5,0)" style="font-family: 'Lucida Grande', 'Open Sans', verdana, arial, sans-serif; font-size: 10px; fill: rgb(0, 0, 0); fill-opacity: 1; white-space: pre;">12</text></g><g class="xtick"><text text-anchor="middle" x="0" y="451" transform="translate(213.75,0)" style="font-family: 'Lucida Grande', 'Open Sans', verdana, arial, sans-serif; font-size: 10px; fill: rgb(0, 0, 0); fill-opacity: 1; white-space: pre;">13</text></g><g class="xtick"><text text-anchor="middle" x="0" y="451" transform="translate(265,0)" style="font-family: 'Lucida Grande', 'Open Sans', verdana, arial, sans-serif; font-size: 10px; fill: rgb(0, 0, 0); fill-opacity: 1; white-space: pre;">14</text></g><g class="xtick"><text text-anchor="middle" x="0" y="451" transform="translate(316.25,0)" style="font-family: 'Lucida Grande', 'Open Sans', verdana, arial, sans-serif; font-size: 10px; fill: rgb(0, 0, 0); fill-opacity: 1; white-space: pre;">15</text></g><g class="xtick"><text text-anchor="middle" x="0" y="451" transform="translate(367.5,0)" style="font-family: 'Lucida Grande', 'Open Sans', verdana, arial, sans-serif; font-size: 10px; fill: rgb(0, 0, 0); fill-opacity: 1; white-space: pre;">16</text></g><g class="xtick"><text text-anchor="middle" x="0" y="451" transform="translate(418.75,0)" style="font-family: 'Lucida Grande', 'Open Sans', verdana, arial, sans-serif; font-size: 10px; fill: rgb(0, 0, 0); fill-opacity: 1; white-space: pre;">17</text></g><g class="xtick"><text text-anchor="middle" x="0" y="451" transform="translate(470,0)" style="font-family: 'Lucida Grande', 'Open Sans', verdana, arial, sans-serif; font-size: 10px; fill: rgb(0, 0, 0); fill-opacity: 1; white-space: pre;">18</text></g><g class="xtick"><text text-anchor="middle" x="0" y="451" transform="translate(521.25,0)" style="font-family: 'Lucida Grande', 'Open Sans', verdana, arial, sans-serif; font-size: 10px; fill: rgb(0, 0, 0); fill-opacity: 1; white-space: pre;">19</text></g><g class="xtick"><text text-anchor="middle" x="0" y="451" transform="translate(572.5,0)" style="font-family: 'Lucida Grande', 'Open Sans', verdana, arial, sans-serif; font-size: 10px; fill: rgb(0, 0, 0); fill-opacity: 1; white-space: pre;">1</text></g><g class="xtick"><text text-anchor="middle" x="0" y="451" transform="translate(623.75,0)" style="font-family: 'Lucida Grande', 'Open Sans', verdana, arial, sans-serif; font-size: 10px; fill: rgb(0, 0, 0); fill-opacity: 1; white-space: pre;">2</text></g><g class="xtick"><text text-anchor="middle" x="0" y="451" transform="translate(675,0)" style="font-family: 'Lucida Grande', 'Open Sans', verdana, arial, sans-serif; font-size: 10px; fill: rgb(0, 0, 0); fill-opacity: 1; white-space: pre;">3</text></g><g class="xtick"><text text-anchor="middle" x="0" y="451" transform="translate(726.25,0)" style="font-family: 'Lucida Grande', 'Open Sans', verdana, arial, sans-serif; font-size: 10px; fill: rgb(0, 0, 0); fill-opacity: 1; white-space: pre;">4</text></g><g class="xtick"><text text-anchor="middle" x="0" y="451" transform="translate(777.5,0)" style="font-family: 'Lucida Grande', 'Open Sans', verdana, arial, sans-serif; font-size: 10px; fill: rgb(0, 0, 0); fill-opacity: 1; white-space: pre;">5</text></g><g class="xtick"><text text-anchor="middle" x="0" y="451" transform="translate(828.75,0)" style="font-family: 'Lucida Grande', 'Open Sans', verdana, arial, sans-serif; font-size: 10px; fill: rgb(0, 0, 0); fill-opacity: 1; white-space: pre;">6</text></g><g class="xtick"><text text-anchor="middle" x="0" y="451" transform="translate(880,0)" style="font-family: 'Lucida Grande', 'Open Sans', verdana, arial, sans-serif; font-size: 10px; fill: rgb(0, 0, 0); fill-opacity: 1; white-space: pre;">7</text></g><g class="xtick"><text text-anchor="middle" x="0" y="451" transform="translate(931.25,0)" style="font-family: 'Lucida Grande', 'Open Sans', verdana, arial, sans-serif; font-size: 10px; fill: rgb(0, 0, 0); fill-opacity: 1; white-space: pre;">8</text></g><g class="xtick"><text text-anchor="middle" x="0" y="451" transform="translate(982.5,0)" style="font-family: 'Lucida Grande', 'Open Sans', verdana, arial, sans-serif; font-size: 10px; fill: rgb(0, 0, 0); fill-opacity: 1; white-space: pre;">9</text></g><g class="xtick"><text text-anchor="middle" x="0" y="451" transform="translate(1033.75,0)" style="font-family: 'Lucida Grande', 'Open Sans', verdana, arial, sans-serif; font-size: 10px; fill: rgb(0, 0, 0); fill-opacity: 1; white-space: pre;">MT</text></g><g class="xtick"><text text-anchor="middle" x="0" y="451" transform="translate(1085,0)" style="font-family: 'Lucida Grande', 'Open Sans', verdana, arial, sans-serif; font-size: 10px; fill: rgb(0, 0, 0); fill-opacity: 1; white-space: pre;">X</text></g></g><g class="yaxislayer-above"><g class="ytick"><text text-anchor="end" x="54" y="2.625" transform="translate(0,410.18)" style="font-family: 'Lucida Grande', 'Open Sans', verdana, arial, sans-serif; font-size: 7.5px; fill: rgb(0, 0, 0); fill-opacity: 1; white-space: pre;">2</text></g><g class="ytick"><text text-anchor="end" x="54" y="2.625" style="font-family: 'Lucida Grande', 'Open Sans', verdana, arial, sans-serif; font-size: 7.5px; fill: rgb(0, 0, 0); fill-opacity: 1; white-space: pre;" transform="translate(0,380.96)">3</text></g><g class="ytick"><text text-anchor="end" x="54" y="2.625" style="font-family: 'Lucida Grande', 'Open Sans', verdana, arial, sans-serif; font-size: 7.5px; fill: rgb(0, 0, 0); fill-opacity: 1; white-space: pre;" transform="translate(0,360.23)">4</text></g><g class="ytick"><text text-anchor="end" x="54" y="2.625" style="font-family: 'Lucida Grande', 'Open Sans', verdana, arial, sans-serif; font-size: 7.5px; fill: rgb(0, 0, 0); fill-opacity: 1; white-space: pre;" transform="translate(0,344.14)">5</text></g><g class="ytick"><text text-anchor="end" x="54" y="2.625" style="font-family: 'Lucida Grande', 'Open Sans', verdana, arial, sans-serif; font-size: 7.5px; fill: rgb(0, 0, 0); fill-opacity: 1; white-space: pre;" transform="translate(0,331.01)">6</text></g><g class="ytick"><text text-anchor="end" x="54" y="2.625" style="font-family: 'Lucida Grande', 'Open Sans', verdana, arial, sans-serif; font-size: 7.5px; fill: rgb(0, 0, 0); fill-opacity: 1; white-space: pre;" transform="translate(0,319.9)">7</text></g><g class="ytick"><text text-anchor="end" x="54" y="2.625" style="font-family: 'Lucida Grande', 'Open Sans', verdana, arial, sans-serif; font-size: 7.5px; fill: rgb(0, 0, 0); fill-opacity: 1; white-space: pre;" transform="translate(0,310.27)">8</text></g><g class="ytick"><text text-anchor="end" x="54" y="2.625" style="font-family: 'Lucida Grande', 'Open Sans', verdana, arial, sans-serif; font-size: 7.5px; fill: rgb(0, 0, 0); fill-opacity: 1; white-space: pre;" transform="translate(0,301.78)">9</text></g><g class="ytick"><text text-anchor="end" x="51.5" y="1.8333333333333333" style="font-family: 'Lucida Grande', 'Open Sans', verdana, arial, sans-serif; font-size: 10px; fill: rgb(0, 0, 0); fill-opacity: 1; white-space: pre;" transform="translate(0,294.19)">1M</text></g><g class="ytick"><text text-anchor="end" x="54" y="2.625" style="font-family: 'Lucida Grande', 'Open Sans', verdana, arial, sans-serif; font-size: 7.5px; fill: rgb(0, 0, 0); fill-opacity: 1; white-space: pre;" transform="translate(0,244.24)">2</text></g><g class="ytick"><text text-anchor="end" x="54" y="2.625" style="font-family: 'Lucida Grande', 'Open Sans', verdana, arial, sans-serif; font-size: 7.5px; fill: rgb(0, 0, 0); fill-opacity: 1; white-space: pre;" transform="translate(0,215.02)">3</text></g><g class="ytick"><text text-anchor="end" x="54" y="2.625" style="font-family: 'Lucida Grande', 'Open Sans', verdana, arial, sans-serif; font-size: 7.5px; fill: rgb(0, 0, 0); fill-opacity: 1; white-space: pre;" transform="translate(0,194.29)">4</text></g><g class="ytick"><text text-anchor="end" x="54" y="2.625" style="font-family: 'Lucida Grande', 'Open Sans', verdana, arial, sans-serif; font-size: 7.5px; fill: rgb(0, 0, 0); fill-opacity: 1; white-space: pre;" transform="translate(0,178.21)">5</text></g><g class="ytick"><text text-anchor="end" x="54" y="2.625" style="font-family: 'Lucida Grande', 'Open Sans', verdana, arial, sans-serif; font-size: 7.5px; fill: rgb(0, 0, 0); fill-opacity: 1; white-space: pre;" transform="translate(0,165.07)">6</text></g><g class="ytick"><text text-anchor="end" x="54" y="2.625" style="font-family: 'Lucida Grande', 'Open Sans', verdana, arial, sans-serif; font-size: 7.5px; fill: rgb(0, 0, 0); fill-opacity: 1; white-space: pre;" transform="translate(0,153.95999999999998)">7</text></g><g class="ytick"><text text-anchor="end" x="54" y="2.625" style="font-family: 'Lucida Grande', 'Open Sans', verdana, arial, sans-serif; font-size: 7.5px; fill: rgb(0, 0, 0); fill-opacity: 1; white-space: pre;" transform="translate(0,144.32999999999998)">8</text></g><g class="ytick"><text text-anchor="end" x="54" y="2.625" style="font-family: 'Lucida Grande', 'Open Sans', verdana, arial, sans-serif; font-size: 7.5px; fill: rgb(0, 0, 0); fill-opacity: 1; white-space: pre;" transform="translate(0,135.85)">9</text></g><g class="ytick"><text text-anchor="end" x="51.5" y="1.8333333333333333" style="font-family: 'Lucida Grande', 'Open Sans', verdana, arial, sans-serif; font-size: 10px; fill: rgb(0, 0, 0); fill-opacity: 1; white-space: pre;" transform="translate(0,128.25)">10M</text></g><g class="ytick"><text text-anchor="end" x="54" y="2.625" style="font-family: 'Lucida Grande', 'Open Sans', verdana, arial, sans-serif; font-size: 7.5px; fill: rgb(0, 0, 0); fill-opacity: 1; white-space: pre;" transform="translate(0,78.3)">2</text></g></g><g class="overaxes-above"/></g></g><g class="polarlayer"/><g class="smithlayer"/><g class="ternarylayer"/><g class="geolayer"/><g class="funnelarealayer"/><g class="pielayer"/><g class="iciclelayer"/><g class="treemaplayer"/><g class="sunburstlayer"/><g class="glimages"/><defs id="topdefs-32dfcf"><g class="clips"/></defs><g class="layer-above"><g class="imagelayer"/><g class="shapelayer"/></g><g class="infolayer"><g class="g-gtitle"><text class="gtitle" x="550" y="25" text-anchor="middle" dy="0em" style="opacity: 1; font-family: 'Lucida Grande', 'Open Sans', verdana, arial, sans-serif; font-size: 20px; fill: rgb(68, 68, 68); fill-opacity: 1; white-space: pre;"><tspan class="line" dy="0em" x="550" y="25">Samtools: idxstats: Mapped reads per contig</tspan><tspan class="line" dy="1.3em" x="550" y="25">​<tspan style="font-size:70%" dy="-0.6em">Raw Counts, 16 lines</tspan><tspan dy="0.42em">​</tspan></tspan></text></g><g class="g-xtitle"><text class="xtitle" x="572.5" y="487" text-anchor="middle" style="opacity: 0.3; font-family: 'Lucida Grande', 'Open Sans', verdana, arial, sans-serif; font-size: 14px; fill: rgb(0, 0, 0); fill-opacity: 1; white-space: pre;">Chromosome name</text></g><g class="g-ytitle"><text class="ytitle" transform="rotate(-90,22,242.5)" x="22" y="242.5" text-anchor="middle" style="opacity: 0.3; font-family: 'Lucida Grande', 'Open Sans', verdana, arial, sans-serif; font-size: 14px; fill: rgb(0, 0, 0); fill-opacity: 1; white-space: pre;"># mapped reads</text></g></g></svg>