<svg class="main-svg" xmlns="http://www.w3.org/2000/svg" xmlns:xlink="http://www.w3.org/1999/xlink" width="2200" height="1000" style="" viewBox="0 0 1100 500"><rect x="0" y="0" width="1100" height="500" style="fill: rgb(255, 255, 255); fill-opacity: 1;"/><defs id="defs-7042bc"><g class="clips"><clipPath id="clip7042bcxyplot" class="plotclip"><rect width="1025" height="385"/></clipPath><clipPath class="axesclip" id="clip7042bcx"><rect x="60" y="0" width="1025" height="500"/></clipPath><clipPath class="axesclip" id="clip7042bcy"><rect x="0" y="50" width="1100" height="385"/></clipPath><clipPath class="axesclip" id="clip7042bcxy"><rect x="60" y="50" width="1025" height="385"/></clipPath></g><g class="gradients"/><g class="patterns"/></defs><g class="bglayer"/><g class="layer-below"><g class="imagelayer"/><g class="shapelayer"/></g><g class="cartesianlayer"><g class="subplot xy"><g class="layer-subplot"><g class="shapelayer"/><g class="imagelayer"/></g><g class="minor-gridlayer"><g class="x"/><g class="y"/></g><g class="gridlayer"><g class="x"><path class="xgrid crisp" transform="translate(111.25,0)" d="M0,50v385" style="stroke: rgb(0, 0, 0); stroke-opacity: 0.05; stroke-width: 1px;"/><path class="xgrid crisp" transform="translate(162.5,0)" d="M0,50v385" style="stroke: rgb(0, 0, 0); stroke-opacity: 0.05; stroke-width: 1px;"/><path class="xgrid crisp" transform="translate(213.75,0)" d="M0,50v385" style="stroke: rgb(0, 0, 0); stroke-opacity: 0.05; stroke-width: 1px;"/><path class="xgrid crisp" transform="translate(265,0)" d="M0,50v385" style="stroke: rgb(0, 0, 0); stroke-opacity: 0.05; stroke-width: 1px;"/><path class="xgrid crisp" transform="translate(316.25,0)" d="M0,50v385" style="stroke: rgb(0, 0, 0); stroke-opacity: 0.05; stroke-width: 1px;"/><path class="xgrid crisp" transform="translate(367.5,0)" d="M0,50v385" style="stroke: rgb(0, 0, 0); stroke-opacity: 0.05; stroke-width: 1px;"/><path class="xgrid crisp" transform="translate(418.75,0)" d="M0,50v385" style="stroke: rgb(0, 0, 0); stroke-opacity: 0.05; stroke-width: 1px;"/><path class="xgrid crisp" transform="translate(470,0)" d="M0,50v385" style="stroke: rgb(0, 0, 0); stroke-opacity: 0.05; stroke-width: 1px;"/><path class="xgrid crisp" transform="translate(521.25,0)" d="M0,50v385" style="stroke: rgb(0, 0, 0); stroke-opacity: 0.05; stroke-width: 1px;"/><path class="xgrid crisp" transform="translate(572.5,0)" d="M0,50v385" style="stroke: rgb(0, 0, 0); stroke-opacity: 0.05; stroke-width: 1px;"/><path class="xgrid crisp" transform="translate(623.75,0)" d="M0,50v385" style="stroke: rgb(0, 0, 0); stroke-opacity: 0.05; stroke-width: 1px;"/><path class="xgrid crisp" transform="translate(675,0)" d="M0,50v385" style="stroke: rgb(0, 0, 0); stroke-opacity: 0.05; stroke-width: 1px;"/><path class="xgrid crisp" transform="translate(726.25,0)" d="M0,50v385" style="stroke: rgb(0, 0, 0); stroke-opacity: 0.05; stroke-width: 1px;"/><path class="xgrid crisp" transform="translate(777.5,0)" d="M0,50v385" style="stroke: rgb(0, 0, 0); stroke-opacity: 0.05; stroke-width: 1px;"/><path class="xgrid crisp" transform="translate(828.75,0)" d="M0,50v385" style="stroke: rgb(0, 0, 0); stroke-opacity: 0.05; stroke-width: 1px;"/><path class="xgrid crisp" transform="translate(880,0)" d="M0,50v385" style="stroke: rgb(0, 0, 0); stroke-opacity: 0.05; stroke-width: 1px;"/><path class="xgrid crisp" transform="translate(931.25,0)" d="M0,50v385" style="stroke: rgb(0, 0, 0); stroke-opacity: 0.05; stroke-width: 1px;"/><path class="xgrid crisp" transform="translate(982.5,0)" d="M0,50v385" style="stroke: rgb(0, 0, 0); stroke-opacity: 0.05; stroke-width: 1px;"/><path class="xgrid crisp" transform="translate(1033.75,0)" d="M0,50v385" style="stroke: rgb(0, 0, 0); stroke-opacity: 0.05; stroke-width: 1px;"/></g><g class="y"><path class="ygrid crisp" transform="translate(0,418.62)" d="M60,0h1025" style="stroke: rgb(0, 0, 0); stroke-opacity: 0.05; stroke-width: 1px;"/><path class="ygrid crisp" transform="translate(0,397.28)" d="M60,0h1025" style="stroke: rgb(0, 0, 0); stroke-opacity: 0.05; stroke-width: 1px;"/><path class="ygrid crisp" transform="translate(0,369.08)" d="M60,0h1025" style="stroke: rgb(0, 0, 0); stroke-opacity: 0.05; stroke-width: 1px;"/><path class="ygrid crisp" transform="translate(0,347.74)" d="M60,0h1025" style="stroke: rgb(0, 0, 0); stroke-opacity: 0.05; stroke-width: 1px;"/><path class="ygrid crisp" transform="translate(0,326.4)" d="M60,0h1025" style="stroke: rgb(0, 0, 0); stroke-opacity: 0.05; stroke-width: 1px;"/><path class="ygrid crisp" transform="translate(0,298.2)" d="M60,0h1025" style="stroke: rgb(0, 0, 0); stroke-opacity: 0.05; stroke-width: 1px;"/><path class="ygrid crisp" transform="translate(0,276.86)" d="M60,0h1025" style="stroke: rgb(0, 0, 0); stroke-opacity: 0.05; stroke-width: 1px;"/><path class="ygrid crisp" transform="translate(0,255.52)" d="M60,0h1025" style="stroke: rgb(0, 0, 0); stroke-opacity: 0.05; stroke-width: 1px;"/><path class="ygrid crisp" transform="translate(0,227.32)" d="M60,0h1025" style="stroke: rgb(0, 0, 0); stroke-opacity: 0.05; stroke-width: 1px;"/><path class="ygrid crisp" transform="translate(0,205.98)" d="M60,0h1025" style="stroke: rgb(0, 0, 0); stroke-opacity: 0.05; stroke-width: 1px;"/><path class="ygrid crisp" transform="translate(0,184.64)" d="M60,0h1025" style="stroke: rgb(0, 0, 0); stroke-opacity: 0.05; stroke-width: 1px;"/><path class="ygrid crisp" transform="translate(0,156.44)" d="M60,0h1025" style="stroke: rgb(0, 0, 0); stroke-opacity: 0.05; stroke-width: 1px;"/><path class="ygrid crisp" transform="translate(0,135.1)" d="M60,0h1025" style="stroke: rgb(0, 0, 0); stroke-opacity: 0.05; stroke-width: 1px;"/><path class="ygrid crisp" transform="translate(0,113.75999999999999)" d="M60,0h1025" style="stroke: rgb(0, 0, 0); stroke-opacity: 0.05; stroke-width: 1px;"/><path class="ygrid crisp" transform="translate(0,85.56)" d="M60,0h1025" style="stroke: rgb(0, 0, 0); stroke-opacity: 0.05; stroke-width: 1px;"/><path class="ygrid crisp" transform="translate(0,64.22)" d="M60,0h1025" style="stroke: rgb(0, 0, 0); stroke-opacity: 0.05; stroke-width: 1px;"/></g></g><g class="zerolinelayer"/><g class="layer-between"><g class="shapelayer"/><g class="imagelayer"/></g><path class="xlines-below"/><path class="ylines-below"/><g class="overlines-below"/><g class="xaxislayer-below"/><g class="yaxislayer-below"/><g class="overaxes-below"/><g class="overplot"><g class="xy" transform="translate(60,50)" clip-path="url(#clip7042bcxyplot)"><g class="scatterlayer mlayer"><g class="trace scatter trace93dce6" style="stroke-miterlimit: 2; opacity: 1;"><g class="fills"/><g class="errorbars"/><g class="lines"><path class="js-line" d="M0,304.79L51.25,282.56L102.5,262.64L153.75,311.32L205,307.07L256.25,302.14L307.5,298.15L358.75,302.04L410,301.12L461.25,291.05L512.5,301.8L563.75,294.93L615,309.8L666.25,307.49L717.5,301.21L768.75,299.82L820,300.94L871.25,304.03L922.5,291.92L973.75,24.14L1025,324.12" style="vector-effect: none; fill: none; stroke: rgb(124, 181, 236); stroke-opacity: 1; stroke-width: 2px; opacity: 1;"/></g><g class="points"/><g class="text"/></g><g class="trace scatter trace5629cf" style="stroke-miterlimit: 2; opacity: 1;"><g class="fills"/><g class="errorbars"/><g class="lines"><path class="js-line" d="M0,299.42L51.25,288.69L102.5,265.12L153.75,309.9L205,304.07L256.25,302.11L307.5,294.65L358.75,296.32L410,304.52L461.25,294.08L512.5,303.8L563.75,293.41L615,309.34L666.25,305.68L717.5,294.64L871.25,301.95L922.5,290.51L973.75,46.7L1025,322.52" style="vector-effect: none; fill: none; stroke: rgb(67, 67, 72); stroke-opacity: 1; stroke-width: 2px; opacity: 1;"/></g><g class="points"/><g class="text"/></g><g class="trace scatter trace904860" style="stroke-miterlimit: 2; opacity: 1;"><g class="fills"/><g class="errorbars"/><g class="lines"><path class="js-line" d="M0,330.72L51.25,286.03L102.5,291.81L153.75,314.26L205,322.01L256.25,324.18L307.5,273.02L358.75,227.7L410,321.74L461.25,346.2L512.5,337.37L563.75,307.14L615,297.81L666.25,364.31L717.5,316.79L768.75,298.49L820,344.87L871.25,321.01L922.5,275.17L973.75,74.9L1025,365.75" style="vector-effect: none; fill: none; stroke: rgb(144, 237, 125); stroke-opacity: 1; stroke-width: 2px; opacity: 1;"/></g><g class="points"/><g class="text"/></g><g class="trace scatter trace5df77f" style="stroke-miterlimit: 2; opacity: 1;"><g class="fills"/><g class="errorbars"/><g class="lines"><path class="js-line" d="M0,304.03L51.25,287.98L102.5,259.7L153.75,312.63L205,309.58L256.25,300.77L307.5,300.19L358.75,298.91L410,307.92L461.25,290.69L512.5,303.22L563.75,294.97L615,311.4L666.25,307.6L717.5,301.41L768.75,300.61L820,301.38L871.25,304.58L922.5,289.38L973.75,19.25L1025,323.94" style="vector-effect: none; fill: none; stroke: rgb(247, 163, 92); stroke-opacity: 1; stroke-width: 2px; opacity: 1;"/></g><g class="points"/><g class="text"/></g><g class="trace scatter trace1be357" style="stroke-miterlimit: 2; opacity: 1;"><g class="fills"/><g class="errorbars"/><g class="lines"><path class="js-line" d="M0,298.72L51.25,288.53L102.5,274.96L153.75,306.7L205,302.12L256.25,301.08L307.5,293.43L358.75,293.35L410,303.13L461.25,293.63L512.5,302.28L563.75,291.71L615,308.11L666.25,302.93L717.5,296.32L768.75,296.6L820,297.77L871.25,299.3L922.5,291.56L973.75,40.81L1025,322.25" style="vector-effect: none; fill: none; stroke: rgb(128, 133, 233); stroke-opacity: 1; stroke-width: 2px; opacity: 1;"/></g><g class="points"/><g class="text"/></g><g class="trace scatter trace3fe89a" style="stroke-miterlimit: 2; opacity: 1;"><g class="fills"/><g class="errorbars"/><g class="lines"><path class="js-line" d="M0,304.44L51.25,287.43L102.5,256.93L153.75,313.71L205,309.02L256.25,300.86L307.5,300.15L358.75,298.26L410,307.64L461.25,292.12L512.5,305.32L563.75,295.3L615,312.93L666.25,307.12L717.5,299.87L768.75,301.75L820,300.01L871.25,305.04L922.5,289.74L973.75,26.43L1025,323.15" style="vector-effect: none; fill: none; stroke: rgb(241, 92, 128); stroke-opacity: 1; stroke-width: 2px; opacity: 1;"/></g><g class="points"/><g class="text"/></g><g class="trace scatter trace93f02b" style="stroke-miterlimit: 2; opacity: 1;"><g class="fills"/><g class="errorbars"/><g class="lines"><path class="js-line" d="M0,338.89L51.25,292.02L102.5,295.48L153.75,326.01L205,336.41L256.25,329.36L307.5,268.38L358.75,222.42L410,315.98L461.25,348.28L512.5,340.68L563.75,318.14L615,301.84L666.25,358.45L717.5,308.81L768.75,301.22L820,350.47L871.25,332.06L922.5,297.24L973.75,23.81L1025,362.53" style="vector-effect: none; fill: none; stroke: rgb(228, 211, 84); stroke-opacity: 1; stroke-width: 2px; opacity: 1;"/></g><g class="points"/><g class="text"/></g><g class="trace scatter trace796d46" style="stroke-miterlimit: 2; opacity: 1;"><g class="fills"/><g class="errorbars"/><g class="lines"><path class="js-line" d="M0,311.28L51.25,284.43L102.5,263.81L153.75,312.53L205,311.27L256.25,304.4L307.5,288.6L358.75,267.67L410,308.94L461.25,297.73L512.5,310.73L563.75,297.09L615,308.74L666.25,315.62L717.5,302.88L768.75,299.96L820,308.11L871.25,307.41L922.5,283.99L973.75,25.9L1025,332.02" style="vector-effect: none; fill: none; stroke: rgb(43, 144, 143); stroke-opacity: 1; stroke-width: 2px; opacity: 1;"/></g><g class="points"/><g class="text"/></g><g class="trace scatter trace7c791b" style="stroke-miterlimit: 2; opacity: 1;"><g class="fills"/><g class="errorbars"/><g class="lines"><path class="js-line" d="M0,296.73L51.25,287.06L102.5,274.67L153.75,307.92L205,303.44L256.25,302.17L307.5,291.46L358.75,288.46L410,304.94L461.25,297.1L512.5,303.76L563.75,292.23L615,307.8L666.25,303.48L717.5,293.54L768.75,298.52L820,300.38L871.25,301.57L922.5,290.32L973.75,41.91L1025,321.88" style="vector-effect: none; fill: none; stroke: rgb(244, 91, 91); stroke-opacity: 1; stroke-width: 2px; opacity: 1;"/></g><g class="points"/><g class="text"/></g><g class="trace scatter trace2af0c4" style="stroke-miterlimit: 2; opacity: 1;"><g class="fills"/><g class="errorbars"/><g class="lines"><path class="js-line" d="M0,306.63L51.25,287.72L102.5,251.68L153.75,313.92L205,309.16L256.25,300.51L307.5,301.46L358.75,303.23L410,306.93L461.25,295.83L512.5,305.83L563.75,295.66L615,313.89L666.25,309.47L717.5,302.87L768.75,299.72L820,302.78L871.25,306.52L922.5,289.56L973.75,28.33L1025,326.96" style="vector-effect: none; fill: none; stroke: rgb(145, 232, 225); stroke-opacity: 1; stroke-width: 2px; opacity: 1;"/></g><g class="points"/><g class="text"/></g><g class="trace scatter traceb7a328" style="stroke-miterlimit: 2; opacity: 1;"><g class="fills"/><g class="errorbars"/><g class="lines"><path class="js-line" d="M0,301.79L51.25,290.73L102.5,261.1L153.75,309.11L205,303.84L307.5,296.84L358.75,300.2L410,305.38L461.25,293.43L512.5,301.58L563.75,293.08L615,307.76L666.25,305.92L717.5,300.84L768.75,299.81L820,298.73L871.25,301.88L922.5,289.33L973.75,48.64L1025,321.35" style="vector-effect: none; fill: none; stroke: rgb(124, 181, 236); stroke-opacity: 1; stroke-width: 2px; opacity: 1;"/></g><g class="points"/><g class="text"/></g><g class="trace scatter trace7f3ee9" style="stroke-miterlimit: 2; opacity: 1;"><g class="fills"/><g class="errorbars"/><g class="lines"><path class="js-line" d="M0,297.7L51.25,290.78L102.5,276.69L153.75,305.91L205,300.83L256.25,300.79L307.5,293.58L358.75,296.5L410,302.22L461.25,293.09L512.5,300.84L563.75,291.07L615,305.97L666.25,303.95L717.5,297.12L820,297.06L871.25,299.08L922.5,291.17L973.75,40.48L1025,320.41" style="vector-effect: none; fill: none; stroke: rgb(67, 67, 72); stroke-opacity: 1; stroke-width: 2px; opacity: 1;"/></g><g class="points"/><g class="text"/></g><g class="trace scatter trace9f970e" style="stroke-miterlimit: 2; opacity: 1;"><g class="fills"/><g class="errorbars"/><g class="lines"><path class="js-line" d="M0,310.08L51.25,278.97L102.5,280.2L153.75,311.47L205,311.43L256.25,309.07L307.5,270.46L358.75,260.24L410,302.55L512.5,315.62L563.75,298.3L615,292.03L666.25,319.69L717.5,296.73L768.75,300.04L820,313.32L871.25,309.46L922.5,287.66L973.75,62.81L1025,332.86" style="vector-effect: none; fill: none; stroke: rgb(144, 237, 125); stroke-opacity: 1; stroke-width: 2px; opacity: 1;"/></g><g class="points"/><g class="text"/></g><g class="trace scatter tracefbd0d4" style="stroke-miterlimit: 2; opacity: 1;"><g class="fills"/><g class="errorbars"/><g class="lines"><path class="js-line" d="M0,302.31L51.25,290.34L102.5,256.16L153.75,312.11L205,305.92L256.25,301.01L307.5,298.41L410,306.92L461.25,293.18L512.5,303.09L563.75,295L615,310.76L666.25,307.45L717.5,301.87L768.75,299.87L820,300.8L871.25,304.59L922.5,289.49L973.75,35.17L1025,322.99" style="vector-effect: none; fill: none; stroke: rgb(247, 163, 92); stroke-opacity: 1; stroke-width: 2px; opacity: 1;"/></g><g class="points"/><g class="text"/></g><g class="trace scatter trace6bee86" style="stroke-miterlimit: 2; opacity: 1;"><g class="fills"/><g class="errorbars"/><g class="lines"><path class="js-line" d="M0,300.19L51.25,288.74L102.5,272.89L153.75,306.86L205,301.91L256.25,301.95L307.5,292.01L358.75,295.46L410,302.3L461.25,292.88L512.5,302.53L563.75,292.06L615,307.7L666.25,304.28L717.5,297.52L768.75,296.25L820,299.1L871.25,299.74L922.5,291.45L973.75,35.33L1025,323.19" style="vector-effect: none; fill: none; stroke: rgb(128, 133, 233); stroke-opacity: 1; stroke-width: 2px; opacity: 1;"/></g><g class="points"/><g class="text"/></g><g class="trace scatter trace7fc8c8" style="stroke-miterlimit: 2; opacity: 1;"><g class="fills"/><g class="errorbars"/><g class="lines"><path class="js-line" d="M0,300.55L51.25,288.07L102.5,263.6L153.75,309.63L205,304.07L256.25,300.27L307.5,297.52L358.75,298.24L410,304.56L461.25,293.63L512.5,302.3L563.75,292.83L615,308.8L666.25,304.9L717.5,298.73L768.75,298L820,299.84L871.25,302.61L922.5,289.44L973.75,45.96L1025,322.76" style="vector-effect: none; fill: none; stroke: rgb(241, 92, 128); stroke-opacity: 1; stroke-width: 2px; opacity: 1;"/></g><g class="points"/><g class="text"/></g></g></g></g><g class="zerolinelayer-above"/><path class="xlines-above crisp" d="M0,0" style="fill: none;"/><path class="ylines-above crisp" d="M0,0" style="fill: none;"/><g class="overlines-above"/><g class="xaxislayer-above"><g class="xtick"><text text-anchor="middle" x="0" y="451" transform="translate(60,0)" style="font-family: 'Lucida Grande', 'Open Sans', verdana, arial, sans-serif; font-size: 10px; fill: rgb(0, 0, 0); fill-opacity: 1; white-space: pre;">10</text></g><g class="xtick"><text text-anchor="middle" x="0" y="451" transform="translate(111.25,0)" style="font-family: 'Lucida Grande', 'Open Sans', verdana, arial, sans-serif; font-size: 10px; fill: rgb(0, 0, 0); fill-opacity: 1; white-space: pre;">11</text></g><g class="xtick"><text text-anchor="middle" x="0" y="451" transform="translate(162.5,0)" style="font-family: 'Lucida Grande', 'Open Sans', verdana, arial, sans-serif; font-size: 10px; fill: rgb(0, 0, 0); fill-opacity: 1; white-space: pre;">12</text></g><g class="xtick"><text text-anchor="middle" x="0" y="451" transform="translate(213.75,0)" style="font-family: 'Lucida Grande', 'Open Sans', verdana, arial, sans-serif; font-size: 10px; fill: rgb(0, 0, 0); fill-opacity: 1; white-space: pre;">13</text></g><g class="xtick"><text text-anchor="middle" x="0" y="451" transform="translate(265,0)" style="font-family: 'Lucida Grande', 'Open Sans', verdana, arial, sans-serif; font-size: 10px; fill: rgb(0, 0, 0); fill-opacity: 1; white-space: pre;">14</text></g><g class="xtick"><text text-anchor="middle" x="0" y="451" transform="translate(316.25,0)" style="font-family: 'Lucida Grande', 'Open Sans', verdana, arial, sans-serif; font-size: 10px; fill: rgb(0, 0, 0); fill-opacity: 1; white-space: pre;">15</text></g><g class="xtick"><text text-anchor="middle" x="0" y="451" transform="translate(367.5,0)" style="font-family: 'Lucida Grande', 'Open Sans', verdana, arial, sans-serif; font-size: 10px; fill: rgb(0, 0, 0); fill-opacity: 1; white-space: pre;">16</text></g><g class="xtick"><text text-anchor="middle" x="0" y="451" transform="translate(418.75,0)" style="font-family: 'Lucida Grande', 'Open Sans', verdana, arial, sans-serif; font-size: 10px; fill: rgb(0, 0, 0); fill-opacity: 1; white-space: pre;">17</text></g><g class="xtick"><text text-anchor="middle" x="0" y="451" transform="translate(470,0)" style="font-family: 'Lucida Grande', 'Open Sans', verdana, arial, sans-serif; font-size: 10px; fill: rgb(0, 0, 0); fill-opacity: 1; white-space: pre;">18</text></g><g class="xtick"><text text-anchor="middle" x="0" y="451" transform="translate(521.25,0)" style="font-family: 'Lucida Grande', 'Open Sans', verdana, arial, sans-serif; font-size: 10px; fill: rgb(0, 0, 0); fill-opacity: 1; white-space: pre;">19</text></g><g class="xtick"><text text-anchor="middle" x="0" y="451" transform="translate(572.5,0)" style="font-family: 'Lucida Grande', 'Open Sans', verdana, arial, sans-serif; font-size: 10px; fill: rgb(0, 0, 0); fill-opacity: 1; white-space: pre;">1</text></g><g class="xtick"><text text-anchor="middle" x="0" y="451" transform="translate(623.75,0)" style="font-family: 'Lucida Grande', 'Open Sans', verdana, arial, sans-serif; font-size: 10px; fill: rgb(0, 0, 0); fill-opacity: 1; white-space: pre;">2</text></g><g class="xtick"><text text-anchor="middle" x="0" y="451" transform="translate(675,0)" style="font-family: 'Lucida Grande', 'Open Sans', verdana, arial, sans-serif; font-size: 10px; fill: rgb(0, 0, 0); fill-opacity: 1; white-space: pre;">3</text></g><g class="xtick"><text text-anchor="middle" x="0" y="451" transform="translate(726.25,0)" style="font-family: 'Lucida Grande', 'Open Sans', verdana, arial, sans-serif; font-size: 10px; fill: rgb(0, 0, 0); fill-opacity: 1; white-space: pre;">4</text></g><g class="xtick"><text text-anchor="middle" x="0" y="451" transform="translate(777.5,0)" style="font-family: 'Lucida Grande', 'Open Sans', verdana, arial, sans-serif; font-size: 10px; fill: rgb(0, 0, 0); fill-opacity: 1; white-space: pre;">5</text></g><g class="xtick"><text text-anchor="middle" x="0" y="451" transform="translate(828.75,0)" style="font-family: 'Lucida Grande', 'Open Sans', verdana, arial, sans-serif; font-size: 10px; fill: rgb(0, 0, 0); fill-opacity: 1; white-space: pre;">6</text></g><g class="xtick"><text text-anchor="middle" x="0" y="451" transform="translate(880,0)" style="font-family: 'Lucida Grande', 'Open Sans', verdana, arial, sans-serif; font-size: 10px; fill: rgb(0, 0, 0); fill-opacity: 1; white-space: pre;">7</text></g><g class="xtick"><text text-anchor="middle" x="0" y="451" transform="translate(931.25,0)" style="font-family: 'Lucida Grande', 'Open Sans', verdana, arial, sans-serif; font-size: 10px; fill: rgb(0, 0, 0); fill-opacity: 1; white-space: pre;">8</text></g><g class="xtick"><text text-anchor="middle" x="0" y="451" transform="translate(982.5,0)" style="font-family: 'Lucida Grande', 'Open Sans', verdana, arial, sans-serif; font-size: 10px; fill: rgb(0, 0, 0); fill-opacity: 1; white-space: pre;">9</text></g><g class="xtick"><text text-anchor="middle" x="0" y="451" transform="translate(1033.75,0)" style="font-family: 'Lucida Grande', 'Open Sans', verdana, arial, sans-serif; font-size: 10px; fill: rgb(0, 0, 0); fill-opacity: 1; white-space: pre;">MT</text></g><g class="xtick"><text text-anchor="middle" x="0" y="451" transform="translate(1085,0)" style="font-family: 'Lucida Grande', 'Open Sans', verdana, arial, sans-serif; font-size: 10px; fill: rgb(0, 0, 0); fill-opacity: 1; white-space: pre;">X</text></g></g><g class="yaxislayer-above"><g class="ytick"><text text-anchor="end" x="54" y="3.5" transform="translate(0,418.62)" style="font-family: 'Lucida Grande', 'Open Sans', verdana, arial, sans-serif; font-size: 10px; fill: rgb(0, 0, 0); fill-opacity: 1; white-space: pre;">0.1</text></g><g class="ytick"><text text-anchor="end" x="54" y="2.625" style="font-family: 'Lucida Grande', 'Open Sans', verdana, arial, sans-serif; font-size: 7.5px; fill: rgb(0, 0, 0); fill-opacity: 1; white-space: pre;" transform="translate(0,397.28)">2</text></g><g class="ytick"><text text-anchor="end" x="54" y="2.625" style="font-family: 'Lucida Grande', 'Open Sans', verdana, arial, sans-serif; font-size: 7.5px; fill: rgb(0, 0, 0); fill-opacity: 1; white-space: pre;" transform="translate(0,369.08)">5</text></g><g class="ytick"><text text-anchor="end" x="54" y="3.5" style="font-family: 'Lucida Grande', 'Open Sans', verdana, arial, sans-serif; font-size: 10px; fill: rgb(0, 0, 0); fill-opacity: 1; white-space: pre;" transform="translate(0,347.74)">1</text></g><g class="ytick"><text text-anchor="end" x="54" y="2.625" style="font-family: 'Lucida Grande', 'Open Sans', verdana, arial, sans-serif; font-size: 7.5px; fill: rgb(0, 0, 0); fill-opacity: 1; white-space: pre;" transform="translate(0,326.4)">2</text></g><g class="ytick"><text text-anchor="end" x="54" y="2.625" style="font-family: 'Lucida Grande', 'Open Sans', verdana, arial, sans-serif; font-size: 7.5px; fill: rgb(0, 0, 0); fill-opacity: 1; white-space: pre;" transform="translate(0,298.2)">5</text></g><g class="ytick"><text text-anchor="end" x="54" y="3.5" style="font-family: 'Lucida Grande', 'Open Sans', verdana, arial, sans-serif; font-size: 10px; fill: rgb(0, 0, 0); fill-opacity: 1; white-space: pre;" transform="translate(0,276.86)">10</text></g><g class="ytick"><text text-anchor="end" x="54" y="2.625" style="font-family: 'Lucida Grande', 'Open Sans', verdana, arial, sans-serif; font-size: 7.5px; fill: rgb(0, 0, 0); fill-opacity: 1; white-space: pre;" transform="translate(0,255.52)">2</text></g><g class="ytick"><text text-anchor="end" x="54" y="2.625" style="font-family: 'Lucida Grande', 'Open Sans', verdana, arial, sans-serif; font-size: 7.5px; fill: rgb(0, 0, 0); fill-opacity: 1; white-space: pre;" transform="translate(0,227.32)">5</text></g><g class="ytick"><text text-anchor="end" x="54" y="3.5" style="font-family: 'Lucida Grande', 'Open Sans', verdana, arial, sans-serif; font-size: 10px; fill: rgb(0, 0, 0); fill-opacity: 1; white-space: pre;" transform="translate(0,205.98)">100</text></g><g class="ytick"><text text-anchor="end" x="54" y="2.625" style="font-family: 'Lucida Grande', 'Open Sans', verdana, arial, sans-serif; font-size: 7.5px; fill: rgb(0, 0, 0); fill-opacity: 1; white-space: pre;" transform="translate(0,184.64)">2</text></g><g class="ytick"><text text-anchor="end" x="54" y="2.625" style="font-family: 'Lucida Grande', 'Open Sans', verdana, arial, sans-serif; font-size: 7.5px; fill: rgb(0, 0, 0); fill-opacity: 1; white-space: pre;" transform="translate(0,156.44)">5</text></g><g class="ytick"><text text-anchor="end" x="54" y="3.5" style="font-family: 'Lucida Grande', 'Open Sans', verdana, arial, sans-serif; font-size: 10px; fill: rgb(0, 0, 0); fill-opacity: 1; white-space: pre;" transform="translate(0,135.1)">1000</text></g><g class="ytick"><text text-anchor="end" x="54" y="2.625" style="font-family: 'Lucida Grande', 'Open Sans', verdana, arial, sans-serif; font-size: 7.5px; fill: rgb(0, 0, 0); fill-opacity: 1; white-space: pre;" transform="translate(0,113.75999999999999)">2</text></g><g class="ytick"><text text-anchor="end" x="54" y="2.625" style="font-family: 'Lucida Grande', 'Open Sans', verdana, arial, sans-serif; font-size: 7.5px; fill: rgb(0, 0, 0); fill-opacity: 1; white-space: pre;" transform="translate(0,85.56)">5</text></g><g class="ytick"><text text-anchor="end" x="54" y="3.5" style="font-family: 'Lucida Grande', 'Open Sans', verdana, arial, sans-serif; font-size: 10px; fill: rgb(0, 0, 0); fill-opacity: 1; white-space: pre;" transform="translate(0,64.22)">10k</text></g></g><g class="overaxes-above"/></g></g><g class="polarlayer"/><g class="smithlayer"/><g class="ternarylayer"/><g class="geolayer"/><g class="funnelarealayer"/><g class="pielayer"/><g class="iciclelayer"/><g class="treemaplayer"/><g class="sunburstlayer"/><g class="glimages"/><defs id="topdefs-7042bc"><g class="clips"/></defs><g class="layer-above"><g class="imagelayer"/><g class="shapelayer"/></g><g class="infolayer"><g class="g-gtitle"><text class="gtitle" x="550" y="25" text-anchor="middle" dy="0em" style="opacity: 1; font-family: 'Lucida Grande', 'Open Sans', verdana, arial, sans-serif; font-size: 20px; fill: rgb(68, 68, 68); fill-opacity: 1; white-space: pre;"><tspan class="line" dy="0em" x="550" y="25">Samtools: idxstats: Mapped reads per contig</tspan><tspan class="line" dy="1.3em" x="550" y="25">​<tspan style="font-size:70%" dy="-0.6em">Observed over Expected Counts, 16 lines</tspan><tspan dy="0.42em">​</tspan></tspan></text></g><g class="g-xtitle"><text class="xtitle" x="572.5" y="487" text-anchor="middle" style="opacity: 0.3; font-family: 'Lucida Grande', 'Open Sans', verdana, arial, sans-serif; font-size: 14px; fill: rgb(0, 0, 0); fill-opacity: 1; white-space: pre;">Chromosome name</text></g><g class="g-ytitle"><text class="ytitle" transform="rotate(-90,22,242.5)" x="22" y="242.5" text-anchor="middle" style="opacity: 0.3; font-family: 'Lucida Grande', 'Open Sans', verdana, arial, sans-serif; font-size: 14px; fill: rgb(0, 0, 0); fill-opacity: 1; white-space: pre;">log10 ( Observed over expected counts )</text></g></g></svg>