<svg class="main-svg" xmlns="http://www.w3.org/2000/svg" xmlns:xlink="http://www.w3.org/1999/xlink" width="2200" height="1010" style="" viewBox="0 0 1100 505"><rect x="0" y="0" width="1100" height="505" style="fill: rgb(255, 255, 255); fill-opacity: 1;"/><defs id="defs-c5c4a5"><g class="clips"><clipPath id="clipc5c4a5xyplot" class="plotclip"><rect width="1025" height="390"/></clipPath><clipPath class="axesclip" id="clipc5c4a5x"><rect x="60" y="0" width="1025" height="505"/></clipPath><clipPath class="axesclip" id="clipc5c4a5y"><rect x="0" y="50" width="1100" height="390"/></clipPath><clipPath class="axesclip" id="clipc5c4a5xy"><rect x="60" y="50" width="1025" height="390"/></clipPath></g><g class="gradients"/><g class="patterns"/></defs><g class="bglayer"/><g class="layer-below"><g class="imagelayer"/><g class="shapelayer"/></g><g class="cartesianlayer"><g class="subplot xy"><g class="layer-subplot"><g class="shapelayer"/><g class="imagelayer"/></g><g class="minor-gridlayer"><g class="x"/><g class="y"/></g><g class="gridlayer"><g class="x"><path class="xgrid crisp" transform="translate(152.74,0)" d="M0,50v390" style="stroke: rgb(0, 0, 0); stroke-opacity: 0.05; stroke-width: 1px;"/><path class="xgrid crisp" transform="translate(409.34,0)" d="M0,50v390" style="stroke: rgb(0, 0, 0); stroke-opacity: 0.05; stroke-width: 1px;"/><path class="xgrid crisp" transform="translate(537.64,0)" d="M0,50v390" style="stroke: rgb(0, 0, 0); stroke-opacity: 0.05; stroke-width: 1px;"/><path class="xgrid crisp" transform="translate(665.94,0)" d="M0,50v390" style="stroke: rgb(0, 0, 0); stroke-opacity: 0.05; stroke-width: 1px;"/><path class="xgrid crisp" transform="translate(794.24,0)" d="M0,50v390" style="stroke: rgb(0, 0, 0); stroke-opacity: 0.05; stroke-width: 1px;"/><path class="xgrid crisp" transform="translate(922.54,0)" d="M0,50v390" style="stroke: rgb(0, 0, 0); stroke-opacity: 0.05; stroke-width: 1px;"/><path class="xgrid crisp" transform="translate(1050.8400000000001,0)" d="M0,50v390" style="stroke: rgb(0, 0, 0); stroke-opacity: 0.05; stroke-width: 1px;"/></g><g class="y"><path class="ygrid crisp" transform="translate(0,384.95)" d="M60,0h1025" style="stroke: rgb(0, 0, 0); stroke-opacity: 0.05; stroke-width: 1px;"/><path class="ygrid crisp" transform="translate(0,321.83)" d="M60,0h1025" style="stroke: rgb(0, 0, 0); stroke-opacity: 0.05; stroke-width: 1px;"/><path class="ygrid crisp" transform="translate(0,258.71000000000004)" d="M60,0h1025" style="stroke: rgb(0, 0, 0); stroke-opacity: 0.05; stroke-width: 1px;"/><path class="ygrid crisp" transform="translate(0,132.47)" d="M60,0h1025" style="stroke: rgb(0, 0, 0); stroke-opacity: 0.05; stroke-width: 1px;"/><path class="ygrid crisp" transform="translate(0,69.35)" d="M60,0h1025" style="stroke: rgb(0, 0, 0); stroke-opacity: 0.05; stroke-width: 1px;"/></g></g><g class="zerolinelayer"><path class="xzl zl crisp" transform="translate(281.03999999999996,0)" d="M0,50v390" style="stroke: rgb(0, 0, 0); stroke-opacity: 0.05; stroke-width: 1px;"/><path class="yzl zl crisp" transform="translate(0,195.59)" d="M60,0h1025" style="stroke: rgb(0, 0, 0); stroke-opacity: 0.05; stroke-width: 1px;"/></g><g class="layer-between"><g class="shapelayer"/><g class="imagelayer"/></g><path class="xlines-below"/><path class="ylines-below"/><g class="overlines-below"/><g class="xaxislayer-below"/><g class="yaxislayer-below"/><g class="overaxes-below"/><g class="overplot"><g class="xy" transform="translate(60,50)" clip-path="url(#clipc5c4a5xyplot)"><g class="scatterlayer mlayer"><g class="trace scatter trace92ca9a" style="stroke-miterlimit: 2; opacity: 1;"><g class="fills"/><g class="errorbars"/><g class="lines"/><g class="points"><path class="point" transform="translate(57.5,364.25)" d="M5,0A5,5 0 1,1 0,-5A5,5 0 0,1 5,0Z" style="opacity: 1; stroke-width: 1px; fill: rgb(124, 181, 236); fill-opacity: 0.5; stroke: rgb(0, 0, 0); stroke-opacity: 0.2;"/></g><g class="text"><g class="textpoint" transform="translate(0,2)"><text x="57.5" y="364.25" text-anchor="middle" style="font-family: 'Lucida Grande', 'Open Sans', verdana, arial, sans-serif; font-size: 8px; fill: rgb(68, 68, 68); fill-opacity: 1; white-space: pre;">Nac_oxy_1</text></g></g></g><g class="trace scatter trace90b32e" style="stroke-miterlimit: 2; opacity: 1;"><g class="fills"/><g class="errorbars"/><g class="lines"/><g class="points"><path class="point" transform="translate(77.24,273.82)" d="M5,0A5,5 0 1,1 0,-5A5,5 0 0,1 5,0Z" style="opacity: 1; stroke-width: 1px; fill: rgb(124, 181, 236); fill-opacity: 0.5; stroke: rgb(0, 0, 0); stroke-opacity: 0.2;"/></g><g class="text"><g class="textpoint" transform="translate(0,2)"><text x="77.24" y="273.82" text-anchor="middle" style="font-family: 'Lucida Grande', 'Open Sans', verdana, arial, sans-serif; font-size: 8px; fill: rgb(68, 68, 68); fill-opacity: 1; white-space: pre;">Nac_Sal_5</text></g></g></g><g class="trace scatter trace293c8b" style="stroke-miterlimit: 2; opacity: 1;"><g class="fills"/><g class="errorbars"/><g class="lines"><path class="js-line" d="M90.91,177.91" style="vector-effect: none; fill: none; stroke: rgb(124, 181, 236); stroke-opacity: 0.5; stroke-width: 2px; opacity: 1;"/></g><g class="points"><path class="point" transform="translate(90.91,177.91)" d="M5,0A5,5 0 1,1 0,-5A5,5 0 0,1 5,0Z" style="opacity: 1; stroke-width: 1px; fill: rgb(124, 181, 236); fill-opacity: 0.5; stroke: rgb(0, 0, 0); stroke-opacity: 0.2;"/></g><g class="text"/></g><g class="trace scatter trace0d9a27" style="stroke-miterlimit: 2; opacity: 1;"><g class="fills"/><g class="errorbars"/><g class="lines"><path class="js-line" d="M97.44,182.04" style="vector-effect: none; fill: none; stroke: rgb(124, 181, 236); stroke-opacity: 0.5; stroke-width: 2px; opacity: 1;"/></g><g class="points"><path class="point" transform="translate(97.44,182.04)" d="M5,0A5,5 0 1,1 0,-5A5,5 0 0,1 5,0Z" style="opacity: 1; stroke-width: 1px; fill: rgb(124, 181, 236); fill-opacity: 0.5; stroke: rgb(0, 0, 0); stroke-opacity: 0.2;"/></g><g class="text"/></g><g class="trace scatter trace4215e8" style="stroke-miterlimit: 2; opacity: 1;"><g class="fills"/><g class="errorbars"/><g class="lines"><path class="js-line" d="M99.11,217.84" style="vector-effect: none; fill: none; stroke: rgb(124, 181, 236); stroke-opacity: 0.5; stroke-width: 2px; opacity: 1;"/></g><g class="points"><path class="point" transform="translate(99.11,217.84)" d="M5,0A5,5 0 1,1 0,-5A5,5 0 0,1 5,0Z" style="opacity: 1; stroke-width: 1px; fill: rgb(124, 181, 236); fill-opacity: 0.5; stroke: rgb(0, 0, 0); stroke-opacity: 0.2;"/></g><g class="text"/></g><g class="trace scatter trace0bd91b" style="stroke-miterlimit: 2; opacity: 1;"><g class="fills"/><g class="errorbars"/><g class="lines"><path class="js-line" d="M136.57,86.23" style="vector-effect: none; fill: none; stroke: rgb(124, 181, 236); stroke-opacity: 0.5; stroke-width: 2px; opacity: 1;"/></g><g class="points"><path class="point" transform="translate(136.57,86.23)" d="M5,0A5,5 0 1,1 0,-5A5,5 0 0,1 5,0Z" style="opacity: 1; stroke-width: 1px; fill: rgb(124, 181, 236); fill-opacity: 0.5; stroke: rgb(0, 0, 0); stroke-opacity: 0.2;"/></g><g class="text"/></g><g class="trace scatter trace42a4a7" style="stroke-miterlimit: 2; opacity: 1;"><g class="fills"/><g class="errorbars"/><g class="lines"><path class="js-line" d="M140.58,80.11" style="vector-effect: none; fill: none; stroke: rgb(124, 181, 236); stroke-opacity: 0.5; stroke-width: 2px; opacity: 1;"/></g><g class="points"><path class="point" transform="translate(140.58,80.11)" d="M5,0A5,5 0 1,1 0,-5A5,5 0 0,1 5,0Z" style="opacity: 1; stroke-width: 1px; fill: rgb(124, 181, 236); fill-opacity: 0.5; stroke: rgb(0, 0, 0); stroke-opacity: 0.2;"/></g><g class="text"/></g><g class="trace scatter tracee8fd3a" style="stroke-miterlimit: 2; opacity: 1;"><g class="fills"/><g class="errorbars"/><g class="lines"><path class="js-line" d="M156.25,69.91" style="vector-effect: none; fill: none; stroke: rgb(124, 181, 236); stroke-opacity: 0.5; stroke-width: 2px; opacity: 1;"/></g><g class="points"><path class="point" transform="translate(156.25,69.91)" d="M5,0A5,5 0 1,1 0,-5A5,5 0 0,1 5,0Z" style="opacity: 1; stroke-width: 1px; fill: rgb(124, 181, 236); fill-opacity: 0.5; stroke: rgb(0, 0, 0); stroke-opacity: 0.2;"/></g><g class="text"/></g><g class="trace scatter traceac374a" style="stroke-miterlimit: 2; opacity: 1;"><g class="fills"/><g class="errorbars"/><g class="lines"/><g class="points"><path class="point" transform="translate(165.42,42.73)" d="M5,0A5,5 0 1,1 0,-5A5,5 0 0,1 5,0Z" style="opacity: 1; stroke-width: 1px; fill: rgb(124, 181, 236); fill-opacity: 0.5; stroke: rgb(0, 0, 0); stroke-opacity: 0.2;"/></g><g class="text"><g class="textpoint" transform="translate(0,2)"><text x="165.42" y="42.73" text-anchor="middle" style="font-family: 'Lucida Grande', 'Open Sans', verdana, arial, sans-serif; font-size: 8px; fill: rgb(68, 68, 68); fill-opacity: 1; white-space: pre;">Nac_Sal_6</text></g></g></g><g class="trace scatter trace23e93e" style="stroke-miterlimit: 2; opacity: 1;"><g class="fills"/><g class="errorbars"/><g class="lines"><path class="js-line" d="M166.33,52.06" style="vector-effect: none; fill: none; stroke: rgb(124, 181, 236); stroke-opacity: 0.5; stroke-width: 2px; opacity: 1;"/></g><g class="points"><path class="point" transform="translate(166.33,52.06)" d="M5,0A5,5 0 1,1 0,-5A5,5 0 0,1 5,0Z" style="opacity: 1; stroke-width: 1px; fill: rgb(124, 181, 236); fill-opacity: 0.5; stroke: rgb(0, 0, 0); stroke-opacity: 0.2;"/></g><g class="text"/></g><g class="trace scatter tracea8816f" style="stroke-miterlimit: 2; opacity: 1;"><g class="fills"/><g class="errorbars"/><g class="lines"><path class="js-line" d="M178.57,129.56" style="vector-effect: none; fill: none; stroke: rgb(124, 181, 236); stroke-opacity: 0.5; stroke-width: 2px; opacity: 1;"/></g><g class="points"><path class="point" transform="translate(178.57,129.56)" d="M5,0A5,5 0 1,1 0,-5A5,5 0 0,1 5,0Z" style="opacity: 1; stroke-width: 1px; fill: rgb(124, 181, 236); fill-opacity: 0.5; stroke: rgb(0, 0, 0); stroke-opacity: 0.2;"/></g><g class="text"/></g><g class="trace scatter tracee2d99e" style="stroke-miterlimit: 2; opacity: 1;"><g class="fills"/><g class="errorbars"/><g class="lines"><path class="js-line" d="M189.63,160.58" style="vector-effect: none; fill: none; stroke: rgb(124, 181, 236); stroke-opacity: 0.5; stroke-width: 2px; opacity: 1;"/></g><g class="points"><path class="point" transform="translate(189.63,160.58)" d="M5,0A5,5 0 1,1 0,-5A5,5 0 0,1 5,0Z" style="opacity: 1; stroke-width: 1px; fill: rgb(124, 181, 236); fill-opacity: 0.5; stroke: rgb(0, 0, 0); stroke-opacity: 0.2;"/></g><g class="text"/></g><g class="trace scatter trace908d30" style="stroke-miterlimit: 2; opacity: 1;"><g class="fills"/><g class="errorbars"/><g class="lines"/><g class="points"><path class="point" transform="translate(211.5,25.75)" d="M5,0A5,5 0 1,1 0,-5A5,5 0 0,1 5,0Z" style="opacity: 1; stroke-width: 1px; fill: rgb(124, 181, 236); fill-opacity: 0.5; stroke: rgb(0, 0, 0); stroke-opacity: 0.2;"/></g><g class="text"><g class="textpoint" transform="translate(0,2)"><text x="211.5" y="25.75" text-anchor="middle" style="font-family: 'Lucida Grande', 'Open Sans', verdana, arial, sans-serif; font-size: 8px; fill: rgb(68, 68, 68); fill-opacity: 1; white-space: pre;">Nac_Sal_4</text></g></g></g><g class="trace scatter trace2a328f" style="stroke-miterlimit: 2; opacity: 1;"><g class="fills"/><g class="errorbars"/><g class="lines"/><g class="points"><path class="point" transform="translate(256.23,39.83)" d="M5,0A5,5 0 1,1 0,-5A5,5 0 0,1 5,0Z" style="opacity: 1; stroke-width: 1px; fill: rgb(124, 181, 236); fill-opacity: 0.5; stroke: rgb(0, 0, 0); stroke-opacity: 0.2;"/></g><g class="text"><g class="textpoint" transform="translate(0,2)"><text x="256.23" y="39.83" text-anchor="middle" style="font-family: 'Lucida Grande', 'Open Sans', verdana, arial, sans-serif; font-size: 8px; fill: rgb(68, 68, 68); fill-opacity: 1; white-space: pre;">Nac_Sal_8</text></g></g></g><g class="trace scatter trace61034f" style="stroke-miterlimit: 2; opacity: 1;"><g class="fills"/><g class="errorbars"/><g class="lines"/><g class="points"><path class="point" transform="translate(545.86,271.73)" d="M5,0A5,5 0 1,1 0,-5A5,5 0 0,1 5,0Z" style="opacity: 1; stroke-width: 1px; fill: rgb(124, 181, 236); fill-opacity: 0.5; stroke: rgb(0, 0, 0); stroke-opacity: 0.2;"/></g><g class="text"><g class="textpoint" transform="translate(0,2)"><text x="545.86" y="271.73" text-anchor="middle" style="font-family: 'Lucida Grande', 'Open Sans', verdana, arial, sans-serif; font-size: 8px; fill: rgb(68, 68, 68); fill-opacity: 1; white-space: pre;">Nac_Sal_7</text></g></g></g><g class="trace scatter trace6dbbae" style="stroke-miterlimit: 2; opacity: 1;"><g class="fills"/><g class="errorbars"/><g class="lines"/><g class="points"><path class="point" transform="translate(967.5,155.09)" d="M5,0A5,5 0 1,1 0,-5A5,5 0 0,1 5,0Z" style="opacity: 1; stroke-width: 1px; fill: rgb(124, 181, 236); fill-opacity: 0.5; stroke: rgb(0, 0, 0); stroke-opacity: 0.2;"/></g><g class="text"><g class="textpoint" transform="translate(0,2)"><text x="967.5" y="155.09" text-anchor="middle" style="font-family: 'Lucida Grande', 'Open Sans', verdana, arial, sans-serif; font-size: 8px; fill: rgb(68, 68, 68); fill-opacity: 1; white-space: pre;">Nac_Sal_3</text></g></g></g></g></g></g><g class="zerolinelayer-above"/><path class="xlines-above crisp" d="M0,0" style="fill: none;"/><path class="ylines-above crisp" d="M0,0" style="fill: none;"/><g class="overlines-above"/><g class="xaxislayer-above"><g class="xtick"><text text-anchor="middle" x="0" y="456" transform="translate(152.74,0)" style="font-family: 'Lucida Grande', 'Open Sans', verdana, arial, sans-serif; font-size: 10px; fill: rgb(0, 0, 0); fill-opacity: 1; white-space: pre;">−10</text></g><g class="xtick"><text text-anchor="middle" x="0" y="456" style="font-family: 'Lucida Grande', 'Open Sans', verdana, arial, sans-serif; font-size: 10px; fill: rgb(0, 0, 0); fill-opacity: 1; white-space: pre;" transform="translate(281.03999999999996,0)">0</text></g><g class="xtick"><text text-anchor="middle" x="0" y="456" style="font-family: 'Lucida Grande', 'Open Sans', verdana, arial, sans-serif; font-size: 10px; fill: rgb(0, 0, 0); fill-opacity: 1; white-space: pre;" transform="translate(409.34,0)">10</text></g><g class="xtick"><text text-anchor="middle" x="0" y="456" style="font-family: 'Lucida Grande', 'Open Sans', verdana, arial, sans-serif; font-size: 10px; fill: rgb(0, 0, 0); fill-opacity: 1; white-space: pre;" transform="translate(537.64,0)">20</text></g><g class="xtick"><text text-anchor="middle" x="0" y="456" style="font-family: 'Lucida Grande', 'Open Sans', verdana, arial, sans-serif; font-size: 10px; fill: rgb(0, 0, 0); fill-opacity: 1; white-space: pre;" transform="translate(665.94,0)">30</text></g><g class="xtick"><text text-anchor="middle" x="0" y="456" style="font-family: 'Lucida Grande', 'Open Sans', verdana, arial, sans-serif; font-size: 10px; fill: rgb(0, 0, 0); fill-opacity: 1; white-space: pre;" transform="translate(794.24,0)">40</text></g><g class="xtick"><text text-anchor="middle" x="0" y="456" style="font-family: 'Lucida Grande', 'Open Sans', verdana, arial, sans-serif; font-size: 10px; fill: rgb(0, 0, 0); fill-opacity: 1; white-space: pre;" transform="translate(922.54,0)">50</text></g><g class="xtick"><text text-anchor="middle" x="0" y="456" style="font-family: 'Lucida Grande', 'Open Sans', verdana, arial, sans-serif; font-size: 10px; fill: rgb(0, 0, 0); fill-opacity: 1; white-space: pre;" transform="translate(1050.8400000000001,0)">60</text></g></g><g class="yaxislayer-above"><g class="ytick"><text text-anchor="end" x="54" y="3.5" transform="translate(0,384.95)" style="font-family: 'Lucida Grande', 'Open Sans', verdana, arial, sans-serif; font-size: 10px; fill: rgb(0, 0, 0); fill-opacity: 1; white-space: pre;">−30</text></g><g class="ytick"><text text-anchor="end" x="54" y="3.5" style="font-family: 'Lucida Grande', 'Open Sans', verdana, arial, sans-serif; font-size: 10px; fill: rgb(0, 0, 0); fill-opacity: 1; white-space: pre;" transform="translate(0,321.83)">−20</text></g><g class="ytick"><text text-anchor="end" x="54" y="3.5" style="font-family: 'Lucida Grande', 'Open Sans', verdana, arial, sans-serif; font-size: 10px; fill: rgb(0, 0, 0); fill-opacity: 1; white-space: pre;" transform="translate(0,258.71000000000004)">−10</text></g><g class="ytick"><text text-anchor="end" x="54" y="3.5" style="font-family: 'Lucida Grande', 'Open Sans', verdana, arial, sans-serif; font-size: 10px; fill: rgb(0, 0, 0); fill-opacity: 1; white-space: pre;" transform="translate(0,195.59)">0</text></g><g class="ytick"><text text-anchor="end" x="54" y="3.5" style="font-family: 'Lucida Grande', 'Open Sans', verdana, arial, sans-serif; font-size: 10px; fill: rgb(0, 0, 0); fill-opacity: 1; white-space: pre;" transform="translate(0,132.47)">10</text></g><g class="ytick"><text text-anchor="end" x="54" y="3.5" style="font-family: 'Lucida Grande', 'Open Sans', verdana, arial, sans-serif; font-size: 10px; fill: rgb(0, 0, 0); fill-opacity: 1; white-space: pre;" transform="translate(0,69.35)">20</text></g></g><g class="overaxes-above"/></g></g><g class="polarlayer"/><g class="smithlayer"/><g class="ternarylayer"/><g class="geolayer"/><g class="funnelarealayer"/><g class="pielayer"/><g class="iciclelayer"/><g class="treemaplayer"/><g class="sunburstlayer"/><g class="glimages"/><defs id="topdefs-c5c4a5"><g class="clips"/></defs><g class="layer-above"><g class="imagelayer"/><g class="shapelayer"/></g><g class="infolayer"><g class="g-gtitle"><text class="gtitle" x="550" y="25" text-anchor="middle" dy="0em" style="opacity: 1; font-family: 'Lucida Grande', 'Open Sans', verdana, arial, sans-serif; font-size: 20px; fill: rgb(68, 68, 68); fill-opacity: 1; white-space: pre;"><tspan class="line" dy="0em" x="550" y="25">DESeq2: Principal component plot</tspan><tspan class="line" dy="1.3em" x="550" y="25">​<tspan style="font-size:70%" dy="-0.6em">16 points</tspan><tspan dy="0.42em">​</tspan></tspan></text></g><g class="g-xtitle"><text class="xtitle" x="572.5" y="492" text-anchor="middle" style="opacity: 0.3; font-family: 'Lucida Grande', 'Open Sans', verdana, arial, sans-serif; font-size: 14px; fill: rgb(0, 0, 0); fill-opacity: 1; white-space: pre;">PC1</text></g><g class="g-ytitle"><text class="ytitle" transform="rotate(-90,22,245)" x="22" y="245" text-anchor="middle" style="opacity: 0.3; font-family: 'Lucida Grande', 'Open Sans', verdana, arial, sans-serif; font-size: 14px; fill: rgb(0, 0, 0); fill-opacity: 1; white-space: pre;">PC2</text></g></g></svg>